<?xml version="1.0" encoding="utf-8" standalone="no"?>
<!DOCTYPE svg PUBLIC "-//W3C//DTD SVG 1.1//EN"
  "http://www.w3.org/Graphics/SVG/1.1/DTD/svg11.dtd">
<svg xmlns:xlink="http://www.w3.org/1999/xlink" width="424.766875pt" height="424.106719pt" viewBox="0 0 424.766875 424.106719" xmlns="http://www.w3.org/2000/svg" version="1.1">
 <metadata>
  <rdf:RDF xmlns:dc="http://purl.org/dc/elements/1.1/" xmlns:cc="http://creativecommons.org/ns#" xmlns:rdf="http://www.w3.org/1999/02/22-rdf-syntax-ns#">
   <cc:Work>
    <dc:type rdf:resource="http://purl.org/dc/dcmitype/StillImage"/>
    <dc:date>2024-04-17T11:51:08.908114</dc:date>
    <dc:format>image/svg+xml</dc:format>
    <dc:creator>
     <cc:Agent>
      <dc:title>Matplotlib v3.6.2, https://matplotlib.org/</dc:title>
     </cc:Agent>
    </dc:creator>
   </cc:Work>
  </rdf:RDF>
 </metadata>
 <defs>
  <style type="text/css">*{stroke-linejoin: round; stroke-linecap: butt}</style>
 </defs>
 <g id="figure_1">
  <g id="patch_1">
   <path d="M 0 424.106719 
L 424.766875 424.106719 
L 424.766875 0 
L 0 0 
z
" style="fill: #ffffff"/>
  </g>
  <g id="axes_1">
   <g id="patch_2">
    <path d="M 50.836875 382.679219 
L 417.566875 382.679219 
L 417.566875 10.999219 
L 50.836875 10.999219 
z
" style="fill: #ffffff"/>
   </g>
   <g id="matplotlib.axis_1">
    <g id="xtick_1">
     <g id="line2d_1">
      <defs>
       <path id="m7d65acc3d1" d="M 0 0 
L 0 3.5 
" style="stroke: #000000; stroke-width: 0.8"/>
      </defs>
      <g>
       <use xlink:href="#m7d65acc3d1" x="50.836875" y="382.679219" style="stroke: #000000; stroke-width: 0.8"/>
      </g>
     </g>
     <g id="text_1">
      <!-- 0 -->
      <g transform="translate(47.655625 397.277656) scale(0.1 -0.1)">
       <defs>
        <path id="DejaVuSans-30" d="M 2034 4250 
Q 1547 4250 1301 3770 
Q 1056 3291 1056 2328 
Q 1056 1369 1301 889 
Q 1547 409 2034 409 
Q 2525 409 2770 889 
Q 3016 1369 3016 2328 
Q 3016 3291 2770 3770 
Q 2525 4250 2034 4250 
z
M 2034 4750 
Q 2819 4750 3233 4129 
Q 3647 3509 3647 2328 
Q 3647 1150 3233 529 
Q 2819 -91 2034 -91 
Q 1250 -91 836 529 
Q 422 1150 422 2328 
Q 422 3509 836 4129 
Q 1250 4750 2034 4750 
z
" transform="scale(0.015625)"/>
       </defs>
       <use xlink:href="#DejaVuSans-30"/>
      </g>
     </g>
    </g>
    <g id="xtick_2">
     <g id="line2d_2">
      <g>
       <use xlink:href="#m7d65acc3d1" x="130.560788" y="382.679219" style="stroke: #000000; stroke-width: 0.8"/>
      </g>
     </g>
     <g id="text_2">
      <!-- 20 -->
      <g transform="translate(124.198288 397.277656) scale(0.1 -0.1)">
       <defs>
        <path id="DejaVuSans-32" d="M 1228 531 
L 3431 531 
L 3431 0 
L 469 0 
L 469 531 
Q 828 903 1448 1529 
Q 2069 2156 2228 2338 
Q 2531 2678 2651 2914 
Q 2772 3150 2772 3378 
Q 2772 3750 2511 3984 
Q 2250 4219 1831 4219 
Q 1534 4219 1204 4116 
Q 875 4013 500 3803 
L 500 4441 
Q 881 4594 1212 4672 
Q 1544 4750 1819 4750 
Q 2544 4750 2975 4387 
Q 3406 4025 3406 3419 
Q 3406 3131 3298 2873 
Q 3191 2616 2906 2266 
Q 2828 2175 2409 1742 
Q 1991 1309 1228 531 
z
" transform="scale(0.015625)"/>
       </defs>
       <use xlink:href="#DejaVuSans-32"/>
       <use xlink:href="#DejaVuSans-30" x="63.623047"/>
      </g>
     </g>
    </g>
    <g id="xtick_3">
     <g id="line2d_3">
      <g>
       <use xlink:href="#m7d65acc3d1" x="210.284701" y="382.679219" style="stroke: #000000; stroke-width: 0.8"/>
      </g>
     </g>
     <g id="text_3">
      <!-- 40 -->
      <g transform="translate(203.922201 397.277656) scale(0.1 -0.1)">
       <defs>
        <path id="DejaVuSans-34" d="M 2419 4116 
L 825 1625 
L 2419 1625 
L 2419 4116 
z
M 2253 4666 
L 3047 4666 
L 3047 1625 
L 3713 1625 
L 3713 1100 
L 3047 1100 
L 3047 0 
L 2419 0 
L 2419 1100 
L 313 1100 
L 313 1709 
L 2253 4666 
z
" transform="scale(0.015625)"/>
       </defs>
       <use xlink:href="#DejaVuSans-34"/>
       <use xlink:href="#DejaVuSans-30" x="63.623047"/>
      </g>
     </g>
    </g>
    <g id="xtick_4">
     <g id="line2d_4">
      <g>
       <use xlink:href="#m7d65acc3d1" x="290.008614" y="382.679219" style="stroke: #000000; stroke-width: 0.8"/>
      </g>
     </g>
     <g id="text_4">
      <!-- 60 -->
      <g transform="translate(283.646114 397.277656) scale(0.1 -0.1)">
       <defs>
        <path id="DejaVuSans-36" d="M 2113 2584 
Q 1688 2584 1439 2293 
Q 1191 2003 1191 1497 
Q 1191 994 1439 701 
Q 1688 409 2113 409 
Q 2538 409 2786 701 
Q 3034 994 3034 1497 
Q 3034 2003 2786 2293 
Q 2538 2584 2113 2584 
z
M 3366 4563 
L 3366 3988 
Q 3128 4100 2886 4159 
Q 2644 4219 2406 4219 
Q 1781 4219 1451 3797 
Q 1122 3375 1075 2522 
Q 1259 2794 1537 2939 
Q 1816 3084 2150 3084 
Q 2853 3084 3261 2657 
Q 3669 2231 3669 1497 
Q 3669 778 3244 343 
Q 2819 -91 2113 -91 
Q 1303 -91 875 529 
Q 447 1150 447 2328 
Q 447 3434 972 4092 
Q 1497 4750 2381 4750 
Q 2619 4750 2861 4703 
Q 3103 4656 3366 4563 
z
" transform="scale(0.015625)"/>
       </defs>
       <use xlink:href="#DejaVuSans-36"/>
       <use xlink:href="#DejaVuSans-30" x="63.623047"/>
      </g>
     </g>
    </g>
    <g id="xtick_5">
     <g id="line2d_5">
      <g>
       <use xlink:href="#m7d65acc3d1" x="369.732527" y="382.679219" style="stroke: #000000; stroke-width: 0.8"/>
      </g>
     </g>
     <g id="text_5">
      <!-- 80 -->
      <g transform="translate(363.370027 397.277656) scale(0.1 -0.1)">
       <defs>
        <path id="DejaVuSans-38" d="M 2034 2216 
Q 1584 2216 1326 1975 
Q 1069 1734 1069 1313 
Q 1069 891 1326 650 
Q 1584 409 2034 409 
Q 2484 409 2743 651 
Q 3003 894 3003 1313 
Q 3003 1734 2745 1975 
Q 2488 2216 2034 2216 
z
M 1403 2484 
Q 997 2584 770 2862 
Q 544 3141 544 3541 
Q 544 4100 942 4425 
Q 1341 4750 2034 4750 
Q 2731 4750 3128 4425 
Q 3525 4100 3525 3541 
Q 3525 3141 3298 2862 
Q 3072 2584 2669 2484 
Q 3125 2378 3379 2068 
Q 3634 1759 3634 1313 
Q 3634 634 3220 271 
Q 2806 -91 2034 -91 
Q 1263 -91 848 271 
Q 434 634 434 1313 
Q 434 1759 690 2068 
Q 947 2378 1403 2484 
z
M 1172 3481 
Q 1172 3119 1398 2916 
Q 1625 2713 2034 2713 
Q 2441 2713 2670 2916 
Q 2900 3119 2900 3481 
Q 2900 3844 2670 4047 
Q 2441 4250 2034 4250 
Q 1625 4250 1398 4047 
Q 1172 3844 1172 3481 
z
" transform="scale(0.015625)"/>
       </defs>
       <use xlink:href="#DejaVuSans-38"/>
       <use xlink:href="#DejaVuSans-30" x="63.623047"/>
      </g>
     </g>
    </g>
    <g id="text_6">
     <!-- Number of participants -->
     <g transform="translate(153.230469 413.995156) scale(0.14 -0.14)">
      <defs>
       <path id="DejaVuSans-4e" d="M 628 4666 
L 1478 4666 
L 3547 763 
L 3547 4666 
L 4159 4666 
L 4159 0 
L 3309 0 
L 1241 3903 
L 1241 0 
L 628 0 
L 628 4666 
z
" transform="scale(0.015625)"/>
       <path id="DejaVuSans-75" d="M 544 1381 
L 544 3500 
L 1119 3500 
L 1119 1403 
Q 1119 906 1312 657 
Q 1506 409 1894 409 
Q 2359 409 2629 706 
Q 2900 1003 2900 1516 
L 2900 3500 
L 3475 3500 
L 3475 0 
L 2900 0 
L 2900 538 
Q 2691 219 2414 64 
Q 2138 -91 1772 -91 
Q 1169 -91 856 284 
Q 544 659 544 1381 
z
M 1991 3584 
L 1991 3584 
z
" transform="scale(0.015625)"/>
       <path id="DejaVuSans-6d" d="M 3328 2828 
Q 3544 3216 3844 3400 
Q 4144 3584 4550 3584 
Q 5097 3584 5394 3201 
Q 5691 2819 5691 2113 
L 5691 0 
L 5113 0 
L 5113 2094 
Q 5113 2597 4934 2840 
Q 4756 3084 4391 3084 
Q 3944 3084 3684 2787 
Q 3425 2491 3425 1978 
L 3425 0 
L 2847 0 
L 2847 2094 
Q 2847 2600 2669 2842 
Q 2491 3084 2119 3084 
Q 1678 3084 1418 2786 
Q 1159 2488 1159 1978 
L 1159 0 
L 581 0 
L 581 3500 
L 1159 3500 
L 1159 2956 
Q 1356 3278 1631 3431 
Q 1906 3584 2284 3584 
Q 2666 3584 2933 3390 
Q 3200 3197 3328 2828 
z
" transform="scale(0.015625)"/>
       <path id="DejaVuSans-62" d="M 3116 1747 
Q 3116 2381 2855 2742 
Q 2594 3103 2138 3103 
Q 1681 3103 1420 2742 
Q 1159 2381 1159 1747 
Q 1159 1113 1420 752 
Q 1681 391 2138 391 
Q 2594 391 2855 752 
Q 3116 1113 3116 1747 
z
M 1159 2969 
Q 1341 3281 1617 3432 
Q 1894 3584 2278 3584 
Q 2916 3584 3314 3078 
Q 3713 2572 3713 1747 
Q 3713 922 3314 415 
Q 2916 -91 2278 -91 
Q 1894 -91 1617 61 
Q 1341 213 1159 525 
L 1159 0 
L 581 0 
L 581 4863 
L 1159 4863 
L 1159 2969 
z
" transform="scale(0.015625)"/>
       <path id="DejaVuSans-65" d="M 3597 1894 
L 3597 1613 
L 953 1613 
Q 991 1019 1311 708 
Q 1631 397 2203 397 
Q 2534 397 2845 478 
Q 3156 559 3463 722 
L 3463 178 
Q 3153 47 2828 -22 
Q 2503 -91 2169 -91 
Q 1331 -91 842 396 
Q 353 884 353 1716 
Q 353 2575 817 3079 
Q 1281 3584 2069 3584 
Q 2775 3584 3186 3129 
Q 3597 2675 3597 1894 
z
M 3022 2063 
Q 3016 2534 2758 2815 
Q 2500 3097 2075 3097 
Q 1594 3097 1305 2825 
Q 1016 2553 972 2059 
L 3022 2063 
z
" transform="scale(0.015625)"/>
       <path id="DejaVuSans-72" d="M 2631 2963 
Q 2534 3019 2420 3045 
Q 2306 3072 2169 3072 
Q 1681 3072 1420 2755 
Q 1159 2438 1159 1844 
L 1159 0 
L 581 0 
L 581 3500 
L 1159 3500 
L 1159 2956 
Q 1341 3275 1631 3429 
Q 1922 3584 2338 3584 
Q 2397 3584 2469 3576 
Q 2541 3569 2628 3553 
L 2631 2963 
z
" transform="scale(0.015625)"/>
       <path id="DejaVuSans-20" transform="scale(0.015625)"/>
       <path id="DejaVuSans-6f" d="M 1959 3097 
Q 1497 3097 1228 2736 
Q 959 2375 959 1747 
Q 959 1119 1226 758 
Q 1494 397 1959 397 
Q 2419 397 2687 759 
Q 2956 1122 2956 1747 
Q 2956 2369 2687 2733 
Q 2419 3097 1959 3097 
z
M 1959 3584 
Q 2709 3584 3137 3096 
Q 3566 2609 3566 1747 
Q 3566 888 3137 398 
Q 2709 -91 1959 -91 
Q 1206 -91 779 398 
Q 353 888 353 1747 
Q 353 2609 779 3096 
Q 1206 3584 1959 3584 
z
" transform="scale(0.015625)"/>
       <path id="DejaVuSans-66" d="M 2375 4863 
L 2375 4384 
L 1825 4384 
Q 1516 4384 1395 4259 
Q 1275 4134 1275 3809 
L 1275 3500 
L 2222 3500 
L 2222 3053 
L 1275 3053 
L 1275 0 
L 697 0 
L 697 3053 
L 147 3053 
L 147 3500 
L 697 3500 
L 697 3744 
Q 697 4328 969 4595 
Q 1241 4863 1831 4863 
L 2375 4863 
z
" transform="scale(0.015625)"/>
       <path id="DejaVuSans-70" d="M 1159 525 
L 1159 -1331 
L 581 -1331 
L 581 3500 
L 1159 3500 
L 1159 2969 
Q 1341 3281 1617 3432 
Q 1894 3584 2278 3584 
Q 2916 3584 3314 3078 
Q 3713 2572 3713 1747 
Q 3713 922 3314 415 
Q 2916 -91 2278 -91 
Q 1894 -91 1617 61 
Q 1341 213 1159 525 
z
M 3116 1747 
Q 3116 2381 2855 2742 
Q 2594 3103 2138 3103 
Q 1681 3103 1420 2742 
Q 1159 2381 1159 1747 
Q 1159 1113 1420 752 
Q 1681 391 2138 391 
Q 2594 391 2855 752 
Q 3116 1113 3116 1747 
z
" transform="scale(0.015625)"/>
       <path id="DejaVuSans-61" d="M 2194 1759 
Q 1497 1759 1228 1600 
Q 959 1441 959 1056 
Q 959 750 1161 570 
Q 1363 391 1709 391 
Q 2188 391 2477 730 
Q 2766 1069 2766 1631 
L 2766 1759 
L 2194 1759 
z
M 3341 1997 
L 3341 0 
L 2766 0 
L 2766 531 
Q 2569 213 2275 61 
Q 1981 -91 1556 -91 
Q 1019 -91 701 211 
Q 384 513 384 1019 
Q 384 1609 779 1909 
Q 1175 2209 1959 2209 
L 2766 2209 
L 2766 2266 
Q 2766 2663 2505 2880 
Q 2244 3097 1772 3097 
Q 1472 3097 1187 3025 
Q 903 2953 641 2809 
L 641 3341 
Q 956 3463 1253 3523 
Q 1550 3584 1831 3584 
Q 2591 3584 2966 3190 
Q 3341 2797 3341 1997 
z
" transform="scale(0.015625)"/>
       <path id="DejaVuSans-74" d="M 1172 4494 
L 1172 3500 
L 2356 3500 
L 2356 3053 
L 1172 3053 
L 1172 1153 
Q 1172 725 1289 603 
Q 1406 481 1766 481 
L 2356 481 
L 2356 0 
L 1766 0 
Q 1100 0 847 248 
Q 594 497 594 1153 
L 594 3053 
L 172 3053 
L 172 3500 
L 594 3500 
L 594 4494 
L 1172 4494 
z
" transform="scale(0.015625)"/>
       <path id="DejaVuSans-69" d="M 603 3500 
L 1178 3500 
L 1178 0 
L 603 0 
L 603 3500 
z
M 603 4863 
L 1178 4863 
L 1178 4134 
L 603 4134 
L 603 4863 
z
" transform="scale(0.015625)"/>
       <path id="DejaVuSans-63" d="M 3122 3366 
L 3122 2828 
Q 2878 2963 2633 3030 
Q 2388 3097 2138 3097 
Q 1578 3097 1268 2742 
Q 959 2388 959 1747 
Q 959 1106 1268 751 
Q 1578 397 2138 397 
Q 2388 397 2633 464 
Q 2878 531 3122 666 
L 3122 134 
Q 2881 22 2623 -34 
Q 2366 -91 2075 -91 
Q 1284 -91 818 406 
Q 353 903 353 1747 
Q 353 2603 823 3093 
Q 1294 3584 2113 3584 
Q 2378 3584 2631 3529 
Q 2884 3475 3122 3366 
z
" transform="scale(0.015625)"/>
       <path id="DejaVuSans-6e" d="M 3513 2113 
L 3513 0 
L 2938 0 
L 2938 2094 
Q 2938 2591 2744 2837 
Q 2550 3084 2163 3084 
Q 1697 3084 1428 2787 
Q 1159 2491 1159 1978 
L 1159 0 
L 581 0 
L 581 3500 
L 1159 3500 
L 1159 2956 
Q 1366 3272 1645 3428 
Q 1925 3584 2291 3584 
Q 2894 3584 3203 3211 
Q 3513 2838 3513 2113 
z
" transform="scale(0.015625)"/>
       <path id="DejaVuSans-73" d="M 2834 3397 
L 2834 2853 
Q 2591 2978 2328 3040 
Q 2066 3103 1784 3103 
Q 1356 3103 1142 2972 
Q 928 2841 928 2578 
Q 928 2378 1081 2264 
Q 1234 2150 1697 2047 
L 1894 2003 
Q 2506 1872 2764 1633 
Q 3022 1394 3022 966 
Q 3022 478 2636 193 
Q 2250 -91 1575 -91 
Q 1294 -91 989 -36 
Q 684 19 347 128 
L 347 722 
Q 666 556 975 473 
Q 1284 391 1588 391 
Q 1994 391 2212 530 
Q 2431 669 2431 922 
Q 2431 1156 2273 1281 
Q 2116 1406 1581 1522 
L 1381 1569 
Q 847 1681 609 1914 
Q 372 2147 372 2553 
Q 372 3047 722 3315 
Q 1072 3584 1716 3584 
Q 2034 3584 2315 3537 
Q 2597 3491 2834 3397 
z
" transform="scale(0.015625)"/>
      </defs>
      <use xlink:href="#DejaVuSans-4e"/>
      <use xlink:href="#DejaVuSans-75" x="74.804688"/>
      <use xlink:href="#DejaVuSans-6d" x="138.183594"/>
      <use xlink:href="#DejaVuSans-62" x="235.595703"/>
      <use xlink:href="#DejaVuSans-65" x="299.072266"/>
      <use xlink:href="#DejaVuSans-72" x="360.595703"/>
      <use xlink:href="#DejaVuSans-20" x="401.708984"/>
      <use xlink:href="#DejaVuSans-6f" x="433.496094"/>
      <use xlink:href="#DejaVuSans-66" x="494.677734"/>
      <use xlink:href="#DejaVuSans-20" x="529.882812"/>
      <use xlink:href="#DejaVuSans-70" x="561.669922"/>
      <use xlink:href="#DejaVuSans-61" x="625.146484"/>
      <use xlink:href="#DejaVuSans-72" x="686.425781"/>
      <use xlink:href="#DejaVuSans-74" x="727.539062"/>
      <use xlink:href="#DejaVuSans-69" x="766.748047"/>
      <use xlink:href="#DejaVuSans-63" x="794.53125"/>
      <use xlink:href="#DejaVuSans-69" x="849.511719"/>
      <use xlink:href="#DejaVuSans-70" x="877.294922"/>
      <use xlink:href="#DejaVuSans-61" x="940.771484"/>
      <use xlink:href="#DejaVuSans-6e" x="1002.050781"/>
      <use xlink:href="#DejaVuSans-74" x="1065.429688"/>
      <use xlink:href="#DejaVuSans-73" x="1104.638672"/>
     </g>
    </g>
   </g>
   <g id="matplotlib.axis_2">
    <g id="ytick_1">
     <g id="line2d_6">
      <path d="M 50.836875 382.679219 
L 417.566875 382.679219 
" clip-path="url(#p0b34a9d350)" style="fill: none; stroke-dasharray: 2.96,1.28; stroke-dashoffset: 0; stroke: #c0c0c0; stroke-width: 0.8"/>
     </g>
     <g id="line2d_7">
      <defs>
       <path id="m8a72839d08" d="M 0 0 
L -3.5 0 
" style="stroke: #000000; stroke-width: 0.8"/>
      </defs>
      <g>
       <use xlink:href="#m8a72839d08" x="50.836875" y="382.679219" style="stroke: #000000; stroke-width: 0.8"/>
      </g>
     </g>
     <g id="text_7">
      <!-- 20 -->
      <g transform="translate(31.111875 386.478437) scale(0.1 -0.1)">
       <use xlink:href="#DejaVuSans-32"/>
       <use xlink:href="#DejaVuSans-30" x="63.623047"/>
      </g>
     </g>
    </g>
    <g id="ytick_2">
     <g id="line2d_8">
      <path d="M 50.836875 336.219219 
L 417.566875 336.219219 
" clip-path="url(#p0b34a9d350)" style="fill: none; stroke-dasharray: 2.96,1.28; stroke-dashoffset: 0; stroke: #c0c0c0; stroke-width: 0.8"/>
     </g>
     <g id="line2d_9">
      <g>
       <use xlink:href="#m8a72839d08" x="50.836875" y="336.219219" style="stroke: #000000; stroke-width: 0.8"/>
      </g>
     </g>
     <g id="text_8">
      <!-- 30 -->
      <g transform="translate(31.111875 340.018437) scale(0.1 -0.1)">
       <defs>
        <path id="DejaVuSans-33" d="M 2597 2516 
Q 3050 2419 3304 2112 
Q 3559 1806 3559 1356 
Q 3559 666 3084 287 
Q 2609 -91 1734 -91 
Q 1441 -91 1130 -33 
Q 819 25 488 141 
L 488 750 
Q 750 597 1062 519 
Q 1375 441 1716 441 
Q 2309 441 2620 675 
Q 2931 909 2931 1356 
Q 2931 1769 2642 2001 
Q 2353 2234 1838 2234 
L 1294 2234 
L 1294 2753 
L 1863 2753 
Q 2328 2753 2575 2939 
Q 2822 3125 2822 3475 
Q 2822 3834 2567 4026 
Q 2313 4219 1838 4219 
Q 1578 4219 1281 4162 
Q 984 4106 628 3988 
L 628 4550 
Q 988 4650 1302 4700 
Q 1616 4750 1894 4750 
Q 2613 4750 3031 4423 
Q 3450 4097 3450 3541 
Q 3450 3153 3228 2886 
Q 3006 2619 2597 2516 
z
" transform="scale(0.015625)"/>
       </defs>
       <use xlink:href="#DejaVuSans-33"/>
       <use xlink:href="#DejaVuSans-30" x="63.623047"/>
      </g>
     </g>
    </g>
    <g id="ytick_3">
     <g id="line2d_10">
      <path d="M 50.836875 289.759219 
L 417.566875 289.759219 
" clip-path="url(#p0b34a9d350)" style="fill: none; stroke-dasharray: 2.96,1.28; stroke-dashoffset: 0; stroke: #c0c0c0; stroke-width: 0.8"/>
     </g>
     <g id="line2d_11">
      <g>
       <use xlink:href="#m8a72839d08" x="50.836875" y="289.759219" style="stroke: #000000; stroke-width: 0.8"/>
      </g>
     </g>
     <g id="text_9">
      <!-- 40 -->
      <g transform="translate(31.111875 293.558437) scale(0.1 -0.1)">
       <use xlink:href="#DejaVuSans-34"/>
       <use xlink:href="#DejaVuSans-30" x="63.623047"/>
      </g>
     </g>
    </g>
    <g id="ytick_4">
     <g id="line2d_12">
      <path d="M 50.836875 243.299219 
L 417.566875 243.299219 
" clip-path="url(#p0b34a9d350)" style="fill: none; stroke-dasharray: 2.96,1.28; stroke-dashoffset: 0; stroke: #c0c0c0; stroke-width: 0.8"/>
     </g>
     <g id="line2d_13">
      <g>
       <use xlink:href="#m8a72839d08" x="50.836875" y="243.299219" style="stroke: #000000; stroke-width: 0.8"/>
      </g>
     </g>
     <g id="text_10">
      <!-- 50 -->
      <g transform="translate(31.111875 247.098437) scale(0.1 -0.1)">
       <defs>
        <path id="DejaVuSans-35" d="M 691 4666 
L 3169 4666 
L 3169 4134 
L 1269 4134 
L 1269 2991 
Q 1406 3038 1543 3061 
Q 1681 3084 1819 3084 
Q 2600 3084 3056 2656 
Q 3513 2228 3513 1497 
Q 3513 744 3044 326 
Q 2575 -91 1722 -91 
Q 1428 -91 1123 -41 
Q 819 9 494 109 
L 494 744 
Q 775 591 1075 516 
Q 1375 441 1709 441 
Q 2250 441 2565 725 
Q 2881 1009 2881 1497 
Q 2881 1984 2565 2268 
Q 2250 2553 1709 2553 
Q 1456 2553 1204 2497 
Q 953 2441 691 2322 
L 691 4666 
z
" transform="scale(0.015625)"/>
       </defs>
       <use xlink:href="#DejaVuSans-35"/>
       <use xlink:href="#DejaVuSans-30" x="63.623047"/>
      </g>
     </g>
    </g>
    <g id="ytick_5">
     <g id="line2d_14">
      <path d="M 50.836875 196.839219 
L 417.566875 196.839219 
" clip-path="url(#p0b34a9d350)" style="fill: none; stroke-dasharray: 2.96,1.28; stroke-dashoffset: 0; stroke: #c0c0c0; stroke-width: 0.8"/>
     </g>
     <g id="line2d_15">
      <g>
       <use xlink:href="#m8a72839d08" x="50.836875" y="196.839219" style="stroke: #000000; stroke-width: 0.8"/>
      </g>
     </g>
     <g id="text_11">
      <!-- 60 -->
      <g transform="translate(31.111875 200.638437) scale(0.1 -0.1)">
       <use xlink:href="#DejaVuSans-36"/>
       <use xlink:href="#DejaVuSans-30" x="63.623047"/>
      </g>
     </g>
    </g>
    <g id="ytick_6">
     <g id="line2d_16">
      <path d="M 50.836875 150.379219 
L 417.566875 150.379219 
" clip-path="url(#p0b34a9d350)" style="fill: none; stroke-dasharray: 2.96,1.28; stroke-dashoffset: 0; stroke: #c0c0c0; stroke-width: 0.8"/>
     </g>
     <g id="line2d_17">
      <g>
       <use xlink:href="#m8a72839d08" x="50.836875" y="150.379219" style="stroke: #000000; stroke-width: 0.8"/>
      </g>
     </g>
     <g id="text_12">
      <!-- 70 -->
      <g transform="translate(31.111875 154.178438) scale(0.1 -0.1)">
       <defs>
        <path id="DejaVuSans-37" d="M 525 4666 
L 3525 4666 
L 3525 4397 
L 1831 0 
L 1172 0 
L 2766 4134 
L 525 4134 
L 525 4666 
z
" transform="scale(0.015625)"/>
       </defs>
       <use xlink:href="#DejaVuSans-37"/>
       <use xlink:href="#DejaVuSans-30" x="63.623047"/>
      </g>
     </g>
    </g>
    <g id="ytick_7">
     <g id="line2d_18">
      <path d="M 50.836875 103.919219 
L 417.566875 103.919219 
" clip-path="url(#p0b34a9d350)" style="fill: none; stroke-dasharray: 2.96,1.28; stroke-dashoffset: 0; stroke: #c0c0c0; stroke-width: 0.8"/>
     </g>
     <g id="line2d_19">
      <g>
       <use xlink:href="#m8a72839d08" x="50.836875" y="103.919219" style="stroke: #000000; stroke-width: 0.8"/>
      </g>
     </g>
     <g id="text_13">
      <!-- 80 -->
      <g transform="translate(31.111875 107.718437) scale(0.1 -0.1)">
       <use xlink:href="#DejaVuSans-38"/>
       <use xlink:href="#DejaVuSans-30" x="63.623047"/>
      </g>
     </g>
    </g>
    <g id="ytick_8">
     <g id="line2d_20">
      <path d="M 50.836875 57.459219 
L 417.566875 57.459219 
" clip-path="url(#p0b34a9d350)" style="fill: none; stroke-dasharray: 2.96,1.28; stroke-dashoffset: 0; stroke: #c0c0c0; stroke-width: 0.8"/>
     </g>
     <g id="line2d_21">
      <g>
       <use xlink:href="#m8a72839d08" x="50.836875" y="57.459219" style="stroke: #000000; stroke-width: 0.8"/>
      </g>
     </g>
     <g id="text_14">
      <!-- 90 -->
      <g transform="translate(31.111875 61.258438) scale(0.1 -0.1)">
       <defs>
        <path id="DejaVuSans-39" d="M 703 97 
L 703 672 
Q 941 559 1184 500 
Q 1428 441 1663 441 
Q 2288 441 2617 861 
Q 2947 1281 2994 2138 
Q 2813 1869 2534 1725 
Q 2256 1581 1919 1581 
Q 1219 1581 811 2004 
Q 403 2428 403 3163 
Q 403 3881 828 4315 
Q 1253 4750 1959 4750 
Q 2769 4750 3195 4129 
Q 3622 3509 3622 2328 
Q 3622 1225 3098 567 
Q 2575 -91 1691 -91 
Q 1453 -91 1209 -44 
Q 966 3 703 97 
z
M 1959 2075 
Q 2384 2075 2632 2365 
Q 2881 2656 2881 3163 
Q 2881 3666 2632 3958 
Q 2384 4250 1959 4250 
Q 1534 4250 1286 3958 
Q 1038 3666 1038 3163 
Q 1038 2656 1286 2365 
Q 1534 2075 1959 2075 
z
" transform="scale(0.015625)"/>
       </defs>
       <use xlink:href="#DejaVuSans-39"/>
       <use xlink:href="#DejaVuSans-30" x="63.623047"/>
      </g>
     </g>
    </g>
    <g id="ytick_9">
     <g id="line2d_22">
      <path d="M 50.836875 10.999219 
L 417.566875 10.999219 
" clip-path="url(#p0b34a9d350)" style="fill: none; stroke-dasharray: 2.96,1.28; stroke-dashoffset: 0; stroke: #c0c0c0; stroke-width: 0.8"/>
     </g>
     <g id="line2d_23">
      <g>
       <use xlink:href="#m8a72839d08" x="50.836875" y="10.999219" style="stroke: #000000; stroke-width: 0.8"/>
      </g>
     </g>
     <g id="text_15">
      <!-- 100 -->
      <g transform="translate(24.749375 14.798438) scale(0.1 -0.1)">
       <defs>
        <path id="DejaVuSans-31" d="M 794 531 
L 1825 531 
L 1825 4091 
L 703 3866 
L 703 4441 
L 1819 4666 
L 2450 4666 
L 2450 531 
L 3481 531 
L 3481 0 
L 794 0 
L 794 531 
z
" transform="scale(0.015625)"/>
       </defs>
       <use xlink:href="#DejaVuSans-31"/>
       <use xlink:href="#DejaVuSans-30" x="63.623047"/>
       <use xlink:href="#DejaVuSans-30" x="127.246094"/>
      </g>
     </g>
    </g>
    <g id="text_16">
     <!-- Success Rate (%) -->
     <g transform="translate(17.837812 257.627656) rotate(-90) scale(0.14 -0.14)">
      <defs>
       <path id="DejaVuSans-53" d="M 3425 4513 
L 3425 3897 
Q 3066 4069 2747 4153 
Q 2428 4238 2131 4238 
Q 1616 4238 1336 4038 
Q 1056 3838 1056 3469 
Q 1056 3159 1242 3001 
Q 1428 2844 1947 2747 
L 2328 2669 
Q 3034 2534 3370 2195 
Q 3706 1856 3706 1288 
Q 3706 609 3251 259 
Q 2797 -91 1919 -91 
Q 1588 -91 1214 -16 
Q 841 59 441 206 
L 441 856 
Q 825 641 1194 531 
Q 1563 422 1919 422 
Q 2459 422 2753 634 
Q 3047 847 3047 1241 
Q 3047 1584 2836 1778 
Q 2625 1972 2144 2069 
L 1759 2144 
Q 1053 2284 737 2584 
Q 422 2884 422 3419 
Q 422 4038 858 4394 
Q 1294 4750 2059 4750 
Q 2388 4750 2728 4690 
Q 3069 4631 3425 4513 
z
" transform="scale(0.015625)"/>
       <path id="DejaVuSans-52" d="M 2841 2188 
Q 3044 2119 3236 1894 
Q 3428 1669 3622 1275 
L 4263 0 
L 3584 0 
L 2988 1197 
Q 2756 1666 2539 1819 
Q 2322 1972 1947 1972 
L 1259 1972 
L 1259 0 
L 628 0 
L 628 4666 
L 2053 4666 
Q 2853 4666 3247 4331 
Q 3641 3997 3641 3322 
Q 3641 2881 3436 2590 
Q 3231 2300 2841 2188 
z
M 1259 4147 
L 1259 2491 
L 2053 2491 
Q 2509 2491 2742 2702 
Q 2975 2913 2975 3322 
Q 2975 3731 2742 3939 
Q 2509 4147 2053 4147 
L 1259 4147 
z
" transform="scale(0.015625)"/>
       <path id="DejaVuSans-28" d="M 1984 4856 
Q 1566 4138 1362 3434 
Q 1159 2731 1159 2009 
Q 1159 1288 1364 580 
Q 1569 -128 1984 -844 
L 1484 -844 
Q 1016 -109 783 600 
Q 550 1309 550 2009 
Q 550 2706 781 3412 
Q 1013 4119 1484 4856 
L 1984 4856 
z
" transform="scale(0.015625)"/>
       <path id="DejaVuSans-25" d="M 4653 2053 
Q 4381 2053 4226 1822 
Q 4072 1591 4072 1178 
Q 4072 772 4226 539 
Q 4381 306 4653 306 
Q 4919 306 5073 539 
Q 5228 772 5228 1178 
Q 5228 1588 5073 1820 
Q 4919 2053 4653 2053 
z
M 4653 2450 
Q 5147 2450 5437 2106 
Q 5728 1763 5728 1178 
Q 5728 594 5436 251 
Q 5144 -91 4653 -91 
Q 4153 -91 3862 251 
Q 3572 594 3572 1178 
Q 3572 1766 3864 2108 
Q 4156 2450 4653 2450 
z
M 1428 4353 
Q 1159 4353 1004 4120 
Q 850 3888 850 3481 
Q 850 3069 1003 2837 
Q 1156 2606 1428 2606 
Q 1700 2606 1854 2837 
Q 2009 3069 2009 3481 
Q 2009 3884 1853 4118 
Q 1697 4353 1428 4353 
z
M 4250 4750 
L 4750 4750 
L 1831 -91 
L 1331 -91 
L 4250 4750 
z
M 1428 4750 
Q 1922 4750 2215 4408 
Q 2509 4066 2509 3481 
Q 2509 2891 2217 2550 
Q 1925 2209 1428 2209 
Q 931 2209 642 2551 
Q 353 2894 353 3481 
Q 353 4063 643 4406 
Q 934 4750 1428 4750 
z
" transform="scale(0.015625)"/>
       <path id="DejaVuSans-29" d="M 513 4856 
L 1013 4856 
Q 1481 4119 1714 3412 
Q 1947 2706 1947 2009 
Q 1947 1309 1714 600 
Q 1481 -109 1013 -844 
L 513 -844 
Q 928 -128 1133 580 
Q 1338 1288 1338 2009 
Q 1338 2731 1133 3434 
Q 928 4138 513 4856 
z
" transform="scale(0.015625)"/>
      </defs>
      <use xlink:href="#DejaVuSans-53"/>
      <use xlink:href="#DejaVuSans-75" x="63.476562"/>
      <use xlink:href="#DejaVuSans-63" x="126.855469"/>
      <use xlink:href="#DejaVuSans-63" x="181.835938"/>
      <use xlink:href="#DejaVuSans-65" x="236.816406"/>
      <use xlink:href="#DejaVuSans-73" x="298.339844"/>
      <use xlink:href="#DejaVuSans-73" x="350.439453"/>
      <use xlink:href="#DejaVuSans-20" x="402.539062"/>
      <use xlink:href="#DejaVuSans-52" x="434.326172"/>
      <use xlink:href="#DejaVuSans-61" x="501.558594"/>
      <use xlink:href="#DejaVuSans-74" x="562.837891"/>
      <use xlink:href="#DejaVuSans-65" x="602.046875"/>
      <use xlink:href="#DejaVuSans-20" x="663.570312"/>
      <use xlink:href="#DejaVuSans-28" x="695.357422"/>
      <use xlink:href="#DejaVuSans-25" x="734.371094"/>
      <use xlink:href="#DejaVuSans-29" x="829.390625"/>
     </g>
    </g>
   </g>
   <g id="PolyCollection_1">
    <defs>
     <path id="m9c24da8d15" d="M 50.836875 -124.1263 
L 50.836875 -124.1263 
L 54.823071 -121.464337 
L 58.809266 -119.683513 
L 62.795462 -121.810928 
L 66.781658 -130.601931 
L 70.767853 -140.585727 
L 74.754049 -143.913758 
L 78.740245 -142.201649 
L 82.72644 -141.723158 
L 86.712636 -145.171225 
L 90.698832 -147.98531 
L 94.685027 -148.619132 
L 98.671223 -151.966579 
L 102.657418 -155.76449 
L 106.643614 -156.831433 
L 110.62981 -156.493201 
L 114.616005 -154.387427 
L 118.602201 -152.62445 
L 122.588397 -153.914793 
L 126.574592 -154.339544 
L 130.560788 -155.051677 
L 134.546984 -157.525178 
L 138.533179 -158.856473 
L 142.519375 -158.084449 
L 146.505571 -158.504832 
L 150.491766 -159.675424 
L 154.477962 -160.247805 
L 158.464158 -159.888559 
L 162.450353 -158.838888 
L 166.436549 -157.682487 
L 170.422745 -160.052757 
L 174.40894 -163.008554 
L 178.395136 -162.714505 
L 182.381332 -161.647664 
L 186.367527 -162.506543 
L 190.353723 -164.021459 
L 194.339918 -164.062357 
L 198.326114 -164.072704 
L 202.31231 -165.15039 
L 206.298505 -166.314018 
L 210.284701 -166.483141 
L 214.270897 -166.649175 
L 218.257092 -166.945554 
L 222.243288 -167.326822 
L 226.229484 -168.211506 
L 230.215679 -168.387903 
L 234.201875 -167.313304 
L 238.188071 -166.945745 
L 242.174266 -167.540366 
L 246.160462 -168.419999 
L 250.146658 -168.896005 
L 254.132853 -167.942927 
L 258.119049 -166.301333 
L 262.105245 -165.863194 
L 266.09144 -167.02163 
L 270.077636 -167.994797 
L 274.063832 -168.230288 
L 278.050027 -168.250135 
L 282.036223 -168.250743 
L 286.022418 -168.250743 
L 290.008614 -168.250743 
L 293.99481 -168.250743 
L 297.981005 -168.250743 
L 301.967201 -168.250743 
L 305.953397 -168.250743 
L 309.939592 -168.250743 
L 313.925788 -168.250743 
L 317.911984 -168.250743 
L 321.898179 -168.250743 
L 325.884375 -168.250743 
L 329.870571 -168.250743 
L 333.856766 -168.250743 
L 337.842962 -168.250743 
L 341.829158 -168.250743 
L 345.815353 -168.250743 
L 349.801549 -168.250743 
L 353.787745 -168.250743 
L 357.77394 -168.250743 
L 361.760136 -168.250743 
L 365.746332 -168.250743 
L 369.732527 -168.250743 
L 373.718723 -168.250743 
L 377.704918 -168.250743 
L 381.691114 -168.250743 
L 385.67731 -168.250743 
L 389.663505 -168.250743 
L 393.649701 -168.250743 
L 397.635897 -168.250743 
L 401.622092 -168.250743 
L 405.608288 -168.250743 
L 409.594484 -168.250743 
L 413.580679 -168.250743 
L 417.566875 -168.250743 
L 421.553071 -168.250743 
L 421.553071 -168.250743 
L 421.553071 -168.250743 
L 417.566875 -168.250743 
L 413.580679 -168.250743 
L 409.594484 -168.250743 
L 405.608288 -168.250743 
L 401.622092 -168.250743 
L 397.635897 -168.250743 
L 393.649701 -168.250743 
L 389.663505 -168.250743 
L 385.67731 -168.250743 
L 381.691114 -168.250743 
L 377.704918 -168.250743 
L 373.718723 -168.250743 
L 369.732527 -168.250743 
L 365.746332 -168.250743 
L 361.760136 -168.250743 
L 357.77394 -168.250743 
L 353.787745 -168.250743 
L 349.801549 -168.250743 
L 345.815353 -168.250743 
L 341.829158 -168.250743 
L 337.842962 -168.250743 
L 333.856766 -168.250743 
L 329.870571 -168.250743 
L 325.884375 -168.250743 
L 321.898179 -168.250743 
L 317.911984 -168.250743 
L 313.925788 -168.250743 
L 309.939592 -168.250743 
L 305.953397 -168.250743 
L 301.967201 -168.250743 
L 297.981005 -168.250743 
L 293.99481 -168.250743 
L 290.008614 -168.250743 
L 286.022418 -168.250743 
L 282.036223 -168.250743 
L 278.050027 -168.249681 
L 274.063832 -168.2148 
L 270.077636 -167.796242 
L 266.09144 -165.999583 
L 262.105245 -163.412349 
L 258.119049 -162.554758 
L 254.132853 -162.899808 
L 250.146658 -162.668109 
L 246.160462 -161.336553 
L 242.174266 -159.598298 
L 238.188071 -158.480235 
L 234.201875 -158.798429 
L 230.215679 -159.768894 
L 226.229484 -159.12778 
L 222.243288 -157.502506 
L 218.257092 -155.980462 
L 214.270897 -155.062283 
L 210.284701 -155.215736 
L 206.298505 -155.284254 
L 202.31231 -153.790819 
L 198.326114 -152.220367 
L 194.339918 -151.414896 
L 190.353723 -150.622453 
L 186.367527 -149.178885 
L 182.381332 -149.289591 
L 178.395136 -151.283401 
L 174.40894 -151.813558 
L 170.422745 -148.628297 
L 166.436549 -145.446947 
L 162.450353 -145.37374 
L 158.464158 -145.459776 
L 154.477962 -145.164865 
L 150.491766 -144.825689 
L 146.505571 -143.571632 
L 142.519375 -142.038436 
L 138.533179 -142.122698 
L 134.546984 -140.376037 
L 130.560788 -138.189916 
L 126.574592 -138.513826 
L 122.588397 -138.252553 
L 118.602201 -135.622245 
L 114.616005 -137.315591 
L 110.62981 -140.690377 
L 106.643614 -141.12695 
L 102.657418 -139.333169 
L 98.671223 -135.390858 
L 94.685027 -132.274691 
L 90.698832 -130.561461 
L 86.712636 -126.038179 
L 82.72644 -119.630305 
L 78.740245 -119.161525 
L 74.754049 -126.828483 
L 70.767853 -127.985896 
L 66.781658 -114.330687 
L 62.795462 -100.562335 
L 58.809266 -102.281871 
L 54.823071 -112.756527 
L 50.836875 -124.1263 
z
" style="stroke: #8e0052; stroke-opacity: 0.1"/>
    </defs>
    <g clip-path="url(#p0b34a9d350)">
     <use xlink:href="#m9c24da8d15" x="0" y="424.106719" style="fill: #8e0052; fill-opacity: 0.1; stroke: #8e0052; stroke-opacity: 0.1"/>
    </g>
   </g>
   <g id="PolyCollection_2">
    <defs>
     <path id="m2e3d5f5a27" d="M 50.836875 -174.3031 
L 50.836875 -174.3031 
L 54.823071 -176.540683 
L 58.809266 -186.197977 
L 62.795462 -200.879813 
L 66.781658 -205.058347 
L 70.767853 -203.786248 
L 74.754049 -209.793742 
L 78.740245 -216.65135 
L 82.72644 -218.246991 
L 86.712636 -217.144025 
L 90.698832 -215.781932 
L 94.685027 -217.354859 
L 98.671223 -217.69729 
L 102.657418 -216.752831 
L 106.643614 -217.023319 
L 110.62981 -218.667832 
L 114.616005 -220.239363 
L 118.602201 -220.760645 
L 122.588397 -220.095148 
L 126.574592 -219.13713 
L 130.560788 -220.638803 
L 134.546984 -223.993945 
L 138.533179 -224.63718 
L 142.519375 -223.914697 
L 146.505571 -224.891882 
L 150.491766 -225.158136 
L 154.477962 -224.292888 
L 158.464158 -223.956212 
L 162.450353 -224.014786 
L 166.436549 -224.021712 
L 170.422745 -223.582985 
L 174.40894 -223.719814 
L 178.395136 -224.874045 
L 182.381332 -225.020304 
L 186.367527 -224.207861 
L 190.353723 -223.26318 
L 194.339918 -222.956768 
L 198.326114 -223.268059 
L 202.31231 -223.742721 
L 206.298505 -224.318692 
L 210.284701 -224.669481 
L 214.270897 -224.749331 
L 218.257092 -224.755948 
L 222.243288 -224.756149 
L 226.229484 -224.756149 
L 230.215679 -224.756149 
L 234.201875 -224.756149 
L 238.188071 -224.756149 
L 242.174266 -224.756149 
L 246.160462 -224.756149 
L 250.146658 -224.756149 
L 254.132853 -224.756149 
L 258.119049 -224.756149 
L 262.105245 -224.756149 
L 266.09144 -224.756149 
L 270.077636 -224.756149 
L 274.063832 -224.756149 
L 278.050027 -224.756149 
L 282.036223 -224.756149 
L 286.022418 -224.756149 
L 290.008614 -224.756149 
L 293.99481 -224.756149 
L 297.981005 -224.756149 
L 301.967201 -224.756149 
L 305.953397 -224.756149 
L 309.939592 -224.756149 
L 313.925788 -224.756149 
L 317.911984 -224.756149 
L 321.898179 -224.756149 
L 325.884375 -224.756149 
L 329.870571 -224.756149 
L 333.856766 -224.756149 
L 337.842962 -224.756149 
L 341.829158 -224.756149 
L 345.815353 -224.756149 
L 349.801549 -224.756149 
L 353.787745 -224.756149 
L 357.77394 -224.756149 
L 361.760136 -224.756149 
L 365.746332 -224.756149 
L 369.732527 -224.756149 
L 373.718723 -224.756149 
L 377.704918 -224.756149 
L 381.691114 -224.756149 
L 385.67731 -224.756149 
L 389.663505 -224.756149 
L 393.649701 -224.756149 
L 397.635897 -224.756149 
L 401.622092 -224.756149 
L 405.608288 -224.756149 
L 409.594484 -224.756149 
L 413.580679 -224.756149 
L 417.566875 -224.756149 
L 421.553071 -224.756149 
L 421.553071 -224.756149 
L 421.553071 -224.756149 
L 417.566875 -224.756149 
L 413.580679 -224.756149 
L 409.594484 -224.756149 
L 405.608288 -224.756149 
L 401.622092 -224.756149 
L 397.635897 -224.756149 
L 393.649701 -224.756149 
L 389.663505 -224.756149 
L 385.67731 -224.756149 
L 381.691114 -224.756149 
L 377.704918 -224.756149 
L 373.718723 -224.756149 
L 369.732527 -224.756149 
L 365.746332 -224.756149 
L 361.760136 -224.756149 
L 357.77394 -224.756149 
L 353.787745 -224.756149 
L 349.801549 -224.756149 
L 345.815353 -224.756149 
L 341.829158 -224.756149 
L 337.842962 -224.756149 
L 333.856766 -224.756149 
L 329.870571 -224.756149 
L 325.884375 -224.756149 
L 321.898179 -224.756149 
L 317.911984 -224.756149 
L 313.925788 -224.756149 
L 309.939592 -224.756149 
L 305.953397 -224.756149 
L 301.967201 -224.756149 
L 297.981005 -224.756149 
L 293.99481 -224.756149 
L 290.008614 -224.756149 
L 286.022418 -224.756149 
L 282.036223 -224.756149 
L 278.050027 -224.756149 
L 274.063832 -224.756149 
L 270.077636 -224.756149 
L 266.09144 -224.756149 
L 262.105245 -224.756149 
L 258.119049 -224.756149 
L 254.132853 -224.756149 
L 250.146658 -224.756149 
L 246.160462 -224.756149 
L 242.174266 -224.756149 
L 238.188071 -224.756149 
L 234.201875 -224.756149 
L 230.215679 -224.756149 
L 226.229484 -224.756149 
L 222.243288 -224.756149 
L 218.257092 -224.755641 
L 214.270897 -224.73887 
L 210.284701 -224.535422 
L 206.298505 -223.628834 
L 202.31231 -222.084884 
L 198.326114 -220.698566 
L 194.339918 -219.387326 
L 190.353723 -218.665634 
L 186.367527 -218.729039 
L 182.381332 -218.799491 
L 178.395136 -218.580191 
L 174.40894 -217.536694 
L 170.422745 -216.949735 
L 166.436549 -216.880362 
L 162.450353 -216.400931 
L 158.464158 -216.021035 
L 154.477962 -216.40395 
L 150.491766 -217.666719 
L 146.505571 -217.417869 
L 142.519375 -215.872599 
L 138.533179 -215.657284 
L 134.546984 -214.750997 
L 130.560788 -211.865688 
L 126.574592 -209.799605 
L 122.588397 -209.539247 
L 118.602201 -209.568367 
L 114.616005 -208.475148 
L 110.62981 -206.061966 
L 106.643614 -204.457018 
L 102.657418 -204.812148 
L 98.671223 -205.4984 
L 94.685027 -204.569707 
L 90.698832 -203.572515 
L 86.712636 -204.282142 
L 82.72644 -203.429056 
L 78.740245 -201.620617 
L 74.754049 -194.852728 
L 70.767853 -188.136032 
L 66.781658 -188.036316 
L 62.795462 -183.736445 
L 58.809266 -174.227282 
L 54.823071 -171.145565 
L 50.836875 -174.3031 
z
" style="stroke: #276319; stroke-opacity: 0.1"/>
    </defs>
    <g clip-path="url(#p0b34a9d350)">
     <use xlink:href="#m2e3d5f5a27" x="0" y="424.106719" style="fill: #276319; fill-opacity: 0.1; stroke: #276319; stroke-opacity: 0.1"/>
    </g>
   </g>
   <g id="PolyCollection_3">
    <defs>
     <path id="mc1f8a818f8" d="M 50.836875 -149.2147 
L 50.836875 -149.2147 
L 54.823071 -156.555519 
L 58.809266 -168.988355 
L 62.795462 -180.583756 
L 66.781658 -178.487213 
L 70.767853 -174.606053 
L 74.754049 -177.285764 
L 78.740245 -180.940832 
L 82.72644 -184.451024 
L 86.712636 -186.224813 
L 90.698832 -187.634828 
L 94.685027 -187.399942 
L 98.671223 -187.272709 
L 102.657418 -187.842587 
L 106.643614 -188.436072 
L 110.62981 -189.4482 
L 114.616005 -191.461315 
L 118.602201 -194.510483 
L 122.588397 -195.445429 
L 126.574592 -195.671974 
L 130.560788 -196.924813 
L 134.546984 -196.841316 
L 138.533179 -197.204712 
L 142.519375 -199.377062 
L 146.505571 -200.363115 
L 150.491766 -200.965312 
L 154.477962 -203.470812 
L 158.464158 -205.563571 
L 162.450353 -205.200846 
L 166.436549 -204.126743 
L 170.422745 -204.359062 
L 174.40894 -205.036778 
L 178.395136 -205.602756 
L 182.381332 -206.163549 
L 186.367527 -207.142814 
L 190.353723 -208.259879 
L 194.339918 -209.629483 
L 198.326114 -210.71176 
L 202.31231 -210.842896 
L 206.298505 -211.834882 
L 210.284701 -213.281097 
L 214.270897 -213.433908 
L 218.257092 -212.764744 
L 222.243288 -211.897066 
L 226.229484 -211.767212 
L 230.215679 -212.693194 
L 234.201875 -214.120491 
L 238.188071 -215.306273 
L 242.174266 -215.688811 
L 246.160462 -215.261789 
L 250.146658 -214.659405 
L 254.132853 -214.953262 
L 258.119049 -216.400492 
L 262.105245 -217.389647 
L 266.09144 -217.725205 
L 270.077636 -217.928333 
L 274.063832 -218.184143 
L 278.050027 -218.257085 
L 282.036223 -218.077435 
L 286.022418 -218.421259 
L 290.008614 -219.373867 
L 293.99481 -219.97744 
L 297.981005 -219.972143 
L 301.967201 -220.383388 
L 305.953397 -220.967069 
L 309.939592 -221.097175 
L 313.925788 -221.200833 
L 317.911984 -220.969948 
L 321.898179 -221.278786 
L 325.884375 -221.464589 
L 329.870571 -221.456828 
L 333.856766 -222.334804 
L 337.842962 -222.596018 
L 341.829158 -222.057943 
L 345.815353 -222.043121 
L 349.801549 -223.137151 
L 353.787745 -224.643369 
L 357.77394 -225.092251 
L 361.760136 -224.40343 
L 365.746332 -224.233206 
L 369.732527 -225.008742 
L 373.718723 -225.905643 
L 377.704918 -226.210219 
L 381.691114 -226.029305 
L 385.67731 -226.100348 
L 389.663505 -226.273224 
L 393.649701 -226.047891 
L 397.635897 -225.988032 
L 401.622092 -226.225452 
L 405.608288 -225.998378 
L 409.594484 -225.302261 
L 413.580679 -224.862305 
L 417.566875 -224.764401 
L 421.553071 -224.75639 
L 421.553071 -224.755978 
L 421.553071 -224.755978 
L 417.566875 -224.750276 
L 413.580679 -224.679669 
L 409.594484 -224.344536 
L 405.608288 -223.646655 
L 401.622092 -222.720941 
L 397.635897 -221.835412 
L 393.649701 -221.430157 
L 389.663505 -221.052675 
L 385.67731 -220.384159 
L 381.691114 -220.192803 
L 377.704918 -220.496943 
L 373.718723 -220.191532 
L 369.732527 -218.92744 
L 365.746332 -217.592102 
L 361.760136 -217.215822 
L 357.77394 -217.574818 
L 353.787745 -217.218144 
L 349.801549 -216.009336 
L 345.815353 -215.119637 
L 341.829158 -215.115551 
L 337.842962 -215.576193 
L 333.856766 -215.291561 
L 329.870571 -214.250067 
L 325.884375 -213.969139 
L 321.898179 -213.741114 
L 317.911984 -213.498119 
L 313.925788 -213.579872 
L 309.939592 -213.221736 
L 305.953397 -212.807858 
L 301.967201 -212.091902 
L 297.981005 -211.743188 
L 293.99481 -211.827116 
L 290.008614 -211.120256 
L 286.022418 -209.967527 
L 282.036223 -209.403686 
L 278.050027 -209.295624 
L 274.063832 -209.222614 
L 270.077636 -209.197405 
L 266.09144 -208.668012 
L 262.105245 -207.872319 
L 258.119049 -207.086851 
L 254.132853 -205.912741 
L 250.146658 -205.27741 
L 246.160462 -205.552956 
L 242.174266 -205.910687 
L 238.188071 -205.465431 
L 234.201875 -204.229637 
L 230.215679 -203.079277 
L 226.229484 -202.110953 
L 222.243288 -201.843198 
L 218.257092 -202.074875 
L 214.270897 -202.283011 
L 210.284701 -202.159713 
L 206.298505 -201.242564 
L 202.31231 -201.316109 
L 198.326114 -201.449769 
L 194.339918 -199.721114 
L 190.353723 -197.983317 
L 186.367527 -196.697117 
L 182.381332 -195.277716 
L 178.395136 -194.454591 
L 174.40894 -193.2322 
L 170.422745 -191.326459 
L 166.436549 -190.862018 
L 162.450353 -192.682294 
L 158.464158 -193.512154 
L 154.477962 -191.615631 
L 150.491766 -188.575981 
L 146.505571 -186.864807 
L 142.519375 -186.171265 
L 138.533179 -185.461396 
L 134.546984 -185.16679 
L 130.560788 -183.84803 
L 126.574592 -180.866221 
L 122.588397 -180.057148 
L 118.602201 -179.589619 
L 114.616005 -176.871873 
L 110.62981 -174.831714 
L 106.643614 -173.657959 
L 102.657418 -174.039173 
L 98.671223 -174.622405 
L 94.685027 -173.892492 
L 90.698832 -172.23934 
L 86.712636 -168.873347 
L 82.72644 -166.68903 
L 78.740245 -165.072937 
L 74.754049 -161.556095 
L 70.767853 -155.059866 
L 66.781658 -151.745458 
L 62.795462 -141.570313 
L 58.809266 -129.457741 
L 54.823071 -133.272184 
L 50.836875 -149.2147 
z
" style="stroke: #6f9fc7; stroke-opacity: 0.1"/>
    </defs>
    <g clip-path="url(#p0b34a9d350)">
     <use xlink:href="#mc1f8a818f8" x="0" y="424.106719" style="fill: #6f9fc7; fill-opacity: 0.1; stroke: #6f9fc7; stroke-opacity: 0.1"/>
    </g>
   </g>
   <g id="line2d_24">
    <path d="M 50.836875 299.980419 
L 54.823071 305.544985 
L 58.809266 310.223753 
L 62.795462 309.378655 
L 66.781658 298.928536 
L 70.767853 287.720936 
L 74.754049 285.888052 
L 78.740245 289.585111 
L 82.72644 289.747845 
L 86.712636 285.313176 
L 90.698832 281.929358 
L 94.685027 280.935734 
L 98.671223 277.66538 
L 102.657418 273.819335 
L 106.643614 272.510113 
L 110.62981 272.881126 
L 114.616005 275.409904 
L 118.602201 277.149671 
L 122.588397 275.412672 
L 126.574592 275.042414 
L 130.560788 274.675629 
L 134.546984 272.297921 
L 138.533179 270.828171 
L 142.519375 271.370941 
L 146.505571 270.57962 
L 150.491766 269.381207 
L 154.477962 268.886561 
L 158.464158 269.027754 
L 162.450353 269.756214 
L 166.436549 270.502745 
L 170.422745 267.862115 
L 174.40894 264.82983 
L 178.395136 265.202582 
L 182.381332 266.578412 
L 186.367527 266.042729 
L 190.353723 264.551595 
L 194.339918 264.260182 
L 198.326114 263.984794 
L 202.31231 262.742853 
L 206.298505 261.469289 
L 210.284701 261.37938 
L 214.270897 261.319841 
L 218.257092 260.816195 
L 222.243288 260.054669 
L 226.229484 258.923122 
L 230.215679 258.591819 
L 234.201875 259.631706 
L 238.188071 259.98281 
L 242.174266 259.213709 
L 246.160462 258.047869 
L 250.146658 257.286679 
L 254.132853 257.844831 
L 258.119049 259.054244 
L 262.105245 259.060473 
L 266.09144 257.425771 
L 270.077636 256.178107 
L 274.063832 255.881594 
L 278.050027 255.856735 
L 282.036223 255.855976 
L 286.022418 255.855976 
L 290.008614 255.855976 
L 293.99481 255.855976 
L 297.981005 255.855976 
L 301.967201 255.855976 
L 305.953397 255.855976 
L 309.939592 255.855976 
L 313.925788 255.855976 
L 317.911984 255.855976 
L 321.898179 255.855976 
L 325.884375 255.855976 
L 329.870571 255.855976 
L 333.856766 255.855976 
L 337.842962 255.855976 
L 341.829158 255.855976 
L 345.815353 255.855976 
L 349.801549 255.855976 
L 353.787745 255.855976 
L 357.77394 255.855976 
L 361.760136 255.855976 
L 365.746332 255.855976 
L 369.732527 255.855976 
L 373.718723 255.855976 
L 377.704918 255.855976 
L 381.691114 255.855976 
L 385.67731 255.855976 
L 389.663505 255.855976 
L 393.649701 255.855976 
L 397.635897 255.855976 
L 401.622092 255.855976 
L 405.608288 255.855976 
L 409.594484 255.855976 
L 413.580679 255.855976 
L 417.566875 255.855976 
L 421.553071 255.855976 
" clip-path="url(#p0b34a9d350)" style="fill: none; stroke: #8e0052; stroke-width: 2; stroke-linecap: square"/>
   </g>
   <g id="line2d_25">
    <path d="M 50.836875 299.980419 
L 54.823071 302.642382 
L 58.809266 304.423206 
L 62.795462 302.295791 
L 66.781658 293.504788 
L 70.767853 283.520992 
L 74.754049 280.192961 
L 78.740245 281.905069 
L 82.72644 282.38356 
L 86.712636 278.935494 
L 90.698832 276.121409 
L 94.685027 275.487587 
L 98.671223 272.14014 
L 102.657418 268.342228 
L 106.643614 267.275286 
L 110.62981 267.613518 
L 114.616005 269.719291 
L 118.602201 271.482269 
L 122.588397 270.191926 
L 126.574592 269.767174 
L 130.560788 269.055041 
L 134.546984 266.58154 
L 138.533179 265.250246 
L 142.519375 266.022269 
L 146.505571 265.601886 
L 150.491766 264.431295 
L 154.477962 263.858914 
L 158.464158 264.21816 
L 162.450353 265.267831 
L 166.436549 266.424232 
L 170.422745 264.053962 
L 174.40894 261.098165 
L 178.395136 261.392214 
L 182.381332 262.459055 
L 186.367527 261.600176 
L 190.353723 260.08526 
L 194.339918 260.044361 
L 198.326114 260.034015 
L 202.31231 258.956329 
L 206.298505 257.792701 
L 210.284701 257.623578 
L 214.270897 257.457544 
L 218.257092 257.161164 
L 222.243288 256.779897 
L 226.229484 255.895213 
L 230.215679 255.718816 
L 234.201875 256.793415 
L 238.188071 257.160974 
L 242.174266 256.566353 
L 246.160462 255.68672 
L 250.146658 255.210714 
L 254.132853 256.163791 
L 258.119049 257.805386 
L 262.105245 258.243525 
L 266.09144 257.085088 
L 270.077636 256.111922 
L 274.063832 255.876431 
L 278.050027 255.856583 
L 282.036223 255.855976 
L 286.022418 255.855976 
L 290.008614 255.855976 
L 293.99481 255.855976 
L 297.981005 255.855976 
L 301.967201 255.855976 
L 305.953397 255.855976 
L 309.939592 255.855976 
L 313.925788 255.855976 
L 317.911984 255.855976 
L 321.898179 255.855976 
L 325.884375 255.855976 
L 329.870571 255.855976 
L 333.856766 255.855976 
L 337.842962 255.855976 
L 341.829158 255.855976 
L 345.815353 255.855976 
L 349.801549 255.855976 
L 353.787745 255.855976 
L 357.77394 255.855976 
L 361.760136 255.855976 
L 365.746332 255.855976 
L 369.732527 255.855976 
L 373.718723 255.855976 
L 377.704918 255.855976 
L 381.691114 255.855976 
L 385.67731 255.855976 
L 389.663505 255.855976 
L 393.649701 255.855976 
L 397.635897 255.855976 
L 401.622092 255.855976 
L 405.608288 255.855976 
L 409.594484 255.855976 
L 413.580679 255.855976 
L 417.566875 255.855976 
L 421.553071 255.855976 
" clip-path="url(#p0b34a9d350)" style="fill: none; stroke-dasharray: 3.7,1.6; stroke-dashoffset: 0; stroke: #8e0052"/>
   </g>
   <g id="line2d_26">
    <path d="M 50.836875 299.980419 
L 54.823071 311.350191 
L 58.809266 321.824848 
L 62.795462 323.544383 
L 66.781658 309.776031 
L 70.767853 296.120823 
L 74.754049 297.278236 
L 78.740245 304.945194 
L 82.72644 304.476414 
L 86.712636 298.06854 
L 90.698832 293.545257 
L 94.685027 291.832027 
L 98.671223 288.715861 
L 102.657418 284.77355 
L 106.643614 282.979768 
L 110.62981 283.416342 
L 114.616005 286.791128 
L 118.602201 288.484474 
L 122.588397 285.854165 
L 126.574592 285.592892 
L 130.560788 285.916803 
L 134.546984 283.730682 
L 138.533179 281.984021 
L 142.519375 282.068283 
L 146.505571 280.535087 
L 150.491766 279.281029 
L 154.477962 278.941854 
L 158.464158 278.646943 
L 162.450353 278.732979 
L 166.436549 278.659771 
L 170.422745 275.478421 
L 174.40894 272.293161 
L 178.395136 272.823318 
L 182.381332 274.817128 
L 186.367527 274.927834 
L 190.353723 273.484266 
L 194.339918 272.691822 
L 198.326114 271.886352 
L 202.31231 270.3159 
L 206.298505 268.822465 
L 210.284701 268.890983 
L 214.270897 269.044435 
L 218.257092 268.126257 
L 222.243288 266.604212 
L 226.229484 264.978938 
L 230.215679 264.337825 
L 234.201875 265.30829 
L 238.188071 265.626483 
L 242.174266 264.508421 
L 246.160462 262.770166 
L 250.146658 261.438609 
L 254.132853 261.206911 
L 258.119049 261.551961 
L 262.105245 260.69437 
L 266.09144 258.107136 
L 270.077636 256.310477 
L 274.063832 255.891919 
L 278.050027 255.857038 
L 282.036223 255.855976 
L 286.022418 255.855976 
L 290.008614 255.855976 
L 293.99481 255.855976 
L 297.981005 255.855976 
L 301.967201 255.855976 
L 305.953397 255.855976 
L 309.939592 255.855976 
L 313.925788 255.855976 
L 317.911984 255.855976 
L 321.898179 255.855976 
L 325.884375 255.855976 
L 329.870571 255.855976 
L 333.856766 255.855976 
L 337.842962 255.855976 
L 341.829158 255.855976 
L 345.815353 255.855976 
L 349.801549 255.855976 
L 353.787745 255.855976 
L 357.77394 255.855976 
L 361.760136 255.855976 
L 365.746332 255.855976 
L 369.732527 255.855976 
L 373.718723 255.855976 
L 377.704918 255.855976 
L 381.691114 255.855976 
L 385.67731 255.855976 
L 389.663505 255.855976 
L 393.649701 255.855976 
L 397.635897 255.855976 
L 401.622092 255.855976 
L 405.608288 255.855976 
L 409.594484 255.855976 
L 413.580679 255.855976 
L 417.566875 255.855976 
L 421.553071 255.855976 
" clip-path="url(#p0b34a9d350)" style="fill: none; stroke-dasharray: 3.7,1.6; stroke-dashoffset: 0; stroke: #8e0052"/>
   </g>
   <g id="line2d_27">
    <path d="M 50.836875 249.803619 
L 54.823071 249.364408 
L 58.809266 241.898973 
L 62.795462 228.941362 
L 66.781658 224.722382 
L 70.767853 225.53721 
L 74.754049 219.293315 
L 78.740245 212.465613 
L 82.72644 210.799039 
L 86.712636 211.249988 
L 90.698832 212.394592 
L 94.685027 211.013577 
L 98.671223 210.475726 
L 102.657418 211.334115 
L 106.643614 211.272167 
L 110.62981 209.640842 
L 114.616005 207.788761 
L 118.602201 207.076833 
L 122.588397 207.530204 
L 126.574592 208.082097 
L 130.560788 206.392287 
L 134.546984 203.193756 
L 138.533179 202.462838 
L 142.519375 202.872721 
L 146.505571 201.706174 
L 150.491766 201.445721 
L 154.477962 202.443477 
L 158.464158 202.795566 
L 162.450353 202.629884 
L 166.436549 202.465457 
L 170.422745 202.734817 
L 174.40894 202.447944 
L 178.395136 201.330625 
L 182.381332 201.16002 
L 186.367527 201.725132 
L 190.353723 202.376054 
L 194.339918 202.339765 
L 198.326114 201.695157 
L 202.31231 200.91661 
L 206.298505 200.01798 
L 210.284701 199.481924 
L 214.270897 199.360875 
L 218.257092 199.350874 
L 222.243288 199.35057 
L 226.229484 199.35057 
L 230.215679 199.35057 
L 234.201875 199.35057 
L 238.188071 199.35057 
L 242.174266 199.35057 
L 246.160462 199.35057 
L 250.146658 199.35057 
L 254.132853 199.35057 
L 258.119049 199.35057 
L 262.105245 199.35057 
L 266.09144 199.35057 
L 270.077636 199.35057 
L 274.063832 199.35057 
L 278.050027 199.35057 
L 282.036223 199.35057 
L 286.022418 199.35057 
L 290.008614 199.35057 
L 293.99481 199.35057 
L 297.981005 199.35057 
L 301.967201 199.35057 
L 305.953397 199.35057 
L 309.939592 199.35057 
L 313.925788 199.35057 
L 317.911984 199.35057 
L 321.898179 199.35057 
L 325.884375 199.35057 
L 329.870571 199.35057 
L 333.856766 199.35057 
L 337.842962 199.35057 
L 341.829158 199.35057 
L 345.815353 199.35057 
L 349.801549 199.35057 
L 353.787745 199.35057 
L 357.77394 199.35057 
L 361.760136 199.35057 
L 365.746332 199.35057 
L 369.732527 199.35057 
L 373.718723 199.35057 
L 377.704918 199.35057 
L 381.691114 199.35057 
L 385.67731 199.35057 
L 389.663505 199.35057 
L 393.649701 199.35057 
L 397.635897 199.35057 
L 401.622092 199.35057 
L 405.608288 199.35057 
L 409.594484 199.35057 
L 413.580679 199.35057 
L 417.566875 199.35057 
L 421.553071 199.35057 
" clip-path="url(#p0b34a9d350)" style="fill: none; stroke: #276319; stroke-width: 2; stroke-linecap: square"/>
   </g>
   <g id="line2d_28">
    <path d="M 50.836875 249.803619 
L 54.823071 247.566035 
L 58.809266 237.908742 
L 62.795462 223.226906 
L 66.781658 219.048372 
L 70.767853 220.320471 
L 74.754049 214.312977 
L 78.740245 207.455369 
L 82.72644 205.859727 
L 86.712636 206.962694 
L 90.698832 208.324787 
L 94.685027 206.75186 
L 98.671223 206.409429 
L 102.657418 207.353888 
L 106.643614 207.083399 
L 110.62981 205.438886 
L 114.616005 203.867356 
L 118.602201 203.346074 
L 122.588397 204.011571 
L 126.574592 204.969589 
L 130.560788 203.467916 
L 134.546984 200.112773 
L 138.533179 199.469539 
L 142.519375 200.192022 
L 146.505571 199.214837 
L 150.491766 198.948582 
L 154.477962 199.813831 
L 158.464158 200.150507 
L 162.450353 200.091933 
L 166.436549 200.085007 
L 170.422745 200.523734 
L 174.40894 200.386904 
L 178.395136 199.232673 
L 182.381332 199.086415 
L 186.367527 199.898858 
L 190.353723 200.843538 
L 194.339918 201.149951 
L 198.326114 200.838659 
L 202.31231 200.363998 
L 206.298505 199.788027 
L 210.284701 199.437237 
L 214.270897 199.357388 
L 218.257092 199.350771 
L 222.243288 199.35057 
L 226.229484 199.35057 
L 230.215679 199.35057 
L 234.201875 199.35057 
L 238.188071 199.35057 
L 242.174266 199.35057 
L 246.160462 199.35057 
L 250.146658 199.35057 
L 254.132853 199.35057 
L 258.119049 199.35057 
L 262.105245 199.35057 
L 266.09144 199.35057 
L 270.077636 199.35057 
L 274.063832 199.35057 
L 278.050027 199.35057 
L 282.036223 199.35057 
L 286.022418 199.35057 
L 290.008614 199.35057 
L 293.99481 199.35057 
L 297.981005 199.35057 
L 301.967201 199.35057 
L 305.953397 199.35057 
L 309.939592 199.35057 
L 313.925788 199.35057 
L 317.911984 199.35057 
L 321.898179 199.35057 
L 325.884375 199.35057 
L 329.870571 199.35057 
L 333.856766 199.35057 
L 337.842962 199.35057 
L 341.829158 199.35057 
L 345.815353 199.35057 
L 349.801549 199.35057 
L 353.787745 199.35057 
L 357.77394 199.35057 
L 361.760136 199.35057 
L 365.746332 199.35057 
L 369.732527 199.35057 
L 373.718723 199.35057 
L 377.704918 199.35057 
L 381.691114 199.35057 
L 385.67731 199.35057 
L 389.663505 199.35057 
L 393.649701 199.35057 
L 397.635897 199.35057 
L 401.622092 199.35057 
L 405.608288 199.35057 
L 409.594484 199.35057 
L 413.580679 199.35057 
L 417.566875 199.35057 
L 421.553071 199.35057 
" clip-path="url(#p0b34a9d350)" style="fill: none; stroke-dasharray: 3.7,1.6; stroke-dashoffset: 0; stroke: #276319"/>
   </g>
   <g id="line2d_29">
    <path d="M 50.836875 249.803619 
L 54.823071 252.961154 
L 58.809266 249.879437 
L 62.795462 240.370274 
L 66.781658 236.070403 
L 70.767853 235.970686 
L 74.754049 229.253991 
L 78.740245 222.486102 
L 82.72644 220.677663 
L 86.712636 219.824577 
L 90.698832 220.534204 
L 94.685027 219.537011 
L 98.671223 218.608319 
L 102.657418 219.294571 
L 106.643614 219.649701 
L 110.62981 218.044753 
L 114.616005 215.631571 
L 118.602201 214.538352 
L 122.588397 214.567472 
L 126.574592 214.307114 
L 130.560788 212.24103 
L 134.546984 209.355721 
L 138.533179 208.449435 
L 142.519375 208.234119 
L 146.505571 206.68885 
L 150.491766 206.439999 
L 154.477962 207.702768 
L 158.464158 208.085684 
L 162.450353 207.705788 
L 166.436549 207.226357 
L 170.422745 207.156984 
L 174.40894 206.570025 
L 178.395136 205.526528 
L 182.381332 205.307228 
L 186.367527 205.37768 
L 190.353723 205.441084 
L 194.339918 204.719393 
L 198.326114 203.408152 
L 202.31231 202.021835 
L 206.298505 200.477884 
L 210.284701 199.571297 
L 214.270897 199.367848 
L 218.257092 199.351078 
L 222.243288 199.35057 
L 226.229484 199.35057 
L 230.215679 199.35057 
L 234.201875 199.35057 
L 238.188071 199.35057 
L 242.174266 199.35057 
L 246.160462 199.35057 
L 250.146658 199.35057 
L 254.132853 199.35057 
L 258.119049 199.35057 
L 262.105245 199.35057 
L 266.09144 199.35057 
L 270.077636 199.35057 
L 274.063832 199.35057 
L 278.050027 199.35057 
L 282.036223 199.35057 
L 286.022418 199.35057 
L 290.008614 199.35057 
L 293.99481 199.35057 
L 297.981005 199.35057 
L 301.967201 199.35057 
L 305.953397 199.35057 
L 309.939592 199.35057 
L 313.925788 199.35057 
L 317.911984 199.35057 
L 321.898179 199.35057 
L 325.884375 199.35057 
L 329.870571 199.35057 
L 333.856766 199.35057 
L 337.842962 199.35057 
L 341.829158 199.35057 
L 345.815353 199.35057 
L 349.801549 199.35057 
L 353.787745 199.35057 
L 357.77394 199.35057 
L 361.760136 199.35057 
L 365.746332 199.35057 
L 369.732527 199.35057 
L 373.718723 199.35057 
L 377.704918 199.35057 
L 381.691114 199.35057 
L 385.67731 199.35057 
L 389.663505 199.35057 
L 393.649701 199.35057 
L 397.635897 199.35057 
L 401.622092 199.35057 
L 405.608288 199.35057 
L 409.594484 199.35057 
L 413.580679 199.35057 
L 417.566875 199.35057 
L 421.553071 199.35057 
" clip-path="url(#p0b34a9d350)" style="fill: none; stroke-dasharray: 3.7,1.6; stroke-dashoffset: 0; stroke: #276319"/>
   </g>
   <g id="line2d_30">
    <path d="M 50.836875 274.892019 
L 54.823071 275.312311 
L 58.809266 268.295235 
L 62.795462 256.527444 
L 66.781658 254.533424 
L 70.767853 256.016062 
L 74.754049 252.064178 
L 78.740245 248.455185 
L 82.72644 245.576359 
L 86.712636 243.665728 
L 90.698832 241.60372 
L 94.685027 241.20926 
L 98.671223 241.050777 
L 102.657418 240.86527 
L 106.643614 240.596684 
L 110.62981 239.530681 
L 114.616005 237.508551 
L 118.602201 234.569857 
L 122.588397 233.790717 
L 126.574592 233.369996 
L 130.560788 231.540833 
L 134.546984 231.156912 
L 138.533179 230.816445 
L 142.519375 229.131589 
L 146.505571 228.24304 
L 150.491766 227.271184 
L 154.477962 224.587634 
L 158.464158 222.560287 
L 162.450353 223.078723 
L 166.436549 224.401551 
L 170.422745 224.091858 
L 174.40894 223.0048 
L 178.395136 222.220018 
L 182.381332 221.571781 
L 186.367527 220.445804 
L 190.353723 219.272361 
L 194.339918 217.780025 
L 198.326114 216.482289 
L 202.31231 216.439419 
L 206.298505 215.80261 
L 210.284701 214.53275 
L 214.270897 214.389777 
L 218.257092 214.905264 
L 222.243288 215.560942 
L 226.229484 215.55826 
L 230.215679 214.618164 
L 234.201875 213.283179 
L 238.188071 212.080726 
L 242.174266 211.677283 
L 246.160462 212.081208 
L 250.146658 212.574645 
L 254.132853 212.166964 
L 258.119049 210.810774 
L 262.105245 209.889514 
L 266.09144 209.400578 
L 270.077636 209.088695 
L 274.063832 208.909752 
L 278.050027 208.836787 
L 282.036223 208.920533 
L 286.022418 208.50337 
L 290.008614 207.484056 
L 293.99481 206.846053 
L 297.981005 206.877561 
L 301.967201 206.48716 
L 305.953397 205.859387 
L 309.939592 205.63469 
L 313.925788 205.446206 
L 317.911984 205.62738 
L 321.898179 205.34049 
L 325.884375 205.140613 
L 329.870571 205.052145 
L 333.856766 204.119662 
L 337.842962 203.850642 
L 341.829158 204.362906 
L 345.815353 204.371426 
L 349.801549 203.345506 
L 353.787745 201.938425 
L 357.77394 201.520279 
L 361.760136 202.099158 
L 365.746332 202.087214 
L 369.732527 201.125077 
L 373.718723 200.10578 
L 377.704918 199.800925 
L 381.691114 200.022915 
L 385.67731 199.911767 
L 389.663505 199.573678 
L 393.649701 199.598072 
L 397.635897 199.502894 
L 401.622092 199.049437 
L 405.608288 198.892248 
L 409.594484 199.1237 
L 413.580679 199.305293 
L 417.566875 199.347026 
L 421.553071 199.350466 
" clip-path="url(#p0b34a9d350)" style="fill: none; stroke: #6f9fc7; stroke-width: 2; stroke-linecap: square"/>
   </g>
   <g id="line2d_31">
    <path d="M 50.836875 274.892019 
L 54.823071 267.5512 
L 58.809266 255.118363 
L 62.795462 243.522963 
L 66.781658 245.619506 
L 70.767853 249.500666 
L 74.754049 246.820955 
L 78.740245 243.165886 
L 82.72644 239.655694 
L 86.712636 237.881906 
L 90.698832 236.47189 
L 94.685027 236.706777 
L 98.671223 236.83401 
L 102.657418 236.264131 
L 106.643614 235.670647 
L 110.62981 234.658519 
L 114.616005 232.645403 
L 118.602201 229.596236 
L 122.588397 228.66129 
L 126.574592 228.434745 
L 130.560788 227.181906 
L 134.546984 227.265403 
L 138.533179 226.902007 
L 142.519375 224.729657 
L 146.505571 223.743604 
L 150.491766 223.141407 
L 154.477962 220.635907 
L 158.464158 218.543148 
L 162.450353 218.905872 
L 166.436549 219.979976 
L 170.422745 219.747657 
L 174.40894 219.069941 
L 178.395136 218.503963 
L 182.381332 217.94317 
L 186.367527 216.963904 
L 190.353723 215.84684 
L 194.339918 214.477236 
L 198.326114 213.394959 
L 202.31231 213.263823 
L 206.298505 212.271837 
L 210.284701 210.825622 
L 214.270897 210.672811 
L 218.257092 211.341975 
L 222.243288 212.209653 
L 226.229484 212.339507 
L 230.215679 211.413525 
L 234.201875 209.986227 
L 238.188071 208.800446 
L 242.174266 208.417908 
L 246.160462 208.84493 
L 250.146658 209.447314 
L 254.132853 209.153457 
L 258.119049 207.706227 
L 262.105245 206.717072 
L 266.09144 206.381514 
L 270.077636 206.178386 
L 274.063832 205.922576 
L 278.050027 205.849634 
L 282.036223 206.029284 
L 286.022418 205.685459 
L 290.008614 204.732852 
L 293.99481 204.129278 
L 297.981005 204.134576 
L 301.967201 203.723331 
L 305.953397 203.13965 
L 309.939592 203.009544 
L 313.925788 202.905886 
L 317.911984 203.136771 
L 321.898179 202.827933 
L 325.884375 202.64213 
L 329.870571 202.649891 
L 333.856766 201.771915 
L 337.842962 201.510701 
L 341.829158 202.048776 
L 345.815353 202.063598 
L 349.801549 200.969567 
L 353.787745 199.46335 
L 357.77394 199.014468 
L 361.760136 199.703288 
L 365.746332 199.873513 
L 369.732527 199.097977 
L 373.718723 198.201076 
L 377.704918 197.8965 
L 381.691114 198.077414 
L 385.67731 198.00637 
L 389.663505 197.833494 
L 393.649701 198.058828 
L 397.635897 198.118687 
L 401.622092 197.881267 
L 405.608288 198.108341 
L 409.594484 198.804458 
L 413.580679 199.244414 
L 417.566875 199.342318 
L 421.553071 199.350329 
" clip-path="url(#p0b34a9d350)" style="fill: none; stroke-dasharray: 3.7,1.6; stroke-dashoffset: 0; stroke: #6f9fc7"/>
   </g>
   <g id="line2d_32">
    <path d="M 50.836875 274.892019 
L 54.823071 290.834535 
L 58.809266 294.648977 
L 62.795462 282.536406 
L 66.781658 272.361261 
L 70.767853 269.046853 
L 74.754049 262.550624 
L 78.740245 259.033782 
L 82.72644 257.417689 
L 86.712636 255.233372 
L 90.698832 251.867378 
L 94.685027 250.214227 
L 98.671223 249.484313 
L 102.657418 250.067546 
L 106.643614 250.448759 
L 110.62981 249.275005 
L 114.616005 247.234846 
L 118.602201 244.5171 
L 122.588397 244.049571 
L 126.574592 243.240498 
L 130.560788 240.258688 
L 134.546984 238.939929 
L 138.533179 238.645323 
L 142.519375 237.935453 
L 146.505571 237.241912 
L 150.491766 235.530738 
L 154.477962 232.491088 
L 158.464158 230.594565 
L 162.450353 231.424425 
L 166.436549 233.2447 
L 170.422745 232.78026 
L 174.40894 230.874519 
L 178.395136 229.652127 
L 182.381332 228.829002 
L 186.367527 227.409602 
L 190.353723 226.123402 
L 194.339918 224.385605 
L 198.326114 222.65695 
L 202.31231 222.79061 
L 206.298505 222.864155 
L 210.284701 221.947006 
L 214.270897 221.823708 
L 218.257092 222.031843 
L 222.243288 222.263521 
L 226.229484 221.995766 
L 230.215679 221.027442 
L 234.201875 219.877082 
L 238.188071 218.641288 
L 242.174266 218.196032 
L 246.160462 218.553763 
L 250.146658 218.829309 
L 254.132853 218.193977 
L 258.119049 217.019867 
L 262.105245 216.234399 
L 266.09144 215.438707 
L 270.077636 214.909314 
L 274.063832 214.884105 
L 278.050027 214.811094 
L 282.036223 214.703033 
L 286.022418 214.139192 
L 290.008614 212.986463 
L 293.99481 212.279602 
L 297.981005 212.36353 
L 301.967201 212.014817 
L 305.953397 211.29886 
L 309.939592 210.884983 
L 313.925788 210.526847 
L 317.911984 210.6086 
L 321.898179 210.365604 
L 325.884375 210.13758 
L 329.870571 209.856651 
L 333.856766 208.815157 
L 337.842962 208.530525 
L 341.829158 208.991168 
L 345.815353 208.987082 
L 349.801549 208.097383 
L 353.787745 206.888574 
L 357.77394 206.531901 
L 361.760136 206.890897 
L 365.746332 206.514616 
L 369.732527 205.179279 
L 373.718723 203.915187 
L 377.704918 203.609776 
L 381.691114 203.913916 
L 385.67731 203.72256 
L 389.663505 203.054044 
L 393.649701 202.676562 
L 397.635897 202.271307 
L 401.622092 201.385778 
L 405.608288 200.460063 
L 409.594484 199.762183 
L 413.580679 199.42705 
L 417.566875 199.356442 
L 421.553071 199.350741 
" clip-path="url(#p0b34a9d350)" style="fill: none; stroke-dasharray: 3.7,1.6; stroke-dashoffset: 0; stroke: #6f9fc7"/>
   </g>
   <g id="patch_3">
    <path d="M 50.836875 382.679219 
L 50.836875 10.999219 
" style="fill: none; stroke: #000000; stroke-width: 0.8; stroke-linejoin: miter; stroke-linecap: square"/>
   </g>
   <g id="patch_4">
    <path d="M 417.566875 382.679219 
L 417.566875 10.999219 
" style="fill: none; stroke: #000000; stroke-width: 0.8; stroke-linejoin: miter; stroke-linecap: square"/>
   </g>
   <g id="patch_5">
    <path d="M 50.836875 382.679219 
L 417.566875 382.679219 
" style="fill: none; stroke: #000000; stroke-width: 0.8; stroke-linejoin: miter; stroke-linecap: square"/>
   </g>
   <g id="patch_6">
    <path d="M 50.836875 10.999219 
L 417.566875 10.999219 
" style="fill: none; stroke: #000000; stroke-width: 0.8; stroke-linejoin: miter; stroke-linecap: square"/>
   </g>
   <g id="legend_1">
    <g id="patch_7">
     <path d="M 295.366875 377.679219 
L 410.566875 377.679219 
Q 412.566875 377.679219 412.566875 375.679219 
L 412.566875 332.644844 
Q 412.566875 330.644844 410.566875 330.644844 
L 295.366875 330.644844 
Q 293.366875 330.644844 293.366875 332.644844 
L 293.366875 375.679219 
Q 293.366875 377.679219 295.366875 377.679219 
z
" style="fill: #ffffff; opacity: 0.8; stroke: #cccccc; stroke-linejoin: miter"/>
    </g>
    <g id="line2d_33">
     <path d="M 297.366875 338.743281 
L 307.366875 338.743281 
L 317.366875 338.743281 
" style="fill: none; stroke: #8e0052; stroke-width: 2; stroke-linecap: square"/>
    </g>
    <g id="text_17">
     <!-- Non Expert (1-2) -->
     <g transform="translate(325.366875 342.243281) scale(0.1 -0.1)">
      <defs>
       <path id="DejaVuSans-45" d="M 628 4666 
L 3578 4666 
L 3578 4134 
L 1259 4134 
L 1259 2753 
L 3481 2753 
L 3481 2222 
L 1259 2222 
L 1259 531 
L 3634 531 
L 3634 0 
L 628 0 
L 628 4666 
z
" transform="scale(0.015625)"/>
       <path id="DejaVuSans-78" d="M 3513 3500 
L 2247 1797 
L 3578 0 
L 2900 0 
L 1881 1375 
L 863 0 
L 184 0 
L 1544 1831 
L 300 3500 
L 978 3500 
L 1906 2253 
L 2834 3500 
L 3513 3500 
z
" transform="scale(0.015625)"/>
       <path id="DejaVuSans-2d" d="M 313 2009 
L 1997 2009 
L 1997 1497 
L 313 1497 
L 313 2009 
z
" transform="scale(0.015625)"/>
      </defs>
      <use xlink:href="#DejaVuSans-4e"/>
      <use xlink:href="#DejaVuSans-6f" x="74.804688"/>
      <use xlink:href="#DejaVuSans-6e" x="135.986328"/>
      <use xlink:href="#DejaVuSans-20" x="199.365234"/>
      <use xlink:href="#DejaVuSans-45" x="231.152344"/>
      <use xlink:href="#DejaVuSans-78" x="294.335938"/>
      <use xlink:href="#DejaVuSans-70" x="353.515625"/>
      <use xlink:href="#DejaVuSans-65" x="416.992188"/>
      <use xlink:href="#DejaVuSans-72" x="478.515625"/>
      <use xlink:href="#DejaVuSans-74" x="519.628906"/>
      <use xlink:href="#DejaVuSans-20" x="558.837891"/>
      <use xlink:href="#DejaVuSans-28" x="590.625"/>
      <use xlink:href="#DejaVuSans-31" x="629.638672"/>
      <use xlink:href="#DejaVuSans-2d" x="693.261719"/>
      <use xlink:href="#DejaVuSans-32" x="729.345703"/>
      <use xlink:href="#DejaVuSans-29" x="792.96875"/>
     </g>
    </g>
    <g id="line2d_34">
     <path d="M 297.366875 353.421406 
L 307.366875 353.421406 
L 317.366875 353.421406 
" style="fill: none; stroke: #276319; stroke-width: 2; stroke-linecap: square"/>
    </g>
    <g id="text_18">
     <!-- Expert (3-5) -->
     <g transform="translate(325.366875 356.921406) scale(0.1 -0.1)">
      <use xlink:href="#DejaVuSans-45"/>
      <use xlink:href="#DejaVuSans-78" x="63.183594"/>
      <use xlink:href="#DejaVuSans-70" x="122.363281"/>
      <use xlink:href="#DejaVuSans-65" x="185.839844"/>
      <use xlink:href="#DejaVuSans-72" x="247.363281"/>
      <use xlink:href="#DejaVuSans-74" x="288.476562"/>
      <use xlink:href="#DejaVuSans-20" x="327.685547"/>
      <use xlink:href="#DejaVuSans-28" x="359.472656"/>
      <use xlink:href="#DejaVuSans-33" x="398.486328"/>
      <use xlink:href="#DejaVuSans-2d" x="462.109375"/>
      <use xlink:href="#DejaVuSans-35" x="498.193359"/>
      <use xlink:href="#DejaVuSans-29" x="561.816406"/>
     </g>
    </g>
    <g id="line2d_35">
     <path d="M 297.366875 368.099531 
L 307.366875 368.099531 
L 317.366875 368.099531 
" style="fill: none; stroke: #6f9fc7; stroke-width: 2; stroke-linecap: square"/>
    </g>
    <g id="text_19">
     <!-- All -->
     <g transform="translate(325.366875 371.599531) scale(0.1 -0.1)">
      <defs>
       <path id="DejaVuSans-41" d="M 2188 4044 
L 1331 1722 
L 3047 1722 
L 2188 4044 
z
M 1831 4666 
L 2547 4666 
L 4325 0 
L 3669 0 
L 3244 1197 
L 1141 1197 
L 716 0 
L 50 0 
L 1831 4666 
z
" transform="scale(0.015625)"/>
       <path id="DejaVuSans-6c" d="M 603 4863 
L 1178 4863 
L 1178 0 
L 603 0 
L 603 4863 
z
" transform="scale(0.015625)"/>
      </defs>
      <use xlink:href="#DejaVuSans-41"/>
      <use xlink:href="#DejaVuSans-6c" x="68.408203"/>
      <use xlink:href="#DejaVuSans-6c" x="96.191406"/>
     </g>
    </g>
   </g>
  </g>
 </g>
 <defs>
  <clipPath id="p0b34a9d350">
   <rect x="50.836875" y="10.999219" width="366.73" height="371.68"/>
  </clipPath>
 </defs>
</svg>
