<?xml version="1.0" encoding="utf-8" standalone="no"?>
<!DOCTYPE svg PUBLIC "-//W3C//DTD SVG 1.1//EN"
  "http://www.w3.org/Graphics/SVG/1.1/DTD/svg11.dtd">
<svg xmlns:xlink="http://www.w3.org/1999/xlink" width="388.766875pt" height="352.106719pt" viewBox="0 0 388.766875 352.106719" xmlns="http://www.w3.org/2000/svg" version="1.1">
 <metadata>
  <rdf:RDF xmlns:dc="http://purl.org/dc/elements/1.1/" xmlns:cc="http://creativecommons.org/ns#" xmlns:rdf="http://www.w3.org/1999/02/22-rdf-syntax-ns#">
   <cc:Work>
    <dc:type rdf:resource="http://purl.org/dc/dcmitype/StillImage"/>
    <dc:date>2024-04-17T11:50:16.078157</dc:date>
    <dc:format>image/svg+xml</dc:format>
    <dc:creator>
     <cc:Agent>
      <dc:title>Matplotlib v3.6.2, https://matplotlib.org/</dc:title>
     </cc:Agent>
    </dc:creator>
   </cc:Work>
  </rdf:RDF>
 </metadata>
 <defs>
  <style type="text/css">*{stroke-linejoin: round; stroke-linecap: butt}</style>
 </defs>
 <g id="figure_1">
  <g id="patch_1">
   <path d="M 0 352.106719 
L 388.766875 352.106719 
L 388.766875 0 
L 0 0 
z
" style="fill: #ffffff"/>
  </g>
  <g id="axes_1">
   <g id="patch_2">
    <path d="M 50.836875 310.679219 
L 381.566875 310.679219 
L 381.566875 10.999219 
L 50.836875 10.999219 
z
" style="fill: #ffffff"/>
   </g>
   <g id="matplotlib.axis_1">
    <g id="xtick_1">
     <g id="line2d_1">
      <defs>
       <path id="m4fc541b526" d="M 0 0 
L 0 3.5 
" style="stroke: #000000; stroke-width: 0.8"/>
      </defs>
      <g>
       <use xlink:href="#m4fc541b526" x="83.909875" y="310.679219" style="stroke: #000000; stroke-width: 0.8"/>
      </g>
     </g>
     <g id="text_1">
      <!-- hERG -->
      <g transform="translate(70.233312 325.277656) scale(0.1 -0.1)">
       <defs>
        <path id="DejaVuSans-68" d="M 3513 2113 
L 3513 0 
L 2938 0 
L 2938 2094 
Q 2938 2591 2744 2837 
Q 2550 3084 2163 3084 
Q 1697 3084 1428 2787 
Q 1159 2491 1159 1978 
L 1159 0 
L 581 0 
L 581 4863 
L 1159 4863 
L 1159 2956 
Q 1366 3272 1645 3428 
Q 1925 3584 2291 3584 
Q 2894 3584 3203 3211 
Q 3513 2838 3513 2113 
z
" transform="scale(0.015625)"/>
        <path id="DejaVuSans-45" d="M 628 4666 
L 3578 4666 
L 3578 4134 
L 1259 4134 
L 1259 2753 
L 3481 2753 
L 3481 2222 
L 1259 2222 
L 1259 531 
L 3634 531 
L 3634 0 
L 628 0 
L 628 4666 
z
" transform="scale(0.015625)"/>
        <path id="DejaVuSans-52" d="M 2841 2188 
Q 3044 2119 3236 1894 
Q 3428 1669 3622 1275 
L 4263 0 
L 3584 0 
L 2988 1197 
Q 2756 1666 2539 1819 
Q 2322 1972 1947 1972 
L 1259 1972 
L 1259 0 
L 628 0 
L 628 4666 
L 2053 4666 
Q 2853 4666 3247 4331 
Q 3641 3997 3641 3322 
Q 3641 2881 3436 2590 
Q 3231 2300 2841 2188 
z
M 1259 4147 
L 1259 2491 
L 2053 2491 
Q 2509 2491 2742 2702 
Q 2975 2913 2975 3322 
Q 2975 3731 2742 3939 
Q 2509 4147 2053 4147 
L 1259 4147 
z
" transform="scale(0.015625)"/>
        <path id="DejaVuSans-47" d="M 3809 666 
L 3809 1919 
L 2778 1919 
L 2778 2438 
L 4434 2438 
L 4434 434 
Q 4069 175 3628 42 
Q 3188 -91 2688 -91 
Q 1594 -91 976 548 
Q 359 1188 359 2328 
Q 359 3472 976 4111 
Q 1594 4750 2688 4750 
Q 3144 4750 3555 4637 
Q 3966 4525 4313 4306 
L 4313 3634 
Q 3963 3931 3569 4081 
Q 3175 4231 2741 4231 
Q 1884 4231 1454 3753 
Q 1025 3275 1025 2328 
Q 1025 1384 1454 906 
Q 1884 428 2741 428 
Q 3075 428 3337 486 
Q 3600 544 3809 666 
z
" transform="scale(0.015625)"/>
       </defs>
       <use xlink:href="#DejaVuSans-68"/>
       <use xlink:href="#DejaVuSans-45" x="63.378906"/>
       <use xlink:href="#DejaVuSans-52" x="126.5625"/>
       <use xlink:href="#DejaVuSans-47" x="196.044922"/>
      </g>
     </g>
    </g>
    <g id="xtick_2">
     <g id="line2d_2">
      <g>
       <use xlink:href="#m4fc541b526" x="150.055875" y="310.679219" style="stroke: #000000; stroke-width: 0.8"/>
      </g>
     </g>
     <g id="text_2">
      <!-- LogD -->
      <g transform="translate(137.273844 325.277656) scale(0.1 -0.1)">
       <defs>
        <path id="DejaVuSans-4c" d="M 628 4666 
L 1259 4666 
L 1259 531 
L 3531 531 
L 3531 0 
L 628 0 
L 628 4666 
z
" transform="scale(0.015625)"/>
        <path id="DejaVuSans-6f" d="M 1959 3097 
Q 1497 3097 1228 2736 
Q 959 2375 959 1747 
Q 959 1119 1226 758 
Q 1494 397 1959 397 
Q 2419 397 2687 759 
Q 2956 1122 2956 1747 
Q 2956 2369 2687 2733 
Q 2419 3097 1959 3097 
z
M 1959 3584 
Q 2709 3584 3137 3096 
Q 3566 2609 3566 1747 
Q 3566 888 3137 398 
Q 2709 -91 1959 -91 
Q 1206 -91 779 398 
Q 353 888 353 1747 
Q 353 2609 779 3096 
Q 1206 3584 1959 3584 
z
" transform="scale(0.015625)"/>
        <path id="DejaVuSans-67" d="M 2906 1791 
Q 2906 2416 2648 2759 
Q 2391 3103 1925 3103 
Q 1463 3103 1205 2759 
Q 947 2416 947 1791 
Q 947 1169 1205 825 
Q 1463 481 1925 481 
Q 2391 481 2648 825 
Q 2906 1169 2906 1791 
z
M 3481 434 
Q 3481 -459 3084 -895 
Q 2688 -1331 1869 -1331 
Q 1566 -1331 1297 -1286 
Q 1028 -1241 775 -1147 
L 775 -588 
Q 1028 -725 1275 -790 
Q 1522 -856 1778 -856 
Q 2344 -856 2625 -561 
Q 2906 -266 2906 331 
L 2906 616 
Q 2728 306 2450 153 
Q 2172 0 1784 0 
Q 1141 0 747 490 
Q 353 981 353 1791 
Q 353 2603 747 3093 
Q 1141 3584 1784 3584 
Q 2172 3584 2450 3431 
Q 2728 3278 2906 2969 
L 2906 3500 
L 3481 3500 
L 3481 434 
z
" transform="scale(0.015625)"/>
        <path id="DejaVuSans-44" d="M 1259 4147 
L 1259 519 
L 2022 519 
Q 2988 519 3436 956 
Q 3884 1394 3884 2338 
Q 3884 3275 3436 3711 
Q 2988 4147 2022 4147 
L 1259 4147 
z
M 628 4666 
L 1925 4666 
Q 3281 4666 3915 4102 
Q 4550 3538 4550 2338 
Q 4550 1131 3912 565 
Q 3275 0 1925 0 
L 628 0 
L 628 4666 
z
" transform="scale(0.015625)"/>
       </defs>
       <use xlink:href="#DejaVuSans-4c"/>
       <use xlink:href="#DejaVuSans-6f" x="53.962891"/>
       <use xlink:href="#DejaVuSans-67" x="115.144531"/>
       <use xlink:href="#DejaVuSans-44" x="178.621094"/>
      </g>
     </g>
    </g>
    <g id="xtick_3">
     <g id="line2d_3">
      <g>
       <use xlink:href="#m4fc541b526" x="216.201875" y="310.679219" style="stroke: #000000; stroke-width: 0.8"/>
      </g>
     </g>
     <g id="text_3">
      <!-- Solubility -->
      <g transform="translate(193.149531 325.277656) scale(0.1 -0.1)">
       <defs>
        <path id="DejaVuSans-53" d="M 3425 4513 
L 3425 3897 
Q 3066 4069 2747 4153 
Q 2428 4238 2131 4238 
Q 1616 4238 1336 4038 
Q 1056 3838 1056 3469 
Q 1056 3159 1242 3001 
Q 1428 2844 1947 2747 
L 2328 2669 
Q 3034 2534 3370 2195 
Q 3706 1856 3706 1288 
Q 3706 609 3251 259 
Q 2797 -91 1919 -91 
Q 1588 -91 1214 -16 
Q 841 59 441 206 
L 441 856 
Q 825 641 1194 531 
Q 1563 422 1919 422 
Q 2459 422 2753 634 
Q 3047 847 3047 1241 
Q 3047 1584 2836 1778 
Q 2625 1972 2144 2069 
L 1759 2144 
Q 1053 2284 737 2584 
Q 422 2884 422 3419 
Q 422 4038 858 4394 
Q 1294 4750 2059 4750 
Q 2388 4750 2728 4690 
Q 3069 4631 3425 4513 
z
" transform="scale(0.015625)"/>
        <path id="DejaVuSans-6c" d="M 603 4863 
L 1178 4863 
L 1178 0 
L 603 0 
L 603 4863 
z
" transform="scale(0.015625)"/>
        <path id="DejaVuSans-75" d="M 544 1381 
L 544 3500 
L 1119 3500 
L 1119 1403 
Q 1119 906 1312 657 
Q 1506 409 1894 409 
Q 2359 409 2629 706 
Q 2900 1003 2900 1516 
L 2900 3500 
L 3475 3500 
L 3475 0 
L 2900 0 
L 2900 538 
Q 2691 219 2414 64 
Q 2138 -91 1772 -91 
Q 1169 -91 856 284 
Q 544 659 544 1381 
z
M 1991 3584 
L 1991 3584 
z
" transform="scale(0.015625)"/>
        <path id="DejaVuSans-62" d="M 3116 1747 
Q 3116 2381 2855 2742 
Q 2594 3103 2138 3103 
Q 1681 3103 1420 2742 
Q 1159 2381 1159 1747 
Q 1159 1113 1420 752 
Q 1681 391 2138 391 
Q 2594 391 2855 752 
Q 3116 1113 3116 1747 
z
M 1159 2969 
Q 1341 3281 1617 3432 
Q 1894 3584 2278 3584 
Q 2916 3584 3314 3078 
Q 3713 2572 3713 1747 
Q 3713 922 3314 415 
Q 2916 -91 2278 -91 
Q 1894 -91 1617 61 
Q 1341 213 1159 525 
L 1159 0 
L 581 0 
L 581 4863 
L 1159 4863 
L 1159 2969 
z
" transform="scale(0.015625)"/>
        <path id="DejaVuSans-69" d="M 603 3500 
L 1178 3500 
L 1178 0 
L 603 0 
L 603 3500 
z
M 603 4863 
L 1178 4863 
L 1178 4134 
L 603 4134 
L 603 4863 
z
" transform="scale(0.015625)"/>
        <path id="DejaVuSans-74" d="M 1172 4494 
L 1172 3500 
L 2356 3500 
L 2356 3053 
L 1172 3053 
L 1172 1153 
Q 1172 725 1289 603 
Q 1406 481 1766 481 
L 2356 481 
L 2356 0 
L 1766 0 
Q 1100 0 847 248 
Q 594 497 594 1153 
L 594 3053 
L 172 3053 
L 172 3500 
L 594 3500 
L 594 4494 
L 1172 4494 
z
" transform="scale(0.015625)"/>
        <path id="DejaVuSans-79" d="M 2059 -325 
Q 1816 -950 1584 -1140 
Q 1353 -1331 966 -1331 
L 506 -1331 
L 506 -850 
L 844 -850 
Q 1081 -850 1212 -737 
Q 1344 -625 1503 -206 
L 1606 56 
L 191 3500 
L 800 3500 
L 1894 763 
L 2988 3500 
L 3597 3500 
L 2059 -325 
z
" transform="scale(0.015625)"/>
       </defs>
       <use xlink:href="#DejaVuSans-53"/>
       <use xlink:href="#DejaVuSans-6f" x="63.476562"/>
       <use xlink:href="#DejaVuSans-6c" x="124.658203"/>
       <use xlink:href="#DejaVuSans-75" x="152.441406"/>
       <use xlink:href="#DejaVuSans-62" x="215.820312"/>
       <use xlink:href="#DejaVuSans-69" x="279.296875"/>
       <use xlink:href="#DejaVuSans-6c" x="307.080078"/>
       <use xlink:href="#DejaVuSans-69" x="334.863281"/>
       <use xlink:href="#DejaVuSans-74" x="362.646484"/>
       <use xlink:href="#DejaVuSans-79" x="401.855469"/>
      </g>
     </g>
    </g>
    <g id="xtick_4">
     <g id="line2d_4">
      <g>
       <use xlink:href="#m4fc541b526" x="282.347875" y="310.679219" style="stroke: #000000; stroke-width: 0.8"/>
      </g>
     </g>
     <g id="text_4">
      <!-- Permeability -->
      <g transform="translate(251.197875 325.277656) scale(0.1 -0.1)">
       <defs>
        <path id="DejaVuSans-50" d="M 1259 4147 
L 1259 2394 
L 2053 2394 
Q 2494 2394 2734 2622 
Q 2975 2850 2975 3272 
Q 2975 3691 2734 3919 
Q 2494 4147 2053 4147 
L 1259 4147 
z
M 628 4666 
L 2053 4666 
Q 2838 4666 3239 4311 
Q 3641 3956 3641 3272 
Q 3641 2581 3239 2228 
Q 2838 1875 2053 1875 
L 1259 1875 
L 1259 0 
L 628 0 
L 628 4666 
z
" transform="scale(0.015625)"/>
        <path id="DejaVuSans-65" d="M 3597 1894 
L 3597 1613 
L 953 1613 
Q 991 1019 1311 708 
Q 1631 397 2203 397 
Q 2534 397 2845 478 
Q 3156 559 3463 722 
L 3463 178 
Q 3153 47 2828 -22 
Q 2503 -91 2169 -91 
Q 1331 -91 842 396 
Q 353 884 353 1716 
Q 353 2575 817 3079 
Q 1281 3584 2069 3584 
Q 2775 3584 3186 3129 
Q 3597 2675 3597 1894 
z
M 3022 2063 
Q 3016 2534 2758 2815 
Q 2500 3097 2075 3097 
Q 1594 3097 1305 2825 
Q 1016 2553 972 2059 
L 3022 2063 
z
" transform="scale(0.015625)"/>
        <path id="DejaVuSans-72" d="M 2631 2963 
Q 2534 3019 2420 3045 
Q 2306 3072 2169 3072 
Q 1681 3072 1420 2755 
Q 1159 2438 1159 1844 
L 1159 0 
L 581 0 
L 581 3500 
L 1159 3500 
L 1159 2956 
Q 1341 3275 1631 3429 
Q 1922 3584 2338 3584 
Q 2397 3584 2469 3576 
Q 2541 3569 2628 3553 
L 2631 2963 
z
" transform="scale(0.015625)"/>
        <path id="DejaVuSans-6d" d="M 3328 2828 
Q 3544 3216 3844 3400 
Q 4144 3584 4550 3584 
Q 5097 3584 5394 3201 
Q 5691 2819 5691 2113 
L 5691 0 
L 5113 0 
L 5113 2094 
Q 5113 2597 4934 2840 
Q 4756 3084 4391 3084 
Q 3944 3084 3684 2787 
Q 3425 2491 3425 1978 
L 3425 0 
L 2847 0 
L 2847 2094 
Q 2847 2600 2669 2842 
Q 2491 3084 2119 3084 
Q 1678 3084 1418 2786 
Q 1159 2488 1159 1978 
L 1159 0 
L 581 0 
L 581 3500 
L 1159 3500 
L 1159 2956 
Q 1356 3278 1631 3431 
Q 1906 3584 2284 3584 
Q 2666 3584 2933 3390 
Q 3200 3197 3328 2828 
z
" transform="scale(0.015625)"/>
        <path id="DejaVuSans-61" d="M 2194 1759 
Q 1497 1759 1228 1600 
Q 959 1441 959 1056 
Q 959 750 1161 570 
Q 1363 391 1709 391 
Q 2188 391 2477 730 
Q 2766 1069 2766 1631 
L 2766 1759 
L 2194 1759 
z
M 3341 1997 
L 3341 0 
L 2766 0 
L 2766 531 
Q 2569 213 2275 61 
Q 1981 -91 1556 -91 
Q 1019 -91 701 211 
Q 384 513 384 1019 
Q 384 1609 779 1909 
Q 1175 2209 1959 2209 
L 2766 2209 
L 2766 2266 
Q 2766 2663 2505 2880 
Q 2244 3097 1772 3097 
Q 1472 3097 1187 3025 
Q 903 2953 641 2809 
L 641 3341 
Q 956 3463 1253 3523 
Q 1550 3584 1831 3584 
Q 2591 3584 2966 3190 
Q 3341 2797 3341 1997 
z
" transform="scale(0.015625)"/>
       </defs>
       <use xlink:href="#DejaVuSans-50"/>
       <use xlink:href="#DejaVuSans-65" x="56.677734"/>
       <use xlink:href="#DejaVuSans-72" x="118.201172"/>
       <use xlink:href="#DejaVuSans-6d" x="157.564453"/>
       <use xlink:href="#DejaVuSans-65" x="254.976562"/>
       <use xlink:href="#DejaVuSans-61" x="316.5"/>
       <use xlink:href="#DejaVuSans-62" x="377.779297"/>
       <use xlink:href="#DejaVuSans-69" x="441.255859"/>
       <use xlink:href="#DejaVuSans-6c" x="469.039062"/>
       <use xlink:href="#DejaVuSans-69" x="496.822266"/>
       <use xlink:href="#DejaVuSans-74" x="524.605469"/>
       <use xlink:href="#DejaVuSans-79" x="563.814453"/>
      </g>
     </g>
    </g>
    <g id="xtick_5">
     <g id="line2d_5">
      <g>
       <use xlink:href="#m4fc541b526" x="348.493875" y="310.679219" style="stroke: #000000; stroke-width: 0.8"/>
      </g>
     </g>
     <g id="text_5">
      <!-- LogP -->
      <g transform="translate(336.547 325.277656) scale(0.1 -0.1)">
       <use xlink:href="#DejaVuSans-4c"/>
       <use xlink:href="#DejaVuSans-6f" x="53.962891"/>
       <use xlink:href="#DejaVuSans-67" x="115.144531"/>
       <use xlink:href="#DejaVuSans-50" x="178.621094"/>
      </g>
     </g>
    </g>
    <g id="text_6">
     <!-- ADMET Endpoint -->
     <g transform="translate(157.905 341.995156) scale(0.14 -0.14)">
      <defs>
       <path id="DejaVuSans-41" d="M 2188 4044 
L 1331 1722 
L 3047 1722 
L 2188 4044 
z
M 1831 4666 
L 2547 4666 
L 4325 0 
L 3669 0 
L 3244 1197 
L 1141 1197 
L 716 0 
L 50 0 
L 1831 4666 
z
" transform="scale(0.015625)"/>
       <path id="DejaVuSans-4d" d="M 628 4666 
L 1569 4666 
L 2759 1491 
L 3956 4666 
L 4897 4666 
L 4897 0 
L 4281 0 
L 4281 4097 
L 3078 897 
L 2444 897 
L 1241 4097 
L 1241 0 
L 628 0 
L 628 4666 
z
" transform="scale(0.015625)"/>
       <path id="DejaVuSans-54" d="M -19 4666 
L 3928 4666 
L 3928 4134 
L 2272 4134 
L 2272 0 
L 1638 0 
L 1638 4134 
L -19 4134 
L -19 4666 
z
" transform="scale(0.015625)"/>
       <path id="DejaVuSans-20" transform="scale(0.015625)"/>
       <path id="DejaVuSans-6e" d="M 3513 2113 
L 3513 0 
L 2938 0 
L 2938 2094 
Q 2938 2591 2744 2837 
Q 2550 3084 2163 3084 
Q 1697 3084 1428 2787 
Q 1159 2491 1159 1978 
L 1159 0 
L 581 0 
L 581 3500 
L 1159 3500 
L 1159 2956 
Q 1366 3272 1645 3428 
Q 1925 3584 2291 3584 
Q 2894 3584 3203 3211 
Q 3513 2838 3513 2113 
z
" transform="scale(0.015625)"/>
       <path id="DejaVuSans-64" d="M 2906 2969 
L 2906 4863 
L 3481 4863 
L 3481 0 
L 2906 0 
L 2906 525 
Q 2725 213 2448 61 
Q 2172 -91 1784 -91 
Q 1150 -91 751 415 
Q 353 922 353 1747 
Q 353 2572 751 3078 
Q 1150 3584 1784 3584 
Q 2172 3584 2448 3432 
Q 2725 3281 2906 2969 
z
M 947 1747 
Q 947 1113 1208 752 
Q 1469 391 1925 391 
Q 2381 391 2643 752 
Q 2906 1113 2906 1747 
Q 2906 2381 2643 2742 
Q 2381 3103 1925 3103 
Q 1469 3103 1208 2742 
Q 947 2381 947 1747 
z
" transform="scale(0.015625)"/>
       <path id="DejaVuSans-70" d="M 1159 525 
L 1159 -1331 
L 581 -1331 
L 581 3500 
L 1159 3500 
L 1159 2969 
Q 1341 3281 1617 3432 
Q 1894 3584 2278 3584 
Q 2916 3584 3314 3078 
Q 3713 2572 3713 1747 
Q 3713 922 3314 415 
Q 2916 -91 2278 -91 
Q 1894 -91 1617 61 
Q 1341 213 1159 525 
z
M 3116 1747 
Q 3116 2381 2855 2742 
Q 2594 3103 2138 3103 
Q 1681 3103 1420 2742 
Q 1159 2381 1159 1747 
Q 1159 1113 1420 752 
Q 1681 391 2138 391 
Q 2594 391 2855 752 
Q 3116 1113 3116 1747 
z
" transform="scale(0.015625)"/>
      </defs>
      <use xlink:href="#DejaVuSans-41"/>
      <use xlink:href="#DejaVuSans-44" x="68.408203"/>
      <use xlink:href="#DejaVuSans-4d" x="145.410156"/>
      <use xlink:href="#DejaVuSans-45" x="231.689453"/>
      <use xlink:href="#DejaVuSans-54" x="294.873047"/>
      <use xlink:href="#DejaVuSans-20" x="355.957031"/>
      <use xlink:href="#DejaVuSans-45" x="387.744141"/>
      <use xlink:href="#DejaVuSans-6e" x="450.927734"/>
      <use xlink:href="#DejaVuSans-64" x="514.306641"/>
      <use xlink:href="#DejaVuSans-70" x="577.783203"/>
      <use xlink:href="#DejaVuSans-6f" x="641.259766"/>
      <use xlink:href="#DejaVuSans-69" x="702.441406"/>
      <use xlink:href="#DejaVuSans-6e" x="730.224609"/>
      <use xlink:href="#DejaVuSans-74" x="793.603516"/>
     </g>
    </g>
   </g>
   <g id="matplotlib.axis_2">
    <g id="ytick_1">
     <g id="line2d_6">
      <path d="M 50.836875 310.679219 
L 381.566875 310.679219 
" clip-path="url(#pf50ee07b07)" style="fill: none; stroke-dasharray: 2.96,1.28; stroke-dashoffset: 0; stroke: #c0c0c0; stroke-width: 0.8"/>
     </g>
     <g id="line2d_7">
      <defs>
       <path id="m4af8f54799" d="M 0 0 
L -3.5 0 
" style="stroke: #000000; stroke-width: 0.8"/>
      </defs>
      <g>
       <use xlink:href="#m4af8f54799" x="50.836875" y="310.679219" style="stroke: #000000; stroke-width: 0.8"/>
      </g>
     </g>
     <g id="text_7">
      <!-- 0 -->
      <g transform="translate(37.474375 314.478438) scale(0.1 -0.1)">
       <defs>
        <path id="DejaVuSans-30" d="M 2034 4250 
Q 1547 4250 1301 3770 
Q 1056 3291 1056 2328 
Q 1056 1369 1301 889 
Q 1547 409 2034 409 
Q 2525 409 2770 889 
Q 3016 1369 3016 2328 
Q 3016 3291 2770 3770 
Q 2525 4250 2034 4250 
z
M 2034 4750 
Q 2819 4750 3233 4129 
Q 3647 3509 3647 2328 
Q 3647 1150 3233 529 
Q 2819 -91 2034 -91 
Q 1250 -91 836 529 
Q 422 1150 422 2328 
Q 422 3509 836 4129 
Q 1250 4750 2034 4750 
z
" transform="scale(0.015625)"/>
       </defs>
       <use xlink:href="#DejaVuSans-30"/>
      </g>
     </g>
    </g>
    <g id="ytick_2">
     <g id="line2d_8">
      <path d="M 50.836875 250.743219 
L 381.566875 250.743219 
" clip-path="url(#pf50ee07b07)" style="fill: none; stroke-dasharray: 2.96,1.28; stroke-dashoffset: 0; stroke: #c0c0c0; stroke-width: 0.8"/>
     </g>
     <g id="line2d_9">
      <g>
       <use xlink:href="#m4af8f54799" x="50.836875" y="250.743219" style="stroke: #000000; stroke-width: 0.8"/>
      </g>
     </g>
     <g id="text_8">
      <!-- 20 -->
      <g transform="translate(31.111875 254.542438) scale(0.1 -0.1)">
       <defs>
        <path id="DejaVuSans-32" d="M 1228 531 
L 3431 531 
L 3431 0 
L 469 0 
L 469 531 
Q 828 903 1448 1529 
Q 2069 2156 2228 2338 
Q 2531 2678 2651 2914 
Q 2772 3150 2772 3378 
Q 2772 3750 2511 3984 
Q 2250 4219 1831 4219 
Q 1534 4219 1204 4116 
Q 875 4013 500 3803 
L 500 4441 
Q 881 4594 1212 4672 
Q 1544 4750 1819 4750 
Q 2544 4750 2975 4387 
Q 3406 4025 3406 3419 
Q 3406 3131 3298 2873 
Q 3191 2616 2906 2266 
Q 2828 2175 2409 1742 
Q 1991 1309 1228 531 
z
" transform="scale(0.015625)"/>
       </defs>
       <use xlink:href="#DejaVuSans-32"/>
       <use xlink:href="#DejaVuSans-30" x="63.623047"/>
      </g>
     </g>
    </g>
    <g id="ytick_3">
     <g id="line2d_10">
      <path d="M 50.836875 190.807219 
L 381.566875 190.807219 
" clip-path="url(#pf50ee07b07)" style="fill: none; stroke-dasharray: 2.96,1.28; stroke-dashoffset: 0; stroke: #c0c0c0; stroke-width: 0.8"/>
     </g>
     <g id="line2d_11">
      <g>
       <use xlink:href="#m4af8f54799" x="50.836875" y="190.807219" style="stroke: #000000; stroke-width: 0.8"/>
      </g>
     </g>
     <g id="text_9">
      <!-- 40 -->
      <g transform="translate(31.111875 194.606437) scale(0.1 -0.1)">
       <defs>
        <path id="DejaVuSans-34" d="M 2419 4116 
L 825 1625 
L 2419 1625 
L 2419 4116 
z
M 2253 4666 
L 3047 4666 
L 3047 1625 
L 3713 1625 
L 3713 1100 
L 3047 1100 
L 3047 0 
L 2419 0 
L 2419 1100 
L 313 1100 
L 313 1709 
L 2253 4666 
z
" transform="scale(0.015625)"/>
       </defs>
       <use xlink:href="#DejaVuSans-34"/>
       <use xlink:href="#DejaVuSans-30" x="63.623047"/>
      </g>
     </g>
    </g>
    <g id="ytick_4">
     <g id="line2d_12">
      <path d="M 50.836875 130.871219 
L 381.566875 130.871219 
" clip-path="url(#pf50ee07b07)" style="fill: none; stroke-dasharray: 2.96,1.28; stroke-dashoffset: 0; stroke: #c0c0c0; stroke-width: 0.8"/>
     </g>
     <g id="line2d_13">
      <g>
       <use xlink:href="#m4af8f54799" x="50.836875" y="130.871219" style="stroke: #000000; stroke-width: 0.8"/>
      </g>
     </g>
     <g id="text_10">
      <!-- 60 -->
      <g transform="translate(31.111875 134.670437) scale(0.1 -0.1)">
       <defs>
        <path id="DejaVuSans-36" d="M 2113 2584 
Q 1688 2584 1439 2293 
Q 1191 2003 1191 1497 
Q 1191 994 1439 701 
Q 1688 409 2113 409 
Q 2538 409 2786 701 
Q 3034 994 3034 1497 
Q 3034 2003 2786 2293 
Q 2538 2584 2113 2584 
z
M 3366 4563 
L 3366 3988 
Q 3128 4100 2886 4159 
Q 2644 4219 2406 4219 
Q 1781 4219 1451 3797 
Q 1122 3375 1075 2522 
Q 1259 2794 1537 2939 
Q 1816 3084 2150 3084 
Q 2853 3084 3261 2657 
Q 3669 2231 3669 1497 
Q 3669 778 3244 343 
Q 2819 -91 2113 -91 
Q 1303 -91 875 529 
Q 447 1150 447 2328 
Q 447 3434 972 4092 
Q 1497 4750 2381 4750 
Q 2619 4750 2861 4703 
Q 3103 4656 3366 4563 
z
" transform="scale(0.015625)"/>
       </defs>
       <use xlink:href="#DejaVuSans-36"/>
       <use xlink:href="#DejaVuSans-30" x="63.623047"/>
      </g>
     </g>
    </g>
    <g id="ytick_5">
     <g id="line2d_14">
      <path d="M 50.836875 70.935219 
L 381.566875 70.935219 
" clip-path="url(#pf50ee07b07)" style="fill: none; stroke-dasharray: 2.96,1.28; stroke-dashoffset: 0; stroke: #c0c0c0; stroke-width: 0.8"/>
     </g>
     <g id="line2d_15">
      <g>
       <use xlink:href="#m4af8f54799" x="50.836875" y="70.935219" style="stroke: #000000; stroke-width: 0.8"/>
      </g>
     </g>
     <g id="text_11">
      <!-- 80 -->
      <g transform="translate(31.111875 74.734438) scale(0.1 -0.1)">
       <defs>
        <path id="DejaVuSans-38" d="M 2034 2216 
Q 1584 2216 1326 1975 
Q 1069 1734 1069 1313 
Q 1069 891 1326 650 
Q 1584 409 2034 409 
Q 2484 409 2743 651 
Q 3003 894 3003 1313 
Q 3003 1734 2745 1975 
Q 2488 2216 2034 2216 
z
M 1403 2484 
Q 997 2584 770 2862 
Q 544 3141 544 3541 
Q 544 4100 942 4425 
Q 1341 4750 2034 4750 
Q 2731 4750 3128 4425 
Q 3525 4100 3525 3541 
Q 3525 3141 3298 2862 
Q 3072 2584 2669 2484 
Q 3125 2378 3379 2068 
Q 3634 1759 3634 1313 
Q 3634 634 3220 271 
Q 2806 -91 2034 -91 
Q 1263 -91 848 271 
Q 434 634 434 1313 
Q 434 1759 690 2068 
Q 947 2378 1403 2484 
z
M 1172 3481 
Q 1172 3119 1398 2916 
Q 1625 2713 2034 2713 
Q 2441 2713 2670 2916 
Q 2900 3119 2900 3481 
Q 2900 3844 2670 4047 
Q 2441 4250 2034 4250 
Q 1625 4250 1398 4047 
Q 1172 3844 1172 3481 
z
" transform="scale(0.015625)"/>
       </defs>
       <use xlink:href="#DejaVuSans-38"/>
       <use xlink:href="#DejaVuSans-30" x="63.623047"/>
      </g>
     </g>
    </g>
    <g id="ytick_6">
     <g id="line2d_16">
      <path d="M 50.836875 10.999219 
L 381.566875 10.999219 
" clip-path="url(#pf50ee07b07)" style="fill: none; stroke-dasharray: 2.96,1.28; stroke-dashoffset: 0; stroke: #c0c0c0; stroke-width: 0.8"/>
     </g>
     <g id="line2d_17">
      <g>
       <use xlink:href="#m4af8f54799" x="50.836875" y="10.999219" style="stroke: #000000; stroke-width: 0.8"/>
      </g>
     </g>
     <g id="text_12">
      <!-- 100 -->
      <g transform="translate(24.749375 14.798437) scale(0.1 -0.1)">
       <defs>
        <path id="DejaVuSans-31" d="M 794 531 
L 1825 531 
L 1825 4091 
L 703 3866 
L 703 4441 
L 1819 4666 
L 2450 4666 
L 2450 531 
L 3481 531 
L 3481 0 
L 794 0 
L 794 531 
z
" transform="scale(0.015625)"/>
       </defs>
       <use xlink:href="#DejaVuSans-31"/>
       <use xlink:href="#DejaVuSans-30" x="63.623047"/>
       <use xlink:href="#DejaVuSans-30" x="127.246094"/>
      </g>
     </g>
    </g>
    <g id="text_13">
     <!-- Success Rate (%) -->
     <g transform="translate(17.837812 221.627656) rotate(-90) scale(0.14 -0.14)">
      <defs>
       <path id="DejaVuSans-63" d="M 3122 3366 
L 3122 2828 
Q 2878 2963 2633 3030 
Q 2388 3097 2138 3097 
Q 1578 3097 1268 2742 
Q 959 2388 959 1747 
Q 959 1106 1268 751 
Q 1578 397 2138 397 
Q 2388 397 2633 464 
Q 2878 531 3122 666 
L 3122 134 
Q 2881 22 2623 -34 
Q 2366 -91 2075 -91 
Q 1284 -91 818 406 
Q 353 903 353 1747 
Q 353 2603 823 3093 
Q 1294 3584 2113 3584 
Q 2378 3584 2631 3529 
Q 2884 3475 3122 3366 
z
" transform="scale(0.015625)"/>
       <path id="DejaVuSans-73" d="M 2834 3397 
L 2834 2853 
Q 2591 2978 2328 3040 
Q 2066 3103 1784 3103 
Q 1356 3103 1142 2972 
Q 928 2841 928 2578 
Q 928 2378 1081 2264 
Q 1234 2150 1697 2047 
L 1894 2003 
Q 2506 1872 2764 1633 
Q 3022 1394 3022 966 
Q 3022 478 2636 193 
Q 2250 -91 1575 -91 
Q 1294 -91 989 -36 
Q 684 19 347 128 
L 347 722 
Q 666 556 975 473 
Q 1284 391 1588 391 
Q 1994 391 2212 530 
Q 2431 669 2431 922 
Q 2431 1156 2273 1281 
Q 2116 1406 1581 1522 
L 1381 1569 
Q 847 1681 609 1914 
Q 372 2147 372 2553 
Q 372 3047 722 3315 
Q 1072 3584 1716 3584 
Q 2034 3584 2315 3537 
Q 2597 3491 2834 3397 
z
" transform="scale(0.015625)"/>
       <path id="DejaVuSans-28" d="M 1984 4856 
Q 1566 4138 1362 3434 
Q 1159 2731 1159 2009 
Q 1159 1288 1364 580 
Q 1569 -128 1984 -844 
L 1484 -844 
Q 1016 -109 783 600 
Q 550 1309 550 2009 
Q 550 2706 781 3412 
Q 1013 4119 1484 4856 
L 1984 4856 
z
" transform="scale(0.015625)"/>
       <path id="DejaVuSans-25" d="M 4653 2053 
Q 4381 2053 4226 1822 
Q 4072 1591 4072 1178 
Q 4072 772 4226 539 
Q 4381 306 4653 306 
Q 4919 306 5073 539 
Q 5228 772 5228 1178 
Q 5228 1588 5073 1820 
Q 4919 2053 4653 2053 
z
M 4653 2450 
Q 5147 2450 5437 2106 
Q 5728 1763 5728 1178 
Q 5728 594 5436 251 
Q 5144 -91 4653 -91 
Q 4153 -91 3862 251 
Q 3572 594 3572 1178 
Q 3572 1766 3864 2108 
Q 4156 2450 4653 2450 
z
M 1428 4353 
Q 1159 4353 1004 4120 
Q 850 3888 850 3481 
Q 850 3069 1003 2837 
Q 1156 2606 1428 2606 
Q 1700 2606 1854 2837 
Q 2009 3069 2009 3481 
Q 2009 3884 1853 4118 
Q 1697 4353 1428 4353 
z
M 4250 4750 
L 4750 4750 
L 1831 -91 
L 1331 -91 
L 4250 4750 
z
M 1428 4750 
Q 1922 4750 2215 4408 
Q 2509 4066 2509 3481 
Q 2509 2891 2217 2550 
Q 1925 2209 1428 2209 
Q 931 2209 642 2551 
Q 353 2894 353 3481 
Q 353 4063 643 4406 
Q 934 4750 1428 4750 
z
" transform="scale(0.015625)"/>
       <path id="DejaVuSans-29" d="M 513 4856 
L 1013 4856 
Q 1481 4119 1714 3412 
Q 1947 2706 1947 2009 
Q 1947 1309 1714 600 
Q 1481 -109 1013 -844 
L 513 -844 
Q 928 -128 1133 580 
Q 1338 1288 1338 2009 
Q 1338 2731 1133 3434 
Q 928 4138 513 4856 
z
" transform="scale(0.015625)"/>
      </defs>
      <use xlink:href="#DejaVuSans-53"/>
      <use xlink:href="#DejaVuSans-75" x="63.476562"/>
      <use xlink:href="#DejaVuSans-63" x="126.855469"/>
      <use xlink:href="#DejaVuSans-63" x="181.835938"/>
      <use xlink:href="#DejaVuSans-65" x="236.816406"/>
      <use xlink:href="#DejaVuSans-73" x="298.339844"/>
      <use xlink:href="#DejaVuSans-73" x="350.439453"/>
      <use xlink:href="#DejaVuSans-20" x="402.539062"/>
      <use xlink:href="#DejaVuSans-52" x="434.326172"/>
      <use xlink:href="#DejaVuSans-61" x="501.558594"/>
      <use xlink:href="#DejaVuSans-74" x="562.837891"/>
      <use xlink:href="#DejaVuSans-65" x="602.046875"/>
      <use xlink:href="#DejaVuSans-20" x="663.570312"/>
      <use xlink:href="#DejaVuSans-28" x="695.357422"/>
      <use xlink:href="#DejaVuSans-25" x="734.371094"/>
      <use xlink:href="#DejaVuSans-29" x="829.390625"/>
     </g>
    </g>
   </g>
   <g id="PolyCollection_1">
    <path d="M 85.888287 290.700552 
L 81.931463 290.700552 
L 81.640971 288.682505 
L 81.325882 286.664458 
L 80.9873 284.646411 
L 80.626897 282.628364 
L 80.246882 280.610316 
L 79.849958 278.592269 
L 79.439252 276.574222 
L 79.018236 274.556175 
L 78.590639 272.538128 
L 78.160349 270.520081 
L 77.731318 268.502034 
L 77.307453 266.483986 
L 76.892492 264.465939 
L 76.489872 262.447892 
L 76.102575 260.429845 
L 75.732969 258.411798 
L 75.38264 256.393751 
L 75.052253 254.375704 
L 74.741431 252.357656 
L 74.448701 250.339609 
L 74.171503 248.321562 
L 73.906282 246.303515 
L 73.648667 244.285468 
L 73.393723 242.267421 
L 73.136269 240.249374 
L 72.871238 238.231326 
L 72.594053 236.213279 
L 72.300983 234.195232 
L 71.989467 232.177185 
L 71.658366 230.159138 
L 71.308128 228.141091 
L 70.94085 226.123044 
L 70.560238 224.104997 
L 70.171455 222.086949 
L 69.78088 220.068902 
L 69.395789 218.050855 
L 69.023992 216.032808 
L 68.673462 214.014761 
L 68.351963 211.996714 
L 68.066734 209.978667 
L 67.824222 207.960619 
L 67.629891 205.942572 
L 67.48808 203.924525 
L 67.401937 201.906478 
L 67.373375 199.888431 
L 67.403072 197.870384 
L 67.490485 195.852337 
L 67.633883 193.834289 
L 67.830409 191.816242 
L 68.07617 189.798195 
L 68.366372 187.780148 
L 68.695504 185.762101 
L 69.057567 183.744054 
L 69.446345 181.726007 
L 69.855692 179.707959 
L 70.279827 177.689912 
L 70.713592 175.671865 
L 71.152672 173.653818 
L 71.59374 171.635771 
L 72.034536 169.617724 
L 72.473853 167.599677 
L 72.911455 165.58163 
L 73.347924 163.563582 
L 73.784447 161.545535 
L 74.222566 159.527488 
L 74.663905 157.509441 
L 75.109891 155.491394 
L 75.561495 153.473347 
L 76.019012 151.4553 
L 76.481905 149.437252 
L 76.948716 147.419205 
L 77.417074 145.401158 
L 77.883784 143.383111 
L 78.344997 141.365064 
L 78.796444 139.347017 
L 79.233704 137.32897 
L 79.652494 135.310922 
L 80.048923 133.292875 
L 80.419722 131.274828 
L 80.7624 129.256781 
L 81.07534 127.238734 
L 81.357819 125.220687 
L 81.609966 123.20264 
L 81.832678 121.184592 
L 82.027488 119.166545 
L 82.196434 117.148498 
L 82.341907 115.130451 
L 82.466524 113.112404 
L 82.57301 111.094357 
L 82.664098 109.07631 
L 82.742454 107.058263 
L 82.810614 105.040215 
L 82.870939 103.022168 
L 82.925573 101.004121 
L 82.976415 98.986074 
L 83.025092 96.968027 
L 83.072933 94.94998 
L 83.120956 92.931933 
L 83.169856 90.913885 
L 84.649894 90.913885 
L 84.649894 90.913885 
L 84.698794 92.931933 
L 84.746817 94.94998 
L 84.794658 96.968027 
L 84.843335 98.986074 
L 84.894177 101.004121 
L 84.948811 103.022168 
L 85.009136 105.040215 
L 85.077296 107.058263 
L 85.155652 109.07631 
L 85.24674 111.094357 
L 85.353226 113.112404 
L 85.477843 115.130451 
L 85.623316 117.148498 
L 85.792262 119.166545 
L 85.987072 121.184592 
L 86.209784 123.20264 
L 86.461931 125.220687 
L 86.74441 127.238734 
L 87.05735 129.256781 
L 87.400028 131.274828 
L 87.770827 133.292875 
L 88.167256 135.310922 
L 88.586046 137.32897 
L 89.023306 139.347017 
L 89.474753 141.365064 
L 89.935966 143.383111 
L 90.402676 145.401158 
L 90.871034 147.419205 
L 91.337845 149.437252 
L 91.800738 151.4553 
L 92.258255 153.473347 
L 92.709859 155.491394 
L 93.155845 157.509441 
L 93.597184 159.527488 
L 94.035303 161.545535 
L 94.471826 163.563582 
L 94.908295 165.58163 
L 95.345897 167.599677 
L 95.785214 169.617724 
L 96.22601 171.635771 
L 96.667078 173.653818 
L 97.106158 175.671865 
L 97.539923 177.689912 
L 97.964058 179.707959 
L 98.373405 181.726007 
L 98.762183 183.744054 
L 99.124246 185.762101 
L 99.453378 187.780148 
L 99.74358 189.798195 
L 99.989341 191.816242 
L 100.185867 193.834289 
L 100.329265 195.852337 
L 100.416678 197.870384 
L 100.446375 199.888431 
L 100.417813 201.906478 
L 100.33167 203.924525 
L 100.189859 205.942572 
L 99.995528 207.960619 
L 99.753016 209.978667 
L 99.467787 211.996714 
L 99.146288 214.014761 
L 98.795758 216.032808 
L 98.423961 218.050855 
L 98.03887 220.068902 
L 97.648295 222.086949 
L 97.259512 224.104997 
L 96.8789 226.123044 
L 96.511622 228.141091 
L 96.161384 230.159138 
L 95.830283 232.177185 
L 95.518767 234.195232 
L 95.225697 236.213279 
L 94.948512 238.231326 
L 94.683481 240.249374 
L 94.426027 242.267421 
L 94.171083 244.285468 
L 93.913468 246.303515 
L 93.648247 248.321562 
L 93.371049 250.339609 
L 93.078319 252.357656 
L 92.767497 254.375704 
L 92.43711 256.393751 
L 92.086781 258.411798 
L 91.717175 260.429845 
L 91.329878 262.447892 
L 90.927258 264.465939 
L 90.512297 266.483986 
L 90.088432 268.502034 
L 89.659401 270.520081 
L 89.229111 272.538128 
L 88.801514 274.556175 
L 88.380498 276.574222 
L 87.969792 278.592269 
L 87.572868 280.610316 
L 87.192853 282.628364 
L 86.83245 284.646411 
L 86.493868 286.664458 
L 86.178779 288.682505 
L 85.888287 290.700552 
z
" clip-path="url(#pf50ee07b07)" style="fill: #1b9e77"/>
   </g>
   <g id="PolyCollection_2">
    <path d="M 152.620896 277.381441 
L 147.490854 277.381441 
L 147.265306 275.699735 
L 147.017717 274.018029 
L 146.745095 272.336323 
L 146.444822 270.654617 
L 146.11491 268.972911 
L 145.75427 267.291205 
L 145.362925 265.609499 
L 144.942188 263.927793 
L 144.494741 262.246087 
L 144.024634 260.564381 
L 143.53716 258.882676 
L 143.038635 257.20097 
L 142.536062 255.519264 
L 142.03672 253.837558 
L 141.547699 252.155852 
L 141.075407 250.474146 
L 140.625107 248.79244 
L 140.200521 247.110734 
L 139.803537 245.429028 
L 139.434055 243.747322 
L 139.090005 242.065616 
L 138.767529 240.38391 
L 138.461339 238.702204 
L 138.165214 237.020498 
L 137.872606 235.338792 
L 137.577299 233.657086 
L 137.274069 231.97538 
L 136.959271 230.293674 
L 136.631312 228.611968 
L 136.290937 226.930263 
L 135.941308 225.248557 
L 135.587859 223.566851 
L 135.237921 221.885145 
L 134.900152 220.203439 
L 134.583814 218.521733 
L 134.297968 216.840027 
L 134.050645 215.158321 
L 133.848091 213.476615 
L 133.694151 211.794909 
L 133.589844 210.113203 
L 133.533203 208.431497 
L 133.519375 206.749791 
L 133.54099 205.068085 
L 133.588779 203.386379 
L 133.652369 201.704673 
L 133.721202 200.022967 
L 133.785486 198.341261 
L 133.837089 196.659555 
L 133.870295 194.97785 
L 133.882351 193.296144 
L 133.87375 191.614438 
L 133.848223 189.932732 
L 133.812437 188.251026 
L 133.775434 186.56932 
L 133.747855 184.887614 
L 133.741014 183.205908 
L 133.765924 181.524202 
L 133.832347 179.842496 
L 133.947959 178.16079 
L 134.117707 176.479084 
L 134.343402 174.797378 
L 134.623591 173.115672 
L 134.953706 171.433966 
L 135.32647 169.75226 
L 135.732523 168.070554 
L 136.161196 166.388848 
L 136.601368 164.707142 
L 137.042323 163.025436 
L 137.474536 161.343731 
L 137.890313 159.662025 
L 138.284245 157.980319 
L 138.653447 156.298613 
L 138.997555 154.616907 
L 139.318515 152.935201 
L 139.620186 151.253495 
L 139.907804 149.571789 
L 140.18736 147.890083 
L 140.464961 146.208377 
L 140.746227 144.526671 
L 141.03578 142.844965 
L 141.336858 141.163259 
L 141.651087 139.481553 
L 141.97842 137.799847 
L 142.317231 136.118141 
L 142.664545 134.436435 
L 143.016384 132.754729 
L 143.368168 131.073023 
L 143.715154 129.391318 
L 144.052846 127.709612 
L 144.377366 126.027906 
L 144.685729 124.3462 
L 144.976035 122.664494 
L 145.247538 120.982788 
L 145.500613 119.301082 
L 145.736635 117.619376 
L 145.957777 115.93767 
L 146.166756 114.255964 
L 146.366561 112.574258 
L 146.560173 110.892552 
L 153.551577 110.892552 
L 153.551577 110.892552 
L 153.745189 112.574258 
L 153.944994 114.255964 
L 154.153973 115.93767 
L 154.375115 117.619376 
L 154.611137 119.301082 
L 154.864212 120.982788 
L 155.135715 122.664494 
L 155.426021 124.3462 
L 155.734384 126.027906 
L 156.058904 127.709612 
L 156.396596 129.391318 
L 156.743582 131.073023 
L 157.095366 132.754729 
L 157.447205 134.436435 
L 157.794519 136.118141 
L 158.13333 137.799847 
L 158.460663 139.481553 
L 158.774892 141.163259 
L 159.07597 142.844965 
L 159.365523 144.526671 
L 159.646789 146.208377 
L 159.92439 147.890083 
L 160.203946 149.571789 
L 160.491564 151.253495 
L 160.793235 152.935201 
L 161.114195 154.616907 
L 161.458303 156.298613 
L 161.827505 157.980319 
L 162.221437 159.662025 
L 162.637214 161.343731 
L 163.069427 163.025436 
L 163.510382 164.707142 
L 163.950554 166.388848 
L 164.379227 168.070554 
L 164.78528 169.75226 
L 165.158044 171.433966 
L 165.488159 173.115672 
L 165.768348 174.797378 
L 165.994043 176.479084 
L 166.163791 178.16079 
L 166.279403 179.842496 
L 166.345826 181.524202 
L 166.370736 183.205908 
L 166.363895 184.887614 
L 166.336316 186.56932 
L 166.299313 188.251026 
L 166.263527 189.932732 
L 166.238 191.614438 
L 166.229399 193.296144 
L 166.241455 194.97785 
L 166.274661 196.659555 
L 166.326264 198.341261 
L 166.390548 200.022967 
L 166.459381 201.704673 
L 166.522971 203.386379 
L 166.57076 205.068085 
L 166.592375 206.749791 
L 166.578547 208.431497 
L 166.521906 210.113203 
L 166.417599 211.794909 
L 166.263659 213.476615 
L 166.061105 215.158321 
L 165.813782 216.840027 
L 165.527936 218.521733 
L 165.211598 220.203439 
L 164.873829 221.885145 
L 164.523891 223.566851 
L 164.170442 225.248557 
L 163.820813 226.930263 
L 163.480438 228.611968 
L 163.152479 230.293674 
L 162.837681 231.97538 
L 162.534451 233.657086 
L 162.239144 235.338792 
L 161.946536 237.020498 
L 161.650411 238.702204 
L 161.344221 240.38391 
L 161.021745 242.065616 
L 160.677695 243.747322 
L 160.308213 245.429028 
L 159.911229 247.110734 
L 159.486643 248.79244 
L 159.036343 250.474146 
L 158.564051 252.155852 
L 158.07503 253.837558 
L 157.575688 255.519264 
L 157.073115 257.20097 
L 156.57459 258.882676 
L 156.087116 260.564381 
L 155.617009 262.246087 
L 155.169562 263.927793 
L 154.748825 265.609499 
L 154.35748 267.291205 
L 153.99684 268.972911 
L 153.666928 270.654617 
L 153.366655 272.336323 
L 153.094033 274.018029 
L 152.846444 275.699735 
L 152.620896 277.381441 
z
" clip-path="url(#pf50ee07b07)" style="fill: #d95f02"/>
   </g>
   <g id="PolyCollection_3">
    <path d="M 217.652779 264.574603 
L 214.750971 264.574603 
L 214.582498 263.177494 
L 214.402656 261.780384 
L 214.211411 260.383275 
L 214.00885 258.986165 
L 213.795221 257.589056 
L 213.570961 256.191946 
L 213.336712 254.794836 
L 213.093332 253.397727 
L 212.84188 252.000617 
L 212.583579 250.603508 
L 212.319764 249.206398 
L 212.0518 247.809289 
L 211.780986 246.412179 
L 211.508446 245.01507 
L 211.235016 243.61796 
L 210.961124 242.22085 
L 210.686695 240.823741 
L 210.411064 239.426631 
L 210.132927 238.029522 
L 209.850324 236.632412 
L 209.560673 235.235303 
L 209.260848 233.838193 
L 208.947317 232.441084 
L 208.616326 231.043974 
L 208.264134 229.646864 
L 207.887289 228.249755 
L 207.482927 226.852645 
L 207.049081 225.455536 
L 206.584977 224.058426 
L 206.091293 222.661317 
L 205.570354 221.264207 
L 205.026245 219.867098 
L 204.464814 218.469988 
L 203.893569 217.072878 
L 203.321442 215.675769 
L 202.758454 214.278659 
L 202.21528 212.88155 
L 201.702745 211.48444 
L 201.231292 210.087331 
L 200.810454 208.690221 
L 200.44837 207.293112 
L 200.151381 205.896002 
L 199.923736 204.498892 
L 199.767424 203.101783 
L 199.682138 201.704673 
L 199.665375 200.307564 
L 199.712655 198.910454 
L 199.817831 197.513345 
L 199.97348 196.116235 
L 200.171328 194.719126 
L 200.402692 193.322016 
L 200.658911 191.924906 
L 200.931735 190.527797 
L 201.213662 189.130687 
L 201.498204 187.733578 
L 201.780075 186.336468 
L 202.055301 184.939359 
L 202.321239 183.542249 
L 202.576533 182.145139 
L 202.820997 180.74803 
L 203.055448 179.35092 
L 203.281495 177.953811 
L 203.501318 176.556701 
L 203.717434 175.159592 
L 203.932486 173.762482 
L 204.149057 172.365373 
L 204.369521 170.968263 
L 204.595946 169.571153 
L 204.830046 168.174044 
L 205.073171 166.776934 
L 205.326336 165.379825 
L 205.59028 163.982715 
L 205.865527 162.585606 
L 206.152448 161.188496 
L 206.451311 159.791387 
L 206.762301 158.394277 
L 207.085522 156.997167 
L 207.420958 155.600058 
L 207.768424 154.202948 
L 208.127495 152.805839 
L 208.497435 151.408729 
L 208.877135 150.01162 
L 209.265074 148.61451 
L 209.659304 147.217401 
L 210.057478 145.820291 
L 210.456905 144.423181 
L 210.854649 143.026072 
L 211.247641 141.628962 
L 211.632815 140.231853 
L 212.007241 138.834743 
L 212.36825 137.437634 
L 212.713545 136.040524 
L 213.041268 134.643415 
L 213.350052 133.246305 
L 213.639024 131.849195 
L 213.907787 130.452086 
L 214.156367 129.054976 
L 214.385146 127.657867 
L 214.594783 126.260757 
L 217.808967 126.260757 
L 217.808967 126.260757 
L 218.018604 127.657867 
L 218.247383 129.054976 
L 218.495963 130.452086 
L 218.764726 131.849195 
L 219.053698 133.246305 
L 219.362482 134.643415 
L 219.690205 136.040524 
L 220.0355 137.437634 
L 220.396509 138.834743 
L 220.770935 140.231853 
L 221.156109 141.628962 
L 221.549101 143.026072 
L 221.946845 144.423181 
L 222.346272 145.820291 
L 222.744446 147.217401 
L 223.138676 148.61451 
L 223.526615 150.01162 
L 223.906315 151.408729 
L 224.276255 152.805839 
L 224.635326 154.202948 
L 224.982792 155.600058 
L 225.318228 156.997167 
L 225.641449 158.394277 
L 225.952439 159.791387 
L 226.251302 161.188496 
L 226.538223 162.585606 
L 226.81347 163.982715 
L 227.077414 165.379825 
L 227.330579 166.776934 
L 227.573704 168.174044 
L 227.807804 169.571153 
L 228.034229 170.968263 
L 228.254693 172.365373 
L 228.471264 173.762482 
L 228.686316 175.159592 
L 228.902432 176.556701 
L 229.122255 177.953811 
L 229.348302 179.35092 
L 229.582753 180.74803 
L 229.827217 182.145139 
L 230.082511 183.542249 
L 230.348449 184.939359 
L 230.623675 186.336468 
L 230.905546 187.733578 
L 231.190088 189.130687 
L 231.472015 190.527797 
L 231.744839 191.924906 
L 232.001058 193.322016 
L 232.232422 194.719126 
L 232.43027 196.116235 
L 232.585919 197.513345 
L 232.691095 198.910454 
L 232.738375 200.307564 
L 232.721612 201.704673 
L 232.636326 203.101783 
L 232.480014 204.498892 
L 232.252369 205.896002 
L 231.95538 207.293112 
L 231.593296 208.690221 
L 231.172458 210.087331 
L 230.701005 211.48444 
L 230.18847 212.88155 
L 229.645296 214.278659 
L 229.082308 215.675769 
L 228.510181 217.072878 
L 227.938936 218.469988 
L 227.377505 219.867098 
L 226.833396 221.264207 
L 226.312457 222.661317 
L 225.818773 224.058426 
L 225.354669 225.455536 
L 224.920823 226.852645 
L 224.516461 228.249755 
L 224.139616 229.646864 
L 223.787424 231.043974 
L 223.456433 232.441084 
L 223.142902 233.838193 
L 222.843077 235.235303 
L 222.553426 236.632412 
L 222.270823 238.029522 
L 221.992686 239.426631 
L 221.717055 240.823741 
L 221.442626 242.22085 
L 221.168734 243.61796 
L 220.895304 245.01507 
L 220.622764 246.412179 
L 220.35195 247.809289 
L 220.083986 249.206398 
L 219.820171 250.603508 
L 219.56187 252.000617 
L 219.310418 253.397727 
L 219.067038 254.794836 
L 218.832789 256.191946 
L 218.608529 257.589056 
L 218.3949 258.986165 
L 218.192339 260.383275 
L 218.001094 261.780384 
L 217.821252 263.177494 
L 217.652779 264.574603 
z
" clip-path="url(#pf50ee07b07)" style="fill: #7570b3"/>
   </g>
   <g id="PolyCollection_4">
    <path d="M 284.198497 285.705885 
L 280.497253 285.705885 
L 280.220305 283.183326 
L 279.921866 280.660768 
L 279.603913 278.138209 
L 279.268908 275.61565 
L 278.919602 273.093091 
L 278.558789 270.570532 
L 278.189026 268.047973 
L 277.812356 265.525414 
L 277.430075 263.002855 
L 277.042565 260.480296 
L 276.649225 257.957737 
L 276.248516 255.435178 
L 275.838111 252.912619 
L 275.415154 250.390061 
L 274.976601 247.867502 
L 274.51962 245.344943 
L 274.042025 242.822384 
L 273.542712 240.299825 
L 273.02205 237.777266 
L 272.482202 235.254707 
L 271.927327 232.732148 
L 271.363612 230.209589 
L 270.799118 227.68703 
L 270.2434 225.164471 
L 269.706927 222.641912 
L 269.200322 220.119353 
L 268.733496 217.596795 
L 268.314767 215.074236 
L 267.950065 212.551677 
L 267.642335 210.029118 
L 267.391214 207.506559 
L 267.193032 204.984 
L 267.041153 202.461441 
L 266.926607 199.938882 
L 266.838963 197.416323 
L 266.767323 194.893764 
L 266.70136 192.371205 
L 266.632283 189.848646 
L 266.55365 187.326087 
L 266.461973 184.803529 
L 266.357056 182.28097 
L 266.242055 179.758411 
L 266.123251 177.235852 
L 266.009555 174.713293 
L 265.911785 172.190734 
L 265.841771 169.668175 
L 265.811375 167.145616 
L 265.831519 164.623057 
L 265.911321 162.100498 
L 266.057439 159.577939 
L 266.273667 157.05538 
L 266.560835 154.532821 
L 266.916992 152.010263 
L 267.337807 149.487704 
L 267.817126 146.965145 
L 268.347578 144.442586 
L 268.921143 141.920027 
L 269.529627 139.397468 
L 270.164996 136.874909 
L 270.819583 134.35235 
L 271.486178 131.829791 
L 272.158057 129.307232 
L 272.828974 126.784673 
L 273.493163 124.262114 
L 274.145361 121.739555 
L 274.780839 119.216997 
L 275.395453 116.694438 
L 275.985674 114.171879 
L 276.54859 111.64932 
L 277.081885 109.126761 
L 277.583774 106.604202 
L 278.052934 104.081643 
L 278.488426 101.559084 
L 278.889635 99.036525 
L 279.256242 96.513966 
L 279.588219 93.991407 
L 279.885853 91.468848 
L 280.149786 88.946289 
L 280.381049 86.423731 
L 280.581086 83.901172 
L 280.751752 81.378613 
L 280.895276 78.856054 
L 281.014204 76.333495 
L 281.111312 73.810936 
L 281.189507 71.288377 
L 281.251726 68.765818 
L 281.300847 66.243259 
L 281.339607 63.7207 
L 281.370548 61.198141 
L 281.395979 58.675582 
L 281.417964 56.153023 
L 281.438318 53.630465 
L 281.458612 51.107906 
L 281.480184 48.585347 
L 281.504141 46.062788 
L 281.531356 43.540229 
L 281.562458 41.01767 
L 281.597819 38.495111 
L 281.637538 35.972552 
L 283.058212 35.972552 
L 283.058212 35.972552 
L 283.097931 38.495111 
L 283.133292 41.01767 
L 283.164394 43.540229 
L 283.191609 46.062788 
L 283.215566 48.585347 
L 283.237138 51.107906 
L 283.257432 53.630465 
L 283.277786 56.153023 
L 283.299771 58.675582 
L 283.325202 61.198141 
L 283.356143 63.7207 
L 283.394903 66.243259 
L 283.444024 68.765818 
L 283.506243 71.288377 
L 283.584438 73.810936 
L 283.681546 76.333495 
L 283.800474 78.856054 
L 283.943998 81.378613 
L 284.114664 83.901172 
L 284.314701 86.423731 
L 284.545964 88.946289 
L 284.809897 91.468848 
L 285.107531 93.991407 
L 285.439508 96.513966 
L 285.806115 99.036525 
L 286.207324 101.559084 
L 286.642816 104.081643 
L 287.111976 106.604202 
L 287.613865 109.126761 
L 288.14716 111.64932 
L 288.710076 114.171879 
L 289.300297 116.694438 
L 289.914911 119.216997 
L 290.550389 121.739555 
L 291.202587 124.262114 
L 291.866776 126.784673 
L 292.537693 129.307232 
L 293.209572 131.829791 
L 293.876167 134.35235 
L 294.530754 136.874909 
L 295.166123 139.397468 
L 295.774607 141.920027 
L 296.348172 144.442586 
L 296.878624 146.965145 
L 297.357943 149.487704 
L 297.778758 152.010263 
L 298.134915 154.532821 
L 298.422083 157.05538 
L 298.638311 159.577939 
L 298.784429 162.100498 
L 298.864231 164.623057 
L 298.884375 167.145616 
L 298.853979 169.668175 
L 298.783965 172.190734 
L 298.686195 174.713293 
L 298.572499 177.235852 
L 298.453695 179.758411 
L 298.338694 182.28097 
L 298.233777 184.803529 
L 298.1421 187.326087 
L 298.063467 189.848646 
L 297.99439 192.371205 
L 297.928427 194.893764 
L 297.856787 197.416323 
L 297.769143 199.938882 
L 297.654597 202.461441 
L 297.502718 204.984 
L 297.304536 207.506559 
L 297.053415 210.029118 
L 296.745685 212.551677 
L 296.380983 215.074236 
L 295.962254 217.596795 
L 295.495428 220.119353 
L 294.988823 222.641912 
L 294.45235 225.164471 
L 293.896632 227.68703 
L 293.332138 230.209589 
L 292.768423 232.732148 
L 292.213548 235.254707 
L 291.6737 237.777266 
L 291.153038 240.299825 
L 290.653725 242.822384 
L 290.17613 245.344943 
L 289.719149 247.867502 
L 289.280596 250.390061 
L 288.857639 252.912619 
L 288.447234 255.435178 
L 288.046525 257.957737 
L 287.653185 260.480296 
L 287.265675 263.002855 
L 286.883394 265.525414 
L 286.506724 268.047973 
L 286.136961 270.570532 
L 285.776148 273.093091 
L 285.426842 275.61565 
L 285.091837 278.138209 
L 284.773884 280.660768 
L 284.475445 283.183326 
L 284.198497 285.705885 
z
" clip-path="url(#pf50ee07b07)" style="fill: #e7298a"/>
   </g>
   <g id="PolyCollection_5">
    <path d="M 351.064029 285.705885 
L 345.923721 285.705885 
L 345.623396 282.931071 
L 345.319254 280.156256 
L 345.016829 277.381441 
L 344.721879 274.606626 
L 344.440078 271.831811 
L 344.176673 269.056997 
L 343.936141 266.282182 
L 343.721871 263.507367 
L 343.535875 260.732552 
L 343.378585 257.957737 
L 343.248713 255.182922 
L 343.143214 252.408108 
L 343.057341 249.633293 
L 342.984784 246.858478 
L 342.917904 244.083663 
L 342.848024 241.308848 
L 342.765789 238.534034 
L 342.661561 235.759219 
L 342.52585 232.984404 
L 342.349761 230.209589 
L 342.125431 227.434774 
L 341.846468 224.659959 
L 341.508342 221.885145 
L 341.108726 219.11033 
L 340.647758 216.335515 
L 340.128195 213.5607 
L 339.555443 210.785885 
L 338.937453 208.011071 
L 338.284449 205.236256 
L 337.608532 202.461441 
L 336.923136 199.686626 
L 336.2424 196.911811 
L 335.580471 194.136997 
L 334.950812 191.362182 
L 334.365538 188.587367 
L 333.834855 185.812552 
L 333.36663 183.037737 
L 332.966112 180.262922 
L 332.635839 177.488108 
L 332.375702 174.713293 
L 332.183166 171.938478 
L 332.053625 169.163663 
L 331.980827 166.388848 
L 331.957375 163.614034 
L 331.975224 160.839219 
L 332.026177 158.064404 
L 332.102337 155.289589 
L 332.196498 152.514774 
L 332.302468 149.739959 
L 332.415321 146.965145 
L 332.531552 144.19033 
L 332.649175 141.415515 
L 332.76772 138.6407 
L 332.888164 135.865885 
L 333.012787 133.091071 
L 333.14496 130.316256 
L 333.288873 127.541441 
L 333.449224 124.766626 
L 333.63087 121.991811 
L 333.838487 119.216997 
L 334.076224 116.442182 
L 334.347413 113.667367 
L 334.654328 110.892552 
L 334.998023 108.117737 
L 335.378254 105.342922 
L 335.793496 102.568108 
L 336.241036 99.793293 
L 336.717146 97.018478 
L 337.217302 94.243663 
L 337.736443 91.468848 
L 338.269225 88.694034 
L 338.810278 85.919219 
L 339.354416 83.144404 
L 339.89681 80.369589 
L 340.433111 77.594774 
L 340.959514 74.819959 
L 341.472785 72.045145 
L 341.970236 69.27033 
L 342.449685 66.495515 
L 342.909388 63.7207 
L 343.347971 60.945885 
L 343.76437 58.171071 
L 344.157778 55.396256 
L 344.527609 52.621441 
L 344.873484 49.846626 
L 345.195231 47.071811 
L 345.492896 44.296997 
L 345.766765 41.522182 
L 346.017384 38.747367 
L 346.245567 35.972552 
L 346.452403 33.197737 
L 346.639237 30.422922 
L 346.807639 27.648108 
L 346.959348 24.873293 
L 347.096211 22.098478 
L 347.220109 19.323663 
L 347.332875 16.548848 
L 347.436221 13.774034 
L 347.531677 10.999219 
L 349.456073 10.999219 
L 349.456073 10.999219 
L 349.551529 13.774034 
L 349.654875 16.548848 
L 349.767641 19.323663 
L 349.891539 22.098478 
L 350.028402 24.873293 
L 350.180111 27.648108 
L 350.348513 30.422922 
L 350.535347 33.197737 
L 350.742183 35.972552 
L 350.970366 38.747367 
L 351.220985 41.522182 
L 351.494854 44.296997 
L 351.792519 47.071811 
L 352.114266 49.846626 
L 352.460141 52.621441 
L 352.829972 55.396256 
L 353.22338 58.171071 
L 353.639779 60.945885 
L 354.078362 63.7207 
L 354.538065 66.495515 
L 355.017514 69.27033 
L 355.514965 72.045145 
L 356.028236 74.819959 
L 356.554639 77.594774 
L 357.09094 80.369589 
L 357.633334 83.144404 
L 358.177472 85.919219 
L 358.718525 88.694034 
L 359.251307 91.468848 
L 359.770448 94.243663 
L 360.270604 97.018478 
L 360.746714 99.793293 
L 361.194254 102.568108 
L 361.609496 105.342922 
L 361.989727 108.117737 
L 362.333422 110.892552 
L 362.640337 113.667367 
L 362.911526 116.442182 
L 363.149263 119.216997 
L 363.35688 121.991811 
L 363.538526 124.766626 
L 363.698877 127.541441 
L 363.84279 130.316256 
L 363.974963 133.091071 
L 364.099586 135.865885 
L 364.22003 138.6407 
L 364.338575 141.415515 
L 364.456198 144.19033 
L 364.572429 146.965145 
L 364.685282 149.739959 
L 364.791252 152.514774 
L 364.885413 155.289589 
L 364.961573 158.064404 
L 365.012526 160.839219 
L 365.030375 163.614034 
L 365.006923 166.388848 
L 364.934125 169.163663 
L 364.804584 171.938478 
L 364.612048 174.713293 
L 364.351911 177.488108 
L 364.021638 180.262922 
L 363.62112 183.037737 
L 363.152895 185.812552 
L 362.622212 188.587367 
L 362.036938 191.362182 
L 361.407279 194.136997 
L 360.74535 196.911811 
L 360.064614 199.686626 
L 359.379218 202.461441 
L 358.703301 205.236256 
L 358.050297 208.011071 
L 357.432307 210.785885 
L 356.859555 213.5607 
L 356.339992 216.335515 
L 355.879024 219.11033 
L 355.479408 221.885145 
L 355.141282 224.659959 
L 354.862319 227.434774 
L 354.637989 230.209589 
L 354.4619 232.984404 
L 354.326189 235.759219 
L 354.221961 238.534034 
L 354.139726 241.308848 
L 354.069846 244.083663 
L 354.002966 246.858478 
L 353.930409 249.633293 
L 353.844536 252.408108 
L 353.739037 255.182922 
L 353.609165 257.957737 
L 353.451875 260.732552 
L 353.265879 263.507367 
L 353.051609 266.282182 
L 352.811077 269.056997 
L 352.547672 271.831811 
L 352.265871 274.606626 
L 351.970921 277.381441 
L 351.668496 280.156256 
L 351.364354 282.931071 
L 351.064029 285.705885 
z
" clip-path="url(#pf50ee07b07)" style="fill: #66a61e"/>
   </g>
   <g id="patch_3">
    <path d="M 77.295275 230.764552 
L 90.524475 230.764552 
L 90.524475 220.650195 
L 87.217175 210.785885 
L 90.524475 200.921575 
L 90.524475 170.828552 
L 77.295275 170.828552 
L 77.295275 200.921575 
L 80.602575 210.785885 
L 77.295275 220.650195 
L 77.295275 230.764552 
z
" clip-path="url(#pf50ee07b07)" style="fill: #a9a9a9; stroke: #000000; stroke-linejoin: miter"/>
   </g>
   <g id="line2d_18">
    <path d="M 83.909875 230.764552 
L 83.909875 250.743219 
" clip-path="url(#pf50ee07b07)" style="fill: none; stroke: #000000; stroke-linecap: square"/>
   </g>
   <g id="line2d_19">
    <path d="M 83.909875 170.828552 
L 83.909875 150.849885 
" clip-path="url(#pf50ee07b07)" style="fill: none; stroke: #000000; stroke-linecap: square"/>
   </g>
   <g id="line2d_20">
    <path d="M 80.602575 250.743219 
L 87.217175 250.743219 
" clip-path="url(#pf50ee07b07)" style="fill: none; stroke: #000000; stroke-linecap: square"/>
   </g>
   <g id="line2d_21">
    <path d="M 80.602575 150.849885 
L 87.217175 150.849885 
" clip-path="url(#pf50ee07b07)" style="fill: none; stroke: #000000; stroke-linecap: square"/>
   </g>
   <g id="line2d_22">
    <defs>
     <path id="m9e8a0d35a1" d="M 0 2 
C 0.530406 2 1.03916 1.789267 1.414214 1.414214 
C 1.789267 1.03916 2 0.530406 2 0 
C 2 -0.530406 1.789267 -1.03916 1.414214 -1.414214 
C 1.03916 -1.789267 0.530406 -2 0 -2 
C -0.530406 -2 -1.03916 -1.789267 -1.414214 -1.414214 
C -1.789267 -1.03916 -2 -0.530406 -2 0 
C -2 0.530406 -1.789267 1.03916 -1.414214 1.414214 
C -1.03916 1.789267 -0.530406 2 0 2 
z
" style="stroke: #000000"/>
    </defs>
    <g clip-path="url(#pf50ee07b07)">
     <use xlink:href="#m9e8a0d35a1" x="83.909875" y="270.721885" style="fill-opacity: 0; stroke: #000000"/>
     <use xlink:href="#m9e8a0d35a1" x="83.909875" y="290.700552" style="fill-opacity: 0; stroke: #000000"/>
     <use xlink:href="#m9e8a0d35a1" x="83.909875" y="270.721885" style="fill-opacity: 0; stroke: #000000"/>
     <use xlink:href="#m9e8a0d35a1" x="83.909875" y="270.721885" style="fill-opacity: 0; stroke: #000000"/>
     <use xlink:href="#m9e8a0d35a1" x="83.909875" y="267.86779" style="fill-opacity: 0; stroke: #000000"/>
     <use xlink:href="#m9e8a0d35a1" x="83.909875" y="270.721885" style="fill-opacity: 0; stroke: #000000"/>
     <use xlink:href="#m9e8a0d35a1" x="83.909875" y="270.721885" style="fill-opacity: 0; stroke: #000000"/>
     <use xlink:href="#m9e8a0d35a1" x="83.909875" y="90.913885" style="fill-opacity: 0; stroke: #000000"/>
     <use xlink:href="#m9e8a0d35a1" x="83.909875" y="130.871219" style="fill-opacity: 0; stroke: #000000"/>
     <use xlink:href="#m9e8a0d35a1" x="83.909875" y="130.871219" style="fill-opacity: 0; stroke: #000000"/>
     <use xlink:href="#m9e8a0d35a1" x="83.909875" y="110.892552" style="fill-opacity: 0; stroke: #000000"/>
    </g>
   </g>
   <g id="patch_4">
    <path d="M 143.441275 210.785885 
L 156.670475 210.785885 
L 156.670475 216.266058 
L 153.363175 210.785885 
L 156.670475 205.305713 
L 156.670475 177.488108 
L 143.441275 177.488108 
L 143.441275 205.305713 
L 146.748575 210.785885 
L 143.441275 216.266058 
L 143.441275 210.785885 
z
" clip-path="url(#pf50ee07b07)" style="fill: #a9a9a9; stroke: #000000; stroke-linejoin: miter"/>
   </g>
   <g id="line2d_23">
    <path d="M 150.055875 210.785885 
L 150.055875 210.785885 
" clip-path="url(#pf50ee07b07)" style="fill: none; stroke: #000000; stroke-linecap: square"/>
   </g>
   <g id="line2d_24">
    <path d="M 150.055875 177.488108 
L 150.055875 177.488108 
" clip-path="url(#pf50ee07b07)" style="fill: none; stroke: #000000; stroke-linecap: square"/>
   </g>
   <g id="line2d_25">
    <path d="M 146.748575 210.785885 
L 153.363175 210.785885 
" clip-path="url(#pf50ee07b07)" style="fill: none; stroke: #000000; stroke-linecap: square"/>
   </g>
   <g id="line2d_26">
    <path d="M 146.748575 177.488108 
L 153.363175 177.488108 
" clip-path="url(#pf50ee07b07)" style="fill: none; stroke: #000000; stroke-linecap: square"/>
   </g>
   <g id="line2d_27">
    <g clip-path="url(#pf50ee07b07)">
     <use xlink:href="#m9e8a0d35a1" x="150.055875" y="244.083663" style="fill-opacity: 0; stroke: #000000"/>
     <use xlink:href="#m9e8a0d35a1" x="150.055875" y="244.083663" style="fill-opacity: 0; stroke: #000000"/>
     <use xlink:href="#m9e8a0d35a1" x="150.055875" y="235.759219" style="fill-opacity: 0; stroke: #000000"/>
     <use xlink:href="#m9e8a0d35a1" x="150.055875" y="244.083663" style="fill-opacity: 0; stroke: #000000"/>
     <use xlink:href="#m9e8a0d35a1" x="150.055875" y="244.083663" style="fill-opacity: 0; stroke: #000000"/>
     <use xlink:href="#m9e8a0d35a1" x="150.055875" y="244.083663" style="fill-opacity: 0; stroke: #000000"/>
     <use xlink:href="#m9e8a0d35a1" x="150.055875" y="244.083663" style="fill-opacity: 0; stroke: #000000"/>
     <use xlink:href="#m9e8a0d35a1" x="150.055875" y="277.381441" style="fill-opacity: 0; stroke: #000000"/>
     <use xlink:href="#m9e8a0d35a1" x="150.055875" y="244.083663" style="fill-opacity: 0; stroke: #000000"/>
     <use xlink:href="#m9e8a0d35a1" x="150.055875" y="244.083663" style="fill-opacity: 0; stroke: #000000"/>
     <use xlink:href="#m9e8a0d35a1" x="150.055875" y="277.381441" style="fill-opacity: 0; stroke: #000000"/>
     <use xlink:href="#m9e8a0d35a1" x="150.055875" y="244.083663" style="fill-opacity: 0; stroke: #000000"/>
     <use xlink:href="#m9e8a0d35a1" x="150.055875" y="235.759219" style="fill-opacity: 0; stroke: #000000"/>
     <use xlink:href="#m9e8a0d35a1" x="150.055875" y="244.083663" style="fill-opacity: 0; stroke: #000000"/>
     <use xlink:href="#m9e8a0d35a1" x="150.055875" y="244.083663" style="fill-opacity: 0; stroke: #000000"/>
     <use xlink:href="#m9e8a0d35a1" x="150.055875" y="277.381441" style="fill-opacity: 0; stroke: #000000"/>
     <use xlink:href="#m9e8a0d35a1" x="150.055875" y="244.083663" style="fill-opacity: 0; stroke: #000000"/>
     <use xlink:href="#m9e8a0d35a1" x="150.055875" y="244.083663" style="fill-opacity: 0; stroke: #000000"/>
     <use xlink:href="#m9e8a0d35a1" x="150.055875" y="244.083663" style="fill-opacity: 0; stroke: #000000"/>
     <use xlink:href="#m9e8a0d35a1" x="150.055875" y="244.083663" style="fill-opacity: 0; stroke: #000000"/>
     <use xlink:href="#m9e8a0d35a1" x="150.055875" y="144.19033" style="fill-opacity: 0; stroke: #000000"/>
     <use xlink:href="#m9e8a0d35a1" x="150.055875" y="110.892552" style="fill-opacity: 0; stroke: #000000"/>
     <use xlink:href="#m9e8a0d35a1" x="150.055875" y="144.19033" style="fill-opacity: 0; stroke: #000000"/>
     <use xlink:href="#m9e8a0d35a1" x="150.055875" y="144.19033" style="fill-opacity: 0; stroke: #000000"/>
     <use xlink:href="#m9e8a0d35a1" x="150.055875" y="110.892552" style="fill-opacity: 0; stroke: #000000"/>
     <use xlink:href="#m9e8a0d35a1" x="150.055875" y="144.19033" style="fill-opacity: 0; stroke: #000000"/>
     <use xlink:href="#m9e8a0d35a1" x="150.055875" y="144.19033" style="fill-opacity: 0; stroke: #000000"/>
     <use xlink:href="#m9e8a0d35a1" x="150.055875" y="144.19033" style="fill-opacity: 0; stroke: #000000"/>
     <use xlink:href="#m9e8a0d35a1" x="150.055875" y="144.19033" style="fill-opacity: 0; stroke: #000000"/>
     <use xlink:href="#m9e8a0d35a1" x="150.055875" y="144.19033" style="fill-opacity: 0; stroke: #000000"/>
     <use xlink:href="#m9e8a0d35a1" x="150.055875" y="144.19033" style="fill-opacity: 0; stroke: #000000"/>
     <use xlink:href="#m9e8a0d35a1" x="150.055875" y="110.892552" style="fill-opacity: 0; stroke: #000000"/>
     <use xlink:href="#m9e8a0d35a1" x="150.055875" y="110.892552" style="fill-opacity: 0; stroke: #000000"/>
     <use xlink:href="#m9e8a0d35a1" x="150.055875" y="144.19033" style="fill-opacity: 0; stroke: #000000"/>
     <use xlink:href="#m9e8a0d35a1" x="150.055875" y="110.892552" style="fill-opacity: 0; stroke: #000000"/>
     <use xlink:href="#m9e8a0d35a1" x="150.055875" y="144.19033" style="fill-opacity: 0; stroke: #000000"/>
     <use xlink:href="#m9e8a0d35a1" x="150.055875" y="144.19033" style="fill-opacity: 0; stroke: #000000"/>
     <use xlink:href="#m9e8a0d35a1" x="150.055875" y="144.19033" style="fill-opacity: 0; stroke: #000000"/>
     <use xlink:href="#m9e8a0d35a1" x="150.055875" y="144.19033" style="fill-opacity: 0; stroke: #000000"/>
    </g>
   </g>
   <g id="patch_5">
    <path d="M 209.587275 206.943834 
L 222.816475 206.943834 
L 222.816475 201.077615 
L 219.509175 195.41768 
L 222.816475 189.757746 
L 222.816475 172.365373 
L 209.587275 172.365373 
L 209.587275 189.757746 
L 212.894575 195.41768 
L 209.587275 201.077615 
L 209.587275 206.943834 
z
" clip-path="url(#pf50ee07b07)" style="fill: #a9a9a9; stroke: #000000; stroke-linejoin: miter"/>
   </g>
   <g id="line2d_28">
    <path d="M 216.201875 206.943834 
L 216.201875 218.469988 
" clip-path="url(#pf50ee07b07)" style="fill: none; stroke: #000000; stroke-linecap: square"/>
   </g>
   <g id="line2d_29">
    <path d="M 216.201875 172.365373 
L 216.201875 160.839219 
" clip-path="url(#pf50ee07b07)" style="fill: none; stroke: #000000; stroke-linecap: square"/>
   </g>
   <g id="line2d_30">
    <path d="M 212.894575 218.469988 
L 219.509175 218.469988 
" clip-path="url(#pf50ee07b07)" style="fill: none; stroke: #000000; stroke-linecap: square"/>
   </g>
   <g id="line2d_31">
    <path d="M 212.894575 160.839219 
L 219.509175 160.839219 
" clip-path="url(#pf50ee07b07)" style="fill: none; stroke: #000000; stroke-linecap: square"/>
   </g>
   <g id="line2d_32">
    <g clip-path="url(#pf50ee07b07)">
     <use xlink:href="#m9e8a0d35a1" x="216.201875" y="229.996142" style="fill-opacity: 0; stroke: #000000"/>
     <use xlink:href="#m9e8a0d35a1" x="216.201875" y="241.522296" style="fill-opacity: 0; stroke: #000000"/>
     <use xlink:href="#m9e8a0d35a1" x="216.201875" y="229.996142" style="fill-opacity: 0; stroke: #000000"/>
     <use xlink:href="#m9e8a0d35a1" x="216.201875" y="253.04845" style="fill-opacity: 0; stroke: #000000"/>
     <use xlink:href="#m9e8a0d35a1" x="216.201875" y="264.574603" style="fill-opacity: 0; stroke: #000000"/>
     <use xlink:href="#m9e8a0d35a1" x="216.201875" y="241.522296" style="fill-opacity: 0; stroke: #000000"/>
     <use xlink:href="#m9e8a0d35a1" x="216.201875" y="241.522296" style="fill-opacity: 0; stroke: #000000"/>
     <use xlink:href="#m9e8a0d35a1" x="216.201875" y="229.996142" style="fill-opacity: 0; stroke: #000000"/>
     <use xlink:href="#m9e8a0d35a1" x="216.201875" y="241.522296" style="fill-opacity: 0; stroke: #000000"/>
     <use xlink:href="#m9e8a0d35a1" x="216.201875" y="241.522296" style="fill-opacity: 0; stroke: #000000"/>
     <use xlink:href="#m9e8a0d35a1" x="216.201875" y="229.996142" style="fill-opacity: 0; stroke: #000000"/>
     <use xlink:href="#m9e8a0d35a1" x="216.201875" y="253.04845" style="fill-opacity: 0; stroke: #000000"/>
     <use xlink:href="#m9e8a0d35a1" x="216.201875" y="229.996142" style="fill-opacity: 0; stroke: #000000"/>
     <use xlink:href="#m9e8a0d35a1" x="216.201875" y="229.996142" style="fill-opacity: 0; stroke: #000000"/>
     <use xlink:href="#m9e8a0d35a1" x="216.201875" y="149.313065" style="fill-opacity: 0; stroke: #000000"/>
     <use xlink:href="#m9e8a0d35a1" x="216.201875" y="149.313065" style="fill-opacity: 0; stroke: #000000"/>
     <use xlink:href="#m9e8a0d35a1" x="216.201875" y="149.313065" style="fill-opacity: 0; stroke: #000000"/>
     <use xlink:href="#m9e8a0d35a1" x="216.201875" y="137.786911" style="fill-opacity: 0; stroke: #000000"/>
     <use xlink:href="#m9e8a0d35a1" x="216.201875" y="126.260757" style="fill-opacity: 0; stroke: #000000"/>
     <use xlink:href="#m9e8a0d35a1" x="216.201875" y="149.313065" style="fill-opacity: 0; stroke: #000000"/>
     <use xlink:href="#m9e8a0d35a1" x="216.201875" y="149.313065" style="fill-opacity: 0; stroke: #000000"/>
     <use xlink:href="#m9e8a0d35a1" x="216.201875" y="137.786911" style="fill-opacity: 0; stroke: #000000"/>
     <use xlink:href="#m9e8a0d35a1" x="216.201875" y="149.313065" style="fill-opacity: 0; stroke: #000000"/>
     <use xlink:href="#m9e8a0d35a1" x="216.201875" y="149.313065" style="fill-opacity: 0; stroke: #000000"/>
    </g>
   </g>
   <g id="patch_6">
    <path d="M 275.733275 210.785885 
L 288.962475 210.785885 
L 288.962475 193.988013 
L 285.655175 185.812552 
L 288.962475 177.637091 
L 288.962475 160.839219 
L 275.733275 160.839219 
L 275.733275 177.637091 
L 279.040575 185.812552 
L 275.733275 193.988013 
L 275.733275 210.785885 
z
" clip-path="url(#pf50ee07b07)" style="fill: #a9a9a9; stroke: #000000; stroke-linejoin: miter"/>
   </g>
   <g id="line2d_33">
    <path d="M 282.347875 210.785885 
L 282.347875 235.759219 
" clip-path="url(#pf50ee07b07)" style="fill: none; stroke: #000000; stroke-linecap: square"/>
   </g>
   <g id="line2d_34">
    <path d="M 282.347875 160.839219 
L 282.347875 135.865885 
" clip-path="url(#pf50ee07b07)" style="fill: none; stroke: #000000; stroke-linecap: square"/>
   </g>
   <g id="line2d_35">
    <path d="M 279.040575 235.759219 
L 285.655175 235.759219 
" clip-path="url(#pf50ee07b07)" style="fill: none; stroke: #000000; stroke-linecap: square"/>
   </g>
   <g id="line2d_36">
    <path d="M 279.040575 135.865885 
L 285.655175 135.865885 
" clip-path="url(#pf50ee07b07)" style="fill: none; stroke: #000000; stroke-linecap: square"/>
   </g>
   <g id="line2d_37">
    <g clip-path="url(#pf50ee07b07)">
     <use xlink:href="#m9e8a0d35a1" x="282.347875" y="260.732552" style="fill-opacity: 0; stroke: #000000"/>
     <use xlink:href="#m9e8a0d35a1" x="282.347875" y="260.732552" style="fill-opacity: 0; stroke: #000000"/>
     <use xlink:href="#m9e8a0d35a1" x="282.347875" y="260.732552" style="fill-opacity: 0; stroke: #000000"/>
     <use xlink:href="#m9e8a0d35a1" x="282.347875" y="260.732552" style="fill-opacity: 0; stroke: #000000"/>
     <use xlink:href="#m9e8a0d35a1" x="282.347875" y="285.705885" style="fill-opacity: 0; stroke: #000000"/>
     <use xlink:href="#m9e8a0d35a1" x="282.347875" y="260.732552" style="fill-opacity: 0; stroke: #000000"/>
     <use xlink:href="#m9e8a0d35a1" x="282.347875" y="260.732552" style="fill-opacity: 0; stroke: #000000"/>
     <use xlink:href="#m9e8a0d35a1" x="282.347875" y="110.892552" style="fill-opacity: 0; stroke: #000000"/>
     <use xlink:href="#m9e8a0d35a1" x="282.347875" y="110.892552" style="fill-opacity: 0; stroke: #000000"/>
     <use xlink:href="#m9e8a0d35a1" x="282.347875" y="60.945885" style="fill-opacity: 0; stroke: #000000"/>
     <use xlink:href="#m9e8a0d35a1" x="282.347875" y="85.919219" style="fill-opacity: 0; stroke: #000000"/>
     <use xlink:href="#m9e8a0d35a1" x="282.347875" y="110.892552" style="fill-opacity: 0; stroke: #000000"/>
     <use xlink:href="#m9e8a0d35a1" x="282.347875" y="110.892552" style="fill-opacity: 0; stroke: #000000"/>
     <use xlink:href="#m9e8a0d35a1" x="282.347875" y="35.972552" style="fill-opacity: 0; stroke: #000000"/>
     <use xlink:href="#m9e8a0d35a1" x="282.347875" y="110.892552" style="fill-opacity: 0; stroke: #000000"/>
    </g>
   </g>
   <g id="patch_7">
    <path d="M 341.879275 185.812552 
L 355.108475 185.812552 
L 355.108475 173.169606 
L 351.801175 160.839219 
L 355.108475 148.508831 
L 355.108475 110.892552 
L 341.879275 110.892552 
L 341.879275 148.508831 
L 345.186575 160.839219 
L 341.879275 173.169606 
L 341.879275 185.812552 
z
" clip-path="url(#pf50ee07b07)" style="fill: #a9a9a9; stroke: #000000; stroke-linejoin: miter"/>
   </g>
   <g id="line2d_38">
    <path d="M 348.493875 185.812552 
L 348.493875 210.785885 
" clip-path="url(#pf50ee07b07)" style="fill: none; stroke: #000000; stroke-linecap: square"/>
   </g>
   <g id="line2d_39">
    <path d="M 348.493875 110.892552 
L 348.493875 85.919219 
" clip-path="url(#pf50ee07b07)" style="fill: none; stroke: #000000; stroke-linecap: square"/>
   </g>
   <g id="line2d_40">
    <path d="M 345.186575 210.785885 
L 351.801175 210.785885 
" clip-path="url(#pf50ee07b07)" style="fill: none; stroke: #000000; stroke-linecap: square"/>
   </g>
   <g id="line2d_41">
    <path d="M 345.186575 85.919219 
L 351.801175 85.919219 
" clip-path="url(#pf50ee07b07)" style="fill: none; stroke: #000000; stroke-linecap: square"/>
   </g>
   <g id="line2d_42">
    <g clip-path="url(#pf50ee07b07)">
     <use xlink:href="#m9e8a0d35a1" x="348.493875" y="260.732552" style="fill-opacity: 0; stroke: #000000"/>
     <use xlink:href="#m9e8a0d35a1" x="348.493875" y="235.759219" style="fill-opacity: 0; stroke: #000000"/>
     <use xlink:href="#m9e8a0d35a1" x="348.493875" y="260.732552" style="fill-opacity: 0; stroke: #000000"/>
     <use xlink:href="#m9e8a0d35a1" x="348.493875" y="285.705885" style="fill-opacity: 0; stroke: #000000"/>
     <use xlink:href="#m9e8a0d35a1" x="348.493875" y="260.732552" style="fill-opacity: 0; stroke: #000000"/>
     <use xlink:href="#m9e8a0d35a1" x="348.493875" y="235.759219" style="fill-opacity: 0; stroke: #000000"/>
     <use xlink:href="#m9e8a0d35a1" x="348.493875" y="235.759219" style="fill-opacity: 0; stroke: #000000"/>
     <use xlink:href="#m9e8a0d35a1" x="348.493875" y="260.732552" style="fill-opacity: 0; stroke: #000000"/>
     <use xlink:href="#m9e8a0d35a1" x="348.493875" y="260.732552" style="fill-opacity: 0; stroke: #000000"/>
     <use xlink:href="#m9e8a0d35a1" x="348.493875" y="260.732552" style="fill-opacity: 0; stroke: #000000"/>
     <use xlink:href="#m9e8a0d35a1" x="348.493875" y="260.732552" style="fill-opacity: 0; stroke: #000000"/>
     <use xlink:href="#m9e8a0d35a1" x="348.493875" y="235.759219" style="fill-opacity: 0; stroke: #000000"/>
     <use xlink:href="#m9e8a0d35a1" x="348.493875" y="35.972552" style="fill-opacity: 0; stroke: #000000"/>
     <use xlink:href="#m9e8a0d35a1" x="348.493875" y="10.999219" style="fill-opacity: 0; stroke: #000000"/>
     <use xlink:href="#m9e8a0d35a1" x="348.493875" y="60.945885" style="fill-opacity: 0; stroke: #000000"/>
     <use xlink:href="#m9e8a0d35a1" x="348.493875" y="60.945885" style="fill-opacity: 0; stroke: #000000"/>
     <use xlink:href="#m9e8a0d35a1" x="348.493875" y="60.945885" style="fill-opacity: 0; stroke: #000000"/>
     <use xlink:href="#m9e8a0d35a1" x="348.493875" y="60.945885" style="fill-opacity: 0; stroke: #000000"/>
    </g>
   </g>
   <g id="line2d_43">
    <path d="M 80.602575 210.785885 
L 87.217175 210.785885 
" clip-path="url(#pf50ee07b07)" style="fill: none; stroke: #000000; stroke-width: 2; stroke-linecap: square"/>
   </g>
   <g id="line2d_44">
    <path d="M 146.748575 210.785885 
L 153.363175 210.785885 
" clip-path="url(#pf50ee07b07)" style="fill: none; stroke: #000000; stroke-width: 2; stroke-linecap: square"/>
   </g>
   <g id="line2d_45">
    <path d="M 212.894575 195.41768 
L 219.509175 195.41768 
" clip-path="url(#pf50ee07b07)" style="fill: none; stroke: #000000; stroke-width: 2; stroke-linecap: square"/>
   </g>
   <g id="line2d_46">
    <path d="M 279.040575 185.812552 
L 285.655175 185.812552 
" clip-path="url(#pf50ee07b07)" style="fill: none; stroke: #000000; stroke-width: 2; stroke-linecap: square"/>
   </g>
   <g id="line2d_47">
    <path d="M 345.186575 160.839219 
L 351.801175 160.839219 
" clip-path="url(#pf50ee07b07)" style="fill: none; stroke: #000000; stroke-width: 2; stroke-linecap: square"/>
   </g>
   <g id="patch_8">
    <path d="M 50.836875 310.679219 
L 50.836875 10.999219 
" style="fill: none; stroke: #000000; stroke-width: 0.8; stroke-linejoin: miter; stroke-linecap: square"/>
   </g>
   <g id="patch_9">
    <path d="M 381.566875 310.679219 
L 381.566875 10.999219 
" style="fill: none; stroke: #000000; stroke-width: 0.8; stroke-linejoin: miter; stroke-linecap: square"/>
   </g>
   <g id="patch_10">
    <path d="M 50.836875 310.679219 
L 381.566875 310.679219 
" style="fill: none; stroke: #000000; stroke-width: 0.8; stroke-linejoin: miter; stroke-linecap: square"/>
   </g>
   <g id="patch_11">
    <path d="M 50.836875 10.999219 
L 381.566875 10.999219 
" style="fill: none; stroke: #000000; stroke-width: 0.8; stroke-linejoin: miter; stroke-linecap: square"/>
   </g>
   <g id="PathCollection_1">
    <defs>
     <path id="m4f8d027450" d="M 0 4.472136 
C 1.186024 4.472136 2.323632 4.000923 3.162278 3.162278 
C 4.000923 2.323632 4.472136 1.186024 4.472136 0 
C 4.472136 -1.186024 4.000923 -2.323632 3.162278 -3.162278 
C 2.323632 -4.000923 1.186024 -4.472136 0 -4.472136 
C -1.186024 -4.472136 -2.323632 -4.000923 -3.162278 -3.162278 
C -4.000923 -2.323632 -4.472136 -1.186024 -4.472136 0 
C -4.472136 1.186024 -4.000923 2.323632 -3.162278 3.162278 
C -2.323632 4.000923 -1.186024 4.472136 0 4.472136 
z
" style="stroke: #000000; stroke-width: 1.5"/>
    </defs>
    <g clip-path="url(#pf50ee07b07)">
     <use xlink:href="#m4f8d027450" x="83.909875" y="210.785885" style="fill: #ffffff; stroke: #000000; stroke-width: 1.5"/>
    </g>
   </g>
   <g id="PathCollection_2">
    <g clip-path="url(#pf50ee07b07)">
     <use xlink:href="#m4f8d027450" x="150.055875" y="177.488108" style="fill: #ffffff; stroke: #000000; stroke-width: 1.5"/>
    </g>
   </g>
   <g id="PathCollection_3">
    <g clip-path="url(#pf50ee07b07)">
     <use xlink:href="#m4f8d027450" x="216.201875" y="126.260757" style="fill: #ffffff; stroke: #000000; stroke-width: 1.5"/>
    </g>
   </g>
   <g id="PathCollection_4">
    <g clip-path="url(#pf50ee07b07)">
     <use xlink:href="#m4f8d027450" x="282.347875" y="110.892552" style="fill: #ffffff; stroke: #000000; stroke-width: 1.5"/>
    </g>
   </g>
   <g id="PathCollection_5">
    <g clip-path="url(#pf50ee07b07)">
     <use xlink:href="#m4f8d027450" x="348.493875" y="10.999219" style="fill: #ffffff; stroke: #000000; stroke-width: 1.5"/>
    </g>
   </g>
   <g id="legend_1">
    <g id="patch_12">
     <path d="M 59.236875 38.212969 
L 230.169375 38.212969 
Q 232.569375 38.212969 232.569375 35.812969 
L 232.569375 19.399219 
Q 232.569375 16.999219 230.169375 16.999219 
L 59.236875 16.999219 
Q 56.836875 16.999219 56.836875 19.399219 
L 56.836875 35.812969 
Q 56.836875 38.212969 59.236875 38.212969 
z
" style="fill: #ffffff; stroke: #cccccc; stroke-linejoin: miter"/>
    </g>
    <g id="PathCollection_6">
     <g>
      <use xlink:href="#m4f8d027450" x="73.636875" y="27.767344" style="fill: #ffffff; stroke: #000000; stroke-width: 1.5"/>
     </g>
    </g>
    <g id="text_14">
     <!-- Collective Intelligence -->
     <g transform="translate(95.236875 30.917344) scale(0.12 -0.12)">
      <defs>
       <path id="DejaVuSans-43" d="M 4122 4306 
L 4122 3641 
Q 3803 3938 3442 4084 
Q 3081 4231 2675 4231 
Q 1875 4231 1450 3742 
Q 1025 3253 1025 2328 
Q 1025 1406 1450 917 
Q 1875 428 2675 428 
Q 3081 428 3442 575 
Q 3803 722 4122 1019 
L 4122 359 
Q 3791 134 3420 21 
Q 3050 -91 2638 -91 
Q 1578 -91 968 557 
Q 359 1206 359 2328 
Q 359 3453 968 4101 
Q 1578 4750 2638 4750 
Q 3056 4750 3426 4639 
Q 3797 4528 4122 4306 
z
" transform="scale(0.015625)"/>
       <path id="DejaVuSans-76" d="M 191 3500 
L 800 3500 
L 1894 563 
L 2988 3500 
L 3597 3500 
L 2284 0 
L 1503 0 
L 191 3500 
z
" transform="scale(0.015625)"/>
       <path id="DejaVuSans-49" d="M 628 4666 
L 1259 4666 
L 1259 0 
L 628 0 
L 628 4666 
z
" transform="scale(0.015625)"/>
      </defs>
      <use xlink:href="#DejaVuSans-43"/>
      <use xlink:href="#DejaVuSans-6f" x="69.824219"/>
      <use xlink:href="#DejaVuSans-6c" x="131.005859"/>
      <use xlink:href="#DejaVuSans-6c" x="158.789062"/>
      <use xlink:href="#DejaVuSans-65" x="186.572266"/>
      <use xlink:href="#DejaVuSans-63" x="248.095703"/>
      <use xlink:href="#DejaVuSans-74" x="303.076172"/>
      <use xlink:href="#DejaVuSans-69" x="342.285156"/>
      <use xlink:href="#DejaVuSans-76" x="370.068359"/>
      <use xlink:href="#DejaVuSans-65" x="429.248047"/>
      <use xlink:href="#DejaVuSans-20" x="490.771484"/>
      <use xlink:href="#DejaVuSans-49" x="522.558594"/>
      <use xlink:href="#DejaVuSans-6e" x="552.050781"/>
      <use xlink:href="#DejaVuSans-74" x="615.429688"/>
      <use xlink:href="#DejaVuSans-65" x="654.638672"/>
      <use xlink:href="#DejaVuSans-6c" x="716.162109"/>
      <use xlink:href="#DejaVuSans-6c" x="743.945312"/>
      <use xlink:href="#DejaVuSans-69" x="771.728516"/>
      <use xlink:href="#DejaVuSans-67" x="799.511719"/>
      <use xlink:href="#DejaVuSans-65" x="862.988281"/>
      <use xlink:href="#DejaVuSans-6e" x="924.511719"/>
      <use xlink:href="#DejaVuSans-63" x="987.890625"/>
      <use xlink:href="#DejaVuSans-65" x="1042.871094"/>
     </g>
    </g>
   </g>
  </g>
 </g>
 <defs>
  <clipPath id="pf50ee07b07">
   <rect x="50.836875" y="10.999219" width="330.73" height="299.68"/>
  </clipPath>
 </defs>
</svg>
