<?xml version="1.0" encoding="utf-8" standalone="no"?>
<!DOCTYPE svg PUBLIC "-//W3C//DTD SVG 1.1//EN"
  "http://www.w3.org/Graphics/SVG/1.1/DTD/svg11.dtd">
<svg xmlns:xlink="http://www.w3.org/1999/xlink" width="424.766875pt" height="424.106719pt" viewBox="0 0 424.766875 424.106719" xmlns="http://www.w3.org/2000/svg" version="1.1">
 <metadata>
  <rdf:RDF xmlns:dc="http://purl.org/dc/elements/1.1/" xmlns:cc="http://creativecommons.org/ns#" xmlns:rdf="http://www.w3.org/1999/02/22-rdf-syntax-ns#">
   <cc:Work>
    <dc:type rdf:resource="http://purl.org/dc/dcmitype/StillImage"/>
    <dc:date>2024-04-17T11:51:12.207085</dc:date>
    <dc:format>image/svg+xml</dc:format>
    <dc:creator>
     <cc:Agent>
      <dc:title>Matplotlib v3.6.2, https://matplotlib.org/</dc:title>
     </cc:Agent>
    </dc:creator>
   </cc:Work>
  </rdf:RDF>
 </metadata>
 <defs>
  <style type="text/css">*{stroke-linejoin: round; stroke-linecap: butt}</style>
 </defs>
 <g id="figure_1">
  <g id="patch_1">
   <path d="M 0 424.106719 
L 424.766875 424.106719 
L 424.766875 0 
L 0 0 
z
" style="fill: #ffffff"/>
  </g>
  <g id="axes_1">
   <g id="patch_2">
    <path d="M 50.836875 382.679219 
L 417.566875 382.679219 
L 417.566875 10.999219 
L 50.836875 10.999219 
z
" style="fill: #ffffff"/>
   </g>
   <g id="matplotlib.axis_1">
    <g id="xtick_1">
     <g id="line2d_1">
      <defs>
       <path id="md08ac98816" d="M 0 0 
L 0 3.5 
" style="stroke: #000000; stroke-width: 0.8"/>
      </defs>
      <g>
       <use xlink:href="#md08ac98816" x="50.836875" y="382.679219" style="stroke: #000000; stroke-width: 0.8"/>
      </g>
     </g>
     <g id="text_1">
      <!-- 0 -->
      <g transform="translate(47.655625 397.277656) scale(0.1 -0.1)">
       <defs>
        <path id="DejaVuSans-30" d="M 2034 4250 
Q 1547 4250 1301 3770 
Q 1056 3291 1056 2328 
Q 1056 1369 1301 889 
Q 1547 409 2034 409 
Q 2525 409 2770 889 
Q 3016 1369 3016 2328 
Q 3016 3291 2770 3770 
Q 2525 4250 2034 4250 
z
M 2034 4750 
Q 2819 4750 3233 4129 
Q 3647 3509 3647 2328 
Q 3647 1150 3233 529 
Q 2819 -91 2034 -91 
Q 1250 -91 836 529 
Q 422 1150 422 2328 
Q 422 3509 836 4129 
Q 1250 4750 2034 4750 
z
" transform="scale(0.015625)"/>
       </defs>
       <use xlink:href="#DejaVuSans-30"/>
      </g>
     </g>
    </g>
    <g id="xtick_2">
     <g id="line2d_2">
      <g>
       <use xlink:href="#md08ac98816" x="130.560788" y="382.679219" style="stroke: #000000; stroke-width: 0.8"/>
      </g>
     </g>
     <g id="text_2">
      <!-- 20 -->
      <g transform="translate(124.198288 397.277656) scale(0.1 -0.1)">
       <defs>
        <path id="DejaVuSans-32" d="M 1228 531 
L 3431 531 
L 3431 0 
L 469 0 
L 469 531 
Q 828 903 1448 1529 
Q 2069 2156 2228 2338 
Q 2531 2678 2651 2914 
Q 2772 3150 2772 3378 
Q 2772 3750 2511 3984 
Q 2250 4219 1831 4219 
Q 1534 4219 1204 4116 
Q 875 4013 500 3803 
L 500 4441 
Q 881 4594 1212 4672 
Q 1544 4750 1819 4750 
Q 2544 4750 2975 4387 
Q 3406 4025 3406 3419 
Q 3406 3131 3298 2873 
Q 3191 2616 2906 2266 
Q 2828 2175 2409 1742 
Q 1991 1309 1228 531 
z
" transform="scale(0.015625)"/>
       </defs>
       <use xlink:href="#DejaVuSans-32"/>
       <use xlink:href="#DejaVuSans-30" x="63.623047"/>
      </g>
     </g>
    </g>
    <g id="xtick_3">
     <g id="line2d_3">
      <g>
       <use xlink:href="#md08ac98816" x="210.284701" y="382.679219" style="stroke: #000000; stroke-width: 0.8"/>
      </g>
     </g>
     <g id="text_3">
      <!-- 40 -->
      <g transform="translate(203.922201 397.277656) scale(0.1 -0.1)">
       <defs>
        <path id="DejaVuSans-34" d="M 2419 4116 
L 825 1625 
L 2419 1625 
L 2419 4116 
z
M 2253 4666 
L 3047 4666 
L 3047 1625 
L 3713 1625 
L 3713 1100 
L 3047 1100 
L 3047 0 
L 2419 0 
L 2419 1100 
L 313 1100 
L 313 1709 
L 2253 4666 
z
" transform="scale(0.015625)"/>
       </defs>
       <use xlink:href="#DejaVuSans-34"/>
       <use xlink:href="#DejaVuSans-30" x="63.623047"/>
      </g>
     </g>
    </g>
    <g id="xtick_4">
     <g id="line2d_4">
      <g>
       <use xlink:href="#md08ac98816" x="290.008614" y="382.679219" style="stroke: #000000; stroke-width: 0.8"/>
      </g>
     </g>
     <g id="text_4">
      <!-- 60 -->
      <g transform="translate(283.646114 397.277656) scale(0.1 -0.1)">
       <defs>
        <path id="DejaVuSans-36" d="M 2113 2584 
Q 1688 2584 1439 2293 
Q 1191 2003 1191 1497 
Q 1191 994 1439 701 
Q 1688 409 2113 409 
Q 2538 409 2786 701 
Q 3034 994 3034 1497 
Q 3034 2003 2786 2293 
Q 2538 2584 2113 2584 
z
M 3366 4563 
L 3366 3988 
Q 3128 4100 2886 4159 
Q 2644 4219 2406 4219 
Q 1781 4219 1451 3797 
Q 1122 3375 1075 2522 
Q 1259 2794 1537 2939 
Q 1816 3084 2150 3084 
Q 2853 3084 3261 2657 
Q 3669 2231 3669 1497 
Q 3669 778 3244 343 
Q 2819 -91 2113 -91 
Q 1303 -91 875 529 
Q 447 1150 447 2328 
Q 447 3434 972 4092 
Q 1497 4750 2381 4750 
Q 2619 4750 2861 4703 
Q 3103 4656 3366 4563 
z
" transform="scale(0.015625)"/>
       </defs>
       <use xlink:href="#DejaVuSans-36"/>
       <use xlink:href="#DejaVuSans-30" x="63.623047"/>
      </g>
     </g>
    </g>
    <g id="xtick_5">
     <g id="line2d_5">
      <g>
       <use xlink:href="#md08ac98816" x="369.732527" y="382.679219" style="stroke: #000000; stroke-width: 0.8"/>
      </g>
     </g>
     <g id="text_5">
      <!-- 80 -->
      <g transform="translate(363.370027 397.277656) scale(0.1 -0.1)">
       <defs>
        <path id="DejaVuSans-38" d="M 2034 2216 
Q 1584 2216 1326 1975 
Q 1069 1734 1069 1313 
Q 1069 891 1326 650 
Q 1584 409 2034 409 
Q 2484 409 2743 651 
Q 3003 894 3003 1313 
Q 3003 1734 2745 1975 
Q 2488 2216 2034 2216 
z
M 1403 2484 
Q 997 2584 770 2862 
Q 544 3141 544 3541 
Q 544 4100 942 4425 
Q 1341 4750 2034 4750 
Q 2731 4750 3128 4425 
Q 3525 4100 3525 3541 
Q 3525 3141 3298 2862 
Q 3072 2584 2669 2484 
Q 3125 2378 3379 2068 
Q 3634 1759 3634 1313 
Q 3634 634 3220 271 
Q 2806 -91 2034 -91 
Q 1263 -91 848 271 
Q 434 634 434 1313 
Q 434 1759 690 2068 
Q 947 2378 1403 2484 
z
M 1172 3481 
Q 1172 3119 1398 2916 
Q 1625 2713 2034 2713 
Q 2441 2713 2670 2916 
Q 2900 3119 2900 3481 
Q 2900 3844 2670 4047 
Q 2441 4250 2034 4250 
Q 1625 4250 1398 4047 
Q 1172 3844 1172 3481 
z
" transform="scale(0.015625)"/>
       </defs>
       <use xlink:href="#DejaVuSans-38"/>
       <use xlink:href="#DejaVuSans-30" x="63.623047"/>
      </g>
     </g>
    </g>
    <g id="text_6">
     <!-- Number of participants -->
     <g transform="translate(153.230469 413.995156) scale(0.14 -0.14)">
      <defs>
       <path id="DejaVuSans-4e" d="M 628 4666 
L 1478 4666 
L 3547 763 
L 3547 4666 
L 4159 4666 
L 4159 0 
L 3309 0 
L 1241 3903 
L 1241 0 
L 628 0 
L 628 4666 
z
" transform="scale(0.015625)"/>
       <path id="DejaVuSans-75" d="M 544 1381 
L 544 3500 
L 1119 3500 
L 1119 1403 
Q 1119 906 1312 657 
Q 1506 409 1894 409 
Q 2359 409 2629 706 
Q 2900 1003 2900 1516 
L 2900 3500 
L 3475 3500 
L 3475 0 
L 2900 0 
L 2900 538 
Q 2691 219 2414 64 
Q 2138 -91 1772 -91 
Q 1169 -91 856 284 
Q 544 659 544 1381 
z
M 1991 3584 
L 1991 3584 
z
" transform="scale(0.015625)"/>
       <path id="DejaVuSans-6d" d="M 3328 2828 
Q 3544 3216 3844 3400 
Q 4144 3584 4550 3584 
Q 5097 3584 5394 3201 
Q 5691 2819 5691 2113 
L 5691 0 
L 5113 0 
L 5113 2094 
Q 5113 2597 4934 2840 
Q 4756 3084 4391 3084 
Q 3944 3084 3684 2787 
Q 3425 2491 3425 1978 
L 3425 0 
L 2847 0 
L 2847 2094 
Q 2847 2600 2669 2842 
Q 2491 3084 2119 3084 
Q 1678 3084 1418 2786 
Q 1159 2488 1159 1978 
L 1159 0 
L 581 0 
L 581 3500 
L 1159 3500 
L 1159 2956 
Q 1356 3278 1631 3431 
Q 1906 3584 2284 3584 
Q 2666 3584 2933 3390 
Q 3200 3197 3328 2828 
z
" transform="scale(0.015625)"/>
       <path id="DejaVuSans-62" d="M 3116 1747 
Q 3116 2381 2855 2742 
Q 2594 3103 2138 3103 
Q 1681 3103 1420 2742 
Q 1159 2381 1159 1747 
Q 1159 1113 1420 752 
Q 1681 391 2138 391 
Q 2594 391 2855 752 
Q 3116 1113 3116 1747 
z
M 1159 2969 
Q 1341 3281 1617 3432 
Q 1894 3584 2278 3584 
Q 2916 3584 3314 3078 
Q 3713 2572 3713 1747 
Q 3713 922 3314 415 
Q 2916 -91 2278 -91 
Q 1894 -91 1617 61 
Q 1341 213 1159 525 
L 1159 0 
L 581 0 
L 581 4863 
L 1159 4863 
L 1159 2969 
z
" transform="scale(0.015625)"/>
       <path id="DejaVuSans-65" d="M 3597 1894 
L 3597 1613 
L 953 1613 
Q 991 1019 1311 708 
Q 1631 397 2203 397 
Q 2534 397 2845 478 
Q 3156 559 3463 722 
L 3463 178 
Q 3153 47 2828 -22 
Q 2503 -91 2169 -91 
Q 1331 -91 842 396 
Q 353 884 353 1716 
Q 353 2575 817 3079 
Q 1281 3584 2069 3584 
Q 2775 3584 3186 3129 
Q 3597 2675 3597 1894 
z
M 3022 2063 
Q 3016 2534 2758 2815 
Q 2500 3097 2075 3097 
Q 1594 3097 1305 2825 
Q 1016 2553 972 2059 
L 3022 2063 
z
" transform="scale(0.015625)"/>
       <path id="DejaVuSans-72" d="M 2631 2963 
Q 2534 3019 2420 3045 
Q 2306 3072 2169 3072 
Q 1681 3072 1420 2755 
Q 1159 2438 1159 1844 
L 1159 0 
L 581 0 
L 581 3500 
L 1159 3500 
L 1159 2956 
Q 1341 3275 1631 3429 
Q 1922 3584 2338 3584 
Q 2397 3584 2469 3576 
Q 2541 3569 2628 3553 
L 2631 2963 
z
" transform="scale(0.015625)"/>
       <path id="DejaVuSans-20" transform="scale(0.015625)"/>
       <path id="DejaVuSans-6f" d="M 1959 3097 
Q 1497 3097 1228 2736 
Q 959 2375 959 1747 
Q 959 1119 1226 758 
Q 1494 397 1959 397 
Q 2419 397 2687 759 
Q 2956 1122 2956 1747 
Q 2956 2369 2687 2733 
Q 2419 3097 1959 3097 
z
M 1959 3584 
Q 2709 3584 3137 3096 
Q 3566 2609 3566 1747 
Q 3566 888 3137 398 
Q 2709 -91 1959 -91 
Q 1206 -91 779 398 
Q 353 888 353 1747 
Q 353 2609 779 3096 
Q 1206 3584 1959 3584 
z
" transform="scale(0.015625)"/>
       <path id="DejaVuSans-66" d="M 2375 4863 
L 2375 4384 
L 1825 4384 
Q 1516 4384 1395 4259 
Q 1275 4134 1275 3809 
L 1275 3500 
L 2222 3500 
L 2222 3053 
L 1275 3053 
L 1275 0 
L 697 0 
L 697 3053 
L 147 3053 
L 147 3500 
L 697 3500 
L 697 3744 
Q 697 4328 969 4595 
Q 1241 4863 1831 4863 
L 2375 4863 
z
" transform="scale(0.015625)"/>
       <path id="DejaVuSans-70" d="M 1159 525 
L 1159 -1331 
L 581 -1331 
L 581 3500 
L 1159 3500 
L 1159 2969 
Q 1341 3281 1617 3432 
Q 1894 3584 2278 3584 
Q 2916 3584 3314 3078 
Q 3713 2572 3713 1747 
Q 3713 922 3314 415 
Q 2916 -91 2278 -91 
Q 1894 -91 1617 61 
Q 1341 213 1159 525 
z
M 3116 1747 
Q 3116 2381 2855 2742 
Q 2594 3103 2138 3103 
Q 1681 3103 1420 2742 
Q 1159 2381 1159 1747 
Q 1159 1113 1420 752 
Q 1681 391 2138 391 
Q 2594 391 2855 752 
Q 3116 1113 3116 1747 
z
" transform="scale(0.015625)"/>
       <path id="DejaVuSans-61" d="M 2194 1759 
Q 1497 1759 1228 1600 
Q 959 1441 959 1056 
Q 959 750 1161 570 
Q 1363 391 1709 391 
Q 2188 391 2477 730 
Q 2766 1069 2766 1631 
L 2766 1759 
L 2194 1759 
z
M 3341 1997 
L 3341 0 
L 2766 0 
L 2766 531 
Q 2569 213 2275 61 
Q 1981 -91 1556 -91 
Q 1019 -91 701 211 
Q 384 513 384 1019 
Q 384 1609 779 1909 
Q 1175 2209 1959 2209 
L 2766 2209 
L 2766 2266 
Q 2766 2663 2505 2880 
Q 2244 3097 1772 3097 
Q 1472 3097 1187 3025 
Q 903 2953 641 2809 
L 641 3341 
Q 956 3463 1253 3523 
Q 1550 3584 1831 3584 
Q 2591 3584 2966 3190 
Q 3341 2797 3341 1997 
z
" transform="scale(0.015625)"/>
       <path id="DejaVuSans-74" d="M 1172 4494 
L 1172 3500 
L 2356 3500 
L 2356 3053 
L 1172 3053 
L 1172 1153 
Q 1172 725 1289 603 
Q 1406 481 1766 481 
L 2356 481 
L 2356 0 
L 1766 0 
Q 1100 0 847 248 
Q 594 497 594 1153 
L 594 3053 
L 172 3053 
L 172 3500 
L 594 3500 
L 594 4494 
L 1172 4494 
z
" transform="scale(0.015625)"/>
       <path id="DejaVuSans-69" d="M 603 3500 
L 1178 3500 
L 1178 0 
L 603 0 
L 603 3500 
z
M 603 4863 
L 1178 4863 
L 1178 4134 
L 603 4134 
L 603 4863 
z
" transform="scale(0.015625)"/>
       <path id="DejaVuSans-63" d="M 3122 3366 
L 3122 2828 
Q 2878 2963 2633 3030 
Q 2388 3097 2138 3097 
Q 1578 3097 1268 2742 
Q 959 2388 959 1747 
Q 959 1106 1268 751 
Q 1578 397 2138 397 
Q 2388 397 2633 464 
Q 2878 531 3122 666 
L 3122 134 
Q 2881 22 2623 -34 
Q 2366 -91 2075 -91 
Q 1284 -91 818 406 
Q 353 903 353 1747 
Q 353 2603 823 3093 
Q 1294 3584 2113 3584 
Q 2378 3584 2631 3529 
Q 2884 3475 3122 3366 
z
" transform="scale(0.015625)"/>
       <path id="DejaVuSans-6e" d="M 3513 2113 
L 3513 0 
L 2938 0 
L 2938 2094 
Q 2938 2591 2744 2837 
Q 2550 3084 2163 3084 
Q 1697 3084 1428 2787 
Q 1159 2491 1159 1978 
L 1159 0 
L 581 0 
L 581 3500 
L 1159 3500 
L 1159 2956 
Q 1366 3272 1645 3428 
Q 1925 3584 2291 3584 
Q 2894 3584 3203 3211 
Q 3513 2838 3513 2113 
z
" transform="scale(0.015625)"/>
       <path id="DejaVuSans-73" d="M 2834 3397 
L 2834 2853 
Q 2591 2978 2328 3040 
Q 2066 3103 1784 3103 
Q 1356 3103 1142 2972 
Q 928 2841 928 2578 
Q 928 2378 1081 2264 
Q 1234 2150 1697 2047 
L 1894 2003 
Q 2506 1872 2764 1633 
Q 3022 1394 3022 966 
Q 3022 478 2636 193 
Q 2250 -91 1575 -91 
Q 1294 -91 989 -36 
Q 684 19 347 128 
L 347 722 
Q 666 556 975 473 
Q 1284 391 1588 391 
Q 1994 391 2212 530 
Q 2431 669 2431 922 
Q 2431 1156 2273 1281 
Q 2116 1406 1581 1522 
L 1381 1569 
Q 847 1681 609 1914 
Q 372 2147 372 2553 
Q 372 3047 722 3315 
Q 1072 3584 1716 3584 
Q 2034 3584 2315 3537 
Q 2597 3491 2834 3397 
z
" transform="scale(0.015625)"/>
      </defs>
      <use xlink:href="#DejaVuSans-4e"/>
      <use xlink:href="#DejaVuSans-75" x="74.804688"/>
      <use xlink:href="#DejaVuSans-6d" x="138.183594"/>
      <use xlink:href="#DejaVuSans-62" x="235.595703"/>
      <use xlink:href="#DejaVuSans-65" x="299.072266"/>
      <use xlink:href="#DejaVuSans-72" x="360.595703"/>
      <use xlink:href="#DejaVuSans-20" x="401.708984"/>
      <use xlink:href="#DejaVuSans-6f" x="433.496094"/>
      <use xlink:href="#DejaVuSans-66" x="494.677734"/>
      <use xlink:href="#DejaVuSans-20" x="529.882812"/>
      <use xlink:href="#DejaVuSans-70" x="561.669922"/>
      <use xlink:href="#DejaVuSans-61" x="625.146484"/>
      <use xlink:href="#DejaVuSans-72" x="686.425781"/>
      <use xlink:href="#DejaVuSans-74" x="727.539062"/>
      <use xlink:href="#DejaVuSans-69" x="766.748047"/>
      <use xlink:href="#DejaVuSans-63" x="794.53125"/>
      <use xlink:href="#DejaVuSans-69" x="849.511719"/>
      <use xlink:href="#DejaVuSans-70" x="877.294922"/>
      <use xlink:href="#DejaVuSans-61" x="940.771484"/>
      <use xlink:href="#DejaVuSans-6e" x="1002.050781"/>
      <use xlink:href="#DejaVuSans-74" x="1065.429688"/>
      <use xlink:href="#DejaVuSans-73" x="1104.638672"/>
     </g>
    </g>
   </g>
   <g id="matplotlib.axis_2">
    <g id="ytick_1">
     <g id="line2d_6">
      <path d="M 50.836875 382.679219 
L 417.566875 382.679219 
" clip-path="url(#pd569a651c5)" style="fill: none; stroke-dasharray: 2.96,1.28; stroke-dashoffset: 0; stroke: #c0c0c0; stroke-width: 0.8"/>
     </g>
     <g id="line2d_7">
      <defs>
       <path id="m6acfdb5075" d="M 0 0 
L -3.5 0 
" style="stroke: #000000; stroke-width: 0.8"/>
      </defs>
      <g>
       <use xlink:href="#m6acfdb5075" x="50.836875" y="382.679219" style="stroke: #000000; stroke-width: 0.8"/>
      </g>
     </g>
     <g id="text_7">
      <!-- 20 -->
      <g transform="translate(31.111875 386.478437) scale(0.1 -0.1)">
       <use xlink:href="#DejaVuSans-32"/>
       <use xlink:href="#DejaVuSans-30" x="63.623047"/>
      </g>
     </g>
    </g>
    <g id="ytick_2">
     <g id="line2d_8">
      <path d="M 50.836875 336.219219 
L 417.566875 336.219219 
" clip-path="url(#pd569a651c5)" style="fill: none; stroke-dasharray: 2.96,1.28; stroke-dashoffset: 0; stroke: #c0c0c0; stroke-width: 0.8"/>
     </g>
     <g id="line2d_9">
      <g>
       <use xlink:href="#m6acfdb5075" x="50.836875" y="336.219219" style="stroke: #000000; stroke-width: 0.8"/>
      </g>
     </g>
     <g id="text_8">
      <!-- 30 -->
      <g transform="translate(31.111875 340.018437) scale(0.1 -0.1)">
       <defs>
        <path id="DejaVuSans-33" d="M 2597 2516 
Q 3050 2419 3304 2112 
Q 3559 1806 3559 1356 
Q 3559 666 3084 287 
Q 2609 -91 1734 -91 
Q 1441 -91 1130 -33 
Q 819 25 488 141 
L 488 750 
Q 750 597 1062 519 
Q 1375 441 1716 441 
Q 2309 441 2620 675 
Q 2931 909 2931 1356 
Q 2931 1769 2642 2001 
Q 2353 2234 1838 2234 
L 1294 2234 
L 1294 2753 
L 1863 2753 
Q 2328 2753 2575 2939 
Q 2822 3125 2822 3475 
Q 2822 3834 2567 4026 
Q 2313 4219 1838 4219 
Q 1578 4219 1281 4162 
Q 984 4106 628 3988 
L 628 4550 
Q 988 4650 1302 4700 
Q 1616 4750 1894 4750 
Q 2613 4750 3031 4423 
Q 3450 4097 3450 3541 
Q 3450 3153 3228 2886 
Q 3006 2619 2597 2516 
z
" transform="scale(0.015625)"/>
       </defs>
       <use xlink:href="#DejaVuSans-33"/>
       <use xlink:href="#DejaVuSans-30" x="63.623047"/>
      </g>
     </g>
    </g>
    <g id="ytick_3">
     <g id="line2d_10">
      <path d="M 50.836875 289.759219 
L 417.566875 289.759219 
" clip-path="url(#pd569a651c5)" style="fill: none; stroke-dasharray: 2.96,1.28; stroke-dashoffset: 0; stroke: #c0c0c0; stroke-width: 0.8"/>
     </g>
     <g id="line2d_11">
      <g>
       <use xlink:href="#m6acfdb5075" x="50.836875" y="289.759219" style="stroke: #000000; stroke-width: 0.8"/>
      </g>
     </g>
     <g id="text_9">
      <!-- 40 -->
      <g transform="translate(31.111875 293.558437) scale(0.1 -0.1)">
       <use xlink:href="#DejaVuSans-34"/>
       <use xlink:href="#DejaVuSans-30" x="63.623047"/>
      </g>
     </g>
    </g>
    <g id="ytick_4">
     <g id="line2d_12">
      <path d="M 50.836875 243.299219 
L 417.566875 243.299219 
" clip-path="url(#pd569a651c5)" style="fill: none; stroke-dasharray: 2.96,1.28; stroke-dashoffset: 0; stroke: #c0c0c0; stroke-width: 0.8"/>
     </g>
     <g id="line2d_13">
      <g>
       <use xlink:href="#m6acfdb5075" x="50.836875" y="243.299219" style="stroke: #000000; stroke-width: 0.8"/>
      </g>
     </g>
     <g id="text_10">
      <!-- 50 -->
      <g transform="translate(31.111875 247.098437) scale(0.1 -0.1)">
       <defs>
        <path id="DejaVuSans-35" d="M 691 4666 
L 3169 4666 
L 3169 4134 
L 1269 4134 
L 1269 2991 
Q 1406 3038 1543 3061 
Q 1681 3084 1819 3084 
Q 2600 3084 3056 2656 
Q 3513 2228 3513 1497 
Q 3513 744 3044 326 
Q 2575 -91 1722 -91 
Q 1428 -91 1123 -41 
Q 819 9 494 109 
L 494 744 
Q 775 591 1075 516 
Q 1375 441 1709 441 
Q 2250 441 2565 725 
Q 2881 1009 2881 1497 
Q 2881 1984 2565 2268 
Q 2250 2553 1709 2553 
Q 1456 2553 1204 2497 
Q 953 2441 691 2322 
L 691 4666 
z
" transform="scale(0.015625)"/>
       </defs>
       <use xlink:href="#DejaVuSans-35"/>
       <use xlink:href="#DejaVuSans-30" x="63.623047"/>
      </g>
     </g>
    </g>
    <g id="ytick_5">
     <g id="line2d_14">
      <path d="M 50.836875 196.839219 
L 417.566875 196.839219 
" clip-path="url(#pd569a651c5)" style="fill: none; stroke-dasharray: 2.96,1.28; stroke-dashoffset: 0; stroke: #c0c0c0; stroke-width: 0.8"/>
     </g>
     <g id="line2d_15">
      <g>
       <use xlink:href="#m6acfdb5075" x="50.836875" y="196.839219" style="stroke: #000000; stroke-width: 0.8"/>
      </g>
     </g>
     <g id="text_11">
      <!-- 60 -->
      <g transform="translate(31.111875 200.638437) scale(0.1 -0.1)">
       <use xlink:href="#DejaVuSans-36"/>
       <use xlink:href="#DejaVuSans-30" x="63.623047"/>
      </g>
     </g>
    </g>
    <g id="ytick_6">
     <g id="line2d_16">
      <path d="M 50.836875 150.379219 
L 417.566875 150.379219 
" clip-path="url(#pd569a651c5)" style="fill: none; stroke-dasharray: 2.96,1.28; stroke-dashoffset: 0; stroke: #c0c0c0; stroke-width: 0.8"/>
     </g>
     <g id="line2d_17">
      <g>
       <use xlink:href="#m6acfdb5075" x="50.836875" y="150.379219" style="stroke: #000000; stroke-width: 0.8"/>
      </g>
     </g>
     <g id="text_12">
      <!-- 70 -->
      <g transform="translate(31.111875 154.178438) scale(0.1 -0.1)">
       <defs>
        <path id="DejaVuSans-37" d="M 525 4666 
L 3525 4666 
L 3525 4397 
L 1831 0 
L 1172 0 
L 2766 4134 
L 525 4134 
L 525 4666 
z
" transform="scale(0.015625)"/>
       </defs>
       <use xlink:href="#DejaVuSans-37"/>
       <use xlink:href="#DejaVuSans-30" x="63.623047"/>
      </g>
     </g>
    </g>
    <g id="ytick_7">
     <g id="line2d_18">
      <path d="M 50.836875 103.919219 
L 417.566875 103.919219 
" clip-path="url(#pd569a651c5)" style="fill: none; stroke-dasharray: 2.96,1.28; stroke-dashoffset: 0; stroke: #c0c0c0; stroke-width: 0.8"/>
     </g>
     <g id="line2d_19">
      <g>
       <use xlink:href="#m6acfdb5075" x="50.836875" y="103.919219" style="stroke: #000000; stroke-width: 0.8"/>
      </g>
     </g>
     <g id="text_13">
      <!-- 80 -->
      <g transform="translate(31.111875 107.718437) scale(0.1 -0.1)">
       <use xlink:href="#DejaVuSans-38"/>
       <use xlink:href="#DejaVuSans-30" x="63.623047"/>
      </g>
     </g>
    </g>
    <g id="ytick_8">
     <g id="line2d_20">
      <path d="M 50.836875 57.459219 
L 417.566875 57.459219 
" clip-path="url(#pd569a651c5)" style="fill: none; stroke-dasharray: 2.96,1.28; stroke-dashoffset: 0; stroke: #c0c0c0; stroke-width: 0.8"/>
     </g>
     <g id="line2d_21">
      <g>
       <use xlink:href="#m6acfdb5075" x="50.836875" y="57.459219" style="stroke: #000000; stroke-width: 0.8"/>
      </g>
     </g>
     <g id="text_14">
      <!-- 90 -->
      <g transform="translate(31.111875 61.258438) scale(0.1 -0.1)">
       <defs>
        <path id="DejaVuSans-39" d="M 703 97 
L 703 672 
Q 941 559 1184 500 
Q 1428 441 1663 441 
Q 2288 441 2617 861 
Q 2947 1281 2994 2138 
Q 2813 1869 2534 1725 
Q 2256 1581 1919 1581 
Q 1219 1581 811 2004 
Q 403 2428 403 3163 
Q 403 3881 828 4315 
Q 1253 4750 1959 4750 
Q 2769 4750 3195 4129 
Q 3622 3509 3622 2328 
Q 3622 1225 3098 567 
Q 2575 -91 1691 -91 
Q 1453 -91 1209 -44 
Q 966 3 703 97 
z
M 1959 2075 
Q 2384 2075 2632 2365 
Q 2881 2656 2881 3163 
Q 2881 3666 2632 3958 
Q 2384 4250 1959 4250 
Q 1534 4250 1286 3958 
Q 1038 3666 1038 3163 
Q 1038 2656 1286 2365 
Q 1534 2075 1959 2075 
z
" transform="scale(0.015625)"/>
       </defs>
       <use xlink:href="#DejaVuSans-39"/>
       <use xlink:href="#DejaVuSans-30" x="63.623047"/>
      </g>
     </g>
    </g>
    <g id="ytick_9">
     <g id="line2d_22">
      <path d="M 50.836875 10.999219 
L 417.566875 10.999219 
" clip-path="url(#pd569a651c5)" style="fill: none; stroke-dasharray: 2.96,1.28; stroke-dashoffset: 0; stroke: #c0c0c0; stroke-width: 0.8"/>
     </g>
     <g id="line2d_23">
      <g>
       <use xlink:href="#m6acfdb5075" x="50.836875" y="10.999219" style="stroke: #000000; stroke-width: 0.8"/>
      </g>
     </g>
     <g id="text_15">
      <!-- 100 -->
      <g transform="translate(24.749375 14.798438) scale(0.1 -0.1)">
       <defs>
        <path id="DejaVuSans-31" d="M 794 531 
L 1825 531 
L 1825 4091 
L 703 3866 
L 703 4441 
L 1819 4666 
L 2450 4666 
L 2450 531 
L 3481 531 
L 3481 0 
L 794 0 
L 794 531 
z
" transform="scale(0.015625)"/>
       </defs>
       <use xlink:href="#DejaVuSans-31"/>
       <use xlink:href="#DejaVuSans-30" x="63.623047"/>
       <use xlink:href="#DejaVuSans-30" x="127.246094"/>
      </g>
     </g>
    </g>
    <g id="text_16">
     <!-- Success Rate (%) -->
     <g transform="translate(17.837812 257.627656) rotate(-90) scale(0.14 -0.14)">
      <defs>
       <path id="DejaVuSans-53" d="M 3425 4513 
L 3425 3897 
Q 3066 4069 2747 4153 
Q 2428 4238 2131 4238 
Q 1616 4238 1336 4038 
Q 1056 3838 1056 3469 
Q 1056 3159 1242 3001 
Q 1428 2844 1947 2747 
L 2328 2669 
Q 3034 2534 3370 2195 
Q 3706 1856 3706 1288 
Q 3706 609 3251 259 
Q 2797 -91 1919 -91 
Q 1588 -91 1214 -16 
Q 841 59 441 206 
L 441 856 
Q 825 641 1194 531 
Q 1563 422 1919 422 
Q 2459 422 2753 634 
Q 3047 847 3047 1241 
Q 3047 1584 2836 1778 
Q 2625 1972 2144 2069 
L 1759 2144 
Q 1053 2284 737 2584 
Q 422 2884 422 3419 
Q 422 4038 858 4394 
Q 1294 4750 2059 4750 
Q 2388 4750 2728 4690 
Q 3069 4631 3425 4513 
z
" transform="scale(0.015625)"/>
       <path id="DejaVuSans-52" d="M 2841 2188 
Q 3044 2119 3236 1894 
Q 3428 1669 3622 1275 
L 4263 0 
L 3584 0 
L 2988 1197 
Q 2756 1666 2539 1819 
Q 2322 1972 1947 1972 
L 1259 1972 
L 1259 0 
L 628 0 
L 628 4666 
L 2053 4666 
Q 2853 4666 3247 4331 
Q 3641 3997 3641 3322 
Q 3641 2881 3436 2590 
Q 3231 2300 2841 2188 
z
M 1259 4147 
L 1259 2491 
L 2053 2491 
Q 2509 2491 2742 2702 
Q 2975 2913 2975 3322 
Q 2975 3731 2742 3939 
Q 2509 4147 2053 4147 
L 1259 4147 
z
" transform="scale(0.015625)"/>
       <path id="DejaVuSans-28" d="M 1984 4856 
Q 1566 4138 1362 3434 
Q 1159 2731 1159 2009 
Q 1159 1288 1364 580 
Q 1569 -128 1984 -844 
L 1484 -844 
Q 1016 -109 783 600 
Q 550 1309 550 2009 
Q 550 2706 781 3412 
Q 1013 4119 1484 4856 
L 1984 4856 
z
" transform="scale(0.015625)"/>
       <path id="DejaVuSans-25" d="M 4653 2053 
Q 4381 2053 4226 1822 
Q 4072 1591 4072 1178 
Q 4072 772 4226 539 
Q 4381 306 4653 306 
Q 4919 306 5073 539 
Q 5228 772 5228 1178 
Q 5228 1588 5073 1820 
Q 4919 2053 4653 2053 
z
M 4653 2450 
Q 5147 2450 5437 2106 
Q 5728 1763 5728 1178 
Q 5728 594 5436 251 
Q 5144 -91 4653 -91 
Q 4153 -91 3862 251 
Q 3572 594 3572 1178 
Q 3572 1766 3864 2108 
Q 4156 2450 4653 2450 
z
M 1428 4353 
Q 1159 4353 1004 4120 
Q 850 3888 850 3481 
Q 850 3069 1003 2837 
Q 1156 2606 1428 2606 
Q 1700 2606 1854 2837 
Q 2009 3069 2009 3481 
Q 2009 3884 1853 4118 
Q 1697 4353 1428 4353 
z
M 4250 4750 
L 4750 4750 
L 1831 -91 
L 1331 -91 
L 4250 4750 
z
M 1428 4750 
Q 1922 4750 2215 4408 
Q 2509 4066 2509 3481 
Q 2509 2891 2217 2550 
Q 1925 2209 1428 2209 
Q 931 2209 642 2551 
Q 353 2894 353 3481 
Q 353 4063 643 4406 
Q 934 4750 1428 4750 
z
" transform="scale(0.015625)"/>
       <path id="DejaVuSans-29" d="M 513 4856 
L 1013 4856 
Q 1481 4119 1714 3412 
Q 1947 2706 1947 2009 
Q 1947 1309 1714 600 
Q 1481 -109 1013 -844 
L 513 -844 
Q 928 -128 1133 580 
Q 1338 1288 1338 2009 
Q 1338 2731 1133 3434 
Q 928 4138 513 4856 
z
" transform="scale(0.015625)"/>
      </defs>
      <use xlink:href="#DejaVuSans-53"/>
      <use xlink:href="#DejaVuSans-75" x="63.476562"/>
      <use xlink:href="#DejaVuSans-63" x="126.855469"/>
      <use xlink:href="#DejaVuSans-63" x="181.835938"/>
      <use xlink:href="#DejaVuSans-65" x="236.816406"/>
      <use xlink:href="#DejaVuSans-73" x="298.339844"/>
      <use xlink:href="#DejaVuSans-73" x="350.439453"/>
      <use xlink:href="#DejaVuSans-20" x="402.539062"/>
      <use xlink:href="#DejaVuSans-52" x="434.326172"/>
      <use xlink:href="#DejaVuSans-61" x="501.558594"/>
      <use xlink:href="#DejaVuSans-74" x="562.837891"/>
      <use xlink:href="#DejaVuSans-65" x="602.046875"/>
      <use xlink:href="#DejaVuSans-20" x="663.570312"/>
      <use xlink:href="#DejaVuSans-28" x="695.357422"/>
      <use xlink:href="#DejaVuSans-25" x="734.371094"/>
      <use xlink:href="#DejaVuSans-29" x="829.390625"/>
     </g>
    </g>
   </g>
   <g id="PolyCollection_1">
    <defs>
     <path id="mbde12875ce" d="M 50.836875 -124.1263 
L 50.836875 -124.1263 
L 54.823071 -137.115729 
L 58.809266 -142.154553 
L 62.795462 -140.913496 
L 66.781658 -145.709656 
L 70.767853 -152.336496 
L 74.754049 -153.795454 
L 78.740245 -153.870756 
L 82.72644 -152.900356 
L 86.712636 -152.355486 
L 90.698832 -155.267791 
L 94.685027 -155.173141 
L 98.671223 -154.907412 
L 102.657418 -155.323171 
L 106.643614 -153.865947 
L 110.62981 -154.009394 
L 114.616005 -155.282525 
L 118.602201 -157.978566 
L 122.588397 -159.415386 
L 126.574592 -159.374023 
L 130.560788 -160.038211 
L 134.546984 -161.097357 
L 138.533179 -161.691148 
L 142.519375 -162.819959 
L 146.505571 -164.434723 
L 150.491766 -166.46331 
L 154.477962 -169.699273 
L 158.464158 -171.764929 
L 162.450353 -171.090489 
L 166.436549 -169.419866 
L 170.422745 -168.767858 
L 174.40894 -168.541146 
L 178.395136 -169.169342 
L 182.381332 -170.666153 
L 186.367527 -170.619556 
L 190.353723 -169.368266 
L 194.339918 -169.900413 
L 198.326114 -171.534538 
L 202.31231 -172.10707 
L 206.298505 -172.735986 
L 210.284701 -173.572394 
L 214.270897 -172.961766 
L 218.257092 -172.266898 
L 222.243288 -172.726025 
L 226.229484 -173.626053 
L 230.215679 -173.994466 
L 234.201875 -173.367907 
L 238.188071 -172.799047 
L 242.174266 -172.929103 
L 246.160462 -173.29595 
L 250.146658 -173.704827 
L 254.132853 -174.251374 
L 258.119049 -174.709414 
L 262.105245 -174.804049 
L 266.09144 -174.660395 
L 270.077636 -174.554956 
L 274.063832 -174.531133 
L 278.050027 -174.52918 
L 282.036223 -174.529122 
L 286.022418 -174.529122 
L 290.008614 -174.529122 
L 293.99481 -174.529122 
L 297.981005 -174.529122 
L 301.967201 -174.529122 
L 305.953397 -174.529122 
L 309.939592 -174.529122 
L 313.925788 -174.529122 
L 317.911984 -174.529122 
L 321.898179 -174.529122 
L 325.884375 -174.529122 
L 329.870571 -174.529122 
L 333.856766 -174.529122 
L 337.842962 -174.529122 
L 341.829158 -174.529122 
L 345.815353 -174.529122 
L 349.801549 -174.529122 
L 353.787745 -174.529122 
L 357.77394 -174.529122 
L 361.760136 -174.529122 
L 365.746332 -174.529122 
L 369.732527 -174.529122 
L 373.718723 -174.529122 
L 377.704918 -174.529122 
L 381.691114 -174.529122 
L 385.67731 -174.529122 
L 389.663505 -174.529122 
L 393.649701 -174.529122 
L 397.635897 -174.529122 
L 401.622092 -174.529122 
L 405.608288 -174.529122 
L 409.594484 -174.529122 
L 413.580679 -174.529122 
L 417.566875 -174.529122 
L 421.553071 -174.529122 
L 421.553071 -174.529122 
L 421.553071 -174.529122 
L 417.566875 -174.529122 
L 413.580679 -174.529122 
L 409.594484 -174.529122 
L 405.608288 -174.529122 
L 401.622092 -174.529122 
L 397.635897 -174.529122 
L 393.649701 -174.529122 
L 389.663505 -174.529122 
L 385.67731 -174.529122 
L 381.691114 -174.529122 
L 377.704918 -174.529122 
L 373.718723 -174.529122 
L 369.732527 -174.529122 
L 365.746332 -174.529122 
L 361.760136 -174.529122 
L 357.77394 -174.529122 
L 353.787745 -174.529122 
L 349.801549 -174.529122 
L 345.815353 -174.529122 
L 341.829158 -174.529122 
L 337.842962 -174.529122 
L 333.856766 -174.529122 
L 329.870571 -174.529122 
L 325.884375 -174.529122 
L 321.898179 -174.529122 
L 317.911984 -174.529122 
L 313.925788 -174.529122 
L 309.939592 -174.529122 
L 305.953397 -174.529122 
L 301.967201 -174.529122 
L 297.981005 -174.529122 
L 293.99481 -174.529122 
L 290.008614 -174.529122 
L 286.022418 -174.529122 
L 282.036223 -174.529122 
L 278.050027 -174.528762 
L 274.063832 -174.516829 
L 270.077636 -174.370904 
L 266.09144 -173.704957 
L 262.105245 -172.483133 
L 258.119049 -171.197763 
L 254.132853 -169.872194 
L 250.146658 -168.641893 
L 246.160462 -167.405503 
L 242.174266 -166.102359 
L 238.188071 -165.229255 
L 234.201875 -165.217723 
L 230.215679 -165.370044 
L 226.229484 -164.549069 
L 222.243288 -163.325996 
L 218.257092 -162.70797 
L 214.270897 -163.095973 
L 210.284701 -162.756464 
L 206.298505 -161.010346 
L 202.31231 -160.019789 
L 198.326114 -159.437664 
L 194.339918 -158.009232 
L 190.353723 -158.058295 
L 186.367527 -159.41853 
L 182.381332 -159.652393 
L 178.395136 -158.463188 
L 174.40894 -157.275043 
L 170.422745 -156.499535 
L 166.436549 -155.964372 
L 162.450353 -157.091395 
L 158.464158 -158.078645 
L 154.477962 -155.89598 
L 150.491766 -152.063859 
L 146.505571 -150.805234 
L 142.519375 -150.019571 
L 138.533179 -147.503583 
L 134.546984 -143.796942 
L 130.560788 -142.115123 
L 126.574592 -143.335892 
L 122.588397 -144.688346 
L 118.602201 -143.302526 
L 114.616005 -139.37963 
L 110.62981 -137.111656 
L 106.643614 -136.808308 
L 102.657418 -137.005495 
L 98.671223 -134.822101 
L 94.685027 -135.656662 
L 90.698832 -136.679233 
L 86.712636 -132.424262 
L 82.72644 -131.280885 
L 78.740245 -129.771225 
L 74.754049 -128.244569 
L 70.767853 -130.068276 
L 66.781658 -125.510469 
L 62.795462 -117.719264 
L 58.809266 -119.943566 
L 54.823071 -123.974248 
L 50.836875 -124.1263 
z
" style="stroke: #8e0052; stroke-opacity: 0.1"/>
    </defs>
    <g clip-path="url(#pd569a651c5)">
     <use xlink:href="#mbde12875ce" x="0" y="424.106719" style="fill: #8e0052; fill-opacity: 0.1; stroke: #8e0052; stroke-opacity: 0.1"/>
    </g>
   </g>
   <g id="PolyCollection_2">
    <defs>
     <path id="m64a4dcb6b0" d="M 50.836875 -174.3031 
L 50.836875 -174.3031 
L 54.823071 -173.989662 
L 58.809266 -178.391219 
L 62.795462 -187.129799 
L 66.781658 -194.645368 
L 70.767853 -201.3677 
L 74.754049 -206.120605 
L 78.740245 -212.196019 
L 82.72644 -218.292958 
L 86.712636 -218.3503 
L 90.698832 -215.969688 
L 94.685027 -216.115902 
L 98.671223 -217.710592 
L 102.657418 -218.250881 
L 106.643614 -218.617843 
L 110.62981 -220.370668 
L 114.616005 -222.635229 
L 118.602201 -223.41519 
L 122.588397 -223.520136 
L 126.574592 -223.870026 
L 130.560788 -223.799422 
L 134.546984 -224.124727 
L 138.533179 -224.083128 
L 142.519375 -223.75003 
L 146.505571 -224.017288 
L 150.491766 -224.38805 
L 154.477962 -223.7369 
L 158.464158 -223.021392 
L 162.450353 -222.603949 
L 166.436549 -222.003984 
L 170.422745 -221.818852 
L 174.40894 -221.623744 
L 178.395136 -221.47615 
L 182.381332 -221.684388 
L 186.367527 -222.087428 
L 190.353723 -222.775482 
L 194.339918 -223.761988 
L 198.326114 -224.317571 
L 202.31231 -224.500384 
L 206.298505 -224.652633 
L 210.284701 -224.736716 
L 214.270897 -224.754661 
L 218.257092 -224.756106 
L 222.243288 -224.756149 
L 226.229484 -224.756149 
L 230.215679 -224.756149 
L 234.201875 -224.756149 
L 238.188071 -224.756149 
L 242.174266 -224.756149 
L 246.160462 -224.756149 
L 250.146658 -224.756149 
L 254.132853 -224.756149 
L 258.119049 -224.756149 
L 262.105245 -224.756149 
L 266.09144 -224.756149 
L 270.077636 -224.756149 
L 274.063832 -224.756149 
L 278.050027 -224.756149 
L 282.036223 -224.756149 
L 286.022418 -224.756149 
L 290.008614 -224.756149 
L 293.99481 -224.756149 
L 297.981005 -224.756149 
L 301.967201 -224.756149 
L 305.953397 -224.756149 
L 309.939592 -224.756149 
L 313.925788 -224.756149 
L 317.911984 -224.756149 
L 321.898179 -224.756149 
L 325.884375 -224.756149 
L 329.870571 -224.756149 
L 333.856766 -224.756149 
L 337.842962 -224.756149 
L 341.829158 -224.756149 
L 345.815353 -224.756149 
L 349.801549 -224.756149 
L 353.787745 -224.756149 
L 357.77394 -224.756149 
L 361.760136 -224.756149 
L 365.746332 -224.756149 
L 369.732527 -224.756149 
L 373.718723 -224.756149 
L 377.704918 -224.756149 
L 381.691114 -224.756149 
L 385.67731 -224.756149 
L 389.663505 -224.756149 
L 393.649701 -224.756149 
L 397.635897 -224.756149 
L 401.622092 -224.756149 
L 405.608288 -224.756149 
L 409.594484 -224.756149 
L 413.580679 -224.756149 
L 417.566875 -224.756149 
L 421.553071 -224.756149 
L 421.553071 -224.756149 
L 421.553071 -224.756149 
L 417.566875 -224.756149 
L 413.580679 -224.756149 
L 409.594484 -224.756149 
L 405.608288 -224.756149 
L 401.622092 -224.756149 
L 397.635897 -224.756149 
L 393.649701 -224.756149 
L 389.663505 -224.756149 
L 385.67731 -224.756149 
L 381.691114 -224.756149 
L 377.704918 -224.756149 
L 373.718723 -224.756149 
L 369.732527 -224.756149 
L 365.746332 -224.756149 
L 361.760136 -224.756149 
L 357.77394 -224.756149 
L 353.787745 -224.756149 
L 349.801549 -224.756149 
L 345.815353 -224.756149 
L 341.829158 -224.756149 
L 337.842962 -224.756149 
L 333.856766 -224.756149 
L 329.870571 -224.756149 
L 325.884375 -224.756149 
L 321.898179 -224.756149 
L 317.911984 -224.756149 
L 313.925788 -224.756149 
L 309.939592 -224.756149 
L 305.953397 -224.756149 
L 301.967201 -224.756149 
L 297.981005 -224.756149 
L 293.99481 -224.756149 
L 290.008614 -224.756149 
L 286.022418 -224.756149 
L 282.036223 -224.756149 
L 278.050027 -224.756149 
L 274.063832 -224.756149 
L 270.077636 -224.756149 
L 266.09144 -224.756149 
L 262.105245 -224.756149 
L 258.119049 -224.756149 
L 254.132853 -224.756149 
L 250.146658 -224.756149 
L 246.160462 -224.756149 
L 242.174266 -224.756149 
L 238.188071 -224.756149 
L 234.201875 -224.756149 
L 230.215679 -224.756149 
L 226.229484 -224.756149 
L 222.243288 -224.756149 
L 218.257092 -224.755885 
L 214.270897 -224.746969 
L 210.284701 -224.634803 
L 206.298505 -224.088488 
L 202.31231 -222.98051 
L 198.326114 -221.788526 
L 194.339918 -220.356766 
L 190.353723 -218.530362 
L 186.367527 -217.270109 
L 182.381332 -216.574104 
L 178.395136 -216.327791 
L 174.40894 -216.577476 
L 170.422745 -216.449039 
L 166.436549 -215.768778 
L 162.450353 -215.700213 
L 158.464158 -216.305008 
L 154.477962 -217.142258 
L 150.491766 -217.392681 
L 146.505571 -216.877122 
L 142.519375 -216.689427 
L 138.533179 -216.900489 
L 134.546984 -216.942504 
L 130.560788 -216.457914 
L 126.574592 -216.446892 
L 122.588397 -215.711592 
L 118.602201 -214.768671 
L 114.616005 -213.502317 
L 110.62981 -211.177005 
L 106.643614 -209.577052 
L 102.657418 -208.281796 
L 98.671223 -206.15088 
L 94.685027 -203.614319 
L 90.698832 -203.516535 
L 86.712636 -206.877827 
L 82.72644 -207.563632 
L 78.740245 -199.053662 
L 74.754049 -188.516283 
L 70.767853 -184.154567 
L 66.781658 -179.53271 
L 62.795462 -173.313824 
L 58.809266 -169.047013 
L 54.823071 -169.865723 
L 50.836875 -174.3031 
z
" style="stroke: #276319; stroke-opacity: 0.1"/>
    </defs>
    <g clip-path="url(#pd569a651c5)">
     <use xlink:href="#m64a4dcb6b0" x="0" y="424.106719" style="fill: #276319; fill-opacity: 0.1; stroke: #276319; stroke-opacity: 0.1"/>
    </g>
   </g>
   <g id="PolyCollection_3">
    <defs>
     <path id="m395d932707" d="M 50.836875 -149.2147 
L 50.836875 -149.2147 
L 54.823071 -148.374199 
L 58.809266 -152.853989 
L 62.795462 -161.618381 
L 66.781658 -168.163178 
L 70.767853 -176.562167 
L 74.754049 -186.792549 
L 78.740245 -193.471076 
L 82.72644 -195.831915 
L 86.712636 -197.827475 
L 90.698832 -198.06535 
L 94.685027 -198.806448 
L 98.671223 -200.9459 
L 102.657418 -202.414973 
L 106.643614 -205.114966 
L 110.62981 -207.4157 
L 114.616005 -206.538962 
L 118.602201 -206.201464 
L 122.588397 -209.567509 
L 126.574592 -212.840501 
L 130.560788 -213.212754 
L 134.546984 -212.495113 
L 138.533179 -212.124863 
L 142.519375 -213.561658 
L 146.505571 -215.099837 
L 150.491766 -216.065263 
L 154.477962 -217.575593 
L 158.464158 -217.971084 
L 162.450353 -218.022002 
L 166.436549 -218.99152 
L 170.422745 -220.405967 
L 174.40894 -221.305418 
L 178.395136 -221.882862 
L 182.381332 -222.833617 
L 186.367527 -223.257669 
L 190.353723 -222.940403 
L 194.339918 -222.551271 
L 198.326114 -221.793185 
L 202.31231 -221.562358 
L 206.298505 -222.097976 
L 210.284701 -222.694891 
L 214.270897 -223.205615 
L 218.257092 -223.690928 
L 222.243288 -224.190963 
L 226.229484 -224.425998 
L 230.215679 -224.285005 
L 234.201875 -224.554968 
L 238.188071 -224.992773 
L 242.174266 -225.010871 
L 246.160462 -225.399619 
L 250.146658 -226.215421 
L 254.132853 -226.716094 
L 258.119049 -226.994627 
L 262.105245 -226.909205 
L 266.09144 -226.586362 
L 270.077636 -226.97894 
L 274.063832 -227.479379 
L 278.050027 -227.315188 
L 282.036223 -227.545222 
L 286.022418 -228.288491 
L 290.008614 -229.1684 
L 293.99481 -229.707194 
L 297.981005 -229.170531 
L 301.967201 -228.467788 
L 305.953397 -228.271036 
L 309.939592 -228.557134 
L 313.925788 -228.683951 
L 317.911984 -228.719774 
L 321.898179 -229.207914 
L 325.884375 -229.567113 
L 329.870571 -229.464463 
L 333.856766 -229.386095 
L 337.842962 -229.524095 
L 341.829158 -229.6584 
L 345.815353 -229.691949 
L 349.801549 -229.594592 
L 353.787745 -229.638288 
L 357.77394 -229.904036 
L 361.760136 -229.96073 
L 365.746332 -229.499357 
L 369.732527 -228.819372 
L 373.718723 -228.379115 
L 377.704918 -228.163237 
L 381.691114 -227.928284 
L 385.67731 -227.696196 
L 389.663505 -227.409288 
L 393.649701 -226.993007 
L 397.635897 -226.511469 
L 401.622092 -226.038288 
L 405.608288 -225.472698 
L 409.594484 -224.995637 
L 413.580679 -224.796227 
L 417.566875 -224.75906 
L 421.553071 -224.75623 
L 421.553071 -224.756099 
L 421.553071 -224.756099 
L 417.566875 -224.75448 
L 413.580679 -224.735354 
L 409.594484 -224.656938 
L 405.608288 -224.560793 
L 401.622092 -224.568522 
L 397.635897 -224.660789 
L 393.649701 -224.726845 
L 389.663505 -224.697549 
L 385.67731 -224.731145 
L 381.691114 -224.841598 
L 377.704918 -224.854464 
L 373.718723 -224.859575 
L 369.732527 -225.089273 
L 365.746332 -225.395942 
L 361.760136 -225.484127 
L 357.77394 -225.271526 
L 353.787745 -224.87626 
L 349.801549 -224.629899 
L 345.815353 -224.736645 
L 341.829158 -224.671429 
L 337.842962 -224.424321 
L 333.856766 -224.316379 
L 329.870571 -224.407187 
L 325.884375 -224.38705 
L 321.898179 -223.852883 
L 317.911984 -223.099322 
L 313.925788 -222.859103 
L 309.939592 -222.813256 
L 305.953397 -222.683468 
L 301.967201 -222.811962 
L 297.981005 -223.336479 
L 293.99481 -223.793696 
L 290.008614 -223.2193 
L 286.022418 -222.077116 
L 282.036223 -221.143779 
L 278.050027 -220.899887 
L 274.063832 -220.857746 
L 270.077636 -220.22269 
L 266.09144 -219.835745 
L 262.105245 -219.924785 
L 258.119049 -219.631321 
L 254.132853 -218.821696 
L 250.146658 -218.063056 
L 246.160462 -217.560548 
L 242.174266 -217.523799 
L 238.188071 -217.086053 
L 234.201875 -216.101713 
L 230.215679 -215.930549 
L 226.229484 -216.186948 
L 222.243288 -215.957433 
L 218.257092 -215.295795 
L 214.270897 -214.332685 
L 210.284701 -213.201296 
L 206.298505 -212.293548 
L 202.31231 -211.676419 
L 198.326114 -211.902698 
L 194.339918 -212.928731 
L 190.353723 -213.809737 
L 186.367527 -214.337013 
L 182.381332 -213.913083 
L 178.395136 -213.009478 
L 174.40894 -212.283522 
L 170.422745 -210.517429 
L 166.436549 -208.462591 
L 162.450353 -207.851228 
L 158.464158 -208.641576 
L 154.477962 -208.07712 
L 150.491766 -205.262408 
L 146.505571 -203.2052 
L 142.519375 -201.557495 
L 138.533179 -200.765783 
L 134.546984 -200.794349 
L 130.560788 -200.382963 
L 126.574592 -199.437313 
L 122.588397 -196.334175 
L 118.602201 -192.158565 
L 114.616005 -190.905871 
L 110.62981 -190.2614 
L 106.643614 -187.616341 
L 102.657418 -185.367878 
L 98.671223 -184.286409 
L 94.685027 -182.292881 
L 90.698832 -180.809803 
L 86.712636 -180.738079 
L 82.72644 -179.593112 
L 78.740245 -176.868145 
L 74.754049 -168.325021 
L 70.767853 -158.08905 
L 66.781658 -151.51072 
L 62.795462 -148.165299 
L 58.809266 -145.719247 
L 54.823071 -146.125174 
L 50.836875 -149.2147 
z
" style="stroke: #6f9fc7; stroke-opacity: 0.1"/>
    </defs>
    <g clip-path="url(#pd569a651c5)">
     <use xlink:href="#m395d932707" x="0" y="424.106719" style="fill: #6f9fc7; fill-opacity: 0.1; stroke: #6f9fc7; stroke-opacity: 0.1"/>
    </g>
   </g>
   <g id="line2d_24">
    <path d="M 50.836875 299.980419 
L 54.823071 291.371484 
L 58.809266 289.355828 
L 62.795462 290.924633 
L 66.781658 285.130125 
L 70.767853 279.192963 
L 74.754049 278.828226 
L 78.740245 278.26914 
L 82.72644 278.412853 
L 86.712636 278.394974 
L 90.698832 275.035114 
L 94.685027 275.439071 
L 98.671223 275.89441 
L 102.657418 274.88944 
L 106.643614 275.926651 
L 110.62981 275.729904 
L 114.616005 274.125158 
L 118.602201 271.020166 
L 122.588397 269.600346 
L 126.574592 270.078739 
L 130.560788 270.04287 
L 134.546984 268.776167 
L 138.533179 267.144759 
L 142.519375 265.553556 
L 146.505571 264.215159 
L 150.491766 262.443226 
L 154.477962 259.008543 
L 158.464158 256.903885 
L 162.450353 257.682594 
L 166.436549 259.172018 
L 170.422745 259.428302 
L 174.40894 259.32094 
L 178.395136 258.506094 
L 182.381332 257.111819 
L 186.367527 257.220838 
L 190.353723 258.508443 
L 194.339918 258.170032 
L 198.326114 256.604472 
L 202.31231 256.028743 
L 206.298505 255.27928 
L 210.284701 254.139635 
L 214.270897 254.43355 
L 218.257092 255.02613 
L 222.243288 254.514036 
L 226.229484 253.506327 
L 230.215679 252.98706 
L 234.201875 253.45554 
L 238.188071 253.830936 
L 242.174266 253.453197 
L 246.160462 252.774251 
L 250.146658 252.089536 
L 254.132853 251.315071 
L 258.119049 250.567855 
L 262.105245 250.076308 
L 266.09144 249.764804 
L 270.077636 249.613114 
L 274.063832 249.580353 
L 278.050027 249.577678 
L 282.036223 249.577597 
L 286.022418 249.577597 
L 290.008614 249.577597 
L 293.99481 249.577597 
L 297.981005 249.577597 
L 301.967201 249.577597 
L 305.953397 249.577597 
L 309.939592 249.577597 
L 313.925788 249.577597 
L 317.911984 249.577597 
L 321.898179 249.577597 
L 325.884375 249.577597 
L 329.870571 249.577597 
L 333.856766 249.577597 
L 337.842962 249.577597 
L 341.829158 249.577597 
L 345.815353 249.577597 
L 349.801549 249.577597 
L 353.787745 249.577597 
L 357.77394 249.577597 
L 361.760136 249.577597 
L 365.746332 249.577597 
L 369.732527 249.577597 
L 373.718723 249.577597 
L 377.704918 249.577597 
L 381.691114 249.577597 
L 385.67731 249.577597 
L 389.663505 249.577597 
L 393.649701 249.577597 
L 397.635897 249.577597 
L 401.622092 249.577597 
L 405.608288 249.577597 
L 409.594484 249.577597 
L 413.580679 249.577597 
L 417.566875 249.577597 
L 421.553071 249.577597 
" clip-path="url(#pd569a651c5)" style="fill: none; stroke: #8e0052; stroke-width: 2; stroke-linecap: square"/>
   </g>
   <g id="line2d_25">
    <path d="M 50.836875 299.980419 
L 54.823071 286.99099 
L 58.809266 281.952166 
L 62.795462 283.193222 
L 66.781658 278.397063 
L 70.767853 271.770223 
L 74.754049 270.311265 
L 78.740245 270.235962 
L 82.72644 271.206362 
L 86.712636 271.751233 
L 90.698832 268.838927 
L 94.685027 268.933577 
L 98.671223 269.199307 
L 102.657418 268.783548 
L 106.643614 270.240771 
L 110.62981 270.097324 
L 114.616005 268.824193 
L 118.602201 266.128153 
L 122.588397 264.691333 
L 126.574592 264.732695 
L 130.560788 264.068508 
L 134.546984 263.009361 
L 138.533179 262.415571 
L 142.519375 261.286759 
L 146.505571 259.671996 
L 150.491766 257.643409 
L 154.477962 254.407446 
L 158.464158 252.34179 
L 162.450353 253.01623 
L 166.436549 254.686853 
L 170.422745 255.338861 
L 174.40894 255.565572 
L 178.395136 254.937376 
L 182.381332 253.440566 
L 186.367527 253.487163 
L 190.353723 254.738452 
L 194.339918 254.206305 
L 198.326114 252.572181 
L 202.31231 251.999649 
L 206.298505 251.370733 
L 210.284701 250.534325 
L 214.270897 251.144953 
L 218.257092 251.839821 
L 222.243288 251.380693 
L 226.229484 250.480666 
L 230.215679 250.112252 
L 234.201875 250.738812 
L 238.188071 251.307672 
L 242.174266 251.177615 
L 246.160462 250.810768 
L 250.146658 250.401892 
L 254.132853 249.855345 
L 258.119049 249.397305 
L 262.105245 249.30267 
L 266.09144 249.446324 
L 270.077636 249.551763 
L 274.063832 249.575585 
L 278.050027 249.577538 
L 282.036223 249.577597 
L 286.022418 249.577597 
L 290.008614 249.577597 
L 293.99481 249.577597 
L 297.981005 249.577597 
L 301.967201 249.577597 
L 305.953397 249.577597 
L 309.939592 249.577597 
L 313.925788 249.577597 
L 317.911984 249.577597 
L 321.898179 249.577597 
L 325.884375 249.577597 
L 329.870571 249.577597 
L 333.856766 249.577597 
L 337.842962 249.577597 
L 341.829158 249.577597 
L 345.815353 249.577597 
L 349.801549 249.577597 
L 353.787745 249.577597 
L 357.77394 249.577597 
L 361.760136 249.577597 
L 365.746332 249.577597 
L 369.732527 249.577597 
L 373.718723 249.577597 
L 377.704918 249.577597 
L 381.691114 249.577597 
L 385.67731 249.577597 
L 389.663505 249.577597 
L 393.649701 249.577597 
L 397.635897 249.577597 
L 401.622092 249.577597 
L 405.608288 249.577597 
L 409.594484 249.577597 
L 413.580679 249.577597 
L 417.566875 249.577597 
L 421.553071 249.577597 
" clip-path="url(#pd569a651c5)" style="fill: none; stroke-dasharray: 3.7,1.6; stroke-dashoffset: 0; stroke: #8e0052"/>
   </g>
   <g id="line2d_26">
    <path d="M 50.836875 299.980419 
L 54.823071 300.132471 
L 58.809266 304.163153 
L 62.795462 306.387455 
L 66.781658 298.596249 
L 70.767853 294.038443 
L 74.754049 295.86215 
L 78.740245 294.335494 
L 82.72644 292.825833 
L 86.712636 291.682457 
L 90.698832 287.427486 
L 94.685027 288.450057 
L 98.671223 289.284617 
L 102.657418 287.101224 
L 106.643614 287.298411 
L 110.62981 286.995063 
L 114.616005 284.727089 
L 118.602201 280.804192 
L 122.588397 279.418373 
L 126.574592 280.770827 
L 130.560788 281.991596 
L 134.546984 280.309777 
L 138.533179 276.603136 
L 142.519375 274.087148 
L 146.505571 273.301485 
L 150.491766 272.04286 
L 154.477962 268.210739 
L 158.464158 266.028074 
L 162.450353 267.015323 
L 166.436549 268.142347 
L 170.422745 267.607184 
L 174.40894 266.831676 
L 178.395136 265.64353 
L 182.381332 264.454326 
L 186.367527 264.688189 
L 190.353723 266.048424 
L 194.339918 266.097487 
L 198.326114 264.669055 
L 202.31231 264.08693 
L 206.298505 263.096373 
L 210.284701 261.350255 
L 214.270897 261.010746 
L 218.257092 261.398749 
L 222.243288 260.780723 
L 226.229484 259.55765 
L 230.215679 258.736675 
L 234.201875 258.888996 
L 238.188071 258.877464 
L 242.174266 258.00436 
L 246.160462 256.701215 
L 250.146658 255.464825 
L 254.132853 254.234525 
L 258.119049 252.908956 
L 262.105245 251.623585 
L 266.09144 250.401762 
L 270.077636 249.735815 
L 274.063832 249.589889 
L 278.050027 249.577957 
L 282.036223 249.577597 
L 286.022418 249.577597 
L 290.008614 249.577597 
L 293.99481 249.577597 
L 297.981005 249.577597 
L 301.967201 249.577597 
L 305.953397 249.577597 
L 309.939592 249.577597 
L 313.925788 249.577597 
L 317.911984 249.577597 
L 321.898179 249.577597 
L 325.884375 249.577597 
L 329.870571 249.577597 
L 333.856766 249.577597 
L 337.842962 249.577597 
L 341.829158 249.577597 
L 345.815353 249.577597 
L 349.801549 249.577597 
L 353.787745 249.577597 
L 357.77394 249.577597 
L 361.760136 249.577597 
L 365.746332 249.577597 
L 369.732527 249.577597 
L 373.718723 249.577597 
L 377.704918 249.577597 
L 381.691114 249.577597 
L 385.67731 249.577597 
L 389.663505 249.577597 
L 393.649701 249.577597 
L 397.635897 249.577597 
L 401.622092 249.577597 
L 405.608288 249.577597 
L 409.594484 249.577597 
L 413.580679 249.577597 
L 417.566875 249.577597 
L 421.553071 249.577597 
" clip-path="url(#pd569a651c5)" style="fill: none; stroke-dasharray: 3.7,1.6; stroke-dashoffset: 0; stroke: #8e0052"/>
   </g>
   <g id="line2d_27">
    <path d="M 50.836875 249.803619 
L 54.823071 251.491703 
L 58.809266 248.830235 
L 62.795462 241.582244 
L 66.781658 234.498904 
L 70.767853 228.476729 
L 74.754049 223.854221 
L 78.740245 216.291485 
L 82.72644 209.390203 
L 86.712636 209.580576 
L 90.698832 212.288082 
L 94.685027 212.158011 
L 98.671223 210.249364 
L 102.657418 209.178866 
L 106.643614 208.502473 
L 110.62981 206.800605 
L 114.616005 204.515794 
L 118.602201 203.573702 
L 122.588397 203.18943 
L 126.574592 202.71107 
L 130.560788 202.754466 
L 134.546984 202.376066 
L 138.533179 202.417804 
L 142.519375 202.710223 
L 146.505571 202.469486 
L 150.491766 202.050458 
L 154.477962 202.568033 
L 158.464158 203.324121 
L 162.450353 203.804015 
L 166.436549 204.181137 
L 170.422745 204.077805 
L 174.40894 204.165064 
L 178.395136 204.346688 
L 182.381332 204.125759 
L 186.367527 203.625064 
L 190.353723 202.746277 
L 194.339918 201.479805 
L 198.326114 200.632163 
L 202.31231 200.11296 
L 206.298505 199.642134 
L 210.284701 199.403974 
L 214.270897 199.354621 
L 218.257092 199.350687 
L 222.243288 199.35057 
L 226.229484 199.35057 
L 230.215679 199.35057 
L 234.201875 199.35057 
L 238.188071 199.35057 
L 242.174266 199.35057 
L 246.160462 199.35057 
L 250.146658 199.35057 
L 254.132853 199.35057 
L 258.119049 199.35057 
L 262.105245 199.35057 
L 266.09144 199.35057 
L 270.077636 199.35057 
L 274.063832 199.35057 
L 278.050027 199.35057 
L 282.036223 199.35057 
L 286.022418 199.35057 
L 290.008614 199.35057 
L 293.99481 199.35057 
L 297.981005 199.35057 
L 301.967201 199.35057 
L 305.953397 199.35057 
L 309.939592 199.35057 
L 313.925788 199.35057 
L 317.911984 199.35057 
L 321.898179 199.35057 
L 325.884375 199.35057 
L 329.870571 199.35057 
L 333.856766 199.35057 
L 337.842962 199.35057 
L 341.829158 199.35057 
L 345.815353 199.35057 
L 349.801549 199.35057 
L 353.787745 199.35057 
L 357.77394 199.35057 
L 361.760136 199.35057 
L 365.746332 199.35057 
L 369.732527 199.35057 
L 373.718723 199.35057 
L 377.704918 199.35057 
L 381.691114 199.35057 
L 385.67731 199.35057 
L 389.663505 199.35057 
L 393.649701 199.35057 
L 397.635897 199.35057 
L 401.622092 199.35057 
L 405.608288 199.35057 
L 409.594484 199.35057 
L 413.580679 199.35057 
L 417.566875 199.35057 
L 421.553071 199.35057 
" clip-path="url(#pd569a651c5)" style="fill: none; stroke: #276319; stroke-width: 2; stroke-linecap: square"/>
   </g>
   <g id="line2d_28">
    <path d="M 50.836875 249.803619 
L 54.823071 250.117057 
L 58.809266 245.7155 
L 62.795462 236.97692 
L 66.781658 229.461351 
L 70.767853 222.739018 
L 74.754049 217.986114 
L 78.740245 211.910699 
L 82.72644 205.813761 
L 86.712636 205.756418 
L 90.698832 208.137031 
L 94.685027 207.990816 
L 98.671223 206.396126 
L 102.657418 205.855838 
L 106.643614 205.488876 
L 110.62981 203.736051 
L 114.616005 201.47149 
L 118.602201 200.691529 
L 122.588397 200.586582 
L 126.574592 200.236692 
L 130.560788 200.307296 
L 134.546984 199.981991 
L 138.533179 200.023591 
L 142.519375 200.356688 
L 146.505571 200.08943 
L 150.491766 199.718669 
L 154.477962 200.369819 
L 158.464158 201.085327 
L 162.450353 201.502769 
L 166.436549 202.102735 
L 170.422745 202.287867 
L 174.40894 202.482974 
L 178.395136 202.630569 
L 182.381332 202.422331 
L 186.367527 202.019291 
L 190.353723 201.331237 
L 194.339918 200.34473 
L 198.326114 199.789148 
L 202.31231 199.606335 
L 206.298505 199.454086 
L 210.284701 199.370002 
L 214.270897 199.352057 
L 218.257092 199.350613 
L 222.243288 199.35057 
L 226.229484 199.35057 
L 230.215679 199.35057 
L 234.201875 199.35057 
L 238.188071 199.35057 
L 242.174266 199.35057 
L 246.160462 199.35057 
L 250.146658 199.35057 
L 254.132853 199.35057 
L 258.119049 199.35057 
L 262.105245 199.35057 
L 266.09144 199.35057 
L 270.077636 199.35057 
L 274.063832 199.35057 
L 278.050027 199.35057 
L 282.036223 199.35057 
L 286.022418 199.35057 
L 290.008614 199.35057 
L 293.99481 199.35057 
L 297.981005 199.35057 
L 301.967201 199.35057 
L 305.953397 199.35057 
L 309.939592 199.35057 
L 313.925788 199.35057 
L 317.911984 199.35057 
L 321.898179 199.35057 
L 325.884375 199.35057 
L 329.870571 199.35057 
L 333.856766 199.35057 
L 337.842962 199.35057 
L 341.829158 199.35057 
L 345.815353 199.35057 
L 349.801549 199.35057 
L 353.787745 199.35057 
L 357.77394 199.35057 
L 361.760136 199.35057 
L 365.746332 199.35057 
L 369.732527 199.35057 
L 373.718723 199.35057 
L 377.704918 199.35057 
L 381.691114 199.35057 
L 385.67731 199.35057 
L 389.663505 199.35057 
L 393.649701 199.35057 
L 397.635897 199.35057 
L 401.622092 199.35057 
L 405.608288 199.35057 
L 409.594484 199.35057 
L 413.580679 199.35057 
L 417.566875 199.35057 
L 421.553071 199.35057 
" clip-path="url(#pd569a651c5)" style="fill: none; stroke-dasharray: 3.7,1.6; stroke-dashoffset: 0; stroke: #276319"/>
   </g>
   <g id="line2d_29">
    <path d="M 50.836875 249.803619 
L 54.823071 254.240996 
L 58.809266 255.059706 
L 62.795462 250.792894 
L 66.781658 244.574008 
L 70.767853 239.952151 
L 74.754049 235.590436 
L 78.740245 225.053057 
L 82.72644 216.543086 
L 86.712636 217.228892 
L 90.698832 220.590183 
L 94.685027 220.4924 
L 98.671223 217.955839 
L 102.657418 215.824923 
L 106.643614 214.529667 
L 110.62981 212.929714 
L 114.616005 210.604402 
L 118.602201 209.338048 
L 122.588397 208.395127 
L 126.574592 207.659827 
L 130.560788 207.648804 
L 134.546984 207.164215 
L 138.533179 207.206229 
L 142.519375 207.417292 
L 146.505571 207.229596 
L 150.491766 206.714037 
L 154.477962 206.964461 
L 158.464158 207.801711 
L 162.450353 208.406506 
L 166.436549 208.337941 
L 170.422745 207.65768 
L 174.40894 207.529243 
L 178.395136 207.778927 
L 182.381332 207.532615 
L 186.367527 206.83661 
L 190.353723 205.576357 
L 194.339918 203.749953 
L 198.326114 202.318193 
L 202.31231 201.126209 
L 206.298505 200.018231 
L 210.284701 199.471916 
L 214.270897 199.359749 
L 218.257092 199.350834 
L 222.243288 199.35057 
L 226.229484 199.35057 
L 230.215679 199.35057 
L 234.201875 199.35057 
L 238.188071 199.35057 
L 242.174266 199.35057 
L 246.160462 199.35057 
L 250.146658 199.35057 
L 254.132853 199.35057 
L 258.119049 199.35057 
L 262.105245 199.35057 
L 266.09144 199.35057 
L 270.077636 199.35057 
L 274.063832 199.35057 
L 278.050027 199.35057 
L 282.036223 199.35057 
L 286.022418 199.35057 
L 290.008614 199.35057 
L 293.99481 199.35057 
L 297.981005 199.35057 
L 301.967201 199.35057 
L 305.953397 199.35057 
L 309.939592 199.35057 
L 313.925788 199.35057 
L 317.911984 199.35057 
L 321.898179 199.35057 
L 325.884375 199.35057 
L 329.870571 199.35057 
L 333.856766 199.35057 
L 337.842962 199.35057 
L 341.829158 199.35057 
L 345.815353 199.35057 
L 349.801549 199.35057 
L 353.787745 199.35057 
L 357.77394 199.35057 
L 361.760136 199.35057 
L 365.746332 199.35057 
L 369.732527 199.35057 
L 373.718723 199.35057 
L 377.704918 199.35057 
L 381.691114 199.35057 
L 385.67731 199.35057 
L 389.663505 199.35057 
L 393.649701 199.35057 
L 397.635897 199.35057 
L 401.622092 199.35057 
L 405.608288 199.35057 
L 409.594484 199.35057 
L 413.580679 199.35057 
L 417.566875 199.35057 
L 421.553071 199.35057 
" clip-path="url(#pd569a651c5)" style="fill: none; stroke-dasharray: 3.7,1.6; stroke-dashoffset: 0; stroke: #276319"/>
   </g>
   <g id="line2d_30">
    <path d="M 50.836875 274.892019 
L 54.823071 276.482195 
L 58.809266 273.630977 
L 62.795462 266.972698 
L 66.781658 261.49436 
L 70.767853 253.702257 
L 74.754049 243.470013 
L 78.740245 236.169953 
L 82.72644 233.687738 
L 86.712636 231.97571 
L 90.698832 231.793218 
L 94.685027 230.804793 
L 98.671223 228.713983 
L 102.657418 227.374111 
L 106.643614 224.824628 
L 110.62981 222.409119 
L 114.616005 222.778787 
L 118.602201 222.586221 
L 122.588397 218.950321 
L 126.574592 215.733947 
L 130.560788 215.170562 
L 134.546984 215.511861 
L 138.533179 215.768216 
L 142.519375 214.546449 
L 146.505571 212.971761 
L 150.491766 211.642408 
L 154.477962 209.697284 
L 158.464158 209.245471 
L 162.450353 209.474974 
L 166.436549 208.624841 
L 170.422745 206.996931 
L 174.40894 205.808599 
L 178.395136 205.181651 
L 182.381332 204.246613 
L 186.367527 203.822602 
L 190.353723 204.209871 
L 194.339918 204.762961 
L 198.326114 205.610363 
L 202.31231 205.839673 
L 206.298505 205.276885 
L 210.284701 204.576359 
L 214.270897 203.858747 
L 218.257092 203.214168 
L 222.243288 202.660266 
L 226.229484 202.427071 
L 230.215679 202.606532 
L 234.201875 202.369502 
L 238.188071 201.749519 
L 242.174266 201.591538 
L 246.160462 201.320123 
L 250.146658 200.608753 
L 254.132853 200.022091 
L 258.119049 199.566527 
L 262.105245 199.525653 
L 266.09144 199.770562 
L 270.077636 199.379862 
L 274.063832 198.834551 
L 278.050027 198.929964 
L 282.036223 198.695311 
L 286.022418 197.888686 
L 290.008614 196.921352 
L 293.99481 196.37069 
L 297.981005 196.880872 
L 301.967201 197.524206 
L 305.953397 197.698205 
L 309.939592 197.46421 
L 313.925788 197.364384 
L 317.911984 197.260429 
L 321.898179 196.683815 
L 325.884375 196.266294 
L 329.870571 196.328014 
L 333.856766 196.410529 
L 337.842962 196.282549 
L 341.829158 196.110642 
L 345.815353 196.066538 
L 349.801549 196.167025 
L 353.787745 196.055774 
L 357.77394 195.746853 
L 361.760136 195.638189 
L 365.746332 195.975167 
L 369.732527 196.530713 
L 373.718723 196.900784 
L 377.704918 197.046406 
L 381.691114 197.20733 
L 385.67731 197.398873 
L 389.663505 197.601344 
L 393.649701 197.869099 
L 397.635897 198.212143 
L 401.622092 198.558353 
L 405.608288 198.937989 
L 409.594484 199.223981 
L 413.580679 199.330783 
L 417.566875 199.349186 
L 421.553071 199.350532 
" clip-path="url(#pd569a651c5)" style="fill: none; stroke: #6f9fc7; stroke-width: 2; stroke-linecap: square"/>
   </g>
   <g id="line2d_31">
    <path d="M 50.836875 274.892019 
L 54.823071 275.732519 
L 58.809266 271.25273 
L 62.795462 262.488338 
L 66.781658 255.943541 
L 70.767853 247.544551 
L 74.754049 237.31417 
L 78.740245 230.635643 
L 82.72644 228.274804 
L 86.712636 226.279244 
L 90.698832 226.041369 
L 94.685027 225.30027 
L 98.671223 223.160819 
L 102.657418 221.691746 
L 106.643614 218.991753 
L 110.62981 216.691018 
L 114.616005 217.567757 
L 118.602201 217.905254 
L 122.588397 214.539209 
L 126.574592 211.266218 
L 130.560788 210.893965 
L 134.546984 211.611606 
L 138.533179 211.981856 
L 142.519375 210.545061 
L 146.505571 209.006882 
L 150.491766 208.041456 
L 154.477962 206.531126 
L 158.464158 206.135635 
L 162.450353 206.084716 
L 166.436549 205.115198 
L 170.422745 203.700752 
L 174.40894 202.8013 
L 178.395136 202.223857 
L 182.381332 201.273102 
L 186.367527 200.84905 
L 190.353723 201.166315 
L 194.339918 201.555447 
L 198.326114 202.313533 
L 202.31231 202.54436 
L 206.298505 202.008742 
L 210.284701 201.411828 
L 214.270897 200.901104 
L 218.257092 200.415791 
L 222.243288 199.915756 
L 226.229484 199.680721 
L 230.215679 199.821714 
L 234.201875 199.551751 
L 238.188071 199.113945 
L 242.174266 199.095847 
L 246.160462 198.7071 
L 250.146658 197.891297 
L 254.132853 197.390624 
L 258.119049 197.112092 
L 262.105245 197.197513 
L 266.09144 197.520357 
L 270.077636 197.127779 
L 274.063832 196.62734 
L 278.050027 196.79153 
L 282.036223 196.561497 
L 286.022418 195.818228 
L 290.008614 194.938319 
L 293.99481 194.399524 
L 297.981005 194.936188 
L 301.967201 195.63893 
L 305.953397 195.835683 
L 309.939592 195.549584 
L 313.925788 195.422768 
L 317.911984 195.386945 
L 321.898179 194.898805 
L 325.884375 194.539606 
L 329.870571 194.642255 
L 333.856766 194.720624 
L 337.842962 194.582624 
L 341.829158 194.448319 
L 345.815353 194.41477 
L 349.801549 194.512127 
L 353.787745 194.468431 
L 357.77394 194.202683 
L 361.760136 194.145988 
L 365.746332 194.607362 
L 369.732527 195.287347 
L 373.718723 195.727604 
L 377.704918 195.943482 
L 381.691114 196.178435 
L 385.67731 196.410522 
L 389.663505 196.697431 
L 393.649701 197.113712 
L 397.635897 197.59525 
L 401.622092 198.068431 
L 405.608288 198.634021 
L 409.594484 199.111082 
L 413.580679 199.310492 
L 417.566875 199.347659 
L 421.553071 199.350489 
" clip-path="url(#pd569a651c5)" style="fill: none; stroke-dasharray: 3.7,1.6; stroke-dashoffset: 0; stroke: #6f9fc7"/>
   </g>
   <g id="line2d_32">
    <path d="M 50.836875 274.892019 
L 54.823071 277.981545 
L 58.809266 278.387472 
L 62.795462 275.941419 
L 66.781658 272.595998 
L 70.767853 266.017669 
L 74.754049 255.781698 
L 78.740245 247.238574 
L 82.72644 244.513606 
L 86.712636 243.36864 
L 90.698832 243.296915 
L 94.685027 241.813838 
L 98.671223 239.82031 
L 102.657418 238.73884 
L 106.643614 236.490377 
L 110.62981 233.845319 
L 114.616005 233.200848 
L 118.602201 231.948153 
L 122.588397 227.772543 
L 126.574592 224.669406 
L 130.560788 223.723756 
L 134.546984 223.312369 
L 138.533179 223.340935 
L 142.519375 222.549224 
L 146.505571 220.901519 
L 150.491766 218.844311 
L 154.477962 216.029599 
L 158.464158 215.465143 
L 162.450353 216.25549 
L 166.436549 215.644128 
L 170.422745 213.58929 
L 174.40894 211.823197 
L 178.395136 211.097241 
L 182.381332 210.193635 
L 186.367527 209.769706 
L 190.353723 210.296982 
L 194.339918 211.177988 
L 198.326114 212.204021 
L 202.31231 212.4303 
L 206.298505 211.81317 
L 210.284701 210.905422 
L 214.270897 209.774034 
L 218.257092 208.810924 
L 222.243288 208.149286 
L 226.229484 207.919771 
L 230.215679 208.17617 
L 234.201875 208.005005 
L 238.188071 207.020666 
L 242.174266 206.58292 
L 246.160462 206.54617 
L 250.146658 206.043663 
L 254.132853 205.285023 
L 258.119049 204.475397 
L 262.105245 204.181933 
L 266.09144 204.270974 
L 270.077636 203.884028 
L 274.063832 203.248972 
L 278.050027 203.206832 
L 282.036223 202.96294 
L 286.022418 202.029603 
L 290.008614 200.887419 
L 293.99481 200.313023 
L 297.981005 200.77024 
L 301.967201 201.294757 
L 305.953397 201.423251 
L 309.939592 201.293463 
L 313.925788 201.247615 
L 317.911984 201.007397 
L 321.898179 200.253835 
L 325.884375 199.719669 
L 329.870571 199.699532 
L 333.856766 199.79034 
L 337.842962 199.682398 
L 341.829158 199.43529 
L 345.815353 199.370074 
L 349.801549 199.476819 
L 353.787745 199.230459 
L 357.77394 198.835193 
L 361.760136 198.622591 
L 365.746332 198.710777 
L 369.732527 199.017446 
L 373.718723 199.247144 
L 377.704918 199.252255 
L 381.691114 199.265121 
L 385.67731 199.375574 
L 389.663505 199.40917 
L 393.649701 199.379874 
L 397.635897 199.445929 
L 401.622092 199.538197 
L 405.608288 199.545925 
L 409.594484 199.44978 
L 413.580679 199.371365 
L 417.566875 199.352239 
L 421.553071 199.35062 
" clip-path="url(#pd569a651c5)" style="fill: none; stroke-dasharray: 3.7,1.6; stroke-dashoffset: 0; stroke: #6f9fc7"/>
   </g>
   <g id="patch_3">
    <path d="M 50.836875 382.679219 
L 50.836875 10.999219 
" style="fill: none; stroke: #000000; stroke-width: 0.8; stroke-linejoin: miter; stroke-linecap: square"/>
   </g>
   <g id="patch_4">
    <path d="M 417.566875 382.679219 
L 417.566875 10.999219 
" style="fill: none; stroke: #000000; stroke-width: 0.8; stroke-linejoin: miter; stroke-linecap: square"/>
   </g>
   <g id="patch_5">
    <path d="M 50.836875 382.679219 
L 417.566875 382.679219 
" style="fill: none; stroke: #000000; stroke-width: 0.8; stroke-linejoin: miter; stroke-linecap: square"/>
   </g>
   <g id="patch_6">
    <path d="M 50.836875 10.999219 
L 417.566875 10.999219 
" style="fill: none; stroke: #000000; stroke-width: 0.8; stroke-linejoin: miter; stroke-linecap: square"/>
   </g>
   <g id="legend_1">
    <g id="patch_7">
     <path d="M 295.366875 377.679219 
L 410.566875 377.679219 
Q 412.566875 377.679219 412.566875 375.679219 
L 412.566875 332.644844 
Q 412.566875 330.644844 410.566875 330.644844 
L 295.366875 330.644844 
Q 293.366875 330.644844 293.366875 332.644844 
L 293.366875 375.679219 
Q 293.366875 377.679219 295.366875 377.679219 
z
" style="fill: #ffffff; opacity: 0.8; stroke: #cccccc; stroke-linejoin: miter"/>
    </g>
    <g id="line2d_33">
     <path d="M 297.366875 338.743281 
L 307.366875 338.743281 
L 317.366875 338.743281 
" style="fill: none; stroke: #8e0052; stroke-width: 2; stroke-linecap: square"/>
    </g>
    <g id="text_17">
     <!-- Non Expert (1-2) -->
     <g transform="translate(325.366875 342.243281) scale(0.1 -0.1)">
      <defs>
       <path id="DejaVuSans-45" d="M 628 4666 
L 3578 4666 
L 3578 4134 
L 1259 4134 
L 1259 2753 
L 3481 2753 
L 3481 2222 
L 1259 2222 
L 1259 531 
L 3634 531 
L 3634 0 
L 628 0 
L 628 4666 
z
" transform="scale(0.015625)"/>
       <path id="DejaVuSans-78" d="M 3513 3500 
L 2247 1797 
L 3578 0 
L 2900 0 
L 1881 1375 
L 863 0 
L 184 0 
L 1544 1831 
L 300 3500 
L 978 3500 
L 1906 2253 
L 2834 3500 
L 3513 3500 
z
" transform="scale(0.015625)"/>
       <path id="DejaVuSans-2d" d="M 313 2009 
L 1997 2009 
L 1997 1497 
L 313 1497 
L 313 2009 
z
" transform="scale(0.015625)"/>
      </defs>
      <use xlink:href="#DejaVuSans-4e"/>
      <use xlink:href="#DejaVuSans-6f" x="74.804688"/>
      <use xlink:href="#DejaVuSans-6e" x="135.986328"/>
      <use xlink:href="#DejaVuSans-20" x="199.365234"/>
      <use xlink:href="#DejaVuSans-45" x="231.152344"/>
      <use xlink:href="#DejaVuSans-78" x="294.335938"/>
      <use xlink:href="#DejaVuSans-70" x="353.515625"/>
      <use xlink:href="#DejaVuSans-65" x="416.992188"/>
      <use xlink:href="#DejaVuSans-72" x="478.515625"/>
      <use xlink:href="#DejaVuSans-74" x="519.628906"/>
      <use xlink:href="#DejaVuSans-20" x="558.837891"/>
      <use xlink:href="#DejaVuSans-28" x="590.625"/>
      <use xlink:href="#DejaVuSans-31" x="629.638672"/>
      <use xlink:href="#DejaVuSans-2d" x="693.261719"/>
      <use xlink:href="#DejaVuSans-32" x="729.345703"/>
      <use xlink:href="#DejaVuSans-29" x="792.96875"/>
     </g>
    </g>
    <g id="line2d_34">
     <path d="M 297.366875 353.421406 
L 307.366875 353.421406 
L 317.366875 353.421406 
" style="fill: none; stroke: #276319; stroke-width: 2; stroke-linecap: square"/>
    </g>
    <g id="text_18">
     <!-- Expert (3-5) -->
     <g transform="translate(325.366875 356.921406) scale(0.1 -0.1)">
      <use xlink:href="#DejaVuSans-45"/>
      <use xlink:href="#DejaVuSans-78" x="63.183594"/>
      <use xlink:href="#DejaVuSans-70" x="122.363281"/>
      <use xlink:href="#DejaVuSans-65" x="185.839844"/>
      <use xlink:href="#DejaVuSans-72" x="247.363281"/>
      <use xlink:href="#DejaVuSans-74" x="288.476562"/>
      <use xlink:href="#DejaVuSans-20" x="327.685547"/>
      <use xlink:href="#DejaVuSans-28" x="359.472656"/>
      <use xlink:href="#DejaVuSans-33" x="398.486328"/>
      <use xlink:href="#DejaVuSans-2d" x="462.109375"/>
      <use xlink:href="#DejaVuSans-35" x="498.193359"/>
      <use xlink:href="#DejaVuSans-29" x="561.816406"/>
     </g>
    </g>
    <g id="line2d_35">
     <path d="M 297.366875 368.099531 
L 307.366875 368.099531 
L 317.366875 368.099531 
" style="fill: none; stroke: #6f9fc7; stroke-width: 2; stroke-linecap: square"/>
    </g>
    <g id="text_19">
     <!-- All -->
     <g transform="translate(325.366875 371.599531) scale(0.1 -0.1)">
      <defs>
       <path id="DejaVuSans-41" d="M 2188 4044 
L 1331 1722 
L 3047 1722 
L 2188 4044 
z
M 1831 4666 
L 2547 4666 
L 4325 0 
L 3669 0 
L 3244 1197 
L 1141 1197 
L 716 0 
L 50 0 
L 1831 4666 
z
" transform="scale(0.015625)"/>
       <path id="DejaVuSans-6c" d="M 603 4863 
L 1178 4863 
L 1178 0 
L 603 0 
L 603 4863 
z
" transform="scale(0.015625)"/>
      </defs>
      <use xlink:href="#DejaVuSans-41"/>
      <use xlink:href="#DejaVuSans-6c" x="68.408203"/>
      <use xlink:href="#DejaVuSans-6c" x="96.191406"/>
     </g>
    </g>
   </g>
  </g>
 </g>
 <defs>
  <clipPath id="pd569a651c5">
   <rect x="50.836875" y="10.999219" width="366.73" height="371.68"/>
  </clipPath>
 </defs>
</svg>
