<?xml version="1.0" encoding="utf-8" standalone="no"?>
<!DOCTYPE svg PUBLIC "-//W3C//DTD SVG 1.1//EN"
  "http://www.w3.org/Graphics/SVG/1.1/DTD/svg11.dtd">
<svg xmlns:xlink="http://www.w3.org/1999/xlink" width="388.766875pt" height="352.106719pt" viewBox="0 0 388.766875 352.106719" xmlns="http://www.w3.org/2000/svg" version="1.1">
 <metadata>
  <rdf:RDF xmlns:dc="http://purl.org/dc/elements/1.1/" xmlns:cc="http://creativecommons.org/ns#" xmlns:rdf="http://www.w3.org/1999/02/22-rdf-syntax-ns#">
   <cc:Work>
    <dc:type rdf:resource="http://purl.org/dc/dcmitype/StillImage"/>
    <dc:date>2024-04-15T09:34:40.360637</dc:date>
    <dc:format>image/svg+xml</dc:format>
    <dc:creator>
     <cc:Agent>
      <dc:title>Matplotlib v3.6.2, https://matplotlib.org/</dc:title>
     </cc:Agent>
    </dc:creator>
   </cc:Work>
  </rdf:RDF>
 </metadata>
 <defs>
  <style type="text/css">*{stroke-linejoin: round; stroke-linecap: butt}</style>
 </defs>
 <g id="figure_1">
  <g id="patch_1">
   <path d="M 0 352.106719 
L 388.766875 352.106719 
L 388.766875 0 
L 0 0 
z
" style="fill: #ffffff"/>
  </g>
  <g id="axes_1">
   <g id="patch_2">
    <path d="M 50.836875 310.679219 
L 381.566875 310.679219 
L 381.566875 10.999219 
L 50.836875 10.999219 
z
" style="fill: #ffffff"/>
   </g>
   <g id="matplotlib.axis_1">
    <g id="xtick_1">
     <g id="line2d_1">
      <defs>
       <path id="mbb9997c712" d="M 0 0 
L 0 3.5 
" style="stroke: #000000; stroke-width: 0.8"/>
      </defs>
      <g>
       <use xlink:href="#mbb9997c712" x="105.958542" y="310.679219" style="stroke: #000000; stroke-width: 0.8"/>
      </g>
     </g>
     <g id="text_1">
      <!-- Non-Expert (1-2) -->
      <g transform="translate(64.143698 325.277656) scale(0.1 -0.1)">
       <defs>
        <path id="DejaVuSans-4e" d="M 628 4666 
L 1478 4666 
L 3547 763 
L 3547 4666 
L 4159 4666 
L 4159 0 
L 3309 0 
L 1241 3903 
L 1241 0 
L 628 0 
L 628 4666 
z
" transform="scale(0.015625)"/>
        <path id="DejaVuSans-6f" d="M 1959 3097 
Q 1497 3097 1228 2736 
Q 959 2375 959 1747 
Q 959 1119 1226 758 
Q 1494 397 1959 397 
Q 2419 397 2687 759 
Q 2956 1122 2956 1747 
Q 2956 2369 2687 2733 
Q 2419 3097 1959 3097 
z
M 1959 3584 
Q 2709 3584 3137 3096 
Q 3566 2609 3566 1747 
Q 3566 888 3137 398 
Q 2709 -91 1959 -91 
Q 1206 -91 779 398 
Q 353 888 353 1747 
Q 353 2609 779 3096 
Q 1206 3584 1959 3584 
z
" transform="scale(0.015625)"/>
        <path id="DejaVuSans-6e" d="M 3513 2113 
L 3513 0 
L 2938 0 
L 2938 2094 
Q 2938 2591 2744 2837 
Q 2550 3084 2163 3084 
Q 1697 3084 1428 2787 
Q 1159 2491 1159 1978 
L 1159 0 
L 581 0 
L 581 3500 
L 1159 3500 
L 1159 2956 
Q 1366 3272 1645 3428 
Q 1925 3584 2291 3584 
Q 2894 3584 3203 3211 
Q 3513 2838 3513 2113 
z
" transform="scale(0.015625)"/>
        <path id="DejaVuSans-2d" d="M 313 2009 
L 1997 2009 
L 1997 1497 
L 313 1497 
L 313 2009 
z
" transform="scale(0.015625)"/>
        <path id="DejaVuSans-45" d="M 628 4666 
L 3578 4666 
L 3578 4134 
L 1259 4134 
L 1259 2753 
L 3481 2753 
L 3481 2222 
L 1259 2222 
L 1259 531 
L 3634 531 
L 3634 0 
L 628 0 
L 628 4666 
z
" transform="scale(0.015625)"/>
        <path id="DejaVuSans-78" d="M 3513 3500 
L 2247 1797 
L 3578 0 
L 2900 0 
L 1881 1375 
L 863 0 
L 184 0 
L 1544 1831 
L 300 3500 
L 978 3500 
L 1906 2253 
L 2834 3500 
L 3513 3500 
z
" transform="scale(0.015625)"/>
        <path id="DejaVuSans-70" d="M 1159 525 
L 1159 -1331 
L 581 -1331 
L 581 3500 
L 1159 3500 
L 1159 2969 
Q 1341 3281 1617 3432 
Q 1894 3584 2278 3584 
Q 2916 3584 3314 3078 
Q 3713 2572 3713 1747 
Q 3713 922 3314 415 
Q 2916 -91 2278 -91 
Q 1894 -91 1617 61 
Q 1341 213 1159 525 
z
M 3116 1747 
Q 3116 2381 2855 2742 
Q 2594 3103 2138 3103 
Q 1681 3103 1420 2742 
Q 1159 2381 1159 1747 
Q 1159 1113 1420 752 
Q 1681 391 2138 391 
Q 2594 391 2855 752 
Q 3116 1113 3116 1747 
z
" transform="scale(0.015625)"/>
        <path id="DejaVuSans-65" d="M 3597 1894 
L 3597 1613 
L 953 1613 
Q 991 1019 1311 708 
Q 1631 397 2203 397 
Q 2534 397 2845 478 
Q 3156 559 3463 722 
L 3463 178 
Q 3153 47 2828 -22 
Q 2503 -91 2169 -91 
Q 1331 -91 842 396 
Q 353 884 353 1716 
Q 353 2575 817 3079 
Q 1281 3584 2069 3584 
Q 2775 3584 3186 3129 
Q 3597 2675 3597 1894 
z
M 3022 2063 
Q 3016 2534 2758 2815 
Q 2500 3097 2075 3097 
Q 1594 3097 1305 2825 
Q 1016 2553 972 2059 
L 3022 2063 
z
" transform="scale(0.015625)"/>
        <path id="DejaVuSans-72" d="M 2631 2963 
Q 2534 3019 2420 3045 
Q 2306 3072 2169 3072 
Q 1681 3072 1420 2755 
Q 1159 2438 1159 1844 
L 1159 0 
L 581 0 
L 581 3500 
L 1159 3500 
L 1159 2956 
Q 1341 3275 1631 3429 
Q 1922 3584 2338 3584 
Q 2397 3584 2469 3576 
Q 2541 3569 2628 3553 
L 2631 2963 
z
" transform="scale(0.015625)"/>
        <path id="DejaVuSans-74" d="M 1172 4494 
L 1172 3500 
L 2356 3500 
L 2356 3053 
L 1172 3053 
L 1172 1153 
Q 1172 725 1289 603 
Q 1406 481 1766 481 
L 2356 481 
L 2356 0 
L 1766 0 
Q 1100 0 847 248 
Q 594 497 594 1153 
L 594 3053 
L 172 3053 
L 172 3500 
L 594 3500 
L 594 4494 
L 1172 4494 
z
" transform="scale(0.015625)"/>
        <path id="DejaVuSans-20" transform="scale(0.015625)"/>
        <path id="DejaVuSans-28" d="M 1984 4856 
Q 1566 4138 1362 3434 
Q 1159 2731 1159 2009 
Q 1159 1288 1364 580 
Q 1569 -128 1984 -844 
L 1484 -844 
Q 1016 -109 783 600 
Q 550 1309 550 2009 
Q 550 2706 781 3412 
Q 1013 4119 1484 4856 
L 1984 4856 
z
" transform="scale(0.015625)"/>
        <path id="DejaVuSans-31" d="M 794 531 
L 1825 531 
L 1825 4091 
L 703 3866 
L 703 4441 
L 1819 4666 
L 2450 4666 
L 2450 531 
L 3481 531 
L 3481 0 
L 794 0 
L 794 531 
z
" transform="scale(0.015625)"/>
        <path id="DejaVuSans-32" d="M 1228 531 
L 3431 531 
L 3431 0 
L 469 0 
L 469 531 
Q 828 903 1448 1529 
Q 2069 2156 2228 2338 
Q 2531 2678 2651 2914 
Q 2772 3150 2772 3378 
Q 2772 3750 2511 3984 
Q 2250 4219 1831 4219 
Q 1534 4219 1204 4116 
Q 875 4013 500 3803 
L 500 4441 
Q 881 4594 1212 4672 
Q 1544 4750 1819 4750 
Q 2544 4750 2975 4387 
Q 3406 4025 3406 3419 
Q 3406 3131 3298 2873 
Q 3191 2616 2906 2266 
Q 2828 2175 2409 1742 
Q 1991 1309 1228 531 
z
" transform="scale(0.015625)"/>
        <path id="DejaVuSans-29" d="M 513 4856 
L 1013 4856 
Q 1481 4119 1714 3412 
Q 1947 2706 1947 2009 
Q 1947 1309 1714 600 
Q 1481 -109 1013 -844 
L 513 -844 
Q 928 -128 1133 580 
Q 1338 1288 1338 2009 
Q 1338 2731 1133 3434 
Q 928 4138 513 4856 
z
" transform="scale(0.015625)"/>
       </defs>
       <use xlink:href="#DejaVuSans-4e"/>
       <use xlink:href="#DejaVuSans-6f" x="74.804688"/>
       <use xlink:href="#DejaVuSans-6e" x="135.986328"/>
       <use xlink:href="#DejaVuSans-2d" x="199.365234"/>
       <use xlink:href="#DejaVuSans-45" x="235.449219"/>
       <use xlink:href="#DejaVuSans-78" x="298.632812"/>
       <use xlink:href="#DejaVuSans-70" x="357.8125"/>
       <use xlink:href="#DejaVuSans-65" x="421.289062"/>
       <use xlink:href="#DejaVuSans-72" x="482.8125"/>
       <use xlink:href="#DejaVuSans-74" x="523.925781"/>
       <use xlink:href="#DejaVuSans-20" x="563.134766"/>
       <use xlink:href="#DejaVuSans-28" x="594.921875"/>
       <use xlink:href="#DejaVuSans-31" x="633.935547"/>
       <use xlink:href="#DejaVuSans-2d" x="697.558594"/>
       <use xlink:href="#DejaVuSans-32" x="733.642578"/>
       <use xlink:href="#DejaVuSans-29" x="797.265625"/>
      </g>
     </g>
    </g>
    <g id="xtick_2">
     <g id="line2d_2">
      <g>
       <use xlink:href="#mbb9997c712" x="216.201875" y="310.679219" style="stroke: #000000; stroke-width: 0.8"/>
      </g>
     </g>
     <g id="text_2">
      <!-- Expert (3-5) -->
      <g transform="translate(186.159688 325.277656) scale(0.1 -0.1)">
       <defs>
        <path id="DejaVuSans-33" d="M 2597 2516 
Q 3050 2419 3304 2112 
Q 3559 1806 3559 1356 
Q 3559 666 3084 287 
Q 2609 -91 1734 -91 
Q 1441 -91 1130 -33 
Q 819 25 488 141 
L 488 750 
Q 750 597 1062 519 
Q 1375 441 1716 441 
Q 2309 441 2620 675 
Q 2931 909 2931 1356 
Q 2931 1769 2642 2001 
Q 2353 2234 1838 2234 
L 1294 2234 
L 1294 2753 
L 1863 2753 
Q 2328 2753 2575 2939 
Q 2822 3125 2822 3475 
Q 2822 3834 2567 4026 
Q 2313 4219 1838 4219 
Q 1578 4219 1281 4162 
Q 984 4106 628 3988 
L 628 4550 
Q 988 4650 1302 4700 
Q 1616 4750 1894 4750 
Q 2613 4750 3031 4423 
Q 3450 4097 3450 3541 
Q 3450 3153 3228 2886 
Q 3006 2619 2597 2516 
z
" transform="scale(0.015625)"/>
        <path id="DejaVuSans-35" d="M 691 4666 
L 3169 4666 
L 3169 4134 
L 1269 4134 
L 1269 2991 
Q 1406 3038 1543 3061 
Q 1681 3084 1819 3084 
Q 2600 3084 3056 2656 
Q 3513 2228 3513 1497 
Q 3513 744 3044 326 
Q 2575 -91 1722 -91 
Q 1428 -91 1123 -41 
Q 819 9 494 109 
L 494 744 
Q 775 591 1075 516 
Q 1375 441 1709 441 
Q 2250 441 2565 725 
Q 2881 1009 2881 1497 
Q 2881 1984 2565 2268 
Q 2250 2553 1709 2553 
Q 1456 2553 1204 2497 
Q 953 2441 691 2322 
L 691 4666 
z
" transform="scale(0.015625)"/>
       </defs>
       <use xlink:href="#DejaVuSans-45"/>
       <use xlink:href="#DejaVuSans-78" x="63.183594"/>
       <use xlink:href="#DejaVuSans-70" x="122.363281"/>
       <use xlink:href="#DejaVuSans-65" x="185.839844"/>
       <use xlink:href="#DejaVuSans-72" x="247.363281"/>
       <use xlink:href="#DejaVuSans-74" x="288.476562"/>
       <use xlink:href="#DejaVuSans-20" x="327.685547"/>
       <use xlink:href="#DejaVuSans-28" x="359.472656"/>
       <use xlink:href="#DejaVuSans-33" x="398.486328"/>
       <use xlink:href="#DejaVuSans-2d" x="462.109375"/>
       <use xlink:href="#DejaVuSans-35" x="498.193359"/>
       <use xlink:href="#DejaVuSans-29" x="561.816406"/>
      </g>
     </g>
    </g>
    <g id="xtick_3">
     <g id="line2d_3">
      <g>
       <use xlink:href="#mbb9997c712" x="326.445208" y="310.679219" style="stroke: #000000; stroke-width: 0.8"/>
      </g>
     </g>
     <g id="text_3">
      <!-- All -->
      <g transform="translate(320.246771 325.277656) scale(0.1 -0.1)">
       <defs>
        <path id="DejaVuSans-41" d="M 2188 4044 
L 1331 1722 
L 3047 1722 
L 2188 4044 
z
M 1831 4666 
L 2547 4666 
L 4325 0 
L 3669 0 
L 3244 1197 
L 1141 1197 
L 716 0 
L 50 0 
L 1831 4666 
z
" transform="scale(0.015625)"/>
        <path id="DejaVuSans-6c" d="M 603 4863 
L 1178 4863 
L 1178 0 
L 603 0 
L 603 4863 
z
" transform="scale(0.015625)"/>
       </defs>
       <use xlink:href="#DejaVuSans-41"/>
       <use xlink:href="#DejaVuSans-6c" x="68.408203"/>
       <use xlink:href="#DejaVuSans-6c" x="96.191406"/>
      </g>
     </g>
    </g>
    <g id="text_4">
     <!-- Expertise Group -->
     <g transform="translate(159.832188 341.995156) scale(0.14 -0.14)">
      <defs>
       <path id="DejaVuSans-69" d="M 603 3500 
L 1178 3500 
L 1178 0 
L 603 0 
L 603 3500 
z
M 603 4863 
L 1178 4863 
L 1178 4134 
L 603 4134 
L 603 4863 
z
" transform="scale(0.015625)"/>
       <path id="DejaVuSans-73" d="M 2834 3397 
L 2834 2853 
Q 2591 2978 2328 3040 
Q 2066 3103 1784 3103 
Q 1356 3103 1142 2972 
Q 928 2841 928 2578 
Q 928 2378 1081 2264 
Q 1234 2150 1697 2047 
L 1894 2003 
Q 2506 1872 2764 1633 
Q 3022 1394 3022 966 
Q 3022 478 2636 193 
Q 2250 -91 1575 -91 
Q 1294 -91 989 -36 
Q 684 19 347 128 
L 347 722 
Q 666 556 975 473 
Q 1284 391 1588 391 
Q 1994 391 2212 530 
Q 2431 669 2431 922 
Q 2431 1156 2273 1281 
Q 2116 1406 1581 1522 
L 1381 1569 
Q 847 1681 609 1914 
Q 372 2147 372 2553 
Q 372 3047 722 3315 
Q 1072 3584 1716 3584 
Q 2034 3584 2315 3537 
Q 2597 3491 2834 3397 
z
" transform="scale(0.015625)"/>
       <path id="DejaVuSans-47" d="M 3809 666 
L 3809 1919 
L 2778 1919 
L 2778 2438 
L 4434 2438 
L 4434 434 
Q 4069 175 3628 42 
Q 3188 -91 2688 -91 
Q 1594 -91 976 548 
Q 359 1188 359 2328 
Q 359 3472 976 4111 
Q 1594 4750 2688 4750 
Q 3144 4750 3555 4637 
Q 3966 4525 4313 4306 
L 4313 3634 
Q 3963 3931 3569 4081 
Q 3175 4231 2741 4231 
Q 1884 4231 1454 3753 
Q 1025 3275 1025 2328 
Q 1025 1384 1454 906 
Q 1884 428 2741 428 
Q 3075 428 3337 486 
Q 3600 544 3809 666 
z
" transform="scale(0.015625)"/>
       <path id="DejaVuSans-75" d="M 544 1381 
L 544 3500 
L 1119 3500 
L 1119 1403 
Q 1119 906 1312 657 
Q 1506 409 1894 409 
Q 2359 409 2629 706 
Q 2900 1003 2900 1516 
L 2900 3500 
L 3475 3500 
L 3475 0 
L 2900 0 
L 2900 538 
Q 2691 219 2414 64 
Q 2138 -91 1772 -91 
Q 1169 -91 856 284 
Q 544 659 544 1381 
z
M 1991 3584 
L 1991 3584 
z
" transform="scale(0.015625)"/>
      </defs>
      <use xlink:href="#DejaVuSans-45"/>
      <use xlink:href="#DejaVuSans-78" x="63.183594"/>
      <use xlink:href="#DejaVuSans-70" x="122.363281"/>
      <use xlink:href="#DejaVuSans-65" x="185.839844"/>
      <use xlink:href="#DejaVuSans-72" x="247.363281"/>
      <use xlink:href="#DejaVuSans-74" x="288.476562"/>
      <use xlink:href="#DejaVuSans-69" x="327.685547"/>
      <use xlink:href="#DejaVuSans-73" x="355.46875"/>
      <use xlink:href="#DejaVuSans-65" x="407.568359"/>
      <use xlink:href="#DejaVuSans-20" x="469.091797"/>
      <use xlink:href="#DejaVuSans-47" x="500.878906"/>
      <use xlink:href="#DejaVuSans-72" x="578.369141"/>
      <use xlink:href="#DejaVuSans-6f" x="617.232422"/>
      <use xlink:href="#DejaVuSans-75" x="678.414062"/>
      <use xlink:href="#DejaVuSans-70" x="741.792969"/>
     </g>
    </g>
   </g>
   <g id="matplotlib.axis_2">
    <g id="ytick_1">
     <g id="line2d_4">
      <path d="M 50.836875 310.679219 
L 381.566875 310.679219 
" clip-path="url(#p327cdf1578)" style="fill: none; stroke-dasharray: 2.96,1.28; stroke-dashoffset: 0; stroke: #c0c0c0; stroke-width: 0.8"/>
     </g>
     <g id="line2d_5">
      <defs>
       <path id="mdc5be99254" d="M 0 0 
L -3.5 0 
" style="stroke: #000000; stroke-width: 0.8"/>
      </defs>
      <g>
       <use xlink:href="#mdc5be99254" x="50.836875" y="310.679219" style="stroke: #000000; stroke-width: 0.8"/>
      </g>
     </g>
     <g id="text_5">
      <!-- 0 -->
      <g transform="translate(37.474375 314.478438) scale(0.1 -0.1)">
       <defs>
        <path id="DejaVuSans-30" d="M 2034 4250 
Q 1547 4250 1301 3770 
Q 1056 3291 1056 2328 
Q 1056 1369 1301 889 
Q 1547 409 2034 409 
Q 2525 409 2770 889 
Q 3016 1369 3016 2328 
Q 3016 3291 2770 3770 
Q 2525 4250 2034 4250 
z
M 2034 4750 
Q 2819 4750 3233 4129 
Q 3647 3509 3647 2328 
Q 3647 1150 3233 529 
Q 2819 -91 2034 -91 
Q 1250 -91 836 529 
Q 422 1150 422 2328 
Q 422 3509 836 4129 
Q 1250 4750 2034 4750 
z
" transform="scale(0.015625)"/>
       </defs>
       <use xlink:href="#DejaVuSans-30"/>
      </g>
     </g>
    </g>
    <g id="ytick_2">
     <g id="line2d_6">
      <path d="M 50.836875 250.743219 
L 381.566875 250.743219 
" clip-path="url(#p327cdf1578)" style="fill: none; stroke-dasharray: 2.96,1.28; stroke-dashoffset: 0; stroke: #c0c0c0; stroke-width: 0.8"/>
     </g>
     <g id="line2d_7">
      <g>
       <use xlink:href="#mdc5be99254" x="50.836875" y="250.743219" style="stroke: #000000; stroke-width: 0.8"/>
      </g>
     </g>
     <g id="text_6">
      <!-- 20 -->
      <g transform="translate(31.111875 254.542438) scale(0.1 -0.1)">
       <use xlink:href="#DejaVuSans-32"/>
       <use xlink:href="#DejaVuSans-30" x="63.623047"/>
      </g>
     </g>
    </g>
    <g id="ytick_3">
     <g id="line2d_8">
      <path d="M 50.836875 190.807219 
L 381.566875 190.807219 
" clip-path="url(#p327cdf1578)" style="fill: none; stroke-dasharray: 2.96,1.28; stroke-dashoffset: 0; stroke: #c0c0c0; stroke-width: 0.8"/>
     </g>
     <g id="line2d_9">
      <g>
       <use xlink:href="#mdc5be99254" x="50.836875" y="190.807219" style="stroke: #000000; stroke-width: 0.8"/>
      </g>
     </g>
     <g id="text_7">
      <!-- 40 -->
      <g transform="translate(31.111875 194.606437) scale(0.1 -0.1)">
       <defs>
        <path id="DejaVuSans-34" d="M 2419 4116 
L 825 1625 
L 2419 1625 
L 2419 4116 
z
M 2253 4666 
L 3047 4666 
L 3047 1625 
L 3713 1625 
L 3713 1100 
L 3047 1100 
L 3047 0 
L 2419 0 
L 2419 1100 
L 313 1100 
L 313 1709 
L 2253 4666 
z
" transform="scale(0.015625)"/>
       </defs>
       <use xlink:href="#DejaVuSans-34"/>
       <use xlink:href="#DejaVuSans-30" x="63.623047"/>
      </g>
     </g>
    </g>
    <g id="ytick_4">
     <g id="line2d_10">
      <path d="M 50.836875 130.871219 
L 381.566875 130.871219 
" clip-path="url(#p327cdf1578)" style="fill: none; stroke-dasharray: 2.96,1.28; stroke-dashoffset: 0; stroke: #c0c0c0; stroke-width: 0.8"/>
     </g>
     <g id="line2d_11">
      <g>
       <use xlink:href="#mdc5be99254" x="50.836875" y="130.871219" style="stroke: #000000; stroke-width: 0.8"/>
      </g>
     </g>
     <g id="text_8">
      <!-- 60 -->
      <g transform="translate(31.111875 134.670437) scale(0.1 -0.1)">
       <defs>
        <path id="DejaVuSans-36" d="M 2113 2584 
Q 1688 2584 1439 2293 
Q 1191 2003 1191 1497 
Q 1191 994 1439 701 
Q 1688 409 2113 409 
Q 2538 409 2786 701 
Q 3034 994 3034 1497 
Q 3034 2003 2786 2293 
Q 2538 2584 2113 2584 
z
M 3366 4563 
L 3366 3988 
Q 3128 4100 2886 4159 
Q 2644 4219 2406 4219 
Q 1781 4219 1451 3797 
Q 1122 3375 1075 2522 
Q 1259 2794 1537 2939 
Q 1816 3084 2150 3084 
Q 2853 3084 3261 2657 
Q 3669 2231 3669 1497 
Q 3669 778 3244 343 
Q 2819 -91 2113 -91 
Q 1303 -91 875 529 
Q 447 1150 447 2328 
Q 447 3434 972 4092 
Q 1497 4750 2381 4750 
Q 2619 4750 2861 4703 
Q 3103 4656 3366 4563 
z
" transform="scale(0.015625)"/>
       </defs>
       <use xlink:href="#DejaVuSans-36"/>
       <use xlink:href="#DejaVuSans-30" x="63.623047"/>
      </g>
     </g>
    </g>
    <g id="ytick_5">
     <g id="line2d_12">
      <path d="M 50.836875 70.935219 
L 381.566875 70.935219 
" clip-path="url(#p327cdf1578)" style="fill: none; stroke-dasharray: 2.96,1.28; stroke-dashoffset: 0; stroke: #c0c0c0; stroke-width: 0.8"/>
     </g>
     <g id="line2d_13">
      <g>
       <use xlink:href="#mdc5be99254" x="50.836875" y="70.935219" style="stroke: #000000; stroke-width: 0.8"/>
      </g>
     </g>
     <g id="text_9">
      <!-- 80 -->
      <g transform="translate(31.111875 74.734438) scale(0.1 -0.1)">
       <defs>
        <path id="DejaVuSans-38" d="M 2034 2216 
Q 1584 2216 1326 1975 
Q 1069 1734 1069 1313 
Q 1069 891 1326 650 
Q 1584 409 2034 409 
Q 2484 409 2743 651 
Q 3003 894 3003 1313 
Q 3003 1734 2745 1975 
Q 2488 2216 2034 2216 
z
M 1403 2484 
Q 997 2584 770 2862 
Q 544 3141 544 3541 
Q 544 4100 942 4425 
Q 1341 4750 2034 4750 
Q 2731 4750 3128 4425 
Q 3525 4100 3525 3541 
Q 3525 3141 3298 2862 
Q 3072 2584 2669 2484 
Q 3125 2378 3379 2068 
Q 3634 1759 3634 1313 
Q 3634 634 3220 271 
Q 2806 -91 2034 -91 
Q 1263 -91 848 271 
Q 434 634 434 1313 
Q 434 1759 690 2068 
Q 947 2378 1403 2484 
z
M 1172 3481 
Q 1172 3119 1398 2916 
Q 1625 2713 2034 2713 
Q 2441 2713 2670 2916 
Q 2900 3119 2900 3481 
Q 2900 3844 2670 4047 
Q 2441 4250 2034 4250 
Q 1625 4250 1398 4047 
Q 1172 3844 1172 3481 
z
" transform="scale(0.015625)"/>
       </defs>
       <use xlink:href="#DejaVuSans-38"/>
       <use xlink:href="#DejaVuSans-30" x="63.623047"/>
      </g>
     </g>
    </g>
    <g id="ytick_6">
     <g id="line2d_14">
      <path d="M 50.836875 10.999219 
L 381.566875 10.999219 
" clip-path="url(#p327cdf1578)" style="fill: none; stroke-dasharray: 2.96,1.28; stroke-dashoffset: 0; stroke: #c0c0c0; stroke-width: 0.8"/>
     </g>
     <g id="line2d_15">
      <g>
       <use xlink:href="#mdc5be99254" x="50.836875" y="10.999219" style="stroke: #000000; stroke-width: 0.8"/>
      </g>
     </g>
     <g id="text_10">
      <!-- 100 -->
      <g transform="translate(24.749375 14.798437) scale(0.1 -0.1)">
       <use xlink:href="#DejaVuSans-31"/>
       <use xlink:href="#DejaVuSans-30" x="63.623047"/>
       <use xlink:href="#DejaVuSans-30" x="127.246094"/>
      </g>
     </g>
    </g>
    <g id="text_11">
     <!-- Success Rate (%) -->
     <g transform="translate(17.837812 221.627656) rotate(-90) scale(0.14 -0.14)">
      <defs>
       <path id="DejaVuSans-53" d="M 3425 4513 
L 3425 3897 
Q 3066 4069 2747 4153 
Q 2428 4238 2131 4238 
Q 1616 4238 1336 4038 
Q 1056 3838 1056 3469 
Q 1056 3159 1242 3001 
Q 1428 2844 1947 2747 
L 2328 2669 
Q 3034 2534 3370 2195 
Q 3706 1856 3706 1288 
Q 3706 609 3251 259 
Q 2797 -91 1919 -91 
Q 1588 -91 1214 -16 
Q 841 59 441 206 
L 441 856 
Q 825 641 1194 531 
Q 1563 422 1919 422 
Q 2459 422 2753 634 
Q 3047 847 3047 1241 
Q 3047 1584 2836 1778 
Q 2625 1972 2144 2069 
L 1759 2144 
Q 1053 2284 737 2584 
Q 422 2884 422 3419 
Q 422 4038 858 4394 
Q 1294 4750 2059 4750 
Q 2388 4750 2728 4690 
Q 3069 4631 3425 4513 
z
" transform="scale(0.015625)"/>
       <path id="DejaVuSans-63" d="M 3122 3366 
L 3122 2828 
Q 2878 2963 2633 3030 
Q 2388 3097 2138 3097 
Q 1578 3097 1268 2742 
Q 959 2388 959 1747 
Q 959 1106 1268 751 
Q 1578 397 2138 397 
Q 2388 397 2633 464 
Q 2878 531 3122 666 
L 3122 134 
Q 2881 22 2623 -34 
Q 2366 -91 2075 -91 
Q 1284 -91 818 406 
Q 353 903 353 1747 
Q 353 2603 823 3093 
Q 1294 3584 2113 3584 
Q 2378 3584 2631 3529 
Q 2884 3475 3122 3366 
z
" transform="scale(0.015625)"/>
       <path id="DejaVuSans-52" d="M 2841 2188 
Q 3044 2119 3236 1894 
Q 3428 1669 3622 1275 
L 4263 0 
L 3584 0 
L 2988 1197 
Q 2756 1666 2539 1819 
Q 2322 1972 1947 1972 
L 1259 1972 
L 1259 0 
L 628 0 
L 628 4666 
L 2053 4666 
Q 2853 4666 3247 4331 
Q 3641 3997 3641 3322 
Q 3641 2881 3436 2590 
Q 3231 2300 2841 2188 
z
M 1259 4147 
L 1259 2491 
L 2053 2491 
Q 2509 2491 2742 2702 
Q 2975 2913 2975 3322 
Q 2975 3731 2742 3939 
Q 2509 4147 2053 4147 
L 1259 4147 
z
" transform="scale(0.015625)"/>
       <path id="DejaVuSans-61" d="M 2194 1759 
Q 1497 1759 1228 1600 
Q 959 1441 959 1056 
Q 959 750 1161 570 
Q 1363 391 1709 391 
Q 2188 391 2477 730 
Q 2766 1069 2766 1631 
L 2766 1759 
L 2194 1759 
z
M 3341 1997 
L 3341 0 
L 2766 0 
L 2766 531 
Q 2569 213 2275 61 
Q 1981 -91 1556 -91 
Q 1019 -91 701 211 
Q 384 513 384 1019 
Q 384 1609 779 1909 
Q 1175 2209 1959 2209 
L 2766 2209 
L 2766 2266 
Q 2766 2663 2505 2880 
Q 2244 3097 1772 3097 
Q 1472 3097 1187 3025 
Q 903 2953 641 2809 
L 641 3341 
Q 956 3463 1253 3523 
Q 1550 3584 1831 3584 
Q 2591 3584 2966 3190 
Q 3341 2797 3341 1997 
z
" transform="scale(0.015625)"/>
       <path id="DejaVuSans-25" d="M 4653 2053 
Q 4381 2053 4226 1822 
Q 4072 1591 4072 1178 
Q 4072 772 4226 539 
Q 4381 306 4653 306 
Q 4919 306 5073 539 
Q 5228 772 5228 1178 
Q 5228 1588 5073 1820 
Q 4919 2053 4653 2053 
z
M 4653 2450 
Q 5147 2450 5437 2106 
Q 5728 1763 5728 1178 
Q 5728 594 5436 251 
Q 5144 -91 4653 -91 
Q 4153 -91 3862 251 
Q 3572 594 3572 1178 
Q 3572 1766 3864 2108 
Q 4156 2450 4653 2450 
z
M 1428 4353 
Q 1159 4353 1004 4120 
Q 850 3888 850 3481 
Q 850 3069 1003 2837 
Q 1156 2606 1428 2606 
Q 1700 2606 1854 2837 
Q 2009 3069 2009 3481 
Q 2009 3884 1853 4118 
Q 1697 4353 1428 4353 
z
M 4250 4750 
L 4750 4750 
L 1831 -91 
L 1331 -91 
L 4250 4750 
z
M 1428 4750 
Q 1922 4750 2215 4408 
Q 2509 4066 2509 3481 
Q 2509 2891 2217 2550 
Q 1925 2209 1428 2209 
Q 931 2209 642 2551 
Q 353 2894 353 3481 
Q 353 4063 643 4406 
Q 934 4750 1428 4750 
z
" transform="scale(0.015625)"/>
      </defs>
      <use xlink:href="#DejaVuSans-53"/>
      <use xlink:href="#DejaVuSans-75" x="63.476562"/>
      <use xlink:href="#DejaVuSans-63" x="126.855469"/>
      <use xlink:href="#DejaVuSans-63" x="181.835938"/>
      <use xlink:href="#DejaVuSans-65" x="236.816406"/>
      <use xlink:href="#DejaVuSans-73" x="298.339844"/>
      <use xlink:href="#DejaVuSans-73" x="350.439453"/>
      <use xlink:href="#DejaVuSans-20" x="402.539062"/>
      <use xlink:href="#DejaVuSans-52" x="434.326172"/>
      <use xlink:href="#DejaVuSans-61" x="501.558594"/>
      <use xlink:href="#DejaVuSans-74" x="562.837891"/>
      <use xlink:href="#DejaVuSans-65" x="602.046875"/>
      <use xlink:href="#DejaVuSans-20" x="663.570312"/>
      <use xlink:href="#DejaVuSans-28" x="695.357422"/>
      <use xlink:href="#DejaVuSans-25" x="734.371094"/>
      <use xlink:href="#DejaVuSans-29" x="829.390625"/>
     </g>
    </g>
   </g>
   <g id="PolyCollection_1">
    <path d="M 108.56521 286.38084 
L 103.351874 286.38084 
L 103.337609 284.826399 
L 103.37584 283.271957 
L 103.46047 281.717515 
L 103.582167 280.163074 
L 103.729314 278.608632 
L 103.88899 277.05419 
L 104.047751 275.499748 
L 104.192066 273.945307 
L 104.308329 272.390865 
L 104.38248 270.836423 
L 104.399352 269.281982 
L 104.341955 267.72754 
L 104.190905 266.173098 
L 103.924206 264.618656 
L 103.517545 263.064215 
L 102.945176 261.509773 
L 102.181366 259.955331 
L 101.202321 258.40089 
L 99.988394 256.846448 
L 98.526363 255.292006 
L 96.811521 253.737564 
L 94.849352 252.183123 
L 92.656566 250.628681 
L 90.261369 249.074239 
L 87.702851 247.519798 
L 85.029507 245.965356 
L 82.296931 244.410914 
L 79.564815 242.856472 
L 76.893443 241.302031 
L 74.339943 239.747589 
L 71.954585 238.193147 
L 69.777487 236.638706 
L 67.836085 235.084264 
L 66.143695 233.529822 
L 64.699434 231.97538 
L 63.489637 230.420939 
L 62.490688 228.866497 
L 61.673008 227.312055 
L 61.005675 225.757614 
L 60.461018 224.203172 
L 60.018421 222.64873 
L 59.666624 221.094288 
L 59.404025 219.539847 
L 59.236777 217.985405 
L 59.174879 216.430963 
L 59.226891 214.876522 
L 59.394189 213.32208 
L 59.665935 211.767638 
L 60.015866 210.213196 
L 60.401857 208.658755 
L 60.768728 207.104313 
L 61.05428 205.549871 
L 61.19785 203.99543 
L 61.150176 202.440988 
L 60.88291 200.886546 
L 60.396015 199.332104 
L 59.721451 197.777663 
L 58.922124 196.223221 
L 58.085802 194.668779 
L 57.314682 193.114338 
L 56.712105 191.559896 
L 56.36852 190.005454 
L 56.349042 188.451012 
L 56.684647 186.896571 
L 57.368454 185.342129 
L 58.357561 183.787687 
L 59.579975 182.233246 
L 60.945288 180.678804 
L 62.357267 179.124362 
L 63.726362 177.56992 
L 64.980381 176.015479 
L 66.07207 174.461037 
L 66.982987 172.906595 
L 67.72363 171.352154 
L 68.330298 169.797712 
L 68.859437 168.24327 
L 69.380356 166.688828 
L 69.96719 165.134387 
L 70.690889 163.579945 
L 71.611897 162.025503 
L 72.774086 160.471062 
L 74.200382 158.91662 
L 75.890428 157.362178 
L 77.820498 155.807736 
L 79.945661 154.253295 
L 82.204029 152.698853 
L 84.522655 151.144411 
L 86.824472 149.58997 
L 89.035499 148.035528 
L 91.091505 146.481086 
L 92.943389 144.926644 
L 94.560675 143.372203 
L 95.932813 141.817761 
L 97.068216 140.263319 
L 97.991297 138.708877 
L 98.738004 137.154436 
L 99.350504 135.599994 
L 99.871777 134.045552 
L 100.340789 132.491111 
L 111.576294 132.491111 
L 111.576294 132.491111 
L 112.045306 134.045552 
L 112.566579 135.599994 
L 113.17908 137.154436 
L 113.925786 138.708877 
L 114.848867 140.263319 
L 115.98427 141.817761 
L 117.356408 143.372203 
L 118.973695 144.926644 
L 120.825578 146.481086 
L 122.881584 148.035528 
L 125.092611 149.58997 
L 127.394428 151.144411 
L 129.713054 152.698853 
L 131.971422 154.253295 
L 134.096585 155.807736 
L 136.026655 157.362178 
L 137.716702 158.91662 
L 139.142997 160.471062 
L 140.305186 162.025503 
L 141.226195 163.579945 
L 141.949893 165.134387 
L 142.536727 166.688828 
L 143.057646 168.24327 
L 143.586785 169.797712 
L 144.193454 171.352154 
L 144.934097 172.906595 
L 145.845014 174.461037 
L 146.936703 176.015479 
L 148.190721 177.56992 
L 149.559816 179.124362 
L 150.971795 180.678804 
L 152.337108 182.233246 
L 153.559522 183.787687 
L 154.54863 185.342129 
L 155.232436 186.896571 
L 155.568042 188.451012 
L 155.548563 190.005454 
L 155.204978 191.559896 
L 154.602401 193.114338 
L 153.831281 194.668779 
L 152.994959 196.223221 
L 152.195632 197.777663 
L 151.521069 199.332104 
L 151.034173 200.886546 
L 150.766907 202.440988 
L 150.719233 203.99543 
L 150.862803 205.549871 
L 151.148355 207.104313 
L 151.515226 208.658755 
L 151.901217 210.213196 
L 152.251149 211.767638 
L 152.522894 213.32208 
L 152.690192 214.876522 
L 152.742204 216.430963 
L 152.680307 217.985405 
L 152.513058 219.539847 
L 152.25046 221.094288 
L 151.898662 222.64873 
L 151.456065 224.203172 
L 150.911409 225.757614 
L 150.244076 227.312055 
L 149.426395 228.866497 
L 148.427447 230.420939 
L 147.217649 231.97538 
L 145.773388 233.529822 
L 144.080998 235.084264 
L 142.139596 236.638706 
L 139.962499 238.193147 
L 137.57714 239.747589 
L 135.02364 241.302031 
L 132.352268 242.856472 
L 129.620152 244.410914 
L 126.887576 245.965356 
L 124.214233 247.519798 
L 121.655714 249.074239 
L 119.260517 250.628681 
L 117.067732 252.183123 
L 115.105562 253.737564 
L 113.390721 255.292006 
L 111.928689 256.846448 
L 110.714763 258.40089 
L 109.735718 259.955331 
L 108.971908 261.509773 
L 108.399538 263.064215 
L 107.992878 264.618656 
L 107.726178 266.173098 
L 107.575128 267.72754 
L 107.517732 269.281982 
L 107.534604 270.836423 
L 107.608754 272.390865 
L 107.725018 273.945307 
L 107.869332 275.499748 
L 108.028093 277.05419 
L 108.187769 278.608632 
L 108.334917 280.163074 
L 108.456614 281.717515 
L 108.541244 283.271957 
L 108.579475 284.826399 
L 108.56521 286.38084 
z
" clip-path="url(#p327cdf1578)" style="fill: #8e0152"/>
   </g>
   <g id="PolyCollection_2">
    <path d="M 220.075925 253.983003 
L 212.327825 253.983003 
L 211.838833 252.346748 
L 211.331897 250.710494 
L 210.816085 249.074239 
L 210.304056 247.437985 
L 209.811631 245.80173 
L 209.356428 244.165476 
L 208.955619 242.529221 
L 208.623063 240.892967 
L 208.366298 239.256713 
L 208.18401 237.620458 
L 208.064549 235.984204 
L 207.985968 234.347949 
L 207.917756 232.711695 
L 207.82414 231.07544 
L 207.668534 229.439186 
L 207.418438 227.802932 
L 207.050036 226.166677 
L 206.551737 224.530423 
L 205.926096 222.894168 
L 205.189812 221.257914 
L 204.371783 219.621659 
L 203.509505 217.985405 
L 202.644323 216.34915 
L 201.816154 214.712896 
L 201.058362 213.076642 
L 200.393401 211.440387 
L 199.829684 209.804133 
L 199.360002 208.167878 
L 198.96162 206.531624 
L 198.598 204.895369 
L 198.221975 203.259115 
L 197.780087 201.622861 
L 197.217696 199.986606 
L 196.484429 198.350352 
L 195.539445 196.714097 
L 194.356002 195.077843 
L 192.924777 193.441588 
L 191.255491 191.805334 
L 189.376523 190.16908 
L 187.332436 188.532825 
L 185.179638 186.896571 
L 182.980697 185.260316 
L 180.798117 183.624062 
L 178.688499 181.987807 
L 176.698011 180.351553 
L 174.859854 178.715298 
L 173.194077 177.079044 
L 171.709626 175.44279 
L 170.408068 173.806535 
L 169.288114 172.170281 
L 168.349928 170.534026 
L 167.598269 168.897772 
L 167.043809 167.261517 
L 166.702379 165.625263 
L 166.592375 163.989009 
L 166.730944 162.352754 
L 167.129847 160.7165 
L 167.791948 159.080245 
L 168.709139 157.443991 
L 169.862151 155.807736 
L 171.222305 154.171482 
L 172.754785 152.535227 
L 174.422696 150.898973 
L 176.191019 149.262719 
L 178.029627 147.626464 
L 179.914818 145.99021 
L 181.829194 144.353955 
L 183.760175 142.717701 
L 185.697737 141.081446 
L 187.632123 139.445192 
L 189.552211 137.808938 
L 191.444951 136.172683 
L 193.295933 134.536429 
L 195.090794 132.900174 
L 196.816923 131.26392 
L 198.464895 129.627665 
L 200.029169 127.991411 
L 201.507856 126.355157 
L 202.901657 124.718902 
L 204.212327 123.082648 
L 205.441121 121.446393 
L 206.587659 119.810139 
L 207.649481 118.173884 
L 208.622364 116.53763 
L 209.501239 114.901375 
L 210.281446 113.265121 
L 210.959978 111.628867 
L 211.53648 109.992612 
L 212.013819 108.356358 
L 212.398224 106.720103 
L 212.699033 105.083849 
L 212.928174 103.447594 
L 213.099485 101.81134 
L 213.227936 100.175086 
L 213.328806 98.538831 
L 213.416816 96.902577 
L 213.505264 95.266322 
L 213.605182 93.630068 
L 213.724638 91.993813 
L 218.679112 91.993813 
L 218.679112 91.993813 
L 218.798568 93.630068 
L 218.898486 95.266322 
L 218.986934 96.902577 
L 219.074944 98.538831 
L 219.175814 100.175086 
L 219.304265 101.81134 
L 219.475576 103.447594 
L 219.704717 105.083849 
L 220.005526 106.720103 
L 220.389931 108.356358 
L 220.86727 109.992612 
L 221.443772 111.628867 
L 222.122304 113.265121 
L 222.902511 114.901375 
L 223.781386 116.53763 
L 224.754269 118.173884 
L 225.816091 119.810139 
L 226.962629 121.446393 
L 228.191423 123.082648 
L 229.502093 124.718902 
L 230.895894 126.355157 
L 232.374581 127.991411 
L 233.938855 129.627665 
L 235.586827 131.26392 
L 237.312956 132.900174 
L 239.107817 134.536429 
L 240.958799 136.172683 
L 242.851539 137.808938 
L 244.771627 139.445192 
L 246.706013 141.081446 
L 248.643575 142.717701 
L 250.574556 144.353955 
L 252.488932 145.99021 
L 254.374123 147.626464 
L 256.212731 149.262719 
L 257.981054 150.898973 
L 259.648965 152.535227 
L 261.181445 154.171482 
L 262.541599 155.807736 
L 263.694611 157.443991 
L 264.611802 159.080245 
L 265.273903 160.7165 
L 265.672806 162.352754 
L 265.811375 163.989009 
L 265.701371 165.625263 
L 265.359941 167.261517 
L 264.805481 168.897772 
L 264.053822 170.534026 
L 263.115636 172.170281 
L 261.995682 173.806535 
L 260.694124 175.44279 
L 259.209673 177.079044 
L 257.543896 178.715298 
L 255.705739 180.351553 
L 253.715251 181.987807 
L 251.605633 183.624062 
L 249.423053 185.260316 
L 247.224112 186.896571 
L 245.071314 188.532825 
L 243.027227 190.16908 
L 241.148259 191.805334 
L 239.478973 193.441588 
L 238.047748 195.077843 
L 236.864305 196.714097 
L 235.919321 198.350352 
L 235.186054 199.986606 
L 234.623663 201.622861 
L 234.181775 203.259115 
L 233.80575 204.895369 
L 233.44213 206.531624 
L 233.043748 208.167878 
L 232.574066 209.804133 
L 232.010349 211.440387 
L 231.345388 213.076642 
L 230.587596 214.712896 
L 229.759427 216.34915 
L 228.894245 217.985405 
L 228.031967 219.621659 
L 227.213938 221.257914 
L 226.477654 222.894168 
L 225.852013 224.530423 
L 225.353714 226.166677 
L 224.985312 227.802932 
L 224.735216 229.439186 
L 224.57961 231.07544 
L 224.485994 232.711695 
L 224.417782 234.347949 
L 224.339201 235.984204 
L 224.21974 237.620458 
L 224.037452 239.256713 
L 223.780687 240.892967 
L 223.448131 242.529221 
L 223.047322 244.165476 
L 222.592119 245.80173 
L 222.099694 247.437985 
L 221.587665 249.074239 
L 221.071853 250.710494 
L 220.564917 252.346748 
L 220.075925 253.983003 
z
" clip-path="url(#p327cdf1578)" style="fill: #276419"/>
   </g>
   <g id="PolyCollection_3">
    <path d="M 327.837998 286.38084 
L 325.052419 286.38084 
L 325.045135 284.417335 
L 325.079904 282.45383 
L 325.146113 280.490324 
L 325.22853 278.526819 
L 325.309202 276.563314 
L 325.369135 274.599808 
L 325.389306 272.636303 
L 325.350848 270.672798 
L 325.234549 268.709292 
L 325.020039 266.745787 
L 324.685068 264.782282 
L 324.20525 262.818776 
L 323.554573 260.855271 
L 322.706879 258.891766 
L 321.638501 256.928261 
L 320.332091 254.964755 
L 318.781464 253.00125 
L 316.996791 251.037745 
L 315.009011 249.074239 
L 312.871933 247.110734 
L 310.660525 245.147229 
L 308.464492 243.183723 
L 306.377351 241.220218 
L 304.482641 239.256713 
L 302.840023 237.293207 
L 301.474623 235.329702 
L 300.37256 233.366197 
L 299.484301 231.402691 
L 298.735715 229.439186 
L 298.044703 227.475681 
L 297.339852 225.512175 
L 296.576825 223.54867 
L 295.748534 221.585165 
L 294.886379 219.621659 
L 294.051806 217.658154 
L 293.319729 215.694649 
L 292.75738 213.731143 
L 292.403481 211.767638 
L 292.252845 209.804133 
L 292.250515 207.840627 
L 292.297537 205.877122 
L 292.267791 203.913617 
L 292.032648 201.950111 
L 291.488102 199.986606 
L 290.578111 198.023101 
L 289.30845 196.059595 
L 287.747458 194.09609 
L 286.01321 192.132585 
L 284.250043 190.16908 
L 282.600032 188.205574 
L 281.176167 186.242069 
L 280.04336 184.278564 
L 279.211195 182.315058 
L 278.639344 180.351553 
L 278.253648 178.388048 
L 277.968673 176.424542 
L 277.711557 174.461037 
L 277.442098 172.497532 
L 277.165087 170.534026 
L 276.932576 168.570521 
L 276.835708 166.607016 
L 276.987698 164.64351 
L 277.501297 162.680005 
L 278.465284 160.7165 
L 279.92493 158.752994 
L 281.870794 156.789489 
L 284.238504 154.825984 
L 286.919626 152.862478 
L 289.780978 150.898973 
L 292.687561 148.935468 
L 295.52346 146.971962 
L 298.205964 145.008457 
L 300.690465 143.044952 
L 302.966596 141.081446 
L 305.0485 139.117941 
L 306.963208 137.154436 
L 308.740678 135.19093 
L 310.407415 133.227425 
L 311.983761 131.26392 
L 313.483598 129.300414 
L 314.914851 127.336909 
L 316.279748 125.373404 
L 317.574725 123.409899 
L 318.790565 121.446393 
L 319.913528 119.482888 
L 320.927772 117.519383 
L 321.818677 115.555877 
L 322.576156 113.592372 
L 323.196974 111.628867 
L 323.685493 109.665361 
L 324.05288 107.701856 
L 324.315357 105.738351 
L 324.49223 103.774845 
L 324.604267 101.81134 
L 324.672557 99.847835 
L 324.717627 97.884329 
L 324.758469 95.920824 
L 324.811247 93.957319 
L 324.887825 91.993813 
L 328.002591 91.993813 
L 328.002591 91.993813 
L 328.07917 93.957319 
L 328.131948 95.920824 
L 328.172789 97.884329 
L 328.21786 99.847835 
L 328.28615 101.81134 
L 328.398187 103.774845 
L 328.57506 105.738351 
L 328.837536 107.701856 
L 329.204924 109.665361 
L 329.693443 111.628867 
L 330.314261 113.592372 
L 331.071739 115.555877 
L 331.962644 117.519383 
L 332.976889 119.482888 
L 334.099852 121.446393 
L 335.315692 123.409899 
L 336.610669 125.373404 
L 337.975566 127.336909 
L 339.406818 129.300414 
L 340.906656 131.26392 
L 342.483002 133.227425 
L 344.149738 135.19093 
L 345.927208 137.154436 
L 347.841917 139.117941 
L 349.92382 141.081446 
L 352.199952 143.044952 
L 354.684453 145.008457 
L 357.366957 146.971962 
L 360.202855 148.935468 
L 363.109439 150.898973 
L 365.970791 152.862478 
L 368.651913 154.825984 
L 371.019623 156.789489 
L 372.965487 158.752994 
L 374.425132 160.7165 
L 375.38912 162.680005 
L 375.902719 164.64351 
L 376.054708 166.607016 
L 375.957841 168.570521 
L 375.72533 170.534026 
L 375.448319 172.497532 
L 375.178859 174.461037 
L 374.921744 176.424542 
L 374.636769 178.388048 
L 374.251073 180.351553 
L 373.679222 182.315058 
L 372.847057 184.278564 
L 371.71425 186.242069 
L 370.290385 188.205574 
L 368.640374 190.16908 
L 366.877207 192.132585 
L 365.142959 194.09609 
L 363.581966 196.059595 
L 362.312306 198.023101 
L 361.402315 199.986606 
L 360.857768 201.950111 
L 360.622625 203.913617 
L 360.592879 205.877122 
L 360.639901 207.840627 
L 360.637572 209.804133 
L 360.486936 211.767638 
L 360.133037 213.731143 
L 359.570688 215.694649 
L 358.83861 217.658154 
L 358.004037 219.621659 
L 357.141882 221.585165 
L 356.313592 223.54867 
L 355.550565 225.512175 
L 354.845713 227.475681 
L 354.154702 229.439186 
L 353.406116 231.402691 
L 352.517857 233.366197 
L 351.415793 235.329702 
L 350.050394 237.293207 
L 348.407775 239.256713 
L 346.513065 241.220218 
L 344.425925 243.183723 
L 342.229891 245.147229 
L 340.018484 247.110734 
L 337.881406 249.074239 
L 335.893626 251.037745 
L 334.108952 253.00125 
L 332.558325 254.964755 
L 331.251916 256.928261 
L 330.183537 258.891766 
L 329.335844 260.855271 
L 328.685167 262.818776 
L 328.205349 264.782282 
L 327.870377 266.745787 
L 327.655868 268.709292 
L 327.539569 270.672798 
L 327.50111 272.636303 
L 327.521282 274.599808 
L 327.581215 276.563314 
L 327.661887 278.526819 
L 327.744304 280.490324 
L 327.810512 282.45383 
L 327.845281 284.417335 
L 327.837998 286.38084 
z
" clip-path="url(#p327cdf1578)" style="fill: #2976bb"/>
   </g>
   <g id="patch_3">
    <path d="M 94.934208 221.585165 
L 116.982875 221.585165 
L 116.982875 201.751725 
L 111.470708 197.286786 
L 116.982875 192.821847 
L 116.982875 172.988408 
L 94.934208 172.988408 
L 94.934208 192.821847 
L 100.446375 197.286786 
L 94.934208 201.751725 
L 94.934208 221.585165 
z
" clip-path="url(#p327cdf1578)" style="fill: #a9a9a9; stroke: #000000; stroke-linejoin: miter"/>
   </g>
   <g id="line2d_16">
    <path d="M 105.958542 221.585165 
L 105.958542 245.883543 
" clip-path="url(#p327cdf1578)" style="fill: none; stroke: #000000; stroke-linecap: square"/>
   </g>
   <g id="line2d_17">
    <path d="M 105.958542 172.988408 
L 105.958542 148.69003 
" clip-path="url(#p327cdf1578)" style="fill: none; stroke: #000000; stroke-linecap: square"/>
   </g>
   <g id="line2d_18">
    <path d="M 100.446375 245.883543 
L 111.470708 245.883543 
" clip-path="url(#p327cdf1578)" style="fill: none; stroke: #000000; stroke-linecap: square"/>
   </g>
   <g id="line2d_19">
    <path d="M 100.446375 148.69003 
L 111.470708 148.69003 
" clip-path="url(#p327cdf1578)" style="fill: none; stroke: #000000; stroke-linecap: square"/>
   </g>
   <g id="line2d_20">
    <defs>
     <path id="md590b8b4da" d="M 0 2 
C 0.530406 2 1.03916 1.789267 1.414214 1.414214 
C 1.789267 1.03916 2 0.530406 2 0 
C 2 -0.530406 1.789267 -1.03916 1.414214 -1.414214 
C 1.03916 -1.789267 0.530406 -2 0 -2 
C -0.530406 -2 -1.03916 -1.789267 -1.414214 -1.414214 
C -1.789267 -1.03916 -2 -0.530406 -2 0 
C -2 0.530406 -1.789267 1.03916 -1.414214 1.414214 
C -1.03916 1.789267 -0.530406 2 0 2 
z
" style="stroke: #000000"/>
    </defs>
    <g clip-path="url(#p327cdf1578)">
     <use xlink:href="#md590b8b4da" x="105.958542" y="286.38084" style="fill-opacity: 0; stroke: #000000"/>
     <use xlink:href="#md590b8b4da" x="105.958542" y="286.38084" style="fill-opacity: 0; stroke: #000000"/>
     <use xlink:href="#md590b8b4da" x="105.958542" y="286.38084" style="fill-opacity: 0; stroke: #000000"/>
     <use xlink:href="#md590b8b4da" x="105.958542" y="286.38084" style="fill-opacity: 0; stroke: #000000"/>
     <use xlink:href="#md590b8b4da" x="105.958542" y="270.181921" style="fill-opacity: 0; stroke: #000000"/>
     <use xlink:href="#md590b8b4da" x="105.958542" y="132.491111" style="fill-opacity: 0; stroke: #000000"/>
     <use xlink:href="#md590b8b4da" x="105.958542" y="132.491111" style="fill-opacity: 0; stroke: #000000"/>
     <use xlink:href="#md590b8b4da" x="105.958542" y="132.491111" style="fill-opacity: 0; stroke: #000000"/>
     <use xlink:href="#md590b8b4da" x="105.958542" y="132.491111" style="fill-opacity: 0; stroke: #000000"/>
     <use xlink:href="#md590b8b4da" x="105.958542" y="132.491111" style="fill-opacity: 0; stroke: #000000"/>
     <use xlink:href="#md590b8b4da" x="105.958542" y="132.491111" style="fill-opacity: 0; stroke: #000000"/>
     <use xlink:href="#md590b8b4da" x="105.958542" y="132.491111" style="fill-opacity: 0; stroke: #000000"/>
    </g>
   </g>
   <g id="patch_4">
    <path d="M 205.177542 181.087867 
L 227.226208 181.087867 
L 227.226208 167.995999 
L 221.714042 164.888948 
L 227.226208 161.781898 
L 227.226208 148.69003 
L 205.177542 148.69003 
L 205.177542 161.781898 
L 210.689708 164.888948 
L 205.177542 167.995999 
L 205.177542 181.087867 
z
" clip-path="url(#p327cdf1578)" style="fill: #a9a9a9; stroke: #000000; stroke-linejoin: miter"/>
   </g>
   <g id="line2d_21">
    <path d="M 216.201875 181.087867 
L 216.201875 197.286786 
" clip-path="url(#p327cdf1578)" style="fill: none; stroke: #000000; stroke-linecap: square"/>
   </g>
   <g id="line2d_22">
    <path d="M 216.201875 148.69003 
L 216.201875 132.491111 
" clip-path="url(#p327cdf1578)" style="fill: none; stroke: #000000; stroke-linecap: square"/>
   </g>
   <g id="line2d_23">
    <path d="M 210.689708 197.286786 
L 221.714042 197.286786 
" clip-path="url(#p327cdf1578)" style="fill: none; stroke: #000000; stroke-linecap: square"/>
   </g>
   <g id="line2d_24">
    <path d="M 210.689708 132.491111 
L 221.714042 132.491111 
" clip-path="url(#p327cdf1578)" style="fill: none; stroke: #000000; stroke-linecap: square"/>
   </g>
   <g id="line2d_25">
    <g clip-path="url(#p327cdf1578)">
     <use xlink:href="#md590b8b4da" x="216.201875" y="205.386246" style="fill-opacity: 0; stroke: #000000"/>
     <use xlink:href="#md590b8b4da" x="216.201875" y="205.386246" style="fill-opacity: 0; stroke: #000000"/>
     <use xlink:href="#md590b8b4da" x="216.201875" y="205.386246" style="fill-opacity: 0; stroke: #000000"/>
     <use xlink:href="#md590b8b4da" x="216.201875" y="205.386246" style="fill-opacity: 0; stroke: #000000"/>
     <use xlink:href="#md590b8b4da" x="216.201875" y="205.386246" style="fill-opacity: 0; stroke: #000000"/>
     <use xlink:href="#md590b8b4da" x="216.201875" y="213.485705" style="fill-opacity: 0; stroke: #000000"/>
     <use xlink:href="#md590b8b4da" x="216.201875" y="213.485705" style="fill-opacity: 0; stroke: #000000"/>
     <use xlink:href="#md590b8b4da" x="216.201875" y="213.485705" style="fill-opacity: 0; stroke: #000000"/>
     <use xlink:href="#md590b8b4da" x="216.201875" y="213.485705" style="fill-opacity: 0; stroke: #000000"/>
     <use xlink:href="#md590b8b4da" x="216.201875" y="213.485705" style="fill-opacity: 0; stroke: #000000"/>
     <use xlink:href="#md590b8b4da" x="216.201875" y="213.485705" style="fill-opacity: 0; stroke: #000000"/>
     <use xlink:href="#md590b8b4da" x="216.201875" y="213.485705" style="fill-opacity: 0; stroke: #000000"/>
     <use xlink:href="#md590b8b4da" x="216.201875" y="213.485705" style="fill-opacity: 0; stroke: #000000"/>
     <use xlink:href="#md590b8b4da" x="216.201875" y="213.485705" style="fill-opacity: 0; stroke: #000000"/>
     <use xlink:href="#md590b8b4da" x="216.201875" y="205.386246" style="fill-opacity: 0; stroke: #000000"/>
     <use xlink:href="#md590b8b4da" x="216.201875" y="205.386246" style="fill-opacity: 0; stroke: #000000"/>
     <use xlink:href="#md590b8b4da" x="216.201875" y="205.386246" style="fill-opacity: 0; stroke: #000000"/>
     <use xlink:href="#md590b8b4da" x="216.201875" y="205.386246" style="fill-opacity: 0; stroke: #000000"/>
     <use xlink:href="#md590b8b4da" x="216.201875" y="237.784084" style="fill-opacity: 0; stroke: #000000"/>
     <use xlink:href="#md590b8b4da" x="216.201875" y="237.784084" style="fill-opacity: 0; stroke: #000000"/>
     <use xlink:href="#md590b8b4da" x="216.201875" y="237.784084" style="fill-opacity: 0; stroke: #000000"/>
     <use xlink:href="#md590b8b4da" x="216.201875" y="237.784084" style="fill-opacity: 0; stroke: #000000"/>
     <use xlink:href="#md590b8b4da" x="216.201875" y="237.784084" style="fill-opacity: 0; stroke: #000000"/>
     <use xlink:href="#md590b8b4da" x="216.201875" y="253.983003" style="fill-opacity: 0; stroke: #000000"/>
     <use xlink:href="#md590b8b4da" x="216.201875" y="253.983003" style="fill-opacity: 0; stroke: #000000"/>
     <use xlink:href="#md590b8b4da" x="216.201875" y="253.983003" style="fill-opacity: 0; stroke: #000000"/>
     <use xlink:href="#md590b8b4da" x="216.201875" y="253.983003" style="fill-opacity: 0; stroke: #000000"/>
     <use xlink:href="#md590b8b4da" x="216.201875" y="237.784084" style="fill-opacity: 0; stroke: #000000"/>
     <use xlink:href="#md590b8b4da" x="216.201875" y="237.784084" style="fill-opacity: 0; stroke: #000000"/>
     <use xlink:href="#md590b8b4da" x="216.201875" y="237.784084" style="fill-opacity: 0; stroke: #000000"/>
     <use xlink:href="#md590b8b4da" x="216.201875" y="237.784084" style="fill-opacity: 0; stroke: #000000"/>
     <use xlink:href="#md590b8b4da" x="216.201875" y="237.784084" style="fill-opacity: 0; stroke: #000000"/>
     <use xlink:href="#md590b8b4da" x="216.201875" y="213.485705" style="fill-opacity: 0; stroke: #000000"/>
     <use xlink:href="#md590b8b4da" x="216.201875" y="205.386246" style="fill-opacity: 0; stroke: #000000"/>
     <use xlink:href="#md590b8b4da" x="216.201875" y="205.386246" style="fill-opacity: 0; stroke: #000000"/>
     <use xlink:href="#md590b8b4da" x="216.201875" y="205.386246" style="fill-opacity: 0; stroke: #000000"/>
     <use xlink:href="#md590b8b4da" x="216.201875" y="221.585165" style="fill-opacity: 0; stroke: #000000"/>
     <use xlink:href="#md590b8b4da" x="216.201875" y="221.585165" style="fill-opacity: 0; stroke: #000000"/>
     <use xlink:href="#md590b8b4da" x="216.201875" y="221.585165" style="fill-opacity: 0; stroke: #000000"/>
     <use xlink:href="#md590b8b4da" x="216.201875" y="213.485705" style="fill-opacity: 0; stroke: #000000"/>
     <use xlink:href="#md590b8b4da" x="216.201875" y="237.784084" style="fill-opacity: 0; stroke: #000000"/>
     <use xlink:href="#md590b8b4da" x="216.201875" y="237.784084" style="fill-opacity: 0; stroke: #000000"/>
     <use xlink:href="#md590b8b4da" x="216.201875" y="237.784084" style="fill-opacity: 0; stroke: #000000"/>
     <use xlink:href="#md590b8b4da" x="216.201875" y="213.485705" style="fill-opacity: 0; stroke: #000000"/>
     <use xlink:href="#md590b8b4da" x="216.201875" y="213.485705" style="fill-opacity: 0; stroke: #000000"/>
     <use xlink:href="#md590b8b4da" x="216.201875" y="213.485705" style="fill-opacity: 0; stroke: #000000"/>
     <use xlink:href="#md590b8b4da" x="216.201875" y="213.485705" style="fill-opacity: 0; stroke: #000000"/>
     <use xlink:href="#md590b8b4da" x="216.201875" y="108.192732" style="fill-opacity: 0; stroke: #000000"/>
     <use xlink:href="#md590b8b4da" x="216.201875" y="108.192732" style="fill-opacity: 0; stroke: #000000"/>
     <use xlink:href="#md590b8b4da" x="216.201875" y="108.192732" style="fill-opacity: 0; stroke: #000000"/>
     <use xlink:href="#md590b8b4da" x="216.201875" y="91.993813" style="fill-opacity: 0; stroke: #000000"/>
     <use xlink:href="#md590b8b4da" x="216.201875" y="91.993813" style="fill-opacity: 0; stroke: #000000"/>
     <use xlink:href="#md590b8b4da" x="216.201875" y="91.993813" style="fill-opacity: 0; stroke: #000000"/>
     <use xlink:href="#md590b8b4da" x="216.201875" y="91.993813" style="fill-opacity: 0; stroke: #000000"/>
     <use xlink:href="#md590b8b4da" x="216.201875" y="124.391651" style="fill-opacity: 0; stroke: #000000"/>
     <use xlink:href="#md590b8b4da" x="216.201875" y="124.391651" style="fill-opacity: 0; stroke: #000000"/>
     <use xlink:href="#md590b8b4da" x="216.201875" y="124.391651" style="fill-opacity: 0; stroke: #000000"/>
     <use xlink:href="#md590b8b4da" x="216.201875" y="124.391651" style="fill-opacity: 0; stroke: #000000"/>
     <use xlink:href="#md590b8b4da" x="216.201875" y="124.391651" style="fill-opacity: 0; stroke: #000000"/>
     <use xlink:href="#md590b8b4da" x="216.201875" y="124.391651" style="fill-opacity: 0; stroke: #000000"/>
     <use xlink:href="#md590b8b4da" x="216.201875" y="124.391651" style="fill-opacity: 0; stroke: #000000"/>
     <use xlink:href="#md590b8b4da" x="216.201875" y="124.391651" style="fill-opacity: 0; stroke: #000000"/>
     <use xlink:href="#md590b8b4da" x="216.201875" y="124.391651" style="fill-opacity: 0; stroke: #000000"/>
     <use xlink:href="#md590b8b4da" x="216.201875" y="124.391651" style="fill-opacity: 0; stroke: #000000"/>
     <use xlink:href="#md590b8b4da" x="216.201875" y="124.391651" style="fill-opacity: 0; stroke: #000000"/>
     <use xlink:href="#md590b8b4da" x="216.201875" y="124.391651" style="fill-opacity: 0; stroke: #000000"/>
     <use xlink:href="#md590b8b4da" x="216.201875" y="124.391651" style="fill-opacity: 0; stroke: #000000"/>
    </g>
   </g>
   <g id="patch_5">
    <path d="M 315.420875 213.485705 
L 337.469542 213.485705 
L 337.469542 184.849356 
L 331.957375 181.087867 
L 337.469542 177.326379 
L 337.469542 156.789489 
L 315.420875 156.789489 
L 315.420875 177.326379 
L 320.933042 181.087867 
L 315.420875 184.849356 
L 315.420875 213.485705 
z
" clip-path="url(#p327cdf1578)" style="fill: #a9a9a9; stroke: #000000; stroke-linejoin: miter"/>
   </g>
   <g id="line2d_26">
    <path d="M 326.445208 213.485705 
L 326.445208 237.784084 
" clip-path="url(#p327cdf1578)" style="fill: none; stroke: #000000; stroke-linecap: square"/>
   </g>
   <g id="line2d_27">
    <path d="M 326.445208 156.789489 
L 326.445208 132.491111 
" clip-path="url(#p327cdf1578)" style="fill: none; stroke: #000000; stroke-linecap: square"/>
   </g>
   <g id="line2d_28">
    <path d="M 320.933042 237.784084 
L 331.957375 237.784084 
" clip-path="url(#p327cdf1578)" style="fill: none; stroke: #000000; stroke-linecap: square"/>
   </g>
   <g id="line2d_29">
    <path d="M 320.933042 132.491111 
L 331.957375 132.491111 
" clip-path="url(#p327cdf1578)" style="fill: none; stroke: #000000; stroke-linecap: square"/>
   </g>
   <g id="line2d_30">
    <g clip-path="url(#p327cdf1578)">
     <use xlink:href="#md590b8b4da" x="326.445208" y="245.883543" style="fill-opacity: 0; stroke: #000000"/>
     <use xlink:href="#md590b8b4da" x="326.445208" y="245.883543" style="fill-opacity: 0; stroke: #000000"/>
     <use xlink:href="#md590b8b4da" x="326.445208" y="245.883543" style="fill-opacity: 0; stroke: #000000"/>
     <use xlink:href="#md590b8b4da" x="326.445208" y="245.883543" style="fill-opacity: 0; stroke: #000000"/>
     <use xlink:href="#md590b8b4da" x="326.445208" y="253.983003" style="fill-opacity: 0; stroke: #000000"/>
     <use xlink:href="#md590b8b4da" x="326.445208" y="253.983003" style="fill-opacity: 0; stroke: #000000"/>
     <use xlink:href="#md590b8b4da" x="326.445208" y="253.983003" style="fill-opacity: 0; stroke: #000000"/>
     <use xlink:href="#md590b8b4da" x="326.445208" y="253.983003" style="fill-opacity: 0; stroke: #000000"/>
     <use xlink:href="#md590b8b4da" x="326.445208" y="245.883543" style="fill-opacity: 0; stroke: #000000"/>
     <use xlink:href="#md590b8b4da" x="326.445208" y="245.883543" style="fill-opacity: 0; stroke: #000000"/>
     <use xlink:href="#md590b8b4da" x="326.445208" y="245.883543" style="fill-opacity: 0; stroke: #000000"/>
     <use xlink:href="#md590b8b4da" x="326.445208" y="245.883543" style="fill-opacity: 0; stroke: #000000"/>
     <use xlink:href="#md590b8b4da" x="326.445208" y="245.883543" style="fill-opacity: 0; stroke: #000000"/>
     <use xlink:href="#md590b8b4da" x="326.445208" y="245.883543" style="fill-opacity: 0; stroke: #000000"/>
     <use xlink:href="#md590b8b4da" x="326.445208" y="286.38084" style="fill-opacity: 0; stroke: #000000"/>
     <use xlink:href="#md590b8b4da" x="326.445208" y="286.38084" style="fill-opacity: 0; stroke: #000000"/>
     <use xlink:href="#md590b8b4da" x="326.445208" y="286.38084" style="fill-opacity: 0; stroke: #000000"/>
     <use xlink:href="#md590b8b4da" x="326.445208" y="286.38084" style="fill-opacity: 0; stroke: #000000"/>
     <use xlink:href="#md590b8b4da" x="326.445208" y="270.181921" style="fill-opacity: 0; stroke: #000000"/>
     <use xlink:href="#md590b8b4da" x="326.445208" y="108.192732" style="fill-opacity: 0; stroke: #000000"/>
     <use xlink:href="#md590b8b4da" x="326.445208" y="108.192732" style="fill-opacity: 0; stroke: #000000"/>
     <use xlink:href="#md590b8b4da" x="326.445208" y="108.192732" style="fill-opacity: 0; stroke: #000000"/>
     <use xlink:href="#md590b8b4da" x="326.445208" y="91.993813" style="fill-opacity: 0; stroke: #000000"/>
     <use xlink:href="#md590b8b4da" x="326.445208" y="91.993813" style="fill-opacity: 0; stroke: #000000"/>
     <use xlink:href="#md590b8b4da" x="326.445208" y="91.993813" style="fill-opacity: 0; stroke: #000000"/>
     <use xlink:href="#md590b8b4da" x="326.445208" y="91.993813" style="fill-opacity: 0; stroke: #000000"/>
     <use xlink:href="#md590b8b4da" x="326.445208" y="124.391651" style="fill-opacity: 0; stroke: #000000"/>
     <use xlink:href="#md590b8b4da" x="326.445208" y="124.391651" style="fill-opacity: 0; stroke: #000000"/>
     <use xlink:href="#md590b8b4da" x="326.445208" y="124.391651" style="fill-opacity: 0; stroke: #000000"/>
     <use xlink:href="#md590b8b4da" x="326.445208" y="124.391651" style="fill-opacity: 0; stroke: #000000"/>
     <use xlink:href="#md590b8b4da" x="326.445208" y="124.391651" style="fill-opacity: 0; stroke: #000000"/>
     <use xlink:href="#md590b8b4da" x="326.445208" y="124.391651" style="fill-opacity: 0; stroke: #000000"/>
     <use xlink:href="#md590b8b4da" x="326.445208" y="124.391651" style="fill-opacity: 0; stroke: #000000"/>
     <use xlink:href="#md590b8b4da" x="326.445208" y="124.391651" style="fill-opacity: 0; stroke: #000000"/>
     <use xlink:href="#md590b8b4da" x="326.445208" y="124.391651" style="fill-opacity: 0; stroke: #000000"/>
     <use xlink:href="#md590b8b4da" x="326.445208" y="124.391651" style="fill-opacity: 0; stroke: #000000"/>
     <use xlink:href="#md590b8b4da" x="326.445208" y="124.391651" style="fill-opacity: 0; stroke: #000000"/>
     <use xlink:href="#md590b8b4da" x="326.445208" y="124.391651" style="fill-opacity: 0; stroke: #000000"/>
     <use xlink:href="#md590b8b4da" x="326.445208" y="124.391651" style="fill-opacity: 0; stroke: #000000"/>
    </g>
   </g>
   <g id="line2d_31">
    <path d="M 100.446375 197.286786 
L 111.470708 197.286786 
" clip-path="url(#p327cdf1578)" style="fill: none; stroke: #000000; stroke-width: 2; stroke-linecap: square"/>
   </g>
   <g id="line2d_32">
    <path d="M 210.689708 164.888948 
L 221.714042 164.888948 
" clip-path="url(#p327cdf1578)" style="fill: none; stroke: #000000; stroke-width: 2; stroke-linecap: square"/>
   </g>
   <g id="line2d_33">
    <path d="M 320.933042 181.087867 
L 331.957375 181.087867 
" clip-path="url(#p327cdf1578)" style="fill: none; stroke: #000000; stroke-width: 2; stroke-linecap: square"/>
   </g>
   <g id="patch_6">
    <path d="M 50.836875 310.679219 
L 50.836875 10.999219 
" style="fill: none; stroke: #000000; stroke-width: 0.8; stroke-linejoin: miter; stroke-linecap: square"/>
   </g>
   <g id="patch_7">
    <path d="M 381.566875 310.679219 
L 381.566875 10.999219 
" style="fill: none; stroke: #000000; stroke-width: 0.8; stroke-linejoin: miter; stroke-linecap: square"/>
   </g>
   <g id="patch_8">
    <path d="M 50.836875 310.679219 
L 381.566875 310.679219 
" style="fill: none; stroke: #000000; stroke-width: 0.8; stroke-linejoin: miter; stroke-linecap: square"/>
   </g>
   <g id="patch_9">
    <path d="M 50.836875 10.999219 
L 381.566875 10.999219 
" style="fill: none; stroke: #000000; stroke-width: 0.8; stroke-linejoin: miter; stroke-linecap: square"/>
   </g>
   <g id="PathCollection_1">
    <defs>
     <path id="m48d1029833" d="M 0 4.472136 
C 1.186024 4.472136 2.323632 4.000923 3.162278 3.162278 
C 4.000923 2.323632 4.472136 1.186024 4.472136 0 
C 4.472136 -1.186024 4.000923 -2.323632 3.162278 -3.162278 
C 2.323632 -4.000923 1.186024 -4.472136 0 -4.472136 
C -1.186024 -4.472136 -2.323632 -4.000923 -3.162278 -3.162278 
C -4.000923 -2.323632 -4.472136 -1.186024 -4.472136 0 
C -4.472136 1.186024 -4.000923 2.323632 -3.162278 3.162278 
C -2.323632 4.000923 -1.186024 4.472136 0 4.472136 
z
" style="stroke: #000000; stroke-width: 1.5"/>
    </defs>
    <g clip-path="url(#p327cdf1578)">
     <use xlink:href="#m48d1029833" x="105.958542" y="164.888948" style="fill: #ffffff; stroke: #000000; stroke-width: 1.5"/>
     <use xlink:href="#m48d1029833" x="216.201875" y="132.491111" style="fill: #ffffff; stroke: #000000; stroke-width: 1.5"/>
     <use xlink:href="#m48d1029833" x="326.445208" y="128.441381" style="fill: #ffffff; stroke: #000000; stroke-width: 1.5"/>
    </g>
   </g>
  </g>
 </g>
 <defs>
  <clipPath id="p327cdf1578">
   <rect x="50.836875" y="10.999219" width="330.73" height="299.68"/>
  </clipPath>
 </defs>
</svg>
