<?xml version="1.0" encoding="utf-8" standalone="no"?>
<!DOCTYPE svg PUBLIC "-//W3C//DTD SVG 1.1//EN"
  "http://www.w3.org/Graphics/SVG/1.1/DTD/svg11.dtd">
<svg xmlns:xlink="http://www.w3.org/1999/xlink" width="396pt" height="360pt" viewBox="0 0 396 360" xmlns="http://www.w3.org/2000/svg" version="1.1">
 <metadata>
  <rdf:RDF xmlns:dc="http://purl.org/dc/elements/1.1/" xmlns:cc="http://creativecommons.org/ns#" xmlns:rdf="http://www.w3.org/1999/02/22-rdf-syntax-ns#">
   <cc:Work>
    <dc:type rdf:resource="http://purl.org/dc/dcmitype/StillImage"/>
    <dc:date>2024-04-17T11:51:05.014844</dc:date>
    <dc:format>image/svg+xml</dc:format>
    <dc:creator>
     <cc:Agent>
      <dc:title>Matplotlib v3.6.2, https://matplotlib.org/</dc:title>
     </cc:Agent>
    </dc:creator>
   </cc:Work>
  </rdf:RDF>
 </metadata>
 <defs>
  <style type="text/css">*{stroke-linejoin: round; stroke-linecap: butt}</style>
 </defs>
 <g id="figure_1">
  <g id="patch_1">
   <path d="M 0 360 
L 396 360 
L 396 0 
L 0 0 
z
" style="fill: #ffffff"/>
  </g>
  <g id="axes_1">
   <g id="patch_2">
    <path d="M 48.26 314.44 
L 385.2 314.44 
L 385.2 10.8 
L 48.26 10.8 
z
" style="fill: #ffffff"/>
   </g>
   <g id="PathCollection_1">
    <defs>
     <path id="m49153df552" d="M 0 3.535534 
C 0.937635 3.535534 1.836992 3.163008 2.5 2.5 
C 3.163008 1.836992 3.535534 0.937635 3.535534 0 
C 3.535534 -0.937635 3.163008 -1.836992 2.5 -2.5 
C 1.836992 -3.163008 0.937635 -3.535534 0 -3.535534 
C -0.937635 -3.535534 -1.836992 -3.163008 -2.5 -2.5 
C -3.163008 -1.836992 -3.535534 -0.937635 -3.535534 0 
C -3.535534 0.937635 -3.163008 1.836992 -2.5 2.5 
C -1.836992 3.163008 -0.937635 3.535534 0 3.535534 
z
" style="stroke: #000000"/>
    </defs>
    <g clip-path="url(#p9eec783f79)">
     <use xlink:href="#m49153df552" x="369.634963" y="270.248021" style="fill: #8e0152; stroke: #000000"/>
     <use xlink:href="#m49153df552" x="348.831833" y="247.155395" style="fill: #8e0152; stroke: #000000"/>
     <use xlink:href="#m49153df552" x="286.873329" y="247.671393" style="fill: #8e0152; stroke: #000000"/>
     <use xlink:href="#m49153df552" x="344.194854" y="282.21164" style="fill: #8e0152; stroke: #000000"/>
     <use xlink:href="#m49153df552" x="312.497821" y="244.775331" style="fill: #8e0152; stroke: #000000"/>
     <use xlink:href="#m49153df552" x="364.845738" y="250.356375" style="fill: #8e0152; stroke: #000000"/>
     <use xlink:href="#m49153df552" x="254.349669" y="221.666881" style="fill: #8e0152; stroke: #000000"/>
     <use xlink:href="#m49153df552" x="223.30256" y="215.78839" style="fill: #8e0152; stroke: #000000"/>
     <use xlink:href="#m49153df552" x="328.971489" y="255.713874" style="fill: #8e0152; stroke: #000000"/>
     <use xlink:href="#m49153df552" x="295.477539" y="193.977548" style="fill: #8e0152; stroke: #000000"/>
     <use xlink:href="#m49153df552" x="306.52008" y="251.047483" style="fill: #8e0152; stroke: #000000"/>
     <use xlink:href="#m49153df552" x="243.440234" y="259.394147" style="fill: #8e0152; stroke: #000000"/>
     <use xlink:href="#m49153df552" x="281.793315" y="269.085461" style="fill: #8e0152; stroke: #000000"/>
     <use xlink:href="#m49153df552" x="321.434856" y="292.59789" style="fill: #8e0152; stroke: #000000"/>
     <use xlink:href="#m49153df552" x="275.789728" y="233.501572" style="fill: #8e0152; stroke: #000000"/>
     <use xlink:href="#m49153df552" x="299.945057" y="263.478562" style="fill: #8e0152; stroke: #000000"/>
     <use xlink:href="#m49153df552" x="295.577411" y="288.389318" style="fill: #8e0152; stroke: #000000"/>
     <use xlink:href="#m49153df552" x="203.736907" y="186.841081" style="fill: #8e0152; stroke: #000000"/>
     <use xlink:href="#m49153df552" x="316.415067" y="234.214359" style="fill: #8e0152; stroke: #000000"/>
     <use xlink:href="#m49153df552" x="330.614062" y="278.335417" style="fill: #8e0152; stroke: #000000"/>
     <use xlink:href="#m49153df552" x="309.292748" y="280.368863" style="fill: #8e0152; stroke: #000000"/>
     <use xlink:href="#m49153df552" x="337.90355" y="273.153766" style="fill: #8e0152; stroke: #000000"/>
     <use xlink:href="#m49153df552" x="292.230869" y="280.729095" style="fill: #8e0152; stroke: #000000"/>
     <use xlink:href="#m49153df552" x="256.514205" y="275.04074" style="fill: #8e0152; stroke: #000000"/>
     <use xlink:href="#m49153df552" x="355.123186" y="270.586062" style="fill: #8e0152; stroke: #000000"/>
     <use xlink:href="#m49153df552" x="281.654576" y="278.729426" style="fill: #8e0152; stroke: #000000"/>
     <use xlink:href="#m49153df552" x="325.128024" y="229.7214" style="fill: #8e0152; stroke: #000000"/>
     <use xlink:href="#m49153df552" x="313.209507" y="245.101662" style="fill: #8e0152; stroke: #000000"/>
     <use xlink:href="#m49153df552" x="369.884545" y="234.094582" style="fill: #8e0152; stroke: #000000"/>
     <use xlink:href="#m49153df552" x="354.601442" y="245.688101" style="fill: #8e0152; stroke: #000000"/>
    </g>
   </g>
   <g id="PathCollection_2">
    <defs>
     <path id="mac03c58f05" d="M 0 3.535534 
C 0.937635 3.535534 1.836992 3.163008 2.5 2.5 
C 3.163008 1.836992 3.535534 0.937635 3.535534 0 
C 3.535534 -0.937635 3.163008 -1.836992 2.5 -2.5 
C 1.836992 -3.163008 0.937635 -3.535534 0 -3.535534 
C -0.937635 -3.535534 -1.836992 -3.163008 -2.5 -2.5 
C -3.163008 -1.836992 -3.535534 -0.937635 -3.535534 0 
C -3.535534 0.937635 -3.163008 1.836992 -2.5 2.5 
C -1.836992 3.163008 -0.937635 3.535534 0 3.535534 
z
" style="stroke: #000000"/>
    </defs>
    <g clip-path="url(#p9eec783f79)">
     <use xlink:href="#mac03c58f05" x="356.45439" y="249.557405" style="fill: #e897c4; stroke: #000000"/>
     <use xlink:href="#mac03c58f05" x="212.78386" y="241.89233" style="fill: #e897c4; stroke: #000000"/>
     <use xlink:href="#mac03c58f05" x="157.500641" y="138.688259" style="fill: #e897c4; stroke: #000000"/>
     <use xlink:href="#mac03c58f05" x="168.397494" y="149.591592" style="fill: #e897c4; stroke: #000000"/>
     <use xlink:href="#mac03c58f05" x="254.127493" y="167.974408" style="fill: #e897c4; stroke: #000000"/>
     <use xlink:href="#mac03c58f05" x="206.72902" y="137.623798" style="fill: #e897c4; stroke: #000000"/>
     <use xlink:href="#mac03c58f05" x="224.691503" y="266.311756" style="fill: #e897c4; stroke: #000000"/>
     <use xlink:href="#mac03c58f05" x="264.562292" y="260.037045" style="fill: #e897c4; stroke: #000000"/>
     <use xlink:href="#mac03c58f05" x="178.304625" y="157.551657" style="fill: #e897c4; stroke: #000000"/>
     <use xlink:href="#mac03c58f05" x="178.489885" y="116.799177" style="fill: #e897c4; stroke: #000000"/>
     <use xlink:href="#mac03c58f05" x="226.998313" y="271.662131" style="fill: #e897c4; stroke: #000000"/>
     <use xlink:href="#mac03c58f05" x="228.540234" y="167.429587" style="fill: #e897c4; stroke: #000000"/>
     <use xlink:href="#mac03c58f05" x="138.722285" y="146.320048" style="fill: #e897c4; stroke: #000000"/>
     <use xlink:href="#mac03c58f05" x="194.387558" y="126.539376" style="fill: #e897c4; stroke: #000000"/>
     <use xlink:href="#mac03c58f05" x="244.784167" y="194.107417" style="fill: #e897c4; stroke: #000000"/>
     <use xlink:href="#mac03c58f05" x="253.555691" y="174.800613" style="fill: #e897c4; stroke: #000000"/>
     <use xlink:href="#mac03c58f05" x="257.4784" y="207.611494" style="fill: #e897c4; stroke: #000000"/>
     <use xlink:href="#mac03c58f05" x="327.684417" y="268.533947" style="fill: #e897c4; stroke: #000000"/>
     <use xlink:href="#mac03c58f05" x="302.810282" y="282.42147" style="fill: #e897c4; stroke: #000000"/>
     <use xlink:href="#mac03c58f05" x="300.058486" y="300.638182" style="fill: #e897c4; stroke: #000000"/>
     <use xlink:href="#mac03c58f05" x="268.362964" y="179.733478" style="fill: #e897c4; stroke: #000000"/>
     <use xlink:href="#mac03c58f05" x="304.617147" y="216.65035" style="fill: #e897c4; stroke: #000000"/>
     <use xlink:href="#mac03c58f05" x="268.356186" y="283.013865" style="fill: #e897c4; stroke: #000000"/>
     <use xlink:href="#mac03c58f05" x="164.048331" y="179.743795" style="fill: #e897c4; stroke: #000000"/>
    </g>
   </g>
   <g id="PathCollection_3">
    <defs>
     <path id="mf71690fedb" d="M 0 3.535534 
C 0.937635 3.535534 1.836992 3.163008 2.5 2.5 
C 3.163008 1.836992 3.535534 0.937635 3.535534 0 
C 3.535534 -0.937635 3.163008 -1.836992 2.5 -2.5 
C 1.836992 -3.163008 0.937635 -3.535534 0 -3.535534 
C -0.937635 -3.535534 -1.836992 -3.163008 -2.5 -2.5 
C -3.163008 -1.836992 -3.535534 -0.937635 -3.535534 0 
C -3.535534 0.937635 -3.163008 1.836992 -2.5 2.5 
C -1.836992 3.163008 -0.937635 3.535534 0 3.535534 
z
" style="stroke: #000000"/>
    </defs>
    <g clip-path="url(#p9eec783f79)">
     <use xlink:href="#mf71690fedb" x="218.018998" y="255.128439" style="fill: #f7f7f6; stroke: #000000"/>
     <use xlink:href="#mf71690fedb" x="86.038323" y="64.349326" style="fill: #f7f7f6; stroke: #000000"/>
     <use xlink:href="#mf71690fedb" x="133.155418" y="125.396796" style="fill: #f7f7f6; stroke: #000000"/>
     <use xlink:href="#mf71690fedb" x="231.041448" y="178.534766" style="fill: #f7f7f6; stroke: #000000"/>
     <use xlink:href="#mf71690fedb" x="112.502145" y="75.695001" style="fill: #f7f7f6; stroke: #000000"/>
     <use xlink:href="#mf71690fedb" x="151.122632" y="123.986576" style="fill: #f7f7f6; stroke: #000000"/>
     <use xlink:href="#mf71690fedb" x="145.781599" y="118.51798" style="fill: #f7f7f6; stroke: #000000"/>
     <use xlink:href="#mf71690fedb" x="63.575455" y="68.87727" style="fill: #f7f7f6; stroke: #000000"/>
     <use xlink:href="#mf71690fedb" x="197.009321" y="207.629427" style="fill: #f7f7f6; stroke: #000000"/>
     <use xlink:href="#mf71690fedb" x="246.007282" y="165.183773" style="fill: #f7f7f6; stroke: #000000"/>
     <use xlink:href="#mf71690fedb" x="222.604724" y="189.974813" style="fill: #f7f7f6; stroke: #000000"/>
     <use xlink:href="#mf71690fedb" x="222.409027" y="231.250844" style="fill: #f7f7f6; stroke: #000000"/>
     <use xlink:href="#mf71690fedb" x="305.400469" y="192.70645" style="fill: #f7f7f6; stroke: #000000"/>
     <use xlink:href="#mf71690fedb" x="126.572154" y="73.49496" style="fill: #f7f7f6; stroke: #000000"/>
     <use xlink:href="#mf71690fedb" x="155.922073" y="163.433034" style="fill: #f7f7f6; stroke: #000000"/>
     <use xlink:href="#mf71690fedb" x="289.886558" y="214.302569" style="fill: #f7f7f6; stroke: #000000"/>
     <use xlink:href="#mf71690fedb" x="260.74187" y="216.677004" style="fill: #f7f7f6; stroke: #000000"/>
     <use xlink:href="#mf71690fedb" x="86.352618" y="64.315794" style="fill: #f7f7f6; stroke: #000000"/>
     <use xlink:href="#mf71690fedb" x="230.889592" y="205.279087" style="fill: #f7f7f6; stroke: #000000"/>
     <use xlink:href="#mf71690fedb" x="278.719372" y="226.237958" style="fill: #f7f7f6; stroke: #000000"/>
     <use xlink:href="#mf71690fedb" x="102.522208" y="108.082291" style="fill: #f7f7f6; stroke: #000000"/>
    </g>
   </g>
   <g id="PathCollection_4">
    <defs>
     <path id="m5e8946e857" d="M 0 3.535534 
C 0.937635 3.535534 1.836992 3.163008 2.5 2.5 
C 3.163008 1.836992 3.535534 0.937635 3.535534 0 
C 3.535534 -0.937635 3.163008 -1.836992 2.5 -2.5 
C 1.836992 -3.163008 0.937635 -3.535534 0 -3.535534 
C -0.937635 -3.535534 -1.836992 -3.163008 -2.5 -2.5 
C -3.163008 -1.836992 -3.535534 -0.937635 -3.535534 0 
C -3.535534 0.937635 -3.163008 1.836992 -2.5 2.5 
C -1.836992 3.163008 -0.937635 3.535534 0 3.535534 
z
" style="stroke: #000000"/>
    </defs>
    <g clip-path="url(#p9eec783f79)">
     <use xlink:href="#m5e8946e857" x="153.335104" y="129.430893" style="fill: #9acd61; stroke: #000000"/>
     <use xlink:href="#m5e8946e857" x="73.406681" y="76.970152" style="fill: #9acd61; stroke: #000000"/>
     <use xlink:href="#m5e8946e857" x="82.975134" y="42.86717" style="fill: #9acd61; stroke: #000000"/>
     <use xlink:href="#m5e8946e857" x="91.20041" y="99.068164" style="fill: #9acd61; stroke: #000000"/>
     <use xlink:href="#m5e8946e857" x="100.685474" y="80.160098" style="fill: #9acd61; stroke: #000000"/>
     <use xlink:href="#m5e8946e857" x="123.664576" y="106.77283" style="fill: #9acd61; stroke: #000000"/>
     <use xlink:href="#m5e8946e857" x="180.06682" y="124.418437" style="fill: #9acd61; stroke: #000000"/>
     <use xlink:href="#m5e8946e857" x="93.352706" y="40.042717" style="fill: #9acd61; stroke: #000000"/>
     <use xlink:href="#m5e8946e857" x="90.751571" y="89.187245" style="fill: #9acd61; stroke: #000000"/>
    </g>
   </g>
   <g id="PathCollection_5">
    <defs>
     <path id="m5490413d35" d="M 0 3.535534 
C 0.937635 3.535534 1.836992 3.163008 2.5 2.5 
C 3.163008 1.836992 3.535534 0.937635 3.535534 0 
C 3.535534 -0.937635 3.163008 -1.836992 2.5 -2.5 
C 1.836992 -3.163008 0.937635 -3.535534 0 -3.535534 
C -0.937635 -3.535534 -1.836992 -3.163008 -2.5 -2.5 
C -3.163008 -1.836992 -3.535534 -0.937635 -3.535534 0 
C -3.535534 0.937635 -3.163008 1.836992 -2.5 2.5 
C -1.836992 3.163008 -0.937635 3.535534 0 3.535534 
z
" style="stroke: #000000"/>
    </defs>
    <g clip-path="url(#p9eec783f79)">
     <use xlink:href="#m5490413d35" x="110.437066" y="43.004286" style="fill: #276419; stroke: #000000"/>
     <use xlink:href="#m5490413d35" x="109.852732" y="52.049284" style="fill: #276419; stroke: #000000"/>
     <use xlink:href="#m5490413d35" x="89.509437" y="43.987109" style="fill: #276419; stroke: #000000"/>
     <use xlink:href="#m5490413d35" x="91.073839" y="32.367939" style="fill: #276419; stroke: #000000"/>
     <use xlink:href="#m5490413d35" x="80.50708" y="24.601818" style="fill: #276419; stroke: #000000"/>
     <use xlink:href="#m5490413d35" x="79.96132" y="87.626848" style="fill: #276419; stroke: #000000"/>
     <use xlink:href="#m5490413d35" x="75.728145" y="48.596119" style="fill: #276419; stroke: #000000"/>
     <use xlink:href="#m5490413d35" x="98.687375" y="61.670177" style="fill: #276419; stroke: #000000"/>
     <use xlink:href="#m5490413d35" x="100.771643" y="81.987031" style="fill: #276419; stroke: #000000"/>
    </g>
   </g>
   <g id="matplotlib.axis_1">
    <g id="xtick_1">
     <g id="line2d_1">
      <defs>
       <path id="mba0c91b8c1" d="M 0 0 
L 0 3.5 
" style="stroke: #000000; stroke-width: 0.8"/>
      </defs>
      <g>
       <use xlink:href="#mba0c91b8c1" x="70.305698" y="314.44" style="stroke: #000000; stroke-width: 0.8"/>
      </g>
     </g>
     <g id="text_1">
      <!-- 4 -->
      <g transform="translate(67.124448 329.038437) scale(0.1 -0.1)">
       <defs>
        <path id="DejaVuSans-34" d="M 2419 4116 
L 825 1625 
L 2419 1625 
L 2419 4116 
z
M 2253 4666 
L 3047 4666 
L 3047 1625 
L 3713 1625 
L 3713 1100 
L 3047 1100 
L 3047 0 
L 2419 0 
L 2419 1100 
L 313 1100 
L 313 1709 
L 2253 4666 
z
" transform="scale(0.015625)"/>
       </defs>
       <use xlink:href="#DejaVuSans-34"/>
      </g>
     </g>
    </g>
    <g id="xtick_2">
     <g id="line2d_2">
      <g>
       <use xlink:href="#mba0c91b8c1" x="121.44018" y="314.44" style="stroke: #000000; stroke-width: 0.8"/>
      </g>
     </g>
     <g id="text_2">
      <!-- 5 -->
      <g transform="translate(118.25893 329.038437) scale(0.1 -0.1)">
       <defs>
        <path id="DejaVuSans-35" d="M 691 4666 
L 3169 4666 
L 3169 4134 
L 1269 4134 
L 1269 2991 
Q 1406 3038 1543 3061 
Q 1681 3084 1819 3084 
Q 2600 3084 3056 2656 
Q 3513 2228 3513 1497 
Q 3513 744 3044 326 
Q 2575 -91 1722 -91 
Q 1428 -91 1123 -41 
Q 819 9 494 109 
L 494 744 
Q 775 591 1075 516 
Q 1375 441 1709 441 
Q 2250 441 2565 725 
Q 2881 1009 2881 1497 
Q 2881 1984 2565 2268 
Q 2250 2553 1709 2553 
Q 1456 2553 1204 2497 
Q 953 2441 691 2322 
L 691 4666 
z
" transform="scale(0.015625)"/>
       </defs>
       <use xlink:href="#DejaVuSans-35"/>
      </g>
     </g>
    </g>
    <g id="xtick_3">
     <g id="line2d_3">
      <g>
       <use xlink:href="#mba0c91b8c1" x="172.574662" y="314.44" style="stroke: #000000; stroke-width: 0.8"/>
      </g>
     </g>
     <g id="text_3">
      <!-- 6 -->
      <g transform="translate(169.393412 329.038437) scale(0.1 -0.1)">
       <defs>
        <path id="DejaVuSans-36" d="M 2113 2584 
Q 1688 2584 1439 2293 
Q 1191 2003 1191 1497 
Q 1191 994 1439 701 
Q 1688 409 2113 409 
Q 2538 409 2786 701 
Q 3034 994 3034 1497 
Q 3034 2003 2786 2293 
Q 2538 2584 2113 2584 
z
M 3366 4563 
L 3366 3988 
Q 3128 4100 2886 4159 
Q 2644 4219 2406 4219 
Q 1781 4219 1451 3797 
Q 1122 3375 1075 2522 
Q 1259 2794 1537 2939 
Q 1816 3084 2150 3084 
Q 2853 3084 3261 2657 
Q 3669 2231 3669 1497 
Q 3669 778 3244 343 
Q 2819 -91 2113 -91 
Q 1303 -91 875 529 
Q 447 1150 447 2328 
Q 447 3434 972 4092 
Q 1497 4750 2381 4750 
Q 2619 4750 2861 4703 
Q 3103 4656 3366 4563 
z
" transform="scale(0.015625)"/>
       </defs>
       <use xlink:href="#DejaVuSans-36"/>
      </g>
     </g>
    </g>
    <g id="xtick_4">
     <g id="line2d_4">
      <g>
       <use xlink:href="#mba0c91b8c1" x="223.709144" y="314.44" style="stroke: #000000; stroke-width: 0.8"/>
      </g>
     </g>
     <g id="text_4">
      <!-- 7 -->
      <g transform="translate(220.527894 329.038437) scale(0.1 -0.1)">
       <defs>
        <path id="DejaVuSans-37" d="M 525 4666 
L 3525 4666 
L 3525 4397 
L 1831 0 
L 1172 0 
L 2766 4134 
L 525 4134 
L 525 4666 
z
" transform="scale(0.015625)"/>
       </defs>
       <use xlink:href="#DejaVuSans-37"/>
      </g>
     </g>
    </g>
    <g id="xtick_5">
     <g id="line2d_5">
      <g>
       <use xlink:href="#mba0c91b8c1" x="274.843625" y="314.44" style="stroke: #000000; stroke-width: 0.8"/>
      </g>
     </g>
     <g id="text_5">
      <!-- 8 -->
      <g transform="translate(271.662375 329.038437) scale(0.1 -0.1)">
       <defs>
        <path id="DejaVuSans-38" d="M 2034 2216 
Q 1584 2216 1326 1975 
Q 1069 1734 1069 1313 
Q 1069 891 1326 650 
Q 1584 409 2034 409 
Q 2484 409 2743 651 
Q 3003 894 3003 1313 
Q 3003 1734 2745 1975 
Q 2488 2216 2034 2216 
z
M 1403 2484 
Q 997 2584 770 2862 
Q 544 3141 544 3541 
Q 544 4100 942 4425 
Q 1341 4750 2034 4750 
Q 2731 4750 3128 4425 
Q 3525 4100 3525 3541 
Q 3525 3141 3298 2862 
Q 3072 2584 2669 2484 
Q 3125 2378 3379 2068 
Q 3634 1759 3634 1313 
Q 3634 634 3220 271 
Q 2806 -91 2034 -91 
Q 1263 -91 848 271 
Q 434 634 434 1313 
Q 434 1759 690 2068 
Q 947 2378 1403 2484 
z
M 1172 3481 
Q 1172 3119 1398 2916 
Q 1625 2713 2034 2713 
Q 2441 2713 2670 2916 
Q 2900 3119 2900 3481 
Q 2900 3844 2670 4047 
Q 2441 4250 2034 4250 
Q 1625 4250 1398 4047 
Q 1172 3844 1172 3481 
z
" transform="scale(0.015625)"/>
       </defs>
       <use xlink:href="#DejaVuSans-38"/>
      </g>
     </g>
    </g>
    <g id="xtick_6">
     <g id="line2d_6">
      <g>
       <use xlink:href="#mba0c91b8c1" x="325.978107" y="314.44" style="stroke: #000000; stroke-width: 0.8"/>
      </g>
     </g>
     <g id="text_6">
      <!-- 9 -->
      <g transform="translate(322.796857 329.038437) scale(0.1 -0.1)">
       <defs>
        <path id="DejaVuSans-39" d="M 703 97 
L 703 672 
Q 941 559 1184 500 
Q 1428 441 1663 441 
Q 2288 441 2617 861 
Q 2947 1281 2994 2138 
Q 2813 1869 2534 1725 
Q 2256 1581 1919 1581 
Q 1219 1581 811 2004 
Q 403 2428 403 3163 
Q 403 3881 828 4315 
Q 1253 4750 1959 4750 
Q 2769 4750 3195 4129 
Q 3622 3509 3622 2328 
Q 3622 1225 3098 567 
Q 2575 -91 1691 -91 
Q 1453 -91 1209 -44 
Q 966 3 703 97 
z
M 1959 2075 
Q 2384 2075 2632 2365 
Q 2881 2656 2881 3163 
Q 2881 3666 2632 3958 
Q 2384 4250 1959 4250 
Q 1534 4250 1286 3958 
Q 1038 3666 1038 3163 
Q 1038 2656 1286 2365 
Q 1534 2075 1959 2075 
z
" transform="scale(0.015625)"/>
       </defs>
       <use xlink:href="#DejaVuSans-39"/>
      </g>
     </g>
    </g>
    <g id="xtick_7">
     <g id="line2d_7">
      <g>
       <use xlink:href="#mba0c91b8c1" x="377.112589" y="314.44" style="stroke: #000000; stroke-width: 0.8"/>
      </g>
     </g>
     <g id="text_7">
      <!-- 10 -->
      <g transform="translate(370.750089 329.038437) scale(0.1 -0.1)">
       <defs>
        <path id="DejaVuSans-31" d="M 794 531 
L 1825 531 
L 1825 4091 
L 703 3866 
L 703 4441 
L 1819 4666 
L 2450 4666 
L 2450 531 
L 3481 531 
L 3481 0 
L 794 0 
L 794 531 
z
" transform="scale(0.015625)"/>
        <path id="DejaVuSans-30" d="M 2034 4250 
Q 1547 4250 1301 3770 
Q 1056 3291 1056 2328 
Q 1056 1369 1301 889 
Q 1547 409 2034 409 
Q 2525 409 2770 889 
Q 3016 1369 3016 2328 
Q 3016 3291 2770 3770 
Q 2525 4250 2034 4250 
z
M 2034 4750 
Q 2819 4750 3233 4129 
Q 3647 3509 3647 2328 
Q 3647 1150 3233 529 
Q 2819 -91 2034 -91 
Q 1250 -91 836 529 
Q 422 1150 422 2328 
Q 422 3509 836 4129 
Q 1250 4750 2034 4750 
z
" transform="scale(0.015625)"/>
       </defs>
       <use xlink:href="#DejaVuSans-31"/>
       <use xlink:href="#DejaVuSans-30" x="63.623047"/>
      </g>
     </g>
    </g>
    <g id="text_8">
     <!-- Principal Component 1 -->
     <g transform="translate(137.357656 345.755938) scale(0.14 -0.14)">
      <defs>
       <path id="DejaVuSans-50" d="M 1259 4147 
L 1259 2394 
L 2053 2394 
Q 2494 2394 2734 2622 
Q 2975 2850 2975 3272 
Q 2975 3691 2734 3919 
Q 2494 4147 2053 4147 
L 1259 4147 
z
M 628 4666 
L 2053 4666 
Q 2838 4666 3239 4311 
Q 3641 3956 3641 3272 
Q 3641 2581 3239 2228 
Q 2838 1875 2053 1875 
L 1259 1875 
L 1259 0 
L 628 0 
L 628 4666 
z
" transform="scale(0.015625)"/>
       <path id="DejaVuSans-72" d="M 2631 2963 
Q 2534 3019 2420 3045 
Q 2306 3072 2169 3072 
Q 1681 3072 1420 2755 
Q 1159 2438 1159 1844 
L 1159 0 
L 581 0 
L 581 3500 
L 1159 3500 
L 1159 2956 
Q 1341 3275 1631 3429 
Q 1922 3584 2338 3584 
Q 2397 3584 2469 3576 
Q 2541 3569 2628 3553 
L 2631 2963 
z
" transform="scale(0.015625)"/>
       <path id="DejaVuSans-69" d="M 603 3500 
L 1178 3500 
L 1178 0 
L 603 0 
L 603 3500 
z
M 603 4863 
L 1178 4863 
L 1178 4134 
L 603 4134 
L 603 4863 
z
" transform="scale(0.015625)"/>
       <path id="DejaVuSans-6e" d="M 3513 2113 
L 3513 0 
L 2938 0 
L 2938 2094 
Q 2938 2591 2744 2837 
Q 2550 3084 2163 3084 
Q 1697 3084 1428 2787 
Q 1159 2491 1159 1978 
L 1159 0 
L 581 0 
L 581 3500 
L 1159 3500 
L 1159 2956 
Q 1366 3272 1645 3428 
Q 1925 3584 2291 3584 
Q 2894 3584 3203 3211 
Q 3513 2838 3513 2113 
z
" transform="scale(0.015625)"/>
       <path id="DejaVuSans-63" d="M 3122 3366 
L 3122 2828 
Q 2878 2963 2633 3030 
Q 2388 3097 2138 3097 
Q 1578 3097 1268 2742 
Q 959 2388 959 1747 
Q 959 1106 1268 751 
Q 1578 397 2138 397 
Q 2388 397 2633 464 
Q 2878 531 3122 666 
L 3122 134 
Q 2881 22 2623 -34 
Q 2366 -91 2075 -91 
Q 1284 -91 818 406 
Q 353 903 353 1747 
Q 353 2603 823 3093 
Q 1294 3584 2113 3584 
Q 2378 3584 2631 3529 
Q 2884 3475 3122 3366 
z
" transform="scale(0.015625)"/>
       <path id="DejaVuSans-70" d="M 1159 525 
L 1159 -1331 
L 581 -1331 
L 581 3500 
L 1159 3500 
L 1159 2969 
Q 1341 3281 1617 3432 
Q 1894 3584 2278 3584 
Q 2916 3584 3314 3078 
Q 3713 2572 3713 1747 
Q 3713 922 3314 415 
Q 2916 -91 2278 -91 
Q 1894 -91 1617 61 
Q 1341 213 1159 525 
z
M 3116 1747 
Q 3116 2381 2855 2742 
Q 2594 3103 2138 3103 
Q 1681 3103 1420 2742 
Q 1159 2381 1159 1747 
Q 1159 1113 1420 752 
Q 1681 391 2138 391 
Q 2594 391 2855 752 
Q 3116 1113 3116 1747 
z
" transform="scale(0.015625)"/>
       <path id="DejaVuSans-61" d="M 2194 1759 
Q 1497 1759 1228 1600 
Q 959 1441 959 1056 
Q 959 750 1161 570 
Q 1363 391 1709 391 
Q 2188 391 2477 730 
Q 2766 1069 2766 1631 
L 2766 1759 
L 2194 1759 
z
M 3341 1997 
L 3341 0 
L 2766 0 
L 2766 531 
Q 2569 213 2275 61 
Q 1981 -91 1556 -91 
Q 1019 -91 701 211 
Q 384 513 384 1019 
Q 384 1609 779 1909 
Q 1175 2209 1959 2209 
L 2766 2209 
L 2766 2266 
Q 2766 2663 2505 2880 
Q 2244 3097 1772 3097 
Q 1472 3097 1187 3025 
Q 903 2953 641 2809 
L 641 3341 
Q 956 3463 1253 3523 
Q 1550 3584 1831 3584 
Q 2591 3584 2966 3190 
Q 3341 2797 3341 1997 
z
" transform="scale(0.015625)"/>
       <path id="DejaVuSans-6c" d="M 603 4863 
L 1178 4863 
L 1178 0 
L 603 0 
L 603 4863 
z
" transform="scale(0.015625)"/>
       <path id="DejaVuSans-20" transform="scale(0.015625)"/>
       <path id="DejaVuSans-43" d="M 4122 4306 
L 4122 3641 
Q 3803 3938 3442 4084 
Q 3081 4231 2675 4231 
Q 1875 4231 1450 3742 
Q 1025 3253 1025 2328 
Q 1025 1406 1450 917 
Q 1875 428 2675 428 
Q 3081 428 3442 575 
Q 3803 722 4122 1019 
L 4122 359 
Q 3791 134 3420 21 
Q 3050 -91 2638 -91 
Q 1578 -91 968 557 
Q 359 1206 359 2328 
Q 359 3453 968 4101 
Q 1578 4750 2638 4750 
Q 3056 4750 3426 4639 
Q 3797 4528 4122 4306 
z
" transform="scale(0.015625)"/>
       <path id="DejaVuSans-6f" d="M 1959 3097 
Q 1497 3097 1228 2736 
Q 959 2375 959 1747 
Q 959 1119 1226 758 
Q 1494 397 1959 397 
Q 2419 397 2687 759 
Q 2956 1122 2956 1747 
Q 2956 2369 2687 2733 
Q 2419 3097 1959 3097 
z
M 1959 3584 
Q 2709 3584 3137 3096 
Q 3566 2609 3566 1747 
Q 3566 888 3137 398 
Q 2709 -91 1959 -91 
Q 1206 -91 779 398 
Q 353 888 353 1747 
Q 353 2609 779 3096 
Q 1206 3584 1959 3584 
z
" transform="scale(0.015625)"/>
       <path id="DejaVuSans-6d" d="M 3328 2828 
Q 3544 3216 3844 3400 
Q 4144 3584 4550 3584 
Q 5097 3584 5394 3201 
Q 5691 2819 5691 2113 
L 5691 0 
L 5113 0 
L 5113 2094 
Q 5113 2597 4934 2840 
Q 4756 3084 4391 3084 
Q 3944 3084 3684 2787 
Q 3425 2491 3425 1978 
L 3425 0 
L 2847 0 
L 2847 2094 
Q 2847 2600 2669 2842 
Q 2491 3084 2119 3084 
Q 1678 3084 1418 2786 
Q 1159 2488 1159 1978 
L 1159 0 
L 581 0 
L 581 3500 
L 1159 3500 
L 1159 2956 
Q 1356 3278 1631 3431 
Q 1906 3584 2284 3584 
Q 2666 3584 2933 3390 
Q 3200 3197 3328 2828 
z
" transform="scale(0.015625)"/>
       <path id="DejaVuSans-65" d="M 3597 1894 
L 3597 1613 
L 953 1613 
Q 991 1019 1311 708 
Q 1631 397 2203 397 
Q 2534 397 2845 478 
Q 3156 559 3463 722 
L 3463 178 
Q 3153 47 2828 -22 
Q 2503 -91 2169 -91 
Q 1331 -91 842 396 
Q 353 884 353 1716 
Q 353 2575 817 3079 
Q 1281 3584 2069 3584 
Q 2775 3584 3186 3129 
Q 3597 2675 3597 1894 
z
M 3022 2063 
Q 3016 2534 2758 2815 
Q 2500 3097 2075 3097 
Q 1594 3097 1305 2825 
Q 1016 2553 972 2059 
L 3022 2063 
z
" transform="scale(0.015625)"/>
       <path id="DejaVuSans-74" d="M 1172 4494 
L 1172 3500 
L 2356 3500 
L 2356 3053 
L 1172 3053 
L 1172 1153 
Q 1172 725 1289 603 
Q 1406 481 1766 481 
L 2356 481 
L 2356 0 
L 1766 0 
Q 1100 0 847 248 
Q 594 497 594 1153 
L 594 3053 
L 172 3053 
L 172 3500 
L 594 3500 
L 594 4494 
L 1172 4494 
z
" transform="scale(0.015625)"/>
      </defs>
      <use xlink:href="#DejaVuSans-50"/>
      <use xlink:href="#DejaVuSans-72" x="58.552734"/>
      <use xlink:href="#DejaVuSans-69" x="99.666016"/>
      <use xlink:href="#DejaVuSans-6e" x="127.449219"/>
      <use xlink:href="#DejaVuSans-63" x="190.828125"/>
      <use xlink:href="#DejaVuSans-69" x="245.808594"/>
      <use xlink:href="#DejaVuSans-70" x="273.591797"/>
      <use xlink:href="#DejaVuSans-61" x="337.068359"/>
      <use xlink:href="#DejaVuSans-6c" x="398.347656"/>
      <use xlink:href="#DejaVuSans-20" x="426.130859"/>
      <use xlink:href="#DejaVuSans-43" x="457.917969"/>
      <use xlink:href="#DejaVuSans-6f" x="527.742188"/>
      <use xlink:href="#DejaVuSans-6d" x="588.923828"/>
      <use xlink:href="#DejaVuSans-70" x="686.335938"/>
      <use xlink:href="#DejaVuSans-6f" x="749.8125"/>
      <use xlink:href="#DejaVuSans-6e" x="810.994141"/>
      <use xlink:href="#DejaVuSans-65" x="874.373047"/>
      <use xlink:href="#DejaVuSans-6e" x="935.896484"/>
      <use xlink:href="#DejaVuSans-74" x="999.275391"/>
      <use xlink:href="#DejaVuSans-20" x="1038.484375"/>
      <use xlink:href="#DejaVuSans-31" x="1070.271484"/>
     </g>
    </g>
   </g>
   <g id="matplotlib.axis_2">
    <g id="ytick_1">
     <g id="line2d_8">
      <defs>
       <path id="m647e2e93e2" d="M 0 0 
L -3.5 0 
" style="stroke: #000000; stroke-width: 0.8"/>
      </defs>
      <g>
       <use xlink:href="#m647e2e93e2" x="48.26" y="295.629615" style="stroke: #000000; stroke-width: 0.8"/>
      </g>
     </g>
     <g id="text_9">
      <!-- 6 -->
      <g transform="translate(34.8975 299.428833) scale(0.1 -0.1)">
       <use xlink:href="#DejaVuSans-36"/>
      </g>
     </g>
    </g>
    <g id="ytick_2">
     <g id="line2d_9">
      <g>
       <use xlink:href="#m647e2e93e2" x="48.26" y="252.698384" style="stroke: #000000; stroke-width: 0.8"/>
      </g>
     </g>
     <g id="text_10">
      <!-- 7 -->
      <g transform="translate(34.8975 256.497603) scale(0.1 -0.1)">
       <use xlink:href="#DejaVuSans-37"/>
      </g>
     </g>
    </g>
    <g id="ytick_3">
     <g id="line2d_10">
      <g>
       <use xlink:href="#m647e2e93e2" x="48.26" y="209.767153" style="stroke: #000000; stroke-width: 0.8"/>
      </g>
     </g>
     <g id="text_11">
      <!-- 8 -->
      <g transform="translate(34.8975 213.566372) scale(0.1 -0.1)">
       <use xlink:href="#DejaVuSans-38"/>
      </g>
     </g>
    </g>
    <g id="ytick_4">
     <g id="line2d_11">
      <g>
       <use xlink:href="#m647e2e93e2" x="48.26" y="166.835922" style="stroke: #000000; stroke-width: 0.8"/>
      </g>
     </g>
     <g id="text_12">
      <!-- 9 -->
      <g transform="translate(34.8975 170.635141) scale(0.1 -0.1)">
       <use xlink:href="#DejaVuSans-39"/>
      </g>
     </g>
    </g>
    <g id="ytick_5">
     <g id="line2d_12">
      <g>
       <use xlink:href="#m647e2e93e2" x="48.26" y="123.904691" style="stroke: #000000; stroke-width: 0.8"/>
      </g>
     </g>
     <g id="text_13">
      <!-- 10 -->
      <g transform="translate(28.535 127.70391) scale(0.1 -0.1)">
       <use xlink:href="#DejaVuSans-31"/>
       <use xlink:href="#DejaVuSans-30" x="63.623047"/>
      </g>
     </g>
    </g>
    <g id="ytick_6">
     <g id="line2d_13">
      <g>
       <use xlink:href="#m647e2e93e2" x="48.26" y="80.97346" style="stroke: #000000; stroke-width: 0.8"/>
      </g>
     </g>
     <g id="text_14">
      <!-- 11 -->
      <g transform="translate(28.535 84.772679) scale(0.1 -0.1)">
       <use xlink:href="#DejaVuSans-31"/>
       <use xlink:href="#DejaVuSans-31" x="63.623047"/>
      </g>
     </g>
    </g>
    <g id="ytick_7">
     <g id="line2d_14">
      <g>
       <use xlink:href="#m647e2e93e2" x="48.26" y="38.04223" style="stroke: #000000; stroke-width: 0.8"/>
      </g>
     </g>
     <g id="text_15">
      <!-- 12 -->
      <g transform="translate(28.535 41.841448) scale(0.1 -0.1)">
       <defs>
        <path id="DejaVuSans-32" d="M 1228 531 
L 3431 531 
L 3431 0 
L 469 0 
L 469 531 
Q 828 903 1448 1529 
Q 2069 2156 2228 2338 
Q 2531 2678 2651 2914 
Q 2772 3150 2772 3378 
Q 2772 3750 2511 3984 
Q 2250 4219 1831 4219 
Q 1534 4219 1204 4116 
Q 875 4013 500 3803 
L 500 4441 
Q 881 4594 1212 4672 
Q 1544 4750 1819 4750 
Q 2544 4750 2975 4387 
Q 3406 4025 3406 3419 
Q 3406 3131 3298 2873 
Q 3191 2616 2906 2266 
Q 2828 2175 2409 1742 
Q 1991 1309 1228 531 
z
" transform="scale(0.015625)"/>
       </defs>
       <use xlink:href="#DejaVuSans-31"/>
       <use xlink:href="#DejaVuSans-32" x="63.623047"/>
      </g>
     </g>
    </g>
    <g id="text_16">
     <!-- Principal Component 2 -->
     <g transform="translate(21.623437 241.992344) rotate(-90) scale(0.14 -0.14)">
      <use xlink:href="#DejaVuSans-50"/>
      <use xlink:href="#DejaVuSans-72" x="58.552734"/>
      <use xlink:href="#DejaVuSans-69" x="99.666016"/>
      <use xlink:href="#DejaVuSans-6e" x="127.449219"/>
      <use xlink:href="#DejaVuSans-63" x="190.828125"/>
      <use xlink:href="#DejaVuSans-69" x="245.808594"/>
      <use xlink:href="#DejaVuSans-70" x="273.591797"/>
      <use xlink:href="#DejaVuSans-61" x="337.068359"/>
      <use xlink:href="#DejaVuSans-6c" x="398.347656"/>
      <use xlink:href="#DejaVuSans-20" x="426.130859"/>
      <use xlink:href="#DejaVuSans-43" x="457.917969"/>
      <use xlink:href="#DejaVuSans-6f" x="527.742188"/>
      <use xlink:href="#DejaVuSans-6d" x="588.923828"/>
      <use xlink:href="#DejaVuSans-70" x="686.335938"/>
      <use xlink:href="#DejaVuSans-6f" x="749.8125"/>
      <use xlink:href="#DejaVuSans-6e" x="810.994141"/>
      <use xlink:href="#DejaVuSans-65" x="874.373047"/>
      <use xlink:href="#DejaVuSans-6e" x="935.896484"/>
      <use xlink:href="#DejaVuSans-74" x="999.275391"/>
      <use xlink:href="#DejaVuSans-20" x="1038.484375"/>
      <use xlink:href="#DejaVuSans-32" x="1070.271484"/>
     </g>
    </g>
   </g>
   <g id="patch_3">
    <path d="M 48.26 314.44 
L 48.26 10.8 
" style="fill: none; stroke: #000000; stroke-width: 0.8; stroke-linejoin: miter; stroke-linecap: square"/>
   </g>
   <g id="patch_4">
    <path d="M 385.2 314.44 
L 385.2 10.8 
" style="fill: none; stroke: #000000; stroke-width: 0.8; stroke-linejoin: miter; stroke-linecap: square"/>
   </g>
   <g id="patch_5">
    <path d="M 48.26 314.44 
L 385.2 314.44 
" style="fill: none; stroke: #000000; stroke-width: 0.8; stroke-linejoin: miter; stroke-linecap: square"/>
   </g>
   <g id="patch_6">
    <path d="M 48.26 10.8 
L 385.2 10.8 
" style="fill: none; stroke: #000000; stroke-width: 0.8; stroke-linejoin: miter; stroke-linecap: square"/>
   </g>
   <g id="legend_1">
    <g id="patch_7">
     <path d="M 315.706875 126.0825 
L 376.8 126.0825 
Q 379.2 126.0825 379.2 123.6825 
L 379.2 19.2 
Q 379.2 16.8 376.8 16.8 
L 315.706875 16.8 
Q 313.306875 16.8 313.306875 19.2 
L 313.306875 123.6825 
Q 313.306875 126.0825 315.706875 126.0825 
z
" style="fill: #ffffff; opacity: 0.8; stroke: #cccccc; stroke-linejoin: miter"/>
    </g>
    <g id="text_17">
     <!-- Expertise -->
     <g transform="translate(318.106875 30.718125) scale(0.12 -0.12)">
      <defs>
       <path id="DejaVuSans-45" d="M 628 4666 
L 3578 4666 
L 3578 4134 
L 1259 4134 
L 1259 2753 
L 3481 2753 
L 3481 2222 
L 1259 2222 
L 1259 531 
L 3634 531 
L 3634 0 
L 628 0 
L 628 4666 
z
" transform="scale(0.015625)"/>
       <path id="DejaVuSans-78" d="M 3513 3500 
L 2247 1797 
L 3578 0 
L 2900 0 
L 1881 1375 
L 863 0 
L 184 0 
L 1544 1831 
L 300 3500 
L 978 3500 
L 1906 2253 
L 2834 3500 
L 3513 3500 
z
" transform="scale(0.015625)"/>
       <path id="DejaVuSans-73" d="M 2834 3397 
L 2834 2853 
Q 2591 2978 2328 3040 
Q 2066 3103 1784 3103 
Q 1356 3103 1142 2972 
Q 928 2841 928 2578 
Q 928 2378 1081 2264 
Q 1234 2150 1697 2047 
L 1894 2003 
Q 2506 1872 2764 1633 
Q 3022 1394 3022 966 
Q 3022 478 2636 193 
Q 2250 -91 1575 -91 
Q 1294 -91 989 -36 
Q 684 19 347 128 
L 347 722 
Q 666 556 975 473 
Q 1284 391 1588 391 
Q 1994 391 2212 530 
Q 2431 669 2431 922 
Q 2431 1156 2273 1281 
Q 2116 1406 1581 1522 
L 1381 1569 
Q 847 1681 609 1914 
Q 372 2147 372 2553 
Q 372 3047 722 3315 
Q 1072 3584 1716 3584 
Q 2034 3584 2315 3537 
Q 2597 3491 2834 3397 
z
" transform="scale(0.015625)"/>
      </defs>
      <use xlink:href="#DejaVuSans-45"/>
      <use xlink:href="#DejaVuSans-78" x="63.183594"/>
      <use xlink:href="#DejaVuSans-70" x="122.363281"/>
      <use xlink:href="#DejaVuSans-65" x="185.839844"/>
      <use xlink:href="#DejaVuSans-72" x="247.363281"/>
      <use xlink:href="#DejaVuSans-74" x="288.476562"/>
      <use xlink:href="#DejaVuSans-69" x="327.685547"/>
      <use xlink:href="#DejaVuSans-73" x="355.46875"/>
      <use xlink:href="#DejaVuSans-65" x="407.568359"/>
     </g>
    </g>
    <g id="PathCollection_6">
     <g>
      <use xlink:href="#m49153df552" x="337.635938" y="45.181875" style="fill: #8e0152; stroke: #000000"/>
     </g>
    </g>
    <g id="text_18">
     <!-- 1 -->
     <g transform="translate(359.235938 48.331875) scale(0.12 -0.12)">
      <use xlink:href="#DejaVuSans-31"/>
     </g>
    </g>
    <g id="PathCollection_7">
     <g>
      <use xlink:href="#mac03c58f05" x="337.635938" y="62.795625" style="fill: #e897c4; stroke: #000000"/>
     </g>
    </g>
    <g id="text_19">
     <!-- 2 -->
     <g transform="translate(359.235938 65.945625) scale(0.12 -0.12)">
      <use xlink:href="#DejaVuSans-32"/>
     </g>
    </g>
    <g id="PathCollection_8">
     <g>
      <use xlink:href="#mf71690fedb" x="337.635938" y="80.409375" style="fill: #f7f7f6; stroke: #000000"/>
     </g>
    </g>
    <g id="text_20">
     <!-- 3 -->
     <g transform="translate(359.235938 83.559375) scale(0.12 -0.12)">
      <defs>
       <path id="DejaVuSans-33" d="M 2597 2516 
Q 3050 2419 3304 2112 
Q 3559 1806 3559 1356 
Q 3559 666 3084 287 
Q 2609 -91 1734 -91 
Q 1441 -91 1130 -33 
Q 819 25 488 141 
L 488 750 
Q 750 597 1062 519 
Q 1375 441 1716 441 
Q 2309 441 2620 675 
Q 2931 909 2931 1356 
Q 2931 1769 2642 2001 
Q 2353 2234 1838 2234 
L 1294 2234 
L 1294 2753 
L 1863 2753 
Q 2328 2753 2575 2939 
Q 2822 3125 2822 3475 
Q 2822 3834 2567 4026 
Q 2313 4219 1838 4219 
Q 1578 4219 1281 4162 
Q 984 4106 628 3988 
L 628 4550 
Q 988 4650 1302 4700 
Q 1616 4750 1894 4750 
Q 2613 4750 3031 4423 
Q 3450 4097 3450 3541 
Q 3450 3153 3228 2886 
Q 3006 2619 2597 2516 
z
" transform="scale(0.015625)"/>
      </defs>
      <use xlink:href="#DejaVuSans-33"/>
     </g>
    </g>
    <g id="PathCollection_9">
     <g>
      <use xlink:href="#m5e8946e857" x="337.635938" y="98.023125" style="fill: #9acd61; stroke: #000000"/>
     </g>
    </g>
    <g id="text_21">
     <!-- 4 -->
     <g transform="translate(359.235938 101.173125) scale(0.12 -0.12)">
      <use xlink:href="#DejaVuSans-34"/>
     </g>
    </g>
    <g id="PathCollection_10">
     <g>
      <use xlink:href="#m5490413d35" x="337.635938" y="115.636875" style="fill: #276419; stroke: #000000"/>
     </g>
    </g>
    <g id="text_22">
     <!-- 5 -->
     <g transform="translate(359.235938 118.786875) scale(0.12 -0.12)">
      <use xlink:href="#DejaVuSans-35"/>
     </g>
    </g>
   </g>
  </g>
 </g>
 <defs>
  <clipPath id="p9eec783f79">
   <rect x="48.26" y="10.8" width="336.94" height="303.64"/>
  </clipPath>
 </defs>
</svg>
