<?xml version="1.0" encoding="utf-8" standalone="no"?>
<!DOCTYPE svg PUBLIC "-//W3C//DTD SVG 1.1//EN"
  "http://www.w3.org/Graphics/SVG/1.1/DTD/svg11.dtd">
<svg xmlns:xlink="http://www.w3.org/1999/xlink" width="424.766875pt" height="424.105312pt" viewBox="0 0 424.766875 424.105312" xmlns="http://www.w3.org/2000/svg" version="1.1">
 <metadata>
  <rdf:RDF xmlns:dc="http://purl.org/dc/elements/1.1/" xmlns:cc="http://creativecommons.org/ns#" xmlns:rdf="http://www.w3.org/1999/02/22-rdf-syntax-ns#">
   <cc:Work>
    <dc:type rdf:resource="http://purl.org/dc/dcmitype/StillImage"/>
    <dc:date>2024-04-17T11:51:31.446526</dc:date>
    <dc:format>image/svg+xml</dc:format>
    <dc:creator>
     <cc:Agent>
      <dc:title>Matplotlib v3.6.2, https://matplotlib.org/</dc:title>
     </cc:Agent>
    </dc:creator>
   </cc:Work>
  </rdf:RDF>
 </metadata>
 <defs>
  <style type="text/css">*{stroke-linejoin: round; stroke-linecap: butt}</style>
 </defs>
 <g id="figure_1">
  <g id="patch_1">
   <path d="M 0 424.105312 
L 424.766875 424.105312 
L 424.766875 0 
L 0 0 
z
" style="fill: #ffffff"/>
  </g>
  <g id="axes_1">
   <g id="patch_2">
    <path d="M 50.836875 382.677812 
L 417.566875 382.677812 
L 417.566875 23.837812 
L 50.836875 23.837812 
z
" style="fill: #ffffff"/>
   </g>
   <g id="matplotlib.axis_1">
    <g id="xtick_1">
     <g id="line2d_1">
      <defs>
       <path id="m8824835cbc" d="M 0 0 
L 0 3.5 
" style="stroke: #000000; stroke-width: 0.8"/>
      </defs>
      <g>
       <use xlink:href="#m8824835cbc" x="50.836875" y="382.677812" style="stroke: #000000; stroke-width: 0.8"/>
      </g>
     </g>
     <g id="text_1">
      <!-- 0 -->
      <g transform="translate(47.655625 397.27625) scale(0.1 -0.1)">
       <defs>
        <path id="DejaVuSans-30" d="M 2034 4250 
Q 1547 4250 1301 3770 
Q 1056 3291 1056 2328 
Q 1056 1369 1301 889 
Q 1547 409 2034 409 
Q 2525 409 2770 889 
Q 3016 1369 3016 2328 
Q 3016 3291 2770 3770 
Q 2525 4250 2034 4250 
z
M 2034 4750 
Q 2819 4750 3233 4129 
Q 3647 3509 3647 2328 
Q 3647 1150 3233 529 
Q 2819 -91 2034 -91 
Q 1250 -91 836 529 
Q 422 1150 422 2328 
Q 422 3509 836 4129 
Q 1250 4750 2034 4750 
z
" transform="scale(0.015625)"/>
       </defs>
       <use xlink:href="#DejaVuSans-30"/>
      </g>
     </g>
    </g>
    <g id="xtick_2">
     <g id="line2d_2">
      <g>
       <use xlink:href="#m8824835cbc" x="130.560788" y="382.677812" style="stroke: #000000; stroke-width: 0.8"/>
      </g>
     </g>
     <g id="text_2">
      <!-- 20 -->
      <g transform="translate(124.198288 397.27625) scale(0.1 -0.1)">
       <defs>
        <path id="DejaVuSans-32" d="M 1228 531 
L 3431 531 
L 3431 0 
L 469 0 
L 469 531 
Q 828 903 1448 1529 
Q 2069 2156 2228 2338 
Q 2531 2678 2651 2914 
Q 2772 3150 2772 3378 
Q 2772 3750 2511 3984 
Q 2250 4219 1831 4219 
Q 1534 4219 1204 4116 
Q 875 4013 500 3803 
L 500 4441 
Q 881 4594 1212 4672 
Q 1544 4750 1819 4750 
Q 2544 4750 2975 4387 
Q 3406 4025 3406 3419 
Q 3406 3131 3298 2873 
Q 3191 2616 2906 2266 
Q 2828 2175 2409 1742 
Q 1991 1309 1228 531 
z
" transform="scale(0.015625)"/>
       </defs>
       <use xlink:href="#DejaVuSans-32"/>
       <use xlink:href="#DejaVuSans-30" x="63.623047"/>
      </g>
     </g>
    </g>
    <g id="xtick_3">
     <g id="line2d_3">
      <g>
       <use xlink:href="#m8824835cbc" x="210.284701" y="382.677812" style="stroke: #000000; stroke-width: 0.8"/>
      </g>
     </g>
     <g id="text_3">
      <!-- 40 -->
      <g transform="translate(203.922201 397.27625) scale(0.1 -0.1)">
       <defs>
        <path id="DejaVuSans-34" d="M 2419 4116 
L 825 1625 
L 2419 1625 
L 2419 4116 
z
M 2253 4666 
L 3047 4666 
L 3047 1625 
L 3713 1625 
L 3713 1100 
L 3047 1100 
L 3047 0 
L 2419 0 
L 2419 1100 
L 313 1100 
L 313 1709 
L 2253 4666 
z
" transform="scale(0.015625)"/>
       </defs>
       <use xlink:href="#DejaVuSans-34"/>
       <use xlink:href="#DejaVuSans-30" x="63.623047"/>
      </g>
     </g>
    </g>
    <g id="xtick_4">
     <g id="line2d_4">
      <g>
       <use xlink:href="#m8824835cbc" x="290.008614" y="382.677812" style="stroke: #000000; stroke-width: 0.8"/>
      </g>
     </g>
     <g id="text_4">
      <!-- 60 -->
      <g transform="translate(283.646114 397.27625) scale(0.1 -0.1)">
       <defs>
        <path id="DejaVuSans-36" d="M 2113 2584 
Q 1688 2584 1439 2293 
Q 1191 2003 1191 1497 
Q 1191 994 1439 701 
Q 1688 409 2113 409 
Q 2538 409 2786 701 
Q 3034 994 3034 1497 
Q 3034 2003 2786 2293 
Q 2538 2584 2113 2584 
z
M 3366 4563 
L 3366 3988 
Q 3128 4100 2886 4159 
Q 2644 4219 2406 4219 
Q 1781 4219 1451 3797 
Q 1122 3375 1075 2522 
Q 1259 2794 1537 2939 
Q 1816 3084 2150 3084 
Q 2853 3084 3261 2657 
Q 3669 2231 3669 1497 
Q 3669 778 3244 343 
Q 2819 -91 2113 -91 
Q 1303 -91 875 529 
Q 447 1150 447 2328 
Q 447 3434 972 4092 
Q 1497 4750 2381 4750 
Q 2619 4750 2861 4703 
Q 3103 4656 3366 4563 
z
" transform="scale(0.015625)"/>
       </defs>
       <use xlink:href="#DejaVuSans-36"/>
       <use xlink:href="#DejaVuSans-30" x="63.623047"/>
      </g>
     </g>
    </g>
    <g id="xtick_5">
     <g id="line2d_5">
      <g>
       <use xlink:href="#m8824835cbc" x="369.732527" y="382.677812" style="stroke: #000000; stroke-width: 0.8"/>
      </g>
     </g>
     <g id="text_5">
      <!-- 80 -->
      <g transform="translate(363.370027 397.27625) scale(0.1 -0.1)">
       <defs>
        <path id="DejaVuSans-38" d="M 2034 2216 
Q 1584 2216 1326 1975 
Q 1069 1734 1069 1313 
Q 1069 891 1326 650 
Q 1584 409 2034 409 
Q 2484 409 2743 651 
Q 3003 894 3003 1313 
Q 3003 1734 2745 1975 
Q 2488 2216 2034 2216 
z
M 1403 2484 
Q 997 2584 770 2862 
Q 544 3141 544 3541 
Q 544 4100 942 4425 
Q 1341 4750 2034 4750 
Q 2731 4750 3128 4425 
Q 3525 4100 3525 3541 
Q 3525 3141 3298 2862 
Q 3072 2584 2669 2484 
Q 3125 2378 3379 2068 
Q 3634 1759 3634 1313 
Q 3634 634 3220 271 
Q 2806 -91 2034 -91 
Q 1263 -91 848 271 
Q 434 634 434 1313 
Q 434 1759 690 2068 
Q 947 2378 1403 2484 
z
M 1172 3481 
Q 1172 3119 1398 2916 
Q 1625 2713 2034 2713 
Q 2441 2713 2670 2916 
Q 2900 3119 2900 3481 
Q 2900 3844 2670 4047 
Q 2441 4250 2034 4250 
Q 1625 4250 1398 4047 
Q 1172 3844 1172 3481 
z
" transform="scale(0.015625)"/>
       </defs>
       <use xlink:href="#DejaVuSans-38"/>
       <use xlink:href="#DejaVuSans-30" x="63.623047"/>
      </g>
     </g>
    </g>
    <g id="text_6">
     <!-- Number of participants -->
     <g transform="translate(153.230469 413.99375) scale(0.14 -0.14)">
      <defs>
       <path id="DejaVuSans-4e" d="M 628 4666 
L 1478 4666 
L 3547 763 
L 3547 4666 
L 4159 4666 
L 4159 0 
L 3309 0 
L 1241 3903 
L 1241 0 
L 628 0 
L 628 4666 
z
" transform="scale(0.015625)"/>
       <path id="DejaVuSans-75" d="M 544 1381 
L 544 3500 
L 1119 3500 
L 1119 1403 
Q 1119 906 1312 657 
Q 1506 409 1894 409 
Q 2359 409 2629 706 
Q 2900 1003 2900 1516 
L 2900 3500 
L 3475 3500 
L 3475 0 
L 2900 0 
L 2900 538 
Q 2691 219 2414 64 
Q 2138 -91 1772 -91 
Q 1169 -91 856 284 
Q 544 659 544 1381 
z
M 1991 3584 
L 1991 3584 
z
" transform="scale(0.015625)"/>
       <path id="DejaVuSans-6d" d="M 3328 2828 
Q 3544 3216 3844 3400 
Q 4144 3584 4550 3584 
Q 5097 3584 5394 3201 
Q 5691 2819 5691 2113 
L 5691 0 
L 5113 0 
L 5113 2094 
Q 5113 2597 4934 2840 
Q 4756 3084 4391 3084 
Q 3944 3084 3684 2787 
Q 3425 2491 3425 1978 
L 3425 0 
L 2847 0 
L 2847 2094 
Q 2847 2600 2669 2842 
Q 2491 3084 2119 3084 
Q 1678 3084 1418 2786 
Q 1159 2488 1159 1978 
L 1159 0 
L 581 0 
L 581 3500 
L 1159 3500 
L 1159 2956 
Q 1356 3278 1631 3431 
Q 1906 3584 2284 3584 
Q 2666 3584 2933 3390 
Q 3200 3197 3328 2828 
z
" transform="scale(0.015625)"/>
       <path id="DejaVuSans-62" d="M 3116 1747 
Q 3116 2381 2855 2742 
Q 2594 3103 2138 3103 
Q 1681 3103 1420 2742 
Q 1159 2381 1159 1747 
Q 1159 1113 1420 752 
Q 1681 391 2138 391 
Q 2594 391 2855 752 
Q 3116 1113 3116 1747 
z
M 1159 2969 
Q 1341 3281 1617 3432 
Q 1894 3584 2278 3584 
Q 2916 3584 3314 3078 
Q 3713 2572 3713 1747 
Q 3713 922 3314 415 
Q 2916 -91 2278 -91 
Q 1894 -91 1617 61 
Q 1341 213 1159 525 
L 1159 0 
L 581 0 
L 581 4863 
L 1159 4863 
L 1159 2969 
z
" transform="scale(0.015625)"/>
       <path id="DejaVuSans-65" d="M 3597 1894 
L 3597 1613 
L 953 1613 
Q 991 1019 1311 708 
Q 1631 397 2203 397 
Q 2534 397 2845 478 
Q 3156 559 3463 722 
L 3463 178 
Q 3153 47 2828 -22 
Q 2503 -91 2169 -91 
Q 1331 -91 842 396 
Q 353 884 353 1716 
Q 353 2575 817 3079 
Q 1281 3584 2069 3584 
Q 2775 3584 3186 3129 
Q 3597 2675 3597 1894 
z
M 3022 2063 
Q 3016 2534 2758 2815 
Q 2500 3097 2075 3097 
Q 1594 3097 1305 2825 
Q 1016 2553 972 2059 
L 3022 2063 
z
" transform="scale(0.015625)"/>
       <path id="DejaVuSans-72" d="M 2631 2963 
Q 2534 3019 2420 3045 
Q 2306 3072 2169 3072 
Q 1681 3072 1420 2755 
Q 1159 2438 1159 1844 
L 1159 0 
L 581 0 
L 581 3500 
L 1159 3500 
L 1159 2956 
Q 1341 3275 1631 3429 
Q 1922 3584 2338 3584 
Q 2397 3584 2469 3576 
Q 2541 3569 2628 3553 
L 2631 2963 
z
" transform="scale(0.015625)"/>
       <path id="DejaVuSans-20" transform="scale(0.015625)"/>
       <path id="DejaVuSans-6f" d="M 1959 3097 
Q 1497 3097 1228 2736 
Q 959 2375 959 1747 
Q 959 1119 1226 758 
Q 1494 397 1959 397 
Q 2419 397 2687 759 
Q 2956 1122 2956 1747 
Q 2956 2369 2687 2733 
Q 2419 3097 1959 3097 
z
M 1959 3584 
Q 2709 3584 3137 3096 
Q 3566 2609 3566 1747 
Q 3566 888 3137 398 
Q 2709 -91 1959 -91 
Q 1206 -91 779 398 
Q 353 888 353 1747 
Q 353 2609 779 3096 
Q 1206 3584 1959 3584 
z
" transform="scale(0.015625)"/>
       <path id="DejaVuSans-66" d="M 2375 4863 
L 2375 4384 
L 1825 4384 
Q 1516 4384 1395 4259 
Q 1275 4134 1275 3809 
L 1275 3500 
L 2222 3500 
L 2222 3053 
L 1275 3053 
L 1275 0 
L 697 0 
L 697 3053 
L 147 3053 
L 147 3500 
L 697 3500 
L 697 3744 
Q 697 4328 969 4595 
Q 1241 4863 1831 4863 
L 2375 4863 
z
" transform="scale(0.015625)"/>
       <path id="DejaVuSans-70" d="M 1159 525 
L 1159 -1331 
L 581 -1331 
L 581 3500 
L 1159 3500 
L 1159 2969 
Q 1341 3281 1617 3432 
Q 1894 3584 2278 3584 
Q 2916 3584 3314 3078 
Q 3713 2572 3713 1747 
Q 3713 922 3314 415 
Q 2916 -91 2278 -91 
Q 1894 -91 1617 61 
Q 1341 213 1159 525 
z
M 3116 1747 
Q 3116 2381 2855 2742 
Q 2594 3103 2138 3103 
Q 1681 3103 1420 2742 
Q 1159 2381 1159 1747 
Q 1159 1113 1420 752 
Q 1681 391 2138 391 
Q 2594 391 2855 752 
Q 3116 1113 3116 1747 
z
" transform="scale(0.015625)"/>
       <path id="DejaVuSans-61" d="M 2194 1759 
Q 1497 1759 1228 1600 
Q 959 1441 959 1056 
Q 959 750 1161 570 
Q 1363 391 1709 391 
Q 2188 391 2477 730 
Q 2766 1069 2766 1631 
L 2766 1759 
L 2194 1759 
z
M 3341 1997 
L 3341 0 
L 2766 0 
L 2766 531 
Q 2569 213 2275 61 
Q 1981 -91 1556 -91 
Q 1019 -91 701 211 
Q 384 513 384 1019 
Q 384 1609 779 1909 
Q 1175 2209 1959 2209 
L 2766 2209 
L 2766 2266 
Q 2766 2663 2505 2880 
Q 2244 3097 1772 3097 
Q 1472 3097 1187 3025 
Q 903 2953 641 2809 
L 641 3341 
Q 956 3463 1253 3523 
Q 1550 3584 1831 3584 
Q 2591 3584 2966 3190 
Q 3341 2797 3341 1997 
z
" transform="scale(0.015625)"/>
       <path id="DejaVuSans-74" d="M 1172 4494 
L 1172 3500 
L 2356 3500 
L 2356 3053 
L 1172 3053 
L 1172 1153 
Q 1172 725 1289 603 
Q 1406 481 1766 481 
L 2356 481 
L 2356 0 
L 1766 0 
Q 1100 0 847 248 
Q 594 497 594 1153 
L 594 3053 
L 172 3053 
L 172 3500 
L 594 3500 
L 594 4494 
L 1172 4494 
z
" transform="scale(0.015625)"/>
       <path id="DejaVuSans-69" d="M 603 3500 
L 1178 3500 
L 1178 0 
L 603 0 
L 603 3500 
z
M 603 4863 
L 1178 4863 
L 1178 4134 
L 603 4134 
L 603 4863 
z
" transform="scale(0.015625)"/>
       <path id="DejaVuSans-63" d="M 3122 3366 
L 3122 2828 
Q 2878 2963 2633 3030 
Q 2388 3097 2138 3097 
Q 1578 3097 1268 2742 
Q 959 2388 959 1747 
Q 959 1106 1268 751 
Q 1578 397 2138 397 
Q 2388 397 2633 464 
Q 2878 531 3122 666 
L 3122 134 
Q 2881 22 2623 -34 
Q 2366 -91 2075 -91 
Q 1284 -91 818 406 
Q 353 903 353 1747 
Q 353 2603 823 3093 
Q 1294 3584 2113 3584 
Q 2378 3584 2631 3529 
Q 2884 3475 3122 3366 
z
" transform="scale(0.015625)"/>
       <path id="DejaVuSans-6e" d="M 3513 2113 
L 3513 0 
L 2938 0 
L 2938 2094 
Q 2938 2591 2744 2837 
Q 2550 3084 2163 3084 
Q 1697 3084 1428 2787 
Q 1159 2491 1159 1978 
L 1159 0 
L 581 0 
L 581 3500 
L 1159 3500 
L 1159 2956 
Q 1366 3272 1645 3428 
Q 1925 3584 2291 3584 
Q 2894 3584 3203 3211 
Q 3513 2838 3513 2113 
z
" transform="scale(0.015625)"/>
       <path id="DejaVuSans-73" d="M 2834 3397 
L 2834 2853 
Q 2591 2978 2328 3040 
Q 2066 3103 1784 3103 
Q 1356 3103 1142 2972 
Q 928 2841 928 2578 
Q 928 2378 1081 2264 
Q 1234 2150 1697 2047 
L 1894 2003 
Q 2506 1872 2764 1633 
Q 3022 1394 3022 966 
Q 3022 478 2636 193 
Q 2250 -91 1575 -91 
Q 1294 -91 989 -36 
Q 684 19 347 128 
L 347 722 
Q 666 556 975 473 
Q 1284 391 1588 391 
Q 1994 391 2212 530 
Q 2431 669 2431 922 
Q 2431 1156 2273 1281 
Q 2116 1406 1581 1522 
L 1381 1569 
Q 847 1681 609 1914 
Q 372 2147 372 2553 
Q 372 3047 722 3315 
Q 1072 3584 1716 3584 
Q 2034 3584 2315 3537 
Q 2597 3491 2834 3397 
z
" transform="scale(0.015625)"/>
      </defs>
      <use xlink:href="#DejaVuSans-4e"/>
      <use xlink:href="#DejaVuSans-75" x="74.804688"/>
      <use xlink:href="#DejaVuSans-6d" x="138.183594"/>
      <use xlink:href="#DejaVuSans-62" x="235.595703"/>
      <use xlink:href="#DejaVuSans-65" x="299.072266"/>
      <use xlink:href="#DejaVuSans-72" x="360.595703"/>
      <use xlink:href="#DejaVuSans-20" x="401.708984"/>
      <use xlink:href="#DejaVuSans-6f" x="433.496094"/>
      <use xlink:href="#DejaVuSans-66" x="494.677734"/>
      <use xlink:href="#DejaVuSans-20" x="529.882812"/>
      <use xlink:href="#DejaVuSans-70" x="561.669922"/>
      <use xlink:href="#DejaVuSans-61" x="625.146484"/>
      <use xlink:href="#DejaVuSans-72" x="686.425781"/>
      <use xlink:href="#DejaVuSans-74" x="727.539062"/>
      <use xlink:href="#DejaVuSans-69" x="766.748047"/>
      <use xlink:href="#DejaVuSans-63" x="794.53125"/>
      <use xlink:href="#DejaVuSans-69" x="849.511719"/>
      <use xlink:href="#DejaVuSans-70" x="877.294922"/>
      <use xlink:href="#DejaVuSans-61" x="940.771484"/>
      <use xlink:href="#DejaVuSans-6e" x="1002.050781"/>
      <use xlink:href="#DejaVuSans-74" x="1065.429688"/>
      <use xlink:href="#DejaVuSans-73" x="1104.638672"/>
     </g>
    </g>
   </g>
   <g id="matplotlib.axis_2">
    <g id="ytick_1">
     <g id="line2d_6">
      <path d="M 50.836875 382.677812 
L 417.566875 382.677812 
" clip-path="url(#p624f13fdf7)" style="fill: none; stroke-dasharray: 2.96,1.28; stroke-dashoffset: 0; stroke: #c0c0c0; stroke-width: 0.8"/>
     </g>
     <g id="line2d_7">
      <defs>
       <path id="mf59fa6f001" d="M 0 0 
L -3.5 0 
" style="stroke: #000000; stroke-width: 0.8"/>
      </defs>
      <g>
       <use xlink:href="#mf59fa6f001" x="50.836875" y="382.677812" style="stroke: #000000; stroke-width: 0.8"/>
      </g>
     </g>
     <g id="text_7">
      <!-- 20 -->
      <g transform="translate(31.111875 386.477031) scale(0.1 -0.1)">
       <use xlink:href="#DejaVuSans-32"/>
       <use xlink:href="#DejaVuSans-30" x="63.623047"/>
      </g>
     </g>
    </g>
    <g id="ytick_2">
     <g id="line2d_8">
      <path d="M 50.836875 337.822812 
L 417.566875 337.822812 
" clip-path="url(#p624f13fdf7)" style="fill: none; stroke-dasharray: 2.96,1.28; stroke-dashoffset: 0; stroke: #c0c0c0; stroke-width: 0.8"/>
     </g>
     <g id="line2d_9">
      <g>
       <use xlink:href="#mf59fa6f001" x="50.836875" y="337.822812" style="stroke: #000000; stroke-width: 0.8"/>
      </g>
     </g>
     <g id="text_8">
      <!-- 30 -->
      <g transform="translate(31.111875 341.622031) scale(0.1 -0.1)">
       <defs>
        <path id="DejaVuSans-33" d="M 2597 2516 
Q 3050 2419 3304 2112 
Q 3559 1806 3559 1356 
Q 3559 666 3084 287 
Q 2609 -91 1734 -91 
Q 1441 -91 1130 -33 
Q 819 25 488 141 
L 488 750 
Q 750 597 1062 519 
Q 1375 441 1716 441 
Q 2309 441 2620 675 
Q 2931 909 2931 1356 
Q 2931 1769 2642 2001 
Q 2353 2234 1838 2234 
L 1294 2234 
L 1294 2753 
L 1863 2753 
Q 2328 2753 2575 2939 
Q 2822 3125 2822 3475 
Q 2822 3834 2567 4026 
Q 2313 4219 1838 4219 
Q 1578 4219 1281 4162 
Q 984 4106 628 3988 
L 628 4550 
Q 988 4650 1302 4700 
Q 1616 4750 1894 4750 
Q 2613 4750 3031 4423 
Q 3450 4097 3450 3541 
Q 3450 3153 3228 2886 
Q 3006 2619 2597 2516 
z
" transform="scale(0.015625)"/>
       </defs>
       <use xlink:href="#DejaVuSans-33"/>
       <use xlink:href="#DejaVuSans-30" x="63.623047"/>
      </g>
     </g>
    </g>
    <g id="ytick_3">
     <g id="line2d_10">
      <path d="M 50.836875 292.967812 
L 417.566875 292.967812 
" clip-path="url(#p624f13fdf7)" style="fill: none; stroke-dasharray: 2.96,1.28; stroke-dashoffset: 0; stroke: #c0c0c0; stroke-width: 0.8"/>
     </g>
     <g id="line2d_11">
      <g>
       <use xlink:href="#mf59fa6f001" x="50.836875" y="292.967812" style="stroke: #000000; stroke-width: 0.8"/>
      </g>
     </g>
     <g id="text_9">
      <!-- 40 -->
      <g transform="translate(31.111875 296.767031) scale(0.1 -0.1)">
       <use xlink:href="#DejaVuSans-34"/>
       <use xlink:href="#DejaVuSans-30" x="63.623047"/>
      </g>
     </g>
    </g>
    <g id="ytick_4">
     <g id="line2d_12">
      <path d="M 50.836875 248.112812 
L 417.566875 248.112812 
" clip-path="url(#p624f13fdf7)" style="fill: none; stroke-dasharray: 2.96,1.28; stroke-dashoffset: 0; stroke: #c0c0c0; stroke-width: 0.8"/>
     </g>
     <g id="line2d_13">
      <g>
       <use xlink:href="#mf59fa6f001" x="50.836875" y="248.112812" style="stroke: #000000; stroke-width: 0.8"/>
      </g>
     </g>
     <g id="text_10">
      <!-- 50 -->
      <g transform="translate(31.111875 251.912031) scale(0.1 -0.1)">
       <defs>
        <path id="DejaVuSans-35" d="M 691 4666 
L 3169 4666 
L 3169 4134 
L 1269 4134 
L 1269 2991 
Q 1406 3038 1543 3061 
Q 1681 3084 1819 3084 
Q 2600 3084 3056 2656 
Q 3513 2228 3513 1497 
Q 3513 744 3044 326 
Q 2575 -91 1722 -91 
Q 1428 -91 1123 -41 
Q 819 9 494 109 
L 494 744 
Q 775 591 1075 516 
Q 1375 441 1709 441 
Q 2250 441 2565 725 
Q 2881 1009 2881 1497 
Q 2881 1984 2565 2268 
Q 2250 2553 1709 2553 
Q 1456 2553 1204 2497 
Q 953 2441 691 2322 
L 691 4666 
z
" transform="scale(0.015625)"/>
       </defs>
       <use xlink:href="#DejaVuSans-35"/>
       <use xlink:href="#DejaVuSans-30" x="63.623047"/>
      </g>
     </g>
    </g>
    <g id="ytick_5">
     <g id="line2d_14">
      <path d="M 50.836875 203.257812 
L 417.566875 203.257812 
" clip-path="url(#p624f13fdf7)" style="fill: none; stroke-dasharray: 2.96,1.28; stroke-dashoffset: 0; stroke: #c0c0c0; stroke-width: 0.8"/>
     </g>
     <g id="line2d_15">
      <g>
       <use xlink:href="#mf59fa6f001" x="50.836875" y="203.257812" style="stroke: #000000; stroke-width: 0.8"/>
      </g>
     </g>
     <g id="text_11">
      <!-- 60 -->
      <g transform="translate(31.111875 207.057031) scale(0.1 -0.1)">
       <use xlink:href="#DejaVuSans-36"/>
       <use xlink:href="#DejaVuSans-30" x="63.623047"/>
      </g>
     </g>
    </g>
    <g id="ytick_6">
     <g id="line2d_16">
      <path d="M 50.836875 158.402812 
L 417.566875 158.402812 
" clip-path="url(#p624f13fdf7)" style="fill: none; stroke-dasharray: 2.96,1.28; stroke-dashoffset: 0; stroke: #c0c0c0; stroke-width: 0.8"/>
     </g>
     <g id="line2d_17">
      <g>
       <use xlink:href="#mf59fa6f001" x="50.836875" y="158.402812" style="stroke: #000000; stroke-width: 0.8"/>
      </g>
     </g>
     <g id="text_12">
      <!-- 70 -->
      <g transform="translate(31.111875 162.202031) scale(0.1 -0.1)">
       <defs>
        <path id="DejaVuSans-37" d="M 525 4666 
L 3525 4666 
L 3525 4397 
L 1831 0 
L 1172 0 
L 2766 4134 
L 525 4134 
L 525 4666 
z
" transform="scale(0.015625)"/>
       </defs>
       <use xlink:href="#DejaVuSans-37"/>
       <use xlink:href="#DejaVuSans-30" x="63.623047"/>
      </g>
     </g>
    </g>
    <g id="ytick_7">
     <g id="line2d_18">
      <path d="M 50.836875 113.547812 
L 417.566875 113.547812 
" clip-path="url(#p624f13fdf7)" style="fill: none; stroke-dasharray: 2.96,1.28; stroke-dashoffset: 0; stroke: #c0c0c0; stroke-width: 0.8"/>
     </g>
     <g id="line2d_19">
      <g>
       <use xlink:href="#mf59fa6f001" x="50.836875" y="113.547812" style="stroke: #000000; stroke-width: 0.8"/>
      </g>
     </g>
     <g id="text_13">
      <!-- 80 -->
      <g transform="translate(31.111875 117.347031) scale(0.1 -0.1)">
       <use xlink:href="#DejaVuSans-38"/>
       <use xlink:href="#DejaVuSans-30" x="63.623047"/>
      </g>
     </g>
    </g>
    <g id="ytick_8">
     <g id="line2d_20">
      <path d="M 50.836875 68.692812 
L 417.566875 68.692812 
" clip-path="url(#p624f13fdf7)" style="fill: none; stroke-dasharray: 2.96,1.28; stroke-dashoffset: 0; stroke: #c0c0c0; stroke-width: 0.8"/>
     </g>
     <g id="line2d_21">
      <g>
       <use xlink:href="#mf59fa6f001" x="50.836875" y="68.692812" style="stroke: #000000; stroke-width: 0.8"/>
      </g>
     </g>
     <g id="text_14">
      <!-- 90 -->
      <g transform="translate(31.111875 72.492031) scale(0.1 -0.1)">
       <defs>
        <path id="DejaVuSans-39" d="M 703 97 
L 703 672 
Q 941 559 1184 500 
Q 1428 441 1663 441 
Q 2288 441 2617 861 
Q 2947 1281 2994 2138 
Q 2813 1869 2534 1725 
Q 2256 1581 1919 1581 
Q 1219 1581 811 2004 
Q 403 2428 403 3163 
Q 403 3881 828 4315 
Q 1253 4750 1959 4750 
Q 2769 4750 3195 4129 
Q 3622 3509 3622 2328 
Q 3622 1225 3098 567 
Q 2575 -91 1691 -91 
Q 1453 -91 1209 -44 
Q 966 3 703 97 
z
M 1959 2075 
Q 2384 2075 2632 2365 
Q 2881 2656 2881 3163 
Q 2881 3666 2632 3958 
Q 2384 4250 1959 4250 
Q 1534 4250 1286 3958 
Q 1038 3666 1038 3163 
Q 1038 2656 1286 2365 
Q 1534 2075 1959 2075 
z
" transform="scale(0.015625)"/>
       </defs>
       <use xlink:href="#DejaVuSans-39"/>
       <use xlink:href="#DejaVuSans-30" x="63.623047"/>
      </g>
     </g>
    </g>
    <g id="ytick_9">
     <g id="line2d_22">
      <path d="M 50.836875 23.837812 
L 417.566875 23.837812 
" clip-path="url(#p624f13fdf7)" style="fill: none; stroke-dasharray: 2.96,1.28; stroke-dashoffset: 0; stroke: #c0c0c0; stroke-width: 0.8"/>
     </g>
     <g id="line2d_23">
      <g>
       <use xlink:href="#mf59fa6f001" x="50.836875" y="23.837812" style="stroke: #000000; stroke-width: 0.8"/>
      </g>
     </g>
     <g id="text_15">
      <!-- 100 -->
      <g transform="translate(24.749375 27.637031) scale(0.1 -0.1)">
       <defs>
        <path id="DejaVuSans-31" d="M 794 531 
L 1825 531 
L 1825 4091 
L 703 3866 
L 703 4441 
L 1819 4666 
L 2450 4666 
L 2450 531 
L 3481 531 
L 3481 0 
L 794 0 
L 794 531 
z
" transform="scale(0.015625)"/>
       </defs>
       <use xlink:href="#DejaVuSans-31"/>
       <use xlink:href="#DejaVuSans-30" x="63.623047"/>
       <use xlink:href="#DejaVuSans-30" x="127.246094"/>
      </g>
     </g>
    </g>
    <g id="text_16">
     <!-- Success Rate (%) -->
     <g transform="translate(17.837812 264.04625) rotate(-90) scale(0.14 -0.14)">
      <defs>
       <path id="DejaVuSans-53" d="M 3425 4513 
L 3425 3897 
Q 3066 4069 2747 4153 
Q 2428 4238 2131 4238 
Q 1616 4238 1336 4038 
Q 1056 3838 1056 3469 
Q 1056 3159 1242 3001 
Q 1428 2844 1947 2747 
L 2328 2669 
Q 3034 2534 3370 2195 
Q 3706 1856 3706 1288 
Q 3706 609 3251 259 
Q 2797 -91 1919 -91 
Q 1588 -91 1214 -16 
Q 841 59 441 206 
L 441 856 
Q 825 641 1194 531 
Q 1563 422 1919 422 
Q 2459 422 2753 634 
Q 3047 847 3047 1241 
Q 3047 1584 2836 1778 
Q 2625 1972 2144 2069 
L 1759 2144 
Q 1053 2284 737 2584 
Q 422 2884 422 3419 
Q 422 4038 858 4394 
Q 1294 4750 2059 4750 
Q 2388 4750 2728 4690 
Q 3069 4631 3425 4513 
z
" transform="scale(0.015625)"/>
       <path id="DejaVuSans-52" d="M 2841 2188 
Q 3044 2119 3236 1894 
Q 3428 1669 3622 1275 
L 4263 0 
L 3584 0 
L 2988 1197 
Q 2756 1666 2539 1819 
Q 2322 1972 1947 1972 
L 1259 1972 
L 1259 0 
L 628 0 
L 628 4666 
L 2053 4666 
Q 2853 4666 3247 4331 
Q 3641 3997 3641 3322 
Q 3641 2881 3436 2590 
Q 3231 2300 2841 2188 
z
M 1259 4147 
L 1259 2491 
L 2053 2491 
Q 2509 2491 2742 2702 
Q 2975 2913 2975 3322 
Q 2975 3731 2742 3939 
Q 2509 4147 2053 4147 
L 1259 4147 
z
" transform="scale(0.015625)"/>
       <path id="DejaVuSans-28" d="M 1984 4856 
Q 1566 4138 1362 3434 
Q 1159 2731 1159 2009 
Q 1159 1288 1364 580 
Q 1569 -128 1984 -844 
L 1484 -844 
Q 1016 -109 783 600 
Q 550 1309 550 2009 
Q 550 2706 781 3412 
Q 1013 4119 1484 4856 
L 1984 4856 
z
" transform="scale(0.015625)"/>
       <path id="DejaVuSans-25" d="M 4653 2053 
Q 4381 2053 4226 1822 
Q 4072 1591 4072 1178 
Q 4072 772 4226 539 
Q 4381 306 4653 306 
Q 4919 306 5073 539 
Q 5228 772 5228 1178 
Q 5228 1588 5073 1820 
Q 4919 2053 4653 2053 
z
M 4653 2450 
Q 5147 2450 5437 2106 
Q 5728 1763 5728 1178 
Q 5728 594 5436 251 
Q 5144 -91 4653 -91 
Q 4153 -91 3862 251 
Q 3572 594 3572 1178 
Q 3572 1766 3864 2108 
Q 4156 2450 4653 2450 
z
M 1428 4353 
Q 1159 4353 1004 4120 
Q 850 3888 850 3481 
Q 850 3069 1003 2837 
Q 1156 2606 1428 2606 
Q 1700 2606 1854 2837 
Q 2009 3069 2009 3481 
Q 2009 3884 1853 4118 
Q 1697 4353 1428 4353 
z
M 4250 4750 
L 4750 4750 
L 1831 -91 
L 1331 -91 
L 4250 4750 
z
M 1428 4750 
Q 1922 4750 2215 4408 
Q 2509 4066 2509 3481 
Q 2509 2891 2217 2550 
Q 1925 2209 1428 2209 
Q 931 2209 642 2551 
Q 353 2894 353 3481 
Q 353 4063 643 4406 
Q 934 4750 1428 4750 
z
" transform="scale(0.015625)"/>
       <path id="DejaVuSans-29" d="M 513 4856 
L 1013 4856 
Q 1481 4119 1714 3412 
Q 1947 2706 1947 2009 
Q 1947 1309 1714 600 
Q 1481 -109 1013 -844 
L 513 -844 
Q 928 -128 1133 580 
Q 1338 1288 1338 2009 
Q 1338 2731 1133 3434 
Q 928 4138 513 4856 
z
" transform="scale(0.015625)"/>
      </defs>
      <use xlink:href="#DejaVuSans-53"/>
      <use xlink:href="#DejaVuSans-75" x="63.476562"/>
      <use xlink:href="#DejaVuSans-63" x="126.855469"/>
      <use xlink:href="#DejaVuSans-63" x="181.835938"/>
      <use xlink:href="#DejaVuSans-65" x="236.816406"/>
      <use xlink:href="#DejaVuSans-73" x="298.339844"/>
      <use xlink:href="#DejaVuSans-73" x="350.439453"/>
      <use xlink:href="#DejaVuSans-20" x="402.539062"/>
      <use xlink:href="#DejaVuSans-52" x="434.326172"/>
      <use xlink:href="#DejaVuSans-61" x="501.558594"/>
      <use xlink:href="#DejaVuSans-74" x="562.837891"/>
      <use xlink:href="#DejaVuSans-65" x="602.046875"/>
      <use xlink:href="#DejaVuSans-20" x="663.570312"/>
      <use xlink:href="#DejaVuSans-28" x="695.357422"/>
      <use xlink:href="#DejaVuSans-25" x="734.371094"/>
      <use xlink:href="#DejaVuSans-29" x="829.390625"/>
     </g>
    </g>
   </g>
   <g id="PolyCollection_1">
    <defs>
     <path id="m8bdead8d2e" d="M 50.836875 -175.9925 
L 50.836875 -175.9925 
L 54.823071 -179.598547 
L 58.809266 -211.615382 
L 62.795462 -262.037623 
L 66.781658 -283.083928 
L 70.767853 -289.413645 
L 74.754049 -294.56114 
L 78.740245 -302.964979 
L 82.72644 -315.46595 
L 86.712636 -320.945958 
L 90.698832 -321.707678 
L 94.685027 -325.139025 
L 98.671223 -330.772707 
L 102.657418 -331.292399 
L 106.643614 -331.420785 
L 110.62981 -332.243277 
L 114.616005 -332.954345 
L 118.602201 -337.763448 
L 122.588397 -344.78068 
L 126.574592 -347.83179 
L 130.560788 -346.119028 
L 134.546984 -342.636539 
L 138.533179 -343.370102 
L 142.519375 -350.313991 
L 146.505571 -357.628002 
L 150.491766 -363.694354 
L 154.477962 -364.27914 
L 158.464158 -360.719696 
L 162.450353 -360.647133 
L 166.436549 -360.222483 
L 170.422745 -358.83337 
L 174.40894 -362.088433 
L 178.395136 -363.536187 
L 182.381332 -359.324105 
L 186.367527 -358.612338 
L 190.353723 -361.894469 
L 194.339918 -364.669895 
L 198.326114 -363.624983 
L 202.31231 -361.642272 
L 206.298505 -361.419979 
L 210.284701 -361.995578 
L 214.270897 -365.003819 
L 218.257092 -367.723281 
L 222.243288 -369.522043 
L 226.229484 -369.675977 
L 230.215679 -368.640484 
L 234.201875 -367.340363 
L 238.188071 -366.639969 
L 242.174266 -366.877511 
L 246.160462 -367.836545 
L 250.146658 -368.892633 
L 254.132853 -370.887785 
L 258.119049 -371.646682 
L 262.105245 -370.417806 
L 266.09144 -369.636332 
L 270.077636 -369.772333 
L 274.063832 -369.935455 
L 278.050027 -369.792468 
L 282.036223 -369.96886 
L 286.022418 -370.307698 
L 290.008614 -370.774319 
L 293.99481 -371.274361 
L 297.981005 -370.764741 
L 301.967201 -370.089995 
L 305.953397 -369.666082 
L 309.939592 -369.230253 
L 313.925788 -368.977384 
L 317.911984 -369.176126 
L 321.898179 -368.755895 
L 325.884375 -367.489359 
L 329.870571 -367.255645 
L 333.856766 -367.240873 
L 337.842962 -366.507516 
L 341.829158 -365.8032 
L 345.815353 -365.52216 
L 349.801549 -365.107296 
L 353.787745 -364.516888 
L 357.77394 -364.51489 
L 361.760136 -364.597639 
L 365.746332 -364.569296 
L 369.732527 -364.29768 
L 373.718723 -363.55346 
L 377.704918 -363.023852 
L 381.691114 -362.899093 
L 385.67731 -362.888652 
L 389.663505 -362.888333 
L 393.649701 -362.888333 
L 397.635897 -362.888333 
L 401.622092 -362.888333 
L 405.608288 -362.888333 
L 409.594484 -362.888333 
L 413.580679 -362.888333 
L 417.566875 -362.888333 
L 417.566875 -362.888333 
L 417.566875 -362.888333 
L 413.580679 -362.888333 
L 409.594484 -362.888333 
L 405.608288 -362.888333 
L 401.622092 -362.888333 
L 397.635897 -362.888333 
L 393.649701 -362.888333 
L 389.663505 -362.888333 
L 385.67731 -362.888066 
L 381.691114 -362.879273 
L 377.704918 -362.77319 
L 373.718723 -362.310414 
L 369.732527 -361.602802 
L 365.746332 -361.254895 
L 361.760136 -361.240438 
L 357.77394 -361.46638 
L 353.787745 -361.656773 
L 349.801549 -361.286718 
L 345.815353 -360.915193 
L 341.829158 -360.794404 
L 337.842962 -360.637122 
L 333.856766 -360.25643 
L 329.870571 -359.948064 
L 325.884375 -359.917523 
L 321.898179 -359.507083 
L 317.911984 -359.081339 
L 313.925788 -359.15904 
L 309.939592 -359.493024 
L 305.953397 -359.25012 
L 301.967201 -358.16503 
L 297.981005 -357.668147 
L 293.99481 -358.278632 
L 290.008614 -357.898962 
L 286.022418 -356.853333 
L 282.036223 -356.46963 
L 278.050027 -356.514633 
L 274.063832 -356.489307 
L 270.077636 -356.52017 
L 266.09144 -356.651449 
L 262.105245 -356.817481 
L 258.119049 -357.32545 
L 254.132853 -356.313572 
L 250.146658 -353.498475 
L 246.160462 -351.881243 
L 242.174266 -351.777385 
L 238.188071 -352.408547 
L 234.201875 -352.3616 
L 230.215679 -352.568389 
L 226.229484 -353.615682 
L 222.243288 -353.385542 
L 218.257092 -350.427807 
L 214.270897 -346.111728 
L 210.284701 -342.042728 
L 206.298505 -341.272998 
L 202.31231 -341.132621 
L 198.326114 -343.09344 
L 194.339918 -342.609653 
L 190.353723 -336.255539 
L 186.367527 -331.515959 
L 182.381332 -333.166493 
L 178.395136 -337.772581 
L 174.40894 -335.614316 
L 170.422745 -331.698005 
L 166.436549 -332.998457 
L 162.450353 -333.722607 
L 158.464158 -334.799408 
L 154.477962 -339.195937 
L 150.491766 -336.980602 
L 146.505571 -327.571343 
L 142.519375 -316.928556 
L 138.533179 -306.060453 
L 134.546984 -303.539864 
L 130.560788 -309.16334 
L 126.574592 -312.330899 
L 122.588397 -308.611673 
L 118.602201 -303.596392 
L 114.616005 -303.450816 
L 110.62981 -302.700919 
L 106.643614 -298.790951 
L 102.657418 -298.321436 
L 98.671223 -296.603785 
L 94.685027 -284.586794 
L 90.698832 -276.689325 
L 86.712636 -278.572075 
L 82.72644 -272.917215 
L 78.740245 -258.721355 
L 74.754049 -254.968868 
L 70.767853 -254.850444 
L 66.781658 -248.536526 
L 62.795462 -225.101294 
L 58.809266 -180.622028 
L 54.823071 -162.766632 
L 50.836875 -175.9925 
z
" style="stroke: #66a61e; stroke-opacity: 0.1"/>
    </defs>
    <g clip-path="url(#p624f13fdf7)">
     <use xlink:href="#m8bdead8d2e" x="0" y="424.105312" style="fill: #66a61e; fill-opacity: 0.1; stroke: #66a61e; stroke-opacity: 0.1"/>
    </g>
   </g>
   <g id="PolyCollection_2">
    <defs>
     <path id="mdf44358927" d="M 50.836875 -135.623 
L 50.836875 -135.623 
L 54.823071 -183.80131 
L 58.809266 -217.380485 
L 62.795462 -223.549652 
L 66.781658 -211.536252 
L 70.767853 -210.596342 
L 74.754049 -226.164795 
L 78.740245 -231.423719 
L 82.72644 -222.230851 
L 86.712636 -219.359367 
L 90.698832 -224.608018 
L 94.685027 -234.89927 
L 98.671223 -239.151607 
L 102.657418 -230.882099 
L 106.643614 -224.299476 
L 110.62981 -224.708515 
L 114.616005 -227.82788 
L 118.602201 -233.403759 
L 122.588397 -239.148861 
L 126.574592 -242.052538 
L 130.560788 -243.182393 
L 134.546984 -245.193747 
L 138.533179 -246.755739 
L 142.519375 -246.56911 
L 146.505571 -247.154725 
L 150.491766 -246.956596 
L 154.477962 -246.011661 
L 158.464158 -247.427508 
L 162.450353 -250.223126 
L 166.436549 -250.347787 
L 170.422745 -248.657297 
L 174.40894 -246.8853 
L 178.395136 -249.181953 
L 182.381332 -253.676817 
L 186.367527 -256.832937 
L 190.353723 -258.391392 
L 194.339918 -257.326906 
L 198.326114 -256.528454 
L 202.31231 -256.799947 
L 206.298505 -257.282617 
L 210.284701 -258.097001 
L 214.270897 -260.32521 
L 218.257092 -262.4082 
L 222.243288 -262.809603 
L 226.229484 -261.779636 
L 230.215679 -261.133709 
L 234.201875 -260.952369 
L 238.188071 -260.341943 
L 242.174266 -259.419484 
L 246.160462 -259.172216 
L 250.146658 -259.809693 
L 254.132853 -259.969385 
L 258.119049 -260.467011 
L 262.105245 -262.030016 
L 266.09144 -262.761156 
L 270.077636 -262.839875 
L 274.063832 -263.247147 
L 278.050027 -263.13153 
L 282.036223 -263.51145 
L 286.022418 -265.10149 
L 290.008614 -266.28582 
L 293.99481 -267.858931 
L 297.981005 -268.677113 
L 301.967201 -267.159578 
L 305.953397 -266.016551 
L 309.939592 -267.327708 
L 313.925788 -268.696749 
L 317.911984 -268.451712 
L 321.898179 -267.360494 
L 325.884375 -267.378095 
L 329.870571 -267.373692 
L 333.856766 -266.808554 
L 337.842962 -266.532405 
L 341.829158 -267.118358 
L 345.815353 -267.938164 
L 349.801549 -268.375972 
L 353.787745 -268.452535 
L 357.77394 -268.350994 
L 361.760136 -268.098978 
L 365.746332 -267.768828 
L 369.732527 -267.11356 
L 373.718723 -266.95474 
L 377.704918 -267.116551 
L 381.691114 -267.392433 
L 385.67731 -266.854607 
L 389.663505 -265.199169 
L 393.649701 -263.958494 
L 397.635897 -262.448992 
L 401.622092 -258.788556 
L 405.608288 -254.00964 
L 409.594484 -251.367583 
L 413.580679 -250.798338 
L 417.566875 -250.752216 
L 417.566875 -250.750767 
L 417.566875 -250.750767 
L 413.580679 -250.748749 
L 409.594484 -250.728162 
L 405.608288 -250.685225 
L 401.622092 -250.84514 
L 397.635897 -251.364063 
L 393.649701 -251.900324 
L 389.663505 -252.722561 
L 385.67731 -253.863599 
L 381.691114 -254.194102 
L 377.704918 -253.973247 
L 373.718723 -253.867105 
L 369.732527 -253.979705 
L 365.746332 -254.309467 
L 361.760136 -254.292696 
L 357.77394 -254.396379 
L 353.787745 -254.400522 
L 349.801549 -254.105976 
L 345.815353 -253.694324 
L 341.829158 -252.965535 
L 337.842962 -252.179193 
L 333.856766 -252.186023 
L 329.870571 -252.616585 
L 325.884375 -252.425465 
L 321.898179 -252.308207 
L 317.911984 -252.99857 
L 313.925788 -252.356948 
L 309.939592 -250.286243 
L 305.953397 -249.299437 
L 301.967201 -250.757595 
L 297.981005 -251.971481 
L 293.99481 -250.953727 
L 290.008614 -249.058194 
L 286.022418 -247.662406 
L 282.036223 -245.922882 
L 278.050027 -245.915399 
L 274.063832 -246.255007 
L 270.077636 -245.026851 
L 266.09144 -243.814023 
L 262.105245 -242.895581 
L 258.119049 -241.589268 
L 254.132853 -240.214727 
L 250.146658 -239.425835 
L 246.160462 -239.15793 
L 242.174266 -239.606724 
L 238.188071 -239.999705 
L 234.201875 -240.098296 
L 230.215679 -240.035216 
L 226.229484 -239.602048 
L 222.243288 -239.240157 
L 218.257092 -238.45352 
L 214.270897 -237.259211 
L 210.284701 -234.943318 
L 206.298505 -233.314642 
L 202.31231 -232.364166 
L 198.326114 -231.370197 
L 194.339918 -232.320945 
L 190.353723 -232.842175 
L 186.367527 -229.346936 
L 182.381332 -225.1352 
L 178.395136 -219.32221 
L 174.40894 -217.601366 
L 170.422745 -221.983786 
L 166.436549 -224.666835 
L 162.450353 -223.369241 
L 158.464158 -219.367885 
L 154.477962 -217.481179 
L 150.491766 -218.231379 
L 146.505571 -218.493286 
L 142.519375 -219.332335 
L 138.533179 -220.416454 
L 134.546984 -215.602421 
L 130.560788 -208.979761 
L 126.574592 -208.703692 
L 122.588397 -209.465814 
L 118.602201 -205.178968 
L 114.616005 -199.267246 
L 110.62981 -194.360188 
L 106.643614 -190.20032 
L 102.657418 -192.162794 
L 98.671223 -200.263015 
L 94.685027 -196.064346 
L 90.698832 -182.260804 
L 86.712636 -175.449739 
L 82.72644 -180.842118 
L 78.740245 -193.587416 
L 74.754049 -187.511722 
L 70.767853 -166.494187 
L 66.781658 -166.953528 
L 62.795462 -185.770574 
L 58.809266 -186.770174 
L 54.823071 -165.410221 
L 50.836875 -135.623 
z
" style="stroke: #e7298a; stroke-opacity: 0.1"/>
    </defs>
    <g clip-path="url(#p624f13fdf7)">
     <use xlink:href="#mdf44358927" x="0" y="424.105312" style="fill: #e7298a; fill-opacity: 0.1; stroke: #e7298a; stroke-opacity: 0.1"/>
    </g>
   </g>
   <g id="PolyCollection_3">
    <defs>
     <path id="m8cb06a6e7a" d="M 50.836875 -122.1665 
L 50.836875 -122.1665 
L 54.823071 -137.637901 
L 58.809266 -157.154788 
L 62.795462 -175.313155 
L 66.781658 -179.402625 
L 70.767853 -175.665196 
L 74.754049 -170.857623 
L 78.740245 -166.857713 
L 82.72644 -164.615148 
L 86.712636 -164.273633 
L 90.698832 -168.403374 
L 94.685027 -178.814018 
L 98.671223 -187.977706 
L 102.657418 -190.040008 
L 106.643614 -189.049816 
L 110.62981 -187.724215 
L 114.616005 -187.486484 
L 118.602201 -187.727244 
L 122.588397 -189.666236 
L 126.574592 -190.85139 
L 130.560788 -189.813484 
L 134.546984 -189.357658 
L 138.533179 -190.405041 
L 142.519375 -192.020226 
L 146.505571 -193.154072 
L 150.491766 -193.349046 
L 154.477962 -193.734803 
L 158.464158 -194.308227 
L 162.450353 -194.953797 
L 166.436549 -195.402738 
L 170.422745 -196.784851 
L 174.40894 -200.335295 
L 178.395136 -202.500344 
L 182.381332 -201.778688 
L 186.367527 -200.771396 
L 190.353723 -200.505932 
L 194.339918 -199.958395 
L 198.326114 -199.385643 
L 202.31231 -199.668592 
L 206.298505 -201.09685 
L 210.284701 -203.011259 
L 214.270897 -203.33866 
L 218.257092 -202.766527 
L 222.243288 -203.014657 
L 226.229484 -203.528261 
L 230.215679 -203.88438 
L 234.201875 -203.773561 
L 238.188071 -203.894964 
L 242.174266 -205.409467 
L 246.160462 -207.069299 
L 250.146658 -207.411488 
L 254.132853 -206.916154 
L 258.119049 -206.989152 
L 262.105245 -206.834281 
L 266.09144 -206.160301 
L 270.077636 -206.750583 
L 274.063832 -207.248038 
L 278.050027 -206.707446 
L 282.036223 -206.512996 
L 286.022418 -206.969094 
L 290.008614 -207.508736 
L 293.99481 -207.949518 
L 297.981005 -208.289016 
L 301.967201 -208.602739 
L 305.953397 -208.697425 
L 309.939592 -208.47665 
L 313.925788 -208.682656 
L 317.911984 -209.414374 
L 321.898179 -209.78043 
L 325.884375 -209.959144 
L 329.870571 -210.165719 
L 333.856766 -210.190181 
L 337.842962 -210.357518 
L 341.829158 -210.328475 
L 345.815353 -210.342167 
L 349.801549 -210.688116 
L 353.787745 -211.061413 
L 357.77394 -210.844157 
L 361.760136 -210.56481 
L 365.746332 -210.763234 
L 369.732527 -211.197447 
L 373.718723 -211.594799 
L 377.704918 -211.777731 
L 381.691114 -211.580099 
L 385.67731 -211.311001 
L 389.663505 -211.190185 
L 393.649701 -210.914555 
L 397.635897 -210.678044 
L 401.622092 -210.56638 
L 405.608288 -210.510772 
L 409.594484 -210.497515 
L 413.580679 -210.496381 
L 417.566875 -210.496346 
L 417.566875 -210.496346 
L 417.566875 -210.496346 
L 413.580679 -210.496197 
L 409.594484 -210.491402 
L 405.608288 -210.435982 
L 401.622092 -210.221725 
L 397.635897 -209.987782 
L 393.649701 -209.858669 
L 389.663505 -209.390953 
L 385.67731 -208.74649 
L 381.691114 -208.263928 
L 377.704918 -207.589022 
L 373.718723 -206.667317 
L 369.732527 -205.856557 
L 365.746332 -205.123439 
L 361.760136 -204.71578 
L 357.77394 -205.021935 
L 353.787745 -204.997755 
L 349.801549 -204.164577 
L 345.815353 -203.381712 
L 341.829158 -203.201672 
L 337.842962 -202.933913 
L 333.856766 -202.287694 
L 329.870571 -201.876055 
L 325.884375 -201.247133 
L 321.898179 -200.709758 
L 317.911984 -200.471313 
L 313.925788 -200.072831 
L 309.939592 -199.984374 
L 305.953397 -199.916571 
L 301.967201 -199.347736 
L 297.981005 -198.565707 
L 293.99481 -198.013101 
L 290.008614 -197.503701 
L 286.022418 -196.983425 
L 282.036223 -196.320823 
L 278.050027 -195.883549 
L 274.063832 -196.016423 
L 270.077636 -195.746389 
L 266.09144 -195.558307 
L 262.105245 -196.450895 
L 258.119049 -196.140826 
L 254.132853 -194.950721 
L 250.146658 -194.598511 
L 246.160462 -194.238946 
L 242.174266 -193.507838 
L 238.188071 -193.357135 
L 234.201875 -193.239374 
L 230.215679 -192.505647 
L 226.229484 -191.934497 
L 222.243288 -191.789451 
L 218.257092 -191.687106 
L 214.270897 -191.337967 
L 210.284701 -189.141316 
L 206.298505 -186.614639 
L 202.31231 -186.308305 
L 198.326114 -186.823152 
L 194.339918 -187.428369 
L 190.353723 -187.793744 
L 186.367527 -188.376358 
L 182.381332 -189.922657 
L 178.395136 -190.467902 
L 174.40894 -187.476193 
L 170.422745 -182.595896 
L 166.436549 -180.568038 
L 162.450353 -180.279856 
L 158.464158 -179.745421 
L 154.477962 -179.516896 
L 150.491766 -179.271318 
L 146.505571 -177.678828 
L 142.519375 -175.709482 
L 138.533179 -175.064145 
L 134.546984 -174.743744 
L 130.560788 -174.350924 
L 126.574592 -173.709559 
L 122.588397 -171.147541 
L 118.602201 -168.626254 
L 114.616005 -168.542357 
L 110.62981 -168.101377 
L 106.643614 -168.320568 
L 102.657418 -169.684267 
L 98.671223 -170.509803 
L 94.685027 -161.619147 
L 90.698832 -146.393461 
L 86.712636 -136.600206 
L 82.72644 -134.616347 
L 78.740245 -136.417732 
L 74.754049 -135.875473 
L 70.767853 -138.583597 
L 66.781658 -148.704045 
L 62.795462 -144.553903 
L 58.809266 -126.981524 
L 54.823071 -119.32035 
L 50.836875 -122.1665 
z
" style="stroke: #7570b3; stroke-opacity: 0.1"/>
    </defs>
    <g clip-path="url(#p624f13fdf7)">
     <use xlink:href="#m8cb06a6e7a" x="0" y="424.105312" style="fill: #7570b3; fill-opacity: 0.1; stroke: #7570b3; stroke-opacity: 0.1"/>
    </g>
   </g>
   <g id="PolyCollection_4">
    <defs>
     <path id="ma0bcdf4f0e" d="M 50.836875 -99.739 
L 50.836875 -99.739 
L 54.823071 -123.256028 
L 58.809266 -140.726687 
L 62.795462 -155.105645 
L 66.781658 -173.522494 
L 70.767853 -183.688457 
L 74.754049 -181.875204 
L 78.740245 -181.295685 
L 82.72644 -177.444696 
L 86.712636 -173.068486 
L 90.698832 -175.191967 
L 94.685027 -178.820172 
L 98.671223 -179.873185 
L 102.657418 -178.555096 
L 106.643614 -181.146987 
L 110.62981 -178.676108 
L 114.616005 -176.990406 
L 118.602201 -177.836504 
L 122.588397 -175.135082 
L 126.574592 -173.736495 
L 130.560788 -174.285153 
L 134.546984 -174.699655 
L 138.533179 -175.069122 
L 142.519375 -173.982487 
L 146.505571 -173.008467 
L 150.491766 -173.255262 
L 154.477962 -169.234321 
L 158.464158 -164.963476 
L 162.450353 -166.07899 
L 166.436549 -167.77112 
L 170.422745 -170.151884 
L 174.40894 -171.256141 
L 178.395136 -169.289039 
L 182.381332 -169.750847 
L 186.367527 -173.599009 
L 190.353723 -175.069895 
L 194.339918 -173.465931 
L 198.326114 -172.090923 
L 202.31231 -172.711606 
L 206.298505 -172.714505 
L 210.284701 -173.2331 
L 214.270897 -174.300542 
L 218.257092 -172.06043 
L 222.243288 -168.708012 
L 226.229484 -168.666484 
L 230.215679 -170.793209 
L 234.201875 -171.59925 
L 238.188071 -170.850525 
L 242.174266 -171.593035 
L 246.160462 -171.062531 
L 250.146658 -168.639449 
L 254.132853 -167.215575 
L 258.119049 -166.64378 
L 262.105245 -167.495895 
L 266.09144 -168.869284 
L 270.077636 -168.46025 
L 274.063832 -166.874372 
L 278.050027 -165.517911 
L 282.036223 -164.676429 
L 286.022418 -163.866633 
L 290.008614 -164.391223 
L 293.99481 -165.5863 
L 297.981005 -165.696921 
L 301.967201 -164.794561 
L 305.953397 -164.141259 
L 309.939592 -163.545272 
L 313.925788 -164.270408 
L 317.911984 -165.67155 
L 321.898179 -165.126006 
L 325.884375 -163.837707 
L 329.870571 -162.84274 
L 333.856766 -162.471558 
L 337.842962 -162.388141 
L 341.829158 -161.059795 
L 345.815353 -159.540293 
L 349.801549 -160.127938 
L 353.787745 -161.580463 
L 357.77394 -162.034834 
L 361.760136 -161.433935 
L 365.746332 -159.726481 
L 369.732527 -157.311821 
L 373.718723 -155.747635 
L 377.704918 -155.099126 
L 381.691114 -154.973756 
L 385.67731 -154.253081 
L 389.663505 -152.519024 
L 393.649701 -151.361602 
L 397.635897 -151.095762 
L 401.622092 -151.073725 
L 405.608288 -151.073056 
L 409.594484 -151.073056 
L 413.580679 -151.073056 
L 417.566875 -151.073056 
L 417.566875 -151.073056 
L 417.566875 -151.073056 
L 413.580679 -151.073056 
L 409.594484 -151.073056 
L 405.608288 -151.073056 
L 401.622092 -151.072659 
L 397.635897 -151.059539 
L 393.649701 -150.899996 
L 389.663505 -150.188898 
L 385.67731 -149.039686 
L 381.691114 -148.3971 
L 377.704918 -148.279383 
L 373.718723 -148.260582 
L 369.732527 -148.429178 
L 365.746332 -148.787511 
L 361.760136 -149.082077 
L 357.77394 -149.231858 
L 353.787745 -149.118695 
L 349.801549 -148.767166 
L 345.815353 -148.67901 
L 341.829158 -149.090001 
L 337.842962 -149.416431 
L 333.856766 -149.398071 
L 329.870571 -149.541965 
L 325.884375 -149.981773 
L 321.898179 -150.657012 
L 317.911984 -151.008737 
L 313.925788 -150.316552 
L 309.939592 -149.890381 
L 305.953397 -150.076231 
L 301.967201 -150.172994 
L 297.981005 -150.41556 
L 293.99481 -150.516613 
L 290.008614 -150.193419 
L 286.022418 -150.061461 
L 282.036223 -150.433214 
L 278.050027 -150.797694 
L 274.063832 -151.421211 
L 270.077636 -151.93514 
L 266.09144 -151.419711 
L 262.105245 -150.111433 
L 258.119049 -149.955426 
L 254.132853 -150.73703 
L 250.146658 -151.506116 
L 246.160462 -152.84269 
L 242.174266 -153.025346 
L 238.188071 -152.058805 
L 234.201875 -151.985564 
L 230.215679 -151.40878 
L 226.229484 -150.273735 
L 222.243288 -150.894559 
L 218.257092 -153.034591 
L 214.270897 -153.078259 
L 210.284701 -150.961442 
L 206.298505 -150.636358 
L 202.31231 -151.537622 
L 198.326114 -150.819928 
L 194.339918 -150.942925 
L 190.353723 -151.990798 
L 186.367527 -150.623121 
L 182.381332 -147.346147 
L 178.395136 -146.117024 
L 174.40894 -144.867666 
L 170.422745 -141.892899 
L 166.436549 -140.597051 
L 162.450353 -140.200403 
L 158.464158 -140.435494 
L 154.477962 -145.11575 
L 150.491766 -147.88205 
L 146.505571 -146.365711 
L 142.519375 -146.071891 
L 138.533179 -144.862012 
L 134.546984 -141.912913 
L 130.560788 -140.407686 
L 126.574592 -141.181019 
L 122.588397 -143.021936 
L 118.602201 -142.216462 
L 114.616005 -136.119777 
L 110.62981 -135.904583 
L 106.643614 -139.638971 
L 102.657418 -135.836155 
L 98.671223 -134.373173 
L 94.685027 -132.282794 
L 90.698832 -133.050254 
L 86.712636 -137.904089 
L 82.72644 -145.376723 
L 78.740245 -151.008937 
L 74.754049 -150.15109 
L 70.767853 -144.43915 
L 66.781658 -127.889678 
L 62.795462 -109.234476 
L 58.809266 -102.711481 
L 54.823071 -101.739817 
L 50.836875 -99.739 
z
" style="stroke: #d95f02; stroke-opacity: 0.1"/>
    </defs>
    <g clip-path="url(#p624f13fdf7)">
     <use xlink:href="#ma0bcdf4f0e" x="0" y="424.105312" style="fill: #d95f02; fill-opacity: 0.1; stroke: #d95f02; stroke-opacity: 0.1"/>
    </g>
   </g>
   <g id="PolyCollection_5">
    <defs>
     <path id="m07923a3a86" d="M 50.836875 -99.739 
L 50.836875 -99.739 
L 54.823071 -111.557239 
L 58.809266 -122.994328 
L 62.795462 -131.905705 
L 66.781658 -139.259022 
L 70.767853 -148.472702 
L 74.754049 -154.773488 
L 78.740245 -156.044571 
L 82.72644 -148.406392 
L 86.712636 -137.931799 
L 90.698832 -129.427732 
L 94.685027 -127.175823 
L 98.671223 -128.556963 
L 102.657418 -131.736286 
L 106.643614 -135.68181 
L 110.62981 -135.875997 
L 114.616005 -139.474662 
L 118.602201 -143.361498 
L 122.588397 -141.622771 
L 126.574592 -142.545623 
L 130.560788 -147.517572 
L 134.546984 -145.533812 
L 138.533179 -141.955368 
L 142.519375 -141.32671 
L 146.505571 -141.995326 
L 150.491766 -143.096053 
L 154.477962 -144.288139 
L 158.464158 -144.600141 
L 162.450353 -143.957101 
L 166.436549 -140.962689 
L 170.422745 -140.564705 
L 174.40894 -142.100566 
L 178.395136 -140.766447 
L 182.381332 -137.893298 
L 186.367527 -135.306027 
L 190.353723 -133.219841 
L 194.339918 -133.08425 
L 198.326114 -133.2221 
L 202.31231 -132.958565 
L 206.298505 -133.79022 
L 210.284701 -136.311389 
L 214.270897 -139.480454 
L 218.257092 -141.099447 
L 222.243288 -141.152381 
L 226.229484 -139.700042 
L 230.215679 -137.277709 
L 234.201875 -135.257087 
L 238.188071 -134.083213 
L 242.174266 -134.915305 
L 246.160462 -136.764531 
L 250.146658 -137.393632 
L 254.132853 -135.83491 
L 258.119049 -136.058581 
L 262.105245 -138.031802 
L 266.09144 -137.621296 
L 270.077636 -135.288598 
L 274.063832 -133.796657 
L 278.050027 -133.642719 
L 282.036223 -134.378208 
L 286.022418 -136.129183 
L 290.008614 -137.161678 
L 293.99481 -136.27086 
L 297.981005 -135.235837 
L 301.967201 -135.604591 
L 305.953397 -136.659581 
L 309.939592 -136.253092 
L 313.925788 -135.21027 
L 317.911984 -134.830008 
L 321.898179 -135.458073 
L 325.884375 -136.395198 
L 329.870571 -136.400975 
L 333.856766 -135.022227 
L 337.842962 -133.751795 
L 341.829158 -133.879583 
L 345.815353 -134.674007 
L 349.801549 -134.761753 
L 353.787745 -133.659424 
L 357.77394 -132.809661 
L 361.760136 -132.948794 
L 365.746332 -133.23999 
L 369.732527 -133.303187 
L 373.718723 -133.158718 
L 377.704918 -132.795301 
L 381.691114 -132.17451 
L 385.67731 -131.528811 
L 389.663505 -131.208733 
L 393.649701 -131.142894 
L 397.635897 -131.137655 
L 401.622092 -131.1375 
L 405.608288 -131.1375 
L 409.594484 -131.1375 
L 413.580679 -131.1375 
L 417.566875 -131.1375 
L 417.566875 -131.1375 
L 417.566875 -131.1375 
L 413.580679 -131.1375 
L 409.594484 -131.1375 
L 405.608288 -131.1375 
L 401.622092 -131.1375 
L 397.635897 -131.137189 
L 393.649701 -131.127002 
L 389.663505 -131.004615 
L 385.67731 -130.471589 
L 381.691114 -129.586546 
L 377.704918 -128.684441 
L 373.718723 -127.622394 
L 369.732527 -126.958196 
L 365.746332 -126.89185 
L 361.760136 -126.419576 
L 357.77394 -125.31556 
L 353.787745 -125.141202 
L 349.801549 -125.760016 
L 345.815353 -125.417456 
L 341.829158 -124.378336 
L 337.842962 -123.760179 
L 333.856766 -124.244024 
L 329.870571 -125.089325 
L 325.884375 -124.809099 
L 321.898179 -123.438486 
L 317.911984 -122.099336 
L 313.925788 -121.306807 
L 309.939592 -120.884496 
L 305.953397 -120.897564 
L 301.967201 -120.932418 
L 297.981005 -121.613383 
L 293.99481 -122.317775 
L 290.008614 -122.117294 
L 286.022418 -120.148106 
L 282.036223 -117.766757 
L 278.050027 -116.688676 
L 274.063832 -116.667761 
L 270.077636 -118.155877 
L 266.09144 -120.880691 
L 262.105245 -121.537882 
L 258.119049 -118.973714 
L 254.132853 -118.129131 
L 250.146658 -119.200817 
L 246.160462 -118.508758 
L 242.174266 -116.890672 
L 238.188071 -115.801817 
L 234.201875 -116.037987 
L 230.215679 -117.059259 
L 226.229484 -119.366197 
L 222.243288 -120.619031 
L 218.257092 -119.181689 
L 214.270897 -117.139448 
L 210.284701 -114.922027 
L 206.298505 -112.805041 
L 202.31231 -112.409012 
L 198.326114 -112.959204 
L 194.339918 -112.196332 
L 190.353723 -111.729238 
L 186.367527 -114.237074 
L 182.381332 -116.905316 
L 178.395136 -118.566274 
L 174.40894 -118.795934 
L 170.422745 -117.159458 
L 166.436549 -117.150905 
L 162.450353 -119.410533 
L 158.464158 -118.654881 
L 154.477962 -116.112217 
L 150.491766 -114.564767 
L 146.505571 -113.412634 
L 142.519375 -111.740133 
L 138.533179 -111.220039 
L 134.546984 -112.48751 
L 130.560788 -113.384939 
L 126.574592 -109.791719 
L 122.588397 -111.535211 
L 118.602201 -112.160163 
L 114.616005 -105.736242 
L 110.62981 -103.640075 
L 106.643614 -105.705376 
L 102.657418 -98.42901 
L 98.671223 -91.963541 
L 94.685027 -93.014562 
L 90.698832 -99.363596 
L 86.712636 -108.800228 
L 82.72644 -115.830861 
L 78.740245 -120.734989 
L 74.754049 -119.030956 
L 70.767853 -112.225588 
L 66.781658 -105.049184 
L 62.795462 -101.71852 
L 58.809266 -100.316507 
L 54.823071 -99.608341 
L 50.836875 -99.739 
z
" style="stroke: #1b9e77; stroke-opacity: 0.1"/>
    </defs>
    <g clip-path="url(#p624f13fdf7)">
     <use xlink:href="#m07923a3a86" x="0" y="424.105312" style="fill: #1b9e77; fill-opacity: 0.1; stroke: #1b9e77; stroke-opacity: 0.1"/>
    </g>
   </g>
   <g id="line2d_24">
    <path d="M 50.836875 248.112812 
L 54.823071 250.117404 
L 58.809266 222.821048 
L 62.795462 174.379799 
L 66.781658 152.537185 
L 70.767853 146.212734 
L 74.754049 142.741596 
L 78.740245 135.888208 
L 82.72644 122.822274 
L 86.712636 117.283982 
L 90.698832 117.403752 
L 94.685027 112.483698 
L 98.671223 104.722246 
L 102.657418 103.803234 
L 106.643614 103.561139 
L 110.62981 101.709488 
L 114.616005 100.985477 
L 118.602201 97.730883 
L 122.588397 91.380968 
L 126.574592 88.107152 
L 130.560788 90.304848 
L 134.546984 94.500999 
L 138.533179 93.17176 
L 142.519375 84.9198 
L 146.505571 76.496197 
L 150.491766 69.315543 
L 154.477962 68.18724 
L 158.464158 72.025712 
L 162.450353 72.433022 
L 166.436549 72.957505 
L 170.422745 74.317064 
L 174.40894 70.841585 
L 178.395136 69.156994 
L 182.381332 73.500411 
L 186.367527 74.525101 
L 190.353723 70.757153 
L 194.339918 66.788832 
L 198.326114 67.324177 
L 202.31231 69.299591 
L 206.298505 69.400994 
L 210.284701 68.760685 
L 214.270897 65.398857 
L 218.257092 62.14719 
L 222.243288 59.962103 
L 226.229484 59.782767 
L 230.215679 60.822193 
L 234.201875 61.757871 
L 238.188071 62.209151 
L 242.174266 62.261177 
L 246.160462 61.587202 
L 250.146658 60.344065 
L 254.132853 58.075599 
L 258.119049 57.232375 
L 262.105245 58.220948 
L 266.09144 58.797275 
L 270.077636 58.750367 
L 274.063832 58.651907 
L 278.050027 58.738789 
L 282.036223 58.636196 
L 286.022418 58.282403 
L 290.008614 57.622779 
L 293.99481 57.162861 
L 297.981005 57.706102 
L 301.967201 57.990306 
L 305.953397 57.911218 
L 309.939592 58.120803 
L 313.925788 58.40071 
L 317.911984 58.294115 
L 321.898179 58.432355 
L 325.884375 59.139898 
L 329.870571 59.285528 
L 333.856766 59.192587 
L 337.842962 59.554594 
L 341.829158 59.971711 
L 345.815353 60.118808 
L 349.801549 60.271542 
L 353.787745 60.541796 
L 357.77394 60.606592 
L 361.760136 60.62674 
L 365.746332 60.640817 
L 369.732527 60.705925 
L 373.718723 60.966201 
L 377.704918 61.165014 
L 381.691114 61.212826 
L 385.67731 61.216856 
L 389.663505 61.216979 
L 393.649701 61.216979 
L 397.635897 61.216979 
L 401.622092 61.216979 
L 405.608288 61.216979 
L 409.594484 61.216979 
L 413.580679 61.216979 
L 417.566875 61.216979 
" clip-path="url(#p624f13fdf7)" style="fill: none; stroke: #66a61e; stroke-width: 2; stroke-linecap: square"/>
   </g>
   <g id="line2d_25">
    <path d="M 50.836875 248.112812 
L 54.823071 244.506766 
L 58.809266 212.48993 
L 62.795462 162.067689 
L 66.781658 141.021384 
L 70.767853 134.691667 
L 74.754049 129.544172 
L 78.740245 121.140334 
L 82.72644 108.639363 
L 86.712636 103.159354 
L 90.698832 102.397634 
L 94.685027 98.966288 
L 98.671223 93.332606 
L 102.657418 92.812913 
L 106.643614 92.684528 
L 110.62981 91.862035 
L 114.616005 91.150967 
L 118.602201 86.341864 
L 122.588397 79.324632 
L 126.574592 76.273522 
L 130.560788 77.986285 
L 134.546984 81.468774 
L 138.533179 80.73521 
L 142.519375 73.791321 
L 146.505571 66.477311 
L 150.491766 60.410959 
L 154.477962 59.826172 
L 158.464158 63.385617 
L 162.450353 63.45818 
L 166.436549 63.88283 
L 170.422745 65.271942 
L 174.40894 62.01688 
L 178.395136 60.569126 
L 182.381332 64.781207 
L 186.367527 65.492974 
L 190.353723 62.210844 
L 194.339918 59.435418 
L 198.326114 60.480329 
L 202.31231 62.46304 
L 206.298505 62.685333 
L 210.284701 62.109735 
L 214.270897 59.101493 
L 218.257092 56.382032 
L 222.243288 54.583269 
L 226.229484 54.429336 
L 230.215679 55.464828 
L 234.201875 56.764949 
L 238.188071 57.465343 
L 242.174266 57.227801 
L 246.160462 56.268768 
L 250.146658 55.212679 
L 254.132853 53.217528 
L 258.119049 52.458631 
L 262.105245 53.687507 
L 266.09144 54.46898 
L 270.077636 54.33298 
L 274.063832 54.169857 
L 278.050027 54.312845 
L 282.036223 54.136453 
L 286.022418 53.797614 
L 290.008614 53.330993 
L 293.99481 52.830951 
L 297.981005 53.340571 
L 301.967201 54.015317 
L 305.953397 54.439231 
L 309.939592 54.87506 
L 313.925788 55.127928 
L 317.911984 54.929186 
L 321.898179 55.349418 
L 325.884375 56.615953 
L 329.870571 56.849668 
L 333.856766 56.864439 
L 337.842962 57.597796 
L 341.829158 58.302112 
L 345.815353 58.583153 
L 349.801549 58.998016 
L 353.787745 59.588425 
L 357.77394 59.590422 
L 361.760136 59.507674 
L 365.746332 59.536016 
L 369.732527 59.807632 
L 373.718723 60.551853 
L 377.704918 61.08146 
L 381.691114 61.20622 
L 385.67731 61.21666 
L 389.663505 61.216979 
L 393.649701 61.216979 
L 397.635897 61.216979 
L 401.622092 61.216979 
L 405.608288 61.216979 
L 409.594484 61.216979 
L 413.580679 61.216979 
L 417.566875 61.216979 
" clip-path="url(#p624f13fdf7)" style="fill: none; stroke-dasharray: 3.7,1.6; stroke-dashoffset: 0; stroke: #66a61e"/>
   </g>
   <g id="line2d_26">
    <path d="M 50.836875 248.112812 
L 54.823071 261.338681 
L 58.809266 243.483285 
L 62.795462 199.004019 
L 66.781658 175.568786 
L 70.767853 169.254868 
L 74.754049 169.136445 
L 78.740245 165.383958 
L 82.72644 151.188097 
L 86.712636 145.533238 
L 90.698832 147.415988 
L 94.685027 139.518519 
L 98.671223 127.501528 
L 102.657418 125.783877 
L 106.643614 125.314361 
L 110.62981 121.404393 
L 114.616005 120.654497 
L 118.602201 120.50892 
L 122.588397 115.493639 
L 126.574592 111.774413 
L 130.560788 114.941973 
L 134.546984 120.565449 
L 138.533179 118.04486 
L 142.519375 107.176756 
L 146.505571 96.533969 
L 150.491766 87.124711 
L 154.477962 84.909376 
L 158.464158 89.305904 
L 162.450353 90.382705 
L 166.436549 91.106856 
L 170.422745 92.407307 
L 174.40894 88.490996 
L 178.395136 86.332732 
L 182.381332 90.938819 
L 186.367527 92.589354 
L 190.353723 87.849773 
L 194.339918 81.49566 
L 198.326114 81.011872 
L 202.31231 82.972691 
L 206.298505 82.832315 
L 210.284701 82.062584 
L 214.270897 77.993585 
L 218.257092 73.677506 
L 222.243288 70.719771 
L 226.229484 70.489631 
L 230.215679 71.536924 
L 234.201875 71.743713 
L 238.188071 71.696766 
L 242.174266 72.327928 
L 246.160462 72.22407 
L 250.146658 70.606838 
L 254.132853 67.791741 
L 258.119049 66.779862 
L 262.105245 67.287832 
L 266.09144 67.453864 
L 270.077636 67.585143 
L 274.063832 67.616006 
L 278.050027 67.590679 
L 282.036223 67.635682 
L 286.022418 67.251979 
L 290.008614 66.206351 
L 293.99481 65.82668 
L 297.981005 66.437165 
L 301.967201 65.940283 
L 305.953397 64.855193 
L 309.939592 64.612288 
L 313.925788 64.946273 
L 317.911984 65.023973 
L 321.898179 64.59823 
L 325.884375 64.187789 
L 329.870571 64.157249 
L 333.856766 63.848883 
L 337.842962 63.468191 
L 341.829158 63.310908 
L 345.815353 63.19012 
L 349.801549 62.818595 
L 353.787745 62.448539 
L 357.77394 62.638933 
L 361.760136 62.864874 
L 365.746332 62.850417 
L 369.732527 62.50251 
L 373.718723 61.794899 
L 377.704918 61.332123 
L 381.691114 61.22604 
L 385.67731 61.217246 
L 389.663505 61.216979 
L 393.649701 61.216979 
L 397.635897 61.216979 
L 401.622092 61.216979 
L 405.608288 61.216979 
L 409.594484 61.216979 
L 413.580679 61.216979 
L 417.566875 61.216979 
" clip-path="url(#p624f13fdf7)" style="fill: none; stroke-dasharray: 3.7,1.6; stroke-dashoffset: 0; stroke: #66a61e"/>
   </g>
   <g id="line2d_27">
    <path d="M 50.836875 288.482312 
L 54.823071 246.434365 
L 58.809266 216.928264 
L 62.795462 213.148686 
L 66.781658 227.429968 
L 70.767853 228.209689 
L 74.754049 210.824876 
L 78.740245 205.293695 
L 82.72644 215.670706 
L 86.712636 219.382488 
L 90.698832 213.613032 
L 94.685027 202.151017 
L 98.671223 197.916569 
L 102.657418 206.129648 
L 106.643614 211.172222 
L 110.62981 209.512907 
L 114.616005 205.797644 
L 118.602201 200.109817 
L 122.588397 194.8508 
L 126.574592 193.169056 
L 130.560788 192.323797 
L 134.546984 188.775341 
L 138.533179 186.129335 
L 142.519375 186.615127 
L 146.505571 186.504401 
L 150.491766 186.723789 
L 154.477962 187.603812 
L 158.464158 186.031012 
L 162.450353 182.833482 
L 166.436549 182.317843 
L 170.422745 184.339186 
L 174.40894 186.981324 
L 178.395136 184.876607 
L 182.381332 179.942368 
L 186.367527 176.434376 
L 190.353723 174.230326 
L 194.339918 175.113727 
L 198.326114 175.962944 
L 202.31231 175.450626 
L 206.298505 174.81202 
L 210.284701 173.726206 
L 214.270897 171.468769 
L 218.257092 169.682006 
L 222.243288 169.152191 
L 226.229484 169.718206 
L 230.215679 170.004434 
L 234.201875 170.104301 
L 238.188071 170.544115 
L 242.174266 171.290081 
L 246.160462 171.604525 
L 250.146658 171.090239 
L 254.132853 170.720814 
L 258.119049 169.930883 
L 262.105245 168.453442 
L 266.09144 167.659868 
L 270.077636 167.203112 
L 274.063832 166.522212 
L 278.050027 166.712493 
L 282.036223 166.456718 
L 286.022418 164.81685 
L 290.008614 163.562034 
L 293.99481 161.88145 
L 297.981005 160.996743 
L 301.967201 162.413062 
L 305.953397 163.661132 
L 309.939592 162.458093 
L 313.925788 160.855164 
L 317.911984 160.804648 
L 321.898179 161.762247 
L 325.884375 161.711428 
L 329.870571 161.650656 
L 333.856766 162.170935 
L 337.842962 162.357311 
L 341.829158 161.704562 
L 345.815353 160.915095 
L 349.801549 160.486005 
L 353.787745 160.336782 
L 357.77394 160.405857 
L 361.760136 160.608429 
L 365.746332 160.822938 
L 369.732527 161.369704 
L 373.718723 161.513118 
L 377.704918 161.369863 
L 381.691114 161.112323 
L 385.67731 161.581041 
L 389.663505 163.065013 
L 393.649701 164.166208 
L 397.635897 165.351297 
L 401.622092 167.964562 
L 405.608288 171.203811 
L 409.594484 172.95087 
L 413.580679 173.323504 
L 417.566875 173.35358 
" clip-path="url(#p624f13fdf7)" style="fill: none; stroke: #e7298a; stroke-width: 2; stroke-linecap: square"/>
   </g>
   <g id="line2d_28">
    <path d="M 50.836875 288.482312 
L 54.823071 240.304003 
L 58.809266 206.724827 
L 62.795462 200.55566 
L 66.781658 212.56906 
L 70.767853 213.508971 
L 74.754049 197.940518 
L 78.740245 192.681594 
L 82.72644 201.874461 
L 86.712636 204.745945 
L 90.698832 199.497294 
L 94.685027 189.206043 
L 98.671223 184.953705 
L 102.657418 193.223214 
L 106.643614 199.805836 
L 110.62981 199.396798 
L 114.616005 196.277433 
L 118.602201 190.701553 
L 122.588397 184.956451 
L 126.574592 182.052774 
L 130.560788 180.92292 
L 134.546984 178.911566 
L 138.533179 177.349573 
L 142.519375 177.536202 
L 146.505571 176.950588 
L 150.491766 177.148717 
L 154.477962 178.093652 
L 158.464158 176.677805 
L 162.450353 173.882187 
L 166.436549 173.757525 
L 170.422745 175.448016 
L 174.40894 177.220012 
L 178.395136 174.923359 
L 182.381332 170.428496 
L 186.367527 167.272376 
L 190.353723 165.71392 
L 194.339918 166.778407 
L 198.326114 167.576859 
L 202.31231 167.305366 
L 206.298505 166.822695 
L 210.284701 166.008311 
L 214.270897 163.780103 
L 218.257092 161.697113 
L 222.243288 161.295709 
L 226.229484 162.325677 
L 230.215679 162.971603 
L 234.201875 163.152943 
L 238.188071 163.763369 
L 242.174266 164.685828 
L 246.160462 164.933096 
L 250.146658 164.295619 
L 254.132853 164.135928 
L 258.119049 163.638302 
L 262.105245 162.075297 
L 266.09144 161.344157 
L 270.077636 161.265438 
L 274.063832 160.858166 
L 278.050027 160.973783 
L 282.036223 160.593862 
L 286.022418 159.003823 
L 290.008614 157.819492 
L 293.99481 156.246382 
L 297.981005 155.428199 
L 301.967201 156.945734 
L 305.953397 158.088761 
L 309.939592 156.777604 
L 313.925788 155.408564 
L 317.911984 155.6536 
L 321.898179 156.744818 
L 325.884375 156.727218 
L 329.870571 156.73162 
L 333.856766 157.296758 
L 337.842962 157.572907 
L 341.829158 156.986955 
L 345.815353 156.167148 
L 349.801549 155.72934 
L 353.787745 155.652777 
L 357.77394 155.754318 
L 361.760136 156.006335 
L 365.746332 156.336485 
L 369.732527 156.991752 
L 373.718723 157.150573 
L 377.704918 156.988761 
L 381.691114 156.712879 
L 385.67731 157.250705 
L 389.663505 158.906143 
L 393.649701 160.146818 
L 397.635897 161.656321 
L 401.622092 165.316756 
L 405.608288 170.095672 
L 409.594484 172.737729 
L 413.580679 173.306974 
L 417.566875 173.353097 
" clip-path="url(#p624f13fdf7)" style="fill: none; stroke-dasharray: 3.7,1.6; stroke-dashoffset: 0; stroke: #e7298a"/>
   </g>
   <g id="line2d_29">
    <path d="M 50.836875 288.482312 
L 54.823071 258.695091 
L 58.809266 237.335138 
L 62.795462 238.334738 
L 66.781658 257.151784 
L 70.767853 257.611125 
L 74.754049 236.593591 
L 78.740245 230.517896 
L 82.72644 243.263194 
L 86.712636 248.655573 
L 90.698832 241.844508 
L 94.685027 228.040967 
L 98.671223 223.842298 
L 102.657418 231.942518 
L 106.643614 233.904992 
L 110.62981 229.745124 
L 114.616005 224.838067 
L 118.602201 218.926344 
L 122.588397 214.639498 
L 126.574592 215.40162 
L 130.560788 215.125552 
L 134.546984 208.502892 
L 138.533179 203.688859 
L 142.519375 204.772978 
L 146.505571 205.612027 
L 150.491766 205.873934 
L 154.477962 206.624133 
L 158.464158 204.737427 
L 162.450353 200.736071 
L 166.436549 199.438477 
L 170.422745 202.121527 
L 174.40894 206.503947 
L 178.395136 204.783103 
L 182.381332 198.970112 
L 186.367527 194.758377 
L 190.353723 191.263138 
L 194.339918 191.784368 
L 198.326114 192.735115 
L 202.31231 191.741147 
L 206.298505 190.79067 
L 210.284701 189.161994 
L 214.270897 186.846102 
L 218.257092 185.651792 
L 222.243288 184.865156 
L 226.229484 184.503264 
L 230.215679 184.070096 
L 234.201875 184.007016 
L 238.188071 184.105607 
L 242.174266 184.498588 
L 246.160462 184.947383 
L 250.146658 184.679477 
L 254.132853 183.890586 
L 258.119049 182.516045 
L 262.105245 181.209732 
L 266.09144 180.291289 
L 270.077636 179.078461 
L 274.063832 177.850306 
L 278.050027 178.189914 
L 282.036223 178.18243 
L 286.022418 176.442906 
L 290.008614 175.047119 
L 293.99481 173.151585 
L 297.981005 172.133832 
L 301.967201 173.347718 
L 305.953397 174.805875 
L 309.939592 173.819069 
L 313.925788 171.748364 
L 317.911984 171.106742 
L 321.898179 171.797105 
L 325.884375 171.679847 
L 329.870571 171.488727 
L 333.856766 171.91929 
L 337.842962 171.92612 
L 341.829158 171.139777 
L 345.815353 170.410989 
L 349.801549 169.999336 
L 353.787745 169.704791 
L 357.77394 169.708934 
L 361.760136 169.812616 
L 365.746332 169.795845 
L 369.732527 170.125608 
L 373.718723 170.238208 
L 377.704918 170.132065 
L 381.691114 169.91121 
L 385.67731 170.241713 
L 389.663505 171.382752 
L 393.649701 172.204988 
L 397.635897 172.74125 
L 401.622092 173.260172 
L 405.608288 173.420087 
L 409.594484 173.377151 
L 413.580679 173.356563 
L 417.566875 173.354546 
" clip-path="url(#p624f13fdf7)" style="fill: none; stroke-dasharray: 3.7,1.6; stroke-dashoffset: 0; stroke: #e7298a"/>
   </g>
   <g id="line2d_30">
    <path d="M 50.836875 301.938812 
L 54.823071 292.573262 
L 58.809266 277.008279 
L 62.795462 259.045242 
L 66.781658 254.935547 
L 70.767853 260.800649 
L 74.754049 264.908406 
L 78.740245 267.39426 
L 82.72644 269.489765 
L 86.712636 269.056155 
L 90.698832 263.038576 
L 94.685027 251.022918 
L 98.671223 241.950241 
L 102.657418 240.850552 
L 106.643614 241.965246 
L 110.62981 242.922043 
L 114.616005 242.933537 
L 118.602201 242.745065 
L 122.588397 240.611975 
L 126.574592 238.967866 
L 130.560788 239.446015 
L 134.546984 239.618959 
L 138.533179 238.813903 
L 142.519375 237.522001 
L 146.505571 236.109655 
L 150.491766 235.448843 
L 154.477962 235.109812 
L 158.464158 234.651354 
L 162.450353 234.042829 
L 166.436549 233.647474 
L 170.422745 232.050113 
L 174.40894 228.056385 
L 178.395136 225.615783 
L 182.381332 226.278635 
L 186.367527 227.465596 
L 190.353723 227.836776 
L 194.339918 228.323593 
L 198.326114 228.907166 
L 202.31231 228.890149 
L 206.298505 227.835866 
L 210.284701 225.717368 
L 214.270897 224.766884 
L 218.257092 225.031926 
L 222.243288 224.832391 
L 226.229484 224.44164 
L 230.215679 224.013844 
L 234.201875 223.843147 
L 238.188071 223.722958 
L 242.174266 222.663055 
L 246.160462 221.312797 
L 250.146658 220.964817 
L 254.132853 221.177636 
L 258.119049 220.732269 
L 262.105245 220.73216 
L 266.09144 221.479009 
L 270.077636 221.022794 
L 274.063832 220.601146 
L 278.050027 221.005833 
L 282.036223 220.989707 
L 286.022418 220.464775 
L 290.008614 219.931588 
L 293.99481 219.467933 
L 297.981005 219.0574 
L 301.967201 218.587574 
L 305.953397 218.334839 
L 309.939592 218.459421 
L 313.925788 218.292598 
L 317.911984 217.671959 
L 321.898179 217.34844 
L 325.884375 217.050172 
L 329.870571 216.702815 
L 333.856766 216.549294 
L 337.842962 216.222329 
L 341.829158 216.152439 
L 345.815353 216.083297 
L 349.801549 215.59171 
L 353.787745 215.065119 
L 357.77394 215.201896 
L 361.760136 215.490179 
L 365.746332 215.22201 
L 369.732527 214.688162 
L 373.718723 214.153008 
L 377.704918 213.723818 
L 381.691114 213.630604 
L 385.67731 213.649149 
L 389.663505 213.514871 
L 393.649701 213.542719 
L 397.635897 213.657356 
L 401.622092 213.653818 
L 405.608288 213.61947 
L 409.594484 213.609835 
L 413.580679 213.608993 
L 417.566875 213.608966 
" clip-path="url(#p624f13fdf7)" style="fill: none; stroke: #7570b3; stroke-width: 2; stroke-linecap: square"/>
   </g>
   <g id="line2d_31">
    <path d="M 50.836875 301.938812 
L 54.823071 286.467412 
L 58.809266 266.950525 
L 62.795462 248.792158 
L 66.781658 244.702687 
L 70.767853 248.440116 
L 74.754049 253.247689 
L 78.740245 257.247599 
L 82.72644 259.490165 
L 86.712636 259.83168 
L 90.698832 255.701939 
L 94.685027 245.291294 
L 98.671223 236.127606 
L 102.657418 234.065305 
L 106.643614 235.055497 
L 110.62981 236.381098 
L 114.616005 236.618828 
L 118.602201 236.378068 
L 122.588397 234.439076 
L 126.574592 233.253922 
L 130.560788 234.291829 
L 134.546984 234.747655 
L 138.533179 233.700271 
L 142.519375 232.085087 
L 146.505571 230.95124 
L 150.491766 230.756267 
L 154.477962 230.37051 
L 158.464158 229.797085 
L 162.450353 229.151516 
L 166.436549 228.702574 
L 170.422745 227.320461 
L 174.40894 223.770017 
L 178.395136 221.604969 
L 182.381332 222.326625 
L 186.367527 223.333916 
L 190.353723 223.59938 
L 194.339918 224.146917 
L 198.326114 224.719669 
L 202.31231 224.43672 
L 206.298505 223.008463 
L 210.284701 221.094053 
L 214.270897 220.766653 
L 218.257092 221.338785 
L 222.243288 221.090656 
L 226.229484 220.577052 
L 230.215679 220.220933 
L 234.201875 220.331752 
L 238.188071 220.210348 
L 242.174266 218.695845 
L 246.160462 217.036013 
L 250.146658 216.693824 
L 254.132853 217.189158 
L 258.119049 217.11616 
L 262.105245 217.271031 
L 266.09144 217.945011 
L 270.077636 217.35473 
L 274.063832 216.857275 
L 278.050027 217.397867 
L 282.036223 217.592316 
L 286.022418 217.136219 
L 290.008614 216.596577 
L 293.99481 216.155795 
L 297.981005 215.816297 
L 301.967201 215.502573 
L 305.953397 215.407887 
L 309.939592 215.628663 
L 313.925788 215.422656 
L 317.911984 214.690938 
L 321.898179 214.324883 
L 325.884375 214.146169 
L 329.870571 213.939594 
L 333.856766 213.915131 
L 337.842962 213.747794 
L 341.829158 213.776838 
L 345.815353 213.763146 
L 349.801549 213.417197 
L 353.787745 213.0439 
L 357.77394 213.261155 
L 361.760136 213.540502 
L 365.746332 213.342079 
L 369.732527 212.907866 
L 373.718723 212.510514 
L 377.704918 212.327582 
L 381.691114 212.525213 
L 385.67731 212.794312 
L 389.663505 212.915127 
L 393.649701 213.190757 
L 397.635897 213.427268 
L 401.622092 213.538933 
L 405.608288 213.594541 
L 409.594484 213.607798 
L 413.580679 213.608931 
L 417.566875 213.608966 
" clip-path="url(#p624f13fdf7)" style="fill: none; stroke-dasharray: 3.7,1.6; stroke-dashoffset: 0; stroke: #7570b3"/>
   </g>
   <g id="line2d_32">
    <path d="M 50.836875 301.938812 
L 54.823071 304.784963 
L 58.809266 297.123788 
L 62.795462 279.551409 
L 66.781658 275.401267 
L 70.767853 285.521715 
L 74.754049 288.229839 
L 78.740245 287.687581 
L 82.72644 289.488965 
L 86.712636 287.505106 
L 90.698832 277.711852 
L 94.685027 262.486166 
L 98.671223 253.59551 
L 102.657418 254.421045 
L 106.643614 255.784744 
L 110.62981 256.003935 
L 114.616005 255.562955 
L 118.602201 255.479059 
L 122.588397 252.957772 
L 126.574592 250.395754 
L 130.560788 249.754389 
L 134.546984 249.361568 
L 138.533179 249.041167 
L 142.519375 248.39583 
L 146.505571 246.426485 
L 150.491766 244.833995 
L 154.477962 244.588416 
L 158.464158 244.359891 
L 162.450353 243.825456 
L 166.436549 243.537274 
L 170.422745 241.509417 
L 174.40894 236.629119 
L 178.395136 233.63741 
L 182.381332 234.182655 
L 186.367527 235.728954 
L 190.353723 236.311569 
L 194.339918 236.676944 
L 198.326114 237.28216 
L 202.31231 237.797007 
L 206.298505 237.490673 
L 210.284701 234.963997 
L 214.270897 232.767346 
L 218.257092 232.418207 
L 222.243288 232.315861 
L 226.229484 232.170816 
L 230.215679 231.599665 
L 234.201875 230.865939 
L 238.188071 230.748177 
L 242.174266 230.597474 
L 246.160462 229.866366 
L 250.146658 229.506802 
L 254.132853 229.154592 
L 258.119049 227.964487 
L 262.105245 227.654418 
L 266.09144 228.547006 
L 270.077636 228.358923 
L 274.063832 228.08889 
L 278.050027 228.221764 
L 282.036223 227.784489 
L 286.022418 227.121888 
L 290.008614 226.601612 
L 293.99481 226.092211 
L 297.981005 225.539605 
L 301.967201 224.757576 
L 305.953397 224.188741 
L 309.939592 224.120939 
L 313.925788 224.032481 
L 317.911984 223.633999 
L 321.898179 223.395554 
L 325.884375 222.858179 
L 329.870571 222.229257 
L 333.856766 221.817618 
L 337.842962 221.171399 
L 341.829158 220.90364 
L 345.815353 220.723601 
L 349.801549 219.940736 
L 353.787745 219.107557 
L 357.77394 219.083377 
L 361.760136 219.389533 
L 365.746332 218.981873 
L 369.732527 218.248755 
L 373.718723 217.437996 
L 377.704918 216.516291 
L 381.691114 215.841384 
L 385.67731 215.358823 
L 389.663505 214.71436 
L 393.649701 214.246643 
L 397.635897 214.11753 
L 401.622092 213.883588 
L 405.608288 213.66933 
L 409.594484 213.61391 
L 413.580679 213.609116 
L 417.566875 213.608966 
" clip-path="url(#p624f13fdf7)" style="fill: none; stroke-dasharray: 3.7,1.6; stroke-dashoffset: 0; stroke: #7570b3"/>
   </g>
   <g id="line2d_33">
    <path d="M 50.836875 324.366312 
L 54.823071 308.021355 
L 58.809266 296.050361 
L 62.795462 284.290057 
L 66.781658 265.793757 
L 70.767853 253.499958 
L 74.754049 252.804813 
L 78.740245 252.90521 
L 82.72644 257.349941 
L 86.712636 262.758292 
L 90.698832 262.960583 
L 94.685027 260.7976 
L 98.671223 259.398799 
L 102.657418 259.789864 
L 106.643614 256.794331 
L 110.62981 259.68638 
L 114.616005 260.73845 
L 118.602201 258.142156 
L 122.588397 259.674613 
L 126.574592 261.220643 
L 130.560788 261.112649 
L 134.546984 260.334571 
L 138.533179 259.105227 
L 142.519375 259.426357 
L 146.505571 259.977764 
L 150.491766 259.307788 
L 154.477962 262.910515 
L 158.464158 267.317831 
L 162.450353 266.652518 
L 166.436549 265.392215 
L 170.422745 263.37309 
L 174.40894 261.64533 
L 178.395136 262.540279 
L 182.381332 261.822699 
L 186.367527 258.164933 
L 190.353723 256.72845 
L 194.339918 258.14705 
L 198.326114 259.104721 
L 202.31231 258.451701 
L 206.298505 258.75019 
L 210.284701 258.296098 
L 214.270897 256.878865 
L 218.257092 258.386829 
L 222.243288 261.335118 
L 226.229484 261.569745 
L 230.215679 259.77358 
L 234.201875 259.043958 
L 238.188071 259.518694 
L 242.174266 258.701507 
L 246.160462 259.116062 
L 250.146658 261.176974 
L 254.132853 262.382586 
L 258.119049 263.024317 
L 262.105245 262.404238 
L 266.09144 261.052553 
L 270.077636 261.153432 
L 274.063832 262.381994 
L 278.050027 263.49414 
L 282.036223 264.176622 
L 286.022418 264.840404 
L 290.008614 264.44669 
L 293.99481 263.542242 
L 297.981005 263.502179 
L 301.967201 264.184607 
L 305.953397 264.652396 
L 309.939592 265.111671 
L 313.925788 264.48619 
L 317.911984 263.321367 
L 321.898179 263.802305 
L 325.884375 264.88625 
L 329.870571 265.696164 
L 333.856766 265.991583 
L 337.842962 266.041075 
L 341.829158 267.035449 
L 345.815353 268.185447 
L 349.801549 267.764299 
L 353.787745 266.678772 
L 357.77394 266.338137 
L 361.760136 266.788664 
L 365.746332 268.025155 
L 369.732527 269.754372 
L 373.718723 270.853362 
L 377.704918 271.279435 
L 381.691114 271.323775 
L 385.67731 271.59003 
L 389.663505 272.362997 
L 393.649701 272.897579 
L 397.635897 273.021624 
L 401.622092 273.031943 
L 405.608288 273.032257 
L 409.594484 273.032257 
L 413.580679 273.032257 
L 417.566875 273.032257 
" clip-path="url(#p624f13fdf7)" style="fill: none; stroke: #d95f02; stroke-width: 2; stroke-linecap: square"/>
   </g>
   <g id="line2d_34">
    <path d="M 50.836875 324.366312 
L 54.823071 300.849285 
L 58.809266 283.378626 
L 62.795462 268.999667 
L 66.781658 250.582819 
L 70.767853 240.416856 
L 74.754049 242.230108 
L 78.740245 242.809627 
L 82.72644 246.660617 
L 86.712636 251.036826 
L 90.698832 248.913345 
L 94.685027 245.28514 
L 98.671223 244.232128 
L 102.657418 245.550216 
L 106.643614 242.958325 
L 110.62981 245.429205 
L 114.616005 247.114907 
L 118.602201 246.268809 
L 122.588397 248.970231 
L 126.574592 250.368817 
L 130.560788 249.82016 
L 134.546984 249.405657 
L 138.533179 249.03619 
L 142.519375 250.122825 
L 146.505571 251.096846 
L 150.491766 250.85005 
L 154.477962 254.870992 
L 158.464158 259.141836 
L 162.450353 258.026322 
L 166.436549 256.334192 
L 170.422745 253.953429 
L 174.40894 252.849172 
L 178.395136 254.816274 
L 182.381332 254.354465 
L 186.367527 250.506303 
L 190.353723 249.035418 
L 194.339918 250.639381 
L 198.326114 252.014389 
L 202.31231 251.393707 
L 206.298505 251.390808 
L 210.284701 250.872212 
L 214.270897 249.80477 
L 218.257092 252.044882 
L 222.243288 255.397301 
L 226.229484 255.438829 
L 230.215679 253.312103 
L 234.201875 252.506063 
L 238.188071 253.254787 
L 242.174266 252.512278 
L 246.160462 253.042781 
L 250.146658 255.465863 
L 254.132853 256.889738 
L 258.119049 257.461532 
L 262.105245 256.609418 
L 266.09144 255.236029 
L 270.077636 255.645062 
L 274.063832 257.23094 
L 278.050027 258.587401 
L 282.036223 259.428884 
L 286.022418 260.238679 
L 290.008614 259.714089 
L 293.99481 258.519013 
L 297.981005 258.408392 
L 301.967201 259.310752 
L 305.953397 259.964054 
L 309.939592 260.560041 
L 313.925788 259.834905 
L 317.911984 258.433762 
L 321.898179 258.979307 
L 325.884375 260.267605 
L 329.870571 261.262572 
L 333.856766 261.633754 
L 337.842962 261.717171 
L 341.829158 263.045518 
L 345.815353 264.565019 
L 349.801549 263.977375 
L 353.787745 262.52485 
L 357.77394 262.070478 
L 361.760136 262.671378 
L 365.746332 264.378831 
L 369.732527 266.793491 
L 373.718723 268.357678 
L 377.704918 269.006187 
L 381.691114 269.131556 
L 385.67731 269.852232 
L 389.663505 271.586288 
L 393.649701 272.74371 
L 397.635897 273.00955 
L 401.622092 273.031588 
L 405.608288 273.032257 
L 409.594484 273.032257 
L 413.580679 273.032257 
L 417.566875 273.032257 
" clip-path="url(#p624f13fdf7)" style="fill: none; stroke-dasharray: 3.7,1.6; stroke-dashoffset: 0; stroke: #d95f02"/>
   </g>
   <g id="line2d_35">
    <path d="M 50.836875 324.366312 
L 54.823071 322.365496 
L 58.809266 321.393832 
L 62.795462 314.870837 
L 66.781658 296.215635 
L 70.767853 279.666163 
L 74.754049 273.954223 
L 78.740245 273.096375 
L 82.72644 278.72859 
L 86.712636 286.201224 
L 90.698832 291.055058 
L 94.685027 291.822518 
L 98.671223 289.73214 
L 102.657418 288.269158 
L 106.643614 284.466342 
L 110.62981 288.200729 
L 114.616005 287.985535 
L 118.602201 281.88885 
L 122.588397 281.083377 
L 126.574592 282.924294 
L 130.560788 283.697626 
L 134.546984 282.192399 
L 138.533179 279.243301 
L 142.519375 278.033422 
L 146.505571 277.739601 
L 150.491766 276.223262 
L 154.477962 278.989562 
L 158.464158 283.669819 
L 162.450353 283.904909 
L 166.436549 283.508262 
L 170.422745 282.212413 
L 174.40894 279.237647 
L 178.395136 277.988289 
L 182.381332 276.759165 
L 186.367527 273.482191 
L 190.353723 272.114514 
L 194.339918 273.162387 
L 198.326114 273.285384 
L 202.31231 272.56769 
L 206.298505 273.468955 
L 210.284701 273.143871 
L 214.270897 271.027053 
L 218.257092 271.070722 
L 222.243288 273.210754 
L 226.229484 273.831578 
L 230.215679 272.696532 
L 234.201875 272.119749 
L 238.188071 272.046508 
L 242.174266 271.079966 
L 246.160462 271.262623 
L 250.146658 272.599196 
L 254.132853 273.368283 
L 258.119049 274.149887 
L 262.105245 273.993879 
L 266.09144 272.685602 
L 270.077636 272.170172 
L 274.063832 272.684101 
L 278.050027 273.307619 
L 282.036223 273.672098 
L 286.022418 274.043852 
L 290.008614 273.911893 
L 293.99481 273.5887 
L 297.981005 273.689753 
L 301.967201 273.932318 
L 305.953397 274.029082 
L 309.939592 274.214932 
L 313.925788 273.788761 
L 317.911984 273.096575 
L 321.898179 273.448301 
L 325.884375 274.12354 
L 329.870571 274.563347 
L 333.856766 274.707241 
L 337.842962 274.688881 
L 341.829158 275.015312 
L 345.815353 275.426303 
L 349.801549 275.338146 
L 353.787745 274.986617 
L 357.77394 274.873455 
L 361.760136 275.023235 
L 365.746332 275.317802 
L 369.732527 275.676134 
L 373.718723 275.844731 
L 377.704918 275.82593 
L 381.691114 275.708213 
L 385.67731 275.065627 
L 389.663505 273.916414 
L 393.649701 273.205317 
L 397.635897 273.045773 
L 401.622092 273.032653 
L 405.608288 273.032257 
L 409.594484 273.032257 
L 413.580679 273.032257 
L 417.566875 273.032257 
" clip-path="url(#p624f13fdf7)" style="fill: none; stroke-dasharray: 3.7,1.6; stroke-dashoffset: 0; stroke: #d95f02"/>
   </g>
   <g id="line2d_36">
    <path d="M 50.836875 324.366312 
L 54.823071 316.53104 
L 58.809266 308.670258 
L 62.795462 302.262003 
L 66.781658 296.24957 
L 70.767853 287.714982 
L 74.754049 281.246002 
L 78.740245 279.830602 
L 82.72644 286.557431 
L 86.712636 295.884037 
L 90.698832 304.698959 
L 94.685027 308.316577 
L 98.671223 307.746157 
L 102.657418 303.471452 
L 106.643614 298.415648 
L 110.62981 298.974623 
L 114.616005 295.876791 
L 118.602201 291.144259 
L 122.588397 292.511728 
L 126.574592 292.477657 
L 130.560788 287.965285 
L 134.546984 289.586934 
L 138.533179 292.395054 
L 142.519375 292.640795 
L 146.505571 291.63755 
L 150.491766 290.519688 
L 154.477962 289.209148 
L 158.464158 288.153591 
L 162.450353 288.330401 
L 166.436549 291.079885 
L 170.422745 291.342356 
L 174.40894 289.772957 
L 178.395136 290.738924 
L 182.381332 293.208008 
L 186.367527 295.82227 
L 190.353723 298.049006 
L 194.339918 297.983702 
L 198.326114 297.637511 
L 202.31231 297.996599 
L 206.298505 297.310152 
L 210.284701 294.923711 
L 214.270897 292.071861 
L 218.257092 290.311785 
L 222.243288 289.797381 
L 226.229484 291.183219 
L 230.215679 293.567087 
L 234.201875 295.254592 
L 238.188071 296.115898 
L 242.174266 295.198218 
L 246.160462 293.426039 
L 250.146658 292.775952 
L 254.132853 294.172329 
L 258.119049 293.741687 
L 262.105245 291.571484 
L 266.09144 292.064218 
L 270.077636 294.527621 
L 274.063832 296.018288 
L 278.050027 296.113941 
L 282.036223 295.264255 
L 286.022418 293.303155 
L 290.008614 291.958429 
L 293.99481 292.485481 
L 297.981005 293.410294 
L 301.967201 293.391446 
L 305.953397 292.699737 
L 309.939592 292.975086 
L 313.925788 293.52953 
L 317.911984 293.518862 
L 321.898179 292.653768 
L 325.884375 291.572148 
L 329.870571 291.474887 
L 333.856766 292.675819 
L 337.842962 293.684056 
L 341.829158 293.392811 
L 345.815353 292.516823 
L 349.801549 292.344139 
L 353.787745 293.285295 
L 357.77394 293.793685 
L 361.760136 293.332924 
L 365.746332 292.981369 
L 369.732527 292.917123 
L 373.718723 292.792036 
L 377.704918 292.680298 
L 381.691114 292.793457 
L 385.67731 292.928909 
L 389.663505 292.964619 
L 393.649701 292.967716 
L 397.635897 292.967812 
L 401.622092 292.967812 
L 405.608288 292.967812 
L 409.594484 292.967812 
L 413.580679 292.967812 
L 417.566875 292.967812 
" clip-path="url(#p624f13fdf7)" style="fill: none; stroke: #1b9e77; stroke-width: 2; stroke-linecap: square"/>
   </g>
   <g id="line2d_37">
    <path d="M 50.836875 324.366312 
L 54.823071 312.548074 
L 58.809266 301.110985 
L 62.795462 292.199608 
L 66.781658 284.84629 
L 70.767853 275.63261 
L 74.754049 269.331825 
L 78.740245 268.060742 
L 82.72644 275.698921 
L 86.712636 286.173513 
L 90.698832 294.677581 
L 94.685027 296.92949 
L 98.671223 295.54835 
L 102.657418 292.369027 
L 106.643614 288.423503 
L 110.62981 288.229316 
L 114.616005 284.630651 
L 118.602201 280.743814 
L 122.588397 282.482541 
L 126.574592 281.559689 
L 130.560788 276.58774 
L 134.546984 278.5715 
L 138.533179 282.149945 
L 142.519375 282.778603 
L 146.505571 282.109986 
L 150.491766 281.009259 
L 154.477962 279.817174 
L 158.464158 279.505171 
L 162.450353 280.148211 
L 166.436549 283.142624 
L 170.422745 283.540607 
L 174.40894 282.004747 
L 178.395136 283.338866 
L 182.381332 286.212015 
L 186.367527 288.799286 
L 190.353723 290.885471 
L 194.339918 291.021062 
L 198.326114 290.883212 
L 202.31231 291.146748 
L 206.298505 290.315093 
L 210.284701 287.793924 
L 214.270897 284.624859 
L 218.257092 283.005865 
L 222.243288 282.952931 
L 226.229484 284.405271 
L 230.215679 286.827603 
L 234.201875 288.848226 
L 238.188071 290.022099 
L 242.174266 289.190007 
L 246.160462 287.340782 
L 250.146658 286.711681 
L 254.132853 288.270402 
L 258.119049 288.046731 
L 262.105245 286.073511 
L 266.09144 286.484017 
L 270.077636 288.816714 
L 274.063832 290.308656 
L 278.050027 290.462594 
L 282.036223 289.727104 
L 286.022418 287.976129 
L 290.008614 286.943634 
L 293.99481 287.834452 
L 297.981005 288.869476 
L 301.967201 288.500721 
L 305.953397 287.445731 
L 309.939592 287.85222 
L 313.925788 288.895042 
L 317.911984 289.275305 
L 321.898179 288.647239 
L 325.884375 287.710115 
L 329.870571 287.704337 
L 333.856766 289.083085 
L 337.842962 290.353518 
L 341.829158 290.225729 
L 345.815353 289.431306 
L 349.801549 289.34356 
L 353.787745 290.445888 
L 357.77394 291.295652 
L 361.760136 291.156518 
L 365.746332 290.865323 
L 369.732527 290.802126 
L 373.718723 290.946595 
L 377.704918 291.310012 
L 381.691114 291.930802 
L 385.67731 292.576501 
L 389.663505 292.89658 
L 393.649701 292.962419 
L 397.635897 292.967657 
L 401.622092 292.967812 
L 405.608288 292.967812 
L 409.594484 292.967812 
L 413.580679 292.967812 
L 417.566875 292.967812 
" clip-path="url(#p624f13fdf7)" style="fill: none; stroke-dasharray: 3.7,1.6; stroke-dashoffset: 0; stroke: #1b9e77"/>
   </g>
   <g id="line2d_38">
    <path d="M 50.836875 324.366312 
L 54.823071 324.496972 
L 58.809266 323.788805 
L 62.795462 322.386792 
L 66.781658 319.056129 
L 70.767853 311.879724 
L 74.754049 305.074356 
L 78.740245 303.370323 
L 82.72644 308.274452 
L 86.712636 315.305085 
L 90.698832 324.741716 
L 94.685027 331.09075 
L 98.671223 332.141772 
L 102.657418 325.676303 
L 106.643614 318.399937 
L 110.62981 320.465238 
L 114.616005 318.369071 
L 118.602201 311.94515 
L 122.588397 312.570101 
L 126.574592 314.313593 
L 130.560788 310.720374 
L 134.546984 311.617803 
L 138.533179 312.885273 
L 142.519375 312.365179 
L 146.505571 310.692678 
L 150.491766 309.540545 
L 154.477962 307.993096 
L 158.464158 305.450431 
L 162.450353 304.69478 
L 166.436549 306.954408 
L 170.422745 306.945854 
L 174.40894 305.309378 
L 178.395136 305.539039 
L 182.381332 307.199996 
L 186.367527 309.868238 
L 190.353723 312.376075 
L 194.339918 311.908981 
L 198.326114 311.146108 
L 202.31231 311.696301 
L 206.298505 311.300272 
L 210.284701 309.183285 
L 214.270897 306.965865 
L 218.257092 304.923624 
L 222.243288 303.486282 
L 226.229484 304.739115 
L 230.215679 307.046054 
L 234.201875 308.067326 
L 238.188071 308.303495 
L 242.174266 307.21464 
L 246.160462 305.596555 
L 250.146658 304.904495 
L 254.132853 305.976181 
L 258.119049 305.131599 
L 262.105245 302.567431 
L 266.09144 303.224622 
L 270.077636 305.949435 
L 274.063832 307.437551 
L 278.050027 307.416636 
L 282.036223 306.338555 
L 286.022418 303.957206 
L 290.008614 301.988018 
L 293.99481 301.787537 
L 297.981005 302.49193 
L 301.967201 303.172894 
L 305.953397 303.207749 
L 309.939592 303.220817 
L 313.925788 302.798506 
L 317.911984 302.005976 
L 321.898179 300.666826 
L 325.884375 299.296213 
L 329.870571 299.015987 
L 333.856766 299.861288 
L 337.842962 300.345133 
L 341.829158 299.726976 
L 345.815353 298.687856 
L 349.801549 298.345296 
L 353.787745 298.96411 
L 357.77394 298.789753 
L 361.760136 297.685736 
L 365.746332 297.213463 
L 369.732527 297.147117 
L 373.718723 296.482919 
L 377.704918 295.420872 
L 381.691114 294.518766 
L 385.67731 293.633724 
L 389.663505 293.100698 
L 393.649701 292.978311 
L 397.635897 292.968123 
L 401.622092 292.967812 
L 405.608288 292.967812 
L 409.594484 292.967812 
L 413.580679 292.967812 
L 417.566875 292.967812 
" clip-path="url(#p624f13fdf7)" style="fill: none; stroke-dasharray: 3.7,1.6; stroke-dashoffset: 0; stroke: #1b9e77"/>
   </g>
   <g id="patch_3">
    <path d="M 50.836875 382.677812 
L 50.836875 23.837812 
" style="fill: none; stroke: #000000; stroke-width: 0.8; stroke-linejoin: miter; stroke-linecap: square"/>
   </g>
   <g id="patch_4">
    <path d="M 417.566875 382.677812 
L 417.566875 23.837812 
" style="fill: none; stroke: #000000; stroke-width: 0.8; stroke-linejoin: miter; stroke-linecap: square"/>
   </g>
   <g id="patch_5">
    <path d="M 50.836875 382.677812 
L 417.566875 382.677812 
" style="fill: none; stroke: #000000; stroke-width: 0.8; stroke-linejoin: miter; stroke-linecap: square"/>
   </g>
   <g id="patch_6">
    <path d="M 50.836875 23.837812 
L 417.566875 23.837812 
" style="fill: none; stroke: #000000; stroke-width: 0.8; stroke-linejoin: miter; stroke-linecap: square"/>
   </g>
   <g id="text_17">
    <!-- Log Odds -->
    <g transform="translate(201.427656 17.837812) scale(0.14 -0.14)">
     <defs>
      <path id="DejaVuSans-4c" d="M 628 4666 
L 1259 4666 
L 1259 531 
L 3531 531 
L 3531 0 
L 628 0 
L 628 4666 
z
" transform="scale(0.015625)"/>
      <path id="DejaVuSans-67" d="M 2906 1791 
Q 2906 2416 2648 2759 
Q 2391 3103 1925 3103 
Q 1463 3103 1205 2759 
Q 947 2416 947 1791 
Q 947 1169 1205 825 
Q 1463 481 1925 481 
Q 2391 481 2648 825 
Q 2906 1169 2906 1791 
z
M 3481 434 
Q 3481 -459 3084 -895 
Q 2688 -1331 1869 -1331 
Q 1566 -1331 1297 -1286 
Q 1028 -1241 775 -1147 
L 775 -588 
Q 1028 -725 1275 -790 
Q 1522 -856 1778 -856 
Q 2344 -856 2625 -561 
Q 2906 -266 2906 331 
L 2906 616 
Q 2728 306 2450 153 
Q 2172 0 1784 0 
Q 1141 0 747 490 
Q 353 981 353 1791 
Q 353 2603 747 3093 
Q 1141 3584 1784 3584 
Q 2172 3584 2450 3431 
Q 2728 3278 2906 2969 
L 2906 3500 
L 3481 3500 
L 3481 434 
z
" transform="scale(0.015625)"/>
      <path id="DejaVuSans-4f" d="M 2522 4238 
Q 1834 4238 1429 3725 
Q 1025 3213 1025 2328 
Q 1025 1447 1429 934 
Q 1834 422 2522 422 
Q 3209 422 3611 934 
Q 4013 1447 4013 2328 
Q 4013 3213 3611 3725 
Q 3209 4238 2522 4238 
z
M 2522 4750 
Q 3503 4750 4090 4092 
Q 4678 3434 4678 2328 
Q 4678 1225 4090 567 
Q 3503 -91 2522 -91 
Q 1538 -91 948 565 
Q 359 1222 359 2328 
Q 359 3434 948 4092 
Q 1538 4750 2522 4750 
z
" transform="scale(0.015625)"/>
      <path id="DejaVuSans-64" d="M 2906 2969 
L 2906 4863 
L 3481 4863 
L 3481 0 
L 2906 0 
L 2906 525 
Q 2725 213 2448 61 
Q 2172 -91 1784 -91 
Q 1150 -91 751 415 
Q 353 922 353 1747 
Q 353 2572 751 3078 
Q 1150 3584 1784 3584 
Q 2172 3584 2448 3432 
Q 2725 3281 2906 2969 
z
M 947 1747 
Q 947 1113 1208 752 
Q 1469 391 1925 391 
Q 2381 391 2643 752 
Q 2906 1113 2906 1747 
Q 2906 2381 2643 2742 
Q 2381 3103 1925 3103 
Q 1469 3103 1208 2742 
Q 947 2381 947 1747 
z
" transform="scale(0.015625)"/>
     </defs>
     <use xlink:href="#DejaVuSans-4c"/>
     <use xlink:href="#DejaVuSans-6f" x="53.962891"/>
     <use xlink:href="#DejaVuSans-67" x="115.144531"/>
     <use xlink:href="#DejaVuSans-20" x="178.621094"/>
     <use xlink:href="#DejaVuSans-4f" x="210.408203"/>
     <use xlink:href="#DejaVuSans-64" x="289.119141"/>
     <use xlink:href="#DejaVuSans-64" x="352.595703"/>
     <use xlink:href="#DejaVuSans-73" x="416.072266"/>
    </g>
   </g>
  </g>
 </g>
 <defs>
  <clipPath id="p624f13fdf7">
   <rect x="50.836875" y="23.837812" width="366.73" height="358.84"/>
  </clipPath>
 </defs>
</svg>
