<?xml version="1.0" encoding="utf-8" standalone="no"?>
<!DOCTYPE svg PUBLIC "-//W3C//DTD SVG 1.1//EN"
  "http://www.w3.org/Graphics/SVG/1.1/DTD/svg11.dtd">
<svg xmlns:xlink="http://www.w3.org/1999/xlink" width="424.766875pt" height="424.106719pt" viewBox="0 0 424.766875 424.106719" xmlns="http://www.w3.org/2000/svg" version="1.1">
 <metadata>
  <rdf:RDF xmlns:dc="http://purl.org/dc/elements/1.1/" xmlns:cc="http://creativecommons.org/ns#" xmlns:rdf="http://www.w3.org/1999/02/22-rdf-syntax-ns#">
   <cc:Work>
    <dc:type rdf:resource="http://purl.org/dc/dcmitype/StillImage"/>
    <dc:date>2024-04-17T11:51:09.972543</dc:date>
    <dc:format>image/svg+xml</dc:format>
    <dc:creator>
     <cc:Agent>
      <dc:title>Matplotlib v3.6.2, https://matplotlib.org/</dc:title>
     </cc:Agent>
    </dc:creator>
   </cc:Work>
  </rdf:RDF>
 </metadata>
 <defs>
  <style type="text/css">*{stroke-linejoin: round; stroke-linecap: butt}</style>
 </defs>
 <g id="figure_1">
  <g id="patch_1">
   <path d="M 0 424.106719 
L 424.766875 424.106719 
L 424.766875 0 
L 0 0 
z
" style="fill: #ffffff"/>
  </g>
  <g id="axes_1">
   <g id="patch_2">
    <path d="M 50.836875 382.679219 
L 417.566875 382.679219 
L 417.566875 10.999219 
L 50.836875 10.999219 
z
" style="fill: #ffffff"/>
   </g>
   <g id="matplotlib.axis_1">
    <g id="xtick_1">
     <g id="line2d_1">
      <defs>
       <path id="m8dcde116f3" d="M 0 0 
L 0 3.5 
" style="stroke: #000000; stroke-width: 0.8"/>
      </defs>
      <g>
       <use xlink:href="#m8dcde116f3" x="50.836875" y="382.679219" style="stroke: #000000; stroke-width: 0.8"/>
      </g>
     </g>
     <g id="text_1">
      <!-- 0 -->
      <g transform="translate(47.655625 397.277656) scale(0.1 -0.1)">
       <defs>
        <path id="DejaVuSans-30" d="M 2034 4250 
Q 1547 4250 1301 3770 
Q 1056 3291 1056 2328 
Q 1056 1369 1301 889 
Q 1547 409 2034 409 
Q 2525 409 2770 889 
Q 3016 1369 3016 2328 
Q 3016 3291 2770 3770 
Q 2525 4250 2034 4250 
z
M 2034 4750 
Q 2819 4750 3233 4129 
Q 3647 3509 3647 2328 
Q 3647 1150 3233 529 
Q 2819 -91 2034 -91 
Q 1250 -91 836 529 
Q 422 1150 422 2328 
Q 422 3509 836 4129 
Q 1250 4750 2034 4750 
z
" transform="scale(0.015625)"/>
       </defs>
       <use xlink:href="#DejaVuSans-30"/>
      </g>
     </g>
    </g>
    <g id="xtick_2">
     <g id="line2d_2">
      <g>
       <use xlink:href="#m8dcde116f3" x="130.560788" y="382.679219" style="stroke: #000000; stroke-width: 0.8"/>
      </g>
     </g>
     <g id="text_2">
      <!-- 20 -->
      <g transform="translate(124.198288 397.277656) scale(0.1 -0.1)">
       <defs>
        <path id="DejaVuSans-32" d="M 1228 531 
L 3431 531 
L 3431 0 
L 469 0 
L 469 531 
Q 828 903 1448 1529 
Q 2069 2156 2228 2338 
Q 2531 2678 2651 2914 
Q 2772 3150 2772 3378 
Q 2772 3750 2511 3984 
Q 2250 4219 1831 4219 
Q 1534 4219 1204 4116 
Q 875 4013 500 3803 
L 500 4441 
Q 881 4594 1212 4672 
Q 1544 4750 1819 4750 
Q 2544 4750 2975 4387 
Q 3406 4025 3406 3419 
Q 3406 3131 3298 2873 
Q 3191 2616 2906 2266 
Q 2828 2175 2409 1742 
Q 1991 1309 1228 531 
z
" transform="scale(0.015625)"/>
       </defs>
       <use xlink:href="#DejaVuSans-32"/>
       <use xlink:href="#DejaVuSans-30" x="63.623047"/>
      </g>
     </g>
    </g>
    <g id="xtick_3">
     <g id="line2d_3">
      <g>
       <use xlink:href="#m8dcde116f3" x="210.284701" y="382.679219" style="stroke: #000000; stroke-width: 0.8"/>
      </g>
     </g>
     <g id="text_3">
      <!-- 40 -->
      <g transform="translate(203.922201 397.277656) scale(0.1 -0.1)">
       <defs>
        <path id="DejaVuSans-34" d="M 2419 4116 
L 825 1625 
L 2419 1625 
L 2419 4116 
z
M 2253 4666 
L 3047 4666 
L 3047 1625 
L 3713 1625 
L 3713 1100 
L 3047 1100 
L 3047 0 
L 2419 0 
L 2419 1100 
L 313 1100 
L 313 1709 
L 2253 4666 
z
" transform="scale(0.015625)"/>
       </defs>
       <use xlink:href="#DejaVuSans-34"/>
       <use xlink:href="#DejaVuSans-30" x="63.623047"/>
      </g>
     </g>
    </g>
    <g id="xtick_4">
     <g id="line2d_4">
      <g>
       <use xlink:href="#m8dcde116f3" x="290.008614" y="382.679219" style="stroke: #000000; stroke-width: 0.8"/>
      </g>
     </g>
     <g id="text_4">
      <!-- 60 -->
      <g transform="translate(283.646114 397.277656) scale(0.1 -0.1)">
       <defs>
        <path id="DejaVuSans-36" d="M 2113 2584 
Q 1688 2584 1439 2293 
Q 1191 2003 1191 1497 
Q 1191 994 1439 701 
Q 1688 409 2113 409 
Q 2538 409 2786 701 
Q 3034 994 3034 1497 
Q 3034 2003 2786 2293 
Q 2538 2584 2113 2584 
z
M 3366 4563 
L 3366 3988 
Q 3128 4100 2886 4159 
Q 2644 4219 2406 4219 
Q 1781 4219 1451 3797 
Q 1122 3375 1075 2522 
Q 1259 2794 1537 2939 
Q 1816 3084 2150 3084 
Q 2853 3084 3261 2657 
Q 3669 2231 3669 1497 
Q 3669 778 3244 343 
Q 2819 -91 2113 -91 
Q 1303 -91 875 529 
Q 447 1150 447 2328 
Q 447 3434 972 4092 
Q 1497 4750 2381 4750 
Q 2619 4750 2861 4703 
Q 3103 4656 3366 4563 
z
" transform="scale(0.015625)"/>
       </defs>
       <use xlink:href="#DejaVuSans-36"/>
       <use xlink:href="#DejaVuSans-30" x="63.623047"/>
      </g>
     </g>
    </g>
    <g id="xtick_5">
     <g id="line2d_5">
      <g>
       <use xlink:href="#m8dcde116f3" x="369.732527" y="382.679219" style="stroke: #000000; stroke-width: 0.8"/>
      </g>
     </g>
     <g id="text_5">
      <!-- 80 -->
      <g transform="translate(363.370027 397.277656) scale(0.1 -0.1)">
       <defs>
        <path id="DejaVuSans-38" d="M 2034 2216 
Q 1584 2216 1326 1975 
Q 1069 1734 1069 1313 
Q 1069 891 1326 650 
Q 1584 409 2034 409 
Q 2484 409 2743 651 
Q 3003 894 3003 1313 
Q 3003 1734 2745 1975 
Q 2488 2216 2034 2216 
z
M 1403 2484 
Q 997 2584 770 2862 
Q 544 3141 544 3541 
Q 544 4100 942 4425 
Q 1341 4750 2034 4750 
Q 2731 4750 3128 4425 
Q 3525 4100 3525 3541 
Q 3525 3141 3298 2862 
Q 3072 2584 2669 2484 
Q 3125 2378 3379 2068 
Q 3634 1759 3634 1313 
Q 3634 634 3220 271 
Q 2806 -91 2034 -91 
Q 1263 -91 848 271 
Q 434 634 434 1313 
Q 434 1759 690 2068 
Q 947 2378 1403 2484 
z
M 1172 3481 
Q 1172 3119 1398 2916 
Q 1625 2713 2034 2713 
Q 2441 2713 2670 2916 
Q 2900 3119 2900 3481 
Q 2900 3844 2670 4047 
Q 2441 4250 2034 4250 
Q 1625 4250 1398 4047 
Q 1172 3844 1172 3481 
z
" transform="scale(0.015625)"/>
       </defs>
       <use xlink:href="#DejaVuSans-38"/>
       <use xlink:href="#DejaVuSans-30" x="63.623047"/>
      </g>
     </g>
    </g>
    <g id="text_6">
     <!-- Number of participants -->
     <g transform="translate(153.230469 413.995156) scale(0.14 -0.14)">
      <defs>
       <path id="DejaVuSans-4e" d="M 628 4666 
L 1478 4666 
L 3547 763 
L 3547 4666 
L 4159 4666 
L 4159 0 
L 3309 0 
L 1241 3903 
L 1241 0 
L 628 0 
L 628 4666 
z
" transform="scale(0.015625)"/>
       <path id="DejaVuSans-75" d="M 544 1381 
L 544 3500 
L 1119 3500 
L 1119 1403 
Q 1119 906 1312 657 
Q 1506 409 1894 409 
Q 2359 409 2629 706 
Q 2900 1003 2900 1516 
L 2900 3500 
L 3475 3500 
L 3475 0 
L 2900 0 
L 2900 538 
Q 2691 219 2414 64 
Q 2138 -91 1772 -91 
Q 1169 -91 856 284 
Q 544 659 544 1381 
z
M 1991 3584 
L 1991 3584 
z
" transform="scale(0.015625)"/>
       <path id="DejaVuSans-6d" d="M 3328 2828 
Q 3544 3216 3844 3400 
Q 4144 3584 4550 3584 
Q 5097 3584 5394 3201 
Q 5691 2819 5691 2113 
L 5691 0 
L 5113 0 
L 5113 2094 
Q 5113 2597 4934 2840 
Q 4756 3084 4391 3084 
Q 3944 3084 3684 2787 
Q 3425 2491 3425 1978 
L 3425 0 
L 2847 0 
L 2847 2094 
Q 2847 2600 2669 2842 
Q 2491 3084 2119 3084 
Q 1678 3084 1418 2786 
Q 1159 2488 1159 1978 
L 1159 0 
L 581 0 
L 581 3500 
L 1159 3500 
L 1159 2956 
Q 1356 3278 1631 3431 
Q 1906 3584 2284 3584 
Q 2666 3584 2933 3390 
Q 3200 3197 3328 2828 
z
" transform="scale(0.015625)"/>
       <path id="DejaVuSans-62" d="M 3116 1747 
Q 3116 2381 2855 2742 
Q 2594 3103 2138 3103 
Q 1681 3103 1420 2742 
Q 1159 2381 1159 1747 
Q 1159 1113 1420 752 
Q 1681 391 2138 391 
Q 2594 391 2855 752 
Q 3116 1113 3116 1747 
z
M 1159 2969 
Q 1341 3281 1617 3432 
Q 1894 3584 2278 3584 
Q 2916 3584 3314 3078 
Q 3713 2572 3713 1747 
Q 3713 922 3314 415 
Q 2916 -91 2278 -91 
Q 1894 -91 1617 61 
Q 1341 213 1159 525 
L 1159 0 
L 581 0 
L 581 4863 
L 1159 4863 
L 1159 2969 
z
" transform="scale(0.015625)"/>
       <path id="DejaVuSans-65" d="M 3597 1894 
L 3597 1613 
L 953 1613 
Q 991 1019 1311 708 
Q 1631 397 2203 397 
Q 2534 397 2845 478 
Q 3156 559 3463 722 
L 3463 178 
Q 3153 47 2828 -22 
Q 2503 -91 2169 -91 
Q 1331 -91 842 396 
Q 353 884 353 1716 
Q 353 2575 817 3079 
Q 1281 3584 2069 3584 
Q 2775 3584 3186 3129 
Q 3597 2675 3597 1894 
z
M 3022 2063 
Q 3016 2534 2758 2815 
Q 2500 3097 2075 3097 
Q 1594 3097 1305 2825 
Q 1016 2553 972 2059 
L 3022 2063 
z
" transform="scale(0.015625)"/>
       <path id="DejaVuSans-72" d="M 2631 2963 
Q 2534 3019 2420 3045 
Q 2306 3072 2169 3072 
Q 1681 3072 1420 2755 
Q 1159 2438 1159 1844 
L 1159 0 
L 581 0 
L 581 3500 
L 1159 3500 
L 1159 2956 
Q 1341 3275 1631 3429 
Q 1922 3584 2338 3584 
Q 2397 3584 2469 3576 
Q 2541 3569 2628 3553 
L 2631 2963 
z
" transform="scale(0.015625)"/>
       <path id="DejaVuSans-20" transform="scale(0.015625)"/>
       <path id="DejaVuSans-6f" d="M 1959 3097 
Q 1497 3097 1228 2736 
Q 959 2375 959 1747 
Q 959 1119 1226 758 
Q 1494 397 1959 397 
Q 2419 397 2687 759 
Q 2956 1122 2956 1747 
Q 2956 2369 2687 2733 
Q 2419 3097 1959 3097 
z
M 1959 3584 
Q 2709 3584 3137 3096 
Q 3566 2609 3566 1747 
Q 3566 888 3137 398 
Q 2709 -91 1959 -91 
Q 1206 -91 779 398 
Q 353 888 353 1747 
Q 353 2609 779 3096 
Q 1206 3584 1959 3584 
z
" transform="scale(0.015625)"/>
       <path id="DejaVuSans-66" d="M 2375 4863 
L 2375 4384 
L 1825 4384 
Q 1516 4384 1395 4259 
Q 1275 4134 1275 3809 
L 1275 3500 
L 2222 3500 
L 2222 3053 
L 1275 3053 
L 1275 0 
L 697 0 
L 697 3053 
L 147 3053 
L 147 3500 
L 697 3500 
L 697 3744 
Q 697 4328 969 4595 
Q 1241 4863 1831 4863 
L 2375 4863 
z
" transform="scale(0.015625)"/>
       <path id="DejaVuSans-70" d="M 1159 525 
L 1159 -1331 
L 581 -1331 
L 581 3500 
L 1159 3500 
L 1159 2969 
Q 1341 3281 1617 3432 
Q 1894 3584 2278 3584 
Q 2916 3584 3314 3078 
Q 3713 2572 3713 1747 
Q 3713 922 3314 415 
Q 2916 -91 2278 -91 
Q 1894 -91 1617 61 
Q 1341 213 1159 525 
z
M 3116 1747 
Q 3116 2381 2855 2742 
Q 2594 3103 2138 3103 
Q 1681 3103 1420 2742 
Q 1159 2381 1159 1747 
Q 1159 1113 1420 752 
Q 1681 391 2138 391 
Q 2594 391 2855 752 
Q 3116 1113 3116 1747 
z
" transform="scale(0.015625)"/>
       <path id="DejaVuSans-61" d="M 2194 1759 
Q 1497 1759 1228 1600 
Q 959 1441 959 1056 
Q 959 750 1161 570 
Q 1363 391 1709 391 
Q 2188 391 2477 730 
Q 2766 1069 2766 1631 
L 2766 1759 
L 2194 1759 
z
M 3341 1997 
L 3341 0 
L 2766 0 
L 2766 531 
Q 2569 213 2275 61 
Q 1981 -91 1556 -91 
Q 1019 -91 701 211 
Q 384 513 384 1019 
Q 384 1609 779 1909 
Q 1175 2209 1959 2209 
L 2766 2209 
L 2766 2266 
Q 2766 2663 2505 2880 
Q 2244 3097 1772 3097 
Q 1472 3097 1187 3025 
Q 903 2953 641 2809 
L 641 3341 
Q 956 3463 1253 3523 
Q 1550 3584 1831 3584 
Q 2591 3584 2966 3190 
Q 3341 2797 3341 1997 
z
" transform="scale(0.015625)"/>
       <path id="DejaVuSans-74" d="M 1172 4494 
L 1172 3500 
L 2356 3500 
L 2356 3053 
L 1172 3053 
L 1172 1153 
Q 1172 725 1289 603 
Q 1406 481 1766 481 
L 2356 481 
L 2356 0 
L 1766 0 
Q 1100 0 847 248 
Q 594 497 594 1153 
L 594 3053 
L 172 3053 
L 172 3500 
L 594 3500 
L 594 4494 
L 1172 4494 
z
" transform="scale(0.015625)"/>
       <path id="DejaVuSans-69" d="M 603 3500 
L 1178 3500 
L 1178 0 
L 603 0 
L 603 3500 
z
M 603 4863 
L 1178 4863 
L 1178 4134 
L 603 4134 
L 603 4863 
z
" transform="scale(0.015625)"/>
       <path id="DejaVuSans-63" d="M 3122 3366 
L 3122 2828 
Q 2878 2963 2633 3030 
Q 2388 3097 2138 3097 
Q 1578 3097 1268 2742 
Q 959 2388 959 1747 
Q 959 1106 1268 751 
Q 1578 397 2138 397 
Q 2388 397 2633 464 
Q 2878 531 3122 666 
L 3122 134 
Q 2881 22 2623 -34 
Q 2366 -91 2075 -91 
Q 1284 -91 818 406 
Q 353 903 353 1747 
Q 353 2603 823 3093 
Q 1294 3584 2113 3584 
Q 2378 3584 2631 3529 
Q 2884 3475 3122 3366 
z
" transform="scale(0.015625)"/>
       <path id="DejaVuSans-6e" d="M 3513 2113 
L 3513 0 
L 2938 0 
L 2938 2094 
Q 2938 2591 2744 2837 
Q 2550 3084 2163 3084 
Q 1697 3084 1428 2787 
Q 1159 2491 1159 1978 
L 1159 0 
L 581 0 
L 581 3500 
L 1159 3500 
L 1159 2956 
Q 1366 3272 1645 3428 
Q 1925 3584 2291 3584 
Q 2894 3584 3203 3211 
Q 3513 2838 3513 2113 
z
" transform="scale(0.015625)"/>
       <path id="DejaVuSans-73" d="M 2834 3397 
L 2834 2853 
Q 2591 2978 2328 3040 
Q 2066 3103 1784 3103 
Q 1356 3103 1142 2972 
Q 928 2841 928 2578 
Q 928 2378 1081 2264 
Q 1234 2150 1697 2047 
L 1894 2003 
Q 2506 1872 2764 1633 
Q 3022 1394 3022 966 
Q 3022 478 2636 193 
Q 2250 -91 1575 -91 
Q 1294 -91 989 -36 
Q 684 19 347 128 
L 347 722 
Q 666 556 975 473 
Q 1284 391 1588 391 
Q 1994 391 2212 530 
Q 2431 669 2431 922 
Q 2431 1156 2273 1281 
Q 2116 1406 1581 1522 
L 1381 1569 
Q 847 1681 609 1914 
Q 372 2147 372 2553 
Q 372 3047 722 3315 
Q 1072 3584 1716 3584 
Q 2034 3584 2315 3537 
Q 2597 3491 2834 3397 
z
" transform="scale(0.015625)"/>
      </defs>
      <use xlink:href="#DejaVuSans-4e"/>
      <use xlink:href="#DejaVuSans-75" x="74.804688"/>
      <use xlink:href="#DejaVuSans-6d" x="138.183594"/>
      <use xlink:href="#DejaVuSans-62" x="235.595703"/>
      <use xlink:href="#DejaVuSans-65" x="299.072266"/>
      <use xlink:href="#DejaVuSans-72" x="360.595703"/>
      <use xlink:href="#DejaVuSans-20" x="401.708984"/>
      <use xlink:href="#DejaVuSans-6f" x="433.496094"/>
      <use xlink:href="#DejaVuSans-66" x="494.677734"/>
      <use xlink:href="#DejaVuSans-20" x="529.882812"/>
      <use xlink:href="#DejaVuSans-70" x="561.669922"/>
      <use xlink:href="#DejaVuSans-61" x="625.146484"/>
      <use xlink:href="#DejaVuSans-72" x="686.425781"/>
      <use xlink:href="#DejaVuSans-74" x="727.539062"/>
      <use xlink:href="#DejaVuSans-69" x="766.748047"/>
      <use xlink:href="#DejaVuSans-63" x="794.53125"/>
      <use xlink:href="#DejaVuSans-69" x="849.511719"/>
      <use xlink:href="#DejaVuSans-70" x="877.294922"/>
      <use xlink:href="#DejaVuSans-61" x="940.771484"/>
      <use xlink:href="#DejaVuSans-6e" x="1002.050781"/>
      <use xlink:href="#DejaVuSans-74" x="1065.429688"/>
      <use xlink:href="#DejaVuSans-73" x="1104.638672"/>
     </g>
    </g>
   </g>
   <g id="matplotlib.axis_2">
    <g id="ytick_1">
     <g id="line2d_6">
      <path d="M 50.836875 382.679219 
L 417.566875 382.679219 
" clip-path="url(#pc842d928ff)" style="fill: none; stroke-dasharray: 2.96,1.28; stroke-dashoffset: 0; stroke: #c0c0c0; stroke-width: 0.8"/>
     </g>
     <g id="line2d_7">
      <defs>
       <path id="m55f1a9e129" d="M 0 0 
L -3.5 0 
" style="stroke: #000000; stroke-width: 0.8"/>
      </defs>
      <g>
       <use xlink:href="#m55f1a9e129" x="50.836875" y="382.679219" style="stroke: #000000; stroke-width: 0.8"/>
      </g>
     </g>
     <g id="text_7">
      <!-- 20 -->
      <g transform="translate(31.111875 386.478437) scale(0.1 -0.1)">
       <use xlink:href="#DejaVuSans-32"/>
       <use xlink:href="#DejaVuSans-30" x="63.623047"/>
      </g>
     </g>
    </g>
    <g id="ytick_2">
     <g id="line2d_8">
      <path d="M 50.836875 336.219219 
L 417.566875 336.219219 
" clip-path="url(#pc842d928ff)" style="fill: none; stroke-dasharray: 2.96,1.28; stroke-dashoffset: 0; stroke: #c0c0c0; stroke-width: 0.8"/>
     </g>
     <g id="line2d_9">
      <g>
       <use xlink:href="#m55f1a9e129" x="50.836875" y="336.219219" style="stroke: #000000; stroke-width: 0.8"/>
      </g>
     </g>
     <g id="text_8">
      <!-- 30 -->
      <g transform="translate(31.111875 340.018437) scale(0.1 -0.1)">
       <defs>
        <path id="DejaVuSans-33" d="M 2597 2516 
Q 3050 2419 3304 2112 
Q 3559 1806 3559 1356 
Q 3559 666 3084 287 
Q 2609 -91 1734 -91 
Q 1441 -91 1130 -33 
Q 819 25 488 141 
L 488 750 
Q 750 597 1062 519 
Q 1375 441 1716 441 
Q 2309 441 2620 675 
Q 2931 909 2931 1356 
Q 2931 1769 2642 2001 
Q 2353 2234 1838 2234 
L 1294 2234 
L 1294 2753 
L 1863 2753 
Q 2328 2753 2575 2939 
Q 2822 3125 2822 3475 
Q 2822 3834 2567 4026 
Q 2313 4219 1838 4219 
Q 1578 4219 1281 4162 
Q 984 4106 628 3988 
L 628 4550 
Q 988 4650 1302 4700 
Q 1616 4750 1894 4750 
Q 2613 4750 3031 4423 
Q 3450 4097 3450 3541 
Q 3450 3153 3228 2886 
Q 3006 2619 2597 2516 
z
" transform="scale(0.015625)"/>
       </defs>
       <use xlink:href="#DejaVuSans-33"/>
       <use xlink:href="#DejaVuSans-30" x="63.623047"/>
      </g>
     </g>
    </g>
    <g id="ytick_3">
     <g id="line2d_10">
      <path d="M 50.836875 289.759219 
L 417.566875 289.759219 
" clip-path="url(#pc842d928ff)" style="fill: none; stroke-dasharray: 2.96,1.28; stroke-dashoffset: 0; stroke: #c0c0c0; stroke-width: 0.8"/>
     </g>
     <g id="line2d_11">
      <g>
       <use xlink:href="#m55f1a9e129" x="50.836875" y="289.759219" style="stroke: #000000; stroke-width: 0.8"/>
      </g>
     </g>
     <g id="text_9">
      <!-- 40 -->
      <g transform="translate(31.111875 293.558437) scale(0.1 -0.1)">
       <use xlink:href="#DejaVuSans-34"/>
       <use xlink:href="#DejaVuSans-30" x="63.623047"/>
      </g>
     </g>
    </g>
    <g id="ytick_4">
     <g id="line2d_12">
      <path d="M 50.836875 243.299219 
L 417.566875 243.299219 
" clip-path="url(#pc842d928ff)" style="fill: none; stroke-dasharray: 2.96,1.28; stroke-dashoffset: 0; stroke: #c0c0c0; stroke-width: 0.8"/>
     </g>
     <g id="line2d_13">
      <g>
       <use xlink:href="#m55f1a9e129" x="50.836875" y="243.299219" style="stroke: #000000; stroke-width: 0.8"/>
      </g>
     </g>
     <g id="text_10">
      <!-- 50 -->
      <g transform="translate(31.111875 247.098437) scale(0.1 -0.1)">
       <defs>
        <path id="DejaVuSans-35" d="M 691 4666 
L 3169 4666 
L 3169 4134 
L 1269 4134 
L 1269 2991 
Q 1406 3038 1543 3061 
Q 1681 3084 1819 3084 
Q 2600 3084 3056 2656 
Q 3513 2228 3513 1497 
Q 3513 744 3044 326 
Q 2575 -91 1722 -91 
Q 1428 -91 1123 -41 
Q 819 9 494 109 
L 494 744 
Q 775 591 1075 516 
Q 1375 441 1709 441 
Q 2250 441 2565 725 
Q 2881 1009 2881 1497 
Q 2881 1984 2565 2268 
Q 2250 2553 1709 2553 
Q 1456 2553 1204 2497 
Q 953 2441 691 2322 
L 691 4666 
z
" transform="scale(0.015625)"/>
       </defs>
       <use xlink:href="#DejaVuSans-35"/>
       <use xlink:href="#DejaVuSans-30" x="63.623047"/>
      </g>
     </g>
    </g>
    <g id="ytick_5">
     <g id="line2d_14">
      <path d="M 50.836875 196.839219 
L 417.566875 196.839219 
" clip-path="url(#pc842d928ff)" style="fill: none; stroke-dasharray: 2.96,1.28; stroke-dashoffset: 0; stroke: #c0c0c0; stroke-width: 0.8"/>
     </g>
     <g id="line2d_15">
      <g>
       <use xlink:href="#m55f1a9e129" x="50.836875" y="196.839219" style="stroke: #000000; stroke-width: 0.8"/>
      </g>
     </g>
     <g id="text_11">
      <!-- 60 -->
      <g transform="translate(31.111875 200.638437) scale(0.1 -0.1)">
       <use xlink:href="#DejaVuSans-36"/>
       <use xlink:href="#DejaVuSans-30" x="63.623047"/>
      </g>
     </g>
    </g>
    <g id="ytick_6">
     <g id="line2d_16">
      <path d="M 50.836875 150.379219 
L 417.566875 150.379219 
" clip-path="url(#pc842d928ff)" style="fill: none; stroke-dasharray: 2.96,1.28; stroke-dashoffset: 0; stroke: #c0c0c0; stroke-width: 0.8"/>
     </g>
     <g id="line2d_17">
      <g>
       <use xlink:href="#m55f1a9e129" x="50.836875" y="150.379219" style="stroke: #000000; stroke-width: 0.8"/>
      </g>
     </g>
     <g id="text_12">
      <!-- 70 -->
      <g transform="translate(31.111875 154.178438) scale(0.1 -0.1)">
       <defs>
        <path id="DejaVuSans-37" d="M 525 4666 
L 3525 4666 
L 3525 4397 
L 1831 0 
L 1172 0 
L 2766 4134 
L 525 4134 
L 525 4666 
z
" transform="scale(0.015625)"/>
       </defs>
       <use xlink:href="#DejaVuSans-37"/>
       <use xlink:href="#DejaVuSans-30" x="63.623047"/>
      </g>
     </g>
    </g>
    <g id="ytick_7">
     <g id="line2d_18">
      <path d="M 50.836875 103.919219 
L 417.566875 103.919219 
" clip-path="url(#pc842d928ff)" style="fill: none; stroke-dasharray: 2.96,1.28; stroke-dashoffset: 0; stroke: #c0c0c0; stroke-width: 0.8"/>
     </g>
     <g id="line2d_19">
      <g>
       <use xlink:href="#m55f1a9e129" x="50.836875" y="103.919219" style="stroke: #000000; stroke-width: 0.8"/>
      </g>
     </g>
     <g id="text_13">
      <!-- 80 -->
      <g transform="translate(31.111875 107.718437) scale(0.1 -0.1)">
       <use xlink:href="#DejaVuSans-38"/>
       <use xlink:href="#DejaVuSans-30" x="63.623047"/>
      </g>
     </g>
    </g>
    <g id="ytick_8">
     <g id="line2d_20">
      <path d="M 50.836875 57.459219 
L 417.566875 57.459219 
" clip-path="url(#pc842d928ff)" style="fill: none; stroke-dasharray: 2.96,1.28; stroke-dashoffset: 0; stroke: #c0c0c0; stroke-width: 0.8"/>
     </g>
     <g id="line2d_21">
      <g>
       <use xlink:href="#m55f1a9e129" x="50.836875" y="57.459219" style="stroke: #000000; stroke-width: 0.8"/>
      </g>
     </g>
     <g id="text_14">
      <!-- 90 -->
      <g transform="translate(31.111875 61.258438) scale(0.1 -0.1)">
       <defs>
        <path id="DejaVuSans-39" d="M 703 97 
L 703 672 
Q 941 559 1184 500 
Q 1428 441 1663 441 
Q 2288 441 2617 861 
Q 2947 1281 2994 2138 
Q 2813 1869 2534 1725 
Q 2256 1581 1919 1581 
Q 1219 1581 811 2004 
Q 403 2428 403 3163 
Q 403 3881 828 4315 
Q 1253 4750 1959 4750 
Q 2769 4750 3195 4129 
Q 3622 3509 3622 2328 
Q 3622 1225 3098 567 
Q 2575 -91 1691 -91 
Q 1453 -91 1209 -44 
Q 966 3 703 97 
z
M 1959 2075 
Q 2384 2075 2632 2365 
Q 2881 2656 2881 3163 
Q 2881 3666 2632 3958 
Q 2384 4250 1959 4250 
Q 1534 4250 1286 3958 
Q 1038 3666 1038 3163 
Q 1038 2656 1286 2365 
Q 1534 2075 1959 2075 
z
" transform="scale(0.015625)"/>
       </defs>
       <use xlink:href="#DejaVuSans-39"/>
       <use xlink:href="#DejaVuSans-30" x="63.623047"/>
      </g>
     </g>
    </g>
    <g id="ytick_9">
     <g id="line2d_22">
      <path d="M 50.836875 10.999219 
L 417.566875 10.999219 
" clip-path="url(#pc842d928ff)" style="fill: none; stroke-dasharray: 2.96,1.28; stroke-dashoffset: 0; stroke: #c0c0c0; stroke-width: 0.8"/>
     </g>
     <g id="line2d_23">
      <g>
       <use xlink:href="#m55f1a9e129" x="50.836875" y="10.999219" style="stroke: #000000; stroke-width: 0.8"/>
      </g>
     </g>
     <g id="text_15">
      <!-- 100 -->
      <g transform="translate(24.749375 14.798438) scale(0.1 -0.1)">
       <defs>
        <path id="DejaVuSans-31" d="M 794 531 
L 1825 531 
L 1825 4091 
L 703 3866 
L 703 4441 
L 1819 4666 
L 2450 4666 
L 2450 531 
L 3481 531 
L 3481 0 
L 794 0 
L 794 531 
z
" transform="scale(0.015625)"/>
       </defs>
       <use xlink:href="#DejaVuSans-31"/>
       <use xlink:href="#DejaVuSans-30" x="63.623047"/>
       <use xlink:href="#DejaVuSans-30" x="127.246094"/>
      </g>
     </g>
    </g>
    <g id="text_16">
     <!-- Success Rate (%) -->
     <g transform="translate(17.837812 257.627656) rotate(-90) scale(0.14 -0.14)">
      <defs>
       <path id="DejaVuSans-53" d="M 3425 4513 
L 3425 3897 
Q 3066 4069 2747 4153 
Q 2428 4238 2131 4238 
Q 1616 4238 1336 4038 
Q 1056 3838 1056 3469 
Q 1056 3159 1242 3001 
Q 1428 2844 1947 2747 
L 2328 2669 
Q 3034 2534 3370 2195 
Q 3706 1856 3706 1288 
Q 3706 609 3251 259 
Q 2797 -91 1919 -91 
Q 1588 -91 1214 -16 
Q 841 59 441 206 
L 441 856 
Q 825 641 1194 531 
Q 1563 422 1919 422 
Q 2459 422 2753 634 
Q 3047 847 3047 1241 
Q 3047 1584 2836 1778 
Q 2625 1972 2144 2069 
L 1759 2144 
Q 1053 2284 737 2584 
Q 422 2884 422 3419 
Q 422 4038 858 4394 
Q 1294 4750 2059 4750 
Q 2388 4750 2728 4690 
Q 3069 4631 3425 4513 
z
" transform="scale(0.015625)"/>
       <path id="DejaVuSans-52" d="M 2841 2188 
Q 3044 2119 3236 1894 
Q 3428 1669 3622 1275 
L 4263 0 
L 3584 0 
L 2988 1197 
Q 2756 1666 2539 1819 
Q 2322 1972 1947 1972 
L 1259 1972 
L 1259 0 
L 628 0 
L 628 4666 
L 2053 4666 
Q 2853 4666 3247 4331 
Q 3641 3997 3641 3322 
Q 3641 2881 3436 2590 
Q 3231 2300 2841 2188 
z
M 1259 4147 
L 1259 2491 
L 2053 2491 
Q 2509 2491 2742 2702 
Q 2975 2913 2975 3322 
Q 2975 3731 2742 3939 
Q 2509 4147 2053 4147 
L 1259 4147 
z
" transform="scale(0.015625)"/>
       <path id="DejaVuSans-28" d="M 1984 4856 
Q 1566 4138 1362 3434 
Q 1159 2731 1159 2009 
Q 1159 1288 1364 580 
Q 1569 -128 1984 -844 
L 1484 -844 
Q 1016 -109 783 600 
Q 550 1309 550 2009 
Q 550 2706 781 3412 
Q 1013 4119 1484 4856 
L 1984 4856 
z
" transform="scale(0.015625)"/>
       <path id="DejaVuSans-25" d="M 4653 2053 
Q 4381 2053 4226 1822 
Q 4072 1591 4072 1178 
Q 4072 772 4226 539 
Q 4381 306 4653 306 
Q 4919 306 5073 539 
Q 5228 772 5228 1178 
Q 5228 1588 5073 1820 
Q 4919 2053 4653 2053 
z
M 4653 2450 
Q 5147 2450 5437 2106 
Q 5728 1763 5728 1178 
Q 5728 594 5436 251 
Q 5144 -91 4653 -91 
Q 4153 -91 3862 251 
Q 3572 594 3572 1178 
Q 3572 1766 3864 2108 
Q 4156 2450 4653 2450 
z
M 1428 4353 
Q 1159 4353 1004 4120 
Q 850 3888 850 3481 
Q 850 3069 1003 2837 
Q 1156 2606 1428 2606 
Q 1700 2606 1854 2837 
Q 2009 3069 2009 3481 
Q 2009 3884 1853 4118 
Q 1697 4353 1428 4353 
z
M 4250 4750 
L 4750 4750 
L 1831 -91 
L 1331 -91 
L 4250 4750 
z
M 1428 4750 
Q 1922 4750 2215 4408 
Q 2509 4066 2509 3481 
Q 2509 2891 2217 2550 
Q 1925 2209 1428 2209 
Q 931 2209 642 2551 
Q 353 2894 353 3481 
Q 353 4063 643 4406 
Q 934 4750 1428 4750 
z
" transform="scale(0.015625)"/>
       <path id="DejaVuSans-29" d="M 513 4856 
L 1013 4856 
Q 1481 4119 1714 3412 
Q 1947 2706 1947 2009 
Q 1947 1309 1714 600 
Q 1481 -109 1013 -844 
L 513 -844 
Q 928 -128 1133 580 
Q 1338 1288 1338 2009 
Q 1338 2731 1133 3434 
Q 928 4138 513 4856 
z
" transform="scale(0.015625)"/>
      </defs>
      <use xlink:href="#DejaVuSans-53"/>
      <use xlink:href="#DejaVuSans-75" x="63.476562"/>
      <use xlink:href="#DejaVuSans-63" x="126.855469"/>
      <use xlink:href="#DejaVuSans-63" x="181.835938"/>
      <use xlink:href="#DejaVuSans-65" x="236.816406"/>
      <use xlink:href="#DejaVuSans-73" x="298.339844"/>
      <use xlink:href="#DejaVuSans-73" x="350.439453"/>
      <use xlink:href="#DejaVuSans-20" x="402.539062"/>
      <use xlink:href="#DejaVuSans-52" x="434.326172"/>
      <use xlink:href="#DejaVuSans-61" x="501.558594"/>
      <use xlink:href="#DejaVuSans-74" x="562.837891"/>
      <use xlink:href="#DejaVuSans-65" x="602.046875"/>
      <use xlink:href="#DejaVuSans-20" x="663.570312"/>
      <use xlink:href="#DejaVuSans-28" x="695.357422"/>
      <use xlink:href="#DejaVuSans-25" x="734.371094"/>
      <use xlink:href="#DejaVuSans-29" x="829.390625"/>
     </g>
    </g>
   </g>
   <g id="PolyCollection_1">
    <defs>
     <path id="m8de16953c0" d="M 50.836875 -124.1263 
L 50.836875 -124.1263 
L 54.823071 -135.577173 
L 58.809266 -144.842485 
L 62.795462 -152.31261 
L 66.781658 -158.328446 
L 70.767853 -157.382549 
L 74.754049 -151.680298 
L 78.740245 -150.419585 
L 82.72644 -151.115486 
L 86.712636 -152.454021 
L 90.698832 -154.473341 
L 94.685027 -155.018305 
L 98.671223 -157.65151 
L 102.657418 -161.271105 
L 106.643614 -161.684938 
L 110.62981 -161.208221 
L 114.616005 -160.984449 
L 118.602201 -162.597515 
L 122.588397 -164.079744 
L 126.574592 -166.734988 
L 130.560788 -168.357049 
L 134.546984 -165.808119 
L 138.533179 -162.546147 
L 142.519375 -162.530822 
L 146.505571 -164.535988 
L 150.491766 -167.568012 
L 154.477962 -169.942455 
L 158.464158 -170.307695 
L 162.450353 -168.95897 
L 166.436549 -168.213733 
L 170.422745 -169.943644 
L 174.40894 -172.858283 
L 178.395136 -174.989578 
L 182.381332 -176.80331 
L 186.367527 -177.921689 
L 190.353723 -177.466759 
L 194.339918 -176.740619 
L 198.326114 -176.164563 
L 202.31231 -175.469713 
L 206.298505 -175.377212 
L 210.284701 -176.165626 
L 214.270897 -177.536088 
L 218.257092 -178.668511 
L 222.243288 -178.820894 
L 226.229484 -178.19169 
L 230.215679 -177.07787 
L 234.201875 -176.263371 
L 238.188071 -176.501621 
L 242.174266 -177.375488 
L 246.160462 -178.066206 
L 250.146658 -178.380206 
L 254.132853 -178.554394 
L 258.119049 -178.408517 
L 262.105245 -176.982954 
L 266.09144 -175.355798 
L 270.077636 -174.664289 
L 274.063832 -174.538775 
L 278.050027 -174.529388 
L 282.036223 -174.529122 
L 286.022418 -174.529122 
L 290.008614 -174.529122 
L 293.99481 -174.529122 
L 297.981005 -174.529122 
L 301.967201 -174.529122 
L 305.953397 -174.529122 
L 309.939592 -174.529122 
L 313.925788 -174.529122 
L 317.911984 -174.529122 
L 321.898179 -174.529122 
L 325.884375 -174.529122 
L 329.870571 -174.529122 
L 333.856766 -174.529122 
L 337.842962 -174.529122 
L 341.829158 -174.529122 
L 345.815353 -174.529122 
L 349.801549 -174.529122 
L 353.787745 -174.529122 
L 357.77394 -174.529122 
L 361.760136 -174.529122 
L 365.746332 -174.529122 
L 369.732527 -174.529122 
L 373.718723 -174.529122 
L 377.704918 -174.529122 
L 381.691114 -174.529122 
L 385.67731 -174.529122 
L 389.663505 -174.529122 
L 393.649701 -174.529122 
L 397.635897 -174.529122 
L 401.622092 -174.529122 
L 405.608288 -174.529122 
L 409.594484 -174.529122 
L 413.580679 -174.529122 
L 417.566875 -174.529122 
L 421.553071 -174.529122 
L 421.553071 -174.529122 
L 421.553071 -174.529122 
L 417.566875 -174.529122 
L 413.580679 -174.529122 
L 409.594484 -174.529122 
L 405.608288 -174.529122 
L 401.622092 -174.529122 
L 397.635897 -174.529122 
L 393.649701 -174.529122 
L 389.663505 -174.529122 
L 385.67731 -174.529122 
L 381.691114 -174.529122 
L 377.704918 -174.529122 
L 373.718723 -174.529122 
L 369.732527 -174.529122 
L 365.746332 -174.529122 
L 361.760136 -174.529122 
L 357.77394 -174.529122 
L 353.787745 -174.529122 
L 349.801549 -174.529122 
L 345.815353 -174.529122 
L 341.829158 -174.529122 
L 337.842962 -174.529122 
L 333.856766 -174.529122 
L 329.870571 -174.529122 
L 325.884375 -174.529122 
L 321.898179 -174.529122 
L 317.911984 -174.529122 
L 313.925788 -174.529122 
L 309.939592 -174.529122 
L 305.953397 -174.529122 
L 301.967201 -174.529122 
L 297.981005 -174.529122 
L 293.99481 -174.529122 
L 290.008614 -174.529122 
L 286.022418 -174.529122 
L 282.036223 -174.529122 
L 278.050027 -174.528879 
L 274.063832 -174.521144 
L 270.077636 -174.432655 
L 266.09144 -174.098328 
L 262.105245 -173.720688 
L 258.119049 -173.284487 
L 254.132853 -172.063172 
L 250.146658 -170.397962 
L 246.160462 -168.798947 
L 242.174266 -167.641906 
L 238.188071 -166.720371 
L 234.201875 -166.43629 
L 230.215679 -167.10945 
L 226.229484 -167.577567 
L 222.243288 -167.321508 
L 218.257092 -167.022284 
L 214.270897 -166.228305 
L 210.284701 -164.771716 
L 206.298505 -163.492263 
L 202.31231 -163.247359 
L 198.326114 -163.587386 
L 194.339918 -164.025713 
L 190.353723 -164.732962 
L 186.367527 -164.427623 
L 182.381332 -162.618527 
L 178.395136 -161.13005 
L 174.40894 -159.43761 
L 170.422745 -156.847184 
L 166.436549 -154.998851 
L 162.450353 -154.865404 
L 158.464158 -156.067206 
L 154.477962 -156.341483 
L 150.491766 -153.399153 
L 146.505571 -148.762892 
L 142.519375 -146.063894 
L 138.533179 -146.391944 
L 134.546984 -150.643959 
L 130.560788 -153.857328 
L 126.574592 -151.199152 
L 122.588397 -147.497587 
L 118.602201 -145.671683 
L 114.616005 -143.666855 
L 110.62981 -144.113324 
L 106.643614 -145.096455 
L 102.657418 -143.714457 
L 98.671223 -139.065849 
L 94.685027 -135.60402 
L 90.698832 -134.182633 
L 86.712636 -135.372642 
L 82.72644 -135.935538 
L 78.740245 -132.501154 
L 74.754049 -129.695593 
L 70.767853 -131.447196 
L 66.781658 -129.491177 
L 62.795462 -124.016311 
L 58.809266 -120.246133 
L 54.823071 -120.759811 
L 50.836875 -124.1263 
z
" style="stroke: #8e0052; stroke-opacity: 0.1"/>
    </defs>
    <g clip-path="url(#pc842d928ff)">
     <use xlink:href="#m8de16953c0" x="0" y="424.106719" style="fill: #8e0052; fill-opacity: 0.1; stroke: #8e0052; stroke-opacity: 0.1"/>
    </g>
   </g>
   <g id="PolyCollection_2">
    <defs>
     <path id="m0e4161e772" d="M 50.836875 -174.3031 
L 50.836875 -174.3031 
L 54.823071 -174.660869 
L 58.809266 -173.418221 
L 62.795462 -174.891179 
L 66.781658 -188.395391 
L 70.767853 -206.108733 
L 74.754049 -213.197238 
L 78.740245 -214.408562 
L 82.72644 -215.327345 
L 86.712636 -215.198662 
L 90.698832 -214.753438 
L 94.685027 -216.298637 
L 98.671223 -219.794507 
L 102.657418 -223.483755 
L 106.643614 -223.817442 
L 110.62981 -222.910239 
L 114.616005 -222.188253 
L 118.602201 -222.172342 
L 122.588397 -223.96995 
L 126.574592 -224.445051 
L 130.560788 -222.848404 
L 134.546984 -222.484148 
L 138.533179 -223.698704 
L 142.519375 -224.607461 
L 146.505571 -224.830909 
L 150.491766 -224.932287 
L 154.477962 -224.840953 
L 158.464158 -224.66316 
L 162.450353 -224.453675 
L 166.436549 -224.116787 
L 170.422745 -224.21129 
L 174.40894 -224.69524 
L 178.395136 -224.828973 
L 182.381332 -224.571584 
L 186.367527 -224.105746 
L 190.353723 -224.309639 
L 194.339918 -225.378014 
L 198.326114 -225.859783 
L 202.31231 -225.345614 
L 206.298505 -224.878505 
L 210.284701 -224.76589 
L 214.270897 -224.756437 
L 218.257092 -224.756149 
L 222.243288 -224.756149 
L 226.229484 -224.756149 
L 230.215679 -224.756149 
L 234.201875 -224.756149 
L 238.188071 -224.756149 
L 242.174266 -224.756149 
L 246.160462 -224.756149 
L 250.146658 -224.756149 
L 254.132853 -224.756149 
L 258.119049 -224.756149 
L 262.105245 -224.756149 
L 266.09144 -224.756149 
L 270.077636 -224.756149 
L 274.063832 -224.756149 
L 278.050027 -224.756149 
L 282.036223 -224.756149 
L 286.022418 -224.756149 
L 290.008614 -224.756149 
L 293.99481 -224.756149 
L 297.981005 -224.756149 
L 301.967201 -224.756149 
L 305.953397 -224.756149 
L 309.939592 -224.756149 
L 313.925788 -224.756149 
L 317.911984 -224.756149 
L 321.898179 -224.756149 
L 325.884375 -224.756149 
L 329.870571 -224.756149 
L 333.856766 -224.756149 
L 337.842962 -224.756149 
L 341.829158 -224.756149 
L 345.815353 -224.756149 
L 349.801549 -224.756149 
L 353.787745 -224.756149 
L 357.77394 -224.756149 
L 361.760136 -224.756149 
L 365.746332 -224.756149 
L 369.732527 -224.756149 
L 373.718723 -224.756149 
L 377.704918 -224.756149 
L 381.691114 -224.756149 
L 385.67731 -224.756149 
L 389.663505 -224.756149 
L 393.649701 -224.756149 
L 397.635897 -224.756149 
L 401.622092 -224.756149 
L 405.608288 -224.756149 
L 409.594484 -224.756149 
L 413.580679 -224.756149 
L 417.566875 -224.756149 
L 421.553071 -224.756149 
L 421.553071 -224.756149 
L 421.553071 -224.756149 
L 417.566875 -224.756149 
L 413.580679 -224.756149 
L 409.594484 -224.756149 
L 405.608288 -224.756149 
L 401.622092 -224.756149 
L 397.635897 -224.756149 
L 393.649701 -224.756149 
L 389.663505 -224.756149 
L 385.67731 -224.756149 
L 381.691114 -224.756149 
L 377.704918 -224.756149 
L 373.718723 -224.756149 
L 369.732527 -224.756149 
L 365.746332 -224.756149 
L 361.760136 -224.756149 
L 357.77394 -224.756149 
L 353.787745 -224.756149 
L 349.801549 -224.756149 
L 345.815353 -224.756149 
L 341.829158 -224.756149 
L 337.842962 -224.756149 
L 333.856766 -224.756149 
L 329.870571 -224.756149 
L 325.884375 -224.756149 
L 321.898179 -224.756149 
L 317.911984 -224.756149 
L 313.925788 -224.756149 
L 309.939592 -224.756149 
L 305.953397 -224.756149 
L 301.967201 -224.756149 
L 297.981005 -224.756149 
L 293.99481 -224.756149 
L 290.008614 -224.756149 
L 286.022418 -224.756149 
L 282.036223 -224.756149 
L 278.050027 -224.756149 
L 274.063832 -224.756149 
L 270.077636 -224.756149 
L 266.09144 -224.756149 
L 262.105245 -224.756149 
L 258.119049 -224.756149 
L 254.132853 -224.756149 
L 250.146658 -224.756149 
L 246.160462 -224.756149 
L 242.174266 -224.756149 
L 238.188071 -224.756149 
L 234.201875 -224.756149 
L 230.215679 -224.756149 
L 226.229484 -224.756149 
L 222.243288 -224.756149 
L 218.257092 -224.756149 
L 214.270897 -224.756132 
L 210.284701 -224.755426 
L 206.298505 -224.74308 
L 202.31231 -224.63086 
L 198.326114 -224.043045 
L 194.339918 -222.400178 
L 190.353723 -220.405642 
L 186.367527 -219.641418 
L 182.381332 -219.612143 
L 178.395136 -219.469298 
L 174.40894 -219.145918 
L 170.422745 -218.791719 
L 166.436549 -218.773927 
L 162.450353 -218.929471 
L 158.464158 -218.886732 
L 154.477962 -218.977893 
L 150.491766 -219.085236 
L 146.505571 -218.795441 
L 142.519375 -217.973316 
L 138.533179 -216.173301 
L 134.546984 -214.162976 
L 130.560788 -213.897084 
L 126.574592 -214.906852 
L 122.588397 -214.613554 
L 118.602201 -213.343882 
L 114.616005 -213.47423 
L 110.62981 -214.429767 
L 106.643614 -215.775722 
L 102.657418 -215.391538 
L 98.671223 -211.154035 
L 94.685027 -207.084806 
L 90.698832 -204.630922 
L 86.712636 -202.921139 
L 82.72644 -202.07626 
L 78.740245 -202.166617 
L 74.754049 -200.727677 
L 70.767853 -193.579883 
L 66.781658 -174.111 
L 62.795462 -152.34706 
L 58.809266 -146.517606 
L 54.823071 -157.021542 
L 50.836875 -174.3031 
z
" style="stroke: #276319; stroke-opacity: 0.1"/>
    </defs>
    <g clip-path="url(#pc842d928ff)">
     <use xlink:href="#m0e4161e772" x="0" y="424.106719" style="fill: #276319; fill-opacity: 0.1; stroke: #276319; stroke-opacity: 0.1"/>
    </g>
   </g>
   <g id="PolyCollection_3">
    <defs>
     <path id="m6ab399f8b4" d="M 50.836875 -149.2147 
L 50.836875 -149.2147 
L 54.823071 -149.351093 
L 58.809266 -149.865661 
L 62.795462 -153.881581 
L 66.781658 -165.112264 
L 70.767853 -176.090487 
L 74.754049 -179.448524 
L 78.740245 -184.226872 
L 82.72644 -191.33971 
L 86.712636 -197.392122 
L 90.698832 -202.705092 
L 94.685027 -203.839393 
L 98.671223 -201.49396 
L 102.657418 -202.444033 
L 106.643614 -204.064018 
L 110.62981 -205.390439 
L 114.616005 -208.0969 
L 118.602201 -209.279782 
L 122.588397 -209.84449 
L 126.574592 -212.284043 
L 130.560788 -214.699646 
L 134.546984 -216.351822 
L 138.533179 -216.526182 
L 142.519375 -215.778381 
L 146.505571 -216.019927 
L 150.491766 -217.784398 
L 154.477962 -219.590387 
L 158.464158 -219.625238 
L 162.450353 -217.874847 
L 166.436549 -216.709312 
L 170.422745 -217.337886 
L 174.40894 -218.72094 
L 178.395136 -220.384229 
L 182.381332 -222.137687 
L 186.367527 -223.489135 
L 190.353723 -223.468672 
L 194.339918 -223.026848 
L 198.326114 -223.100569 
L 202.31231 -223.526367 
L 206.298505 -223.592758 
L 210.284701 -223.006686 
L 214.270897 -223.49722 
L 218.257092 -224.892798 
L 222.243288 -225.513323 
L 226.229484 -225.537492 
L 230.215679 -225.152439 
L 234.201875 -224.8322 
L 238.188071 -224.598498 
L 242.174266 -224.649176 
L 246.160462 -225.26215 
L 250.146658 -225.772158 
L 254.132853 -225.716279 
L 258.119049 -226.232965 
L 262.105245 -227.257442 
L 266.09144 -227.621014 
L 270.077636 -227.270006 
L 274.063832 -226.976973 
L 278.050027 -226.65478 
L 282.036223 -226.23409 
L 286.022418 -225.643627 
L 290.008614 -225.590133 
L 293.99481 -226.216834 
L 297.981005 -226.994952 
L 301.967201 -227.724362 
L 305.953397 -228.426058 
L 309.939592 -228.853091 
L 313.925788 -229.060836 
L 317.911984 -229.160938 
L 321.898179 -228.987057 
L 325.884375 -228.586779 
L 329.870571 -228.18664 
L 333.856766 -228.118966 
L 337.842962 -228.461185 
L 341.829158 -228.624674 
L 345.815353 -228.468754 
L 349.801549 -228.50628 
L 353.787745 -228.896071 
L 357.77394 -229.231679 
L 361.760136 -229.131591 
L 365.746332 -228.602232 
L 369.732527 -228.127653 
L 373.718723 -228.075786 
L 377.704918 -228.419964 
L 381.691114 -228.361053 
L 385.67731 -227.819034 
L 389.663505 -227.409778 
L 393.649701 -227.31495 
L 397.635897 -227.165255 
L 401.622092 -226.612963 
L 405.608288 -225.739611 
L 409.594484 -225.062975 
L 413.580679 -224.80515 
L 417.566875 -224.759624 
L 421.553071 -224.756244 
L 421.553071 -224.756099 
L 421.553071 -224.756099 
L 417.566875 -224.754517 
L 413.580679 -224.736898 
L 409.594484 -224.678451 
L 405.608288 -224.679528 
L 401.622092 -224.855232 
L 397.635897 -224.973197 
L 393.649701 -224.89476 
L 389.663505 -224.896842 
L 385.67731 -225.180422 
L 381.691114 -225.473775 
L 377.704918 -225.332752 
L 373.718723 -224.860207 
L 369.732527 -224.758854 
L 365.746332 -225.119338 
L 361.760136 -225.498632 
L 357.77394 -225.446965 
L 353.787745 -225.044426 
L 349.801549 -224.548139 
L 345.815353 -224.193212 
L 341.829158 -223.879761 
L 337.842962 -223.28841 
L 333.856766 -222.934852 
L 329.870571 -223.408762 
L 325.884375 -223.903662 
L 321.898179 -224.202384 
L 317.911984 -224.40574 
L 313.925788 -224.241411 
L 309.939592 -223.747777 
L 305.953397 -222.775836 
L 301.967201 -221.865487 
L 297.981005 -221.310494 
L 293.99481 -220.398803 
L 290.008614 -219.552904 
L 286.022418 -219.74149 
L 282.036223 -220.409791 
L 278.050027 -220.646663 
L 274.063832 -220.823622 
L 270.077636 -221.218177 
L 266.09144 -221.471059 
L 262.105245 -220.872761 
L 258.119049 -219.724653 
L 254.132853 -218.987656 
L 250.146658 -218.947579 
L 246.160462 -218.657822 
L 242.174266 -218.067523 
L 238.188071 -217.475646 
L 234.201875 -217.089313 
L 230.215679 -216.85287 
L 226.229484 -216.372879 
L 222.243288 -215.763998 
L 218.257092 -215.784047 
L 214.270897 -215.343364 
L 210.284701 -214.898147 
L 206.298505 -215.358344 
L 202.31231 -215.022808 
L 198.326114 -214.107842 
L 194.339918 -213.644432 
L 190.353723 -213.855483 
L 186.367527 -213.702662 
L 182.381332 -212.217065 
L 178.395136 -210.084884 
L 174.40894 -207.886127 
L 170.422745 -205.855093 
L 166.436549 -204.658285 
L 162.450353 -205.449996 
L 158.464158 -207.161446 
L 154.477962 -207.9431 
L 150.491766 -207.090578 
L 146.505571 -205.345117 
L 142.519375 -204.089394 
L 138.533179 -203.886497 
L 134.546984 -203.320922 
L 130.560788 -201.402344 
L 126.574592 -199.026623 
L 122.588397 -197.034113 
L 118.602201 -196.338473 
L 114.616005 -194.451264 
L 110.62981 -192.049156 
L 106.643614 -190.204058 
L 102.657418 -186.531123 
L 98.671223 -184.858147 
L 94.685027 -187.007774 
L 90.698832 -185.819521 
L 86.712636 -181.627721 
L 82.72644 -177.553026 
L 78.740245 -170.007168 
L 74.754049 -163.478002 
L 70.767853 -161.240708 
L 66.781658 -154.306451 
L 62.795462 -143.806935 
L 58.809266 -139.714443 
L 54.823071 -142.993858 
L 50.836875 -149.2147 
z
" style="stroke: #6f9fc7; stroke-opacity: 0.1"/>
    </defs>
    <g clip-path="url(#pc842d928ff)">
     <use xlink:href="#m6ab399f8b4" x="0" y="424.106719" style="fill: #6f9fc7; fill-opacity: 0.1; stroke: #6f9fc7; stroke-opacity: 0.1"/>
    </g>
   </g>
   <g id="line2d_24">
    <path d="M 50.836875 299.980419 
L 54.823071 293.468667 
L 58.809266 287.463018 
L 62.795462 281.226209 
L 66.781658 275.390696 
L 70.767853 275.369287 
L 74.754049 279.754656 
L 78.740245 279.659944 
L 82.72644 278.051215 
L 86.712636 277.346491 
L 90.698832 276.396948 
L 94.685027 275.559842 
L 98.671223 272.650429 
L 102.657418 268.68783 
L 106.643614 267.951276 
L 110.62981 268.596797 
L 114.616005 268.894801 
L 118.602201 267.151148 
L 122.588397 265.55436 
L 126.574592 262.550343 
L 130.560788 260.58291 
L 134.546984 263.35332 
L 138.533179 266.945306 
L 142.519375 267.064873 
L 146.505571 264.828429 
L 150.491766 261.26166 
L 154.477962 258.697921 
L 158.464158 258.545854 
L 162.450353 259.845604 
L 166.436549 260.297946 
L 170.422745 258.528562 
L 174.40894 255.721994 
L 178.395136 253.736984 
L 182.381332 252.031669 
L 186.367527 250.683052 
L 190.353723 250.884559 
L 194.339918 251.604402 
L 198.326114 252.134548 
L 202.31231 252.711124 
L 206.298505 252.691157 
L 210.284701 251.739062 
L 214.270897 250.339892 
L 218.257092 249.320284 
L 222.243288 249.118954 
L 226.229484 249.45307 
L 230.215679 250.351655 
L 234.201875 251.119041 
L 238.188071 250.865514 
L 242.174266 249.975758 
L 246.160462 249.129599 
L 250.146658 248.387261 
L 254.132853 247.716065 
L 258.119049 247.406212 
L 262.105245 248.211187 
L 266.09144 249.170078 
L 270.077636 249.519641 
L 274.063832 249.573821 
L 278.050027 249.5775 
L 282.036223 249.577597 
L 286.022418 249.577597 
L 290.008614 249.577597 
L 293.99481 249.577597 
L 297.981005 249.577597 
L 301.967201 249.577597 
L 305.953397 249.577597 
L 309.939592 249.577597 
L 313.925788 249.577597 
L 317.911984 249.577597 
L 321.898179 249.577597 
L 325.884375 249.577597 
L 329.870571 249.577597 
L 333.856766 249.577597 
L 337.842962 249.577597 
L 341.829158 249.577597 
L 345.815353 249.577597 
L 349.801549 249.577597 
L 353.787745 249.577597 
L 357.77394 249.577597 
L 361.760136 249.577597 
L 365.746332 249.577597 
L 369.732527 249.577597 
L 373.718723 249.577597 
L 377.704918 249.577597 
L 381.691114 249.577597 
L 385.67731 249.577597 
L 389.663505 249.577597 
L 393.649701 249.577597 
L 397.635897 249.577597 
L 401.622092 249.577597 
L 405.608288 249.577597 
L 409.594484 249.577597 
L 413.580679 249.577597 
L 417.566875 249.577597 
L 421.553071 249.577597 
" clip-path="url(#pc842d928ff)" style="fill: none; stroke: #8e0052; stroke-width: 2; stroke-linecap: square"/>
   </g>
   <g id="line2d_25">
    <path d="M 50.836875 299.980419 
L 54.823071 288.529546 
L 58.809266 279.264233 
L 62.795462 271.794109 
L 66.781658 265.778273 
L 70.767853 266.72417 
L 74.754049 272.42642 
L 78.740245 273.687133 
L 82.72644 272.991233 
L 86.712636 271.652698 
L 90.698832 269.633378 
L 94.685027 269.088414 
L 98.671223 266.455209 
L 102.657418 262.835613 
L 106.643614 262.421781 
L 110.62981 262.898497 
L 114.616005 263.12227 
L 118.602201 261.509204 
L 122.588397 260.026975 
L 126.574592 257.371731 
L 130.560788 255.74967 
L 134.546984 258.2986 
L 138.533179 261.560571 
L 142.519375 261.575896 
L 146.505571 259.57073 
L 150.491766 256.538706 
L 154.477962 254.164264 
L 158.464158 253.799024 
L 162.450353 255.147749 
L 166.436549 255.892986 
L 170.422745 254.163075 
L 174.40894 251.248436 
L 178.395136 249.117141 
L 182.381332 247.303408 
L 186.367527 246.18503 
L 190.353723 246.63996 
L 194.339918 247.3661 
L 198.326114 247.942156 
L 202.31231 248.637005 
L 206.298505 248.729507 
L 210.284701 247.941092 
L 214.270897 246.570631 
L 218.257092 245.438208 
L 222.243288 245.285825 
L 226.229484 245.915029 
L 230.215679 247.028848 
L 234.201875 247.843347 
L 238.188071 247.605098 
L 242.174266 246.731231 
L 246.160462 246.040512 
L 250.146658 245.726512 
L 254.132853 245.552324 
L 258.119049 245.698202 
L 262.105245 247.123765 
L 266.09144 248.750921 
L 270.077636 249.442429 
L 274.063832 249.567944 
L 278.050027 249.57733 
L 282.036223 249.577597 
L 286.022418 249.577597 
L 290.008614 249.577597 
L 293.99481 249.577597 
L 297.981005 249.577597 
L 301.967201 249.577597 
L 305.953397 249.577597 
L 309.939592 249.577597 
L 313.925788 249.577597 
L 317.911984 249.577597 
L 321.898179 249.577597 
L 325.884375 249.577597 
L 329.870571 249.577597 
L 333.856766 249.577597 
L 337.842962 249.577597 
L 341.829158 249.577597 
L 345.815353 249.577597 
L 349.801549 249.577597 
L 353.787745 249.577597 
L 357.77394 249.577597 
L 361.760136 249.577597 
L 365.746332 249.577597 
L 369.732527 249.577597 
L 373.718723 249.577597 
L 377.704918 249.577597 
L 381.691114 249.577597 
L 385.67731 249.577597 
L 389.663505 249.577597 
L 393.649701 249.577597 
L 397.635897 249.577597 
L 401.622092 249.577597 
L 405.608288 249.577597 
L 409.594484 249.577597 
L 413.580679 249.577597 
L 417.566875 249.577597 
L 421.553071 249.577597 
" clip-path="url(#pc842d928ff)" style="fill: none; stroke-dasharray: 3.7,1.6; stroke-dashoffset: 0; stroke: #8e0052"/>
   </g>
   <g id="line2d_26">
    <path d="M 50.836875 299.980419 
L 54.823071 303.346908 
L 58.809266 303.860586 
L 62.795462 300.090408 
L 66.781658 294.615541 
L 70.767853 292.659522 
L 74.754049 294.411126 
L 78.740245 291.605565 
L 82.72644 288.171181 
L 86.712636 288.734076 
L 90.698832 289.924086 
L 94.685027 288.502698 
L 98.671223 285.04087 
L 102.657418 280.392262 
L 106.643614 279.010264 
L 110.62981 279.993395 
L 114.616005 280.439864 
L 118.602201 278.435036 
L 122.588397 276.609132 
L 126.574592 272.907567 
L 130.560788 270.249391 
L 134.546984 273.46276 
L 138.533179 277.714775 
L 142.519375 278.042825 
L 146.505571 275.343827 
L 150.491766 270.707566 
L 154.477962 267.765236 
L 158.464158 268.039513 
L 162.450353 269.241314 
L 166.436549 269.107867 
L 170.422745 267.259535 
L 174.40894 264.669109 
L 178.395136 262.976669 
L 182.381332 261.488191 
L 186.367527 259.679096 
L 190.353723 259.373757 
L 194.339918 260.081006 
L 198.326114 260.519333 
L 202.31231 260.85936 
L 206.298505 260.614456 
L 210.284701 259.335003 
L 214.270897 257.878413 
L 218.257092 257.084435 
L 222.243288 256.785211 
L 226.229484 256.529152 
L 230.215679 256.997269 
L 234.201875 257.670429 
L 238.188071 257.386347 
L 242.174266 256.464813 
L 246.160462 255.307772 
L 250.146658 253.708757 
L 254.132853 252.043547 
L 258.119049 250.822232 
L 262.105245 250.386031 
L 266.09144 250.008391 
L 270.077636 249.674064 
L 274.063832 249.585575 
L 278.050027 249.57784 
L 282.036223 249.577597 
L 286.022418 249.577597 
L 290.008614 249.577597 
L 293.99481 249.577597 
L 297.981005 249.577597 
L 301.967201 249.577597 
L 305.953397 249.577597 
L 309.939592 249.577597 
L 313.925788 249.577597 
L 317.911984 249.577597 
L 321.898179 249.577597 
L 325.884375 249.577597 
L 329.870571 249.577597 
L 333.856766 249.577597 
L 337.842962 249.577597 
L 341.829158 249.577597 
L 345.815353 249.577597 
L 349.801549 249.577597 
L 353.787745 249.577597 
L 357.77394 249.577597 
L 361.760136 249.577597 
L 365.746332 249.577597 
L 369.732527 249.577597 
L 373.718723 249.577597 
L 377.704918 249.577597 
L 381.691114 249.577597 
L 385.67731 249.577597 
L 389.663505 249.577597 
L 393.649701 249.577597 
L 397.635897 249.577597 
L 401.622092 249.577597 
L 405.608288 249.577597 
L 409.594484 249.577597 
L 413.580679 249.577597 
L 417.566875 249.577597 
L 421.553071 249.577597 
" clip-path="url(#pc842d928ff)" style="fill: none; stroke-dasharray: 3.7,1.6; stroke-dashoffset: 0; stroke: #8e0052"/>
   </g>
   <g id="line2d_27">
    <path d="M 50.836875 249.803619 
L 54.823071 255.325626 
L 58.809266 259.655369 
L 62.795462 256.730246 
L 66.781658 240.472792 
L 70.767853 222.174269 
L 74.754049 215.066001 
L 78.740245 213.778805 
L 82.72644 213.196402 
L 86.712636 213.000564 
L 90.698832 212.727453 
L 94.685027 210.879359 
L 98.671223 207.192369 
L 102.657418 203.32037 
L 106.643614 202.96985 
L 110.62981 204.023304 
L 114.616005 204.82314 
L 118.602201 204.877197 
L 122.588397 203.255568 
L 126.574592 202.841068 
L 130.560788 204.242088 
L 134.546984 204.396295 
L 138.533179 202.916482 
L 142.519375 201.71064 
L 146.505571 201.287633 
L 150.491766 201.123448 
L 154.477962 201.220119 
L 158.464158 201.369035 
L 162.450353 201.494445 
L 166.436549 201.770885 
L 170.422745 201.701952 
L 174.40894 201.261253 
L 178.395136 201.064304 
L 182.381332 201.188282 
L 186.367527 201.489082 
L 190.353723 201.098412 
L 194.339918 199.721317 
L 198.326114 198.852515 
L 202.31231 198.999356 
L 206.298505 199.273355 
L 210.284701 199.344317 
L 214.270897 199.350383 
L 218.257092 199.35057 
L 222.243288 199.35057 
L 226.229484 199.35057 
L 230.215679 199.35057 
L 234.201875 199.35057 
L 238.188071 199.35057 
L 242.174266 199.35057 
L 246.160462 199.35057 
L 250.146658 199.35057 
L 254.132853 199.35057 
L 258.119049 199.35057 
L 262.105245 199.35057 
L 266.09144 199.35057 
L 270.077636 199.35057 
L 274.063832 199.35057 
L 278.050027 199.35057 
L 282.036223 199.35057 
L 286.022418 199.35057 
L 290.008614 199.35057 
L 293.99481 199.35057 
L 297.981005 199.35057 
L 301.967201 199.35057 
L 305.953397 199.35057 
L 309.939592 199.35057 
L 313.925788 199.35057 
L 317.911984 199.35057 
L 321.898179 199.35057 
L 325.884375 199.35057 
L 329.870571 199.35057 
L 333.856766 199.35057 
L 337.842962 199.35057 
L 341.829158 199.35057 
L 345.815353 199.35057 
L 349.801549 199.35057 
L 353.787745 199.35057 
L 357.77394 199.35057 
L 361.760136 199.35057 
L 365.746332 199.35057 
L 369.732527 199.35057 
L 373.718723 199.35057 
L 377.704918 199.35057 
L 381.691114 199.35057 
L 385.67731 199.35057 
L 389.663505 199.35057 
L 393.649701 199.35057 
L 397.635897 199.35057 
L 401.622092 199.35057 
L 405.608288 199.35057 
L 409.594484 199.35057 
L 413.580679 199.35057 
L 417.566875 199.35057 
L 421.553071 199.35057 
" clip-path="url(#pc842d928ff)" style="fill: none; stroke: #276319; stroke-width: 2; stroke-linecap: square"/>
   </g>
   <g id="line2d_28">
    <path d="M 50.836875 249.803619 
L 54.823071 249.44585 
L 58.809266 250.688497 
L 62.795462 249.21554 
L 66.781658 235.711328 
L 70.767853 217.997986 
L 74.754049 210.909481 
L 78.740245 209.698156 
L 82.72644 208.779373 
L 86.712636 208.908057 
L 90.698832 209.353281 
L 94.685027 207.808082 
L 98.671223 204.312212 
L 102.657418 200.622964 
L 106.643614 200.289277 
L 110.62981 201.19648 
L 114.616005 201.918466 
L 118.602201 201.934377 
L 122.588397 200.136769 
L 126.574592 199.661668 
L 130.560788 201.258315 
L 134.546984 201.622571 
L 138.533179 200.408014 
L 142.519375 199.499258 
L 146.505571 199.27581 
L 150.491766 199.174431 
L 154.477962 199.265766 
L 158.464158 199.443558 
L 162.450353 199.653044 
L 166.436549 199.989931 
L 170.422745 199.895429 
L 174.40894 199.411479 
L 178.395136 199.277746 
L 182.381332 199.535135 
L 186.367527 200.000972 
L 190.353723 199.797079 
L 194.339918 198.728705 
L 198.326114 198.246936 
L 202.31231 198.761104 
L 206.298505 199.228213 
L 210.284701 199.340829 
L 214.270897 199.350282 
L 218.257092 199.35057 
L 222.243288 199.35057 
L 226.229484 199.35057 
L 230.215679 199.35057 
L 234.201875 199.35057 
L 238.188071 199.35057 
L 242.174266 199.35057 
L 246.160462 199.35057 
L 250.146658 199.35057 
L 254.132853 199.35057 
L 258.119049 199.35057 
L 262.105245 199.35057 
L 266.09144 199.35057 
L 270.077636 199.35057 
L 274.063832 199.35057 
L 278.050027 199.35057 
L 282.036223 199.35057 
L 286.022418 199.35057 
L 290.008614 199.35057 
L 293.99481 199.35057 
L 297.981005 199.35057 
L 301.967201 199.35057 
L 305.953397 199.35057 
L 309.939592 199.35057 
L 313.925788 199.35057 
L 317.911984 199.35057 
L 321.898179 199.35057 
L 325.884375 199.35057 
L 329.870571 199.35057 
L 333.856766 199.35057 
L 337.842962 199.35057 
L 341.829158 199.35057 
L 345.815353 199.35057 
L 349.801549 199.35057 
L 353.787745 199.35057 
L 357.77394 199.35057 
L 361.760136 199.35057 
L 365.746332 199.35057 
L 369.732527 199.35057 
L 373.718723 199.35057 
L 377.704918 199.35057 
L 381.691114 199.35057 
L 385.67731 199.35057 
L 389.663505 199.35057 
L 393.649701 199.35057 
L 397.635897 199.35057 
L 401.622092 199.35057 
L 405.608288 199.35057 
L 409.594484 199.35057 
L 413.580679 199.35057 
L 417.566875 199.35057 
L 421.553071 199.35057 
" clip-path="url(#pc842d928ff)" style="fill: none; stroke-dasharray: 3.7,1.6; stroke-dashoffset: 0; stroke: #276319"/>
   </g>
   <g id="line2d_29">
    <path d="M 50.836875 249.803619 
L 54.823071 267.085177 
L 58.809266 277.589113 
L 62.795462 271.759659 
L 66.781658 249.995719 
L 70.767853 230.526836 
L 74.754049 223.379042 
L 78.740245 221.940102 
L 82.72644 222.030459 
L 86.712636 221.185579 
L 90.698832 219.475797 
L 94.685027 217.021912 
L 98.671223 212.952684 
L 102.657418 208.715181 
L 106.643614 208.330996 
L 110.62981 209.676952 
L 114.616005 210.632489 
L 118.602201 210.762837 
L 122.588397 209.493165 
L 126.574592 209.199866 
L 130.560788 210.209635 
L 134.546984 209.943742 
L 138.533179 207.933417 
L 142.519375 206.133403 
L 146.505571 205.311278 
L 150.491766 205.021482 
L 154.477962 205.128825 
L 158.464158 205.219987 
L 162.450353 205.177247 
L 166.436549 205.332792 
L 170.422745 205.314999 
L 174.40894 204.960801 
L 178.395136 204.63742 
L 182.381332 204.494576 
L 186.367527 204.4653 
L 190.353723 203.701077 
L 194.339918 201.70654 
L 198.326114 200.063674 
L 202.31231 199.475859 
L 206.298505 199.363639 
L 210.284701 199.351293 
L 214.270897 199.350587 
L 218.257092 199.35057 
L 222.243288 199.35057 
L 226.229484 199.35057 
L 230.215679 199.35057 
L 234.201875 199.35057 
L 238.188071 199.35057 
L 242.174266 199.35057 
L 246.160462 199.35057 
L 250.146658 199.35057 
L 254.132853 199.35057 
L 258.119049 199.35057 
L 262.105245 199.35057 
L 266.09144 199.35057 
L 270.077636 199.35057 
L 274.063832 199.35057 
L 278.050027 199.35057 
L 282.036223 199.35057 
L 286.022418 199.35057 
L 290.008614 199.35057 
L 293.99481 199.35057 
L 297.981005 199.35057 
L 301.967201 199.35057 
L 305.953397 199.35057 
L 309.939592 199.35057 
L 313.925788 199.35057 
L 317.911984 199.35057 
L 321.898179 199.35057 
L 325.884375 199.35057 
L 329.870571 199.35057 
L 333.856766 199.35057 
L 337.842962 199.35057 
L 341.829158 199.35057 
L 345.815353 199.35057 
L 349.801549 199.35057 
L 353.787745 199.35057 
L 357.77394 199.35057 
L 361.760136 199.35057 
L 365.746332 199.35057 
L 369.732527 199.35057 
L 373.718723 199.35057 
L 377.704918 199.35057 
L 381.691114 199.35057 
L 385.67731 199.35057 
L 389.663505 199.35057 
L 393.649701 199.35057 
L 397.635897 199.35057 
L 401.622092 199.35057 
L 405.608288 199.35057 
L 409.594484 199.35057 
L 413.580679 199.35057 
L 417.566875 199.35057 
L 421.553071 199.35057 
" clip-path="url(#pc842d928ff)" style="fill: none; stroke-dasharray: 3.7,1.6; stroke-dashoffset: 0; stroke: #276319"/>
   </g>
   <g id="line2d_30">
    <path d="M 50.836875 274.892019 
L 54.823071 276.874704 
L 58.809266 277.624797 
L 62.795462 273.583353 
L 66.781658 262.596392 
L 70.767853 252.966158 
L 74.754049 249.981702 
L 78.740245 244.619748 
L 82.72644 237.36257 
L 86.712636 231.969397 
L 90.698832 227.03015 
L 94.685027 225.877865 
L 98.671223 228.15803 
L 102.657418 226.966989 
L 106.643614 224.662687 
L 110.62981 223.163374 
L 114.616005 220.558364 
L 118.602201 219.140706 
L 122.588397 218.532354 
L 126.574592 216.241816 
L 130.560788 213.839507 
L 134.546984 212.09853 
L 138.533179 211.793765 
L 142.519375 212.224667 
L 146.505571 211.645062 
L 150.491766 209.886928 
L 154.477962 208.398761 
L 158.464158 208.636078 
L 162.450353 210.373489 
L 166.436549 211.414416 
L 170.422745 210.596431 
L 174.40894 208.997383 
L 178.395136 207.155605 
L 182.381332 205.275906 
L 186.367527 203.879742 
L 190.353723 203.842443 
L 194.339918 204.207343 
L 198.326114 204.003725 
L 202.31231 203.414871 
L 206.298505 203.258766 
L 210.284701 203.802879 
L 214.270897 203.327451 
L 218.257092 202.250171 
L 222.243288 201.843171 
L 226.229484 201.624098 
L 230.215679 201.720803 
L 234.201875 201.855481 
L 238.188071 201.882505 
L 242.174266 201.651427 
L 246.160462 201.046011 
L 250.146658 200.609421 
L 254.132853 200.633314 
L 258.119049 200.043191 
L 262.105245 198.977503 
L 266.09144 198.53569 
L 270.077636 198.853989 
L 274.063832 199.180863 
L 278.050027 199.454645 
L 282.036223 199.814062 
L 286.022418 200.430471 
L 290.008614 200.528995 
L 293.99481 199.829229 
L 297.981005 199.006586 
L 301.967201 198.335315 
L 305.953397 197.564068 
L 309.939592 196.955399 
L 313.925788 196.652358 
L 317.911984 196.530847 
L 321.898179 196.714553 
L 325.884375 197.080979 
L 329.870571 197.512705 
L 333.856766 197.715791 
L 337.842962 197.369792 
L 341.829158 197.063682 
L 345.815353 197.063145 
L 349.801549 196.919819 
L 353.787745 196.494529 
L 357.77394 196.136611 
L 361.760136 196.186114 
L 365.746332 196.665451 
L 369.732527 197.101999 
L 373.718723 197.102792 
L 377.704918 196.715825 
L 381.691114 196.708091 
L 385.67731 197.167222 
L 389.663505 197.534586 
L 393.649701 197.598498 
L 397.635897 197.67215 
L 401.622092 198.079666 
L 405.608288 198.720469 
L 409.594484 199.171919 
L 413.580679 199.324319 
L 417.566875 199.348797 
L 421.553071 199.350523 
" clip-path="url(#pc842d928ff)" style="fill: none; stroke: #6f9fc7; stroke-width: 2; stroke-linecap: square"/>
   </g>
   <g id="line2d_31">
    <path d="M 50.836875 274.892019 
L 54.823071 274.755626 
L 58.809266 274.241058 
L 62.795462 270.225138 
L 66.781658 258.994454 
L 70.767853 248.016232 
L 74.754049 244.658195 
L 78.740245 239.879847 
L 82.72644 232.767009 
L 86.712636 226.714597 
L 90.698832 221.401627 
L 94.685027 220.267326 
L 98.671223 222.612759 
L 102.657418 221.662685 
L 106.643614 220.0427 
L 110.62981 218.71628 
L 114.616005 216.009819 
L 118.602201 214.826936 
L 122.588397 214.262228 
L 126.574592 211.822676 
L 130.560788 209.407073 
L 134.546984 207.754897 
L 138.533179 207.580537 
L 142.519375 208.328337 
L 146.505571 208.086792 
L 150.491766 206.322321 
L 154.477962 204.516332 
L 158.464158 204.48148 
L 162.450353 206.231871 
L 166.436549 207.397407 
L 170.422745 206.768833 
L 174.40894 205.385779 
L 178.395136 203.72249 
L 182.381332 201.969032 
L 186.367527 200.617584 
L 190.353723 200.638047 
L 194.339918 201.079871 
L 198.326114 201.006149 
L 202.31231 200.580352 
L 206.298505 200.513961 
L 210.284701 201.100033 
L 214.270897 200.609499 
L 218.257092 199.213921 
L 222.243288 198.593396 
L 226.229484 198.569227 
L 230.215679 198.95428 
L 234.201875 199.274519 
L 238.188071 199.508221 
L 242.174266 199.457543 
L 246.160462 198.844568 
L 250.146658 198.334561 
L 254.132853 198.39044 
L 258.119049 197.873753 
L 262.105245 196.849276 
L 266.09144 196.485704 
L 270.077636 196.836713 
L 274.063832 197.129745 
L 278.050027 197.451939 
L 282.036223 197.872629 
L 286.022418 198.463092 
L 290.008614 198.516586 
L 293.99481 197.889885 
L 297.981005 197.111766 
L 301.967201 196.382357 
L 305.953397 195.68066 
L 309.939592 195.253628 
L 313.925788 195.045883 
L 317.911984 194.945781 
L 321.898179 195.119662 
L 325.884375 195.51994 
L 329.870571 195.920079 
L 333.856766 195.987753 
L 337.842962 195.645534 
L 341.829158 195.482045 
L 345.815353 195.637964 
L 349.801549 195.600439 
L 353.787745 195.210648 
L 357.77394 194.87504 
L 361.760136 194.975128 
L 365.746332 195.504486 
L 369.732527 195.979066 
L 373.718723 196.030933 
L 377.704918 195.686755 
L 381.691114 195.745665 
L 385.67731 196.287685 
L 389.663505 196.696941 
L 393.649701 196.791768 
L 397.635897 196.941464 
L 401.622092 197.493755 
L 405.608288 198.367108 
L 409.594484 199.043744 
L 413.580679 199.301569 
L 417.566875 199.347094 
L 421.553071 199.350474 
" clip-path="url(#pc842d928ff)" style="fill: none; stroke-dasharray: 3.7,1.6; stroke-dashoffset: 0; stroke: #6f9fc7"/>
   </g>
   <g id="line2d_32">
    <path d="M 50.836875 274.892019 
L 54.823071 281.112861 
L 58.809266 284.392276 
L 62.795462 280.299784 
L 66.781658 269.800267 
L 70.767853 262.86601 
L 74.754049 260.628717 
L 78.740245 254.099551 
L 82.72644 246.553692 
L 86.712636 242.478998 
L 90.698832 238.287198 
L 94.685027 237.098945 
L 98.671223 239.248572 
L 102.657418 237.575596 
L 106.643614 233.902661 
L 110.62981 232.057562 
L 114.616005 229.655455 
L 118.602201 227.768246 
L 122.588397 227.072605 
L 126.574592 225.080096 
L 130.560788 222.704375 
L 134.546984 220.785797 
L 138.533179 220.220222 
L 142.519375 220.017325 
L 146.505571 218.761602 
L 150.491766 217.016141 
L 154.477962 216.163619 
L 158.464158 216.945273 
L 162.450353 218.656723 
L 166.436549 219.448434 
L 170.422745 218.251626 
L 174.40894 216.220591 
L 178.395136 214.021834 
L 182.381332 211.889654 
L 186.367527 210.404057 
L 190.353723 210.251236 
L 194.339918 210.462287 
L 198.326114 209.998877 
L 202.31231 209.083911 
L 206.298505 208.748375 
L 210.284701 209.208572 
L 214.270897 208.763355 
L 218.257092 208.322672 
L 222.243288 208.342721 
L 226.229484 207.73384 
L 230.215679 207.253849 
L 234.201875 207.017406 
L 238.188071 206.631073 
L 242.174266 206.039196 
L 246.160462 205.448897 
L 250.146658 205.15914 
L 254.132853 205.119063 
L 258.119049 204.382066 
L 262.105245 203.233958 
L 266.09144 202.63566 
L 270.077636 202.888541 
L 274.063832 203.283097 
L 278.050027 203.460055 
L 282.036223 203.696927 
L 286.022418 204.365228 
L 290.008614 204.553815 
L 293.99481 203.707916 
L 297.981005 202.796224 
L 301.967201 202.241232 
L 305.953397 201.330882 
L 309.939592 200.358942 
L 313.925788 199.865307 
L 317.911984 199.700979 
L 321.898179 199.904335 
L 325.884375 200.203057 
L 329.870571 200.697956 
L 333.856766 201.171867 
L 337.842962 200.818309 
L 341.829158 200.226957 
L 345.815353 199.913507 
L 349.801549 199.55858 
L 353.787745 199.062293 
L 357.77394 198.659754 
L 361.760136 198.608087 
L 365.746332 198.987381 
L 369.732527 199.347865 
L 373.718723 199.246511 
L 377.704918 198.773967 
L 381.691114 198.632944 
L 385.67731 198.926297 
L 389.663505 199.209876 
L 393.649701 199.211959 
L 397.635897 199.133521 
L 401.622092 199.251486 
L 405.608288 199.42719 
L 409.594484 199.428268 
L 413.580679 199.36982 
L 417.566875 199.352202 
L 421.553071 199.35062 
" clip-path="url(#pc842d928ff)" style="fill: none; stroke-dasharray: 3.7,1.6; stroke-dashoffset: 0; stroke: #6f9fc7"/>
   </g>
   <g id="patch_3">
    <path d="M 50.836875 382.679219 
L 50.836875 10.999219 
" style="fill: none; stroke: #000000; stroke-width: 0.8; stroke-linejoin: miter; stroke-linecap: square"/>
   </g>
   <g id="patch_4">
    <path d="M 417.566875 382.679219 
L 417.566875 10.999219 
" style="fill: none; stroke: #000000; stroke-width: 0.8; stroke-linejoin: miter; stroke-linecap: square"/>
   </g>
   <g id="patch_5">
    <path d="M 50.836875 382.679219 
L 417.566875 382.679219 
" style="fill: none; stroke: #000000; stroke-width: 0.8; stroke-linejoin: miter; stroke-linecap: square"/>
   </g>
   <g id="patch_6">
    <path d="M 50.836875 10.999219 
L 417.566875 10.999219 
" style="fill: none; stroke: #000000; stroke-width: 0.8; stroke-linejoin: miter; stroke-linecap: square"/>
   </g>
   <g id="legend_1">
    <g id="patch_7">
     <path d="M 295.366875 377.679219 
L 410.566875 377.679219 
Q 412.566875 377.679219 412.566875 375.679219 
L 412.566875 332.644844 
Q 412.566875 330.644844 410.566875 330.644844 
L 295.366875 330.644844 
Q 293.366875 330.644844 293.366875 332.644844 
L 293.366875 375.679219 
Q 293.366875 377.679219 295.366875 377.679219 
z
" style="fill: #ffffff; opacity: 0.8; stroke: #cccccc; stroke-linejoin: miter"/>
    </g>
    <g id="line2d_33">
     <path d="M 297.366875 338.743281 
L 307.366875 338.743281 
L 317.366875 338.743281 
" style="fill: none; stroke: #8e0052; stroke-width: 2; stroke-linecap: square"/>
    </g>
    <g id="text_17">
     <!-- Non Expert (1-2) -->
     <g transform="translate(325.366875 342.243281) scale(0.1 -0.1)">
      <defs>
       <path id="DejaVuSans-45" d="M 628 4666 
L 3578 4666 
L 3578 4134 
L 1259 4134 
L 1259 2753 
L 3481 2753 
L 3481 2222 
L 1259 2222 
L 1259 531 
L 3634 531 
L 3634 0 
L 628 0 
L 628 4666 
z
" transform="scale(0.015625)"/>
       <path id="DejaVuSans-78" d="M 3513 3500 
L 2247 1797 
L 3578 0 
L 2900 0 
L 1881 1375 
L 863 0 
L 184 0 
L 1544 1831 
L 300 3500 
L 978 3500 
L 1906 2253 
L 2834 3500 
L 3513 3500 
z
" transform="scale(0.015625)"/>
       <path id="DejaVuSans-2d" d="M 313 2009 
L 1997 2009 
L 1997 1497 
L 313 1497 
L 313 2009 
z
" transform="scale(0.015625)"/>
      </defs>
      <use xlink:href="#DejaVuSans-4e"/>
      <use xlink:href="#DejaVuSans-6f" x="74.804688"/>
      <use xlink:href="#DejaVuSans-6e" x="135.986328"/>
      <use xlink:href="#DejaVuSans-20" x="199.365234"/>
      <use xlink:href="#DejaVuSans-45" x="231.152344"/>
      <use xlink:href="#DejaVuSans-78" x="294.335938"/>
      <use xlink:href="#DejaVuSans-70" x="353.515625"/>
      <use xlink:href="#DejaVuSans-65" x="416.992188"/>
      <use xlink:href="#DejaVuSans-72" x="478.515625"/>
      <use xlink:href="#DejaVuSans-74" x="519.628906"/>
      <use xlink:href="#DejaVuSans-20" x="558.837891"/>
      <use xlink:href="#DejaVuSans-28" x="590.625"/>
      <use xlink:href="#DejaVuSans-31" x="629.638672"/>
      <use xlink:href="#DejaVuSans-2d" x="693.261719"/>
      <use xlink:href="#DejaVuSans-32" x="729.345703"/>
      <use xlink:href="#DejaVuSans-29" x="792.96875"/>
     </g>
    </g>
    <g id="line2d_34">
     <path d="M 297.366875 353.421406 
L 307.366875 353.421406 
L 317.366875 353.421406 
" style="fill: none; stroke: #276319; stroke-width: 2; stroke-linecap: square"/>
    </g>
    <g id="text_18">
     <!-- Expert (3-5) -->
     <g transform="translate(325.366875 356.921406) scale(0.1 -0.1)">
      <use xlink:href="#DejaVuSans-45"/>
      <use xlink:href="#DejaVuSans-78" x="63.183594"/>
      <use xlink:href="#DejaVuSans-70" x="122.363281"/>
      <use xlink:href="#DejaVuSans-65" x="185.839844"/>
      <use xlink:href="#DejaVuSans-72" x="247.363281"/>
      <use xlink:href="#DejaVuSans-74" x="288.476562"/>
      <use xlink:href="#DejaVuSans-20" x="327.685547"/>
      <use xlink:href="#DejaVuSans-28" x="359.472656"/>
      <use xlink:href="#DejaVuSans-33" x="398.486328"/>
      <use xlink:href="#DejaVuSans-2d" x="462.109375"/>
      <use xlink:href="#DejaVuSans-35" x="498.193359"/>
      <use xlink:href="#DejaVuSans-29" x="561.816406"/>
     </g>
    </g>
    <g id="line2d_35">
     <path d="M 297.366875 368.099531 
L 307.366875 368.099531 
L 317.366875 368.099531 
" style="fill: none; stroke: #6f9fc7; stroke-width: 2; stroke-linecap: square"/>
    </g>
    <g id="text_19">
     <!-- All -->
     <g transform="translate(325.366875 371.599531) scale(0.1 -0.1)">
      <defs>
       <path id="DejaVuSans-41" d="M 2188 4044 
L 1331 1722 
L 3047 1722 
L 2188 4044 
z
M 1831 4666 
L 2547 4666 
L 4325 0 
L 3669 0 
L 3244 1197 
L 1141 1197 
L 716 0 
L 50 0 
L 1831 4666 
z
" transform="scale(0.015625)"/>
       <path id="DejaVuSans-6c" d="M 603 4863 
L 1178 4863 
L 1178 0 
L 603 0 
L 603 4863 
z
" transform="scale(0.015625)"/>
      </defs>
      <use xlink:href="#DejaVuSans-41"/>
      <use xlink:href="#DejaVuSans-6c" x="68.408203"/>
      <use xlink:href="#DejaVuSans-6c" x="96.191406"/>
     </g>
    </g>
   </g>
  </g>
 </g>
 <defs>
  <clipPath id="pc842d928ff">
   <rect x="50.836875" y="10.999219" width="366.73" height="371.68"/>
  </clipPath>
 </defs>
</svg>
