<?xml version="1.0" encoding="utf-8" standalone="no"?>
<!DOCTYPE svg PUBLIC "-//W3C//DTD SVG 1.1//EN"
  "http://www.w3.org/Graphics/SVG/1.1/DTD/svg11.dtd">
<svg xmlns:xlink="http://www.w3.org/1999/xlink" width="424.766875pt" height="424.105312pt" viewBox="0 0 424.766875 424.105312" xmlns="http://www.w3.org/2000/svg" version="1.1">
 <metadata>
  <rdf:RDF xmlns:dc="http://purl.org/dc/elements/1.1/" xmlns:cc="http://creativecommons.org/ns#" xmlns:rdf="http://www.w3.org/1999/02/22-rdf-syntax-ns#">
   <cc:Work>
    <dc:type rdf:resource="http://purl.org/dc/dcmitype/StillImage"/>
    <dc:date>2024-04-17T11:51:37.096255</dc:date>
    <dc:format>image/svg+xml</dc:format>
    <dc:creator>
     <cc:Agent>
      <dc:title>Matplotlib v3.6.2, https://matplotlib.org/</dc:title>
     </cc:Agent>
    </dc:creator>
   </cc:Work>
  </rdf:RDF>
 </metadata>
 <defs>
  <style type="text/css">*{stroke-linejoin: round; stroke-linecap: butt}</style>
 </defs>
 <g id="figure_1">
  <g id="patch_1">
   <path d="M 0 424.105312 
L 424.766875 424.105312 
L 424.766875 0 
L 0 0 
z
" style="fill: #ffffff"/>
  </g>
  <g id="axes_1">
   <g id="patch_2">
    <path d="M 50.836875 382.677812 
L 417.566875 382.677812 
L 417.566875 23.837812 
L 50.836875 23.837812 
z
" style="fill: #ffffff"/>
   </g>
   <g id="matplotlib.axis_1">
    <g id="xtick_1">
     <g id="line2d_1">
      <defs>
       <path id="mbd6ac28365" d="M 0 0 
L 0 3.5 
" style="stroke: #000000; stroke-width: 0.8"/>
      </defs>
      <g>
       <use xlink:href="#mbd6ac28365" x="50.836875" y="382.677812" style="stroke: #000000; stroke-width: 0.8"/>
      </g>
     </g>
     <g id="text_1">
      <!-- 0 -->
      <g transform="translate(47.655625 397.27625) scale(0.1 -0.1)">
       <defs>
        <path id="DejaVuSans-30" d="M 2034 4250 
Q 1547 4250 1301 3770 
Q 1056 3291 1056 2328 
Q 1056 1369 1301 889 
Q 1547 409 2034 409 
Q 2525 409 2770 889 
Q 3016 1369 3016 2328 
Q 3016 3291 2770 3770 
Q 2525 4250 2034 4250 
z
M 2034 4750 
Q 2819 4750 3233 4129 
Q 3647 3509 3647 2328 
Q 3647 1150 3233 529 
Q 2819 -91 2034 -91 
Q 1250 -91 836 529 
Q 422 1150 422 2328 
Q 422 3509 836 4129 
Q 1250 4750 2034 4750 
z
" transform="scale(0.015625)"/>
       </defs>
       <use xlink:href="#DejaVuSans-30"/>
      </g>
     </g>
    </g>
    <g id="xtick_2">
     <g id="line2d_2">
      <g>
       <use xlink:href="#mbd6ac28365" x="130.560788" y="382.677812" style="stroke: #000000; stroke-width: 0.8"/>
      </g>
     </g>
     <g id="text_2">
      <!-- 20 -->
      <g transform="translate(124.198288 397.27625) scale(0.1 -0.1)">
       <defs>
        <path id="DejaVuSans-32" d="M 1228 531 
L 3431 531 
L 3431 0 
L 469 0 
L 469 531 
Q 828 903 1448 1529 
Q 2069 2156 2228 2338 
Q 2531 2678 2651 2914 
Q 2772 3150 2772 3378 
Q 2772 3750 2511 3984 
Q 2250 4219 1831 4219 
Q 1534 4219 1204 4116 
Q 875 4013 500 3803 
L 500 4441 
Q 881 4594 1212 4672 
Q 1544 4750 1819 4750 
Q 2544 4750 2975 4387 
Q 3406 4025 3406 3419 
Q 3406 3131 3298 2873 
Q 3191 2616 2906 2266 
Q 2828 2175 2409 1742 
Q 1991 1309 1228 531 
z
" transform="scale(0.015625)"/>
       </defs>
       <use xlink:href="#DejaVuSans-32"/>
       <use xlink:href="#DejaVuSans-30" x="63.623047"/>
      </g>
     </g>
    </g>
    <g id="xtick_3">
     <g id="line2d_3">
      <g>
       <use xlink:href="#mbd6ac28365" x="210.284701" y="382.677812" style="stroke: #000000; stroke-width: 0.8"/>
      </g>
     </g>
     <g id="text_3">
      <!-- 40 -->
      <g transform="translate(203.922201 397.27625) scale(0.1 -0.1)">
       <defs>
        <path id="DejaVuSans-34" d="M 2419 4116 
L 825 1625 
L 2419 1625 
L 2419 4116 
z
M 2253 4666 
L 3047 4666 
L 3047 1625 
L 3713 1625 
L 3713 1100 
L 3047 1100 
L 3047 0 
L 2419 0 
L 2419 1100 
L 313 1100 
L 313 1709 
L 2253 4666 
z
" transform="scale(0.015625)"/>
       </defs>
       <use xlink:href="#DejaVuSans-34"/>
       <use xlink:href="#DejaVuSans-30" x="63.623047"/>
      </g>
     </g>
    </g>
    <g id="xtick_4">
     <g id="line2d_4">
      <g>
       <use xlink:href="#mbd6ac28365" x="290.008614" y="382.677812" style="stroke: #000000; stroke-width: 0.8"/>
      </g>
     </g>
     <g id="text_4">
      <!-- 60 -->
      <g transform="translate(283.646114 397.27625) scale(0.1 -0.1)">
       <defs>
        <path id="DejaVuSans-36" d="M 2113 2584 
Q 1688 2584 1439 2293 
Q 1191 2003 1191 1497 
Q 1191 994 1439 701 
Q 1688 409 2113 409 
Q 2538 409 2786 701 
Q 3034 994 3034 1497 
Q 3034 2003 2786 2293 
Q 2538 2584 2113 2584 
z
M 3366 4563 
L 3366 3988 
Q 3128 4100 2886 4159 
Q 2644 4219 2406 4219 
Q 1781 4219 1451 3797 
Q 1122 3375 1075 2522 
Q 1259 2794 1537 2939 
Q 1816 3084 2150 3084 
Q 2853 3084 3261 2657 
Q 3669 2231 3669 1497 
Q 3669 778 3244 343 
Q 2819 -91 2113 -91 
Q 1303 -91 875 529 
Q 447 1150 447 2328 
Q 447 3434 972 4092 
Q 1497 4750 2381 4750 
Q 2619 4750 2861 4703 
Q 3103 4656 3366 4563 
z
" transform="scale(0.015625)"/>
       </defs>
       <use xlink:href="#DejaVuSans-36"/>
       <use xlink:href="#DejaVuSans-30" x="63.623047"/>
      </g>
     </g>
    </g>
    <g id="xtick_5">
     <g id="line2d_5">
      <g>
       <use xlink:href="#mbd6ac28365" x="369.732527" y="382.677812" style="stroke: #000000; stroke-width: 0.8"/>
      </g>
     </g>
     <g id="text_5">
      <!-- 80 -->
      <g transform="translate(363.370027 397.27625) scale(0.1 -0.1)">
       <defs>
        <path id="DejaVuSans-38" d="M 2034 2216 
Q 1584 2216 1326 1975 
Q 1069 1734 1069 1313 
Q 1069 891 1326 650 
Q 1584 409 2034 409 
Q 2484 409 2743 651 
Q 3003 894 3003 1313 
Q 3003 1734 2745 1975 
Q 2488 2216 2034 2216 
z
M 1403 2484 
Q 997 2584 770 2862 
Q 544 3141 544 3541 
Q 544 4100 942 4425 
Q 1341 4750 2034 4750 
Q 2731 4750 3128 4425 
Q 3525 4100 3525 3541 
Q 3525 3141 3298 2862 
Q 3072 2584 2669 2484 
Q 3125 2378 3379 2068 
Q 3634 1759 3634 1313 
Q 3634 634 3220 271 
Q 2806 -91 2034 -91 
Q 1263 -91 848 271 
Q 434 634 434 1313 
Q 434 1759 690 2068 
Q 947 2378 1403 2484 
z
M 1172 3481 
Q 1172 3119 1398 2916 
Q 1625 2713 2034 2713 
Q 2441 2713 2670 2916 
Q 2900 3119 2900 3481 
Q 2900 3844 2670 4047 
Q 2441 4250 2034 4250 
Q 1625 4250 1398 4047 
Q 1172 3844 1172 3481 
z
" transform="scale(0.015625)"/>
       </defs>
       <use xlink:href="#DejaVuSans-38"/>
       <use xlink:href="#DejaVuSans-30" x="63.623047"/>
      </g>
     </g>
    </g>
    <g id="text_6">
     <!-- Number of participants -->
     <g transform="translate(153.230469 413.99375) scale(0.14 -0.14)">
      <defs>
       <path id="DejaVuSans-4e" d="M 628 4666 
L 1478 4666 
L 3547 763 
L 3547 4666 
L 4159 4666 
L 4159 0 
L 3309 0 
L 1241 3903 
L 1241 0 
L 628 0 
L 628 4666 
z
" transform="scale(0.015625)"/>
       <path id="DejaVuSans-75" d="M 544 1381 
L 544 3500 
L 1119 3500 
L 1119 1403 
Q 1119 906 1312 657 
Q 1506 409 1894 409 
Q 2359 409 2629 706 
Q 2900 1003 2900 1516 
L 2900 3500 
L 3475 3500 
L 3475 0 
L 2900 0 
L 2900 538 
Q 2691 219 2414 64 
Q 2138 -91 1772 -91 
Q 1169 -91 856 284 
Q 544 659 544 1381 
z
M 1991 3584 
L 1991 3584 
z
" transform="scale(0.015625)"/>
       <path id="DejaVuSans-6d" d="M 3328 2828 
Q 3544 3216 3844 3400 
Q 4144 3584 4550 3584 
Q 5097 3584 5394 3201 
Q 5691 2819 5691 2113 
L 5691 0 
L 5113 0 
L 5113 2094 
Q 5113 2597 4934 2840 
Q 4756 3084 4391 3084 
Q 3944 3084 3684 2787 
Q 3425 2491 3425 1978 
L 3425 0 
L 2847 0 
L 2847 2094 
Q 2847 2600 2669 2842 
Q 2491 3084 2119 3084 
Q 1678 3084 1418 2786 
Q 1159 2488 1159 1978 
L 1159 0 
L 581 0 
L 581 3500 
L 1159 3500 
L 1159 2956 
Q 1356 3278 1631 3431 
Q 1906 3584 2284 3584 
Q 2666 3584 2933 3390 
Q 3200 3197 3328 2828 
z
" transform="scale(0.015625)"/>
       <path id="DejaVuSans-62" d="M 3116 1747 
Q 3116 2381 2855 2742 
Q 2594 3103 2138 3103 
Q 1681 3103 1420 2742 
Q 1159 2381 1159 1747 
Q 1159 1113 1420 752 
Q 1681 391 2138 391 
Q 2594 391 2855 752 
Q 3116 1113 3116 1747 
z
M 1159 2969 
Q 1341 3281 1617 3432 
Q 1894 3584 2278 3584 
Q 2916 3584 3314 3078 
Q 3713 2572 3713 1747 
Q 3713 922 3314 415 
Q 2916 -91 2278 -91 
Q 1894 -91 1617 61 
Q 1341 213 1159 525 
L 1159 0 
L 581 0 
L 581 4863 
L 1159 4863 
L 1159 2969 
z
" transform="scale(0.015625)"/>
       <path id="DejaVuSans-65" d="M 3597 1894 
L 3597 1613 
L 953 1613 
Q 991 1019 1311 708 
Q 1631 397 2203 397 
Q 2534 397 2845 478 
Q 3156 559 3463 722 
L 3463 178 
Q 3153 47 2828 -22 
Q 2503 -91 2169 -91 
Q 1331 -91 842 396 
Q 353 884 353 1716 
Q 353 2575 817 3079 
Q 1281 3584 2069 3584 
Q 2775 3584 3186 3129 
Q 3597 2675 3597 1894 
z
M 3022 2063 
Q 3016 2534 2758 2815 
Q 2500 3097 2075 3097 
Q 1594 3097 1305 2825 
Q 1016 2553 972 2059 
L 3022 2063 
z
" transform="scale(0.015625)"/>
       <path id="DejaVuSans-72" d="M 2631 2963 
Q 2534 3019 2420 3045 
Q 2306 3072 2169 3072 
Q 1681 3072 1420 2755 
Q 1159 2438 1159 1844 
L 1159 0 
L 581 0 
L 581 3500 
L 1159 3500 
L 1159 2956 
Q 1341 3275 1631 3429 
Q 1922 3584 2338 3584 
Q 2397 3584 2469 3576 
Q 2541 3569 2628 3553 
L 2631 2963 
z
" transform="scale(0.015625)"/>
       <path id="DejaVuSans-20" transform="scale(0.015625)"/>
       <path id="DejaVuSans-6f" d="M 1959 3097 
Q 1497 3097 1228 2736 
Q 959 2375 959 1747 
Q 959 1119 1226 758 
Q 1494 397 1959 397 
Q 2419 397 2687 759 
Q 2956 1122 2956 1747 
Q 2956 2369 2687 2733 
Q 2419 3097 1959 3097 
z
M 1959 3584 
Q 2709 3584 3137 3096 
Q 3566 2609 3566 1747 
Q 3566 888 3137 398 
Q 2709 -91 1959 -91 
Q 1206 -91 779 398 
Q 353 888 353 1747 
Q 353 2609 779 3096 
Q 1206 3584 1959 3584 
z
" transform="scale(0.015625)"/>
       <path id="DejaVuSans-66" d="M 2375 4863 
L 2375 4384 
L 1825 4384 
Q 1516 4384 1395 4259 
Q 1275 4134 1275 3809 
L 1275 3500 
L 2222 3500 
L 2222 3053 
L 1275 3053 
L 1275 0 
L 697 0 
L 697 3053 
L 147 3053 
L 147 3500 
L 697 3500 
L 697 3744 
Q 697 4328 969 4595 
Q 1241 4863 1831 4863 
L 2375 4863 
z
" transform="scale(0.015625)"/>
       <path id="DejaVuSans-70" d="M 1159 525 
L 1159 -1331 
L 581 -1331 
L 581 3500 
L 1159 3500 
L 1159 2969 
Q 1341 3281 1617 3432 
Q 1894 3584 2278 3584 
Q 2916 3584 3314 3078 
Q 3713 2572 3713 1747 
Q 3713 922 3314 415 
Q 2916 -91 2278 -91 
Q 1894 -91 1617 61 
Q 1341 213 1159 525 
z
M 3116 1747 
Q 3116 2381 2855 2742 
Q 2594 3103 2138 3103 
Q 1681 3103 1420 2742 
Q 1159 2381 1159 1747 
Q 1159 1113 1420 752 
Q 1681 391 2138 391 
Q 2594 391 2855 752 
Q 3116 1113 3116 1747 
z
" transform="scale(0.015625)"/>
       <path id="DejaVuSans-61" d="M 2194 1759 
Q 1497 1759 1228 1600 
Q 959 1441 959 1056 
Q 959 750 1161 570 
Q 1363 391 1709 391 
Q 2188 391 2477 730 
Q 2766 1069 2766 1631 
L 2766 1759 
L 2194 1759 
z
M 3341 1997 
L 3341 0 
L 2766 0 
L 2766 531 
Q 2569 213 2275 61 
Q 1981 -91 1556 -91 
Q 1019 -91 701 211 
Q 384 513 384 1019 
Q 384 1609 779 1909 
Q 1175 2209 1959 2209 
L 2766 2209 
L 2766 2266 
Q 2766 2663 2505 2880 
Q 2244 3097 1772 3097 
Q 1472 3097 1187 3025 
Q 903 2953 641 2809 
L 641 3341 
Q 956 3463 1253 3523 
Q 1550 3584 1831 3584 
Q 2591 3584 2966 3190 
Q 3341 2797 3341 1997 
z
" transform="scale(0.015625)"/>
       <path id="DejaVuSans-74" d="M 1172 4494 
L 1172 3500 
L 2356 3500 
L 2356 3053 
L 1172 3053 
L 1172 1153 
Q 1172 725 1289 603 
Q 1406 481 1766 481 
L 2356 481 
L 2356 0 
L 1766 0 
Q 1100 0 847 248 
Q 594 497 594 1153 
L 594 3053 
L 172 3053 
L 172 3500 
L 594 3500 
L 594 4494 
L 1172 4494 
z
" transform="scale(0.015625)"/>
       <path id="DejaVuSans-69" d="M 603 3500 
L 1178 3500 
L 1178 0 
L 603 0 
L 603 3500 
z
M 603 4863 
L 1178 4863 
L 1178 4134 
L 603 4134 
L 603 4863 
z
" transform="scale(0.015625)"/>
       <path id="DejaVuSans-63" d="M 3122 3366 
L 3122 2828 
Q 2878 2963 2633 3030 
Q 2388 3097 2138 3097 
Q 1578 3097 1268 2742 
Q 959 2388 959 1747 
Q 959 1106 1268 751 
Q 1578 397 2138 397 
Q 2388 397 2633 464 
Q 2878 531 3122 666 
L 3122 134 
Q 2881 22 2623 -34 
Q 2366 -91 2075 -91 
Q 1284 -91 818 406 
Q 353 903 353 1747 
Q 353 2603 823 3093 
Q 1294 3584 2113 3584 
Q 2378 3584 2631 3529 
Q 2884 3475 3122 3366 
z
" transform="scale(0.015625)"/>
       <path id="DejaVuSans-6e" d="M 3513 2113 
L 3513 0 
L 2938 0 
L 2938 2094 
Q 2938 2591 2744 2837 
Q 2550 3084 2163 3084 
Q 1697 3084 1428 2787 
Q 1159 2491 1159 1978 
L 1159 0 
L 581 0 
L 581 3500 
L 1159 3500 
L 1159 2956 
Q 1366 3272 1645 3428 
Q 1925 3584 2291 3584 
Q 2894 3584 3203 3211 
Q 3513 2838 3513 2113 
z
" transform="scale(0.015625)"/>
       <path id="DejaVuSans-73" d="M 2834 3397 
L 2834 2853 
Q 2591 2978 2328 3040 
Q 2066 3103 1784 3103 
Q 1356 3103 1142 2972 
Q 928 2841 928 2578 
Q 928 2378 1081 2264 
Q 1234 2150 1697 2047 
L 1894 2003 
Q 2506 1872 2764 1633 
Q 3022 1394 3022 966 
Q 3022 478 2636 193 
Q 2250 -91 1575 -91 
Q 1294 -91 989 -36 
Q 684 19 347 128 
L 347 722 
Q 666 556 975 473 
Q 1284 391 1588 391 
Q 1994 391 2212 530 
Q 2431 669 2431 922 
Q 2431 1156 2273 1281 
Q 2116 1406 1581 1522 
L 1381 1569 
Q 847 1681 609 1914 
Q 372 2147 372 2553 
Q 372 3047 722 3315 
Q 1072 3584 1716 3584 
Q 2034 3584 2315 3537 
Q 2597 3491 2834 3397 
z
" transform="scale(0.015625)"/>
      </defs>
      <use xlink:href="#DejaVuSans-4e"/>
      <use xlink:href="#DejaVuSans-75" x="74.804688"/>
      <use xlink:href="#DejaVuSans-6d" x="138.183594"/>
      <use xlink:href="#DejaVuSans-62" x="235.595703"/>
      <use xlink:href="#DejaVuSans-65" x="299.072266"/>
      <use xlink:href="#DejaVuSans-72" x="360.595703"/>
      <use xlink:href="#DejaVuSans-20" x="401.708984"/>
      <use xlink:href="#DejaVuSans-6f" x="433.496094"/>
      <use xlink:href="#DejaVuSans-66" x="494.677734"/>
      <use xlink:href="#DejaVuSans-20" x="529.882812"/>
      <use xlink:href="#DejaVuSans-70" x="561.669922"/>
      <use xlink:href="#DejaVuSans-61" x="625.146484"/>
      <use xlink:href="#DejaVuSans-72" x="686.425781"/>
      <use xlink:href="#DejaVuSans-74" x="727.539062"/>
      <use xlink:href="#DejaVuSans-69" x="766.748047"/>
      <use xlink:href="#DejaVuSans-63" x="794.53125"/>
      <use xlink:href="#DejaVuSans-69" x="849.511719"/>
      <use xlink:href="#DejaVuSans-70" x="877.294922"/>
      <use xlink:href="#DejaVuSans-61" x="940.771484"/>
      <use xlink:href="#DejaVuSans-6e" x="1002.050781"/>
      <use xlink:href="#DejaVuSans-74" x="1065.429688"/>
      <use xlink:href="#DejaVuSans-73" x="1104.638672"/>
     </g>
    </g>
   </g>
   <g id="matplotlib.axis_2">
    <g id="ytick_1">
     <g id="line2d_6">
      <path d="M 50.836875 382.677812 
L 417.566875 382.677812 
" clip-path="url(#p797b91acd2)" style="fill: none; stroke-dasharray: 2.96,1.28; stroke-dashoffset: 0; stroke: #c0c0c0; stroke-width: 0.8"/>
     </g>
     <g id="line2d_7">
      <defs>
       <path id="m4c10a52b3b" d="M 0 0 
L -3.5 0 
" style="stroke: #000000; stroke-width: 0.8"/>
      </defs>
      <g>
       <use xlink:href="#m4c10a52b3b" x="50.836875" y="382.677812" style="stroke: #000000; stroke-width: 0.8"/>
      </g>
     </g>
     <g id="text_7">
      <!-- 20 -->
      <g transform="translate(31.111875 386.477031) scale(0.1 -0.1)">
       <use xlink:href="#DejaVuSans-32"/>
       <use xlink:href="#DejaVuSans-30" x="63.623047"/>
      </g>
     </g>
    </g>
    <g id="ytick_2">
     <g id="line2d_8">
      <path d="M 50.836875 337.822812 
L 417.566875 337.822812 
" clip-path="url(#p797b91acd2)" style="fill: none; stroke-dasharray: 2.96,1.28; stroke-dashoffset: 0; stroke: #c0c0c0; stroke-width: 0.8"/>
     </g>
     <g id="line2d_9">
      <g>
       <use xlink:href="#m4c10a52b3b" x="50.836875" y="337.822812" style="stroke: #000000; stroke-width: 0.8"/>
      </g>
     </g>
     <g id="text_8">
      <!-- 30 -->
      <g transform="translate(31.111875 341.622031) scale(0.1 -0.1)">
       <defs>
        <path id="DejaVuSans-33" d="M 2597 2516 
Q 3050 2419 3304 2112 
Q 3559 1806 3559 1356 
Q 3559 666 3084 287 
Q 2609 -91 1734 -91 
Q 1441 -91 1130 -33 
Q 819 25 488 141 
L 488 750 
Q 750 597 1062 519 
Q 1375 441 1716 441 
Q 2309 441 2620 675 
Q 2931 909 2931 1356 
Q 2931 1769 2642 2001 
Q 2353 2234 1838 2234 
L 1294 2234 
L 1294 2753 
L 1863 2753 
Q 2328 2753 2575 2939 
Q 2822 3125 2822 3475 
Q 2822 3834 2567 4026 
Q 2313 4219 1838 4219 
Q 1578 4219 1281 4162 
Q 984 4106 628 3988 
L 628 4550 
Q 988 4650 1302 4700 
Q 1616 4750 1894 4750 
Q 2613 4750 3031 4423 
Q 3450 4097 3450 3541 
Q 3450 3153 3228 2886 
Q 3006 2619 2597 2516 
z
" transform="scale(0.015625)"/>
       </defs>
       <use xlink:href="#DejaVuSans-33"/>
       <use xlink:href="#DejaVuSans-30" x="63.623047"/>
      </g>
     </g>
    </g>
    <g id="ytick_3">
     <g id="line2d_10">
      <path d="M 50.836875 292.967812 
L 417.566875 292.967812 
" clip-path="url(#p797b91acd2)" style="fill: none; stroke-dasharray: 2.96,1.28; stroke-dashoffset: 0; stroke: #c0c0c0; stroke-width: 0.8"/>
     </g>
     <g id="line2d_11">
      <g>
       <use xlink:href="#m4c10a52b3b" x="50.836875" y="292.967812" style="stroke: #000000; stroke-width: 0.8"/>
      </g>
     </g>
     <g id="text_9">
      <!-- 40 -->
      <g transform="translate(31.111875 296.767031) scale(0.1 -0.1)">
       <use xlink:href="#DejaVuSans-34"/>
       <use xlink:href="#DejaVuSans-30" x="63.623047"/>
      </g>
     </g>
    </g>
    <g id="ytick_4">
     <g id="line2d_12">
      <path d="M 50.836875 248.112812 
L 417.566875 248.112812 
" clip-path="url(#p797b91acd2)" style="fill: none; stroke-dasharray: 2.96,1.28; stroke-dashoffset: 0; stroke: #c0c0c0; stroke-width: 0.8"/>
     </g>
     <g id="line2d_13">
      <g>
       <use xlink:href="#m4c10a52b3b" x="50.836875" y="248.112812" style="stroke: #000000; stroke-width: 0.8"/>
      </g>
     </g>
     <g id="text_10">
      <!-- 50 -->
      <g transform="translate(31.111875 251.912031) scale(0.1 -0.1)">
       <defs>
        <path id="DejaVuSans-35" d="M 691 4666 
L 3169 4666 
L 3169 4134 
L 1269 4134 
L 1269 2991 
Q 1406 3038 1543 3061 
Q 1681 3084 1819 3084 
Q 2600 3084 3056 2656 
Q 3513 2228 3513 1497 
Q 3513 744 3044 326 
Q 2575 -91 1722 -91 
Q 1428 -91 1123 -41 
Q 819 9 494 109 
L 494 744 
Q 775 591 1075 516 
Q 1375 441 1709 441 
Q 2250 441 2565 725 
Q 2881 1009 2881 1497 
Q 2881 1984 2565 2268 
Q 2250 2553 1709 2553 
Q 1456 2553 1204 2497 
Q 953 2441 691 2322 
L 691 4666 
z
" transform="scale(0.015625)"/>
       </defs>
       <use xlink:href="#DejaVuSans-35"/>
       <use xlink:href="#DejaVuSans-30" x="63.623047"/>
      </g>
     </g>
    </g>
    <g id="ytick_5">
     <g id="line2d_14">
      <path d="M 50.836875 203.257812 
L 417.566875 203.257812 
" clip-path="url(#p797b91acd2)" style="fill: none; stroke-dasharray: 2.96,1.28; stroke-dashoffset: 0; stroke: #c0c0c0; stroke-width: 0.8"/>
     </g>
     <g id="line2d_15">
      <g>
       <use xlink:href="#m4c10a52b3b" x="50.836875" y="203.257812" style="stroke: #000000; stroke-width: 0.8"/>
      </g>
     </g>
     <g id="text_11">
      <!-- 60 -->
      <g transform="translate(31.111875 207.057031) scale(0.1 -0.1)">
       <use xlink:href="#DejaVuSans-36"/>
       <use xlink:href="#DejaVuSans-30" x="63.623047"/>
      </g>
     </g>
    </g>
    <g id="ytick_6">
     <g id="line2d_16">
      <path d="M 50.836875 158.402812 
L 417.566875 158.402812 
" clip-path="url(#p797b91acd2)" style="fill: none; stroke-dasharray: 2.96,1.28; stroke-dashoffset: 0; stroke: #c0c0c0; stroke-width: 0.8"/>
     </g>
     <g id="line2d_17">
      <g>
       <use xlink:href="#m4c10a52b3b" x="50.836875" y="158.402812" style="stroke: #000000; stroke-width: 0.8"/>
      </g>
     </g>
     <g id="text_12">
      <!-- 70 -->
      <g transform="translate(31.111875 162.202031) scale(0.1 -0.1)">
       <defs>
        <path id="DejaVuSans-37" d="M 525 4666 
L 3525 4666 
L 3525 4397 
L 1831 0 
L 1172 0 
L 2766 4134 
L 525 4134 
L 525 4666 
z
" transform="scale(0.015625)"/>
       </defs>
       <use xlink:href="#DejaVuSans-37"/>
       <use xlink:href="#DejaVuSans-30" x="63.623047"/>
      </g>
     </g>
    </g>
    <g id="ytick_7">
     <g id="line2d_18">
      <path d="M 50.836875 113.547812 
L 417.566875 113.547812 
" clip-path="url(#p797b91acd2)" style="fill: none; stroke-dasharray: 2.96,1.28; stroke-dashoffset: 0; stroke: #c0c0c0; stroke-width: 0.8"/>
     </g>
     <g id="line2d_19">
      <g>
       <use xlink:href="#m4c10a52b3b" x="50.836875" y="113.547812" style="stroke: #000000; stroke-width: 0.8"/>
      </g>
     </g>
     <g id="text_13">
      <!-- 80 -->
      <g transform="translate(31.111875 117.347031) scale(0.1 -0.1)">
       <use xlink:href="#DejaVuSans-38"/>
       <use xlink:href="#DejaVuSans-30" x="63.623047"/>
      </g>
     </g>
    </g>
    <g id="ytick_8">
     <g id="line2d_20">
      <path d="M 50.836875 68.692812 
L 417.566875 68.692812 
" clip-path="url(#p797b91acd2)" style="fill: none; stroke-dasharray: 2.96,1.28; stroke-dashoffset: 0; stroke: #c0c0c0; stroke-width: 0.8"/>
     </g>
     <g id="line2d_21">
      <g>
       <use xlink:href="#m4c10a52b3b" x="50.836875" y="68.692812" style="stroke: #000000; stroke-width: 0.8"/>
      </g>
     </g>
     <g id="text_14">
      <!-- 90 -->
      <g transform="translate(31.111875 72.492031) scale(0.1 -0.1)">
       <defs>
        <path id="DejaVuSans-39" d="M 703 97 
L 703 672 
Q 941 559 1184 500 
Q 1428 441 1663 441 
Q 2288 441 2617 861 
Q 2947 1281 2994 2138 
Q 2813 1869 2534 1725 
Q 2256 1581 1919 1581 
Q 1219 1581 811 2004 
Q 403 2428 403 3163 
Q 403 3881 828 4315 
Q 1253 4750 1959 4750 
Q 2769 4750 3195 4129 
Q 3622 3509 3622 2328 
Q 3622 1225 3098 567 
Q 2575 -91 1691 -91 
Q 1453 -91 1209 -44 
Q 966 3 703 97 
z
M 1959 2075 
Q 2384 2075 2632 2365 
Q 2881 2656 2881 3163 
Q 2881 3666 2632 3958 
Q 2384 4250 1959 4250 
Q 1534 4250 1286 3958 
Q 1038 3666 1038 3163 
Q 1038 2656 1286 2365 
Q 1534 2075 1959 2075 
z
" transform="scale(0.015625)"/>
       </defs>
       <use xlink:href="#DejaVuSans-39"/>
       <use xlink:href="#DejaVuSans-30" x="63.623047"/>
      </g>
     </g>
    </g>
    <g id="ytick_9">
     <g id="line2d_22">
      <path d="M 50.836875 23.837812 
L 417.566875 23.837812 
" clip-path="url(#p797b91acd2)" style="fill: none; stroke-dasharray: 2.96,1.28; stroke-dashoffset: 0; stroke: #c0c0c0; stroke-width: 0.8"/>
     </g>
     <g id="line2d_23">
      <g>
       <use xlink:href="#m4c10a52b3b" x="50.836875" y="23.837812" style="stroke: #000000; stroke-width: 0.8"/>
      </g>
     </g>
     <g id="text_15">
      <!-- 100 -->
      <g transform="translate(24.749375 27.637031) scale(0.1 -0.1)">
       <defs>
        <path id="DejaVuSans-31" d="M 794 531 
L 1825 531 
L 1825 4091 
L 703 3866 
L 703 4441 
L 1819 4666 
L 2450 4666 
L 2450 531 
L 3481 531 
L 3481 0 
L 794 0 
L 794 531 
z
" transform="scale(0.015625)"/>
       </defs>
       <use xlink:href="#DejaVuSans-31"/>
       <use xlink:href="#DejaVuSans-30" x="63.623047"/>
       <use xlink:href="#DejaVuSans-30" x="127.246094"/>
      </g>
     </g>
    </g>
    <g id="text_16">
     <!-- Success Rate (%) -->
     <g transform="translate(17.837812 264.04625) rotate(-90) scale(0.14 -0.14)">
      <defs>
       <path id="DejaVuSans-53" d="M 3425 4513 
L 3425 3897 
Q 3066 4069 2747 4153 
Q 2428 4238 2131 4238 
Q 1616 4238 1336 4038 
Q 1056 3838 1056 3469 
Q 1056 3159 1242 3001 
Q 1428 2844 1947 2747 
L 2328 2669 
Q 3034 2534 3370 2195 
Q 3706 1856 3706 1288 
Q 3706 609 3251 259 
Q 2797 -91 1919 -91 
Q 1588 -91 1214 -16 
Q 841 59 441 206 
L 441 856 
Q 825 641 1194 531 
Q 1563 422 1919 422 
Q 2459 422 2753 634 
Q 3047 847 3047 1241 
Q 3047 1584 2836 1778 
Q 2625 1972 2144 2069 
L 1759 2144 
Q 1053 2284 737 2584 
Q 422 2884 422 3419 
Q 422 4038 858 4394 
Q 1294 4750 2059 4750 
Q 2388 4750 2728 4690 
Q 3069 4631 3425 4513 
z
" transform="scale(0.015625)"/>
       <path id="DejaVuSans-52" d="M 2841 2188 
Q 3044 2119 3236 1894 
Q 3428 1669 3622 1275 
L 4263 0 
L 3584 0 
L 2988 1197 
Q 2756 1666 2539 1819 
Q 2322 1972 1947 1972 
L 1259 1972 
L 1259 0 
L 628 0 
L 628 4666 
L 2053 4666 
Q 2853 4666 3247 4331 
Q 3641 3997 3641 3322 
Q 3641 2881 3436 2590 
Q 3231 2300 2841 2188 
z
M 1259 4147 
L 1259 2491 
L 2053 2491 
Q 2509 2491 2742 2702 
Q 2975 2913 2975 3322 
Q 2975 3731 2742 3939 
Q 2509 4147 2053 4147 
L 1259 4147 
z
" transform="scale(0.015625)"/>
       <path id="DejaVuSans-28" d="M 1984 4856 
Q 1566 4138 1362 3434 
Q 1159 2731 1159 2009 
Q 1159 1288 1364 580 
Q 1569 -128 1984 -844 
L 1484 -844 
Q 1016 -109 783 600 
Q 550 1309 550 2009 
Q 550 2706 781 3412 
Q 1013 4119 1484 4856 
L 1984 4856 
z
" transform="scale(0.015625)"/>
       <path id="DejaVuSans-25" d="M 4653 2053 
Q 4381 2053 4226 1822 
Q 4072 1591 4072 1178 
Q 4072 772 4226 539 
Q 4381 306 4653 306 
Q 4919 306 5073 539 
Q 5228 772 5228 1178 
Q 5228 1588 5073 1820 
Q 4919 2053 4653 2053 
z
M 4653 2450 
Q 5147 2450 5437 2106 
Q 5728 1763 5728 1178 
Q 5728 594 5436 251 
Q 5144 -91 4653 -91 
Q 4153 -91 3862 251 
Q 3572 594 3572 1178 
Q 3572 1766 3864 2108 
Q 4156 2450 4653 2450 
z
M 1428 4353 
Q 1159 4353 1004 4120 
Q 850 3888 850 3481 
Q 850 3069 1003 2837 
Q 1156 2606 1428 2606 
Q 1700 2606 1854 2837 
Q 2009 3069 2009 3481 
Q 2009 3884 1853 4118 
Q 1697 4353 1428 4353 
z
M 4250 4750 
L 4750 4750 
L 1831 -91 
L 1331 -91 
L 4250 4750 
z
M 1428 4750 
Q 1922 4750 2215 4408 
Q 2509 4066 2509 3481 
Q 2509 2891 2217 2550 
Q 1925 2209 1428 2209 
Q 931 2209 642 2551 
Q 353 2894 353 3481 
Q 353 4063 643 4406 
Q 934 4750 1428 4750 
z
" transform="scale(0.015625)"/>
       <path id="DejaVuSans-29" d="M 513 4856 
L 1013 4856 
Q 1481 4119 1714 3412 
Q 1947 2706 1947 2009 
Q 1947 1309 1714 600 
Q 1481 -109 1013 -844 
L 513 -844 
Q 928 -128 1133 580 
Q 1338 1288 1338 2009 
Q 1338 2731 1133 3434 
Q 928 4138 513 4856 
z
" transform="scale(0.015625)"/>
      </defs>
      <use xlink:href="#DejaVuSans-53"/>
      <use xlink:href="#DejaVuSans-75" x="63.476562"/>
      <use xlink:href="#DejaVuSans-63" x="126.855469"/>
      <use xlink:href="#DejaVuSans-63" x="181.835938"/>
      <use xlink:href="#DejaVuSans-65" x="236.816406"/>
      <use xlink:href="#DejaVuSans-73" x="298.339844"/>
      <use xlink:href="#DejaVuSans-73" x="350.439453"/>
      <use xlink:href="#DejaVuSans-20" x="402.539062"/>
      <use xlink:href="#DejaVuSans-52" x="434.326172"/>
      <use xlink:href="#DejaVuSans-61" x="501.558594"/>
      <use xlink:href="#DejaVuSans-74" x="562.837891"/>
      <use xlink:href="#DejaVuSans-65" x="602.046875"/>
      <use xlink:href="#DejaVuSans-20" x="663.570312"/>
      <use xlink:href="#DejaVuSans-28" x="695.357422"/>
      <use xlink:href="#DejaVuSans-25" x="734.371094"/>
      <use xlink:href="#DejaVuSans-29" x="829.390625"/>
     </g>
    </g>
   </g>
   <g id="PolyCollection_1">
    <defs>
     <path id="mf0c3bc2eb9" d="M 50.836875 -175.9925 
L 50.836875 -175.9925 
L 54.823071 -193.256929 
L 58.809266 -213.511753 
L 62.795462 -225.221305 
L 66.781658 -217.434167 
L 70.767853 -211.650941 
L 74.754049 -207.526043 
L 78.740245 -203.110597 
L 82.72644 -215.405073 
L 86.712636 -226.592694 
L 90.698832 -227.60425 
L 94.685027 -239.089342 
L 98.671223 -246.188609 
L 102.657418 -247.177673 
L 106.643614 -245.4545 
L 110.62981 -247.906952 
L 114.616005 -250.218944 
L 118.602201 -249.944819 
L 122.588397 -260.011341 
L 126.574592 -270.381586 
L 130.560788 -267.567952 
L 134.546984 -257.825257 
L 138.533179 -256.093997 
L 142.519375 -267.29557 
L 146.505571 -278.819187 
L 150.491766 -278.730349 
L 154.477962 -276.675953 
L 158.464158 -273.690093 
L 162.450353 -273.783821 
L 166.436549 -275.841617 
L 170.422745 -273.298995 
L 174.40894 -273.543459 
L 178.395136 -277.407343 
L 182.381332 -278.530115 
L 186.367527 -272.969739 
L 190.353723 -268.024129 
L 194.339918 -271.069432 
L 198.326114 -282.106486 
L 202.31231 -288.231439 
L 206.298505 -284.662115 
L 210.284701 -284.117247 
L 214.270897 -284.713616 
L 218.257092 -281.795972 
L 222.243288 -281.910754 
L 226.229484 -281.378297 
L 230.215679 -278.448134 
L 234.201875 -280.915719 
L 238.188071 -285.812808 
L 242.174266 -290.08314 
L 246.160462 -296.48636 
L 250.146658 -302.843852 
L 254.132853 -303.804619 
L 258.119049 -303.052862 
L 262.105245 -304.206898 
L 266.09144 -304.96599 
L 270.077636 -304.116771 
L 274.063832 -301.9261 
L 278.050027 -300.868481 
L 282.036223 -300.964403 
L 286.022418 -301.325348 
L 290.008614 -301.172703 
L 293.99481 -299.728129 
L 297.981005 -299.193468 
L 301.967201 -298.836655 
L 305.953397 -301.508181 
L 309.939592 -307.877959 
L 313.925788 -310.488759 
L 317.911984 -307.65412 
L 321.898179 -304.06317 
L 325.884375 -301.761963 
L 329.870571 -302.744871 
L 333.856766 -304.64687 
L 337.842962 -302.384803 
L 341.829158 -299.337096 
L 345.815353 -301.392242 
L 349.801549 -305.502588 
L 353.787745 -306.993602 
L 357.77394 -304.067335 
L 361.760136 -300.597035 
L 365.746332 -299.515692 
L 369.732527 -299.169923 
L 373.718723 -297.519467 
L 377.704918 -296.333968 
L 381.691114 -297.502083 
L 385.67731 -297.920734 
L 389.663505 -296.30117 
L 393.649701 -295.242952 
L 397.635897 -293.454165 
L 401.622092 -290.389902 
L 405.608288 -288.563903 
L 409.594484 -288.163573 
L 413.580679 -288.130979 
L 417.566875 -288.13 
L 417.566875 -288.13 
L 417.566875 -288.13 
L 413.580679 -288.129407 
L 409.594484 -288.10976 
L 405.608288 -287.870418 
L 401.622092 -286.798252 
L 397.635897 -285.026346 
L 393.649701 -283.743118 
L 389.663505 -282.216826 
L 385.67731 -279.97389 
L 381.691114 -279.30637 
L 377.704918 -279.654391 
L 373.718723 -279.358361 
L 369.732527 -279.545673 
L 365.746332 -278.569819 
L 361.760136 -277.814793 
L 357.77394 -278.918805 
L 353.787745 -279.462037 
L 349.801549 -275.80909 
L 345.815353 -268.174986 
L 341.829158 -263.155984 
L 337.842962 -266.087526 
L 333.856766 -269.858962 
L 329.870571 -269.98088 
L 325.884375 -270.382723 
L 321.898179 -273.232361 
L 317.911984 -274.815419 
L 313.925788 -277.473156 
L 309.939592 -273.753306 
L 305.953397 -260.660443 
L 301.967201 -255.269198 
L 297.981005 -259.280427 
L 293.99481 -258.918914 
L 290.008614 -255.946736 
L 286.022418 -254.576984 
L 282.036223 -255.258176 
L 278.050027 -255.249789 
L 274.063832 -259.266785 
L 270.077636 -265.244647 
L 266.09144 -267.032852 
L 262.105245 -263.581684 
L 258.119049 -257.200349 
L 254.132853 -255.08995 
L 250.146658 -251.10755 
L 246.160462 -239.348633 
L 242.174266 -229.25536 
L 238.188071 -223.263776 
L 234.201875 -216.618854 
L 230.215679 -214.142985 
L 226.229484 -222.174173 
L 222.243288 -227.87492 
L 218.257092 -230.295493 
L 214.270897 -232.992067 
L 210.284701 -225.766891 
L 206.298505 -219.951974 
L 202.31231 -227.528616 
L 198.326114 -227.41125 
L 194.339918 -215.305883 
L 190.353723 -208.608037 
L 186.367527 -215.592877 
L 182.381332 -225.466949 
L 178.395136 -223.310804 
L 174.40894 -215.502246 
L 170.422745 -215.007284 
L 166.436549 -218.153337 
L 162.450353 -212.151509 
L 158.464158 -208.754475 
L 154.477962 -213.362186 
L 150.491766 -217.906613 
L 146.505571 -218.014074 
L 142.519375 -204.239917 
L 138.533179 -191.092195 
L 134.546984 -191.697331 
L 130.560788 -203.334634 
L 126.574592 -207.991882 
L 122.588397 -194.354354 
L 118.602201 -184.067337 
L 114.616005 -188.397394 
L 110.62981 -182.2549 
L 106.643614 -172.212983 
L 102.657418 -176.157089 
L 98.671223 -185.146887 
L 94.685027 -180.257356 
L 90.698832 -164.977866 
L 86.712636 -161.425599 
L 82.72644 -144.277113 
L 78.740245 -127.223232 
L 74.754049 -137.830715 
L 70.767853 -158.303348 
L 66.781658 -170.382008 
L 62.795462 -167.842944 
L 58.809266 -159.434286 
L 54.823071 -162.565886 
L 50.836875 -175.9925 
z
" style="stroke: #66a61e; stroke-opacity: 0.1"/>
    </defs>
    <g clip-path="url(#p797b91acd2)">
     <use xlink:href="#mf0c3bc2eb9" x="0" y="424.105312" style="fill: #66a61e; fill-opacity: 0.1; stroke: #66a61e; stroke-opacity: 0.1"/>
    </g>
   </g>
   <g id="PolyCollection_2">
    <defs>
     <path id="md1179eca65" d="M 50.836875 -135.623 
L 50.836875 -135.623 
L 54.823071 -139.634285 
L 58.809266 -152.224627 
L 62.795462 -178.845502 
L 66.781658 -194.826452 
L 70.767853 -178.388142 
L 74.754049 -155.925274 
L 78.740245 -144.707314 
L 82.72644 -140.410234 
L 86.712636 -137.583578 
L 90.698832 -145.188175 
L 94.685027 -148.633102 
L 98.671223 -137.215033 
L 102.657418 -129.701512 
L 106.643614 -134.615666 
L 110.62981 -143.911615 
L 114.616005 -152.410954 
L 118.602201 -149.052507 
L 122.588397 -135.15689 
L 126.574592 -127.44863 
L 130.560788 -131.011074 
L 134.546984 -138.88482 
L 138.533179 -137.763992 
L 142.519375 -131.117062 
L 146.505571 -132.813975 
L 150.491766 -135.650733 
L 154.477962 -124.177479 
L 158.464158 -114.553437 
L 162.450353 -116.609014 
L 166.436549 -121.235006 
L 170.422745 -123.380626 
L 174.40894 -122.039592 
L 178.395136 -118.018606 
L 182.381332 -114.904864 
L 186.367527 -112.936158 
L 190.353723 -107.972106 
L 194.339918 -103.511905 
L 198.326114 -106.520176 
L 202.31231 -110.645098 
L 206.298505 -108.644358 
L 210.284701 -102.293365 
L 214.270897 -100.18402 
L 218.257092 -104.38367 
L 222.243288 -105.208936 
L 226.229484 -101.221255 
L 230.215679 -98.516448 
L 234.201875 -98.949781 
L 238.188071 -99.620835 
L 242.174266 -96.5603 
L 246.160462 -93.713592 
L 250.146658 -93.477737 
L 254.132853 -94.282929 
L 258.119049 -94.03908 
L 262.105245 -91.635139 
L 266.09144 -89.622815 
L 270.077636 -88.601667 
L 274.063832 -87.032022 
L 278.050027 -83.844409 
L 282.036223 -81.370301 
L 286.022418 -80.756809 
L 290.008614 -80.563813 
L 293.99481 -81.392323 
L 297.981005 -83.792766 
L 301.967201 -86.133143 
L 305.953397 -84.528674 
L 309.939592 -81.15531 
L 313.925788 -79.620175 
L 317.911984 -78.729543 
L 321.898179 -77.62032 
L 325.884375 -78.015452 
L 329.870571 -77.527795 
L 333.856766 -75.489025 
L 337.842962 -73.957406 
L 341.829158 -73.499587 
L 345.815353 -73.573486 
L 349.801549 -74.63174 
L 353.787745 -77.179334 
L 357.77394 -78.426031 
L 361.760136 -75.64028 
L 365.746332 -72.169565 
L 369.732527 -70.89607 
L 373.718723 -70.393336 
L 377.704918 -69.062598 
L 381.691114 -67.732298 
L 385.67731 -67.456573 
L 389.663505 -67.859328 
L 393.649701 -67.745701 
L 397.635897 -66.862719 
L 401.622092 -66.113988 
L 405.608288 -65.423334 
L 409.594484 -64.52236 
L 413.580679 -63.984832 
L 417.566875 -63.865416 
L 417.566875 -63.845883 
L 417.566875 -63.845883 
L 413.580679 -63.741387 
L 409.594484 -63.271644 
L 405.608288 -62.494979 
L 401.622092 -62.008973 
L 397.635897 -61.841992 
L 393.649701 -61.732559 
L 389.663505 -61.673393 
L 385.67731 -61.633234 
L 381.691114 -61.459617 
L 377.704918 -61.226055 
L 373.718723 -61.077468 
L 369.732527 -61.030168 
L 365.746332 -61.613951 
L 361.760136 -62.547409 
L 357.77394 -62.940335 
L 353.787745 -62.837252 
L 349.801549 -62.122293 
L 345.815353 -60.969278 
L 341.829158 -60.101646 
L 337.842962 -60.052955 
L 333.856766 -61.270761 
L 329.870571 -62.021051 
L 325.884375 -61.185677 
L 321.898179 -60.667112 
L 317.911984 -61.535988 
L 313.925788 -61.287368 
L 309.939592 -60.180921 
L 305.953397 -61.299412 
L 301.967201 -62.846458 
L 297.981005 -61.862006 
L 293.99481 -59.940326 
L 290.008614 -59.472787 
L 286.022418 -60.040339 
L 282.036223 -60.628267 
L 278.050027 -61.946909 
L 274.063832 -62.498572 
L 270.077636 -62.508963 
L 266.09144 -62.578654 
L 262.105245 -62.43429 
L 258.119049 -63.343706 
L 254.132853 -63.364879 
L 250.146658 -62.657965 
L 246.160462 -62.855284 
L 242.174266 -63.919586 
L 238.188071 -65.084768 
L 234.201875 -65.70043 
L 230.215679 -66.352952 
L 226.229484 -67.203621 
L 222.243288 -68.368828 
L 218.257092 -66.725495 
L 214.270897 -61.503081 
L 210.284701 -61.151732 
L 206.298505 -66.419643 
L 202.31231 -70.133152 
L 198.326114 -69.369376 
L 194.339918 -69.143915 
L 190.353723 -73.520662 
L 186.367527 -75.35175 
L 182.381332 -73.425355 
L 178.395136 -73.594349 
L 174.40894 -78.203367 
L 170.422745 -79.228457 
L 166.436549 -74.321012 
L 162.450353 -68.941767 
L 158.464158 -68.617837 
L 154.477962 -76.855455 
L 150.491766 -86.06942 
L 146.505571 -85.053554 
L 142.519375 -84.480006 
L 138.533179 -90.004577 
L 134.546984 -91.42687 
L 130.560788 -86.512877 
L 126.574592 -84.179023 
L 122.588397 -90.045062 
L 118.602201 -99.35567 
L 114.616005 -96.963856 
L 110.62981 -86.917985 
L 106.643614 -81.404044 
L 102.657418 -80.295935 
L 98.671223 -88.523084 
L 94.685027 -99.355599 
L 90.698832 -96.201519 
L 86.712636 -89.20008 
L 82.72644 -90.298024 
L 78.740245 -94.268126 
L 74.754049 -105.052868 
L 70.767853 -127.93364 
L 66.781658 -152.340056 
L 62.795462 -147.309099 
L 58.809266 -128.552418 
L 54.823071 -125.901269 
L 50.836875 -135.623 
z
" style="stroke: #e7298a; stroke-opacity: 0.1"/>
    </defs>
    <g clip-path="url(#p797b91acd2)">
     <use xlink:href="#md1179eca65" x="0" y="424.105312" style="fill: #e7298a; fill-opacity: 0.1; stroke: #e7298a; stroke-opacity: 0.1"/>
    </g>
   </g>
   <g id="PolyCollection_3">
    <defs>
     <path id="m4efdd270ae" d="M 50.836875 -122.1665 
L 50.836875 -122.1665 
L 54.823071 -140.136435 
L 58.809266 -154.977922 
L 62.795462 -157.66441 
L 66.781658 -147.729079 
L 70.767853 -143.33707 
L 74.754049 -143.474231 
L 78.740245 -140.0221 
L 82.72644 -134.837746 
L 86.712636 -131.481386 
L 90.698832 -130.732139 
L 94.685027 -124.36282 
L 98.671223 -122.078256 
L 102.657418 -128.643901 
L 106.643614 -130.761921 
L 110.62981 -130.330435 
L 114.616005 -130.765279 
L 118.602201 -128.10876 
L 122.588397 -126.394472 
L 126.574592 -127.916183 
L 130.560788 -129.29214 
L 134.546984 -128.167926 
L 138.533179 -127.727108 
L 142.519375 -133.292363 
L 146.505571 -135.948215 
L 150.491766 -129.1708 
L 154.477962 -124.864621 
L 158.464158 -122.32386 
L 162.450353 -122.704658 
L 166.436549 -127.130036 
L 170.422745 -132.401098 
L 174.40894 -136.871687 
L 178.395136 -137.357034 
L 182.381332 -132.854439 
L 186.367527 -126.400007 
L 190.353723 -123.896151 
L 194.339918 -124.013679 
L 198.326114 -122.765952 
L 202.31231 -121.673426 
L 206.298505 -122.831458 
L 210.284701 -125.504791 
L 214.270897 -127.019233 
L 218.257092 -128.238941 
L 222.243288 -131.214373 
L 226.229484 -130.353981 
L 230.215679 -128.741161 
L 234.201875 -128.250595 
L 238.188071 -128.040921 
L 242.174266 -128.221724 
L 246.160462 -128.95994 
L 250.146658 -130.506223 
L 254.132853 -130.990588 
L 258.119049 -128.703072 
L 262.105245 -122.756266 
L 266.09144 -117.415424 
L 270.077636 -116.746687 
L 274.063832 -117.380492 
L 278.050027 -118.833636 
L 282.036223 -118.514858 
L 286.022418 -117.142502 
L 290.008614 -116.801983 
L 293.99481 -117.507423 
L 297.981005 -116.737675 
L 301.967201 -114.809861 
L 305.953397 -112.782275 
L 309.939592 -112.313232 
L 313.925788 -111.587466 
L 317.911984 -111.182261 
L 321.898179 -113.976928 
L 325.884375 -116.215357 
L 329.870571 -115.304347 
L 333.856766 -114.09806 
L 337.842962 -114.017149 
L 341.829158 -113.379739 
L 345.815353 -111.677192 
L 349.801549 -111.012924 
L 353.787745 -111.025147 
L 357.77394 -110.393594 
L 361.760136 -108.740425 
L 365.746332 -106.594216 
L 369.732527 -105.695054 
L 373.718723 -106.451046 
L 377.704918 -105.556142 
L 381.691114 -102.089733 
L 385.67731 -99.458049 
L 389.663505 -97.708822 
L 393.649701 -96.07362 
L 397.635897 -95.354769 
L 401.622092 -95.428778 
L 405.608288 -94.608648 
L 409.594484 -92.044811 
L 413.580679 -90.204721 
L 417.566875 -89.771482 
L 417.566875 -89.708979 
L 417.566875 -89.708979 
L 413.580679 -89.436818 
L 409.594484 -88.235454 
L 405.608288 -86.354033 
L 401.622092 -85.383367 
L 397.635897 -85.224187 
L 393.649701 -85.006013 
L 389.663505 -84.708078 
L 385.67731 -84.735683 
L 381.691114 -85.252103 
L 377.704918 -85.895163 
L 373.718723 -85.921503 
L 369.732527 -85.583228 
L 365.746332 -85.771754 
L 361.760136 -86.526073 
L 357.77394 -87.171656 
L 353.787745 -87.238328 
L 349.801549 -87.074339 
L 345.815353 -87.641688 
L 341.829158 -88.720027 
L 337.842962 -89.114824 
L 333.856766 -89.324748 
L 329.870571 -90.119988 
L 325.884375 -90.327573 
L 321.898179 -88.194099 
L 317.911984 -86.081756 
L 313.925788 -86.985252 
L 309.939592 -88.172085 
L 305.953397 -88.062896 
L 301.967201 -88.518156 
L 297.981005 -90.083577 
L 293.99481 -91.138118 
L 290.008614 -90.312356 
L 286.022418 -89.018434 
L 282.036223 -88.389483 
L 278.050027 -88.377907 
L 274.063832 -88.362022 
L 270.077636 -89.622308 
L 266.09144 -91.421708 
L 262.105245 -95.020047 
L 258.119049 -98.081097 
L 254.132853 -98.628632 
L 250.146658 -97.31061 
L 246.160462 -96.301006 
L 242.174266 -96.565747 
L 238.188071 -96.999458 
L 234.201875 -96.760996 
L 230.215679 -95.334849 
L 226.229484 -96.110917 
L 222.243288 -98.431333 
L 218.257092 -96.711708 
L 214.270897 -95.04167 
L 210.284701 -92.852867 
L 206.298505 -90.791395 
L 202.31231 -90.01662 
L 198.326114 -90.16133 
L 194.339918 -91.984306 
L 190.353723 -93.41322 
L 186.367527 -95.213449 
L 182.381332 -100.819868 
L 178.395136 -105.302643 
L 174.40894 -104.215093 
L 170.422745 -98.995885 
L 166.436549 -93.863808 
L 162.450353 -90.448242 
L 158.464158 -89.80096 
L 154.477962 -91.625263 
L 150.491766 -97.156043 
L 146.505571 -104.291846 
L 142.519375 -100.723633 
L 138.533179 -96.413151 
L 134.546984 -99.11383 
L 130.560788 -99.412806 
L 126.574592 -96.702499 
L 122.588397 -94.880039 
L 118.602201 -95.001716 
L 114.616005 -96.667749 
L 110.62981 -93.866479 
L 106.643614 -92.455292 
L 102.657418 -93.193214 
L 98.671223 -89.895319 
L 94.685027 -92.907376 
L 90.698832 -100.739297 
L 86.712636 -100.930939 
L 82.72644 -99.664011 
L 78.740245 -103.490969 
L 74.754049 -107.267403 
L 70.767853 -105.314583 
L 66.781658 -109.515601 
L 62.795462 -125.7408 
L 58.809266 -134.176193 
L 54.823071 -130.199609 
L 50.836875 -122.1665 
z
" style="stroke: #7570b3; stroke-opacity: 0.1"/>
    </defs>
    <g clip-path="url(#p797b91acd2)">
     <use xlink:href="#m4efdd270ae" x="0" y="424.105312" style="fill: #7570b3; fill-opacity: 0.1; stroke: #7570b3; stroke-opacity: 0.1"/>
    </g>
   </g>
   <g id="PolyCollection_4">
    <defs>
     <path id="m565c17035d" d="M 50.836875 -99.739 
L 50.836875 -99.739 
L 54.823071 -126.748686 
L 58.809266 -153.370551 
L 62.795462 -173.453656 
L 66.781658 -173.28973 
L 70.767853 -154.366775 
L 74.754049 -139.71074 
L 78.740245 -136.188251 
L 82.72644 -129.902763 
L 86.712636 -134.419414 
L 90.698832 -142.754686 
L 94.685027 -143.952567 
L 98.671223 -138.262307 
L 102.657418 -136.775692 
L 106.643614 -137.080854 
L 110.62981 -139.513955 
L 114.616005 -148.772397 
L 118.602201 -153.225123 
L 122.588397 -150.455939 
L 126.574592 -150.865433 
L 130.560788 -150.299931 
L 134.546984 -150.716461 
L 138.533179 -151.841648 
L 142.519375 -149.649199 
L 146.505571 -147.0527 
L 150.491766 -148.630249 
L 154.477962 -153.635126 
L 158.464158 -154.745376 
L 162.450353 -150.247318 
L 166.436549 -143.66179 
L 170.422745 -141.778174 
L 174.40894 -144.317067 
L 178.395136 -146.110833 
L 182.381332 -148.369124 
L 186.367527 -148.578235 
L 190.353723 -148.6776 
L 194.339918 -150.943231 
L 198.326114 -154.726272 
L 202.31231 -154.961619 
L 206.298505 -151.013133 
L 210.284701 -148.880235 
L 214.270897 -153.523721 
L 218.257092 -158.272818 
L 222.243288 -157.096163 
L 226.229484 -153.498687 
L 230.215679 -151.340113 
L 234.201875 -151.94958 
L 238.188071 -154.412619 
L 242.174266 -151.552911 
L 246.160462 -145.834971 
L 250.146658 -145.508607 
L 254.132853 -151.304124 
L 258.119049 -154.20726 
L 262.105245 -151.900885 
L 266.09144 -151.527519 
L 270.077636 -152.83511 
L 274.063832 -152.947418 
L 278.050027 -153.591339 
L 282.036223 -154.681989 
L 286.022418 -155.748357 
L 290.008614 -155.146184 
L 293.99481 -151.806172 
L 297.981005 -149.263714 
L 301.967201 -148.53348 
L 305.953397 -150.099299 
L 309.939592 -151.741364 
L 313.925788 -150.11715 
L 317.911984 -145.930824 
L 321.898179 -144.63931 
L 325.884375 -148.585848 
L 329.870571 -152.881484 
L 333.856766 -155.027908 
L 337.842962 -157.34744 
L 341.829158 -158.095345 
L 345.815353 -155.700107 
L 349.801549 -153.817198 
L 353.787745 -153.567857 
L 357.77394 -153.249937 
L 361.760136 -152.626144 
L 365.746332 -152.685882 
L 369.732527 -153.006161 
L 373.718723 -152.456407 
L 377.704918 -151.888361 
L 381.691114 -152.834962 
L 385.67731 -154.307708 
L 389.663505 -154.18412 
L 393.649701 -153.667428 
L 397.635897 -153.365122 
L 401.622092 -152.836612 
L 405.608288 -152.193878 
L 409.594484 -151.532591 
L 413.580679 -151.161975 
L 417.566875 -151.080189 
L 417.566875 -151.042719 
L 417.566875 -151.042719 
L 413.580679 -150.685135 
L 409.594484 -148.95616 
L 405.608288 -145.480143 
L 401.622092 -141.969849 
L 397.635897 -139.413831 
L 393.649701 -137.376642 
L 389.663505 -137.036266 
L 385.67731 -137.0483 
L 381.691114 -132.113765 
L 377.704918 -127.36892 
L 373.718723 -127.031393 
L 369.732527 -127.98514 
L 365.746332 -127.431352 
L 361.760136 -126.560254 
L 357.77394 -126.551752 
L 353.787745 -125.602251 
L 349.801549 -124.286159 
L 345.815353 -124.941109 
L 341.829158 -128.25195 
L 337.842962 -127.921087 
L 333.856766 -122.661755 
L 329.870571 -117.383085 
L 325.884375 -110.565723 
L 321.898179 -105.495196 
L 317.911984 -107.317087 
L 313.925788 -113.112909 
L 309.939592 -116.26107 
L 305.953397 -113.449372 
L 301.967201 -110.029883 
L 297.981005 -110.153028 
L 293.99481 -112.30162 
L 290.008614 -115.074342 
L 286.022418 -115.959605 
L 282.036223 -115.430153 
L 278.050027 -114.432215 
L 274.063832 -112.597315 
L 270.077636 -111.342729 
L 266.09144 -109.130443 
L 262.105245 -107.728048 
L 258.119049 -109.836879 
L 254.132853 -108.39126 
L 250.146658 -102.434693 
L 246.160462 -101.889326 
L 242.174266 -107.627379 
L 238.188071 -111.837383 
L 234.201875 -109.73032 
L 230.215679 -107.488636 
L 226.229484 -108.989495 
L 222.243288 -113.929891 
L 218.257092 -116.693148 
L 214.270897 -113.720289 
L 210.284701 -109.861652 
L 206.298505 -109.396608 
L 202.31231 -110.674036 
L 198.326114 -109.76862 
L 194.339918 -107.05556 
L 190.353723 -106.203097 
L 186.367527 -106.017158 
L 182.381332 -105.304562 
L 178.395136 -101.511417 
L 174.40894 -97.044657 
L 170.422745 -95.374133 
L 166.436549 -100.663804 
L 162.450353 -108.404443 
L 158.464158 -113.444075 
L 154.477962 -112.618902 
L 150.491766 -106.487728 
L 146.505571 -102.26284 
L 142.519375 -102.18757 
L 138.533179 -102.483772 
L 134.546984 -101.618966 
L 130.560788 -104.97514 
L 126.574592 -108.147004 
L 122.588397 -106.779648 
L 118.602201 -108.138476 
L 114.616005 -103.236415 
L 110.62981 -97.45348 
L 106.643614 -96.501693 
L 102.657418 -93.85828 
L 98.671223 -89.966453 
L 94.685027 -91.750699 
L 90.698832 -93.521421 
L 86.712636 -89.480762 
L 82.72644 -86.112013 
L 78.740245 -88.20789 
L 74.754049 -85.039016 
L 70.767853 -95.267562 
L 66.781658 -117.155403 
L 62.795462 -126.29702 
L 58.809266 -125.492322 
L 54.823071 -116.169538 
L 50.836875 -99.739 
z
" style="stroke: #d95f02; stroke-opacity: 0.1"/>
    </defs>
    <g clip-path="url(#p797b91acd2)">
     <use xlink:href="#m565c17035d" x="0" y="424.105312" style="fill: #d95f02; fill-opacity: 0.1; stroke: #d95f02; stroke-opacity: 0.1"/>
    </g>
   </g>
   <g id="PolyCollection_5">
    <defs>
     <path id="m3883aeb933" d="M 50.836875 -99.739 
L 50.836875 -99.739 
L 54.823071 -115.123505 
L 58.809266 -132.018363 
L 62.795462 -144.235486 
L 66.781658 -142.486432 
L 70.767853 -135.359314 
L 74.754049 -132.503554 
L 78.740245 -137.368496 
L 82.72644 -141.525307 
L 86.712636 -137.392629 
L 90.698832 -135.840987 
L 94.685027 -142.189106 
L 98.671223 -149.052173 
L 102.657418 -153.316557 
L 106.643614 -150.545303 
L 110.62981 -145.911945 
L 114.616005 -144.413225 
L 118.602201 -142.616667 
L 122.588397 -142.007108 
L 126.574592 -143.143022 
L 130.560788 -146.635014 
L 134.546984 -149.961637 
L 138.533179 -147.22347 
L 142.519375 -143.395705 
L 146.505571 -144.615978 
L 150.491766 -147.466915 
L 154.477962 -149.921669 
L 158.464158 -153.291267 
L 162.450353 -153.923119 
L 166.436549 -151.838917 
L 170.422745 -151.42609 
L 174.40894 -154.697252 
L 178.395136 -157.565905 
L 182.381332 -156.676518 
L 186.367527 -158.55068 
L 190.353723 -160.262054 
L 194.339918 -159.628762 
L 198.326114 -157.494185 
L 202.31231 -156.536235 
L 206.298505 -156.825252 
L 210.284701 -156.602303 
L 214.270897 -158.957716 
L 218.257092 -163.19745 
L 222.243288 -164.818796 
L 226.229484 -163.71993 
L 230.215679 -162.577795 
L 234.201875 -160.849396 
L 238.188071 -160.468658 
L 242.174266 -162.883457 
L 246.160462 -164.727657 
L 250.146658 -166.642921 
L 254.132853 -168.372943 
L 258.119049 -167.70261 
L 262.105245 -167.814384 
L 266.09144 -170.534959 
L 270.077636 -172.667392 
L 274.063832 -173.25716 
L 278.050027 -173.945906 
L 282.036223 -174.236066 
L 286.022418 -173.788119 
L 290.008614 -174.403944 
L 293.99481 -175.924621 
L 297.981005 -174.673116 
L 301.967201 -172.166213 
L 305.953397 -173.324742 
L 309.939592 -176.517833 
L 313.925788 -178.170738 
L 317.911984 -179.481802 
L 321.898179 -180.593686 
L 325.884375 -180.612693 
L 329.870571 -180.753857 
L 333.856766 -181.363476 
L 337.842962 -182.816772 
L 341.829158 -184.451688 
L 345.815353 -185.088297 
L 349.801549 -184.592089 
L 353.787745 -183.882466 
L 357.77394 -184.796363 
L 361.760136 -186.509842 
L 365.746332 -187.452582 
L 369.732527 -187.613134 
L 373.718723 -188.050101 
L 377.704918 -188.920625 
L 381.691114 -189.574093 
L 385.67731 -189.938905 
L 389.663505 -190.232856 
L 393.649701 -190.505402 
L 397.635897 -190.967219 
L 401.622092 -191.28266 
L 405.608288 -191.255586 
L 409.594484 -191.080928 
L 413.580679 -190.970857 
L 417.566875 -190.946309 
L 417.566875 -190.935197 
L 417.566875 -190.935197 
L 413.580679 -190.831547 
L 409.594484 -190.341611 
L 405.608288 -189.23424 
L 401.622092 -187.143967 
L 397.635897 -184.113952 
L 393.649701 -182.426662 
L 389.663505 -182.357312 
L 385.67731 -181.423508 
L 381.691114 -180.108982 
L 377.704918 -179.144254 
L 373.718723 -177.619334 
L 369.732527 -176.060537 
L 365.746332 -174.69308 
L 361.760136 -172.200785 
L 357.77394 -169.18225 
L 353.787745 -167.826993 
L 349.801549 -169.091963 
L 345.815353 -170.36889 
L 341.829158 -169.333498 
L 337.842962 -166.108609 
L 333.856766 -163.582412 
L 329.870571 -162.276139 
L 325.884375 -161.044019 
L 321.898179 -160.716049 
L 317.911984 -159.973219 
L 313.925788 -158.807343 
L 309.939592 -156.984174 
L 305.953397 -152.546897 
L 301.967201 -150.147373 
L 297.981005 -152.626963 
L 293.99481 -153.819748 
L 290.008614 -151.628329 
L 286.022418 -150.434603 
L 282.036223 -150.701787 
L 278.050027 -150.35744 
L 274.063832 -149.315645 
L 270.077636 -148.457143 
L 266.09144 -144.430472 
L 262.105245 -140.321017 
L 258.119049 -141.316416 
L 254.132853 -141.74917 
L 250.146658 -139.440687 
L 246.160462 -137.978601 
L 242.174266 -136.257405 
L 238.188071 -133.000659 
L 234.201875 -132.267515 
L 230.215679 -133.294923 
L 226.229484 -134.072408 
L 222.243288 -135.745197 
L 218.257092 -133.747154 
L 214.270897 -127.618852 
L 210.284701 -124.583178 
L 206.298505 -125.146126 
L 202.31231 -123.497383 
L 198.326114 -123.612902 
L 194.339918 -126.970715 
L 190.353723 -128.325935 
L 186.367527 -127.042895 
L 182.381332 -126.263895 
L 178.395136 -128.07834 
L 174.40894 -124.017178 
L 170.422745 -118.735805 
L 166.436549 -117.344745 
L 162.450353 -120.057282 
L 158.464158 -121.986203 
L 154.477962 -119.679468 
L 150.491766 -117.939723 
L 146.505571 -113.923789 
L 142.519375 -110.901216 
L 138.533179 -117.28405 
L 134.546984 -122.762266 
L 130.560788 -118.902235 
L 126.574592 -114.055942 
L 122.588397 -111.864232 
L 118.602201 -111.863744 
L 114.616005 -113.842296 
L 110.62981 -117.428373 
L 106.643614 -123.07027 
L 102.657418 -125.94001 
L 98.671223 -124.085302 
L 94.685027 -115.855102 
L 90.698832 -105.10835 
L 86.712636 -106.836958 
L 82.72644 -113.116448 
L 78.740245 -108.367844 
L 74.754049 -99.545444 
L 70.767853 -96.779182 
L 66.781658 -104.226524 
L 62.795462 -107.498034 
L 58.809266 -100.09086 
L 54.823071 -96.558482 
L 50.836875 -99.739 
z
" style="stroke: #1b9e77; stroke-opacity: 0.1"/>
    </defs>
    <g clip-path="url(#p797b91acd2)">
     <use xlink:href="#m3883aeb933" x="0" y="424.105312" style="fill: #1b9e77; fill-opacity: 0.1; stroke: #1b9e77; stroke-opacity: 0.1"/>
    </g>
   </g>
   <g id="line2d_24">
    <path d="M 50.836875 248.112812 
L 54.823071 241.078731 
L 58.809266 228.619382 
L 62.795462 218.010128 
L 66.781658 222.355198 
L 70.767853 230.236902 
L 74.754049 239.811045 
L 78.740245 246.290504 
L 82.72644 232.40956 
L 86.712636 219.234983 
L 90.698832 217.376524 
L 94.685027 204.626632 
L 98.671223 198.263944 
L 102.657418 200.601167 
L 106.643614 203.064651 
L 110.62981 198.082378 
L 114.616005 194.493552 
L 118.602201 196.119654 
L 122.588397 185.979634 
L 126.574592 174.520294 
L 130.560788 177.948466 
L 134.546984 188.322697 
L 138.533179 189.678583 
L 142.519375 177.828294 
L 146.505571 165.554496 
L 150.491766 165.649542 
L 154.477962 168.533948 
L 158.464158 172.060426 
L 162.450353 170.865595 
L 166.436549 167.493122 
L 170.422745 170.236888 
L 174.40894 169.908924 
L 178.395136 164.730149 
L 182.381332 163.26292 
L 186.367527 170.261194 
L 190.353723 175.886547 
L 194.339918 171.62373 
L 198.326114 160.230572 
L 202.31231 156.108148 
L 206.298505 161.013244 
L 210.284701 159.438184 
L 214.270897 156.632213 
L 218.257092 159.476167 
L 222.243288 160.206503 
L 226.229484 162.461724 
L 230.215679 167.092228 
L 234.201875 164.621882 
L 238.188071 159.142182 
L 242.174266 154.298099 
L 246.160462 146.664861 
L 250.146658 138.506895 
L 254.132853 136.538917 
L 258.119049 136.336622 
L 262.105245 133.440152 
L 266.09144 131.783702 
L 270.077636 132.945916 
L 274.063832 136.398984 
L 278.050027 138.443062 
L 282.036223 138.376318 
L 286.022418 138.362752 
L 290.008614 138.007932 
L 293.99481 137.980255 
L 297.981005 138.216192 
L 301.967201 139.791143 
L 305.953397 136.213044 
L 309.939592 127.602238 
L 313.925788 124.621754 
L 317.911984 127.397426 
L 321.898179 130.319079 
L 325.884375 132.803096 
L 329.870571 132.281772 
L 333.856766 131.054412 
L 337.842962 133.819602 
L 341.829158 136.828587 
L 345.815353 133.785489 
L 349.801549 128.500557 
L 353.787745 126.288899 
L 357.77394 128.420821 
L 361.760136 131.102359 
L 365.746332 131.571578 
L 369.732527 131.476806 
L 373.718723 132.639548 
L 377.704918 133.331203 
L 381.691114 132.668467 
L 385.67731 132.16686 
L 389.663505 132.498924 
L 393.649701 132.695638 
L 397.635897 133.46042 
L 401.622092 134.912627 
L 405.608288 135.772571 
L 409.594484 135.959678 
L 413.580679 135.974858 
L 417.566875 135.975312 
" clip-path="url(#p797b91acd2)" style="fill: none; stroke: #66a61e; stroke-width: 2; stroke-linecap: square"/>
   </g>
   <g id="line2d_25">
    <path d="M 50.836875 248.112812 
L 54.823071 230.848383 
L 58.809266 210.59356 
L 62.795462 198.884007 
L 66.781658 206.671145 
L 70.767853 212.454371 
L 74.754049 216.579269 
L 78.740245 220.994715 
L 82.72644 208.70024 
L 86.712636 197.512618 
L 90.698832 196.501063 
L 94.685027 185.01597 
L 98.671223 177.916703 
L 102.657418 176.927639 
L 106.643614 178.650812 
L 110.62981 176.198361 
L 114.616005 173.886369 
L 118.602201 174.160494 
L 122.588397 164.093971 
L 126.574592 153.723726 
L 130.560788 156.537361 
L 134.546984 166.280056 
L 138.533179 168.011316 
L 142.519375 156.809743 
L 146.505571 145.286126 
L 150.491766 145.374964 
L 154.477962 147.42936 
L 158.464158 150.41522 
L 162.450353 150.321491 
L 166.436549 148.263696 
L 170.422745 150.806318 
L 174.40894 150.561853 
L 178.395136 146.697969 
L 182.381332 145.575198 
L 186.367527 151.135573 
L 190.353723 156.081183 
L 194.339918 153.03588 
L 198.326114 141.998826 
L 202.31231 135.873874 
L 206.298505 139.443198 
L 210.284701 139.988066 
L 214.270897 139.391696 
L 218.257092 142.30934 
L 222.243288 142.194559 
L 226.229484 142.727016 
L 230.215679 145.657178 
L 234.201875 143.189593 
L 238.188071 138.292504 
L 242.174266 134.022173 
L 246.160462 127.618952 
L 250.146658 121.261461 
L 254.132853 120.300694 
L 258.119049 121.052451 
L 262.105245 119.898414 
L 266.09144 119.139322 
L 270.077636 119.988541 
L 274.063832 122.179212 
L 278.050027 123.236831 
L 282.036223 123.140909 
L 286.022418 122.779964 
L 290.008614 122.932609 
L 293.99481 124.377184 
L 297.981005 124.911845 
L 301.967201 125.268657 
L 305.953397 122.597131 
L 309.939592 116.227354 
L 313.925788 113.616553 
L 317.911984 116.451192 
L 321.898179 120.042142 
L 325.884375 122.34335 
L 329.870571 121.360442 
L 333.856766 119.458442 
L 337.842962 121.720509 
L 341.829158 124.768217 
L 345.815353 122.713071 
L 349.801549 118.602724 
L 353.787745 117.111711 
L 357.77394 120.037978 
L 361.760136 123.508278 
L 365.746332 124.589621 
L 369.732527 124.93539 
L 373.718723 126.585846 
L 377.704918 127.771345 
L 381.691114 126.603229 
L 385.67731 126.184579 
L 389.663505 127.804143 
L 393.649701 128.86236 
L 397.635897 130.651147 
L 401.622092 133.71541 
L 405.608288 135.541409 
L 409.594484 135.94174 
L 413.580679 135.974334 
L 417.566875 135.975312 
" clip-path="url(#p797b91acd2)" style="fill: none; stroke-dasharray: 3.7,1.6; stroke-dashoffset: 0; stroke: #66a61e"/>
   </g>
   <g id="line2d_26">
    <path d="M 50.836875 248.112812 
L 54.823071 261.539427 
L 58.809266 264.671027 
L 62.795462 256.262369 
L 66.781658 253.723305 
L 70.767853 265.801964 
L 74.754049 286.274597 
L 78.740245 296.882081 
L 82.72644 279.828199 
L 86.712636 262.679713 
L 90.698832 259.127446 
L 94.685027 243.847956 
L 98.671223 238.958425 
L 102.657418 247.948224 
L 106.643614 251.89233 
L 110.62981 241.850413 
L 114.616005 235.707918 
L 118.602201 240.037976 
L 122.588397 229.750958 
L 126.574592 216.113431 
L 130.560788 220.770678 
L 134.546984 232.407981 
L 138.533179 233.013118 
L 142.519375 219.865395 
L 146.505571 206.091238 
L 150.491766 206.198699 
L 154.477962 210.743126 
L 158.464158 215.350837 
L 162.450353 211.953804 
L 166.436549 205.951975 
L 170.422745 209.098028 
L 174.40894 208.603067 
L 178.395136 200.794509 
L 182.381332 198.638364 
L 186.367527 208.512436 
L 190.353723 215.497276 
L 194.339918 208.79943 
L 198.326114 196.694063 
L 202.31231 196.576696 
L 206.298505 204.153338 
L 210.284701 198.338422 
L 214.270897 191.113246 
L 218.257092 193.809819 
L 222.243288 196.230393 
L 226.229484 201.93114 
L 230.215679 209.962327 
L 234.201875 207.486459 
L 238.188071 200.841537 
L 242.174266 194.849953 
L 246.160462 184.75668 
L 250.146658 172.997762 
L 254.132853 169.015362 
L 258.119049 166.904963 
L 262.105245 160.523628 
L 266.09144 157.072461 
L 270.077636 158.860666 
L 274.063832 164.838528 
L 278.050027 168.855523 
L 282.036223 168.847136 
L 286.022418 169.528328 
L 290.008614 168.158577 
L 293.99481 165.186399 
L 297.981005 164.824886 
L 301.967201 168.836115 
L 305.953397 163.444869 
L 309.939592 150.352006 
L 313.925788 146.632156 
L 317.911984 149.289893 
L 321.898179 150.872951 
L 325.884375 153.72259 
L 329.870571 154.124433 
L 333.856766 154.24635 
L 337.842962 158.017786 
L 341.829158 160.949328 
L 345.815353 155.930327 
L 349.801549 148.296222 
L 353.787745 144.643276 
L 357.77394 145.186507 
L 361.760136 146.29052 
L 365.746332 145.535493 
L 369.732527 144.559639 
L 373.718723 144.746951 
L 377.704918 144.450921 
L 381.691114 144.798943 
L 385.67731 144.131423 
L 389.663505 141.888487 
L 393.649701 140.362194 
L 397.635897 139.078967 
L 401.622092 137.307061 
L 405.608288 136.234895 
L 409.594484 135.995553 
L 413.580679 135.975906 
L 417.566875 135.975312 
" clip-path="url(#p797b91acd2)" style="fill: none; stroke-dasharray: 3.7,1.6; stroke-dashoffset: 0; stroke: #66a61e"/>
   </g>
   <g id="line2d_27">
    <path d="M 50.836875 288.482312 
L 54.823071 289.0487 
L 58.809266 279.771422 
L 62.795462 255.771945 
L 66.781658 243.440992 
L 70.767853 262.535338 
L 74.754049 285.137508 
L 78.740245 296.211062 
L 82.72644 300.399148 
L 86.712636 302.649567 
L 90.698832 295.246023 
L 94.685027 291.898045 
L 98.671223 303.120929 
L 102.657418 310.872326 
L 106.643614 307.226854 
L 110.62981 299.191574 
L 114.616005 290.176725 
L 118.602201 291.618418 
L 122.588397 303.985699 
L 126.574592 311.079885 
L 130.560788 307.926971 
L 134.546984 301.039809 
L 138.533179 302.261126 
L 142.519375 308.533936 
L 146.505571 307.211478 
L 150.491766 304.981684 
L 154.477962 315.701841 
L 158.464158 324.863742 
L 162.450353 323.385381 
L 166.436549 318.508304 
L 170.422745 315.442076 
L 174.40894 316.677796 
L 178.395136 320.894792 
L 182.381332 323.026952 
L 186.367527 323.69729 
L 190.353723 327.617021 
L 194.339918 332.049404 
L 198.326114 329.968737 
L 202.31231 326.964197 
L 206.298505 329.53586 
L 210.284701 335.525825 
L 214.270897 336.814939 
L 218.257092 332.274367 
L 222.243288 331.176413 
L 226.229484 334.223269 
L 230.215679 336.31003 
L 234.201875 336.238649 
L 238.188071 335.9965 
L 242.174266 338.42525 
L 246.160462 340.677823 
L 250.146658 340.900833 
L 254.132853 340.1284 
L 258.119049 340.298024 
L 262.105245 342.20379 
L 266.09144 343.497218 
L 270.077636 344.201213 
L 274.063832 345.251107 
L 278.050027 347.56007 
L 282.036223 349.649023 
L 286.022418 350.253994 
L 290.008614 350.571841 
L 293.99481 349.863655 
L 297.981005 347.6228 
L 301.967201 345.734398 
L 305.953397 347.319726 
L 309.939592 349.941466 
L 313.925788 350.596073 
L 317.911984 351.106955 
L 321.898179 352.136062 
L 325.884375 351.699786 
L 329.870571 351.746432 
L 333.856766 353.355708 
L 337.842962 354.782724 
L 341.829158 355.071706 
L 345.815353 354.733229 
L 349.801549 353.643388 
L 353.787745 351.706672 
L 357.77394 350.84118 
L 361.760136 352.829323 
L 365.746332 355.454286 
L 369.732527 356.497877 
L 373.718723 356.817266 
L 377.704918 357.654896 
L 381.691114 358.463908 
L 385.67731 358.589852 
L 389.663505 358.307963 
L 393.649701 358.363992 
L 397.635897 358.916169 
L 401.622092 359.359663 
L 405.608288 359.658097 
L 409.594484 359.999858 
L 413.580679 360.201628 
L 417.566875 360.246408 
" clip-path="url(#p797b91acd2)" style="fill: none; stroke: #e7298a; stroke-width: 2; stroke-linecap: square"/>
   </g>
   <g id="line2d_28">
    <path d="M 50.836875 288.482312 
L 54.823071 284.471028 
L 58.809266 271.880686 
L 62.795462 245.25981 
L 66.781658 229.27886 
L 70.767853 245.717171 
L 74.754049 268.180039 
L 78.740245 279.397999 
L 82.72644 283.695078 
L 86.712636 286.521735 
L 90.698832 278.917137 
L 94.685027 275.47221 
L 98.671223 286.890279 
L 102.657418 294.4038 
L 106.643614 289.489647 
L 110.62981 280.193698 
L 114.616005 271.694359 
L 118.602201 275.052806 
L 122.588397 288.948423 
L 126.574592 296.656682 
L 130.560788 293.094238 
L 134.546984 285.220493 
L 138.533179 286.341321 
L 142.519375 292.98825 
L 146.505571 291.291338 
L 150.491766 288.45458 
L 154.477962 299.927833 
L 158.464158 309.551876 
L 162.450353 307.496299 
L 166.436549 302.870306 
L 170.422745 300.724687 
L 174.40894 302.065721 
L 178.395136 306.086706 
L 182.381332 309.200449 
L 186.367527 311.169154 
L 190.353723 316.133207 
L 194.339918 320.593407 
L 198.326114 317.585137 
L 202.31231 313.460215 
L 206.298505 315.460955 
L 210.284701 321.811947 
L 214.270897 323.921292 
L 218.257092 319.721642 
L 222.243288 318.896377 
L 226.229484 322.884057 
L 230.215679 325.588865 
L 234.201875 325.155532 
L 238.188071 324.484477 
L 242.174266 327.545012 
L 246.160462 330.39172 
L 250.146658 330.627576 
L 254.132853 329.822384 
L 258.119049 330.066232 
L 262.105245 332.470173 
L 266.09144 334.482497 
L 270.077636 335.503645 
L 274.063832 337.07329 
L 278.050027 340.260904 
L 282.036223 342.735011 
L 286.022418 343.348503 
L 290.008614 343.541499 
L 293.99481 342.71299 
L 297.981005 340.312547 
L 301.967201 337.972169 
L 305.953397 339.576638 
L 309.939592 342.950003 
L 313.925788 344.485137 
L 317.911984 345.37577 
L 321.898179 346.484993 
L 325.884375 346.089861 
L 329.870571 346.577517 
L 333.856766 348.616287 
L 337.842962 350.147907 
L 341.829158 350.605725 
L 345.815353 350.531827 
L 349.801549 349.473572 
L 353.787745 346.925978 
L 357.77394 345.679281 
L 361.760136 348.465033 
L 365.746332 351.935748 
L 369.732527 353.209243 
L 373.718723 353.711977 
L 377.704918 355.042715 
L 381.691114 356.373015 
L 385.67731 356.648739 
L 389.663505 356.245984 
L 393.649701 356.359612 
L 397.635897 357.242593 
L 401.622092 357.991325 
L 405.608288 358.681978 
L 409.594484 359.582953 
L 413.580679 360.12048 
L 417.566875 360.239897 
" clip-path="url(#p797b91acd2)" style="fill: none; stroke-dasharray: 3.7,1.6; stroke-dashoffset: 0; stroke: #e7298a"/>
   </g>
   <g id="line2d_29">
    <path d="M 50.836875 288.482312 
L 54.823071 298.204043 
L 58.809266 295.552894 
L 62.795462 276.796214 
L 66.781658 271.765256 
L 70.767853 296.171673 
L 74.754049 319.052445 
L 78.740245 329.837187 
L 82.72644 333.807288 
L 86.712636 334.905232 
L 90.698832 327.903793 
L 94.685027 324.749714 
L 98.671223 335.582229 
L 102.657418 343.809378 
L 106.643614 342.701268 
L 110.62981 337.187327 
L 114.616005 327.141456 
L 118.602201 324.749642 
L 122.588397 334.060251 
L 126.574592 339.92629 
L 130.560788 337.592436 
L 134.546984 332.678443 
L 138.533179 334.100735 
L 142.519375 339.625307 
L 146.505571 339.051759 
L 150.491766 338.035893 
L 154.477962 347.249857 
L 158.464158 355.487475 
L 162.450353 355.163546 
L 166.436549 349.7843 
L 170.422745 344.876856 
L 174.40894 345.901946 
L 178.395136 350.510964 
L 182.381332 350.679958 
L 186.367527 348.753563 
L 190.353723 350.584651 
L 194.339918 354.961398 
L 198.326114 354.735937 
L 202.31231 353.97216 
L 206.298505 357.685669 
L 210.284701 362.95358 
L 214.270897 362.602232 
L 218.257092 357.379817 
L 222.243288 355.736485 
L 226.229484 356.901692 
L 230.215679 357.75236 
L 234.201875 358.404883 
L 238.188071 359.020545 
L 242.174266 360.185727 
L 246.160462 361.250029 
L 250.146658 361.447347 
L 254.132853 360.740434 
L 258.119049 360.761607 
L 262.105245 361.671023 
L 266.09144 361.526658 
L 270.077636 361.596349 
L 274.063832 361.60674 
L 278.050027 362.158403 
L 282.036223 363.477045 
L 286.022418 364.064974 
L 290.008614 364.632525 
L 293.99481 364.164987 
L 297.981005 362.243307 
L 301.967201 361.258855 
L 305.953397 362.8059 
L 309.939592 363.924392 
L 313.925788 362.817945 
L 317.911984 362.569325 
L 321.898179 363.438201 
L 325.884375 362.919636 
L 329.870571 362.084262 
L 333.856766 362.834551 
L 337.842962 364.052358 
L 341.829158 364.003666 
L 345.815353 363.136035 
L 349.801549 361.983019 
L 353.787745 361.26806 
L 357.77394 361.164978 
L 361.760136 361.557903 
L 365.746332 362.491362 
L 369.732527 363.075145 
L 373.718723 363.027844 
L 377.704918 362.879258 
L 381.691114 362.645695 
L 385.67731 362.472078 
L 389.663505 362.431919 
L 393.649701 362.372753 
L 397.635897 362.263321 
L 401.622092 362.096339 
L 405.608288 361.610334 
L 409.594484 360.833668 
L 413.580679 360.363925 
L 417.566875 360.259429 
" clip-path="url(#p797b91acd2)" style="fill: none; stroke-dasharray: 3.7,1.6; stroke-dashoffset: 0; stroke: #e7298a"/>
   </g>
   <g id="line2d_30">
    <path d="M 50.836875 301.938812 
L 54.823071 287.281153 
L 58.809266 276.061301 
L 62.795462 277.082106 
L 66.781658 289.114059 
L 70.767853 293.442405 
L 74.754049 292.700024 
L 78.740245 296.260256 
L 82.72644 300.992145 
L 86.712636 302.807409 
L 90.698832 303.370787 
L 94.685027 310.22764 
L 98.671223 312.754702 
L 102.657418 307.278307 
L 106.643614 306.112268 
L 110.62981 305.929529 
L 114.616005 304.705877 
L 118.602201 307.032234 
L 122.588397 308.215651 
L 126.574592 306.593691 
L 130.560788 304.772951 
L 134.546984 305.622085 
L 138.533179 306.81619 
L 142.519375 301.669193 
L 146.505571 298.70922 
L 150.491766 305.606098 
L 154.477962 310.320477 
L 158.464158 312.622419 
L 162.450353 312.152793 
L 166.436549 308.064019 
L 170.422745 302.839285 
L 174.40894 298.119157 
L 178.395136 297.433076 
L 182.381332 301.929064 
L 186.367527 308.100825 
L 190.353723 310.370139 
L 194.339918 310.768091 
L 198.326114 312.207568 
L 202.31231 312.984155 
L 206.298505 311.953876 
L 210.284701 309.484497 
L 214.270897 307.745267 
L 218.257092 306.375449 
L 222.243288 303.818619 
L 226.229484 305.165686 
L 230.215679 306.499589 
L 234.201875 306.35125 
L 238.188071 306.411546 
L 242.174266 306.435581 
L 246.160462 306.031684 
L 250.146658 304.664294 
L 254.132853 303.902043 
L 258.119049 305.609566 
L 262.105245 310.594453 
L 266.09144 315.354461 
L 270.077636 316.400085 
L 274.063832 316.397644 
L 278.050027 315.423586 
L 282.036223 315.632246 
L 286.022418 316.337499 
L 290.008614 316.133205 
L 293.99481 315.387658 
L 297.981005 316.252337 
L 301.967201 318.059353 
L 305.953397 319.56283 
L 309.939592 319.83913 
L 313.925788 320.718585 
L 317.911984 321.289887 
L 321.898179 318.722661 
L 325.884375 316.519217 
L 329.870571 317.195752 
L 333.856766 318.265023 
L 337.842962 318.388939 
L 341.829158 318.945478 
L 345.815353 320.439955 
L 349.801549 321.071917 
L 353.787745 321.009105 
L 357.77394 321.452365 
L 361.760136 322.769671 
L 365.746332 324.451917 
L 369.732527 325.114201 
L 373.718723 324.497447 
L 377.704918 325.10283 
L 381.691114 327.628123 
L 385.67731 329.554719 
L 389.663505 330.730072 
L 393.649701 331.720895 
L 397.635897 332.127404 
L 401.622092 332.025005 
L 405.608288 332.248202 
L 409.594484 333.330287 
L 413.580679 334.156559 
L 417.566875 334.354665 
" clip-path="url(#p797b91acd2)" style="fill: none; stroke: #7570b3; stroke-width: 2; stroke-linecap: square"/>
   </g>
   <g id="line2d_31">
    <path d="M 50.836875 301.938812 
L 54.823071 283.968877 
L 58.809266 269.127391 
L 62.795462 266.440903 
L 66.781658 276.376233 
L 70.767853 280.768243 
L 74.754049 280.631082 
L 78.740245 284.083212 
L 82.72644 289.267566 
L 86.712636 292.623926 
L 90.698832 293.373173 
L 94.685027 299.742492 
L 98.671223 302.027056 
L 102.657418 295.461411 
L 106.643614 293.343392 
L 110.62981 293.774877 
L 114.616005 293.340033 
L 118.602201 295.996553 
L 122.588397 297.71084 
L 126.574592 296.18913 
L 130.560788 294.813173 
L 134.546984 295.937387 
L 138.533179 296.378205 
L 142.519375 290.812949 
L 146.505571 288.157097 
L 150.491766 294.934513 
L 154.477962 299.240691 
L 158.464158 301.781452 
L 162.450353 301.400655 
L 166.436549 296.975276 
L 170.422745 291.704214 
L 174.40894 287.233626 
L 178.395136 286.748279 
L 182.381332 291.250873 
L 186.367527 297.705305 
L 190.353723 300.209162 
L 194.339918 300.091634 
L 198.326114 301.339361 
L 202.31231 302.431886 
L 206.298505 301.273855 
L 210.284701 298.600522 
L 214.270897 297.08608 
L 218.257092 295.866371 
L 222.243288 292.890939 
L 226.229484 293.751332 
L 230.215679 295.364151 
L 234.201875 295.854717 
L 238.188071 296.064391 
L 242.174266 295.883588 
L 246.160462 295.145373 
L 250.146658 293.599089 
L 254.132853 293.114724 
L 258.119049 295.402241 
L 262.105245 301.349047 
L 266.09144 306.689889 
L 270.077636 307.358626 
L 274.063832 306.72482 
L 278.050027 305.271676 
L 282.036223 305.590454 
L 286.022418 306.96281 
L 290.008614 307.30333 
L 293.99481 306.59789 
L 297.981005 307.367637 
L 301.967201 309.295452 
L 305.953397 311.323037 
L 309.939592 311.792081 
L 313.925788 312.517847 
L 317.911984 312.923052 
L 321.898179 310.128384 
L 325.884375 307.889956 
L 329.870571 308.800966 
L 333.856766 310.007252 
L 337.842962 310.088164 
L 341.829158 310.725574 
L 345.815353 312.42812 
L 349.801549 313.092388 
L 353.787745 313.080166 
L 357.77394 313.711719 
L 361.760136 315.364887 
L 365.746332 317.511097 
L 369.732527 318.410259 
L 373.718723 317.654266 
L 377.704918 318.549171 
L 381.691114 322.01558 
L 385.67731 324.647264 
L 389.663505 326.396491 
L 393.649701 328.031693 
L 397.635897 328.750544 
L 401.622092 328.676534 
L 405.608288 329.496664 
L 409.594484 332.060502 
L 413.580679 333.900592 
L 417.566875 334.33383 
" clip-path="url(#p797b91acd2)" style="fill: none; stroke-dasharray: 3.7,1.6; stroke-dashoffset: 0; stroke: #7570b3"/>
   </g>
   <g id="line2d_32">
    <path d="M 50.836875 301.938812 
L 54.823071 293.905704 
L 58.809266 289.92912 
L 62.795462 298.364513 
L 66.781658 314.589712 
L 70.767853 318.790729 
L 74.754049 316.837909 
L 78.740245 320.614344 
L 82.72644 324.441301 
L 86.712636 323.174374 
L 90.698832 323.366015 
L 94.685027 331.197936 
L 98.671223 334.209993 
L 102.657418 330.912099 
L 106.643614 331.65002 
L 110.62981 330.238833 
L 114.616005 327.437563 
L 118.602201 329.103597 
L 122.588397 329.225274 
L 126.574592 327.402813 
L 130.560788 324.692507 
L 134.546984 324.991483 
L 138.533179 327.692162 
L 142.519375 323.381679 
L 146.505571 319.813466 
L 150.491766 326.94927 
L 154.477962 332.480049 
L 158.464158 334.304353 
L 162.450353 333.65707 
L 166.436549 330.241505 
L 170.422745 325.109427 
L 174.40894 319.890219 
L 178.395136 318.80267 
L 182.381332 323.285445 
L 186.367527 328.891864 
L 190.353723 330.692093 
L 194.339918 332.121006 
L 198.326114 333.943983 
L 202.31231 334.088693 
L 206.298505 333.313918 
L 210.284701 331.252446 
L 214.270897 329.063642 
L 218.257092 327.393605 
L 222.243288 325.673979 
L 226.229484 327.994396 
L 230.215679 328.770463 
L 234.201875 327.344317 
L 238.188071 327.105855 
L 242.174266 327.539566 
L 246.160462 327.804307 
L 250.146658 326.794702 
L 254.132853 325.47668 
L 258.119049 326.024216 
L 262.105245 329.085266 
L 266.09144 332.683605 
L 270.077636 334.483005 
L 274.063832 335.743291 
L 278.050027 335.727405 
L 282.036223 335.71583 
L 286.022418 335.086878 
L 290.008614 333.792957 
L 293.99481 332.967195 
L 297.981005 334.021736 
L 301.967201 335.587156 
L 305.953397 336.042417 
L 309.939592 335.933228 
L 313.925788 337.12006 
L 317.911984 338.023557 
L 321.898179 335.911214 
L 325.884375 333.777739 
L 329.870571 333.985324 
L 333.856766 334.780565 
L 337.842962 334.990488 
L 341.829158 335.385285 
L 345.815353 336.463624 
L 349.801549 337.030973 
L 353.787745 336.866985 
L 357.77394 336.933656 
L 361.760136 337.57924 
L 365.746332 338.333559 
L 369.732527 338.522085 
L 373.718723 338.183809 
L 377.704918 338.21015 
L 381.691114 338.85321 
L 385.67731 339.36963 
L 389.663505 339.397235 
L 393.649701 339.099299 
L 397.635897 338.881125 
L 401.622092 338.721945 
L 405.608288 337.751279 
L 409.594484 335.869858 
L 413.580679 334.668495 
L 417.566875 334.396333 
" clip-path="url(#p797b91acd2)" style="fill: none; stroke-dasharray: 3.7,1.6; stroke-dashoffset: 0; stroke: #7570b3"/>
   </g>
   <g id="line2d_33">
    <path d="M 50.836875 324.366312 
L 54.823071 300.883009 
L 58.809266 280.027504 
L 62.795462 266.370535 
L 66.781658 269.527025 
L 70.767853 289.438275 
L 74.754049 302.618481 
L 78.740245 303.910516 
L 82.72644 308.799466 
L 86.712636 304.665449 
L 90.698832 297.761715 
L 94.685027 297.553368 
L 98.671223 301.941623 
L 102.657418 301.635425 
L 106.643614 300.550845 
L 110.62981 298.611516 
L 114.616005 290.511576 
L 118.602201 285.909072 
L 122.588397 288.208137 
L 126.574592 287.479356 
L 130.560788 288.913646 
L 134.546984 289.754683 
L 138.533179 288.71629 
L 142.519375 290.276657 
L 146.505571 291.982566 
L 150.491766 289.522571 
L 154.477962 284.142261 
L 158.464158 283.127037 
L 162.450353 287.80562 
L 166.436549 294.776184 
L 170.422745 297.795152 
L 174.40894 295.545715 
L 178.395136 292.860951 
L 182.381332 290.091042 
L 186.367527 289.714103 
L 190.353723 289.585881 
L 194.339918 287.791305 
L 198.326114 284.364924 
L 202.31231 283.906221 
L 206.298505 286.964355 
L 210.284701 288.231272 
L 214.270897 283.849403 
L 218.257092 279.692384 
L 222.243288 281.397907 
L 226.229484 285.443023 
L 230.215679 287.382359 
L 234.201875 286.228819 
L 238.188071 283.884439 
L 242.174266 287.194245 
L 246.160462 292.91889 
L 250.146658 292.954677 
L 254.132853 287.105477 
L 258.119049 284.68818 
L 262.105245 286.928707 
L 266.09144 286.710152 
L 270.077636 285.100996 
L 274.063832 284.607929 
L 278.050027 283.567015 
L 282.036223 282.507268 
L 286.022418 281.619873 
L 290.008614 282.316409 
L 293.99481 285.467324 
L 297.981005 287.878494 
L 301.967201 288.406365 
L 305.953397 286.222656 
L 309.939592 284.190713 
L 313.925788 286.322909 
L 317.911984 291.045734 
L 321.898179 292.51404 
L 325.884375 288.19284 
L 329.870571 283.056628 
L 333.856766 279.866122 
L 337.842962 276.566657 
L 341.829158 275.957766 
L 345.815353 278.658205 
L 349.801549 280.131794 
L 353.787745 279.859324 
L 357.77394 279.75477 
L 361.760136 280.167798 
L 365.746332 279.837607 
L 369.732527 279.439492 
L 373.718723 280.12391 
L 377.704918 280.390099 
L 381.691114 278.177416 
L 385.67731 275.55074 
L 389.663505 275.637144 
L 393.649701 275.868146 
L 397.635897 275.390621 
L 401.622092 274.890955 
L 405.608288 274.149346 
L 409.594484 273.431532 
L 413.580679 273.102284 
L 417.566875 273.037613 
" clip-path="url(#p797b91acd2)" style="fill: none; stroke: #d95f02; stroke-width: 2; stroke-linecap: square"/>
   </g>
   <g id="line2d_34">
    <path d="M 50.836875 324.366312 
L 54.823071 297.356626 
L 58.809266 270.734761 
L 62.795462 250.651657 
L 66.781658 250.815583 
L 70.767853 269.738537 
L 74.754049 284.394573 
L 78.740245 287.917062 
L 82.72644 294.202549 
L 86.712636 289.685898 
L 90.698832 281.350626 
L 94.685027 280.152745 
L 98.671223 285.843005 
L 102.657418 287.329621 
L 106.643614 287.024458 
L 110.62981 284.591357 
L 114.616005 275.332916 
L 118.602201 270.880189 
L 122.588397 273.649374 
L 126.574592 273.23988 
L 130.560788 273.805382 
L 134.546984 273.388852 
L 138.533179 272.263664 
L 142.519375 274.456113 
L 146.505571 277.052613 
L 150.491766 275.475063 
L 154.477962 270.470187 
L 158.464158 269.359937 
L 162.450353 273.857995 
L 166.436549 280.443522 
L 170.422745 282.327138 
L 174.40894 279.788245 
L 178.395136 277.994479 
L 182.381332 275.736188 
L 186.367527 275.527078 
L 190.353723 275.427713 
L 194.339918 273.162082 
L 198.326114 269.37904 
L 202.31231 269.143693 
L 206.298505 273.09218 
L 210.284701 275.225077 
L 214.270897 270.581592 
L 218.257092 265.832494 
L 222.243288 267.00915 
L 226.229484 270.606626 
L 230.215679 272.7652 
L 234.201875 272.155732 
L 238.188071 269.692693 
L 242.174266 272.552401 
L 246.160462 278.270342 
L 250.146658 278.596705 
L 254.132853 272.801189 
L 258.119049 269.898053 
L 262.105245 272.204428 
L 266.09144 272.577794 
L 270.077636 271.270202 
L 274.063832 271.157895 
L 278.050027 270.513974 
L 282.036223 269.423323 
L 286.022418 268.356956 
L 290.008614 268.959129 
L 293.99481 272.29914 
L 297.981005 274.841598 
L 301.967201 275.571833 
L 305.953397 274.006013 
L 309.939592 272.363948 
L 313.925788 273.988162 
L 317.911984 278.174489 
L 321.898179 279.466002 
L 325.884375 275.519465 
L 329.870571 271.223828 
L 333.856766 269.077404 
L 337.842962 266.757873 
L 341.829158 266.009968 
L 345.815353 268.405205 
L 349.801549 270.288114 
L 353.787745 270.537456 
L 357.77394 270.855375 
L 361.760136 271.479168 
L 365.746332 271.419431 
L 369.732527 271.099151 
L 373.718723 271.648906 
L 377.704918 272.216951 
L 381.691114 271.270351 
L 385.67731 269.797604 
L 389.663505 269.921193 
L 393.649701 270.437884 
L 397.635897 270.740191 
L 401.622092 271.268701 
L 405.608288 271.911434 
L 409.594484 272.572721 
L 413.580679 272.943338 
L 417.566875 273.025123 
" clip-path="url(#p797b91acd2)" style="fill: none; stroke-dasharray: 3.7,1.6; stroke-dashoffset: 0; stroke: #d95f02"/>
   </g>
   <g id="line2d_35">
    <path d="M 50.836875 324.366312 
L 54.823071 307.935774 
L 58.809266 298.612991 
L 62.795462 297.808293 
L 66.781658 306.949909 
L 70.767853 328.837751 
L 74.754049 339.066296 
L 78.740245 335.897423 
L 82.72644 337.9933 
L 86.712636 334.624551 
L 90.698832 330.583892 
L 94.685027 332.354613 
L 98.671223 334.138859 
L 102.657418 330.247033 
L 106.643614 327.603619 
L 110.62981 326.651832 
L 114.616005 320.868897 
L 118.602201 315.966837 
L 122.588397 317.325664 
L 126.574592 315.958308 
L 130.560788 319.130173 
L 134.546984 322.486347 
L 138.533179 321.62154 
L 142.519375 321.917743 
L 146.505571 321.842473 
L 150.491766 317.617585 
L 154.477962 311.48641 
L 158.464158 310.661238 
L 162.450353 315.700869 
L 166.436549 323.441508 
L 170.422745 328.731179 
L 174.40894 327.060655 
L 178.395136 322.593896 
L 182.381332 318.800751 
L 186.367527 318.088154 
L 190.353723 317.902216 
L 194.339918 317.049752 
L 198.326114 314.336693 
L 202.31231 313.431277 
L 206.298505 314.708704 
L 210.284701 314.243661 
L 214.270897 310.385024 
L 218.257092 307.412165 
L 222.243288 310.175421 
L 226.229484 315.115817 
L 230.215679 316.616677 
L 234.201875 314.374992 
L 238.188071 312.26793 
L 242.174266 316.477933 
L 246.160462 322.215987 
L 250.146658 321.67062 
L 254.132853 315.714053 
L 258.119049 314.268433 
L 262.105245 316.377265 
L 266.09144 314.974869 
L 270.077636 312.762583 
L 274.063832 311.507998 
L 278.050027 309.673098 
L 282.036223 308.675159 
L 286.022418 308.145707 
L 290.008614 309.03097 
L 293.99481 311.803693 
L 297.981005 313.952285 
L 301.967201 314.075429 
L 305.953397 310.655941 
L 309.939592 307.844242 
L 313.925788 310.992403 
L 317.911984 316.788226 
L 321.898179 318.610117 
L 325.884375 313.53959 
L 329.870571 306.722228 
L 333.856766 301.443557 
L 337.842962 296.184226 
L 341.829158 295.853362 
L 345.815353 299.164204 
L 349.801549 299.819154 
L 353.787745 298.503061 
L 357.77394 297.55356 
L 361.760136 297.545058 
L 365.746332 296.673961 
L 369.732527 296.120172 
L 373.718723 297.073919 
L 377.704918 296.736393 
L 381.691114 291.991547 
L 385.67731 287.057012 
L 389.663505 287.069047 
L 393.649701 286.72867 
L 397.635897 284.691482 
L 401.622092 282.135463 
L 405.608288 278.625169 
L 409.594484 275.149153 
L 413.580679 273.420177 
L 417.566875 273.062593 
" clip-path="url(#p797b91acd2)" style="fill: none; stroke-dasharray: 3.7,1.6; stroke-dashoffset: 0; stroke: #d95f02"/>
   </g>
   <g id="line2d_36">
    <path d="M 50.836875 324.366312 
L 54.823071 315.170149 
L 58.809266 302.72945 
L 62.795462 292.115644 
L 66.781658 294.372183 
L 70.767853 301.606043 
L 74.754049 302.587795 
L 78.740245 296.403701 
L 82.72644 292.049625 
L 86.712636 296.897907 
L 90.698832 298.508538 
L 94.685027 290.694208 
L 98.671223 283.375429 
L 102.657418 279.914271 
L 106.643614 282.718354 
L 110.62981 287.687892 
L 114.616005 289.882397 
L 118.602201 291.73962 
L 122.588397 292.14583 
L 126.574592 290.657983 
L 130.560788 286.714558 
L 134.546984 283.210133 
L 138.533179 286.861649 
L 142.519375 291.541104 
L 146.505571 289.720064 
L 150.491766 286.480794 
L 154.477962 284.264377 
L 158.464158 281.249067 
L 162.450353 281.470806 
L 166.436549 283.764453 
L 170.422745 283.575984 
L 174.40894 279.634752 
L 178.395136 276.368596 
L 182.381332 277.566336 
L 186.367527 276.057227 
L 190.353723 274.488631 
L 194.339918 275.362566 
L 198.326114 277.904888 
L 202.31231 278.582028 
L 206.298505 277.839769 
L 210.284701 278.176051 
L 214.270897 275.593885 
L 218.257092 270.724628 
L 222.243288 268.977716 
L 226.229484 270.26789 
L 230.215679 271.288475 
L 234.201875 272.78321 
L 238.188071 272.792654 
L 242.174266 270.097206 
L 246.160462 268.294008 
L 250.146658 266.529803 
L 254.132853 264.606961 
L 258.119049 265.198101 
L 262.105245 265.455384 
L 266.09144 262.271849 
L 270.077636 259.508004 
L 274.063832 258.828657 
L 278.050027 258.022229 
L 282.036223 257.714006 
L 286.022418 258.101699 
L 290.008614 257.29324 
L 293.99481 255.548983 
L 297.981005 256.780914 
L 301.967201 259.278713 
L 305.953397 257.706519 
L 309.939592 254.098699 
L 313.925788 252.38904 
L 317.911984 251.126371 
L 321.898179 250.137505 
L 325.884375 250.015511 
L 329.870571 249.510694 
L 333.856766 248.668858 
L 337.842962 246.857928 
L 341.829158 244.693021 
L 345.815353 243.923484 
L 349.801549 244.679932 
L 353.787745 245.574671 
L 357.77394 244.513654 
L 361.760136 242.365156 
L 365.746332 240.905898 
L 369.732527 240.343044 
L 373.718723 239.532134 
L 377.704918 238.443478 
L 381.691114 237.686257 
L 385.67731 237.004874 
L 389.663505 236.497638 
L 393.649701 236.292823 
L 397.635897 235.422516 
L 401.622092 234.202217 
L 405.608288 233.523509 
L 409.594484 233.270824 
L 413.580679 233.180892 
L 417.566875 233.162708 
" clip-path="url(#p797b91acd2)" style="fill: none; stroke: #1b9e77; stroke-width: 2; stroke-linecap: square"/>
   </g>
   <g id="line2d_37">
    <path d="M 50.836875 324.366312 
L 54.823071 308.981808 
L 58.809266 292.086949 
L 62.795462 279.869827 
L 66.781658 281.618881 
L 70.767853 288.745999 
L 74.754049 291.601759 
L 78.740245 286.736817 
L 82.72644 282.580005 
L 86.712636 286.712683 
L 90.698832 288.264326 
L 94.685027 281.916207 
L 98.671223 275.053139 
L 102.657418 270.788755 
L 106.643614 273.560009 
L 110.62981 278.193368 
L 114.616005 279.692088 
L 118.602201 281.488646 
L 122.588397 282.098205 
L 126.574592 280.96229 
L 130.560788 277.470298 
L 134.546984 274.143676 
L 138.533179 276.881842 
L 142.519375 280.709607 
L 146.505571 279.489335 
L 150.491766 276.638397 
L 154.477962 274.183643 
L 158.464158 270.814045 
L 162.450353 270.182194 
L 166.436549 272.266395 
L 170.422745 272.679223 
L 174.40894 269.408061 
L 178.395136 266.539407 
L 182.381332 267.428795 
L 186.367527 265.554632 
L 190.353723 263.843258 
L 194.339918 264.47655 
L 198.326114 266.611127 
L 202.31231 267.569078 
L 206.298505 267.28006 
L 210.284701 267.50301 
L 214.270897 265.147597 
L 218.257092 260.907863 
L 222.243288 259.286516 
L 226.229484 260.385383 
L 230.215679 261.527518 
L 234.201875 263.255916 
L 238.188071 263.636654 
L 242.174266 261.221855 
L 246.160462 259.377656 
L 250.146658 257.462391 
L 254.132853 255.732369 
L 258.119049 256.402703 
L 262.105245 256.290929 
L 266.09144 253.570354 
L 270.077636 251.437921 
L 274.063832 250.848152 
L 278.050027 250.159407 
L 282.036223 249.869247 
L 286.022418 250.317193 
L 290.008614 249.701368 
L 293.99481 248.180692 
L 297.981005 249.432197 
L 301.967201 251.9391 
L 305.953397 250.78057 
L 309.939592 247.587479 
L 313.925788 245.934575 
L 317.911984 244.62351 
L 321.898179 243.511626 
L 325.884375 243.492619 
L 329.870571 243.351455 
L 333.856766 242.741837 
L 337.842962 241.288541 
L 341.829158 239.653625 
L 345.815353 239.017015 
L 349.801549 239.513223 
L 353.787745 240.222847 
L 357.77394 239.30895 
L 361.760136 237.595471 
L 365.746332 236.65273 
L 369.732527 236.492178 
L 373.718723 236.055212 
L 377.704918 235.184688 
L 381.691114 234.53122 
L 385.67731 234.166408 
L 389.663505 233.872456 
L 393.649701 233.59991 
L 397.635897 233.138094 
L 401.622092 232.822653 
L 405.608288 232.849726 
L 409.594484 233.024385 
L 413.580679 233.134456 
L 417.566875 233.159004 
" clip-path="url(#p797b91acd2)" style="fill: none; stroke-dasharray: 3.7,1.6; stroke-dashoffset: 0; stroke: #1b9e77"/>
   </g>
   <g id="line2d_38">
    <path d="M 50.836875 324.366312 
L 54.823071 327.54683 
L 58.809266 324.014453 
L 62.795462 316.607278 
L 66.781658 319.878789 
L 70.767853 327.326131 
L 74.754049 324.559869 
L 78.740245 315.737469 
L 82.72644 310.988864 
L 86.712636 317.268354 
L 90.698832 318.996962 
L 94.685027 308.25021 
L 98.671223 300.02001 
L 102.657418 298.165303 
L 106.643614 301.035043 
L 110.62981 306.67694 
L 114.616005 310.263017 
L 118.602201 312.241568 
L 122.588397 312.241081 
L 126.574592 310.04937 
L 130.560788 305.203077 
L 134.546984 301.343046 
L 138.533179 306.821262 
L 142.519375 313.204097 
L 146.505571 310.181523 
L 150.491766 306.165589 
L 154.477962 304.425844 
L 158.464158 302.119109 
L 162.450353 304.048031 
L 166.436549 306.760567 
L 170.422745 305.369507 
L 174.40894 300.088135 
L 178.395136 296.026972 
L 182.381332 297.841418 
L 186.367527 297.062417 
L 190.353723 295.779378 
L 194.339918 297.134598 
L 198.326114 300.492411 
L 202.31231 300.607929 
L 206.298505 298.959186 
L 210.284701 299.522135 
L 214.270897 296.486461 
L 218.257092 290.358158 
L 222.243288 288.360115 
L 226.229484 290.032904 
L 230.215679 290.810389 
L 234.201875 291.837797 
L 238.188071 291.104654 
L 242.174266 287.847908 
L 246.160462 286.126712 
L 250.146658 284.664626 
L 254.132853 282.356143 
L 258.119049 282.788896 
L 262.105245 283.784296 
L 266.09144 279.674841 
L 270.077636 275.648169 
L 274.063832 274.789668 
L 278.050027 273.747872 
L 282.036223 273.403526 
L 286.022418 273.67071 
L 290.008614 272.476983 
L 293.99481 270.285565 
L 297.981005 271.47835 
L 301.967201 273.957939 
L 305.953397 271.558416 
L 309.939592 267.121138 
L 313.925788 265.297969 
L 317.911984 264.132094 
L 321.898179 263.389263 
L 325.884375 263.061293 
L 329.870571 261.829173 
L 333.856766 260.5229 
L 337.842962 257.996704 
L 341.829158 254.771815 
L 345.815353 253.736423 
L 349.801549 255.013349 
L 353.787745 256.27832 
L 357.77394 254.923062 
L 361.760136 251.904527 
L 365.746332 249.412232 
L 369.732527 248.044775 
L 373.718723 246.485979 
L 377.704918 244.961058 
L 381.691114 243.996331 
L 385.67731 242.681805 
L 389.663505 241.748001 
L 393.649701 241.67865 
L 397.635897 239.991361 
L 401.622092 236.961345 
L 405.608288 234.871073 
L 409.594484 233.763702 
L 413.580679 233.273765 
L 417.566875 233.170116 
" clip-path="url(#p797b91acd2)" style="fill: none; stroke-dasharray: 3.7,1.6; stroke-dashoffset: 0; stroke: #1b9e77"/>
   </g>
   <g id="patch_3">
    <path d="M 50.836875 382.677812 
L 50.836875 23.837812 
" style="fill: none; stroke: #000000; stroke-width: 0.8; stroke-linejoin: miter; stroke-linecap: square"/>
   </g>
   <g id="patch_4">
    <path d="M 417.566875 382.677812 
L 417.566875 23.837812 
" style="fill: none; stroke: #000000; stroke-width: 0.8; stroke-linejoin: miter; stroke-linecap: square"/>
   </g>
   <g id="patch_5">
    <path d="M 50.836875 382.677812 
L 417.566875 382.677812 
" style="fill: none; stroke: #000000; stroke-width: 0.8; stroke-linejoin: miter; stroke-linecap: square"/>
   </g>
   <g id="patch_6">
    <path d="M 50.836875 23.837812 
L 417.566875 23.837812 
" style="fill: none; stroke: #000000; stroke-width: 0.8; stroke-linejoin: miter; stroke-linecap: square"/>
   </g>
   <g id="text_17">
    <!-- Weighted By Expertise -->
    <g transform="translate(154.831719 17.837812) scale(0.14 -0.14)">
     <defs>
      <path id="DejaVuSans-57" d="M 213 4666 
L 850 4666 
L 1831 722 
L 2809 4666 
L 3519 4666 
L 4500 722 
L 5478 4666 
L 6119 4666 
L 4947 0 
L 4153 0 
L 3169 4050 
L 2175 0 
L 1381 0 
L 213 4666 
z
" transform="scale(0.015625)"/>
      <path id="DejaVuSans-67" d="M 2906 1791 
Q 2906 2416 2648 2759 
Q 2391 3103 1925 3103 
Q 1463 3103 1205 2759 
Q 947 2416 947 1791 
Q 947 1169 1205 825 
Q 1463 481 1925 481 
Q 2391 481 2648 825 
Q 2906 1169 2906 1791 
z
M 3481 434 
Q 3481 -459 3084 -895 
Q 2688 -1331 1869 -1331 
Q 1566 -1331 1297 -1286 
Q 1028 -1241 775 -1147 
L 775 -588 
Q 1028 -725 1275 -790 
Q 1522 -856 1778 -856 
Q 2344 -856 2625 -561 
Q 2906 -266 2906 331 
L 2906 616 
Q 2728 306 2450 153 
Q 2172 0 1784 0 
Q 1141 0 747 490 
Q 353 981 353 1791 
Q 353 2603 747 3093 
Q 1141 3584 1784 3584 
Q 2172 3584 2450 3431 
Q 2728 3278 2906 2969 
L 2906 3500 
L 3481 3500 
L 3481 434 
z
" transform="scale(0.015625)"/>
      <path id="DejaVuSans-68" d="M 3513 2113 
L 3513 0 
L 2938 0 
L 2938 2094 
Q 2938 2591 2744 2837 
Q 2550 3084 2163 3084 
Q 1697 3084 1428 2787 
Q 1159 2491 1159 1978 
L 1159 0 
L 581 0 
L 581 4863 
L 1159 4863 
L 1159 2956 
Q 1366 3272 1645 3428 
Q 1925 3584 2291 3584 
Q 2894 3584 3203 3211 
Q 3513 2838 3513 2113 
z
" transform="scale(0.015625)"/>
      <path id="DejaVuSans-64" d="M 2906 2969 
L 2906 4863 
L 3481 4863 
L 3481 0 
L 2906 0 
L 2906 525 
Q 2725 213 2448 61 
Q 2172 -91 1784 -91 
Q 1150 -91 751 415 
Q 353 922 353 1747 
Q 353 2572 751 3078 
Q 1150 3584 1784 3584 
Q 2172 3584 2448 3432 
Q 2725 3281 2906 2969 
z
M 947 1747 
Q 947 1113 1208 752 
Q 1469 391 1925 391 
Q 2381 391 2643 752 
Q 2906 1113 2906 1747 
Q 2906 2381 2643 2742 
Q 2381 3103 1925 3103 
Q 1469 3103 1208 2742 
Q 947 2381 947 1747 
z
" transform="scale(0.015625)"/>
      <path id="DejaVuSans-42" d="M 1259 2228 
L 1259 519 
L 2272 519 
Q 2781 519 3026 730 
Q 3272 941 3272 1375 
Q 3272 1813 3026 2020 
Q 2781 2228 2272 2228 
L 1259 2228 
z
M 1259 4147 
L 1259 2741 
L 2194 2741 
Q 2656 2741 2882 2914 
Q 3109 3088 3109 3444 
Q 3109 3797 2882 3972 
Q 2656 4147 2194 4147 
L 1259 4147 
z
M 628 4666 
L 2241 4666 
Q 2963 4666 3353 4366 
Q 3744 4066 3744 3513 
Q 3744 3084 3544 2831 
Q 3344 2578 2956 2516 
Q 3422 2416 3680 2098 
Q 3938 1781 3938 1306 
Q 3938 681 3513 340 
Q 3088 0 2303 0 
L 628 0 
L 628 4666 
z
" transform="scale(0.015625)"/>
      <path id="DejaVuSans-79" d="M 2059 -325 
Q 1816 -950 1584 -1140 
Q 1353 -1331 966 -1331 
L 506 -1331 
L 506 -850 
L 844 -850 
Q 1081 -850 1212 -737 
Q 1344 -625 1503 -206 
L 1606 56 
L 191 3500 
L 800 3500 
L 1894 763 
L 2988 3500 
L 3597 3500 
L 2059 -325 
z
" transform="scale(0.015625)"/>
      <path id="DejaVuSans-45" d="M 628 4666 
L 3578 4666 
L 3578 4134 
L 1259 4134 
L 1259 2753 
L 3481 2753 
L 3481 2222 
L 1259 2222 
L 1259 531 
L 3634 531 
L 3634 0 
L 628 0 
L 628 4666 
z
" transform="scale(0.015625)"/>
      <path id="DejaVuSans-78" d="M 3513 3500 
L 2247 1797 
L 3578 0 
L 2900 0 
L 1881 1375 
L 863 0 
L 184 0 
L 1544 1831 
L 300 3500 
L 978 3500 
L 1906 2253 
L 2834 3500 
L 3513 3500 
z
" transform="scale(0.015625)"/>
     </defs>
     <use xlink:href="#DejaVuSans-57"/>
     <use xlink:href="#DejaVuSans-65" x="93.001953"/>
     <use xlink:href="#DejaVuSans-69" x="154.525391"/>
     <use xlink:href="#DejaVuSans-67" x="182.308594"/>
     <use xlink:href="#DejaVuSans-68" x="245.785156"/>
     <use xlink:href="#DejaVuSans-74" x="309.164062"/>
     <use xlink:href="#DejaVuSans-65" x="348.373047"/>
     <use xlink:href="#DejaVuSans-64" x="409.896484"/>
     <use xlink:href="#DejaVuSans-20" x="473.373047"/>
     <use xlink:href="#DejaVuSans-42" x="505.160156"/>
     <use xlink:href="#DejaVuSans-79" x="573.763672"/>
     <use xlink:href="#DejaVuSans-20" x="632.943359"/>
     <use xlink:href="#DejaVuSans-45" x="664.730469"/>
     <use xlink:href="#DejaVuSans-78" x="727.914062"/>
     <use xlink:href="#DejaVuSans-70" x="787.09375"/>
     <use xlink:href="#DejaVuSans-65" x="850.570312"/>
     <use xlink:href="#DejaVuSans-72" x="912.09375"/>
     <use xlink:href="#DejaVuSans-74" x="953.207031"/>
     <use xlink:href="#DejaVuSans-69" x="992.416016"/>
     <use xlink:href="#DejaVuSans-73" x="1020.199219"/>
     <use xlink:href="#DejaVuSans-65" x="1072.298828"/>
    </g>
   </g>
  </g>
 </g>
 <defs>
  <clipPath id="p797b91acd2">
   <rect x="50.836875" y="23.837812" width="366.73" height="358.84"/>
  </clipPath>
 </defs>
</svg>
