<?xml version="1.0" encoding="utf-8" standalone="no"?>
<!DOCTYPE svg PUBLIC "-//W3C//DTD SVG 1.1//EN"
  "http://www.w3.org/Graphics/SVG/1.1/DTD/svg11.dtd">
<svg xmlns:xlink="http://www.w3.org/1999/xlink" width="424.766875pt" height="424.105312pt" viewBox="0 0 424.766875 424.105312" xmlns="http://www.w3.org/2000/svg" version="1.1">
 <metadata>
  <rdf:RDF xmlns:dc="http://purl.org/dc/elements/1.1/" xmlns:cc="http://creativecommons.org/ns#" xmlns:rdf="http://www.w3.org/1999/02/22-rdf-syntax-ns#">
   <cc:Work>
    <dc:type rdf:resource="http://purl.org/dc/dcmitype/StillImage"/>
    <dc:date>2024-04-17T11:50:21.545020</dc:date>
    <dc:format>image/svg+xml</dc:format>
    <dc:creator>
     <cc:Agent>
      <dc:title>Matplotlib v3.6.2, https://matplotlib.org/</dc:title>
     </cc:Agent>
    </dc:creator>
   </cc:Work>
  </rdf:RDF>
 </metadata>
 <defs>
  <style type="text/css">*{stroke-linejoin: round; stroke-linecap: butt}</style>
 </defs>
 <g id="figure_1">
  <g id="patch_1">
   <path d="M 0 424.105312 
L 424.766875 424.105312 
L 424.766875 0 
L 0 0 
z
" style="fill: #ffffff"/>
  </g>
  <g id="axes_1">
   <g id="patch_2">
    <path d="M 50.836875 382.677812 
L 417.566875 382.677812 
L 417.566875 23.837812 
L 50.836875 23.837812 
z
" style="fill: #ffffff"/>
   </g>
   <g id="matplotlib.axis_1">
    <g id="xtick_1">
     <g id="line2d_1">
      <defs>
       <path id="mcf93f9c1f4" d="M 0 0 
L 0 3.5 
" style="stroke: #000000; stroke-width: 0.8"/>
      </defs>
      <g>
       <use xlink:href="#mcf93f9c1f4" x="50.836875" y="382.677812" style="stroke: #000000; stroke-width: 0.8"/>
      </g>
     </g>
     <g id="text_1">
      <!-- 0 -->
      <g transform="translate(47.655625 397.27625) scale(0.1 -0.1)">
       <defs>
        <path id="DejaVuSans-30" d="M 2034 4250 
Q 1547 4250 1301 3770 
Q 1056 3291 1056 2328 
Q 1056 1369 1301 889 
Q 1547 409 2034 409 
Q 2525 409 2770 889 
Q 3016 1369 3016 2328 
Q 3016 3291 2770 3770 
Q 2525 4250 2034 4250 
z
M 2034 4750 
Q 2819 4750 3233 4129 
Q 3647 3509 3647 2328 
Q 3647 1150 3233 529 
Q 2819 -91 2034 -91 
Q 1250 -91 836 529 
Q 422 1150 422 2328 
Q 422 3509 836 4129 
Q 1250 4750 2034 4750 
z
" transform="scale(0.015625)"/>
       </defs>
       <use xlink:href="#DejaVuSans-30"/>
      </g>
     </g>
    </g>
    <g id="xtick_2">
     <g id="line2d_2">
      <g>
       <use xlink:href="#mcf93f9c1f4" x="130.560788" y="382.677812" style="stroke: #000000; stroke-width: 0.8"/>
      </g>
     </g>
     <g id="text_2">
      <!-- 20 -->
      <g transform="translate(124.198288 397.27625) scale(0.1 -0.1)">
       <defs>
        <path id="DejaVuSans-32" d="M 1228 531 
L 3431 531 
L 3431 0 
L 469 0 
L 469 531 
Q 828 903 1448 1529 
Q 2069 2156 2228 2338 
Q 2531 2678 2651 2914 
Q 2772 3150 2772 3378 
Q 2772 3750 2511 3984 
Q 2250 4219 1831 4219 
Q 1534 4219 1204 4116 
Q 875 4013 500 3803 
L 500 4441 
Q 881 4594 1212 4672 
Q 1544 4750 1819 4750 
Q 2544 4750 2975 4387 
Q 3406 4025 3406 3419 
Q 3406 3131 3298 2873 
Q 3191 2616 2906 2266 
Q 2828 2175 2409 1742 
Q 1991 1309 1228 531 
z
" transform="scale(0.015625)"/>
       </defs>
       <use xlink:href="#DejaVuSans-32"/>
       <use xlink:href="#DejaVuSans-30" x="63.623047"/>
      </g>
     </g>
    </g>
    <g id="xtick_3">
     <g id="line2d_3">
      <g>
       <use xlink:href="#mcf93f9c1f4" x="210.284701" y="382.677812" style="stroke: #000000; stroke-width: 0.8"/>
      </g>
     </g>
     <g id="text_3">
      <!-- 40 -->
      <g transform="translate(203.922201 397.27625) scale(0.1 -0.1)">
       <defs>
        <path id="DejaVuSans-34" d="M 2419 4116 
L 825 1625 
L 2419 1625 
L 2419 4116 
z
M 2253 4666 
L 3047 4666 
L 3047 1625 
L 3713 1625 
L 3713 1100 
L 3047 1100 
L 3047 0 
L 2419 0 
L 2419 1100 
L 313 1100 
L 313 1709 
L 2253 4666 
z
" transform="scale(0.015625)"/>
       </defs>
       <use xlink:href="#DejaVuSans-34"/>
       <use xlink:href="#DejaVuSans-30" x="63.623047"/>
      </g>
     </g>
    </g>
    <g id="xtick_4">
     <g id="line2d_4">
      <g>
       <use xlink:href="#mcf93f9c1f4" x="290.008614" y="382.677812" style="stroke: #000000; stroke-width: 0.8"/>
      </g>
     </g>
     <g id="text_4">
      <!-- 60 -->
      <g transform="translate(283.646114 397.27625) scale(0.1 -0.1)">
       <defs>
        <path id="DejaVuSans-36" d="M 2113 2584 
Q 1688 2584 1439 2293 
Q 1191 2003 1191 1497 
Q 1191 994 1439 701 
Q 1688 409 2113 409 
Q 2538 409 2786 701 
Q 3034 994 3034 1497 
Q 3034 2003 2786 2293 
Q 2538 2584 2113 2584 
z
M 3366 4563 
L 3366 3988 
Q 3128 4100 2886 4159 
Q 2644 4219 2406 4219 
Q 1781 4219 1451 3797 
Q 1122 3375 1075 2522 
Q 1259 2794 1537 2939 
Q 1816 3084 2150 3084 
Q 2853 3084 3261 2657 
Q 3669 2231 3669 1497 
Q 3669 778 3244 343 
Q 2819 -91 2113 -91 
Q 1303 -91 875 529 
Q 447 1150 447 2328 
Q 447 3434 972 4092 
Q 1497 4750 2381 4750 
Q 2619 4750 2861 4703 
Q 3103 4656 3366 4563 
z
" transform="scale(0.015625)"/>
       </defs>
       <use xlink:href="#DejaVuSans-36"/>
       <use xlink:href="#DejaVuSans-30" x="63.623047"/>
      </g>
     </g>
    </g>
    <g id="xtick_5">
     <g id="line2d_5">
      <g>
       <use xlink:href="#mcf93f9c1f4" x="369.732527" y="382.677812" style="stroke: #000000; stroke-width: 0.8"/>
      </g>
     </g>
     <g id="text_5">
      <!-- 80 -->
      <g transform="translate(363.370027 397.27625) scale(0.1 -0.1)">
       <defs>
        <path id="DejaVuSans-38" d="M 2034 2216 
Q 1584 2216 1326 1975 
Q 1069 1734 1069 1313 
Q 1069 891 1326 650 
Q 1584 409 2034 409 
Q 2484 409 2743 651 
Q 3003 894 3003 1313 
Q 3003 1734 2745 1975 
Q 2488 2216 2034 2216 
z
M 1403 2484 
Q 997 2584 770 2862 
Q 544 3141 544 3541 
Q 544 4100 942 4425 
Q 1341 4750 2034 4750 
Q 2731 4750 3128 4425 
Q 3525 4100 3525 3541 
Q 3525 3141 3298 2862 
Q 3072 2584 2669 2484 
Q 3125 2378 3379 2068 
Q 3634 1759 3634 1313 
Q 3634 634 3220 271 
Q 2806 -91 2034 -91 
Q 1263 -91 848 271 
Q 434 634 434 1313 
Q 434 1759 690 2068 
Q 947 2378 1403 2484 
z
M 1172 3481 
Q 1172 3119 1398 2916 
Q 1625 2713 2034 2713 
Q 2441 2713 2670 2916 
Q 2900 3119 2900 3481 
Q 2900 3844 2670 4047 
Q 2441 4250 2034 4250 
Q 1625 4250 1398 4047 
Q 1172 3844 1172 3481 
z
" transform="scale(0.015625)"/>
       </defs>
       <use xlink:href="#DejaVuSans-38"/>
       <use xlink:href="#DejaVuSans-30" x="63.623047"/>
      </g>
     </g>
    </g>
    <g id="text_6">
     <!-- Number of participants -->
     <g transform="translate(153.230469 413.99375) scale(0.14 -0.14)">
      <defs>
       <path id="DejaVuSans-4e" d="M 628 4666 
L 1478 4666 
L 3547 763 
L 3547 4666 
L 4159 4666 
L 4159 0 
L 3309 0 
L 1241 3903 
L 1241 0 
L 628 0 
L 628 4666 
z
" transform="scale(0.015625)"/>
       <path id="DejaVuSans-75" d="M 544 1381 
L 544 3500 
L 1119 3500 
L 1119 1403 
Q 1119 906 1312 657 
Q 1506 409 1894 409 
Q 2359 409 2629 706 
Q 2900 1003 2900 1516 
L 2900 3500 
L 3475 3500 
L 3475 0 
L 2900 0 
L 2900 538 
Q 2691 219 2414 64 
Q 2138 -91 1772 -91 
Q 1169 -91 856 284 
Q 544 659 544 1381 
z
M 1991 3584 
L 1991 3584 
z
" transform="scale(0.015625)"/>
       <path id="DejaVuSans-6d" d="M 3328 2828 
Q 3544 3216 3844 3400 
Q 4144 3584 4550 3584 
Q 5097 3584 5394 3201 
Q 5691 2819 5691 2113 
L 5691 0 
L 5113 0 
L 5113 2094 
Q 5113 2597 4934 2840 
Q 4756 3084 4391 3084 
Q 3944 3084 3684 2787 
Q 3425 2491 3425 1978 
L 3425 0 
L 2847 0 
L 2847 2094 
Q 2847 2600 2669 2842 
Q 2491 3084 2119 3084 
Q 1678 3084 1418 2786 
Q 1159 2488 1159 1978 
L 1159 0 
L 581 0 
L 581 3500 
L 1159 3500 
L 1159 2956 
Q 1356 3278 1631 3431 
Q 1906 3584 2284 3584 
Q 2666 3584 2933 3390 
Q 3200 3197 3328 2828 
z
" transform="scale(0.015625)"/>
       <path id="DejaVuSans-62" d="M 3116 1747 
Q 3116 2381 2855 2742 
Q 2594 3103 2138 3103 
Q 1681 3103 1420 2742 
Q 1159 2381 1159 1747 
Q 1159 1113 1420 752 
Q 1681 391 2138 391 
Q 2594 391 2855 752 
Q 3116 1113 3116 1747 
z
M 1159 2969 
Q 1341 3281 1617 3432 
Q 1894 3584 2278 3584 
Q 2916 3584 3314 3078 
Q 3713 2572 3713 1747 
Q 3713 922 3314 415 
Q 2916 -91 2278 -91 
Q 1894 -91 1617 61 
Q 1341 213 1159 525 
L 1159 0 
L 581 0 
L 581 4863 
L 1159 4863 
L 1159 2969 
z
" transform="scale(0.015625)"/>
       <path id="DejaVuSans-65" d="M 3597 1894 
L 3597 1613 
L 953 1613 
Q 991 1019 1311 708 
Q 1631 397 2203 397 
Q 2534 397 2845 478 
Q 3156 559 3463 722 
L 3463 178 
Q 3153 47 2828 -22 
Q 2503 -91 2169 -91 
Q 1331 -91 842 396 
Q 353 884 353 1716 
Q 353 2575 817 3079 
Q 1281 3584 2069 3584 
Q 2775 3584 3186 3129 
Q 3597 2675 3597 1894 
z
M 3022 2063 
Q 3016 2534 2758 2815 
Q 2500 3097 2075 3097 
Q 1594 3097 1305 2825 
Q 1016 2553 972 2059 
L 3022 2063 
z
" transform="scale(0.015625)"/>
       <path id="DejaVuSans-72" d="M 2631 2963 
Q 2534 3019 2420 3045 
Q 2306 3072 2169 3072 
Q 1681 3072 1420 2755 
Q 1159 2438 1159 1844 
L 1159 0 
L 581 0 
L 581 3500 
L 1159 3500 
L 1159 2956 
Q 1341 3275 1631 3429 
Q 1922 3584 2338 3584 
Q 2397 3584 2469 3576 
Q 2541 3569 2628 3553 
L 2631 2963 
z
" transform="scale(0.015625)"/>
       <path id="DejaVuSans-20" transform="scale(0.015625)"/>
       <path id="DejaVuSans-6f" d="M 1959 3097 
Q 1497 3097 1228 2736 
Q 959 2375 959 1747 
Q 959 1119 1226 758 
Q 1494 397 1959 397 
Q 2419 397 2687 759 
Q 2956 1122 2956 1747 
Q 2956 2369 2687 2733 
Q 2419 3097 1959 3097 
z
M 1959 3584 
Q 2709 3584 3137 3096 
Q 3566 2609 3566 1747 
Q 3566 888 3137 398 
Q 2709 -91 1959 -91 
Q 1206 -91 779 398 
Q 353 888 353 1747 
Q 353 2609 779 3096 
Q 1206 3584 1959 3584 
z
" transform="scale(0.015625)"/>
       <path id="DejaVuSans-66" d="M 2375 4863 
L 2375 4384 
L 1825 4384 
Q 1516 4384 1395 4259 
Q 1275 4134 1275 3809 
L 1275 3500 
L 2222 3500 
L 2222 3053 
L 1275 3053 
L 1275 0 
L 697 0 
L 697 3053 
L 147 3053 
L 147 3500 
L 697 3500 
L 697 3744 
Q 697 4328 969 4595 
Q 1241 4863 1831 4863 
L 2375 4863 
z
" transform="scale(0.015625)"/>
       <path id="DejaVuSans-70" d="M 1159 525 
L 1159 -1331 
L 581 -1331 
L 581 3500 
L 1159 3500 
L 1159 2969 
Q 1341 3281 1617 3432 
Q 1894 3584 2278 3584 
Q 2916 3584 3314 3078 
Q 3713 2572 3713 1747 
Q 3713 922 3314 415 
Q 2916 -91 2278 -91 
Q 1894 -91 1617 61 
Q 1341 213 1159 525 
z
M 3116 1747 
Q 3116 2381 2855 2742 
Q 2594 3103 2138 3103 
Q 1681 3103 1420 2742 
Q 1159 2381 1159 1747 
Q 1159 1113 1420 752 
Q 1681 391 2138 391 
Q 2594 391 2855 752 
Q 3116 1113 3116 1747 
z
" transform="scale(0.015625)"/>
       <path id="DejaVuSans-61" d="M 2194 1759 
Q 1497 1759 1228 1600 
Q 959 1441 959 1056 
Q 959 750 1161 570 
Q 1363 391 1709 391 
Q 2188 391 2477 730 
Q 2766 1069 2766 1631 
L 2766 1759 
L 2194 1759 
z
M 3341 1997 
L 3341 0 
L 2766 0 
L 2766 531 
Q 2569 213 2275 61 
Q 1981 -91 1556 -91 
Q 1019 -91 701 211 
Q 384 513 384 1019 
Q 384 1609 779 1909 
Q 1175 2209 1959 2209 
L 2766 2209 
L 2766 2266 
Q 2766 2663 2505 2880 
Q 2244 3097 1772 3097 
Q 1472 3097 1187 3025 
Q 903 2953 641 2809 
L 641 3341 
Q 956 3463 1253 3523 
Q 1550 3584 1831 3584 
Q 2591 3584 2966 3190 
Q 3341 2797 3341 1997 
z
" transform="scale(0.015625)"/>
       <path id="DejaVuSans-74" d="M 1172 4494 
L 1172 3500 
L 2356 3500 
L 2356 3053 
L 1172 3053 
L 1172 1153 
Q 1172 725 1289 603 
Q 1406 481 1766 481 
L 2356 481 
L 2356 0 
L 1766 0 
Q 1100 0 847 248 
Q 594 497 594 1153 
L 594 3053 
L 172 3053 
L 172 3500 
L 594 3500 
L 594 4494 
L 1172 4494 
z
" transform="scale(0.015625)"/>
       <path id="DejaVuSans-69" d="M 603 3500 
L 1178 3500 
L 1178 0 
L 603 0 
L 603 3500 
z
M 603 4863 
L 1178 4863 
L 1178 4134 
L 603 4134 
L 603 4863 
z
" transform="scale(0.015625)"/>
       <path id="DejaVuSans-63" d="M 3122 3366 
L 3122 2828 
Q 2878 2963 2633 3030 
Q 2388 3097 2138 3097 
Q 1578 3097 1268 2742 
Q 959 2388 959 1747 
Q 959 1106 1268 751 
Q 1578 397 2138 397 
Q 2388 397 2633 464 
Q 2878 531 3122 666 
L 3122 134 
Q 2881 22 2623 -34 
Q 2366 -91 2075 -91 
Q 1284 -91 818 406 
Q 353 903 353 1747 
Q 353 2603 823 3093 
Q 1294 3584 2113 3584 
Q 2378 3584 2631 3529 
Q 2884 3475 3122 3366 
z
" transform="scale(0.015625)"/>
       <path id="DejaVuSans-6e" d="M 3513 2113 
L 3513 0 
L 2938 0 
L 2938 2094 
Q 2938 2591 2744 2837 
Q 2550 3084 2163 3084 
Q 1697 3084 1428 2787 
Q 1159 2491 1159 1978 
L 1159 0 
L 581 0 
L 581 3500 
L 1159 3500 
L 1159 2956 
Q 1366 3272 1645 3428 
Q 1925 3584 2291 3584 
Q 2894 3584 3203 3211 
Q 3513 2838 3513 2113 
z
" transform="scale(0.015625)"/>
       <path id="DejaVuSans-73" d="M 2834 3397 
L 2834 2853 
Q 2591 2978 2328 3040 
Q 2066 3103 1784 3103 
Q 1356 3103 1142 2972 
Q 928 2841 928 2578 
Q 928 2378 1081 2264 
Q 1234 2150 1697 2047 
L 1894 2003 
Q 2506 1872 2764 1633 
Q 3022 1394 3022 966 
Q 3022 478 2636 193 
Q 2250 -91 1575 -91 
Q 1294 -91 989 -36 
Q 684 19 347 128 
L 347 722 
Q 666 556 975 473 
Q 1284 391 1588 391 
Q 1994 391 2212 530 
Q 2431 669 2431 922 
Q 2431 1156 2273 1281 
Q 2116 1406 1581 1522 
L 1381 1569 
Q 847 1681 609 1914 
Q 372 2147 372 2553 
Q 372 3047 722 3315 
Q 1072 3584 1716 3584 
Q 2034 3584 2315 3537 
Q 2597 3491 2834 3397 
z
" transform="scale(0.015625)"/>
      </defs>
      <use xlink:href="#DejaVuSans-4e"/>
      <use xlink:href="#DejaVuSans-75" x="74.804688"/>
      <use xlink:href="#DejaVuSans-6d" x="138.183594"/>
      <use xlink:href="#DejaVuSans-62" x="235.595703"/>
      <use xlink:href="#DejaVuSans-65" x="299.072266"/>
      <use xlink:href="#DejaVuSans-72" x="360.595703"/>
      <use xlink:href="#DejaVuSans-20" x="401.708984"/>
      <use xlink:href="#DejaVuSans-6f" x="433.496094"/>
      <use xlink:href="#DejaVuSans-66" x="494.677734"/>
      <use xlink:href="#DejaVuSans-20" x="529.882812"/>
      <use xlink:href="#DejaVuSans-70" x="561.669922"/>
      <use xlink:href="#DejaVuSans-61" x="625.146484"/>
      <use xlink:href="#DejaVuSans-72" x="686.425781"/>
      <use xlink:href="#DejaVuSans-74" x="727.539062"/>
      <use xlink:href="#DejaVuSans-69" x="766.748047"/>
      <use xlink:href="#DejaVuSans-63" x="794.53125"/>
      <use xlink:href="#DejaVuSans-69" x="849.511719"/>
      <use xlink:href="#DejaVuSans-70" x="877.294922"/>
      <use xlink:href="#DejaVuSans-61" x="940.771484"/>
      <use xlink:href="#DejaVuSans-6e" x="1002.050781"/>
      <use xlink:href="#DejaVuSans-74" x="1065.429688"/>
      <use xlink:href="#DejaVuSans-73" x="1104.638672"/>
     </g>
    </g>
   </g>
   <g id="matplotlib.axis_2">
    <g id="ytick_1">
     <g id="line2d_6">
      <path d="M 50.836875 382.677812 
L 417.566875 382.677812 
" clip-path="url(#p32f08e1b3c)" style="fill: none; stroke-dasharray: 2.96,1.28; stroke-dashoffset: 0; stroke: #c0c0c0; stroke-width: 0.8"/>
     </g>
     <g id="line2d_7">
      <defs>
       <path id="m6d220efcf5" d="M 0 0 
L -3.5 0 
" style="stroke: #000000; stroke-width: 0.8"/>
      </defs>
      <g>
       <use xlink:href="#m6d220efcf5" x="50.836875" y="382.677812" style="stroke: #000000; stroke-width: 0.8"/>
      </g>
     </g>
     <g id="text_7">
      <!-- 20 -->
      <g transform="translate(31.111875 386.477031) scale(0.1 -0.1)">
       <use xlink:href="#DejaVuSans-32"/>
       <use xlink:href="#DejaVuSans-30" x="63.623047"/>
      </g>
     </g>
    </g>
    <g id="ytick_2">
     <g id="line2d_8">
      <path d="M 50.836875 337.822812 
L 417.566875 337.822812 
" clip-path="url(#p32f08e1b3c)" style="fill: none; stroke-dasharray: 2.96,1.28; stroke-dashoffset: 0; stroke: #c0c0c0; stroke-width: 0.8"/>
     </g>
     <g id="line2d_9">
      <g>
       <use xlink:href="#m6d220efcf5" x="50.836875" y="337.822812" style="stroke: #000000; stroke-width: 0.8"/>
      </g>
     </g>
     <g id="text_8">
      <!-- 30 -->
      <g transform="translate(31.111875 341.622031) scale(0.1 -0.1)">
       <defs>
        <path id="DejaVuSans-33" d="M 2597 2516 
Q 3050 2419 3304 2112 
Q 3559 1806 3559 1356 
Q 3559 666 3084 287 
Q 2609 -91 1734 -91 
Q 1441 -91 1130 -33 
Q 819 25 488 141 
L 488 750 
Q 750 597 1062 519 
Q 1375 441 1716 441 
Q 2309 441 2620 675 
Q 2931 909 2931 1356 
Q 2931 1769 2642 2001 
Q 2353 2234 1838 2234 
L 1294 2234 
L 1294 2753 
L 1863 2753 
Q 2328 2753 2575 2939 
Q 2822 3125 2822 3475 
Q 2822 3834 2567 4026 
Q 2313 4219 1838 4219 
Q 1578 4219 1281 4162 
Q 984 4106 628 3988 
L 628 4550 
Q 988 4650 1302 4700 
Q 1616 4750 1894 4750 
Q 2613 4750 3031 4423 
Q 3450 4097 3450 3541 
Q 3450 3153 3228 2886 
Q 3006 2619 2597 2516 
z
" transform="scale(0.015625)"/>
       </defs>
       <use xlink:href="#DejaVuSans-33"/>
       <use xlink:href="#DejaVuSans-30" x="63.623047"/>
      </g>
     </g>
    </g>
    <g id="ytick_3">
     <g id="line2d_10">
      <path d="M 50.836875 292.967812 
L 417.566875 292.967812 
" clip-path="url(#p32f08e1b3c)" style="fill: none; stroke-dasharray: 2.96,1.28; stroke-dashoffset: 0; stroke: #c0c0c0; stroke-width: 0.8"/>
     </g>
     <g id="line2d_11">
      <g>
       <use xlink:href="#m6d220efcf5" x="50.836875" y="292.967812" style="stroke: #000000; stroke-width: 0.8"/>
      </g>
     </g>
     <g id="text_9">
      <!-- 40 -->
      <g transform="translate(31.111875 296.767031) scale(0.1 -0.1)">
       <use xlink:href="#DejaVuSans-34"/>
       <use xlink:href="#DejaVuSans-30" x="63.623047"/>
      </g>
     </g>
    </g>
    <g id="ytick_4">
     <g id="line2d_12">
      <path d="M 50.836875 248.112812 
L 417.566875 248.112812 
" clip-path="url(#p32f08e1b3c)" style="fill: none; stroke-dasharray: 2.96,1.28; stroke-dashoffset: 0; stroke: #c0c0c0; stroke-width: 0.8"/>
     </g>
     <g id="line2d_13">
      <g>
       <use xlink:href="#m6d220efcf5" x="50.836875" y="248.112812" style="stroke: #000000; stroke-width: 0.8"/>
      </g>
     </g>
     <g id="text_10">
      <!-- 50 -->
      <g transform="translate(31.111875 251.912031) scale(0.1 -0.1)">
       <defs>
        <path id="DejaVuSans-35" d="M 691 4666 
L 3169 4666 
L 3169 4134 
L 1269 4134 
L 1269 2991 
Q 1406 3038 1543 3061 
Q 1681 3084 1819 3084 
Q 2600 3084 3056 2656 
Q 3513 2228 3513 1497 
Q 3513 744 3044 326 
Q 2575 -91 1722 -91 
Q 1428 -91 1123 -41 
Q 819 9 494 109 
L 494 744 
Q 775 591 1075 516 
Q 1375 441 1709 441 
Q 2250 441 2565 725 
Q 2881 1009 2881 1497 
Q 2881 1984 2565 2268 
Q 2250 2553 1709 2553 
Q 1456 2553 1204 2497 
Q 953 2441 691 2322 
L 691 4666 
z
" transform="scale(0.015625)"/>
       </defs>
       <use xlink:href="#DejaVuSans-35"/>
       <use xlink:href="#DejaVuSans-30" x="63.623047"/>
      </g>
     </g>
    </g>
    <g id="ytick_5">
     <g id="line2d_14">
      <path d="M 50.836875 203.257812 
L 417.566875 203.257812 
" clip-path="url(#p32f08e1b3c)" style="fill: none; stroke-dasharray: 2.96,1.28; stroke-dashoffset: 0; stroke: #c0c0c0; stroke-width: 0.8"/>
     </g>
     <g id="line2d_15">
      <g>
       <use xlink:href="#m6d220efcf5" x="50.836875" y="203.257812" style="stroke: #000000; stroke-width: 0.8"/>
      </g>
     </g>
     <g id="text_11">
      <!-- 60 -->
      <g transform="translate(31.111875 207.057031) scale(0.1 -0.1)">
       <use xlink:href="#DejaVuSans-36"/>
       <use xlink:href="#DejaVuSans-30" x="63.623047"/>
      </g>
     </g>
    </g>
    <g id="ytick_6">
     <g id="line2d_16">
      <path d="M 50.836875 158.402812 
L 417.566875 158.402812 
" clip-path="url(#p32f08e1b3c)" style="fill: none; stroke-dasharray: 2.96,1.28; stroke-dashoffset: 0; stroke: #c0c0c0; stroke-width: 0.8"/>
     </g>
     <g id="line2d_17">
      <g>
       <use xlink:href="#m6d220efcf5" x="50.836875" y="158.402812" style="stroke: #000000; stroke-width: 0.8"/>
      </g>
     </g>
     <g id="text_12">
      <!-- 70 -->
      <g transform="translate(31.111875 162.202031) scale(0.1 -0.1)">
       <defs>
        <path id="DejaVuSans-37" d="M 525 4666 
L 3525 4666 
L 3525 4397 
L 1831 0 
L 1172 0 
L 2766 4134 
L 525 4134 
L 525 4666 
z
" transform="scale(0.015625)"/>
       </defs>
       <use xlink:href="#DejaVuSans-37"/>
       <use xlink:href="#DejaVuSans-30" x="63.623047"/>
      </g>
     </g>
    </g>
    <g id="ytick_7">
     <g id="line2d_18">
      <path d="M 50.836875 113.547812 
L 417.566875 113.547812 
" clip-path="url(#p32f08e1b3c)" style="fill: none; stroke-dasharray: 2.96,1.28; stroke-dashoffset: 0; stroke: #c0c0c0; stroke-width: 0.8"/>
     </g>
     <g id="line2d_19">
      <g>
       <use xlink:href="#m6d220efcf5" x="50.836875" y="113.547812" style="stroke: #000000; stroke-width: 0.8"/>
      </g>
     </g>
     <g id="text_13">
      <!-- 80 -->
      <g transform="translate(31.111875 117.347031) scale(0.1 -0.1)">
       <use xlink:href="#DejaVuSans-38"/>
       <use xlink:href="#DejaVuSans-30" x="63.623047"/>
      </g>
     </g>
    </g>
    <g id="ytick_8">
     <g id="line2d_20">
      <path d="M 50.836875 68.692812 
L 417.566875 68.692812 
" clip-path="url(#p32f08e1b3c)" style="fill: none; stroke-dasharray: 2.96,1.28; stroke-dashoffset: 0; stroke: #c0c0c0; stroke-width: 0.8"/>
     </g>
     <g id="line2d_21">
      <g>
       <use xlink:href="#m6d220efcf5" x="50.836875" y="68.692812" style="stroke: #000000; stroke-width: 0.8"/>
      </g>
     </g>
     <g id="text_14">
      <!-- 90 -->
      <g transform="translate(31.111875 72.492031) scale(0.1 -0.1)">
       <defs>
        <path id="DejaVuSans-39" d="M 703 97 
L 703 672 
Q 941 559 1184 500 
Q 1428 441 1663 441 
Q 2288 441 2617 861 
Q 2947 1281 2994 2138 
Q 2813 1869 2534 1725 
Q 2256 1581 1919 1581 
Q 1219 1581 811 2004 
Q 403 2428 403 3163 
Q 403 3881 828 4315 
Q 1253 4750 1959 4750 
Q 2769 4750 3195 4129 
Q 3622 3509 3622 2328 
Q 3622 1225 3098 567 
Q 2575 -91 1691 -91 
Q 1453 -91 1209 -44 
Q 966 3 703 97 
z
M 1959 2075 
Q 2384 2075 2632 2365 
Q 2881 2656 2881 3163 
Q 2881 3666 2632 3958 
Q 2384 4250 1959 4250 
Q 1534 4250 1286 3958 
Q 1038 3666 1038 3163 
Q 1038 2656 1286 2365 
Q 1534 2075 1959 2075 
z
" transform="scale(0.015625)"/>
       </defs>
       <use xlink:href="#DejaVuSans-39"/>
       <use xlink:href="#DejaVuSans-30" x="63.623047"/>
      </g>
     </g>
    </g>
    <g id="ytick_9">
     <g id="line2d_22">
      <path d="M 50.836875 23.837812 
L 417.566875 23.837812 
" clip-path="url(#p32f08e1b3c)" style="fill: none; stroke-dasharray: 2.96,1.28; stroke-dashoffset: 0; stroke: #c0c0c0; stroke-width: 0.8"/>
     </g>
     <g id="line2d_23">
      <g>
       <use xlink:href="#m6d220efcf5" x="50.836875" y="23.837812" style="stroke: #000000; stroke-width: 0.8"/>
      </g>
     </g>
     <g id="text_15">
      <!-- 100 -->
      <g transform="translate(24.749375 27.637031) scale(0.1 -0.1)">
       <defs>
        <path id="DejaVuSans-31" d="M 794 531 
L 1825 531 
L 1825 4091 
L 703 3866 
L 703 4441 
L 1819 4666 
L 2450 4666 
L 2450 531 
L 3481 531 
L 3481 0 
L 794 0 
L 794 531 
z
" transform="scale(0.015625)"/>
       </defs>
       <use xlink:href="#DejaVuSans-31"/>
       <use xlink:href="#DejaVuSans-30" x="63.623047"/>
       <use xlink:href="#DejaVuSans-30" x="127.246094"/>
      </g>
     </g>
    </g>
    <g id="text_16">
     <!-- Success Rate (%) -->
     <g transform="translate(17.837812 264.04625) rotate(-90) scale(0.14 -0.14)">
      <defs>
       <path id="DejaVuSans-53" d="M 3425 4513 
L 3425 3897 
Q 3066 4069 2747 4153 
Q 2428 4238 2131 4238 
Q 1616 4238 1336 4038 
Q 1056 3838 1056 3469 
Q 1056 3159 1242 3001 
Q 1428 2844 1947 2747 
L 2328 2669 
Q 3034 2534 3370 2195 
Q 3706 1856 3706 1288 
Q 3706 609 3251 259 
Q 2797 -91 1919 -91 
Q 1588 -91 1214 -16 
Q 841 59 441 206 
L 441 856 
Q 825 641 1194 531 
Q 1563 422 1919 422 
Q 2459 422 2753 634 
Q 3047 847 3047 1241 
Q 3047 1584 2836 1778 
Q 2625 1972 2144 2069 
L 1759 2144 
Q 1053 2284 737 2584 
Q 422 2884 422 3419 
Q 422 4038 858 4394 
Q 1294 4750 2059 4750 
Q 2388 4750 2728 4690 
Q 3069 4631 3425 4513 
z
" transform="scale(0.015625)"/>
       <path id="DejaVuSans-52" d="M 2841 2188 
Q 3044 2119 3236 1894 
Q 3428 1669 3622 1275 
L 4263 0 
L 3584 0 
L 2988 1197 
Q 2756 1666 2539 1819 
Q 2322 1972 1947 1972 
L 1259 1972 
L 1259 0 
L 628 0 
L 628 4666 
L 2053 4666 
Q 2853 4666 3247 4331 
Q 3641 3997 3641 3322 
Q 3641 2881 3436 2590 
Q 3231 2300 2841 2188 
z
M 1259 4147 
L 1259 2491 
L 2053 2491 
Q 2509 2491 2742 2702 
Q 2975 2913 2975 3322 
Q 2975 3731 2742 3939 
Q 2509 4147 2053 4147 
L 1259 4147 
z
" transform="scale(0.015625)"/>
       <path id="DejaVuSans-28" d="M 1984 4856 
Q 1566 4138 1362 3434 
Q 1159 2731 1159 2009 
Q 1159 1288 1364 580 
Q 1569 -128 1984 -844 
L 1484 -844 
Q 1016 -109 783 600 
Q 550 1309 550 2009 
Q 550 2706 781 3412 
Q 1013 4119 1484 4856 
L 1984 4856 
z
" transform="scale(0.015625)"/>
       <path id="DejaVuSans-25" d="M 4653 2053 
Q 4381 2053 4226 1822 
Q 4072 1591 4072 1178 
Q 4072 772 4226 539 
Q 4381 306 4653 306 
Q 4919 306 5073 539 
Q 5228 772 5228 1178 
Q 5228 1588 5073 1820 
Q 4919 2053 4653 2053 
z
M 4653 2450 
Q 5147 2450 5437 2106 
Q 5728 1763 5728 1178 
Q 5728 594 5436 251 
Q 5144 -91 4653 -91 
Q 4153 -91 3862 251 
Q 3572 594 3572 1178 
Q 3572 1766 3864 2108 
Q 4156 2450 4653 2450 
z
M 1428 4353 
Q 1159 4353 1004 4120 
Q 850 3888 850 3481 
Q 850 3069 1003 2837 
Q 1156 2606 1428 2606 
Q 1700 2606 1854 2837 
Q 2009 3069 2009 3481 
Q 2009 3884 1853 4118 
Q 1697 4353 1428 4353 
z
M 4250 4750 
L 4750 4750 
L 1831 -91 
L 1331 -91 
L 4250 4750 
z
M 1428 4750 
Q 1922 4750 2215 4408 
Q 2509 4066 2509 3481 
Q 2509 2891 2217 2550 
Q 1925 2209 1428 2209 
Q 931 2209 642 2551 
Q 353 2894 353 3481 
Q 353 4063 643 4406 
Q 934 4750 1428 4750 
z
" transform="scale(0.015625)"/>
       <path id="DejaVuSans-29" d="M 513 4856 
L 1013 4856 
Q 1481 4119 1714 3412 
Q 1947 2706 1947 2009 
Q 1947 1309 1714 600 
Q 1481 -109 1013 -844 
L 513 -844 
Q 928 -128 1133 580 
Q 1338 1288 1338 2009 
Q 1338 2731 1133 3434 
Q 928 4138 513 4856 
z
" transform="scale(0.015625)"/>
      </defs>
      <use xlink:href="#DejaVuSans-53"/>
      <use xlink:href="#DejaVuSans-75" x="63.476562"/>
      <use xlink:href="#DejaVuSans-63" x="126.855469"/>
      <use xlink:href="#DejaVuSans-63" x="181.835938"/>
      <use xlink:href="#DejaVuSans-65" x="236.816406"/>
      <use xlink:href="#DejaVuSans-73" x="298.339844"/>
      <use xlink:href="#DejaVuSans-73" x="350.439453"/>
      <use xlink:href="#DejaVuSans-20" x="402.539062"/>
      <use xlink:href="#DejaVuSans-52" x="434.326172"/>
      <use xlink:href="#DejaVuSans-61" x="501.558594"/>
      <use xlink:href="#DejaVuSans-74" x="562.837891"/>
      <use xlink:href="#DejaVuSans-65" x="602.046875"/>
      <use xlink:href="#DejaVuSans-20" x="663.570312"/>
      <use xlink:href="#DejaVuSans-28" x="695.357422"/>
      <use xlink:href="#DejaVuSans-25" x="734.371094"/>
      <use xlink:href="#DejaVuSans-29" x="829.390625"/>
     </g>
    </g>
   </g>
   <g id="PolyCollection_1">
    <defs>
     <path id="m4be9a5f15b" d="M 50.836875 -175.9925 
L 50.836875 -175.9925 
L 54.823071 -202.085878 
L 58.809266 -234.811638 
L 62.795462 -263.13684 
L 66.781658 -264.716365 
L 70.767853 -261.169898 
L 74.754049 -272.072271 
L 78.740245 -285.670879 
L 82.72644 -293.091046 
L 86.712636 -294.400114 
L 90.698832 -299.9658 
L 94.685027 -310.839777 
L 98.671223 -316.127158 
L 102.657418 -319.126962 
L 106.643614 -319.651444 
L 110.62981 -317.978943 
L 114.616005 -319.905252 
L 118.602201 -324.249481 
L 122.588397 -326.60267 
L 126.574592 -327.230163 
L 130.560788 -328.61851 
L 134.546984 -331.586713 
L 138.533179 -337.777876 
L 142.519375 -344.051321 
L 146.505571 -346.108048 
L 150.491766 -345.242693 
L 154.477962 -345.335103 
L 158.464158 -349.758129 
L 162.450353 -357.408512 
L 166.436549 -360.311053 
L 170.422745 -357.537111 
L 174.40894 -355.402996 
L 178.395136 -353.954964 
L 182.381332 -352.985542 
L 186.367527 -355.151584 
L 190.353723 -359.158883 
L 194.339918 -363.774152 
L 198.326114 -365.261402 
L 202.31231 -361.174299 
L 206.298505 -359.035488 
L 210.284701 -362.034224 
L 214.270897 -364.775188 
L 218.257092 -366.188701 
L 222.243288 -368.019607 
L 226.229484 -371.33841 
L 230.215679 -375.038864 
L 234.201875 -377.091894 
L 238.188071 -375.914619 
L 242.174266 -374.607934 
L 246.160462 -376.625851 
L 250.146658 -379.141021 
L 254.132853 -379.652966 
L 258.119049 -378.995457 
L 262.105245 -378.130524 
L 266.09144 -377.035415 
L 270.077636 -378.600225 
L 274.063832 -381.052674 
L 278.050027 -381.53346 
L 282.036223 -382.25092 
L 286.022418 -384.406867 
L 290.008614 -385.296678 
L 293.99481 -385.013236 
L 297.981005 -385.08342 
L 301.967201 -386.479822 
L 305.953397 -387.85655 
L 309.939592 -388.153037 
L 313.925788 -388.479853 
L 317.911984 -388.931934 
L 321.898179 -389.822125 
L 325.884375 -390.820747 
L 329.870571 -391.421167 
L 333.856766 -393.029926 
L 337.842962 -394.443449 
L 341.829158 -394.702804 
L 345.815353 -394.817015 
L 349.801549 -394.771059 
L 353.787745 -394.990514 
L 357.77394 -395.989274 
L 361.760136 -397.061614 
L 365.746332 -397.527801 
L 369.732527 -397.669313 
L 373.718723 -397.991009 
L 377.704918 -398.878198 
L 381.691114 -399.866232 
L 385.67731 -400.451168 
L 389.663505 -400.548451 
L 393.649701 -400.397503 
L 397.635897 -400.292601 
L 401.622092 -400.269438 
L 405.608288 -400.267556 
L 409.594484 -400.2675 
L 413.580679 -400.2675 
L 417.566875 -400.2675 
L 417.566875 -400.2675 
L 417.566875 -400.2675 
L 413.580679 -400.2675 
L 409.594484 -400.2675 
L 405.608288 -400.266864 
L 401.622092 -400.245935 
L 397.635897 -399.993331 
L 393.649701 -398.881373 
L 389.663505 -397.017479 
L 385.67731 -395.213031 
L 381.691114 -392.892765 
L 377.704918 -390.072524 
L 373.718723 -387.750426 
L 369.732527 -386.76449 
L 365.746332 -386.398517 
L 361.760136 -385.444685 
L 357.77394 -383.622893 
L 353.787745 -381.888522 
L 349.801549 -381.283074 
L 345.815353 -381.492527 
L 341.829158 -381.494316 
L 337.842962 -381.17282 
L 333.856766 -378.527887 
L 329.870571 -375.174372 
L 325.884375 -373.932485 
L 321.898179 -372.788286 
L 317.911984 -371.893452 
L 313.925788 -371.468793 
L 309.939592 -370.809488 
L 305.953397 -370.459128 
L 301.967201 -368.903403 
L 297.981005 -367.1036 
L 293.99481 -367.164977 
L 290.008614 -367.642693 
L 286.022418 -366.564525 
L 282.036223 -363.663842 
L 278.050027 -362.229597 
L 274.063832 -360.43669 
L 270.077636 -357.054632 
L 266.09144 -356.279454 
L 262.105245 -357.748216 
L 258.119049 -358.118872 
L 254.132853 -358.92244 
L 250.146658 -357.86998 
L 246.160462 -354.077986 
L 242.174266 -351.778538 
L 238.188071 -354.119323 
L 234.201875 -355.119451 
L 230.215679 -351.177028 
L 226.229484 -345.738671 
L 222.243288 -342.573602 
L 218.257092 -341.842075 
L 214.270897 -341.104293 
L 210.284701 -338.025894 
L 206.298505 -333.737056 
L 202.31231 -335.421795 
L 198.326114 -339.983456 
L 194.339918 -338.910102 
L 190.353723 -333.26487 
L 186.367527 -327.314867 
L 182.381332 -325.08317 
L 178.395136 -327.390035 
L 174.40894 -327.970147 
L 170.422745 -328.17415 
L 166.436549 -331.035224 
L 162.450353 -327.968818 
L 158.464158 -320.306291 
L 154.477962 -316.437383 
L 150.491766 -315.579779 
L 146.505571 -315.118656 
L 142.519375 -313.198805 
L 138.533179 -306.838791 
L 134.546984 -297.519961 
L 130.560788 -293.834718 
L 126.574592 -295.439544 
L 122.588397 -296.42996 
L 118.602201 -293.828004 
L 114.616005 -287.942843 
L 110.62981 -281.113838 
L 106.643614 -277.105836 
L 102.657418 -271.16181 
L 98.671223 -261.648596 
L 94.685027 -253.988085 
L 90.698832 -246.132825 
L 86.712636 -241.147375 
L 82.72644 -236.885417 
L 78.740245 -225.484233 
L 74.754049 -211.424715 
L 70.767853 -205.4385 
L 66.781658 -212.138006 
L 62.795462 -218.942533 
L 58.809266 -204.918299 
L 54.823071 -187.015037 
L 50.836875 -175.9925 
z
" style="stroke: #808080; stroke-opacity: 0.1"/>
    </defs>
    <g clip-path="url(#p32f08e1b3c)">
     <use xlink:href="#m4be9a5f15b" x="0" y="424.105312" style="fill: #808080; fill-opacity: 0.1; stroke: #808080; stroke-opacity: 0.1"/>
    </g>
   </g>
   <g id="PolyCollection_2">
    <defs>
     <path id="mf943f35214" d="M 50.836875 -175.9925 
L 50.836875 -175.9925 
L 54.823071 -179.598547 
L 58.809266 -211.615382 
L 62.795462 -262.037623 
L 66.781658 -283.083928 
L 70.767853 -289.413645 
L 74.754049 -294.56114 
L 78.740245 -302.964979 
L 82.72644 -315.46595 
L 86.712636 -320.945958 
L 90.698832 -321.707678 
L 94.685027 -325.139025 
L 98.671223 -330.772707 
L 102.657418 -331.292399 
L 106.643614 -331.420785 
L 110.62981 -332.243277 
L 114.616005 -332.954345 
L 118.602201 -337.763448 
L 122.588397 -344.78068 
L 126.574592 -347.83179 
L 130.560788 -346.119028 
L 134.546984 -342.636539 
L 138.533179 -343.370102 
L 142.519375 -350.313991 
L 146.505571 -357.628002 
L 150.491766 -363.694354 
L 154.477962 -364.27914 
L 158.464158 -360.719696 
L 162.450353 -360.647133 
L 166.436549 -360.222483 
L 170.422745 -358.83337 
L 174.40894 -362.088433 
L 178.395136 -363.536187 
L 182.381332 -359.324105 
L 186.367527 -358.612338 
L 190.353723 -361.894469 
L 194.339918 -364.669895 
L 198.326114 -363.624983 
L 202.31231 -361.642272 
L 206.298505 -361.419979 
L 210.284701 -361.995578 
L 214.270897 -365.003819 
L 218.257092 -367.723281 
L 222.243288 -369.522043 
L 226.229484 -369.675977 
L 230.215679 -368.640484 
L 234.201875 -367.340363 
L 238.188071 -366.639969 
L 242.174266 -366.877511 
L 246.160462 -367.836545 
L 250.146658 -368.892633 
L 254.132853 -370.887785 
L 258.119049 -371.646682 
L 262.105245 -370.417806 
L 266.09144 -369.636332 
L 270.077636 -369.772333 
L 274.063832 -369.935455 
L 278.050027 -369.792468 
L 282.036223 -369.96886 
L 286.022418 -370.307698 
L 290.008614 -370.774319 
L 293.99481 -371.274361 
L 297.981005 -370.764741 
L 301.967201 -370.089995 
L 305.953397 -369.666082 
L 309.939592 -369.230253 
L 313.925788 -368.977384 
L 317.911984 -369.176126 
L 321.898179 -368.755895 
L 325.884375 -367.489359 
L 329.870571 -367.255645 
L 333.856766 -367.240873 
L 337.842962 -366.507516 
L 341.829158 -365.8032 
L 345.815353 -365.52216 
L 349.801549 -365.107296 
L 353.787745 -364.516888 
L 357.77394 -364.51489 
L 361.760136 -364.597639 
L 365.746332 -364.569296 
L 369.732527 -364.29768 
L 373.718723 -363.55346 
L 377.704918 -363.023852 
L 381.691114 -362.899093 
L 385.67731 -362.888652 
L 389.663505 -362.888333 
L 393.649701 -362.888333 
L 397.635897 -362.888333 
L 401.622092 -362.888333 
L 405.608288 -362.888333 
L 409.594484 -362.888333 
L 413.580679 -362.888333 
L 417.566875 -362.888333 
L 417.566875 -362.888333 
L 417.566875 -362.888333 
L 413.580679 -362.888333 
L 409.594484 -362.888333 
L 405.608288 -362.888333 
L 401.622092 -362.888333 
L 397.635897 -362.888333 
L 393.649701 -362.888333 
L 389.663505 -362.888333 
L 385.67731 -362.888066 
L 381.691114 -362.879273 
L 377.704918 -362.77319 
L 373.718723 -362.310414 
L 369.732527 -361.602802 
L 365.746332 -361.254895 
L 361.760136 -361.240438 
L 357.77394 -361.46638 
L 353.787745 -361.656773 
L 349.801549 -361.286718 
L 345.815353 -360.915193 
L 341.829158 -360.794404 
L 337.842962 -360.637122 
L 333.856766 -360.25643 
L 329.870571 -359.948064 
L 325.884375 -359.917523 
L 321.898179 -359.507083 
L 317.911984 -359.081339 
L 313.925788 -359.15904 
L 309.939592 -359.493024 
L 305.953397 -359.25012 
L 301.967201 -358.16503 
L 297.981005 -357.668147 
L 293.99481 -358.278632 
L 290.008614 -357.898962 
L 286.022418 -356.853333 
L 282.036223 -356.46963 
L 278.050027 -356.514633 
L 274.063832 -356.489307 
L 270.077636 -356.52017 
L 266.09144 -356.651449 
L 262.105245 -356.817481 
L 258.119049 -357.32545 
L 254.132853 -356.313572 
L 250.146658 -353.498475 
L 246.160462 -351.881243 
L 242.174266 -351.777385 
L 238.188071 -352.408547 
L 234.201875 -352.3616 
L 230.215679 -352.568389 
L 226.229484 -353.615682 
L 222.243288 -353.385542 
L 218.257092 -350.427807 
L 214.270897 -346.111728 
L 210.284701 -342.042728 
L 206.298505 -341.272998 
L 202.31231 -341.132621 
L 198.326114 -343.09344 
L 194.339918 -342.609653 
L 190.353723 -336.255539 
L 186.367527 -331.515959 
L 182.381332 -333.166493 
L 178.395136 -337.772581 
L 174.40894 -335.614316 
L 170.422745 -331.698005 
L 166.436549 -332.998457 
L 162.450353 -333.722607 
L 158.464158 -334.799408 
L 154.477962 -339.195937 
L 150.491766 -336.980602 
L 146.505571 -327.571343 
L 142.519375 -316.928556 
L 138.533179 -306.060453 
L 134.546984 -303.539864 
L 130.560788 -309.16334 
L 126.574592 -312.330899 
L 122.588397 -308.611673 
L 118.602201 -303.596392 
L 114.616005 -303.450816 
L 110.62981 -302.700919 
L 106.643614 -298.790951 
L 102.657418 -298.321436 
L 98.671223 -296.603785 
L 94.685027 -284.586794 
L 90.698832 -276.689325 
L 86.712636 -278.572075 
L 82.72644 -272.917215 
L 78.740245 -258.721355 
L 74.754049 -254.968868 
L 70.767853 -254.850444 
L 66.781658 -248.536526 
L 62.795462 -225.101294 
L 58.809266 -180.622028 
L 54.823071 -162.766632 
L 50.836875 -175.9925 
z
" style="stroke: #8c510a; stroke-opacity: 0.1"/>
    </defs>
    <g clip-path="url(#p32f08e1b3c)">
     <use xlink:href="#mf943f35214" x="0" y="424.105312" style="fill: #8c510a; fill-opacity: 0.1; stroke: #8c510a; stroke-opacity: 0.1"/>
    </g>
   </g>
   <g id="PolyCollection_3">
    <defs>
     <path id="me1c29aa3fb" d="M 50.836875 -175.9925 
L 50.836875 -175.9925 
L 54.823071 -193.256929 
L 58.809266 -213.511753 
L 62.795462 -225.221305 
L 66.781658 -217.434167 
L 70.767853 -211.650941 
L 74.754049 -207.526043 
L 78.740245 -203.110597 
L 82.72644 -215.405073 
L 86.712636 -226.592694 
L 90.698832 -227.60425 
L 94.685027 -239.089342 
L 98.671223 -246.188609 
L 102.657418 -247.177673 
L 106.643614 -245.4545 
L 110.62981 -247.906952 
L 114.616005 -250.218944 
L 118.602201 -249.944819 
L 122.588397 -260.011341 
L 126.574592 -270.381586 
L 130.560788 -267.567952 
L 134.546984 -257.825257 
L 138.533179 -256.093997 
L 142.519375 -267.29557 
L 146.505571 -278.819187 
L 150.491766 -278.730349 
L 154.477962 -276.675953 
L 158.464158 -273.690093 
L 162.450353 -273.783821 
L 166.436549 -275.841617 
L 170.422745 -273.298995 
L 174.40894 -273.543459 
L 178.395136 -277.407343 
L 182.381332 -278.530115 
L 186.367527 -272.969739 
L 190.353723 -268.024129 
L 194.339918 -271.069432 
L 198.326114 -282.106486 
L 202.31231 -288.231439 
L 206.298505 -284.662115 
L 210.284701 -284.117247 
L 214.270897 -284.713616 
L 218.257092 -281.795972 
L 222.243288 -281.910754 
L 226.229484 -281.378297 
L 230.215679 -278.448134 
L 234.201875 -280.915719 
L 238.188071 -285.812808 
L 242.174266 -290.08314 
L 246.160462 -296.48636 
L 250.146658 -302.843852 
L 254.132853 -303.804619 
L 258.119049 -303.052862 
L 262.105245 -304.206898 
L 266.09144 -304.96599 
L 270.077636 -304.116771 
L 274.063832 -301.9261 
L 278.050027 -300.868481 
L 282.036223 -300.964403 
L 286.022418 -301.325348 
L 290.008614 -301.172703 
L 293.99481 -299.728129 
L 297.981005 -299.193468 
L 301.967201 -298.836655 
L 305.953397 -301.508181 
L 309.939592 -307.877959 
L 313.925788 -310.488759 
L 317.911984 -307.65412 
L 321.898179 -304.06317 
L 325.884375 -301.761963 
L 329.870571 -302.744871 
L 333.856766 -304.64687 
L 337.842962 -302.384803 
L 341.829158 -299.337096 
L 345.815353 -301.392242 
L 349.801549 -305.502588 
L 353.787745 -306.993602 
L 357.77394 -304.067335 
L 361.760136 -300.597035 
L 365.746332 -299.515692 
L 369.732527 -299.169923 
L 373.718723 -297.519467 
L 377.704918 -296.333968 
L 381.691114 -297.502083 
L 385.67731 -297.920734 
L 389.663505 -296.30117 
L 393.649701 -295.242952 
L 397.635897 -293.454165 
L 401.622092 -290.389902 
L 405.608288 -288.563903 
L 409.594484 -288.163573 
L 413.580679 -288.130979 
L 417.566875 -288.13 
L 417.566875 -288.13 
L 417.566875 -288.13 
L 413.580679 -288.129407 
L 409.594484 -288.10976 
L 405.608288 -287.870418 
L 401.622092 -286.798252 
L 397.635897 -285.026346 
L 393.649701 -283.743118 
L 389.663505 -282.216826 
L 385.67731 -279.97389 
L 381.691114 -279.30637 
L 377.704918 -279.654391 
L 373.718723 -279.358361 
L 369.732527 -279.545673 
L 365.746332 -278.569819 
L 361.760136 -277.814793 
L 357.77394 -278.918805 
L 353.787745 -279.462037 
L 349.801549 -275.80909 
L 345.815353 -268.174986 
L 341.829158 -263.155984 
L 337.842962 -266.087526 
L 333.856766 -269.858962 
L 329.870571 -269.98088 
L 325.884375 -270.382723 
L 321.898179 -273.232361 
L 317.911984 -274.815419 
L 313.925788 -277.473156 
L 309.939592 -273.753306 
L 305.953397 -260.660443 
L 301.967201 -255.269198 
L 297.981005 -259.280427 
L 293.99481 -258.918914 
L 290.008614 -255.946736 
L 286.022418 -254.576984 
L 282.036223 -255.258176 
L 278.050027 -255.249789 
L 274.063832 -259.266785 
L 270.077636 -265.244647 
L 266.09144 -267.032852 
L 262.105245 -263.581684 
L 258.119049 -257.200349 
L 254.132853 -255.08995 
L 250.146658 -251.10755 
L 246.160462 -239.348633 
L 242.174266 -229.25536 
L 238.188071 -223.263776 
L 234.201875 -216.618854 
L 230.215679 -214.142985 
L 226.229484 -222.174173 
L 222.243288 -227.87492 
L 218.257092 -230.295493 
L 214.270897 -232.992067 
L 210.284701 -225.766891 
L 206.298505 -219.951974 
L 202.31231 -227.528616 
L 198.326114 -227.41125 
L 194.339918 -215.305883 
L 190.353723 -208.608037 
L 186.367527 -215.592877 
L 182.381332 -225.466949 
L 178.395136 -223.310804 
L 174.40894 -215.502246 
L 170.422745 -215.007284 
L 166.436549 -218.153337 
L 162.450353 -212.151509 
L 158.464158 -208.754475 
L 154.477962 -213.362186 
L 150.491766 -217.906613 
L 146.505571 -218.014074 
L 142.519375 -204.239917 
L 138.533179 -191.092195 
L 134.546984 -191.697331 
L 130.560788 -203.334634 
L 126.574592 -207.991882 
L 122.588397 -194.354354 
L 118.602201 -184.067337 
L 114.616005 -188.397394 
L 110.62981 -182.2549 
L 106.643614 -172.212983 
L 102.657418 -176.157089 
L 98.671223 -185.146887 
L 94.685027 -180.257356 
L 90.698832 -164.977866 
L 86.712636 -161.425599 
L 82.72644 -144.277113 
L 78.740245 -127.223232 
L 74.754049 -137.830715 
L 70.767853 -158.303348 
L 66.781658 -170.382008 
L 62.795462 -167.842944 
L 58.809266 -159.434286 
L 54.823071 -162.565886 
L 50.836875 -175.9925 
z
" style="stroke: #01665e; stroke-opacity: 0.1"/>
    </defs>
    <g clip-path="url(#p32f08e1b3c)">
     <use xlink:href="#me1c29aa3fb" x="0" y="424.105312" style="fill: #01665e; fill-opacity: 0.1; stroke: #01665e; stroke-opacity: 0.1"/>
    </g>
   </g>
   <g id="line2d_24">
    <path d="M 50.836875 248.112812 
L 54.823071 227.043048 
L 58.809266 199.25812 
L 62.795462 175.699908 
L 66.781658 176.915067 
L 70.767853 181.512547 
L 74.754049 172.248893 
L 78.740245 158.496649 
L 82.72644 149.749476 
L 86.712636 147.456112 
L 90.698832 142.083837 
L 94.685027 132.216099 
L 98.671223 126.137675 
L 102.657418 120.966734 
L 106.643614 118.635738 
L 110.62981 118.414738 
L 114.616005 114.854197 
L 118.602201 109.996324 
L 122.588397 107.560212 
L 126.574592 107.472023 
L 130.560788 107.0814 
L 134.546984 103.874183 
L 138.533179 96.640465 
L 142.519375 90.338164 
L 146.505571 88.327062 
L 150.491766 88.750258 
L 154.477962 88.402783 
L 158.464158 84.164463 
L 162.450353 76.510032 
L 166.436549 73.55287 
L 170.422745 76.355855 
L 174.40894 77.8466 
L 178.395136 79.005325 
L 182.381332 80.420561 
L 186.367527 78.232635 
L 190.353723 73.577767 
L 194.339918 68.619177 
L 198.326114 67.269893 
L 202.31231 71.515182 
L 206.298505 73.502635 
L 210.284701 70.073865 
L 214.270897 67.220423 
L 218.257092 66.032153 
L 222.243288 64.567707 
L 226.229484 61.300149 
L 230.215679 57.020394 
L 234.201875 54.337566 
L 238.188071 55.455792 
L 242.174266 57.107177 
L 246.160462 54.995417 
L 250.146658 52.054638 
L 254.132853 51.362522 
L 258.119049 52.068717 
L 262.105245 52.768891 
L 266.09144 53.988551 
L 270.077636 52.686952 
L 274.063832 49.924633 
L 278.050027 49.006473 
L 282.036223 48.050085 
L 286.022418 45.645893 
L 290.008614 44.693296 
L 293.99481 45.041496 
L 297.981005 45.015166 
L 301.967201 43.484297 
L 305.953397 42.047903 
L 309.939592 41.733459 
L 313.925788 41.295813 
L 317.911984 40.852873 
L 321.898179 39.961134 
L 325.884375 38.913986 
L 329.870571 38.099744 
L 333.856766 35.909399 
L 337.842962 34.085407 
L 341.829158 33.805338 
L 345.815353 33.729794 
L 349.801549 33.830248 
L 353.787745 33.482129 
L 357.77394 32.238165 
L 361.760136 30.916008 
L 365.746332 30.287273 
L 369.732527 30.07094 
L 373.718723 29.527831 
L 377.704918 28.162339 
L 381.691114 26.563569 
L 385.67731 25.40019 
L 389.663505 24.733852 
L 393.649701 24.213186 
L 397.635897 23.912468 
L 401.622092 23.843709 
L 405.608288 23.837987 
L 409.594484 23.837812 
L 413.580679 23.837812 
L 417.566875 23.837812 
" clip-path="url(#p32f08e1b3c)" style="fill: none; stroke: #808080; stroke-width: 2; stroke-linecap: square"/>
   </g>
   <g id="line2d_25">
    <path d="M 50.836875 248.112812 
L 54.823071 222.019434 
L 58.809266 189.293674 
L 62.795462 160.968472 
L 66.781658 159.388947 
L 70.767853 162.935415 
L 74.754049 152.033041 
L 78.740245 138.434434 
L 82.72644 131.014267 
L 86.712636 129.705199 
L 90.698832 124.139512 
L 94.685027 113.265535 
L 98.671223 107.978155 
L 102.657418 104.978351 
L 106.643614 104.453868 
L 110.62981 106.12637 
L 114.616005 104.20006 
L 118.602201 99.855832 
L 122.588397 97.502642 
L 126.574592 96.875149 
L 130.560788 95.486803 
L 134.546984 92.5186 
L 138.533179 86.327437 
L 142.519375 80.053992 
L 146.505571 77.997265 
L 150.491766 78.86262 
L 154.477962 78.77021 
L 158.464158 74.347184 
L 162.450353 66.696801 
L 166.436549 63.79426 
L 170.422745 66.568201 
L 174.40894 68.702316 
L 178.395136 70.150348 
L 182.381332 71.119771 
L 186.367527 68.953729 
L 190.353723 64.94643 
L 194.339918 60.331161 
L 198.326114 58.84391 
L 202.31231 62.931014 
L 206.298505 65.069825 
L 210.284701 62.071088 
L 214.270897 59.330125 
L 218.257092 57.916611 
L 222.243288 56.085706 
L 226.229484 52.766903 
L 230.215679 49.066449 
L 234.201875 47.013418 
L 238.188071 48.190693 
L 242.174266 49.497379 
L 246.160462 47.479462 
L 250.146658 44.964292 
L 254.132853 44.452346 
L 258.119049 45.109856 
L 262.105245 45.974788 
L 266.09144 47.069897 
L 270.077636 45.505087 
L 274.063832 43.052639 
L 278.050027 42.571853 
L 282.036223 41.854392 
L 286.022418 39.698446 
L 290.008614 38.808634 
L 293.99481 39.092076 
L 297.981005 39.021892 
L 301.967201 37.62549 
L 305.953397 36.248762 
L 309.939592 35.952276 
L 313.925788 35.62546 
L 317.911984 35.173379 
L 321.898179 34.283187 
L 325.884375 33.284565 
L 329.870571 32.684146 
L 333.856766 31.075386 
L 337.842962 29.661864 
L 341.829158 29.402508 
L 345.815353 29.288298 
L 349.801549 29.334253 
L 353.787745 29.114799 
L 357.77394 28.116038 
L 361.760136 27.043699 
L 365.746332 26.577512 
L 369.732527 26.435999 
L 373.718723 26.114304 
L 377.704918 25.227114 
L 381.691114 24.23908 
L 385.67731 23.654145 
L 389.663505 23.556862 
L 393.649701 23.707809 
L 397.635897 23.812711 
L 401.622092 23.835875 
L 405.608288 23.837756 
L 409.594484 23.837812 
L 413.580679 23.837812 
L 417.566875 23.837812 
" clip-path="url(#p32f08e1b3c)" style="fill: none; stroke-dasharray: 3.7,1.6; stroke-dashoffset: 0; stroke: #808080"/>
   </g>
   <g id="line2d_26">
    <path d="M 50.836875 248.112812 
L 54.823071 237.090276 
L 58.809266 219.187013 
L 62.795462 205.16278 
L 66.781658 211.967307 
L 70.767853 218.666813 
L 74.754049 212.680597 
L 78.740245 198.62108 
L 82.72644 187.219895 
L 86.712636 182.957937 
L 90.698832 177.972487 
L 94.685027 170.117227 
L 98.671223 162.456717 
L 102.657418 152.943502 
L 106.643614 146.999476 
L 110.62981 142.991474 
L 114.616005 136.162469 
L 118.602201 130.277308 
L 122.588397 127.675352 
L 126.574592 128.665769 
L 130.560788 130.270594 
L 134.546984 126.585351 
L 138.533179 117.266522 
L 142.519375 110.906508 
L 146.505571 108.986656 
L 150.491766 108.525534 
L 154.477962 107.66793 
L 158.464158 103.799021 
L 162.450353 96.136495 
L 166.436549 93.070089 
L 170.422745 95.931163 
L 174.40894 96.135166 
L 178.395136 96.715278 
L 182.381332 99.022143 
L 186.367527 96.790446 
L 190.353723 90.840442 
L 194.339918 85.19521 
L 198.326114 84.121857 
L 202.31231 88.683517 
L 206.298505 90.368256 
L 210.284701 86.079418 
L 214.270897 83.001019 
L 218.257092 82.263238 
L 222.243288 81.53171 
L 226.229484 78.366642 
L 230.215679 72.928285 
L 234.201875 68.985861 
L 238.188071 69.98599 
L 242.174266 72.326775 
L 246.160462 70.027326 
L 250.146658 66.235332 
L 254.132853 65.182872 
L 258.119049 65.98644 
L 262.105245 66.357096 
L 266.09144 67.825858 
L 270.077636 67.050681 
L 274.063832 63.668622 
L 278.050027 61.875715 
L 282.036223 60.441471 
L 286.022418 57.540787 
L 290.008614 56.46262 
L 293.99481 56.940335 
L 297.981005 57.001713 
L 301.967201 55.20191 
L 305.953397 53.646184 
L 309.939592 53.295824 
L 313.925788 52.63652 
L 317.911984 52.211861 
L 321.898179 51.317027 
L 325.884375 50.172828 
L 329.870571 48.930941 
L 333.856766 45.577426 
L 337.842962 42.932493 
L 341.829158 42.610997 
L 345.815353 42.612785 
L 349.801549 42.822238 
L 353.787745 42.21679 
L 357.77394 40.48242 
L 361.760136 38.660627 
L 365.746332 37.706796 
L 369.732527 37.340823 
L 373.718723 36.354887 
L 377.704918 34.032789 
L 381.691114 31.212547 
L 385.67731 28.892281 
L 389.663505 27.087833 
L 393.649701 25.223939 
L 397.635897 24.111981 
L 401.622092 23.859378 
L 405.608288 23.838449 
L 409.594484 23.837812 
L 413.580679 23.837812 
L 417.566875 23.837812 
" clip-path="url(#p32f08e1b3c)" style="fill: none; stroke-dasharray: 3.7,1.6; stroke-dashoffset: 0; stroke: #808080"/>
   </g>
   <g id="line2d_27">
    <path d="M 50.836875 248.112812 
L 54.823071 250.117404 
L 58.809266 222.821048 
L 62.795462 174.379799 
L 66.781658 152.537185 
L 70.767853 146.212734 
L 74.754049 142.741596 
L 78.740245 135.888208 
L 82.72644 122.822274 
L 86.712636 117.283982 
L 90.698832 117.403752 
L 94.685027 112.483698 
L 98.671223 104.722246 
L 102.657418 103.803234 
L 106.643614 103.561139 
L 110.62981 101.709488 
L 114.616005 100.985477 
L 118.602201 97.730883 
L 122.588397 91.380968 
L 126.574592 88.107152 
L 130.560788 90.304848 
L 134.546984 94.500999 
L 138.533179 93.17176 
L 142.519375 84.9198 
L 146.505571 76.496197 
L 150.491766 69.315543 
L 154.477962 68.18724 
L 158.464158 72.025712 
L 162.450353 72.433022 
L 166.436549 72.957505 
L 170.422745 74.317064 
L 174.40894 70.841585 
L 178.395136 69.156994 
L 182.381332 73.500411 
L 186.367527 74.525101 
L 190.353723 70.757153 
L 194.339918 66.788832 
L 198.326114 67.324177 
L 202.31231 69.299591 
L 206.298505 69.400994 
L 210.284701 68.760685 
L 214.270897 65.398857 
L 218.257092 62.14719 
L 222.243288 59.962103 
L 226.229484 59.782767 
L 230.215679 60.822193 
L 234.201875 61.757871 
L 238.188071 62.209151 
L 242.174266 62.261177 
L 246.160462 61.587202 
L 250.146658 60.344065 
L 254.132853 58.075599 
L 258.119049 57.232375 
L 262.105245 58.220948 
L 266.09144 58.797275 
L 270.077636 58.750367 
L 274.063832 58.651907 
L 278.050027 58.738789 
L 282.036223 58.636196 
L 286.022418 58.282403 
L 290.008614 57.622779 
L 293.99481 57.162861 
L 297.981005 57.706102 
L 301.967201 57.990306 
L 305.953397 57.911218 
L 309.939592 58.120803 
L 313.925788 58.40071 
L 317.911984 58.294115 
L 321.898179 58.432355 
L 325.884375 59.139898 
L 329.870571 59.285528 
L 333.856766 59.192587 
L 337.842962 59.554594 
L 341.829158 59.971711 
L 345.815353 60.118808 
L 349.801549 60.271542 
L 353.787745 60.541796 
L 357.77394 60.606592 
L 361.760136 60.62674 
L 365.746332 60.640817 
L 369.732527 60.705925 
L 373.718723 60.966201 
L 377.704918 61.165014 
L 381.691114 61.212826 
L 385.67731 61.216856 
L 389.663505 61.216979 
L 393.649701 61.216979 
L 397.635897 61.216979 
L 401.622092 61.216979 
L 405.608288 61.216979 
L 409.594484 61.216979 
L 413.580679 61.216979 
L 417.566875 61.216979 
" clip-path="url(#p32f08e1b3c)" style="fill: none; stroke: #8c510a; stroke-width: 2; stroke-linecap: square"/>
   </g>
   <g id="line2d_28">
    <path d="M 50.836875 248.112812 
L 54.823071 244.506766 
L 58.809266 212.48993 
L 62.795462 162.067689 
L 66.781658 141.021384 
L 70.767853 134.691667 
L 74.754049 129.544172 
L 78.740245 121.140334 
L 82.72644 108.639363 
L 86.712636 103.159354 
L 90.698832 102.397634 
L 94.685027 98.966288 
L 98.671223 93.332606 
L 102.657418 92.812913 
L 106.643614 92.684528 
L 110.62981 91.862035 
L 114.616005 91.150967 
L 118.602201 86.341864 
L 122.588397 79.324632 
L 126.574592 76.273522 
L 130.560788 77.986285 
L 134.546984 81.468774 
L 138.533179 80.73521 
L 142.519375 73.791321 
L 146.505571 66.477311 
L 150.491766 60.410959 
L 154.477962 59.826172 
L 158.464158 63.385617 
L 162.450353 63.45818 
L 166.436549 63.88283 
L 170.422745 65.271942 
L 174.40894 62.01688 
L 178.395136 60.569126 
L 182.381332 64.781207 
L 186.367527 65.492974 
L 190.353723 62.210844 
L 194.339918 59.435418 
L 198.326114 60.480329 
L 202.31231 62.46304 
L 206.298505 62.685333 
L 210.284701 62.109735 
L 214.270897 59.101493 
L 218.257092 56.382032 
L 222.243288 54.583269 
L 226.229484 54.429336 
L 230.215679 55.464828 
L 234.201875 56.764949 
L 238.188071 57.465343 
L 242.174266 57.227801 
L 246.160462 56.268768 
L 250.146658 55.212679 
L 254.132853 53.217528 
L 258.119049 52.458631 
L 262.105245 53.687507 
L 266.09144 54.46898 
L 270.077636 54.33298 
L 274.063832 54.169857 
L 278.050027 54.312845 
L 282.036223 54.136453 
L 286.022418 53.797614 
L 290.008614 53.330993 
L 293.99481 52.830951 
L 297.981005 53.340571 
L 301.967201 54.015317 
L 305.953397 54.439231 
L 309.939592 54.87506 
L 313.925788 55.127928 
L 317.911984 54.929186 
L 321.898179 55.349418 
L 325.884375 56.615953 
L 329.870571 56.849668 
L 333.856766 56.864439 
L 337.842962 57.597796 
L 341.829158 58.302112 
L 345.815353 58.583153 
L 349.801549 58.998016 
L 353.787745 59.588425 
L 357.77394 59.590422 
L 361.760136 59.507674 
L 365.746332 59.536016 
L 369.732527 59.807632 
L 373.718723 60.551853 
L 377.704918 61.08146 
L 381.691114 61.20622 
L 385.67731 61.21666 
L 389.663505 61.216979 
L 393.649701 61.216979 
L 397.635897 61.216979 
L 401.622092 61.216979 
L 405.608288 61.216979 
L 409.594484 61.216979 
L 413.580679 61.216979 
L 417.566875 61.216979 
" clip-path="url(#p32f08e1b3c)" style="fill: none; stroke-dasharray: 3.7,1.6; stroke-dashoffset: 0; stroke: #8c510a"/>
   </g>
   <g id="line2d_29">
    <path d="M 50.836875 248.112812 
L 54.823071 261.338681 
L 58.809266 243.483285 
L 62.795462 199.004019 
L 66.781658 175.568786 
L 70.767853 169.254868 
L 74.754049 169.136445 
L 78.740245 165.383958 
L 82.72644 151.188097 
L 86.712636 145.533238 
L 90.698832 147.415988 
L 94.685027 139.518519 
L 98.671223 127.501528 
L 102.657418 125.783877 
L 106.643614 125.314361 
L 110.62981 121.404393 
L 114.616005 120.654497 
L 118.602201 120.50892 
L 122.588397 115.493639 
L 126.574592 111.774413 
L 130.560788 114.941973 
L 134.546984 120.565449 
L 138.533179 118.04486 
L 142.519375 107.176756 
L 146.505571 96.533969 
L 150.491766 87.124711 
L 154.477962 84.909376 
L 158.464158 89.305904 
L 162.450353 90.382705 
L 166.436549 91.106856 
L 170.422745 92.407307 
L 174.40894 88.490996 
L 178.395136 86.332732 
L 182.381332 90.938819 
L 186.367527 92.589354 
L 190.353723 87.849773 
L 194.339918 81.49566 
L 198.326114 81.011872 
L 202.31231 82.972691 
L 206.298505 82.832315 
L 210.284701 82.062584 
L 214.270897 77.993585 
L 218.257092 73.677506 
L 222.243288 70.719771 
L 226.229484 70.489631 
L 230.215679 71.536924 
L 234.201875 71.743713 
L 238.188071 71.696766 
L 242.174266 72.327928 
L 246.160462 72.22407 
L 250.146658 70.606838 
L 254.132853 67.791741 
L 258.119049 66.779862 
L 262.105245 67.287832 
L 266.09144 67.453864 
L 270.077636 67.585143 
L 274.063832 67.616006 
L 278.050027 67.590679 
L 282.036223 67.635682 
L 286.022418 67.251979 
L 290.008614 66.206351 
L 293.99481 65.82668 
L 297.981005 66.437165 
L 301.967201 65.940283 
L 305.953397 64.855193 
L 309.939592 64.612288 
L 313.925788 64.946273 
L 317.911984 65.023973 
L 321.898179 64.59823 
L 325.884375 64.187789 
L 329.870571 64.157249 
L 333.856766 63.848883 
L 337.842962 63.468191 
L 341.829158 63.310908 
L 345.815353 63.19012 
L 349.801549 62.818595 
L 353.787745 62.448539 
L 357.77394 62.638933 
L 361.760136 62.864874 
L 365.746332 62.850417 
L 369.732527 62.50251 
L 373.718723 61.794899 
L 377.704918 61.332123 
L 381.691114 61.22604 
L 385.67731 61.217246 
L 389.663505 61.216979 
L 393.649701 61.216979 
L 397.635897 61.216979 
L 401.622092 61.216979 
L 405.608288 61.216979 
L 409.594484 61.216979 
L 413.580679 61.216979 
L 417.566875 61.216979 
" clip-path="url(#p32f08e1b3c)" style="fill: none; stroke-dasharray: 3.7,1.6; stroke-dashoffset: 0; stroke: #8c510a"/>
   </g>
   <g id="line2d_30">
    <path d="M 50.836875 248.112812 
L 54.823071 241.078731 
L 58.809266 228.619382 
L 62.795462 218.010128 
L 66.781658 222.355198 
L 70.767853 230.236902 
L 74.754049 239.811045 
L 78.740245 246.290504 
L 82.72644 232.40956 
L 86.712636 219.234983 
L 90.698832 217.376524 
L 94.685027 204.626632 
L 98.671223 198.263944 
L 102.657418 200.601167 
L 106.643614 203.064651 
L 110.62981 198.082378 
L 114.616005 194.493552 
L 118.602201 196.119654 
L 122.588397 185.979634 
L 126.574592 174.520294 
L 130.560788 177.948466 
L 134.546984 188.322697 
L 138.533179 189.678583 
L 142.519375 177.828294 
L 146.505571 165.554496 
L 150.491766 165.649542 
L 154.477962 168.533948 
L 158.464158 172.060426 
L 162.450353 170.865595 
L 166.436549 167.493122 
L 170.422745 170.236888 
L 174.40894 169.908924 
L 178.395136 164.730149 
L 182.381332 163.26292 
L 186.367527 170.261194 
L 190.353723 175.886547 
L 194.339918 171.62373 
L 198.326114 160.230572 
L 202.31231 156.108148 
L 206.298505 161.013244 
L 210.284701 159.438184 
L 214.270897 156.632213 
L 218.257092 159.476167 
L 222.243288 160.206503 
L 226.229484 162.461724 
L 230.215679 167.092228 
L 234.201875 164.621882 
L 238.188071 159.142182 
L 242.174266 154.298099 
L 246.160462 146.664861 
L 250.146658 138.506895 
L 254.132853 136.538917 
L 258.119049 136.336622 
L 262.105245 133.440152 
L 266.09144 131.783702 
L 270.077636 132.945916 
L 274.063832 136.398984 
L 278.050027 138.443062 
L 282.036223 138.376318 
L 286.022418 138.362752 
L 290.008614 138.007932 
L 293.99481 137.980255 
L 297.981005 138.216192 
L 301.967201 139.791143 
L 305.953397 136.213044 
L 309.939592 127.602238 
L 313.925788 124.621754 
L 317.911984 127.397426 
L 321.898179 130.319079 
L 325.884375 132.803096 
L 329.870571 132.281772 
L 333.856766 131.054412 
L 337.842962 133.819602 
L 341.829158 136.828587 
L 345.815353 133.785489 
L 349.801549 128.500557 
L 353.787745 126.288899 
L 357.77394 128.420821 
L 361.760136 131.102359 
L 365.746332 131.571578 
L 369.732527 131.476806 
L 373.718723 132.639548 
L 377.704918 133.331203 
L 381.691114 132.668467 
L 385.67731 132.16686 
L 389.663505 132.498924 
L 393.649701 132.695638 
L 397.635897 133.46042 
L 401.622092 134.912627 
L 405.608288 135.772571 
L 409.594484 135.959678 
L 413.580679 135.974858 
L 417.566875 135.975312 
" clip-path="url(#p32f08e1b3c)" style="fill: none; stroke: #01665e; stroke-width: 2; stroke-linecap: square"/>
   </g>
   <g id="line2d_31">
    <path d="M 50.836875 248.112812 
L 54.823071 230.848383 
L 58.809266 210.59356 
L 62.795462 198.884007 
L 66.781658 206.671145 
L 70.767853 212.454371 
L 74.754049 216.579269 
L 78.740245 220.994715 
L 82.72644 208.70024 
L 86.712636 197.512618 
L 90.698832 196.501063 
L 94.685027 185.01597 
L 98.671223 177.916703 
L 102.657418 176.927639 
L 106.643614 178.650812 
L 110.62981 176.198361 
L 114.616005 173.886369 
L 118.602201 174.160494 
L 122.588397 164.093971 
L 126.574592 153.723726 
L 130.560788 156.537361 
L 134.546984 166.280056 
L 138.533179 168.011316 
L 142.519375 156.809743 
L 146.505571 145.286126 
L 150.491766 145.374964 
L 154.477962 147.42936 
L 158.464158 150.41522 
L 162.450353 150.321491 
L 166.436549 148.263696 
L 170.422745 150.806318 
L 174.40894 150.561853 
L 178.395136 146.697969 
L 182.381332 145.575198 
L 186.367527 151.135573 
L 190.353723 156.081183 
L 194.339918 153.03588 
L 198.326114 141.998826 
L 202.31231 135.873874 
L 206.298505 139.443198 
L 210.284701 139.988066 
L 214.270897 139.391696 
L 218.257092 142.30934 
L 222.243288 142.194559 
L 226.229484 142.727016 
L 230.215679 145.657178 
L 234.201875 143.189593 
L 238.188071 138.292504 
L 242.174266 134.022173 
L 246.160462 127.618952 
L 250.146658 121.261461 
L 254.132853 120.300694 
L 258.119049 121.052451 
L 262.105245 119.898414 
L 266.09144 119.139322 
L 270.077636 119.988541 
L 274.063832 122.179212 
L 278.050027 123.236831 
L 282.036223 123.140909 
L 286.022418 122.779964 
L 290.008614 122.932609 
L 293.99481 124.377184 
L 297.981005 124.911845 
L 301.967201 125.268657 
L 305.953397 122.597131 
L 309.939592 116.227354 
L 313.925788 113.616553 
L 317.911984 116.451192 
L 321.898179 120.042142 
L 325.884375 122.34335 
L 329.870571 121.360442 
L 333.856766 119.458442 
L 337.842962 121.720509 
L 341.829158 124.768217 
L 345.815353 122.713071 
L 349.801549 118.602724 
L 353.787745 117.111711 
L 357.77394 120.037978 
L 361.760136 123.508278 
L 365.746332 124.589621 
L 369.732527 124.93539 
L 373.718723 126.585846 
L 377.704918 127.771345 
L 381.691114 126.603229 
L 385.67731 126.184579 
L 389.663505 127.804143 
L 393.649701 128.86236 
L 397.635897 130.651147 
L 401.622092 133.71541 
L 405.608288 135.541409 
L 409.594484 135.94174 
L 413.580679 135.974334 
L 417.566875 135.975312 
" clip-path="url(#p32f08e1b3c)" style="fill: none; stroke-dasharray: 3.7,1.6; stroke-dashoffset: 0; stroke: #01665e"/>
   </g>
   <g id="line2d_32">
    <path d="M 50.836875 248.112812 
L 54.823071 261.539427 
L 58.809266 264.671027 
L 62.795462 256.262369 
L 66.781658 253.723305 
L 70.767853 265.801964 
L 74.754049 286.274597 
L 78.740245 296.882081 
L 82.72644 279.828199 
L 86.712636 262.679713 
L 90.698832 259.127446 
L 94.685027 243.847956 
L 98.671223 238.958425 
L 102.657418 247.948224 
L 106.643614 251.89233 
L 110.62981 241.850413 
L 114.616005 235.707918 
L 118.602201 240.037976 
L 122.588397 229.750958 
L 126.574592 216.113431 
L 130.560788 220.770678 
L 134.546984 232.407981 
L 138.533179 233.013118 
L 142.519375 219.865395 
L 146.505571 206.091238 
L 150.491766 206.198699 
L 154.477962 210.743126 
L 158.464158 215.350837 
L 162.450353 211.953804 
L 166.436549 205.951975 
L 170.422745 209.098028 
L 174.40894 208.603067 
L 178.395136 200.794509 
L 182.381332 198.638364 
L 186.367527 208.512436 
L 190.353723 215.497276 
L 194.339918 208.79943 
L 198.326114 196.694063 
L 202.31231 196.576696 
L 206.298505 204.153338 
L 210.284701 198.338422 
L 214.270897 191.113246 
L 218.257092 193.809819 
L 222.243288 196.230393 
L 226.229484 201.93114 
L 230.215679 209.962327 
L 234.201875 207.486459 
L 238.188071 200.841537 
L 242.174266 194.849953 
L 246.160462 184.75668 
L 250.146658 172.997762 
L 254.132853 169.015362 
L 258.119049 166.904963 
L 262.105245 160.523628 
L 266.09144 157.072461 
L 270.077636 158.860666 
L 274.063832 164.838528 
L 278.050027 168.855523 
L 282.036223 168.847136 
L 286.022418 169.528328 
L 290.008614 168.158577 
L 293.99481 165.186399 
L 297.981005 164.824886 
L 301.967201 168.836115 
L 305.953397 163.444869 
L 309.939592 150.352006 
L 313.925788 146.632156 
L 317.911984 149.289893 
L 321.898179 150.872951 
L 325.884375 153.72259 
L 329.870571 154.124433 
L 333.856766 154.24635 
L 337.842962 158.017786 
L 341.829158 160.949328 
L 345.815353 155.930327 
L 349.801549 148.296222 
L 353.787745 144.643276 
L 357.77394 145.186507 
L 361.760136 146.29052 
L 365.746332 145.535493 
L 369.732527 144.559639 
L 373.718723 144.746951 
L 377.704918 144.450921 
L 381.691114 144.798943 
L 385.67731 144.131423 
L 389.663505 141.888487 
L 393.649701 140.362194 
L 397.635897 139.078967 
L 401.622092 137.307061 
L 405.608288 136.234895 
L 409.594484 135.995553 
L 413.580679 135.975906 
L 417.566875 135.975312 
" clip-path="url(#p32f08e1b3c)" style="fill: none; stroke-dasharray: 3.7,1.6; stroke-dashoffset: 0; stroke: #01665e"/>
   </g>
   <g id="patch_3">
    <path d="M 50.836875 382.677812 
L 50.836875 23.837812 
" style="fill: none; stroke: #000000; stroke-width: 0.8; stroke-linejoin: miter; stroke-linecap: square"/>
   </g>
   <g id="patch_4">
    <path d="M 417.566875 382.677812 
L 417.566875 23.837812 
" style="fill: none; stroke: #000000; stroke-width: 0.8; stroke-linejoin: miter; stroke-linecap: square"/>
   </g>
   <g id="patch_5">
    <path d="M 50.836875 382.677812 
L 417.566875 382.677812 
" style="fill: none; stroke: #000000; stroke-width: 0.8; stroke-linejoin: miter; stroke-linecap: square"/>
   </g>
   <g id="patch_6">
    <path d="M 50.836875 23.837812 
L 417.566875 23.837812 
" style="fill: none; stroke: #000000; stroke-width: 0.8; stroke-linejoin: miter; stroke-linecap: square"/>
   </g>
   <g id="text_17">
    <!-- LogP -->
    <g transform="translate(217.47625 17.837812) scale(0.14 -0.14)">
     <defs>
      <path id="DejaVuSans-4c" d="M 628 4666 
L 1259 4666 
L 1259 531 
L 3531 531 
L 3531 0 
L 628 0 
L 628 4666 
z
" transform="scale(0.015625)"/>
      <path id="DejaVuSans-67" d="M 2906 1791 
Q 2906 2416 2648 2759 
Q 2391 3103 1925 3103 
Q 1463 3103 1205 2759 
Q 947 2416 947 1791 
Q 947 1169 1205 825 
Q 1463 481 1925 481 
Q 2391 481 2648 825 
Q 2906 1169 2906 1791 
z
M 3481 434 
Q 3481 -459 3084 -895 
Q 2688 -1331 1869 -1331 
Q 1566 -1331 1297 -1286 
Q 1028 -1241 775 -1147 
L 775 -588 
Q 1028 -725 1275 -790 
Q 1522 -856 1778 -856 
Q 2344 -856 2625 -561 
Q 2906 -266 2906 331 
L 2906 616 
Q 2728 306 2450 153 
Q 2172 0 1784 0 
Q 1141 0 747 490 
Q 353 981 353 1791 
Q 353 2603 747 3093 
Q 1141 3584 1784 3584 
Q 2172 3584 2450 3431 
Q 2728 3278 2906 2969 
L 2906 3500 
L 3481 3500 
L 3481 434 
z
" transform="scale(0.015625)"/>
      <path id="DejaVuSans-50" d="M 1259 4147 
L 1259 2394 
L 2053 2394 
Q 2494 2394 2734 2622 
Q 2975 2850 2975 3272 
Q 2975 3691 2734 3919 
Q 2494 4147 2053 4147 
L 1259 4147 
z
M 628 4666 
L 2053 4666 
Q 2838 4666 3239 4311 
Q 3641 3956 3641 3272 
Q 3641 2581 3239 2228 
Q 2838 1875 2053 1875 
L 1259 1875 
L 1259 0 
L 628 0 
L 628 4666 
z
" transform="scale(0.015625)"/>
     </defs>
     <use xlink:href="#DejaVuSans-4c"/>
     <use xlink:href="#DejaVuSans-6f" x="53.962891"/>
     <use xlink:href="#DejaVuSans-67" x="115.144531"/>
     <use xlink:href="#DejaVuSans-50" x="178.621094"/>
    </g>
   </g>
   <g id="legend_1">
    <g id="patch_7">
     <path d="M 263.512187 377.677812 
L 410.566875 377.677812 
Q 412.566875 377.677812 412.566875 375.677812 
L 412.566875 331.809062 
Q 412.566875 329.809062 410.566875 329.809062 
L 263.512187 329.809062 
Q 261.512187 329.809062 261.512187 331.809062 
L 261.512187 375.677812 
Q 261.512187 377.677812 263.512187 377.677812 
z
" style="fill: #ffffff; opacity: 0.8; stroke: #cccccc; stroke-linejoin: miter"/>
    </g>
    <g id="line2d_33">
     <path d="M 265.512187 337.9075 
L 275.512187 337.9075 
L 285.512187 337.9075 
" style="fill: none; stroke: #808080; stroke-width: 2; stroke-linecap: square"/>
    </g>
    <g id="text_18">
     <!-- most_frequent -->
     <g transform="translate(293.512187 341.4075) scale(0.1 -0.1)">
      <defs>
       <path id="DejaVuSans-5f" d="M 3263 -1063 
L 3263 -1509 
L -63 -1509 
L -63 -1063 
L 3263 -1063 
z
" transform="scale(0.015625)"/>
       <path id="DejaVuSans-71" d="M 947 1747 
Q 947 1113 1208 752 
Q 1469 391 1925 391 
Q 2381 391 2643 752 
Q 2906 1113 2906 1747 
Q 2906 2381 2643 2742 
Q 2381 3103 1925 3103 
Q 1469 3103 1208 2742 
Q 947 2381 947 1747 
z
M 2906 525 
Q 2725 213 2448 61 
Q 2172 -91 1784 -91 
Q 1150 -91 751 415 
Q 353 922 353 1747 
Q 353 2572 751 3078 
Q 1150 3584 1784 3584 
Q 2172 3584 2448 3432 
Q 2725 3281 2906 2969 
L 2906 3500 
L 3481 3500 
L 3481 -1331 
L 2906 -1331 
L 2906 525 
z
" transform="scale(0.015625)"/>
      </defs>
      <use xlink:href="#DejaVuSans-6d"/>
      <use xlink:href="#DejaVuSans-6f" x="97.412109"/>
      <use xlink:href="#DejaVuSans-73" x="158.59375"/>
      <use xlink:href="#DejaVuSans-74" x="210.693359"/>
      <use xlink:href="#DejaVuSans-5f" x="249.902344"/>
      <use xlink:href="#DejaVuSans-66" x="299.902344"/>
      <use xlink:href="#DejaVuSans-72" x="335.107422"/>
      <use xlink:href="#DejaVuSans-65" x="373.970703"/>
      <use xlink:href="#DejaVuSans-71" x="435.494141"/>
      <use xlink:href="#DejaVuSans-75" x="498.970703"/>
      <use xlink:href="#DejaVuSans-65" x="562.349609"/>
      <use xlink:href="#DejaVuSans-6e" x="623.873047"/>
      <use xlink:href="#DejaVuSans-74" x="687.251953"/>
     </g>
    </g>
    <g id="line2d_34">
     <path d="M 265.512187 352.86375 
L 275.512187 352.86375 
L 285.512187 352.86375 
" style="fill: none; stroke: #8c510a; stroke-width: 2; stroke-linecap: square"/>
    </g>
    <g id="text_19">
     <!-- log_odds -->
     <g transform="translate(293.512187 356.36375) scale(0.1 -0.1)">
      <defs>
       <path id="DejaVuSans-6c" d="M 603 4863 
L 1178 4863 
L 1178 0 
L 603 0 
L 603 4863 
z
" transform="scale(0.015625)"/>
       <path id="DejaVuSans-64" d="M 2906 2969 
L 2906 4863 
L 3481 4863 
L 3481 0 
L 2906 0 
L 2906 525 
Q 2725 213 2448 61 
Q 2172 -91 1784 -91 
Q 1150 -91 751 415 
Q 353 922 353 1747 
Q 353 2572 751 3078 
Q 1150 3584 1784 3584 
Q 2172 3584 2448 3432 
Q 2725 3281 2906 2969 
z
M 947 1747 
Q 947 1113 1208 752 
Q 1469 391 1925 391 
Q 2381 391 2643 752 
Q 2906 1113 2906 1747 
Q 2906 2381 2643 2742 
Q 2381 3103 1925 3103 
Q 1469 3103 1208 2742 
Q 947 2381 947 1747 
z
" transform="scale(0.015625)"/>
      </defs>
      <use xlink:href="#DejaVuSans-6c"/>
      <use xlink:href="#DejaVuSans-6f" x="27.783203"/>
      <use xlink:href="#DejaVuSans-67" x="88.964844"/>
      <use xlink:href="#DejaVuSans-5f" x="152.441406"/>
      <use xlink:href="#DejaVuSans-6f" x="202.441406"/>
      <use xlink:href="#DejaVuSans-64" x="263.623047"/>
      <use xlink:href="#DejaVuSans-64" x="327.099609"/>
      <use xlink:href="#DejaVuSans-73" x="390.576172"/>
     </g>
    </g>
    <g id="line2d_35">
     <path d="M 265.512187 367.82 
L 275.512187 367.82 
L 285.512187 367.82 
" style="fill: none; stroke: #01665e; stroke-width: 2; stroke-linecap: square"/>
    </g>
    <g id="text_20">
     <!-- weighted_by_expertise -->
     <g transform="translate(293.512187 371.32) scale(0.1 -0.1)">
      <defs>
       <path id="DejaVuSans-77" d="M 269 3500 
L 844 3500 
L 1563 769 
L 2278 3500 
L 2956 3500 
L 3675 769 
L 4391 3500 
L 4966 3500 
L 4050 0 
L 3372 0 
L 2619 2869 
L 1863 0 
L 1184 0 
L 269 3500 
z
" transform="scale(0.015625)"/>
       <path id="DejaVuSans-68" d="M 3513 2113 
L 3513 0 
L 2938 0 
L 2938 2094 
Q 2938 2591 2744 2837 
Q 2550 3084 2163 3084 
Q 1697 3084 1428 2787 
Q 1159 2491 1159 1978 
L 1159 0 
L 581 0 
L 581 4863 
L 1159 4863 
L 1159 2956 
Q 1366 3272 1645 3428 
Q 1925 3584 2291 3584 
Q 2894 3584 3203 3211 
Q 3513 2838 3513 2113 
z
" transform="scale(0.015625)"/>
       <path id="DejaVuSans-79" d="M 2059 -325 
Q 1816 -950 1584 -1140 
Q 1353 -1331 966 -1331 
L 506 -1331 
L 506 -850 
L 844 -850 
Q 1081 -850 1212 -737 
Q 1344 -625 1503 -206 
L 1606 56 
L 191 3500 
L 800 3500 
L 1894 763 
L 2988 3500 
L 3597 3500 
L 2059 -325 
z
" transform="scale(0.015625)"/>
       <path id="DejaVuSans-78" d="M 3513 3500 
L 2247 1797 
L 3578 0 
L 2900 0 
L 1881 1375 
L 863 0 
L 184 0 
L 1544 1831 
L 300 3500 
L 978 3500 
L 1906 2253 
L 2834 3500 
L 3513 3500 
z
" transform="scale(0.015625)"/>
      </defs>
      <use xlink:href="#DejaVuSans-77"/>
      <use xlink:href="#DejaVuSans-65" x="81.787109"/>
      <use xlink:href="#DejaVuSans-69" x="143.310547"/>
      <use xlink:href="#DejaVuSans-67" x="171.09375"/>
      <use xlink:href="#DejaVuSans-68" x="234.570312"/>
      <use xlink:href="#DejaVuSans-74" x="297.949219"/>
      <use xlink:href="#DejaVuSans-65" x="337.158203"/>
      <use xlink:href="#DejaVuSans-64" x="398.681641"/>
      <use xlink:href="#DejaVuSans-5f" x="462.158203"/>
      <use xlink:href="#DejaVuSans-62" x="512.158203"/>
      <use xlink:href="#DejaVuSans-79" x="575.634766"/>
      <use xlink:href="#DejaVuSans-5f" x="634.814453"/>
      <use xlink:href="#DejaVuSans-65" x="684.814453"/>
      <use xlink:href="#DejaVuSans-78" x="744.587891"/>
      <use xlink:href="#DejaVuSans-70" x="803.767578"/>
      <use xlink:href="#DejaVuSans-65" x="867.244141"/>
      <use xlink:href="#DejaVuSans-72" x="928.767578"/>
      <use xlink:href="#DejaVuSans-74" x="969.880859"/>
      <use xlink:href="#DejaVuSans-69" x="1009.089844"/>
      <use xlink:href="#DejaVuSans-73" x="1036.873047"/>
      <use xlink:href="#DejaVuSans-65" x="1088.972656"/>
     </g>
    </g>
   </g>
  </g>
 </g>
 <defs>
  <clipPath id="p32f08e1b3c">
   <rect x="50.836875" y="23.837812" width="366.73" height="358.84"/>
  </clipPath>
 </defs>
</svg>
