<?xml version="1.0" encoding="utf-8" standalone="no"?>
<!DOCTYPE svg PUBLIC "-//W3C//DTD SVG 1.1//EN"
  "http://www.w3.org/Graphics/SVG/1.1/DTD/svg11.dtd">
<svg xmlns:xlink="http://www.w3.org/1999/xlink" width="420.050875pt" height="424.105312pt" viewBox="0 0 420.050875 424.105312" xmlns="http://www.w3.org/2000/svg" version="1.1">
 <metadata>
  <rdf:RDF xmlns:dc="http://purl.org/dc/elements/1.1/" xmlns:cc="http://creativecommons.org/ns#" xmlns:rdf="http://www.w3.org/1999/02/22-rdf-syntax-ns#">
   <cc:Work>
    <dc:type rdf:resource="http://purl.org/dc/dcmitype/StillImage"/>
    <dc:date>2024-04-17T11:51:32.853879</dc:date>
    <dc:format>image/svg+xml</dc:format>
    <dc:creator>
     <cc:Agent>
      <dc:title>Matplotlib v3.6.2, https://matplotlib.org/</dc:title>
     </cc:Agent>
    </dc:creator>
   </cc:Work>
  </rdf:RDF>
 </metadata>
 <defs>
  <style type="text/css">*{stroke-linejoin: round; stroke-linecap: butt}</style>
 </defs>
 <g id="figure_1">
  <g id="patch_1">
   <path d="M 0 424.105312 
L 420.050875 424.105312 
L 420.050875 0 
L 0 0 
z
" style="fill: #ffffff"/>
  </g>
  <g id="axes_1">
   <g id="patch_2">
    <path d="M 50.836875 382.677812 
L 412.850875 382.677812 
L 412.850875 23.837812 
L 50.836875 23.837812 
z
" style="fill: #ffffff"/>
   </g>
   <g id="matplotlib.axis_1">
    <g id="xtick_1">
     <g id="line2d_1">
      <defs>
       <path id="mec011e7099" d="M 0 0 
L 0 3.5 
" style="stroke: #000000; stroke-width: 0.8"/>
      </defs>
      <g>
       <use xlink:href="#mec011e7099" x="50.836875" y="382.677812" style="stroke: #000000; stroke-width: 0.8"/>
      </g>
     </g>
     <g id="text_1">
      <!-- 0 -->
      <g transform="translate(47.655625 397.27625) scale(0.1 -0.1)">
       <defs>
        <path id="DejaVuSans-30" d="M 2034 4250 
Q 1547 4250 1301 3770 
Q 1056 3291 1056 2328 
Q 1056 1369 1301 889 
Q 1547 409 2034 409 
Q 2525 409 2770 889 
Q 3016 1369 3016 2328 
Q 3016 3291 2770 3770 
Q 2525 4250 2034 4250 
z
M 2034 4750 
Q 2819 4750 3233 4129 
Q 3647 3509 3647 2328 
Q 3647 1150 3233 529 
Q 2819 -91 2034 -91 
Q 1250 -91 836 529 
Q 422 1150 422 2328 
Q 422 3509 836 4129 
Q 1250 4750 2034 4750 
z
" transform="scale(0.015625)"/>
       </defs>
       <use xlink:href="#DejaVuSans-30"/>
      </g>
     </g>
    </g>
    <g id="xtick_2">
     <g id="line2d_2">
      <g>
       <use xlink:href="#mec011e7099" x="129.535571" y="382.677812" style="stroke: #000000; stroke-width: 0.8"/>
      </g>
     </g>
     <g id="text_2">
      <!-- 20 -->
      <g transform="translate(123.173071 397.27625) scale(0.1 -0.1)">
       <defs>
        <path id="DejaVuSans-32" d="M 1228 531 
L 3431 531 
L 3431 0 
L 469 0 
L 469 531 
Q 828 903 1448 1529 
Q 2069 2156 2228 2338 
Q 2531 2678 2651 2914 
Q 2772 3150 2772 3378 
Q 2772 3750 2511 3984 
Q 2250 4219 1831 4219 
Q 1534 4219 1204 4116 
Q 875 4013 500 3803 
L 500 4441 
Q 881 4594 1212 4672 
Q 1544 4750 1819 4750 
Q 2544 4750 2975 4387 
Q 3406 4025 3406 3419 
Q 3406 3131 3298 2873 
Q 3191 2616 2906 2266 
Q 2828 2175 2409 1742 
Q 1991 1309 1228 531 
z
" transform="scale(0.015625)"/>
       </defs>
       <use xlink:href="#DejaVuSans-32"/>
       <use xlink:href="#DejaVuSans-30" x="63.623047"/>
      </g>
     </g>
    </g>
    <g id="xtick_3">
     <g id="line2d_3">
      <g>
       <use xlink:href="#mec011e7099" x="208.234266" y="382.677812" style="stroke: #000000; stroke-width: 0.8"/>
      </g>
     </g>
     <g id="text_3">
      <!-- 40 -->
      <g transform="translate(201.871766 397.27625) scale(0.1 -0.1)">
       <defs>
        <path id="DejaVuSans-34" d="M 2419 4116 
L 825 1625 
L 2419 1625 
L 2419 4116 
z
M 2253 4666 
L 3047 4666 
L 3047 1625 
L 3713 1625 
L 3713 1100 
L 3047 1100 
L 3047 0 
L 2419 0 
L 2419 1100 
L 313 1100 
L 313 1709 
L 2253 4666 
z
" transform="scale(0.015625)"/>
       </defs>
       <use xlink:href="#DejaVuSans-34"/>
       <use xlink:href="#DejaVuSans-30" x="63.623047"/>
      </g>
     </g>
    </g>
    <g id="xtick_4">
     <g id="line2d_4">
      <g>
       <use xlink:href="#mec011e7099" x="286.932962" y="382.677812" style="stroke: #000000; stroke-width: 0.8"/>
      </g>
     </g>
     <g id="text_4">
      <!-- 60 -->
      <g transform="translate(280.570462 397.27625) scale(0.1 -0.1)">
       <defs>
        <path id="DejaVuSans-36" d="M 2113 2584 
Q 1688 2584 1439 2293 
Q 1191 2003 1191 1497 
Q 1191 994 1439 701 
Q 1688 409 2113 409 
Q 2538 409 2786 701 
Q 3034 994 3034 1497 
Q 3034 2003 2786 2293 
Q 2538 2584 2113 2584 
z
M 3366 4563 
L 3366 3988 
Q 3128 4100 2886 4159 
Q 2644 4219 2406 4219 
Q 1781 4219 1451 3797 
Q 1122 3375 1075 2522 
Q 1259 2794 1537 2939 
Q 1816 3084 2150 3084 
Q 2853 3084 3261 2657 
Q 3669 2231 3669 1497 
Q 3669 778 3244 343 
Q 2819 -91 2113 -91 
Q 1303 -91 875 529 
Q 447 1150 447 2328 
Q 447 3434 972 4092 
Q 1497 4750 2381 4750 
Q 2619 4750 2861 4703 
Q 3103 4656 3366 4563 
z
" transform="scale(0.015625)"/>
       </defs>
       <use xlink:href="#DejaVuSans-36"/>
       <use xlink:href="#DejaVuSans-30" x="63.623047"/>
      </g>
     </g>
    </g>
    <g id="xtick_5">
     <g id="line2d_5">
      <g>
       <use xlink:href="#mec011e7099" x="365.631658" y="382.677812" style="stroke: #000000; stroke-width: 0.8"/>
      </g>
     </g>
     <g id="text_5">
      <!-- 80 -->
      <g transform="translate(359.269158 397.27625) scale(0.1 -0.1)">
       <defs>
        <path id="DejaVuSans-38" d="M 2034 2216 
Q 1584 2216 1326 1975 
Q 1069 1734 1069 1313 
Q 1069 891 1326 650 
Q 1584 409 2034 409 
Q 2484 409 2743 651 
Q 3003 894 3003 1313 
Q 3003 1734 2745 1975 
Q 2488 2216 2034 2216 
z
M 1403 2484 
Q 997 2584 770 2862 
Q 544 3141 544 3541 
Q 544 4100 942 4425 
Q 1341 4750 2034 4750 
Q 2731 4750 3128 4425 
Q 3525 4100 3525 3541 
Q 3525 3141 3298 2862 
Q 3072 2584 2669 2484 
Q 3125 2378 3379 2068 
Q 3634 1759 3634 1313 
Q 3634 634 3220 271 
Q 2806 -91 2034 -91 
Q 1263 -91 848 271 
Q 434 634 434 1313 
Q 434 1759 690 2068 
Q 947 2378 1403 2484 
z
M 1172 3481 
Q 1172 3119 1398 2916 
Q 1625 2713 2034 2713 
Q 2441 2713 2670 2916 
Q 2900 3119 2900 3481 
Q 2900 3844 2670 4047 
Q 2441 4250 2034 4250 
Q 1625 4250 1398 4047 
Q 1172 3844 1172 3481 
z
" transform="scale(0.015625)"/>
       </defs>
       <use xlink:href="#DejaVuSans-38"/>
       <use xlink:href="#DejaVuSans-30" x="63.623047"/>
      </g>
     </g>
    </g>
    <g id="text_6">
     <!-- Number of participants -->
     <g transform="translate(150.872469 413.99375) scale(0.14 -0.14)">
      <defs>
       <path id="DejaVuSans-4e" d="M 628 4666 
L 1478 4666 
L 3547 763 
L 3547 4666 
L 4159 4666 
L 4159 0 
L 3309 0 
L 1241 3903 
L 1241 0 
L 628 0 
L 628 4666 
z
" transform="scale(0.015625)"/>
       <path id="DejaVuSans-75" d="M 544 1381 
L 544 3500 
L 1119 3500 
L 1119 1403 
Q 1119 906 1312 657 
Q 1506 409 1894 409 
Q 2359 409 2629 706 
Q 2900 1003 2900 1516 
L 2900 3500 
L 3475 3500 
L 3475 0 
L 2900 0 
L 2900 538 
Q 2691 219 2414 64 
Q 2138 -91 1772 -91 
Q 1169 -91 856 284 
Q 544 659 544 1381 
z
M 1991 3584 
L 1991 3584 
z
" transform="scale(0.015625)"/>
       <path id="DejaVuSans-6d" d="M 3328 2828 
Q 3544 3216 3844 3400 
Q 4144 3584 4550 3584 
Q 5097 3584 5394 3201 
Q 5691 2819 5691 2113 
L 5691 0 
L 5113 0 
L 5113 2094 
Q 5113 2597 4934 2840 
Q 4756 3084 4391 3084 
Q 3944 3084 3684 2787 
Q 3425 2491 3425 1978 
L 3425 0 
L 2847 0 
L 2847 2094 
Q 2847 2600 2669 2842 
Q 2491 3084 2119 3084 
Q 1678 3084 1418 2786 
Q 1159 2488 1159 1978 
L 1159 0 
L 581 0 
L 581 3500 
L 1159 3500 
L 1159 2956 
Q 1356 3278 1631 3431 
Q 1906 3584 2284 3584 
Q 2666 3584 2933 3390 
Q 3200 3197 3328 2828 
z
" transform="scale(0.015625)"/>
       <path id="DejaVuSans-62" d="M 3116 1747 
Q 3116 2381 2855 2742 
Q 2594 3103 2138 3103 
Q 1681 3103 1420 2742 
Q 1159 2381 1159 1747 
Q 1159 1113 1420 752 
Q 1681 391 2138 391 
Q 2594 391 2855 752 
Q 3116 1113 3116 1747 
z
M 1159 2969 
Q 1341 3281 1617 3432 
Q 1894 3584 2278 3584 
Q 2916 3584 3314 3078 
Q 3713 2572 3713 1747 
Q 3713 922 3314 415 
Q 2916 -91 2278 -91 
Q 1894 -91 1617 61 
Q 1341 213 1159 525 
L 1159 0 
L 581 0 
L 581 4863 
L 1159 4863 
L 1159 2969 
z
" transform="scale(0.015625)"/>
       <path id="DejaVuSans-65" d="M 3597 1894 
L 3597 1613 
L 953 1613 
Q 991 1019 1311 708 
Q 1631 397 2203 397 
Q 2534 397 2845 478 
Q 3156 559 3463 722 
L 3463 178 
Q 3153 47 2828 -22 
Q 2503 -91 2169 -91 
Q 1331 -91 842 396 
Q 353 884 353 1716 
Q 353 2575 817 3079 
Q 1281 3584 2069 3584 
Q 2775 3584 3186 3129 
Q 3597 2675 3597 1894 
z
M 3022 2063 
Q 3016 2534 2758 2815 
Q 2500 3097 2075 3097 
Q 1594 3097 1305 2825 
Q 1016 2553 972 2059 
L 3022 2063 
z
" transform="scale(0.015625)"/>
       <path id="DejaVuSans-72" d="M 2631 2963 
Q 2534 3019 2420 3045 
Q 2306 3072 2169 3072 
Q 1681 3072 1420 2755 
Q 1159 2438 1159 1844 
L 1159 0 
L 581 0 
L 581 3500 
L 1159 3500 
L 1159 2956 
Q 1341 3275 1631 3429 
Q 1922 3584 2338 3584 
Q 2397 3584 2469 3576 
Q 2541 3569 2628 3553 
L 2631 2963 
z
" transform="scale(0.015625)"/>
       <path id="DejaVuSans-20" transform="scale(0.015625)"/>
       <path id="DejaVuSans-6f" d="M 1959 3097 
Q 1497 3097 1228 2736 
Q 959 2375 959 1747 
Q 959 1119 1226 758 
Q 1494 397 1959 397 
Q 2419 397 2687 759 
Q 2956 1122 2956 1747 
Q 2956 2369 2687 2733 
Q 2419 3097 1959 3097 
z
M 1959 3584 
Q 2709 3584 3137 3096 
Q 3566 2609 3566 1747 
Q 3566 888 3137 398 
Q 2709 -91 1959 -91 
Q 1206 -91 779 398 
Q 353 888 353 1747 
Q 353 2609 779 3096 
Q 1206 3584 1959 3584 
z
" transform="scale(0.015625)"/>
       <path id="DejaVuSans-66" d="M 2375 4863 
L 2375 4384 
L 1825 4384 
Q 1516 4384 1395 4259 
Q 1275 4134 1275 3809 
L 1275 3500 
L 2222 3500 
L 2222 3053 
L 1275 3053 
L 1275 0 
L 697 0 
L 697 3053 
L 147 3053 
L 147 3500 
L 697 3500 
L 697 3744 
Q 697 4328 969 4595 
Q 1241 4863 1831 4863 
L 2375 4863 
z
" transform="scale(0.015625)"/>
       <path id="DejaVuSans-70" d="M 1159 525 
L 1159 -1331 
L 581 -1331 
L 581 3500 
L 1159 3500 
L 1159 2969 
Q 1341 3281 1617 3432 
Q 1894 3584 2278 3584 
Q 2916 3584 3314 3078 
Q 3713 2572 3713 1747 
Q 3713 922 3314 415 
Q 2916 -91 2278 -91 
Q 1894 -91 1617 61 
Q 1341 213 1159 525 
z
M 3116 1747 
Q 3116 2381 2855 2742 
Q 2594 3103 2138 3103 
Q 1681 3103 1420 2742 
Q 1159 2381 1159 1747 
Q 1159 1113 1420 752 
Q 1681 391 2138 391 
Q 2594 391 2855 752 
Q 3116 1113 3116 1747 
z
" transform="scale(0.015625)"/>
       <path id="DejaVuSans-61" d="M 2194 1759 
Q 1497 1759 1228 1600 
Q 959 1441 959 1056 
Q 959 750 1161 570 
Q 1363 391 1709 391 
Q 2188 391 2477 730 
Q 2766 1069 2766 1631 
L 2766 1759 
L 2194 1759 
z
M 3341 1997 
L 3341 0 
L 2766 0 
L 2766 531 
Q 2569 213 2275 61 
Q 1981 -91 1556 -91 
Q 1019 -91 701 211 
Q 384 513 384 1019 
Q 384 1609 779 1909 
Q 1175 2209 1959 2209 
L 2766 2209 
L 2766 2266 
Q 2766 2663 2505 2880 
Q 2244 3097 1772 3097 
Q 1472 3097 1187 3025 
Q 903 2953 641 2809 
L 641 3341 
Q 956 3463 1253 3523 
Q 1550 3584 1831 3584 
Q 2591 3584 2966 3190 
Q 3341 2797 3341 1997 
z
" transform="scale(0.015625)"/>
       <path id="DejaVuSans-74" d="M 1172 4494 
L 1172 3500 
L 2356 3500 
L 2356 3053 
L 1172 3053 
L 1172 1153 
Q 1172 725 1289 603 
Q 1406 481 1766 481 
L 2356 481 
L 2356 0 
L 1766 0 
Q 1100 0 847 248 
Q 594 497 594 1153 
L 594 3053 
L 172 3053 
L 172 3500 
L 594 3500 
L 594 4494 
L 1172 4494 
z
" transform="scale(0.015625)"/>
       <path id="DejaVuSans-69" d="M 603 3500 
L 1178 3500 
L 1178 0 
L 603 0 
L 603 3500 
z
M 603 4863 
L 1178 4863 
L 1178 4134 
L 603 4134 
L 603 4863 
z
" transform="scale(0.015625)"/>
       <path id="DejaVuSans-63" d="M 3122 3366 
L 3122 2828 
Q 2878 2963 2633 3030 
Q 2388 3097 2138 3097 
Q 1578 3097 1268 2742 
Q 959 2388 959 1747 
Q 959 1106 1268 751 
Q 1578 397 2138 397 
Q 2388 397 2633 464 
Q 2878 531 3122 666 
L 3122 134 
Q 2881 22 2623 -34 
Q 2366 -91 2075 -91 
Q 1284 -91 818 406 
Q 353 903 353 1747 
Q 353 2603 823 3093 
Q 1294 3584 2113 3584 
Q 2378 3584 2631 3529 
Q 2884 3475 3122 3366 
z
" transform="scale(0.015625)"/>
       <path id="DejaVuSans-6e" d="M 3513 2113 
L 3513 0 
L 2938 0 
L 2938 2094 
Q 2938 2591 2744 2837 
Q 2550 3084 2163 3084 
Q 1697 3084 1428 2787 
Q 1159 2491 1159 1978 
L 1159 0 
L 581 0 
L 581 3500 
L 1159 3500 
L 1159 2956 
Q 1366 3272 1645 3428 
Q 1925 3584 2291 3584 
Q 2894 3584 3203 3211 
Q 3513 2838 3513 2113 
z
" transform="scale(0.015625)"/>
       <path id="DejaVuSans-73" d="M 2834 3397 
L 2834 2853 
Q 2591 2978 2328 3040 
Q 2066 3103 1784 3103 
Q 1356 3103 1142 2972 
Q 928 2841 928 2578 
Q 928 2378 1081 2264 
Q 1234 2150 1697 2047 
L 1894 2003 
Q 2506 1872 2764 1633 
Q 3022 1394 3022 966 
Q 3022 478 2636 193 
Q 2250 -91 1575 -91 
Q 1294 -91 989 -36 
Q 684 19 347 128 
L 347 722 
Q 666 556 975 473 
Q 1284 391 1588 391 
Q 1994 391 2212 530 
Q 2431 669 2431 922 
Q 2431 1156 2273 1281 
Q 2116 1406 1581 1522 
L 1381 1569 
Q 847 1681 609 1914 
Q 372 2147 372 2553 
Q 372 3047 722 3315 
Q 1072 3584 1716 3584 
Q 2034 3584 2315 3537 
Q 2597 3491 2834 3397 
z
" transform="scale(0.015625)"/>
      </defs>
      <use xlink:href="#DejaVuSans-4e"/>
      <use xlink:href="#DejaVuSans-75" x="74.804688"/>
      <use xlink:href="#DejaVuSans-6d" x="138.183594"/>
      <use xlink:href="#DejaVuSans-62" x="235.595703"/>
      <use xlink:href="#DejaVuSans-65" x="299.072266"/>
      <use xlink:href="#DejaVuSans-72" x="360.595703"/>
      <use xlink:href="#DejaVuSans-20" x="401.708984"/>
      <use xlink:href="#DejaVuSans-6f" x="433.496094"/>
      <use xlink:href="#DejaVuSans-66" x="494.677734"/>
      <use xlink:href="#DejaVuSans-20" x="529.882812"/>
      <use xlink:href="#DejaVuSans-70" x="561.669922"/>
      <use xlink:href="#DejaVuSans-61" x="625.146484"/>
      <use xlink:href="#DejaVuSans-72" x="686.425781"/>
      <use xlink:href="#DejaVuSans-74" x="727.539062"/>
      <use xlink:href="#DejaVuSans-69" x="766.748047"/>
      <use xlink:href="#DejaVuSans-63" x="794.53125"/>
      <use xlink:href="#DejaVuSans-69" x="849.511719"/>
      <use xlink:href="#DejaVuSans-70" x="877.294922"/>
      <use xlink:href="#DejaVuSans-61" x="940.771484"/>
      <use xlink:href="#DejaVuSans-6e" x="1002.050781"/>
      <use xlink:href="#DejaVuSans-74" x="1065.429688"/>
      <use xlink:href="#DejaVuSans-73" x="1104.638672"/>
     </g>
    </g>
   </g>
   <g id="matplotlib.axis_2">
    <g id="ytick_1">
     <g id="line2d_6">
      <path d="M 50.836875 382.677812 
L 412.850875 382.677812 
" clip-path="url(#p2591777d4d)" style="fill: none; stroke-dasharray: 2.96,1.28; stroke-dashoffset: 0; stroke: #c0c0c0; stroke-width: 0.8"/>
     </g>
     <g id="line2d_7">
      <defs>
       <path id="m9e4789bee0" d="M 0 0 
L -3.5 0 
" style="stroke: #000000; stroke-width: 0.8"/>
      </defs>
      <g>
       <use xlink:href="#m9e4789bee0" x="50.836875" y="382.677812" style="stroke: #000000; stroke-width: 0.8"/>
      </g>
     </g>
     <g id="text_7">
      <!-- 20 -->
      <g transform="translate(31.111875 386.477031) scale(0.1 -0.1)">
       <use xlink:href="#DejaVuSans-32"/>
       <use xlink:href="#DejaVuSans-30" x="63.623047"/>
      </g>
     </g>
    </g>
    <g id="ytick_2">
     <g id="line2d_8">
      <path d="M 50.836875 337.822812 
L 412.850875 337.822812 
" clip-path="url(#p2591777d4d)" style="fill: none; stroke-dasharray: 2.96,1.28; stroke-dashoffset: 0; stroke: #c0c0c0; stroke-width: 0.8"/>
     </g>
     <g id="line2d_9">
      <g>
       <use xlink:href="#m9e4789bee0" x="50.836875" y="337.822812" style="stroke: #000000; stroke-width: 0.8"/>
      </g>
     </g>
     <g id="text_8">
      <!-- 30 -->
      <g transform="translate(31.111875 341.622031) scale(0.1 -0.1)">
       <defs>
        <path id="DejaVuSans-33" d="M 2597 2516 
Q 3050 2419 3304 2112 
Q 3559 1806 3559 1356 
Q 3559 666 3084 287 
Q 2609 -91 1734 -91 
Q 1441 -91 1130 -33 
Q 819 25 488 141 
L 488 750 
Q 750 597 1062 519 
Q 1375 441 1716 441 
Q 2309 441 2620 675 
Q 2931 909 2931 1356 
Q 2931 1769 2642 2001 
Q 2353 2234 1838 2234 
L 1294 2234 
L 1294 2753 
L 1863 2753 
Q 2328 2753 2575 2939 
Q 2822 3125 2822 3475 
Q 2822 3834 2567 4026 
Q 2313 4219 1838 4219 
Q 1578 4219 1281 4162 
Q 984 4106 628 3988 
L 628 4550 
Q 988 4650 1302 4700 
Q 1616 4750 1894 4750 
Q 2613 4750 3031 4423 
Q 3450 4097 3450 3541 
Q 3450 3153 3228 2886 
Q 3006 2619 2597 2516 
z
" transform="scale(0.015625)"/>
       </defs>
       <use xlink:href="#DejaVuSans-33"/>
       <use xlink:href="#DejaVuSans-30" x="63.623047"/>
      </g>
     </g>
    </g>
    <g id="ytick_3">
     <g id="line2d_10">
      <path d="M 50.836875 292.967812 
L 412.850875 292.967812 
" clip-path="url(#p2591777d4d)" style="fill: none; stroke-dasharray: 2.96,1.28; stroke-dashoffset: 0; stroke: #c0c0c0; stroke-width: 0.8"/>
     </g>
     <g id="line2d_11">
      <g>
       <use xlink:href="#m9e4789bee0" x="50.836875" y="292.967812" style="stroke: #000000; stroke-width: 0.8"/>
      </g>
     </g>
     <g id="text_9">
      <!-- 40 -->
      <g transform="translate(31.111875 296.767031) scale(0.1 -0.1)">
       <use xlink:href="#DejaVuSans-34"/>
       <use xlink:href="#DejaVuSans-30" x="63.623047"/>
      </g>
     </g>
    </g>
    <g id="ytick_4">
     <g id="line2d_12">
      <path d="M 50.836875 248.112812 
L 412.850875 248.112812 
" clip-path="url(#p2591777d4d)" style="fill: none; stroke-dasharray: 2.96,1.28; stroke-dashoffset: 0; stroke: #c0c0c0; stroke-width: 0.8"/>
     </g>
     <g id="line2d_13">
      <g>
       <use xlink:href="#m9e4789bee0" x="50.836875" y="248.112812" style="stroke: #000000; stroke-width: 0.8"/>
      </g>
     </g>
     <g id="text_10">
      <!-- 50 -->
      <g transform="translate(31.111875 251.912031) scale(0.1 -0.1)">
       <defs>
        <path id="DejaVuSans-35" d="M 691 4666 
L 3169 4666 
L 3169 4134 
L 1269 4134 
L 1269 2991 
Q 1406 3038 1543 3061 
Q 1681 3084 1819 3084 
Q 2600 3084 3056 2656 
Q 3513 2228 3513 1497 
Q 3513 744 3044 326 
Q 2575 -91 1722 -91 
Q 1428 -91 1123 -41 
Q 819 9 494 109 
L 494 744 
Q 775 591 1075 516 
Q 1375 441 1709 441 
Q 2250 441 2565 725 
Q 2881 1009 2881 1497 
Q 2881 1984 2565 2268 
Q 2250 2553 1709 2553 
Q 1456 2553 1204 2497 
Q 953 2441 691 2322 
L 691 4666 
z
" transform="scale(0.015625)"/>
       </defs>
       <use xlink:href="#DejaVuSans-35"/>
       <use xlink:href="#DejaVuSans-30" x="63.623047"/>
      </g>
     </g>
    </g>
    <g id="ytick_5">
     <g id="line2d_14">
      <path d="M 50.836875 203.257812 
L 412.850875 203.257812 
" clip-path="url(#p2591777d4d)" style="fill: none; stroke-dasharray: 2.96,1.28; stroke-dashoffset: 0; stroke: #c0c0c0; stroke-width: 0.8"/>
     </g>
     <g id="line2d_15">
      <g>
       <use xlink:href="#m9e4789bee0" x="50.836875" y="203.257812" style="stroke: #000000; stroke-width: 0.8"/>
      </g>
     </g>
     <g id="text_11">
      <!-- 60 -->
      <g transform="translate(31.111875 207.057031) scale(0.1 -0.1)">
       <use xlink:href="#DejaVuSans-36"/>
       <use xlink:href="#DejaVuSans-30" x="63.623047"/>
      </g>
     </g>
    </g>
    <g id="ytick_6">
     <g id="line2d_16">
      <path d="M 50.836875 158.402812 
L 412.850875 158.402812 
" clip-path="url(#p2591777d4d)" style="fill: none; stroke-dasharray: 2.96,1.28; stroke-dashoffset: 0; stroke: #c0c0c0; stroke-width: 0.8"/>
     </g>
     <g id="line2d_17">
      <g>
       <use xlink:href="#m9e4789bee0" x="50.836875" y="158.402812" style="stroke: #000000; stroke-width: 0.8"/>
      </g>
     </g>
     <g id="text_12">
      <!-- 70 -->
      <g transform="translate(31.111875 162.202031) scale(0.1 -0.1)">
       <defs>
        <path id="DejaVuSans-37" d="M 525 4666 
L 3525 4666 
L 3525 4397 
L 1831 0 
L 1172 0 
L 2766 4134 
L 525 4134 
L 525 4666 
z
" transform="scale(0.015625)"/>
       </defs>
       <use xlink:href="#DejaVuSans-37"/>
       <use xlink:href="#DejaVuSans-30" x="63.623047"/>
      </g>
     </g>
    </g>
    <g id="ytick_7">
     <g id="line2d_18">
      <path d="M 50.836875 113.547812 
L 412.850875 113.547812 
" clip-path="url(#p2591777d4d)" style="fill: none; stroke-dasharray: 2.96,1.28; stroke-dashoffset: 0; stroke: #c0c0c0; stroke-width: 0.8"/>
     </g>
     <g id="line2d_19">
      <g>
       <use xlink:href="#m9e4789bee0" x="50.836875" y="113.547812" style="stroke: #000000; stroke-width: 0.8"/>
      </g>
     </g>
     <g id="text_13">
      <!-- 80 -->
      <g transform="translate(31.111875 117.347031) scale(0.1 -0.1)">
       <use xlink:href="#DejaVuSans-38"/>
       <use xlink:href="#DejaVuSans-30" x="63.623047"/>
      </g>
     </g>
    </g>
    <g id="ytick_8">
     <g id="line2d_20">
      <path d="M 50.836875 68.692812 
L 412.850875 68.692812 
" clip-path="url(#p2591777d4d)" style="fill: none; stroke-dasharray: 2.96,1.28; stroke-dashoffset: 0; stroke: #c0c0c0; stroke-width: 0.8"/>
     </g>
     <g id="line2d_21">
      <g>
       <use xlink:href="#m9e4789bee0" x="50.836875" y="68.692812" style="stroke: #000000; stroke-width: 0.8"/>
      </g>
     </g>
     <g id="text_14">
      <!-- 90 -->
      <g transform="translate(31.111875 72.492031) scale(0.1 -0.1)">
       <defs>
        <path id="DejaVuSans-39" d="M 703 97 
L 703 672 
Q 941 559 1184 500 
Q 1428 441 1663 441 
Q 2288 441 2617 861 
Q 2947 1281 2994 2138 
Q 2813 1869 2534 1725 
Q 2256 1581 1919 1581 
Q 1219 1581 811 2004 
Q 403 2428 403 3163 
Q 403 3881 828 4315 
Q 1253 4750 1959 4750 
Q 2769 4750 3195 4129 
Q 3622 3509 3622 2328 
Q 3622 1225 3098 567 
Q 2575 -91 1691 -91 
Q 1453 -91 1209 -44 
Q 966 3 703 97 
z
M 1959 2075 
Q 2384 2075 2632 2365 
Q 2881 2656 2881 3163 
Q 2881 3666 2632 3958 
Q 2384 4250 1959 4250 
Q 1534 4250 1286 3958 
Q 1038 3666 1038 3163 
Q 1038 2656 1286 2365 
Q 1534 2075 1959 2075 
z
" transform="scale(0.015625)"/>
       </defs>
       <use xlink:href="#DejaVuSans-39"/>
       <use xlink:href="#DejaVuSans-30" x="63.623047"/>
      </g>
     </g>
    </g>
    <g id="ytick_9">
     <g id="line2d_22">
      <path d="M 50.836875 23.837812 
L 412.850875 23.837812 
" clip-path="url(#p2591777d4d)" style="fill: none; stroke-dasharray: 2.96,1.28; stroke-dashoffset: 0; stroke: #c0c0c0; stroke-width: 0.8"/>
     </g>
     <g id="line2d_23">
      <g>
       <use xlink:href="#m9e4789bee0" x="50.836875" y="23.837812" style="stroke: #000000; stroke-width: 0.8"/>
      </g>
     </g>
     <g id="text_15">
      <!-- 100 -->
      <g transform="translate(24.749375 27.637031) scale(0.1 -0.1)">
       <defs>
        <path id="DejaVuSans-31" d="M 794 531 
L 1825 531 
L 1825 4091 
L 703 3866 
L 703 4441 
L 1819 4666 
L 2450 4666 
L 2450 531 
L 3481 531 
L 3481 0 
L 794 0 
L 794 531 
z
" transform="scale(0.015625)"/>
       </defs>
       <use xlink:href="#DejaVuSans-31"/>
       <use xlink:href="#DejaVuSans-30" x="63.623047"/>
       <use xlink:href="#DejaVuSans-30" x="127.246094"/>
      </g>
     </g>
    </g>
    <g id="text_16">
     <!-- Success Rate (%) -->
     <g transform="translate(17.837812 264.04625) rotate(-90) scale(0.14 -0.14)">
      <defs>
       <path id="DejaVuSans-53" d="M 3425 4513 
L 3425 3897 
Q 3066 4069 2747 4153 
Q 2428 4238 2131 4238 
Q 1616 4238 1336 4038 
Q 1056 3838 1056 3469 
Q 1056 3159 1242 3001 
Q 1428 2844 1947 2747 
L 2328 2669 
Q 3034 2534 3370 2195 
Q 3706 1856 3706 1288 
Q 3706 609 3251 259 
Q 2797 -91 1919 -91 
Q 1588 -91 1214 -16 
Q 841 59 441 206 
L 441 856 
Q 825 641 1194 531 
Q 1563 422 1919 422 
Q 2459 422 2753 634 
Q 3047 847 3047 1241 
Q 3047 1584 2836 1778 
Q 2625 1972 2144 2069 
L 1759 2144 
Q 1053 2284 737 2584 
Q 422 2884 422 3419 
Q 422 4038 858 4394 
Q 1294 4750 2059 4750 
Q 2388 4750 2728 4690 
Q 3069 4631 3425 4513 
z
" transform="scale(0.015625)"/>
       <path id="DejaVuSans-52" d="M 2841 2188 
Q 3044 2119 3236 1894 
Q 3428 1669 3622 1275 
L 4263 0 
L 3584 0 
L 2988 1197 
Q 2756 1666 2539 1819 
Q 2322 1972 1947 1972 
L 1259 1972 
L 1259 0 
L 628 0 
L 628 4666 
L 2053 4666 
Q 2853 4666 3247 4331 
Q 3641 3997 3641 3322 
Q 3641 2881 3436 2590 
Q 3231 2300 2841 2188 
z
M 1259 4147 
L 1259 2491 
L 2053 2491 
Q 2509 2491 2742 2702 
Q 2975 2913 2975 3322 
Q 2975 3731 2742 3939 
Q 2509 4147 2053 4147 
L 1259 4147 
z
" transform="scale(0.015625)"/>
       <path id="DejaVuSans-28" d="M 1984 4856 
Q 1566 4138 1362 3434 
Q 1159 2731 1159 2009 
Q 1159 1288 1364 580 
Q 1569 -128 1984 -844 
L 1484 -844 
Q 1016 -109 783 600 
Q 550 1309 550 2009 
Q 550 2706 781 3412 
Q 1013 4119 1484 4856 
L 1984 4856 
z
" transform="scale(0.015625)"/>
       <path id="DejaVuSans-25" d="M 4653 2053 
Q 4381 2053 4226 1822 
Q 4072 1591 4072 1178 
Q 4072 772 4226 539 
Q 4381 306 4653 306 
Q 4919 306 5073 539 
Q 5228 772 5228 1178 
Q 5228 1588 5073 1820 
Q 4919 2053 4653 2053 
z
M 4653 2450 
Q 5147 2450 5437 2106 
Q 5728 1763 5728 1178 
Q 5728 594 5436 251 
Q 5144 -91 4653 -91 
Q 4153 -91 3862 251 
Q 3572 594 3572 1178 
Q 3572 1766 3864 2108 
Q 4156 2450 4653 2450 
z
M 1428 4353 
Q 1159 4353 1004 4120 
Q 850 3888 850 3481 
Q 850 3069 1003 2837 
Q 1156 2606 1428 2606 
Q 1700 2606 1854 2837 
Q 2009 3069 2009 3481 
Q 2009 3884 1853 4118 
Q 1697 4353 1428 4353 
z
M 4250 4750 
L 4750 4750 
L 1831 -91 
L 1331 -91 
L 4250 4750 
z
M 1428 4750 
Q 1922 4750 2215 4408 
Q 2509 4066 2509 3481 
Q 2509 2891 2217 2550 
Q 1925 2209 1428 2209 
Q 931 2209 642 2551 
Q 353 2894 353 3481 
Q 353 4063 643 4406 
Q 934 4750 1428 4750 
z
" transform="scale(0.015625)"/>
       <path id="DejaVuSans-29" d="M 513 4856 
L 1013 4856 
Q 1481 4119 1714 3412 
Q 1947 2706 1947 2009 
Q 1947 1309 1714 600 
Q 1481 -109 1013 -844 
L 513 -844 
Q 928 -128 1133 580 
Q 1338 1288 1338 2009 
Q 1338 2731 1133 3434 
Q 928 4138 513 4856 
z
" transform="scale(0.015625)"/>
      </defs>
      <use xlink:href="#DejaVuSans-53"/>
      <use xlink:href="#DejaVuSans-75" x="63.476562"/>
      <use xlink:href="#DejaVuSans-63" x="126.855469"/>
      <use xlink:href="#DejaVuSans-63" x="181.835938"/>
      <use xlink:href="#DejaVuSans-65" x="236.816406"/>
      <use xlink:href="#DejaVuSans-73" x="298.339844"/>
      <use xlink:href="#DejaVuSans-73" x="350.439453"/>
      <use xlink:href="#DejaVuSans-20" x="402.539062"/>
      <use xlink:href="#DejaVuSans-52" x="434.326172"/>
      <use xlink:href="#DejaVuSans-61" x="501.558594"/>
      <use xlink:href="#DejaVuSans-74" x="562.837891"/>
      <use xlink:href="#DejaVuSans-65" x="602.046875"/>
      <use xlink:href="#DejaVuSans-20" x="663.570312"/>
      <use xlink:href="#DejaVuSans-28" x="695.357422"/>
      <use xlink:href="#DejaVuSans-25" x="734.371094"/>
      <use xlink:href="#DejaVuSans-29" x="829.390625"/>
     </g>
    </g>
   </g>
   <g id="PolyCollection_1">
    <defs>
     <path id="m47a3a9d692" d="M 50.836875 -175.9925 
L 50.836875 -175.9925 
L 54.77181 -202.085878 
L 58.706745 -234.811638 
L 62.641679 -263.13684 
L 66.576614 -264.716365 
L 70.511549 -261.169898 
L 74.446484 -272.072271 
L 78.381418 -285.670879 
L 82.316353 -293.091046 
L 86.251288 -294.400114 
L 90.186223 -299.9658 
L 94.121158 -310.839777 
L 98.056092 -316.127158 
L 101.991027 -319.126962 
L 105.925962 -319.651444 
L 109.860897 -317.978943 
L 113.795832 -319.905252 
L 117.730766 -324.249481 
L 121.665701 -326.60267 
L 125.600636 -327.230163 
L 129.535571 -328.61851 
L 133.470505 -331.586713 
L 137.40544 -337.777876 
L 141.340375 -344.051321 
L 145.27531 -346.108048 
L 149.210245 -345.242693 
L 153.145179 -345.335103 
L 157.080114 -349.758129 
L 161.015049 -357.408512 
L 164.949984 -360.311053 
L 168.884918 -357.537111 
L 172.819853 -355.402996 
L 176.754788 -353.954964 
L 180.689723 -352.985542 
L 184.624658 -355.151584 
L 188.559592 -359.158883 
L 192.494527 -363.774152 
L 196.429462 -365.261402 
L 200.364397 -361.174299 
L 204.299332 -359.035488 
L 208.234266 -362.034224 
L 212.169201 -364.775188 
L 216.104136 -366.188701 
L 220.039071 -368.019607 
L 223.974005 -371.33841 
L 227.90894 -375.038864 
L 231.843875 -377.091894 
L 235.77881 -375.914619 
L 239.713745 -374.607934 
L 243.648679 -376.625851 
L 247.583614 -379.141021 
L 251.518549 -379.652966 
L 255.453484 -378.995457 
L 259.388418 -378.130524 
L 263.323353 -377.035415 
L 267.258288 -378.600225 
L 271.193223 -381.052674 
L 275.128158 -381.53346 
L 279.063092 -382.25092 
L 282.998027 -384.406867 
L 286.932962 -385.296678 
L 290.867897 -385.013236 
L 294.802832 -385.08342 
L 298.737766 -386.479822 
L 302.672701 -387.85655 
L 306.607636 -388.153037 
L 310.542571 -388.479853 
L 314.477505 -388.931934 
L 318.41244 -389.822125 
L 322.347375 -390.820747 
L 326.28231 -391.421167 
L 330.217245 -393.029926 
L 334.152179 -394.443449 
L 338.087114 -394.702804 
L 342.022049 -394.817015 
L 345.956984 -394.771059 
L 349.891918 -394.990514 
L 353.826853 -395.989274 
L 357.761788 -397.061614 
L 361.696723 -397.527801 
L 365.631658 -397.669313 
L 369.566592 -397.991009 
L 373.501527 -398.878198 
L 377.436462 -399.866232 
L 381.371397 -400.451168 
L 385.306332 -400.548451 
L 389.241266 -400.397503 
L 393.176201 -400.292601 
L 397.111136 -400.269438 
L 401.046071 -400.267556 
L 404.981005 -400.2675 
L 408.91594 -400.2675 
L 412.850875 -400.2675 
L 412.850875 -400.2675 
L 412.850875 -400.2675 
L 408.91594 -400.2675 
L 404.981005 -400.2675 
L 401.046071 -400.266864 
L 397.111136 -400.245935 
L 393.176201 -399.993331 
L 389.241266 -398.881373 
L 385.306332 -397.017479 
L 381.371397 -395.213031 
L 377.436462 -392.892765 
L 373.501527 -390.072524 
L 369.566592 -387.750426 
L 365.631658 -386.76449 
L 361.696723 -386.398517 
L 357.761788 -385.444685 
L 353.826853 -383.622893 
L 349.891918 -381.888522 
L 345.956984 -381.283074 
L 342.022049 -381.492527 
L 338.087114 -381.494316 
L 334.152179 -381.17282 
L 330.217245 -378.527887 
L 326.28231 -375.174372 
L 322.347375 -373.932485 
L 318.41244 -372.788286 
L 314.477505 -371.893452 
L 310.542571 -371.468793 
L 306.607636 -370.809488 
L 302.672701 -370.459128 
L 298.737766 -368.903403 
L 294.802832 -367.1036 
L 290.867897 -367.164977 
L 286.932962 -367.642693 
L 282.998027 -366.564525 
L 279.063092 -363.663842 
L 275.128158 -362.229597 
L 271.193223 -360.43669 
L 267.258288 -357.054632 
L 263.323353 -356.279454 
L 259.388418 -357.748216 
L 255.453484 -358.118872 
L 251.518549 -358.92244 
L 247.583614 -357.86998 
L 243.648679 -354.077986 
L 239.713745 -351.778538 
L 235.77881 -354.119323 
L 231.843875 -355.119451 
L 227.90894 -351.177028 
L 223.974005 -345.738671 
L 220.039071 -342.573602 
L 216.104136 -341.842075 
L 212.169201 -341.104293 
L 208.234266 -338.025894 
L 204.299332 -333.737056 
L 200.364397 -335.421795 
L 196.429462 -339.983456 
L 192.494527 -338.910102 
L 188.559592 -333.26487 
L 184.624658 -327.314867 
L 180.689723 -325.08317 
L 176.754788 -327.390035 
L 172.819853 -327.970147 
L 168.884918 -328.17415 
L 164.949984 -331.035224 
L 161.015049 -327.968818 
L 157.080114 -320.306291 
L 153.145179 -316.437383 
L 149.210245 -315.579779 
L 145.27531 -315.118656 
L 141.340375 -313.198805 
L 137.40544 -306.838791 
L 133.470505 -297.519961 
L 129.535571 -293.834718 
L 125.600636 -295.439544 
L 121.665701 -296.42996 
L 117.730766 -293.828004 
L 113.795832 -287.942843 
L 109.860897 -281.113838 
L 105.925962 -277.105836 
L 101.991027 -271.16181 
L 98.056092 -261.648596 
L 94.121158 -253.988085 
L 90.186223 -246.132825 
L 86.251288 -241.147375 
L 82.316353 -236.885417 
L 78.381418 -225.484233 
L 74.446484 -211.424715 
L 70.511549 -205.4385 
L 66.576614 -212.138006 
L 62.641679 -218.942533 
L 58.706745 -204.918299 
L 54.77181 -187.015037 
L 50.836875 -175.9925 
z
" style="stroke: #66a61e; stroke-opacity: 0.1"/>
    </defs>
    <g clip-path="url(#p2591777d4d)">
     <use xlink:href="#m47a3a9d692" x="0" y="424.105312" style="fill: #66a61e; fill-opacity: 0.1; stroke: #66a61e; stroke-opacity: 0.1"/>
    </g>
   </g>
   <g id="PolyCollection_2">
    <defs>
     <path id="m451cb22b3c" d="M 50.836875 -135.623 
L 50.836875 -135.623 
L 54.77181 -146.883382 
L 58.706745 -154.484498 
L 62.641679 -158.595945 
L 66.576614 -171.918943 
L 70.511549 -199.91093 
L 74.446484 -221.794566 
L 78.381418 -227.918291 
L 82.316353 -225.91615 
L 86.251288 -219.35872 
L 90.186223 -212.68553 
L 94.121158 -216.267995 
L 98.056092 -224.708565 
L 101.991027 -228.115813 
L 105.925962 -228.767784 
L 109.860897 -228.435031 
L 113.795832 -224.918807 
L 117.730766 -222.549971 
L 121.665701 -221.980583 
L 125.600636 -223.785694 
L 129.535571 -225.684305 
L 133.470505 -226.111071 
L 137.40544 -231.040892 
L 141.340375 -236.42113 
L 145.27531 -238.883768 
L 149.210245 -238.415652 
L 153.145179 -238.187041 
L 157.080114 -239.733416 
L 161.015049 -237.979901 
L 164.949984 -234.69331 
L 168.884918 -235.736481 
L 172.819853 -235.473111 
L 176.754788 -233.79698 
L 180.689723 -234.68371 
L 184.624658 -237.508431 
L 188.559592 -240.743656 
L 192.494527 -242.066398 
L 196.429462 -240.132536 
L 200.364397 -237.911332 
L 204.299332 -236.209911 
L 208.234266 -236.211055 
L 212.169201 -240.021873 
L 216.104136 -243.385963 
L 220.039071 -242.413327 
L 223.974005 -240.312891 
L 227.90894 -240.516871 
L 231.843875 -242.100779 
L 235.77881 -244.863322 
L 239.713745 -247.111829 
L 243.648679 -245.803577 
L 247.583614 -243.876718 
L 251.518549 -246.2976 
L 255.453484 -249.436484 
L 259.388418 -250.194984 
L 263.323353 -251.294061 
L 267.258288 -251.084535 
L 271.193223 -247.945684 
L 275.128158 -245.819351 
L 279.063092 -246.440173 
L 282.998027 -248.800861 
L 286.932962 -250.565115 
L 290.867897 -250.912371 
L 294.802832 -250.509654 
L 298.737766 -250.676944 
L 302.672701 -251.808998 
L 306.607636 -251.457632 
L 310.542571 -250.269085 
L 314.477505 -249.027715 
L 318.41244 -248.037932 
L 322.347375 -248.136187 
L 326.28231 -249.126713 
L 330.217245 -249.495532 
L 334.152179 -249.656591 
L 338.087114 -249.917982 
L 342.022049 -249.283676 
L 345.956984 -248.671428 
L 349.891918 -249.188811 
L 353.826853 -249.05053 
L 357.761788 -247.765 
L 361.696723 -246.556463 
L 365.631658 -245.216242 
L 369.566592 -243.765376 
L 373.501527 -242.477775 
L 377.436462 -241.436801 
L 381.371397 -241.005749 
L 385.306332 -241.016171 
L 389.241266 -239.31287 
L 393.176201 -235.548252 
L 397.111136 -228.759085 
L 401.046071 -219.796616 
L 404.981005 -214.610836 
L 408.91594 -213.46793 
L 412.850875 -213.374483 
L 412.850875 -213.372611 
L 412.850875 -213.372611 
L 408.91594 -213.403738 
L 404.981005 -213.780571 
L 401.046071 -215.447961 
L 397.111136 -218.205902 
L 393.176201 -220.422805 
L 389.241266 -222.271567 
L 385.306332 -223.178787 
L 381.371397 -222.888625 
L 377.436462 -223.020717 
L 373.501527 -223.799007 
L 369.566592 -225.007636 
L 365.631658 -226.391883 
L 361.696723 -227.812113 
L 357.761788 -228.74233 
L 353.826853 -229.167059 
L 349.891918 -228.970301 
L 345.956984 -228.757775 
L 342.022049 -229.314137 
L 338.087114 -229.518698 
L 334.152179 -229.112277 
L 330.217245 -228.995088 
L 326.28231 -228.731378 
L 322.347375 -227.695711 
L 318.41244 -226.984097 
L 314.477505 -227.766854 
L 310.542571 -228.758788 
L 306.607636 -229.148397 
L 302.672701 -229.233981 
L 298.737766 -228.110379 
L 294.802832 -228.074926 
L 290.867897 -228.607895 
L 286.932962 -227.71267 
L 282.998027 -225.08452 
L 279.063092 -222.104968 
L 275.128158 -220.857077 
L 271.193223 -222.818655 
L 267.258288 -226.770892 
L 263.323353 -228.190867 
L 259.388418 -228.316409 
L 255.453484 -227.934674 
L 251.518549 -223.815092 
L 247.583614 -220.762471 
L 243.648679 -223.739111 
L 239.713745 -225.974664 
L 235.77881 -222.314044 
L 231.843875 -217.02087 
L 227.90894 -214.456296 
L 223.974005 -214.067955 
L 220.039071 -216.089305 
L 216.104136 -217.415229 
L 212.169201 -214.993478 
L 208.234266 -212.11526 
L 204.299332 -212.142701 
L 200.364397 -213.05946 
L 196.429462 -215.063711 
L 192.494527 -215.546646 
L 188.559592 -212.088491 
L 184.624658 -209.101994 
L 180.689723 -207.363203 
L 176.754788 -204.815183 
L 172.819853 -203.91986 
L 168.884918 -203.534601 
L 164.949984 -203.403956 
L 161.015049 -207.504901 
L 157.080114 -209.250535 
L 153.145179 -206.72013 
L 149.210245 -206.252536 
L 145.27531 -207.098101 
L 141.340375 -205.326054 
L 137.40544 -198.760531 
L 133.470505 -192.177184 
L 129.535571 -190.780258 
L 125.600636 -190.267591 
L 121.665701 -189.680688 
L 117.730766 -186.729546 
L 113.795832 -185.282221 
L 109.860897 -190.114229 
L 105.925962 -193.441409 
L 101.991027 -191.68262 
L 98.056092 -184.16968 
L 94.121158 -173.478296 
L 90.186223 -170.306076 
L 86.251288 -180.229079 
L 82.316353 -187.939621 
L 78.381418 -183.835829 
L 74.446484 -174.88954 
L 70.511549 -156.686059 
L 66.576614 -125.553734 
L 62.641679 -107.104247 
L 58.706745 -113.364798 
L 54.77181 -125.773582 
L 50.836875 -135.623 
z
" style="stroke: #e7298a; stroke-opacity: 0.1"/>
    </defs>
    <g clip-path="url(#p2591777d4d)">
     <use xlink:href="#m451cb22b3c" x="0" y="424.105312" style="fill: #e7298a; fill-opacity: 0.1; stroke: #e7298a; stroke-opacity: 0.1"/>
    </g>
   </g>
   <g id="PolyCollection_3">
    <defs>
     <path id="m8fa389d337" d="M 50.836875 -122.1665 
L 50.836875 -122.1665 
L 54.77181 -135.860308 
L 58.706745 -146.702742 
L 62.641679 -149.4914 
L 66.576614 -148.168213 
L 70.511549 -153.792917 
L 74.446484 -160.143329 
L 78.381418 -162.83467 
L 82.316353 -162.03834 
L 86.251288 -162.584561 
L 90.186223 -166.248009 
L 94.121158 -170.021748 
L 98.056092 -170.384988 
L 101.991027 -170.593467 
L 105.925962 -174.335117 
L 109.860897 -176.047687 
L 113.795832 -175.643322 
L 117.730766 -176.270104 
L 121.665701 -178.547883 
L 125.600636 -181.240315 
L 129.535571 -182.812978 
L 133.470505 -181.272064 
L 137.40544 -178.134151 
L 141.340375 -178.722325 
L 145.27531 -180.570269 
L 149.210245 -181.937791 
L 153.145179 -184.064917 
L 157.080114 -184.140635 
L 161.015049 -183.643662 
L 164.949984 -184.517582 
L 168.884918 -184.796424 
L 172.819853 -185.359507 
L 176.754788 -187.439874 
L 180.689723 -188.060131 
L 184.624658 -189.186455 
L 188.559592 -190.793312 
L 192.494527 -191.330687 
L 196.429462 -192.622141 
L 200.364397 -193.584444 
L 204.299332 -193.082211 
L 208.234266 -193.477791 
L 212.169201 -195.137882 
L 216.104136 -196.851402 
L 220.039071 -197.877081 
L 223.974005 -197.461745 
L 227.90894 -197.078848 
L 231.843875 -197.802284 
L 235.77881 -198.273903 
L 239.713745 -197.873641 
L 243.648679 -197.893074 
L 247.583614 -198.844417 
L 251.518549 -199.802751 
L 255.453484 -200.541533 
L 259.388418 -201.769499 
L 263.323353 -203.436152 
L 267.258288 -204.675762 
L 271.193223 -205.838734 
L 275.128158 -206.117466 
L 279.063092 -204.65913 
L 282.998027 -203.493399 
L 286.932962 -203.301815 
L 290.867897 -204.364075 
L 294.802832 -206.487386 
L 298.737766 -208.913055 
L 302.672701 -210.156309 
L 306.607636 -210.272084 
L 310.542571 -209.959894 
L 314.477505 -208.996398 
L 318.41244 -209.205276 
L 322.347375 -211.365908 
L 326.28231 -213.024066 
L 330.217245 -213.397581 
L 334.152179 -213.785241 
L 338.087114 -214.545772 
L 342.022049 -215.672924 
L 345.956984 -216.871189 
L 349.891918 -217.229336 
L 353.826853 -217.399367 
L 357.761788 -218.154236 
L 361.696723 -219.271395 
L 365.631658 -220.388003 
L 369.566592 -221.272037 
L 373.501527 -222.39483 
L 377.436462 -223.861441 
L 381.371397 -225.069493 
L 385.306332 -225.992601 
L 389.241266 -226.686707 
L 393.176201 -227.303803 
L 397.111136 -227.660329 
L 401.046071 -227.741341 
L 404.981005 -227.748065 
L 408.91594 -227.748269 
L 412.850875 -227.748269 
L 412.850875 -227.748269 
L 412.850875 -227.748269 
L 408.91594 -227.748269 
L 404.981005 -227.747325 
L 401.046071 -227.716097 
L 397.111136 -227.336083 
L 393.176201 -225.633103 
L 389.241266 -222.756113 
L 385.306332 -220.543025 
L 381.371397 -218.882535 
L 377.436462 -216.909767 
L 373.501527 -214.645034 
L 369.566592 -212.888718 
L 365.631658 -211.489573 
L 361.696723 -209.862812 
L 357.761788 -208.222022 
L 353.826853 -207.007569 
L 349.891918 -206.655173 
L 345.956984 -206.288257 
L 342.022049 -204.629773 
L 338.087114 -202.935013 
L 334.152179 -202.150271 
L 330.217245 -201.931866 
L 326.28231 -200.923206 
L 322.347375 -198.41593 
L 318.41244 -196.489051 
L 314.477505 -197.197402 
L 310.542571 -198.397885 
L 306.607636 -198.21385 
L 302.672701 -197.537129 
L 298.737766 -195.750272 
L 294.802832 -193.02894 
L 290.867897 -191.156314 
L 286.932962 -190.359783 
L 282.998027 -190.542372 
L 279.063092 -192.204777 
L 275.128158 -194.066047 
L 271.193223 -193.548612 
L 267.258288 -192.053675 
L 263.323353 -190.433313 
L 259.388418 -188.560259 
L 255.453484 -187.136854 
L 251.518549 -185.960369 
L 247.583614 -184.446999 
L 243.648679 -183.018037 
L 239.713745 -182.611614 
L 235.77881 -183.393877 
L 231.843875 -183.492069 
L 227.90894 -182.698463 
L 223.974005 -183.221563 
L 220.039071 -183.702625 
L 216.104136 -181.570708 
L 212.169201 -178.209784 
L 208.234266 -175.645628 
L 204.299332 -175.793619 
L 200.364397 -177.591826 
L 196.429462 -177.579025 
L 192.494527 -175.312842 
L 188.559592 -172.692064 
L 184.624658 -170.178785 
L 180.689723 -169.609579 
L 176.754788 -169.842036 
L 172.819853 -168.709366 
L 168.884918 -169.112059 
L 164.949984 -169.912232 
L 161.015049 -169.334626 
L 157.080114 -169.160594 
L 153.145179 -169.223117 
L 149.210245 -167.197753 
L 145.27531 -165.319778 
L 141.340375 -163.346231 
L 137.40544 -162.125572 
L 133.470505 -162.777184 
L 129.535571 -162.760332 
L 125.600636 -161.379736 
L 121.665701 -158.829471 
L 117.730766 -157.140395 
L 113.795832 -156.541257 
L 109.860897 -156.098054 
L 105.925962 -153.992422 
L 101.991027 -149.144873 
L 98.056092 -147.342212 
L 94.121158 -145.484921 
L 90.186223 -139.327625 
L 86.251288 -133.219268 
L 82.316353 -130.476686 
L 78.381418 -128.963008 
L 74.446484 -126.90255 
L 70.511549 -126.13425 
L 66.576614 -125.320356 
L 62.641679 -127.495919 
L 58.706745 -128.873585 
L 54.77181 -126.377131 
L 50.836875 -122.1665 
z
" style="stroke: #7570b3; stroke-opacity: 0.1"/>
    </defs>
    <g clip-path="url(#p2591777d4d)">
     <use xlink:href="#m8fa389d337" x="0" y="424.105312" style="fill: #7570b3; fill-opacity: 0.1; stroke: #7570b3; stroke-opacity: 0.1"/>
    </g>
   </g>
   <g id="PolyCollection_4">
    <defs>
     <path id="m52f054b92f" d="M 50.836875 -99.739 
L 50.836875 -99.739 
L 54.77181 -117.510512 
L 58.706745 -144.714934 
L 62.641679 -168.894569 
L 66.576614 -168.371856 
L 70.511549 -162.901116 
L 74.446484 -161.444929 
L 78.381418 -163.614436 
L 82.316353 -163.109527 
L 86.251288 -161.591958 
L 90.186223 -162.204857 
L 94.121158 -161.093872 
L 98.056092 -155.065104 
L 101.991027 -152.527594 
L 105.925962 -157.404564 
L 109.860897 -159.875553 
L 113.795832 -163.56244 
L 117.730766 -173.108807 
L 121.665701 -178.631401 
L 125.600636 -176.214708 
L 129.535571 -175.096684 
L 133.470505 -175.972422 
L 137.40544 -175.563991 
L 141.340375 -171.420852 
L 145.27531 -166.385091 
L 149.210245 -167.091307 
L 153.145179 -169.024078 
L 157.080114 -167.979488 
L 161.015049 -169.132786 
L 164.949984 -173.254249 
L 168.884918 -173.462907 
L 172.819853 -166.433785 
L 176.754788 -157.150945 
L 180.689723 -153.972502 
L 184.624658 -157.623769 
L 188.559592 -163.508194 
L 192.494527 -166.534635 
L 196.429462 -167.09312 
L 200.364397 -166.326931 
L 204.299332 -165.893991 
L 208.234266 -164.397114 
L 212.169201 -163.809239 
L 216.104136 -165.558985 
L 220.039071 -163.804057 
L 223.974005 -161.805497 
L 227.90894 -164.253418 
L 231.843875 -166.524486 
L 235.77881 -166.023983 
L 239.713745 -164.653637 
L 243.648679 -163.005163 
L 247.583614 -160.860177 
L 251.518549 -161.135661 
L 255.453484 -162.948341 
L 259.388418 -164.606542 
L 263.323353 -164.762296 
L 267.258288 -164.507975 
L 271.193223 -164.245985 
L 275.128158 -163.592738 
L 279.063092 -163.381537 
L 282.998027 -163.966714 
L 286.932962 -163.300273 
L 290.867897 -161.209377 
L 294.802832 -162.154917 
L 298.737766 -163.706356 
L 302.672701 -163.367849 
L 306.607636 -162.986178 
L 310.542571 -163.610802 
L 314.477505 -164.847776 
L 318.41244 -166.021541 
L 322.347375 -166.320649 
L 326.28231 -165.076199 
L 330.217245 -162.941708 
L 334.152179 -161.909348 
L 338.087114 -161.684359 
L 342.022049 -161.248082 
L 345.956984 -160.987665 
L 349.891918 -160.591867 
L 353.826853 -159.716926 
L 357.761788 -158.606638 
L 361.696723 -158.207912 
L 365.631658 -158.178482 
L 369.566592 -157.918356 
L 373.501527 -157.28931 
L 377.436462 -155.471006 
L 381.371397 -153.473567 
L 385.306332 -152.596137 
L 389.241266 -151.833943 
L 393.176201 -151.238291 
L 397.111136 -151.086564 
L 401.046071 -151.073463 
L 404.981005 -151.073056 
L 408.91594 -151.073056 
L 412.850875 -151.073056 
L 412.850875 -151.073056 
L 412.850875 -151.073056 
L 408.91594 -151.073056 
L 404.981005 -151.073056 
L 401.046071 -151.072705 
L 397.111136 -151.06145 
L 393.176201 -150.931271 
L 389.241266 -150.425889 
L 385.306332 -149.855585 
L 381.371397 -149.559151 
L 377.436462 -148.90752 
L 373.501527 -148.363985 
L 369.566592 -148.231916 
L 365.631658 -148.238031 
L 361.696723 -148.236741 
L 357.761788 -148.231386 
L 353.826853 -148.028724 
L 349.891918 -147.702 
L 345.956984 -147.534416 
L 342.022049 -147.517885 
L 338.087114 -148.237521 
L 334.152179 -148.729081 
L 330.217245 -149.075002 
L 326.28231 -149.767364 
L 322.347375 -149.870241 
L 318.41244 -149.305604 
L 314.477505 -148.07103 
L 310.542571 -146.584628 
L 306.607636 -145.811591 
L 302.672701 -146.21261 
L 298.737766 -146.533044 
L 294.802832 -145.613339 
L 290.867897 -145.44629 
L 286.932962 -146.787429 
L 282.998027 -146.966224 
L 279.063092 -146.469679 
L 275.128158 -146.196438 
L 271.193223 -146.020179 
L 267.258288 -145.779267 
L 263.323353 -145.548837 
L 259.388418 -144.128048 
L 255.453484 -141.205582 
L 251.518549 -139.296873 
L 247.583614 -139.590464 
L 243.648679 -140.767753 
L 239.713745 -140.847008 
L 235.77881 -142.281175 
L 231.843875 -143.1311 
L 227.90894 -140.783497 
L 223.974005 -139.14531 
L 220.039071 -141.341223 
L 216.104136 -142.879083 
L 212.169201 -142.117768 
L 208.234266 -142.635217 
L 204.299332 -143.420803 
L 200.364397 -143.128502 
L 196.429462 -143.057631 
L 192.494527 -141.973556 
L 188.559592 -138.716775 
L 184.624658 -134.73336 
L 180.689723 -133.203688 
L 176.754788 -136.198258 
L 172.819853 -143.231779 
L 168.884918 -146.740123 
L 164.949984 -144.120456 
L 161.015049 -141.048304 
L 157.080114 -140.320447 
L 153.145179 -139.308404 
L 149.210245 -136.241021 
L 145.27531 -136.689339 
L 141.340375 -141.476827 
L 137.40544 -141.961847 
L 133.470505 -138.256381 
L 129.535571 -136.13914 
L 125.600636 -138.20676 
L 121.665701 -140.573144 
L 117.730766 -137.712068 
L 113.795832 -133.378458 
L 109.860897 -129.868844 
L 105.925962 -121.97806 
L 101.991027 -114.083002 
L 98.056092 -119.566108 
L 94.121158 -127.523508 
L 90.186223 -127.058853 
L 86.251288 -125.695951 
L 82.316353 -125.433423 
L 78.381418 -122.415898 
L 74.446484 -116.195902 
L 70.511549 -114.918272 
L 66.576614 -116.398761 
L 62.641679 -113.631707 
L 58.706745 -102.024779 
L 54.77181 -96.276649 
L 50.836875 -99.739 
z
" style="stroke: #d95f02; stroke-opacity: 0.1"/>
    </defs>
    <g clip-path="url(#p2591777d4d)">
     <use xlink:href="#m52f054b92f" x="0" y="424.105312" style="fill: #d95f02; fill-opacity: 0.1; stroke: #d95f02; stroke-opacity: 0.1"/>
    </g>
   </g>
   <g id="PolyCollection_5">
    <defs>
     <path id="m6cd2e7de82" d="M 50.836875 -99.739 
L 50.836875 -99.739 
L 54.77181 -100.844091 
L 58.706745 -104.250905 
L 62.641679 -107.411043 
L 66.576614 -105.924961 
L 70.511549 -107.898142 
L 74.446484 -112.739575 
L 78.381418 -111.914438 
L 82.316353 -114.506598 
L 86.251288 -121.178443 
L 90.186223 -127.198514 
L 94.121158 -128.292225 
L 98.056092 -123.588836 
L 101.991027 -118.823924 
L 105.925962 -116.906988 
L 109.860897 -121.045787 
L 113.795832 -117.109263 
L 117.730766 -111.260905 
L 121.665701 -114.206256 
L 125.600636 -120.899675 
L 129.535571 -125.858192 
L 133.470505 -127.276497 
L 137.40544 -124.12059 
L 141.340375 -118.12111 
L 145.27531 -115.1451 
L 149.210245 -114.481872 
L 153.145179 -114.111892 
L 157.080114 -116.22541 
L 161.015049 -121.533817 
L 164.949984 -123.208718 
L 168.884918 -119.948675 
L 172.819853 -117.784574 
L 176.754788 -117.527797 
L 180.689723 -116.920888 
L 184.624658 -115.91307 
L 188.559592 -116.160232 
L 192.494527 -115.287086 
L 196.429462 -113.695405 
L 200.364397 -113.916033 
L 204.299332 -114.950649 
L 208.234266 -114.824931 
L 212.169201 -113.007634 
L 216.104136 -111.082112 
L 220.039071 -109.423467 
L 223.974005 -108.712395 
L 227.90894 -107.306425 
L 231.843875 -105.918172 
L 235.77881 -106.231181 
L 239.713745 -108.347575 
L 243.648679 -109.836226 
L 247.583614 -109.814981 
L 251.518549 -108.692731 
L 255.453484 -106.722281 
L 259.388418 -105.276067 
L 263.323353 -105.533564 
L 267.258288 -105.753632 
L 271.193223 -105.954566 
L 275.128158 -106.108009 
L 279.063092 -106.716654 
L 282.998027 -107.229199 
L 286.932962 -105.438068 
L 290.867897 -104.548566 
L 294.802832 -106.491728 
L 298.737766 -106.531165 
L 302.672701 -104.343411 
L 306.607636 -102.960905 
L 310.542571 -101.685258 
L 314.477505 -100.346222 
L 318.41244 -100.516447 
L 322.347375 -101.518018 
L 326.28231 -102.083729 
L 330.217245 -101.519788 
L 334.152179 -100.751814 
L 338.087114 -100.665078 
L 342.022049 -101.419092 
L 345.956984 -102.971924 
L 349.891918 -104.068264 
L 353.826853 -103.207363 
L 357.761788 -100.754017 
L 361.696723 -97.698048 
L 365.631658 -96.017544 
L 369.566592 -96.541624 
L 373.501527 -98.12749 
L 377.436462 -98.959527 
L 381.371397 -98.070163 
L 385.306332 -96.943979 
L 389.241266 -96.720795 
L 393.176201 -96.359681 
L 397.111136 -97.059461 
L 401.046071 -99.329337 
L 404.981005 -100.855738 
L 408.91594 -101.204467 
L 412.850875 -101.233293 
L 412.850875 -101.231866 
L 412.850875 -101.231866 
L 408.91594 -101.155592 
L 404.981005 -100.224588 
L 401.046071 -96.034879 
L 397.111136 -89.106671 
L 393.176201 -85.039972 
L 389.241266 -84.204185 
L 385.306332 -84.058701 
L 381.371397 -84.572397 
L 377.436462 -84.77925 
L 373.501527 -83.894847 
L 369.566592 -82.596364 
L 365.631658 -81.980521 
L 361.696723 -83.243688 
L 357.761788 -86.11889 
L 353.826853 -88.247472 
L 349.891918 -88.243155 
L 345.956984 -86.79377 
L 342.022049 -86.015926 
L 338.087114 -85.691036 
L 334.152179 -85.300632 
L 330.217245 -85.410482 
L 326.28231 -85.904613 
L 322.347375 -86.263938 
L 318.41244 -85.929009 
L 314.477505 -85.426534 
L 310.542571 -85.720824 
L 306.607636 -86.026102 
L 302.672701 -87.07581 
L 298.737766 -88.980669 
L 294.802832 -88.183268 
L 290.867897 -85.449396 
L 286.932962 -85.809732 
L 282.998027 -87.29949 
L 279.063092 -87.413352 
L 275.128158 -87.598137 
L 271.193223 -87.644469 
L 267.258288 -87.181626 
L 263.323353 -86.439495 
L 259.388418 -85.759971 
L 255.453484 -86.278113 
L 251.518549 -87.263059 
L 247.583614 -87.995673 
L 243.648679 -88.108763 
L 239.713745 -87.328782 
L 235.77881 -86.083991 
L 231.843875 -86.315144 
L 227.90894 -87.346544 
L 223.974005 -87.072333 
L 220.039071 -85.56708 
L 216.104136 -85.174168 
L 212.169201 -86.659696 
L 208.234266 -89.981978 
L 204.299332 -91.920771 
L 200.364397 -90.703418 
L 196.429462 -88.979748 
L 192.494527 -89.416695 
L 188.559592 -89.497083 
L 184.624658 -88.743547 
L 180.689723 -89.512433 
L 176.754788 -89.963085 
L 172.819853 -89.705066 
L 168.884918 -90.801631 
L 164.949984 -92.906011 
L 161.015049 -91.877489 
L 157.080114 -88.582416 
L 153.145179 -87.629826 
L 149.210245 -87.880916 
L 145.27531 -86.434216 
L 141.340375 -87.779681 
L 137.40544 -94.853504 
L 133.470505 -97.105479 
L 129.535571 -92.703498 
L 125.600636 -86.841754 
L 121.665701 -81.076755 
L 117.730766 -80.588772 
L 113.795832 -87.340985 
L 109.860897 -90.877307 
L 105.925962 -86.077738 
L 101.991027 -86.060908 
L 98.056092 -90.394122 
L 94.121158 -95.505924 
L 90.186223 -92.737813 
L 86.251288 -87.07558 
L 82.316353 -78.958037 
L 78.381418 -67.558109 
L 74.446484 -63.187345 
L 70.511549 -63.251502 
L 66.576614 -60.759502 
L 62.641679 -61.432713 
L 58.706745 -74.248289 
L 54.77181 -88.809106 
L 50.836875 -99.739 
z
" style="stroke: #1b9e77; stroke-opacity: 0.1"/>
    </defs>
    <g clip-path="url(#p2591777d4d)">
     <use xlink:href="#m6cd2e7de82" x="0" y="424.105312" style="fill: #1b9e77; fill-opacity: 0.1; stroke: #1b9e77; stroke-opacity: 0.1"/>
    </g>
   </g>
   <g id="line2d_24">
    <path d="M 50.836875 248.112812 
L 54.77181 227.043048 
L 58.706745 199.25812 
L 62.641679 175.699908 
L 66.576614 176.915067 
L 70.511549 181.512547 
L 74.446484 172.248893 
L 78.381418 158.496649 
L 82.316353 149.749476 
L 86.251288 147.456112 
L 90.186223 142.083837 
L 94.121158 132.216099 
L 98.056092 126.137675 
L 101.991027 120.966734 
L 105.925962 118.635738 
L 109.860897 118.414738 
L 113.795832 114.854197 
L 117.730766 109.996324 
L 121.665701 107.560212 
L 125.600636 107.472023 
L 129.535571 107.0814 
L 133.470505 103.874183 
L 137.40544 96.640465 
L 141.340375 90.338164 
L 145.27531 88.327062 
L 149.210245 88.750258 
L 153.145179 88.402783 
L 157.080114 84.164463 
L 161.015049 76.510032 
L 164.949984 73.55287 
L 168.884918 76.355855 
L 172.819853 77.8466 
L 176.754788 79.005325 
L 180.689723 80.420561 
L 184.624658 78.232635 
L 188.559592 73.577767 
L 192.494527 68.619177 
L 196.429462 67.269893 
L 200.364397 71.515182 
L 204.299332 73.502635 
L 208.234266 70.073865 
L 212.169201 67.220423 
L 216.104136 66.032153 
L 220.039071 64.567707 
L 223.974005 61.300149 
L 227.90894 57.020394 
L 231.843875 54.337566 
L 235.77881 55.455792 
L 239.713745 57.107177 
L 243.648679 54.995417 
L 247.583614 52.054638 
L 251.518549 51.362522 
L 255.453484 52.068717 
L 259.388418 52.768891 
L 263.323353 53.988551 
L 267.258288 52.686952 
L 271.193223 49.924633 
L 275.128158 49.006473 
L 279.063092 48.050085 
L 282.998027 45.645893 
L 286.932962 44.693296 
L 290.867897 45.041496 
L 294.802832 45.015166 
L 298.737766 43.484297 
L 302.672701 42.047903 
L 306.607636 41.733459 
L 310.542571 41.295813 
L 314.477505 40.852873 
L 318.41244 39.961134 
L 322.347375 38.913986 
L 326.28231 38.099744 
L 330.217245 35.909399 
L 334.152179 34.085407 
L 338.087114 33.805338 
L 342.022049 33.729794 
L 345.956984 33.830248 
L 349.891918 33.482129 
L 353.826853 32.238165 
L 357.761788 30.916008 
L 361.696723 30.287273 
L 365.631658 30.07094 
L 369.566592 29.527831 
L 373.501527 28.162339 
L 377.436462 26.563569 
L 381.371397 25.40019 
L 385.306332 24.733852 
L 389.241266 24.213186 
L 393.176201 23.912468 
L 397.111136 23.843709 
L 401.046071 23.837987 
L 404.981005 23.837812 
L 408.91594 23.837812 
L 412.850875 23.837812 
" clip-path="url(#p2591777d4d)" style="fill: none; stroke: #66a61e; stroke-width: 2; stroke-linecap: square"/>
   </g>
   <g id="line2d_25">
    <path d="M 50.836875 248.112812 
L 54.77181 222.019434 
L 58.706745 189.293674 
L 62.641679 160.968472 
L 66.576614 159.388947 
L 70.511549 162.935415 
L 74.446484 152.033041 
L 78.381418 138.434434 
L 82.316353 131.014267 
L 86.251288 129.705199 
L 90.186223 124.139512 
L 94.121158 113.265535 
L 98.056092 107.978155 
L 101.991027 104.978351 
L 105.925962 104.453868 
L 109.860897 106.12637 
L 113.795832 104.20006 
L 117.730766 99.855832 
L 121.665701 97.502642 
L 125.600636 96.875149 
L 129.535571 95.486803 
L 133.470505 92.5186 
L 137.40544 86.327437 
L 141.340375 80.053992 
L 145.27531 77.997265 
L 149.210245 78.86262 
L 153.145179 78.77021 
L 157.080114 74.347184 
L 161.015049 66.696801 
L 164.949984 63.79426 
L 168.884918 66.568201 
L 172.819853 68.702316 
L 176.754788 70.150348 
L 180.689723 71.119771 
L 184.624658 68.953729 
L 188.559592 64.94643 
L 192.494527 60.331161 
L 196.429462 58.84391 
L 200.364397 62.931014 
L 204.299332 65.069825 
L 208.234266 62.071088 
L 212.169201 59.330125 
L 216.104136 57.916611 
L 220.039071 56.085706 
L 223.974005 52.766903 
L 227.90894 49.066449 
L 231.843875 47.013418 
L 235.77881 48.190693 
L 239.713745 49.497379 
L 243.648679 47.479462 
L 247.583614 44.964292 
L 251.518549 44.452346 
L 255.453484 45.109856 
L 259.388418 45.974788 
L 263.323353 47.069897 
L 267.258288 45.505087 
L 271.193223 43.052639 
L 275.128158 42.571853 
L 279.063092 41.854392 
L 282.998027 39.698446 
L 286.932962 38.808634 
L 290.867897 39.092076 
L 294.802832 39.021892 
L 298.737766 37.62549 
L 302.672701 36.248762 
L 306.607636 35.952276 
L 310.542571 35.62546 
L 314.477505 35.173379 
L 318.41244 34.283187 
L 322.347375 33.284565 
L 326.28231 32.684146 
L 330.217245 31.075386 
L 334.152179 29.661864 
L 338.087114 29.402508 
L 342.022049 29.288298 
L 345.956984 29.334253 
L 349.891918 29.114799 
L 353.826853 28.116038 
L 357.761788 27.043699 
L 361.696723 26.577512 
L 365.631658 26.435999 
L 369.566592 26.114304 
L 373.501527 25.227114 
L 377.436462 24.23908 
L 381.371397 23.654145 
L 385.306332 23.556862 
L 389.241266 23.707809 
L 393.176201 23.812711 
L 397.111136 23.835875 
L 401.046071 23.837756 
L 404.981005 23.837812 
L 408.91594 23.837812 
L 412.850875 23.837812 
" clip-path="url(#p2591777d4d)" style="fill: none; stroke-dasharray: 3.7,1.6; stroke-dashoffset: 0; stroke: #66a61e"/>
   </g>
   <g id="line2d_26">
    <path d="M 50.836875 248.112812 
L 54.77181 237.090276 
L 58.706745 219.187013 
L 62.641679 205.16278 
L 66.576614 211.967307 
L 70.511549 218.666813 
L 74.446484 212.680597 
L 78.381418 198.62108 
L 82.316353 187.219895 
L 86.251288 182.957937 
L 90.186223 177.972487 
L 94.121158 170.117227 
L 98.056092 162.456717 
L 101.991027 152.943502 
L 105.925962 146.999476 
L 109.860897 142.991474 
L 113.795832 136.162469 
L 117.730766 130.277308 
L 121.665701 127.675352 
L 125.600636 128.665769 
L 129.535571 130.270594 
L 133.470505 126.585351 
L 137.40544 117.266522 
L 141.340375 110.906508 
L 145.27531 108.986656 
L 149.210245 108.525534 
L 153.145179 107.66793 
L 157.080114 103.799021 
L 161.015049 96.136495 
L 164.949984 93.070089 
L 168.884918 95.931163 
L 172.819853 96.135166 
L 176.754788 96.715278 
L 180.689723 99.022143 
L 184.624658 96.790446 
L 188.559592 90.840442 
L 192.494527 85.19521 
L 196.429462 84.121857 
L 200.364397 88.683517 
L 204.299332 90.368256 
L 208.234266 86.079418 
L 212.169201 83.001019 
L 216.104136 82.263238 
L 220.039071 81.53171 
L 223.974005 78.366642 
L 227.90894 72.928285 
L 231.843875 68.985861 
L 235.77881 69.98599 
L 239.713745 72.326775 
L 243.648679 70.027326 
L 247.583614 66.235332 
L 251.518549 65.182872 
L 255.453484 65.98644 
L 259.388418 66.357096 
L 263.323353 67.825858 
L 267.258288 67.050681 
L 271.193223 63.668622 
L 275.128158 61.875715 
L 279.063092 60.441471 
L 282.998027 57.540787 
L 286.932962 56.46262 
L 290.867897 56.940335 
L 294.802832 57.001713 
L 298.737766 55.20191 
L 302.672701 53.646184 
L 306.607636 53.295824 
L 310.542571 52.63652 
L 314.477505 52.211861 
L 318.41244 51.317027 
L 322.347375 50.172828 
L 326.28231 48.930941 
L 330.217245 45.577426 
L 334.152179 42.932493 
L 338.087114 42.610997 
L 342.022049 42.612785 
L 345.956984 42.822238 
L 349.891918 42.21679 
L 353.826853 40.48242 
L 357.761788 38.660627 
L 361.696723 37.706796 
L 365.631658 37.340823 
L 369.566592 36.354887 
L 373.501527 34.032789 
L 377.436462 31.212547 
L 381.371397 28.892281 
L 385.306332 27.087833 
L 389.241266 25.223939 
L 393.176201 24.111981 
L 397.111136 23.859378 
L 401.046071 23.838449 
L 404.981005 23.837812 
L 408.91594 23.837812 
L 412.850875 23.837812 
" clip-path="url(#p2591777d4d)" style="fill: none; stroke-dasharray: 3.7,1.6; stroke-dashoffset: 0; stroke: #66a61e"/>
   </g>
   <g id="line2d_27">
    <path d="M 50.836875 288.482312 
L 54.77181 284.25853 
L 58.706745 283.327381 
L 62.641679 282.673267 
L 66.576614 267.641439 
L 70.511549 238.602673 
L 74.446484 217.945755 
L 78.381418 210.881176 
L 82.316353 210.848005 
L 86.251288 217.789806 
L 90.186223 225.546267 
L 94.121158 222.100551 
L 98.056092 212.909709 
L 101.991027 208.133897 
L 105.925962 207.112987 
L 109.860897 208.443882 
L 113.795832 212.398701 
L 117.730766 213.495483 
L 121.665701 212.891361 
L 125.600636 211.492319 
L 129.535571 210.05569 
L 133.470505 209.305537 
L 137.40544 203.824541 
L 141.340375 198.049208 
L 145.27531 195.816767 
L 149.210245 196.410699 
L 153.145179 196.407242 
L 157.080114 194.532857 
L 161.015049 196.283745 
L 164.949984 199.841787 
L 168.884918 199.102792 
L 172.819853 199.149952 
L 176.754788 199.968931 
L 180.689723 198.528438 
L 184.624658 196.065694 
L 188.559592 192.913378 
L 192.494527 190.878832 
L 196.429462 192.329051 
L 200.364397 194.477938 
L 204.299332 195.917805 
L 208.234266 195.926189 
L 212.169201 192.426238 
L 216.104136 189.376261 
L 220.039071 190.466659 
L 223.974005 192.540734 
L 227.90894 192.2753 
L 231.843875 190.364503 
L 235.77881 186.758416 
L 239.713745 184.039205 
L 243.648679 185.656558 
L 247.583614 187.933344 
L 251.518549 185.301882 
L 255.453484 181.836098 
L 259.388418 181.203187 
L 263.323353 180.512316 
L 267.258288 181.125325 
L 271.193223 184.535305 
L 275.128158 186.60672 
L 279.063092 185.776874 
L 282.998027 183.209899 
L 286.932962 181.157679 
L 290.867897 180.627767 
L 294.802832 181.073901 
L 298.737766 180.950557 
L 302.672701 179.82132 
L 306.607636 180.084092 
L 310.542571 181.006327 
L 314.477505 182.164551 
L 318.41244 183.085325 
L 322.347375 182.782617 
L 326.28231 181.777044 
L 330.217245 181.443262 
L 334.152179 181.296826 
L 338.087114 180.987092 
L 342.022049 181.478149 
L 345.956984 182.071769 
L 349.891918 181.656005 
L 353.826853 181.682606 
L 357.761788 182.681203 
L 361.696723 183.796966 
L 365.631658 185.163857 
L 369.566592 186.592516 
L 373.501527 187.853794 
L 377.436462 188.807207 
L 381.371397 189.138605 
L 385.306332 189.034936 
L 389.241266 190.472877 
L 393.176201 193.598876 
L 397.111136 198.863955 
L 401.046071 205.758248 
L 404.981005 209.771231 
L 408.91594 210.65878 
L 412.850875 210.731454 
" clip-path="url(#p2591777d4d)" style="fill: none; stroke: #e7298a; stroke-width: 2; stroke-linecap: square"/>
   </g>
   <g id="line2d_28">
    <path d="M 50.836875 288.482312 
L 54.77181 277.22193 
L 58.706745 269.620814 
L 62.641679 265.509367 
L 66.576614 252.18637 
L 70.511549 224.194382 
L 74.446484 202.310746 
L 78.381418 196.187022 
L 82.316353 198.189162 
L 86.251288 204.746592 
L 90.186223 211.419782 
L 94.121158 207.837318 
L 98.056092 199.396747 
L 101.991027 195.989499 
L 105.925962 195.337528 
L 109.860897 195.670282 
L 113.795832 199.186505 
L 117.730766 201.555341 
L 121.665701 202.124729 
L 125.600636 200.319618 
L 129.535571 198.421008 
L 133.470505 197.994242 
L 137.40544 193.06442 
L 141.340375 187.684183 
L 145.27531 185.221545 
L 149.210245 185.689661 
L 153.145179 185.918272 
L 157.080114 184.371896 
L 161.015049 186.125412 
L 164.949984 189.412002 
L 168.884918 188.368831 
L 172.819853 188.632201 
L 176.754788 190.308332 
L 180.689723 189.421602 
L 184.624658 186.596881 
L 188.559592 183.361657 
L 192.494527 182.038915 
L 196.429462 183.972777 
L 200.364397 186.193981 
L 204.299332 187.895402 
L 208.234266 187.894257 
L 212.169201 184.08344 
L 216.104136 180.71935 
L 220.039071 181.691985 
L 223.974005 183.792421 
L 227.90894 183.588442 
L 231.843875 182.004534 
L 235.77881 179.241991 
L 239.713745 176.993484 
L 243.648679 178.301736 
L 247.583614 180.228595 
L 251.518549 177.807712 
L 255.453484 174.668828 
L 259.388418 173.910329 
L 263.323353 172.811251 
L 267.258288 173.020778 
L 271.193223 176.159628 
L 275.128158 178.285962 
L 279.063092 177.66514 
L 282.998027 175.304451 
L 286.932962 173.540197 
L 290.867897 173.192941 
L 294.802832 173.595658 
L 298.737766 173.428368 
L 302.672701 172.296315 
L 306.607636 172.647681 
L 310.542571 173.836227 
L 314.477505 175.077598 
L 318.41244 176.06738 
L 322.347375 175.969126 
L 326.28231 174.978599 
L 330.217245 174.609781 
L 334.152179 174.448721 
L 338.087114 174.187331 
L 342.022049 174.821636 
L 345.956984 175.433885 
L 349.891918 174.916501 
L 353.826853 175.054783 
L 357.761788 176.340313 
L 361.696723 177.54885 
L 365.631658 178.889071 
L 369.566592 180.339936 
L 373.501527 181.627538 
L 377.436462 182.668512 
L 381.371397 183.099563 
L 385.306332 183.089141 
L 389.241266 184.792442 
L 393.176201 188.557061 
L 397.111136 195.346228 
L 401.046071 204.308697 
L 404.981005 209.494476 
L 408.91594 210.637382 
L 412.850875 210.73083 
" clip-path="url(#p2591777d4d)" style="fill: none; stroke-dasharray: 3.7,1.6; stroke-dashoffset: 0; stroke: #e7298a"/>
   </g>
   <g id="line2d_29">
    <path d="M 50.836875 288.482312 
L 54.77181 298.33173 
L 58.706745 310.740515 
L 62.641679 317.001066 
L 66.576614 298.551579 
L 70.511549 267.419254 
L 74.446484 249.215773 
L 78.381418 240.269484 
L 82.316353 236.165691 
L 86.251288 243.876234 
L 90.186223 253.799237 
L 94.121158 250.627017 
L 98.056092 239.935632 
L 101.991027 232.422693 
L 105.925962 230.663904 
L 109.860897 233.991083 
L 113.795832 238.823092 
L 117.730766 237.375767 
L 121.665701 234.424625 
L 125.600636 233.837722 
L 129.535571 233.325054 
L 133.470505 231.928128 
L 137.40544 225.344782 
L 141.340375 218.779258 
L 145.27531 217.007212 
L 149.210245 217.852776 
L 153.145179 217.385183 
L 157.080114 214.854778 
L 161.015049 216.600412 
L 164.949984 220.701357 
L 168.884918 220.570712 
L 172.819853 220.185453 
L 176.754788 219.290129 
L 180.689723 216.742109 
L 184.624658 215.003318 
L 188.559592 212.016821 
L 192.494527 208.558667 
L 196.429462 209.041601 
L 200.364397 211.045852 
L 204.299332 211.962612 
L 208.234266 211.990052 
L 212.169201 209.111835 
L 216.104136 206.690084 
L 220.039071 208.016007 
L 223.974005 210.037358 
L 227.90894 209.649017 
L 231.843875 207.084443 
L 235.77881 201.791268 
L 239.713745 198.130648 
L 243.648679 200.366202 
L 247.583614 203.342842 
L 251.518549 200.29022 
L 255.453484 196.170639 
L 259.388418 195.788903 
L 263.323353 195.914445 
L 267.258288 197.33442 
L 271.193223 201.286657 
L 275.128158 203.248236 
L 279.063092 202.000344 
L 282.998027 199.020793 
L 286.932962 196.392643 
L 290.867897 195.497418 
L 294.802832 196.030387 
L 298.737766 195.994933 
L 302.672701 194.871331 
L 306.607636 194.956916 
L 310.542571 195.346525 
L 314.477505 196.338458 
L 318.41244 197.121216 
L 322.347375 196.409601 
L 326.28231 195.373934 
L 330.217245 195.110224 
L 334.152179 194.993035 
L 338.087114 194.586614 
L 342.022049 194.791176 
L 345.956984 195.347537 
L 349.891918 195.135011 
L 353.826853 194.938254 
L 357.761788 195.362982 
L 361.696723 196.293199 
L 365.631658 197.71343 
L 369.566592 199.097677 
L 373.501527 200.306305 
L 377.436462 201.084596 
L 381.371397 201.216688 
L 385.306332 200.926526 
L 389.241266 201.833745 
L 393.176201 203.682508 
L 397.111136 205.89941 
L 401.046071 208.657351 
L 404.981005 210.324741 
L 408.91594 210.701574 
L 412.850875 210.732702 
" clip-path="url(#p2591777d4d)" style="fill: none; stroke-dasharray: 3.7,1.6; stroke-dashoffset: 0; stroke: #e7298a"/>
   </g>
   <g id="line2d_30">
    <path d="M 50.836875 301.938812 
L 54.77181 291.406063 
L 58.706745 283.345623 
L 62.641679 281.94574 
L 66.576614 283.553052 
L 70.511549 279.531951 
L 74.446484 275.042243 
L 78.381418 272.561197 
L 82.316353 272.587523 
L 86.251288 271.309183 
L 90.186223 266.830765 
L 94.121158 262.262507 
L 98.056092 261.40125 
L 101.991027 260.661376 
L 105.925962 256.551094 
L 109.860897 254.707503 
L 113.795832 254.829345 
L 117.730766 254.211778 
L 121.665701 252.130234 
L 125.600636 249.48519 
L 129.535571 247.97655 
L 133.470505 248.998208 
L 137.40544 251.307354 
L 141.340375 250.508352 
L 145.27531 248.618541 
L 149.210245 247.080868 
L 153.145179 244.987662 
L 157.080114 244.958024 
L 161.015049 245.231329 
L 164.949984 244.45618 
L 168.884918 244.53701 
L 172.819853 244.295852 
L 176.754788 242.531385 
L 180.689723 242.195365 
L 184.624658 241.254748 
L 188.559592 239.34575 
L 192.494527 238.113907 
L 196.429462 236.497543 
L 200.364397 235.851741 
L 204.299332 236.785965 
L 208.234266 236.571576 
L 212.169201 234.61013 
L 216.104136 232.347475 
L 220.039071 230.95305 
L 223.974005 231.390295 
L 227.90894 231.819926 
L 231.843875 231.0731 
L 235.77881 230.791418 
L 239.713745 231.319014 
L 243.648679 231.170584 
L 247.583614 230.060035 
L 251.518549 228.916689 
L 255.453484 228.032006 
L 259.388418 226.738894 
L 263.323353 225.00344 
L 267.258288 223.636913 
L 271.193223 222.363286 
L 275.128158 222.004986 
L 279.063092 223.597633 
L 282.998027 224.928922 
L 286.932962 225.117508 
L 290.867897 224.143824 
L 294.802832 222.104075 
L 298.737766 219.579852 
L 302.672701 218.155397 
L 306.607636 217.85264 
L 310.542571 217.999422 
L 314.477505 219.041913 
L 318.41244 219.138778 
L 322.347375 217.056064 
L 326.28231 215.114866 
L 330.217245 214.529636 
L 334.152179 214.198395 
L 338.087114 213.429794 
L 342.022049 212.113439 
L 345.956984 210.761768 
L 349.891918 210.400698 
L 353.826853 210.169878 
L 357.761788 209.261814 
L 361.696723 207.970112 
L 365.631658 206.683452 
L 369.566592 205.627715 
L 373.501527 204.293748 
L 377.436462 202.561096 
L 381.371397 201.098139 
L 385.306332 199.929237 
L 389.241266 198.728804 
L 393.176201 197.35841 
L 397.111136 196.553066 
L 401.046071 196.372386 
L 404.981005 196.357494 
L 408.91594 196.357043 
L 412.850875 196.357043 
" clip-path="url(#p2591777d4d)" style="fill: none; stroke: #7570b3; stroke-width: 2; stroke-linecap: square"/>
   </g>
   <g id="line2d_31">
    <path d="M 50.836875 301.938812 
L 54.77181 288.245004 
L 58.706745 277.40257 
L 62.641679 274.613913 
L 66.576614 275.9371 
L 70.511549 270.312395 
L 74.446484 263.961983 
L 78.381418 261.270643 
L 82.316353 262.066972 
L 86.251288 261.520752 
L 90.186223 257.857303 
L 94.121158 254.083565 
L 98.056092 253.720325 
L 101.991027 253.511845 
L 105.925962 249.770196 
L 109.860897 248.057625 
L 113.795832 248.46199 
L 117.730766 247.835208 
L 121.665701 245.55743 
L 125.600636 242.864997 
L 129.535571 241.292335 
L 133.470505 242.833249 
L 137.40544 245.971162 
L 141.340375 245.382988 
L 145.27531 243.535044 
L 149.210245 242.167522 
L 153.145179 240.040395 
L 157.080114 239.964677 
L 161.015049 240.46165 
L 164.949984 239.58773 
L 168.884918 239.308889 
L 172.819853 238.745805 
L 176.754788 236.665439 
L 180.689723 236.045182 
L 184.624658 234.918858 
L 188.559592 233.312001 
L 192.494527 232.774626 
L 196.429462 231.483171 
L 200.364397 230.520869 
L 204.299332 231.023101 
L 208.234266 230.627521 
L 212.169201 228.96743 
L 216.104136 227.25391 
L 220.039071 226.228231 
L 223.974005 226.643567 
L 227.90894 227.026465 
L 231.843875 226.303029 
L 235.77881 225.831409 
L 239.713745 226.231671 
L 243.648679 226.212238 
L 247.583614 225.260896 
L 251.518549 224.302561 
L 255.453484 223.563779 
L 259.388418 222.335814 
L 263.323353 220.669161 
L 267.258288 219.42955 
L 271.193223 218.266579 
L 275.128158 217.987847 
L 279.063092 219.446182 
L 282.998027 220.611913 
L 286.932962 220.803498 
L 290.867897 219.741237 
L 294.802832 217.617926 
L 298.737766 215.192257 
L 302.672701 213.949004 
L 306.607636 213.833228 
L 310.542571 214.145419 
L 314.477505 215.108914 
L 318.41244 214.900036 
L 322.347375 212.739404 
L 326.28231 211.081246 
L 330.217245 210.707732 
L 334.152179 210.320071 
L 338.087114 209.559541 
L 342.022049 208.432389 
L 345.956984 207.234124 
L 349.891918 206.875977 
L 353.826853 206.705945 
L 357.761788 205.951077 
L 361.696723 204.833918 
L 365.631658 203.717309 
L 369.566592 202.833275 
L 373.501527 201.710482 
L 377.436462 200.243871 
L 381.371397 199.03582 
L 385.306332 198.112712 
L 389.241266 197.418606 
L 393.176201 196.801509 
L 397.111136 196.444984 
L 401.046071 196.363971 
L 404.981005 196.357248 
L 408.91594 196.357043 
L 412.850875 196.357043 
" clip-path="url(#p2591777d4d)" style="fill: none; stroke-dasharray: 3.7,1.6; stroke-dashoffset: 0; stroke: #7570b3"/>
   </g>
   <g id="line2d_32">
    <path d="M 50.836875 301.938812 
L 54.77181 297.728182 
L 58.706745 295.231728 
L 62.641679 296.609393 
L 66.576614 298.784957 
L 70.511549 297.971063 
L 74.446484 297.202763 
L 78.381418 295.142305 
L 82.316353 293.628626 
L 86.251288 290.886044 
L 90.186223 284.777687 
L 94.121158 278.620392 
L 98.056092 276.763101 
L 101.991027 274.960439 
L 105.925962 270.112891 
L 109.860897 268.007259 
L 113.795832 267.564055 
L 117.730766 266.964917 
L 121.665701 265.275841 
L 125.600636 262.725577 
L 129.535571 261.344981 
L 133.470505 261.328128 
L 137.40544 261.97974 
L 141.340375 260.759082 
L 145.27531 258.785535 
L 149.210245 256.907559 
L 153.145179 254.882196 
L 157.080114 254.944718 
L 161.015049 254.770686 
L 164.949984 254.193081 
L 168.884918 254.993253 
L 172.819853 255.395947 
L 176.754788 254.263276 
L 180.689723 254.495733 
L 184.624658 253.926528 
L 188.559592 251.413249 
L 192.494527 248.792471 
L 196.429462 246.526287 
L 200.364397 246.513486 
L 204.299332 248.311693 
L 208.234266 248.459684 
L 212.169201 245.895529 
L 216.104136 242.534604 
L 220.039071 240.402687 
L 223.974005 240.883749 
L 227.90894 241.406849 
L 231.843875 240.613243 
L 235.77881 240.711435 
L 239.713745 241.493699 
L 243.648679 241.087276 
L 247.583614 239.658314 
L 251.518549 238.144944 
L 255.453484 236.968459 
L 259.388418 235.545053 
L 263.323353 233.672 
L 267.258288 232.051637 
L 271.193223 230.556701 
L 275.128158 230.039265 
L 279.063092 231.900535 
L 282.998027 233.562941 
L 286.932962 233.745529 
L 290.867897 232.948998 
L 294.802832 231.076372 
L 298.737766 228.35504 
L 302.672701 226.568184 
L 306.607636 225.891462 
L 310.542571 225.707428 
L 314.477505 226.90791 
L 318.41244 227.616262 
L 322.347375 225.689383 
L 326.28231 223.182106 
L 330.217245 222.173446 
L 334.152179 221.955042 
L 338.087114 221.1703 
L 342.022049 219.47554 
L 345.956984 217.817055 
L 349.891918 217.45014 
L 353.826853 217.097744 
L 357.761788 215.88329 
L 361.696723 214.242501 
L 365.631658 212.615739 
L 369.566592 211.216594 
L 373.501527 209.460279 
L 377.436462 207.195546 
L 381.371397 205.222777 
L 385.306332 203.562288 
L 389.241266 201.3492 
L 393.176201 198.47221 
L 397.111136 196.76923 
L 401.046071 196.389216 
L 404.981005 196.357987 
L 408.91594 196.357043 
L 412.850875 196.357043 
" clip-path="url(#p2591777d4d)" style="fill: none; stroke-dasharray: 3.7,1.6; stroke-dashoffset: 0; stroke: #7570b3"/>
   </g>
   <g id="line2d_33">
    <path d="M 50.836875 324.366312 
L 54.77181 313.672755 
L 58.706745 293.62043 
L 62.641679 273.631697 
L 66.576614 273.057821 
L 70.511549 277.198478 
L 74.446484 277.743392 
L 78.381418 274.223722 
L 82.316353 273.554487 
L 86.251288 274.47869 
L 90.186223 273.61579 
L 94.121158 274.201562 
L 98.056092 280.873207 
L 101.991027 284.392583 
L 105.925962 278.509583 
L 109.860897 274.231996 
L 113.795832 270.6042 
L 117.730766 262.795418 
L 121.665701 258.159997 
L 125.600636 260.55992 
L 129.535571 261.994477 
L 133.470505 260.704904 
L 137.40544 259.742036 
L 141.340375 262.665803 
L 145.27531 267.618805 
L 149.210245 267.297434 
L 153.145179 264.986459 
L 157.080114 265.345505 
L 161.015049 264.33402 
L 164.949984 260.562328 
L 168.884918 259.55 
L 172.819853 265.405529 
L 176.754788 273.938596 
L 180.689723 277.055749 
L 184.624658 274.11168 
L 188.559592 268.860925 
L 192.494527 265.757704 
L 196.429462 265.024022 
L 200.364397 265.511191 
L 204.299332 265.702384 
L 208.234266 266.962164 
L 212.169201 267.526564 
L 216.104136 266.106295 
L 220.039071 267.788867 
L 223.974005 269.853211 
L 227.90894 267.675201 
L 231.843875 265.378622 
L 235.77881 265.995598 
L 239.713745 267.387219 
L 243.648679 268.512619 
L 247.583614 270.33504 
L 251.518549 270.249247 
L 255.453484 268.404558 
L 259.388418 266.324935 
L 263.323353 265.747503 
L 267.258288 265.84024 
L 271.193223 265.934596 
L 275.128158 266.311341 
L 279.063092 266.361062 
L 282.998027 265.805429 
L 286.932962 266.309321 
L 290.867897 268.150298 
L 294.802832 267.464255 
L 298.737766 266.123394 
L 302.672701 266.455876 
L 306.607636 266.843997 
L 310.542571 266.169902 
L 314.477505 264.849785 
L 318.41244 263.655751 
L 322.347375 263.268133 
L 326.28231 264.132058 
L 330.217245 265.78584 
L 334.152179 266.589387 
L 338.087114 266.903233 
L 342.022049 267.433963 
L 345.956984 267.602064 
L 349.891918 267.810068 
L 353.826853 268.284454 
L 357.761788 268.957091 
L 361.696723 269.221124 
L 365.631658 269.240314 
L 369.566592 269.41577 
L 373.501527 269.791111 
L 377.436462 270.822135 
L 381.371397 271.936551 
L 385.306332 272.422693 
L 389.241266 272.740721 
L 393.176201 272.969361 
L 397.111136 273.02712 
L 401.046071 273.032102 
L 404.981005 273.032257 
L 408.91594 273.032257 
L 412.850875 273.032257 
" clip-path="url(#p2591777d4d)" style="fill: none; stroke: #d95f02; stroke-width: 2; stroke-linecap: square"/>
   </g>
   <g id="line2d_34">
    <path d="M 50.836875 324.366312 
L 54.77181 306.5948 
L 58.706745 279.390378 
L 62.641679 255.210743 
L 66.576614 255.733456 
L 70.511549 261.204196 
L 74.446484 262.660383 
L 78.381418 260.490876 
L 82.316353 260.995786 
L 86.251288 262.513354 
L 90.186223 261.900456 
L 94.121158 263.01144 
L 98.056092 269.040209 
L 101.991027 271.577719 
L 105.925962 266.700749 
L 109.860897 264.229759 
L 113.795832 260.542872 
L 117.730766 250.996505 
L 121.665701 245.473911 
L 125.600636 247.890604 
L 129.535571 249.008629 
L 133.470505 248.132891 
L 137.40544 248.541322 
L 141.340375 252.684461 
L 145.27531 257.720221 
L 149.210245 257.014005 
L 153.145179 255.081234 
L 157.080114 256.125825 
L 161.015049 254.972526 
L 164.949984 250.851064 
L 168.884918 250.642406 
L 172.819853 257.671527 
L 176.754788 266.954367 
L 180.689723 270.132811 
L 184.624658 266.481544 
L 188.559592 260.597119 
L 192.494527 257.570678 
L 196.429462 257.012193 
L 200.364397 257.778381 
L 204.299332 258.211321 
L 208.234266 259.708198 
L 212.169201 260.296074 
L 216.104136 258.546327 
L 220.039071 260.301256 
L 223.974005 262.299815 
L 227.90894 259.851894 
L 231.843875 257.580827 
L 235.77881 258.081329 
L 239.713745 259.451676 
L 243.648679 261.100149 
L 247.583614 263.245136 
L 251.518549 262.969651 
L 255.453484 261.156972 
L 259.388418 259.49877 
L 263.323353 259.343016 
L 267.258288 259.597337 
L 271.193223 259.859328 
L 275.128158 260.512575 
L 279.063092 260.723776 
L 282.998027 260.138599 
L 286.932962 260.805039 
L 290.867897 262.895936 
L 294.802832 261.950396 
L 298.737766 260.398957 
L 302.672701 260.737463 
L 306.607636 261.119135 
L 310.542571 260.494511 
L 314.477505 259.257536 
L 318.41244 258.083772 
L 322.347375 257.784664 
L 326.28231 259.029113 
L 330.217245 261.163605 
L 334.152179 262.195964 
L 338.087114 262.420953 
L 342.022049 262.857231 
L 345.956984 263.117648 
L 349.891918 263.513445 
L 353.826853 264.388386 
L 357.761788 265.498674 
L 361.696723 265.8974 
L 365.631658 265.92683 
L 369.566592 266.186957 
L 373.501527 266.816003 
L 377.436462 268.634307 
L 381.371397 270.631745 
L 385.306332 271.509176 
L 389.241266 272.271369 
L 393.176201 272.867021 
L 397.111136 273.018749 
L 401.046071 273.031849 
L 404.981005 273.032257 
L 408.91594 273.032257 
L 412.850875 273.032257 
" clip-path="url(#p2591777d4d)" style="fill: none; stroke-dasharray: 3.7,1.6; stroke-dashoffset: 0; stroke: #d95f02"/>
   </g>
   <g id="line2d_35">
    <path d="M 50.836875 324.366312 
L 54.77181 327.828664 
L 58.706745 322.080533 
L 62.641679 310.473605 
L 66.576614 307.706551 
L 70.511549 309.18704 
L 74.446484 307.909411 
L 78.381418 301.689415 
L 82.316353 298.671889 
L 86.251288 298.409362 
L 90.186223 297.046459 
L 94.121158 296.581805 
L 98.056092 304.539204 
L 101.991027 310.022311 
L 105.925962 302.127253 
L 109.860897 294.236469 
L 113.795832 290.726855 
L 117.730766 286.393245 
L 121.665701 283.532169 
L 125.600636 285.898553 
L 129.535571 287.966173 
L 133.470505 285.848931 
L 137.40544 282.143465 
L 141.340375 282.628486 
L 145.27531 287.415974 
L 149.210245 287.864292 
L 153.145179 284.796908 
L 157.080114 283.784865 
L 161.015049 283.057008 
L 164.949984 279.984857 
L 168.884918 277.36519 
L 172.819853 280.873533 
L 176.754788 287.907055 
L 180.689723 290.901624 
L 184.624658 289.371953 
L 188.559592 285.388537 
L 192.494527 282.131756 
L 196.429462 281.047681 
L 200.364397 280.97681 
L 204.299332 280.68451 
L 208.234266 281.470095 
L 212.169201 281.987545 
L 216.104136 281.226229 
L 220.039071 282.764089 
L 223.974005 284.960003 
L 227.90894 283.321815 
L 231.843875 280.974212 
L 235.77881 281.824137 
L 239.713745 283.258305 
L 243.648679 283.337559 
L 247.583614 284.514849 
L 251.518549 284.808439 
L 255.453484 282.899731 
L 259.388418 279.977264 
L 263.323353 278.556476 
L 267.258288 278.326045 
L 271.193223 278.085133 
L 275.128158 277.908874 
L 279.063092 277.635634 
L 282.998027 277.139089 
L 286.932962 277.317883 
L 290.867897 278.659023 
L 294.802832 278.491974 
L 298.737766 277.572269 
L 302.672701 277.892702 
L 306.607636 278.293721 
L 310.542571 277.520684 
L 314.477505 276.034283 
L 318.41244 274.799709 
L 322.347375 274.235072 
L 326.28231 274.337949 
L 330.217245 275.030311 
L 334.152179 275.376232 
L 338.087114 275.867792 
L 342.022049 276.587428 
L 345.956984 276.570897 
L 349.891918 276.403312 
L 353.826853 276.076589 
L 357.761788 275.873926 
L 361.696723 275.868572 
L 365.631658 275.867282 
L 369.566592 275.873396 
L 373.501527 275.741328 
L 377.436462 275.197792 
L 381.371397 274.546162 
L 385.306332 274.249727 
L 389.241266 273.679423 
L 393.176201 273.174041 
L 397.111136 273.043863 
L 401.046071 273.032607 
L 404.981005 273.032257 
L 408.91594 273.032257 
L 412.850875 273.032257 
" clip-path="url(#p2591777d4d)" style="fill: none; stroke-dasharray: 3.7,1.6; stroke-dashoffset: 0; stroke: #d95f02"/>
   </g>
   <g id="line2d_36">
    <path d="M 50.836875 324.366312 
L 54.77181 327.272883 
L 58.706745 329.85528 
L 62.641679 332.020379 
L 66.576614 333.235505 
L 70.511549 331.089384 
L 74.446484 327.883148 
L 78.381418 326.976317 
L 82.316353 321.448235 
L 86.251288 314.294491 
L 90.186223 308.393699 
L 94.121158 306.741855 
L 98.056092 311.581381 
L 101.991027 316.202394 
L 105.925962 317.474741 
L 109.860897 313.115685 
L 113.795832 316.918809 
L 117.730766 323.068452 
L 121.665701 320.942224 
L 125.600636 314.558278 
L 129.535571 309.298685 
L 133.470505 306.885821 
L 137.40544 309.740418 
L 141.340375 316.098012 
L 145.27531 318.530507 
L 149.210245 318.490426 
L 153.145179 318.820776 
L 157.080114 317.094234 
L 161.015049 312.456938 
L 164.949984 310.997496 
L 168.884918 313.872319 
L 172.819853 315.680575 
L 176.754788 315.765753 
L 180.689723 316.320576 
L 184.624658 317.24875 
L 188.559592 316.832797 
L 192.494527 317.44169 
L 196.429462 318.64846 
L 200.364397 317.926818 
L 204.299332 316.831289 
L 208.234266 317.561366 
L 212.169201 319.880324 
L 216.104136 321.659182 
L 220.039071 322.633974 
L 223.974005 322.606271 
L 227.90894 323.452181 
L 231.843875 324.721483 
L 235.77881 324.589861 
L 239.713745 322.764002 
L 243.648679 321.511574 
L 247.583614 321.563435 
L 251.518549 322.555805 
L 255.453484 324.197754 
L 259.388418 325.334611 
L 263.323353 324.936438 
L 267.258288 324.542349 
L 271.193223 324.254112 
L 275.128158 324.167261 
L 279.063092 323.823093 
L 282.998027 323.51935 
L 286.932962 325.210023 
L 290.867897 325.923137 
L 294.802832 323.716405 
L 298.737766 323.424313 
L 302.672701 325.517769 
L 306.607636 326.789342 
L 310.542571 327.741533 
L 314.477505 328.73232 
L 318.41244 328.451345 
L 322.347375 327.671988 
L 326.28231 327.414622 
L 330.217245 327.955293 
L 334.152179 328.503892 
L 338.087114 328.431581 
L 342.022049 327.820609 
L 345.956984 326.526107 
L 349.891918 325.312085 
L 353.826853 325.88458 
L 357.761788 328.229672 
L 361.696723 331.225384 
L 365.631658 332.766777 
L 369.566592 332.212109 
L 373.501527 330.722037 
L 377.436462 329.872544 
L 381.371397 330.534405 
L 385.306332 331.456426 
L 389.241266 331.556721 
L 393.176201 331.518868 
L 397.111136 329.696782 
L 401.046071 325.874128 
L 404.981005 323.459958 
L 408.91594 322.917137 
L 412.850875 322.872495 
" clip-path="url(#p2591777d4d)" style="fill: none; stroke: #1b9e77; stroke-width: 2; stroke-linecap: square"/>
   </g>
   <g id="line2d_37">
    <path d="M 50.836875 324.366312 
L 54.77181 323.261221 
L 58.706745 319.854408 
L 62.641679 316.694269 
L 66.576614 318.180352 
L 70.511549 316.20717 
L 74.446484 311.365738 
L 78.381418 312.190874 
L 82.316353 309.598715 
L 86.251288 302.92687 
L 90.186223 296.906798 
L 94.121158 295.813088 
L 98.056092 300.516477 
L 101.991027 305.281388 
L 105.925962 307.198325 
L 109.860897 303.059525 
L 113.795832 306.996049 
L 117.730766 312.844408 
L 121.665701 309.899057 
L 125.600636 303.205638 
L 129.535571 298.247121 
L 133.470505 296.828815 
L 137.40544 299.984723 
L 141.340375 305.984202 
L 145.27531 308.960212 
L 149.210245 309.623441 
L 153.145179 309.993421 
L 157.080114 307.879903 
L 161.015049 302.571496 
L 164.949984 300.896594 
L 168.884918 304.156637 
L 172.819853 306.320739 
L 176.754788 306.577515 
L 180.689723 307.184424 
L 184.624658 308.192242 
L 188.559592 307.94508 
L 192.494527 308.818226 
L 196.429462 310.409907 
L 200.364397 310.189279 
L 204.299332 309.154663 
L 208.234266 309.280382 
L 212.169201 311.097678 
L 216.104136 313.023201 
L 220.039071 314.681845 
L 223.974005 315.392917 
L 227.90894 316.798887 
L 231.843875 318.18714 
L 235.77881 317.874131 
L 239.713745 315.757738 
L 243.648679 314.269086 
L 247.583614 314.290332 
L 251.518549 315.412581 
L 255.453484 317.383031 
L 259.388418 318.829246 
L 263.323353 318.571748 
L 267.258288 318.35168 
L 271.193223 318.150747 
L 275.128158 317.997304 
L 279.063092 317.388659 
L 282.998027 316.876113 
L 286.932962 318.667244 
L 290.867897 319.556747 
L 294.802832 317.613584 
L 298.737766 317.574147 
L 302.672701 319.761902 
L 306.607636 321.144407 
L 310.542571 322.420055 
L 314.477505 323.75909 
L 318.41244 323.588865 
L 322.347375 322.587295 
L 326.28231 322.021583 
L 330.217245 322.585524 
L 334.152179 323.353499 
L 338.087114 323.440234 
L 342.022049 322.686221 
L 345.956984 321.133388 
L 349.891918 320.037049 
L 353.826853 320.897949 
L 357.761788 323.351296 
L 361.696723 326.407264 
L 365.631658 328.087769 
L 369.566592 327.563689 
L 373.501527 325.977822 
L 377.436462 325.145785 
L 381.371397 326.03515 
L 385.306332 327.161333 
L 389.241266 327.384517 
L 393.176201 327.745632 
L 397.111136 327.045852 
L 401.046071 324.775976 
L 404.981005 323.249575 
L 408.91594 322.900845 
L 412.850875 322.872019 
" clip-path="url(#p2591777d4d)" style="fill: none; stroke-dasharray: 3.7,1.6; stroke-dashoffset: 0; stroke: #1b9e77"/>
   </g>
   <g id="line2d_38">
    <path d="M 50.836875 324.366312 
L 54.77181 335.296206 
L 58.706745 349.857024 
L 62.641679 362.672599 
L 66.576614 363.345811 
L 70.511549 360.853811 
L 74.446484 360.917968 
L 78.381418 356.547203 
L 82.316353 345.147275 
L 86.251288 337.029733 
L 90.186223 331.3675 
L 94.121158 328.599389 
L 98.056092 333.71119 
L 101.991027 338.044405 
L 105.925962 338.027575 
L 109.860897 333.228005 
L 113.795832 336.764327 
L 117.730766 343.51654 
L 121.665701 343.028557 
L 125.600636 337.263559 
L 129.535571 331.401815 
L 133.470505 326.999834 
L 137.40544 329.251809 
L 141.340375 336.325631 
L 145.27531 337.671097 
L 149.210245 336.224396 
L 153.145179 336.475487 
L 157.080114 335.522896 
L 161.015049 332.227824 
L 164.949984 331.199301 
L 168.884918 333.303682 
L 172.819853 334.400247 
L 176.754788 334.142228 
L 180.689723 334.59288 
L 184.624658 335.361766 
L 188.559592 334.608229 
L 192.494527 334.688617 
L 196.429462 335.125565 
L 200.364397 333.401894 
L 204.299332 332.184541 
L 208.234266 334.123334 
L 212.169201 337.445616 
L 216.104136 338.931145 
L 220.039071 338.538233 
L 223.974005 337.03298 
L 227.90894 336.758768 
L 231.843875 337.790168 
L 235.77881 338.021322 
L 239.713745 336.77653 
L 243.648679 335.996549 
L 247.583614 336.10964 
L 251.518549 336.842254 
L 255.453484 337.827199 
L 259.388418 338.345342 
L 263.323353 337.665818 
L 267.258288 336.923686 
L 271.193223 336.460843 
L 275.128158 336.507176 
L 279.063092 336.691961 
L 282.998027 336.805823 
L 286.932962 338.295581 
L 290.867897 338.655917 
L 294.802832 335.922045 
L 298.737766 335.124643 
L 302.672701 337.029502 
L 306.607636 338.07921 
L 310.542571 338.384489 
L 314.477505 338.678778 
L 318.41244 338.176303 
L 322.347375 337.841375 
L 326.28231 338.200699 
L 330.217245 338.69483 
L 334.152179 338.80468 
L 338.087114 338.414276 
L 342.022049 338.089386 
L 345.956984 337.311543 
L 349.891918 335.862157 
L 353.826853 335.85784 
L 357.761788 337.986423 
L 361.696723 340.861624 
L 365.631658 342.124792 
L 369.566592 341.508948 
L 373.501527 340.210465 
L 377.436462 339.326063 
L 381.371397 339.532915 
L 385.306332 340.046611 
L 389.241266 339.901127 
L 393.176201 339.06534 
L 397.111136 334.998642 
L 401.046071 328.070434 
L 404.981005 323.880725 
L 408.91594 322.94972 
L 412.850875 322.873446 
" clip-path="url(#p2591777d4d)" style="fill: none; stroke-dasharray: 3.7,1.6; stroke-dashoffset: 0; stroke: #1b9e77"/>
   </g>
   <g id="patch_3">
    <path d="M 50.836875 382.677812 
L 50.836875 23.837812 
" style="fill: none; stroke: #000000; stroke-width: 0.8; stroke-linejoin: miter; stroke-linecap: square"/>
   </g>
   <g id="patch_4">
    <path d="M 412.850875 382.677812 
L 412.850875 23.837812 
" style="fill: none; stroke: #000000; stroke-width: 0.8; stroke-linejoin: miter; stroke-linecap: square"/>
   </g>
   <g id="patch_5">
    <path d="M 50.836875 382.677812 
L 412.850875 382.677812 
" style="fill: none; stroke: #000000; stroke-width: 0.8; stroke-linejoin: miter; stroke-linecap: square"/>
   </g>
   <g id="patch_6">
    <path d="M 50.836875 23.837812 
L 412.850875 23.837812 
" style="fill: none; stroke: #000000; stroke-width: 0.8; stroke-linejoin: miter; stroke-linecap: square"/>
   </g>
   <g id="text_17">
    <!-- Most Frequent -->
    <g transform="translate(181.991844 17.837812) scale(0.14 -0.14)">
     <defs>
      <path id="DejaVuSans-4d" d="M 628 4666 
L 1569 4666 
L 2759 1491 
L 3956 4666 
L 4897 4666 
L 4897 0 
L 4281 0 
L 4281 4097 
L 3078 897 
L 2444 897 
L 1241 4097 
L 1241 0 
L 628 0 
L 628 4666 
z
" transform="scale(0.015625)"/>
      <path id="DejaVuSans-46" d="M 628 4666 
L 3309 4666 
L 3309 4134 
L 1259 4134 
L 1259 2759 
L 3109 2759 
L 3109 2228 
L 1259 2228 
L 1259 0 
L 628 0 
L 628 4666 
z
" transform="scale(0.015625)"/>
      <path id="DejaVuSans-71" d="M 947 1747 
Q 947 1113 1208 752 
Q 1469 391 1925 391 
Q 2381 391 2643 752 
Q 2906 1113 2906 1747 
Q 2906 2381 2643 2742 
Q 2381 3103 1925 3103 
Q 1469 3103 1208 2742 
Q 947 2381 947 1747 
z
M 2906 525 
Q 2725 213 2448 61 
Q 2172 -91 1784 -91 
Q 1150 -91 751 415 
Q 353 922 353 1747 
Q 353 2572 751 3078 
Q 1150 3584 1784 3584 
Q 2172 3584 2448 3432 
Q 2725 3281 2906 2969 
L 2906 3500 
L 3481 3500 
L 3481 -1331 
L 2906 -1331 
L 2906 525 
z
" transform="scale(0.015625)"/>
     </defs>
     <use xlink:href="#DejaVuSans-4d"/>
     <use xlink:href="#DejaVuSans-6f" x="86.279297"/>
     <use xlink:href="#DejaVuSans-73" x="147.460938"/>
     <use xlink:href="#DejaVuSans-74" x="199.560547"/>
     <use xlink:href="#DejaVuSans-20" x="238.769531"/>
     <use xlink:href="#DejaVuSans-46" x="270.556641"/>
     <use xlink:href="#DejaVuSans-72" x="320.826172"/>
     <use xlink:href="#DejaVuSans-65" x="359.689453"/>
     <use xlink:href="#DejaVuSans-71" x="421.212891"/>
     <use xlink:href="#DejaVuSans-75" x="484.689453"/>
     <use xlink:href="#DejaVuSans-65" x="548.068359"/>
     <use xlink:href="#DejaVuSans-6e" x="609.591797"/>
     <use xlink:href="#DejaVuSans-74" x="672.970703"/>
    </g>
   </g>
   <g id="legend_1">
    <g id="patch_7">
     <path d="M 313.486955 131.489812 
L 407.786955 131.489812 
Q 409.786955 131.489812 409.786955 129.489812 
L 409.786955 57.099187 
Q 409.786955 55.099187 407.786955 55.099187 
L 313.486955 55.099187 
Q 311.486955 55.099187 311.486955 57.099187 
L 311.486955 129.489812 
Q 311.486955 131.489812 313.486955 131.489812 
z
" style="fill: #ffffff; opacity: 0.8; stroke: #cccccc; stroke-linejoin: miter"/>
    </g>
    <g id="line2d_39">
     <path d="M 315.486955 63.197625 
L 325.486955 63.197625 
L 335.486955 63.197625 
" style="fill: none; stroke: #66a61e; stroke-width: 2; stroke-linecap: square"/>
    </g>
    <g id="text_18">
     <!-- LogP -->
     <g transform="translate(343.486955 66.697625) scale(0.1 -0.1)">
      <defs>
       <path id="DejaVuSans-4c" d="M 628 4666 
L 1259 4666 
L 1259 531 
L 3531 531 
L 3531 0 
L 628 0 
L 628 4666 
z
" transform="scale(0.015625)"/>
       <path id="DejaVuSans-67" d="M 2906 1791 
Q 2906 2416 2648 2759 
Q 2391 3103 1925 3103 
Q 1463 3103 1205 2759 
Q 947 2416 947 1791 
Q 947 1169 1205 825 
Q 1463 481 1925 481 
Q 2391 481 2648 825 
Q 2906 1169 2906 1791 
z
M 3481 434 
Q 3481 -459 3084 -895 
Q 2688 -1331 1869 -1331 
Q 1566 -1331 1297 -1286 
Q 1028 -1241 775 -1147 
L 775 -588 
Q 1028 -725 1275 -790 
Q 1522 -856 1778 -856 
Q 2344 -856 2625 -561 
Q 2906 -266 2906 331 
L 2906 616 
Q 2728 306 2450 153 
Q 2172 0 1784 0 
Q 1141 0 747 490 
Q 353 981 353 1791 
Q 353 2603 747 3093 
Q 1141 3584 1784 3584 
Q 2172 3584 2450 3431 
Q 2728 3278 2906 2969 
L 2906 3500 
L 3481 3500 
L 3481 434 
z
" transform="scale(0.015625)"/>
       <path id="DejaVuSans-50" d="M 1259 4147 
L 1259 2394 
L 2053 2394 
Q 2494 2394 2734 2622 
Q 2975 2850 2975 3272 
Q 2975 3691 2734 3919 
Q 2494 4147 2053 4147 
L 1259 4147 
z
M 628 4666 
L 2053 4666 
Q 2838 4666 3239 4311 
Q 3641 3956 3641 3272 
Q 3641 2581 3239 2228 
Q 2838 1875 2053 1875 
L 1259 1875 
L 1259 0 
L 628 0 
L 628 4666 
z
" transform="scale(0.015625)"/>
      </defs>
      <use xlink:href="#DejaVuSans-4c"/>
      <use xlink:href="#DejaVuSans-6f" x="53.962891"/>
      <use xlink:href="#DejaVuSans-67" x="115.144531"/>
      <use xlink:href="#DejaVuSans-50" x="178.621094"/>
     </g>
    </g>
    <g id="line2d_40">
     <path d="M 315.486955 77.87575 
L 325.486955 77.87575 
L 335.486955 77.87575 
" style="fill: none; stroke: #e7298a; stroke-width: 2; stroke-linecap: square"/>
    </g>
    <g id="text_19">
     <!-- Permeability -->
     <g transform="translate(343.486955 81.37575) scale(0.1 -0.1)">
      <defs>
       <path id="DejaVuSans-6c" d="M 603 4863 
L 1178 4863 
L 1178 0 
L 603 0 
L 603 4863 
z
" transform="scale(0.015625)"/>
       <path id="DejaVuSans-79" d="M 2059 -325 
Q 1816 -950 1584 -1140 
Q 1353 -1331 966 -1331 
L 506 -1331 
L 506 -850 
L 844 -850 
Q 1081 -850 1212 -737 
Q 1344 -625 1503 -206 
L 1606 56 
L 191 3500 
L 800 3500 
L 1894 763 
L 2988 3500 
L 3597 3500 
L 2059 -325 
z
" transform="scale(0.015625)"/>
      </defs>
      <use xlink:href="#DejaVuSans-50"/>
      <use xlink:href="#DejaVuSans-65" x="56.677734"/>
      <use xlink:href="#DejaVuSans-72" x="118.201172"/>
      <use xlink:href="#DejaVuSans-6d" x="157.564453"/>
      <use xlink:href="#DejaVuSans-65" x="254.976562"/>
      <use xlink:href="#DejaVuSans-61" x="316.5"/>
      <use xlink:href="#DejaVuSans-62" x="377.779297"/>
      <use xlink:href="#DejaVuSans-69" x="441.255859"/>
      <use xlink:href="#DejaVuSans-6c" x="469.039062"/>
      <use xlink:href="#DejaVuSans-69" x="496.822266"/>
      <use xlink:href="#DejaVuSans-74" x="524.605469"/>
      <use xlink:href="#DejaVuSans-79" x="563.814453"/>
     </g>
    </g>
    <g id="line2d_41">
     <path d="M 315.486955 92.553875 
L 325.486955 92.553875 
L 335.486955 92.553875 
" style="fill: none; stroke: #7570b3; stroke-width: 2; stroke-linecap: square"/>
    </g>
    <g id="text_20">
     <!-- Solubility -->
     <g transform="translate(343.486955 96.053875) scale(0.1 -0.1)">
      <use xlink:href="#DejaVuSans-53"/>
      <use xlink:href="#DejaVuSans-6f" x="63.476562"/>
      <use xlink:href="#DejaVuSans-6c" x="124.658203"/>
      <use xlink:href="#DejaVuSans-75" x="152.441406"/>
      <use xlink:href="#DejaVuSans-62" x="215.820312"/>
      <use xlink:href="#DejaVuSans-69" x="279.296875"/>
      <use xlink:href="#DejaVuSans-6c" x="307.080078"/>
      <use xlink:href="#DejaVuSans-69" x="334.863281"/>
      <use xlink:href="#DejaVuSans-74" x="362.646484"/>
      <use xlink:href="#DejaVuSans-79" x="401.855469"/>
     </g>
    </g>
    <g id="line2d_42">
     <path d="M 315.486955 107.232 
L 325.486955 107.232 
L 335.486955 107.232 
" style="fill: none; stroke: #d95f02; stroke-width: 2; stroke-linecap: square"/>
    </g>
    <g id="text_21">
     <!-- LogD -->
     <g transform="translate(343.486955 110.732) scale(0.1 -0.1)">
      <defs>
       <path id="DejaVuSans-44" d="M 1259 4147 
L 1259 519 
L 2022 519 
Q 2988 519 3436 956 
Q 3884 1394 3884 2338 
Q 3884 3275 3436 3711 
Q 2988 4147 2022 4147 
L 1259 4147 
z
M 628 4666 
L 1925 4666 
Q 3281 4666 3915 4102 
Q 4550 3538 4550 2338 
Q 4550 1131 3912 565 
Q 3275 0 1925 0 
L 628 0 
L 628 4666 
z
" transform="scale(0.015625)"/>
      </defs>
      <use xlink:href="#DejaVuSans-4c"/>
      <use xlink:href="#DejaVuSans-6f" x="53.962891"/>
      <use xlink:href="#DejaVuSans-67" x="115.144531"/>
      <use xlink:href="#DejaVuSans-44" x="178.621094"/>
     </g>
    </g>
    <g id="line2d_43">
     <path d="M 315.486955 121.910125 
L 325.486955 121.910125 
L 335.486955 121.910125 
" style="fill: none; stroke: #1b9e77; stroke-width: 2; stroke-linecap: square"/>
    </g>
    <g id="text_22">
     <!-- hERG -->
     <g transform="translate(343.486955 125.410125) scale(0.1 -0.1)">
      <defs>
       <path id="DejaVuSans-68" d="M 3513 2113 
L 3513 0 
L 2938 0 
L 2938 2094 
Q 2938 2591 2744 2837 
Q 2550 3084 2163 3084 
Q 1697 3084 1428 2787 
Q 1159 2491 1159 1978 
L 1159 0 
L 581 0 
L 581 4863 
L 1159 4863 
L 1159 2956 
Q 1366 3272 1645 3428 
Q 1925 3584 2291 3584 
Q 2894 3584 3203 3211 
Q 3513 2838 3513 2113 
z
" transform="scale(0.015625)"/>
       <path id="DejaVuSans-45" d="M 628 4666 
L 3578 4666 
L 3578 4134 
L 1259 4134 
L 1259 2753 
L 3481 2753 
L 3481 2222 
L 1259 2222 
L 1259 531 
L 3634 531 
L 3634 0 
L 628 0 
L 628 4666 
z
" transform="scale(0.015625)"/>
       <path id="DejaVuSans-47" d="M 3809 666 
L 3809 1919 
L 2778 1919 
L 2778 2438 
L 4434 2438 
L 4434 434 
Q 4069 175 3628 42 
Q 3188 -91 2688 -91 
Q 1594 -91 976 548 
Q 359 1188 359 2328 
Q 359 3472 976 4111 
Q 1594 4750 2688 4750 
Q 3144 4750 3555 4637 
Q 3966 4525 4313 4306 
L 4313 3634 
Q 3963 3931 3569 4081 
Q 3175 4231 2741 4231 
Q 1884 4231 1454 3753 
Q 1025 3275 1025 2328 
Q 1025 1384 1454 906 
Q 1884 428 2741 428 
Q 3075 428 3337 486 
Q 3600 544 3809 666 
z
" transform="scale(0.015625)"/>
      </defs>
      <use xlink:href="#DejaVuSans-68"/>
      <use xlink:href="#DejaVuSans-45" x="63.378906"/>
      <use xlink:href="#DejaVuSans-52" x="126.5625"/>
      <use xlink:href="#DejaVuSans-47" x="196.044922"/>
     </g>
    </g>
   </g>
  </g>
 </g>
 <defs>
  <clipPath id="p2591777d4d">
   <rect x="50.836875" y="23.837812" width="362.014" height="358.84"/>
  </clipPath>
 </defs>
</svg>
