<?xml version="1.0" encoding="utf-8" standalone="no"?>
<!DOCTYPE svg PUBLIC "-//W3C//DTD SVG 1.1//EN"
  "http://www.w3.org/Graphics/SVG/1.1/DTD/svg11.dtd">
<svg xmlns:xlink="http://www.w3.org/1999/xlink" width="648pt" height="648pt" viewBox="0 0 648 648" xmlns="http://www.w3.org/2000/svg" version="1.1">
 <metadata>
  <rdf:RDF xmlns:dc="http://purl.org/dc/elements/1.1/" xmlns:cc="http://creativecommons.org/ns#" xmlns:rdf="http://www.w3.org/1999/02/22-rdf-syntax-ns#">
   <cc:Work>
    <dc:type rdf:resource="http://purl.org/dc/dcmitype/StillImage"/>
    <dc:date>2024-04-17T11:50:08.772040</dc:date>
    <dc:format>image/svg+xml</dc:format>
    <dc:creator>
     <cc:Agent>
      <dc:title>Matplotlib v3.6.2, https://matplotlib.org/</dc:title>
     </cc:Agent>
    </dc:creator>
   </cc:Work>
  </rdf:RDF>
 </metadata>
 <defs>
  <style type="text/css">*{stroke-linejoin: round; stroke-linecap: butt}</style>
 </defs>
 <g id="figure_1">
  <g id="patch_1">
   <path d="M 0 648 
L 648 648 
L 648 0 
L 0 0 
z
" style="fill: #ffffff"/>
  </g>
  <g id="axes_1">
   <g id="patch_2">
    <path d="M 10.8 637.2 
L 38.516814 637.2 
L 38.516814 609.483186 
L 10.8 609.483186 
z
" clip-path="url(#p5059d03c7c)" style="fill: #66a61e; stroke: #66a61e; stroke-linejoin: miter"/>
   </g>
   <g id="patch_3">
    <path d="M 10.8 603.939823 
L 38.516814 603.939823 
L 38.516814 576.223009 
L 10.8 576.223009 
z
" clip-path="url(#p5059d03c7c)" style="fill: #66a61e; stroke: #66a61e; stroke-linejoin: miter"/>
   </g>
   <g id="patch_4">
    <path d="M 10.8 570.679646 
L 38.516814 570.679646 
L 38.516814 542.962832 
L 10.8 542.962832 
z
" clip-path="url(#p5059d03c7c)" style="fill: #66a61e; stroke: #66a61e; stroke-linejoin: miter"/>
   </g>
   <g id="patch_5">
    <path d="M 10.8 537.419469 
L 38.516814 537.419469 
L 38.516814 509.702655 
L 10.8 509.702655 
z
" clip-path="url(#p5059d03c7c)" style="fill: #d95f02; stroke: #d95f02; stroke-linejoin: miter"/>
   </g>
   <g id="patch_6">
    <path d="M 10.8 504.159292 
L 38.516814 504.159292 
L 38.516814 476.442478 
L 10.8 476.442478 
z
" clip-path="url(#p5059d03c7c)" style="fill: #d95f02; stroke: #d95f02; stroke-linejoin: miter"/>
   </g>
   <g id="patch_7">
    <path d="M 10.8 470.899115 
L 38.516814 470.899115 
L 38.516814 443.182301 
L 10.8 443.182301 
z
" clip-path="url(#p5059d03c7c)" style="fill: #7570b3; stroke: #7570b3; stroke-linejoin: miter"/>
   </g>
   <g id="patch_8">
    <path d="M 10.8 437.638938 
L 38.516814 437.638938 
L 38.516814 409.922124 
L 10.8 409.922124 
z
" clip-path="url(#p5059d03c7c)" style="fill: #7570b3; stroke: #7570b3; stroke-linejoin: miter"/>
   </g>
   <g id="patch_9">
    <path d="M 10.8 404.378761 
L 38.516814 404.378761 
L 38.516814 376.661947 
L 10.8 376.661947 
z
" clip-path="url(#p5059d03c7c)" style="fill: #7570b3; stroke: #7570b3; stroke-linejoin: miter"/>
   </g>
   <g id="patch_10">
    <path d="M 10.8 371.118584 
L 38.516814 371.118584 
L 38.516814 343.40177 
L 10.8 343.40177 
z
" clip-path="url(#p5059d03c7c)" style="fill: #7570b3; stroke: #7570b3; stroke-linejoin: miter"/>
   </g>
   <g id="patch_11">
    <path d="M 10.8 337.858407 
L 38.516814 337.858407 
L 38.516814 310.141593 
L 10.8 310.141593 
z
" clip-path="url(#p5059d03c7c)" style="fill: #7570b3; stroke: #7570b3; stroke-linejoin: miter"/>
   </g>
   <g id="patch_12">
    <path d="M 10.8 304.59823 
L 38.516814 304.59823 
L 38.516814 276.881416 
L 10.8 276.881416 
z
" clip-path="url(#p5059d03c7c)" style="fill: #7570b3; stroke: #7570b3; stroke-linejoin: miter"/>
   </g>
   <g id="patch_13">
    <path d="M 10.8 271.338053 
L 38.516814 271.338053 
L 38.516814 243.621239 
L 10.8 243.621239 
z
" clip-path="url(#p5059d03c7c)" style="fill: #7570b3; stroke: #7570b3; stroke-linejoin: miter"/>
   </g>
   <g id="patch_14">
    <path d="M 10.8 238.077876 
L 38.516814 238.077876 
L 38.516814 210.361062 
L 10.8 210.361062 
z
" clip-path="url(#p5059d03c7c)" style="fill: #e7298a; stroke: #e7298a; stroke-linejoin: miter"/>
   </g>
   <g id="patch_15">
    <path d="M 10.8 204.817699 
L 38.516814 204.817699 
L 38.516814 177.100885 
L 10.8 177.100885 
z
" clip-path="url(#p5059d03c7c)" style="fill: #e7298a; stroke: #e7298a; stroke-linejoin: miter"/>
   </g>
   <g id="patch_16">
    <path d="M 10.8 171.557522 
L 38.516814 171.557522 
L 38.516814 143.840708 
L 10.8 143.840708 
z
" clip-path="url(#p5059d03c7c)" style="fill: #e7298a; stroke: #e7298a; stroke-linejoin: miter"/>
   </g>
   <g id="patch_17">
    <path d="M 10.8 138.297345 
L 38.516814 138.297345 
L 38.516814 110.580531 
L 10.8 110.580531 
z
" clip-path="url(#p5059d03c7c)" style="fill: #1b9e77; stroke: #1b9e77; stroke-linejoin: miter"/>
   </g>
   <g id="patch_18">
    <path d="M 10.8 105.037168 
L 38.516814 105.037168 
L 38.516814 77.320354 
L 10.8 77.320354 
z
" clip-path="url(#p5059d03c7c)" style="fill: #1b9e77; stroke: #1b9e77; stroke-linejoin: miter"/>
   </g>
   <g id="patch_19">
    <path d="M 10.8 71.776991 
L 38.516814 71.776991 
L 38.516814 44.060177 
L 10.8 44.060177 
z
" clip-path="url(#p5059d03c7c)" style="fill: #1b9e77; stroke: #1b9e77; stroke-linejoin: miter"/>
   </g>
   <g id="patch_20">
    <path d="M 10.8 38.516814 
L 38.516814 38.516814 
L 38.516814 10.8 
L 10.8 10.8 
z
" clip-path="url(#p5059d03c7c)" style="fill: #1b9e77; stroke: #1b9e77; stroke-linejoin: miter"/>
   </g>
   <g id="patch_21">
    <path d="M 44.060177 637.2 
L 71.776991 637.2 
L 71.776991 609.483186 
L 44.060177 609.483186 
z
" clip-path="url(#p5059d03c7c)" style="fill: #66a61e; stroke: #66a61e; stroke-linejoin: miter"/>
   </g>
   <g id="patch_22">
    <path d="M 44.060177 603.939823 
L 71.776991 603.939823 
L 71.776991 576.223009 
L 44.060177 576.223009 
z
" clip-path="url(#p5059d03c7c)" style="fill: #66a61e; stroke: #66a61e; stroke-linejoin: miter"/>
   </g>
   <g id="patch_23">
    <path d="M 44.060177 570.679646 
L 71.776991 570.679646 
L 71.776991 542.962832 
L 44.060177 542.962832 
z
" clip-path="url(#p5059d03c7c)" style="fill: #66a61e; stroke: #66a61e; stroke-linejoin: miter"/>
   </g>
   <g id="patch_24">
    <path d="M 44.060177 537.419469 
L 71.776991 537.419469 
L 71.776991 509.702655 
L 44.060177 509.702655 
z
" clip-path="url(#p5059d03c7c)" style="fill: #d95f02; stroke: #d95f02; stroke-linejoin: miter"/>
   </g>
   <g id="patch_25">
    <path d="M 44.060177 504.159292 
L 71.776991 504.159292 
L 71.776991 476.442478 
L 44.060177 476.442478 
z
" clip-path="url(#p5059d03c7c)" style="fill: #d95f02; stroke: #d95f02; stroke-linejoin: miter"/>
   </g>
   <g id="patch_26">
    <path d="M 44.060177 470.899115 
L 71.776991 470.899115 
L 71.776991 443.182301 
L 44.060177 443.182301 
z
" clip-path="url(#p5059d03c7c)" style="fill: #7570b3; stroke: #7570b3; stroke-linejoin: miter"/>
   </g>
   <g id="patch_27">
    <path d="M 44.060177 437.638938 
L 71.776991 437.638938 
L 71.776991 409.922124 
L 44.060177 409.922124 
z
" clip-path="url(#p5059d03c7c)" style="fill: #7570b3; stroke: #7570b3; stroke-linejoin: miter"/>
   </g>
   <g id="patch_28">
    <path d="M 44.060177 404.378761 
L 71.776991 404.378761 
L 71.776991 376.661947 
L 44.060177 376.661947 
z
" clip-path="url(#p5059d03c7c)" style="fill: #7570b3; stroke: #7570b3; stroke-linejoin: miter"/>
   </g>
   <g id="patch_29">
    <path d="M 44.060177 371.118584 
L 71.776991 371.118584 
L 71.776991 343.40177 
L 44.060177 343.40177 
z
" clip-path="url(#p5059d03c7c)" style="fill: #7570b3; stroke: #7570b3; stroke-linejoin: miter"/>
   </g>
   <g id="patch_30">
    <path d="M 44.060177 337.858407 
L 71.776991 337.858407 
L 71.776991 310.141593 
L 44.060177 310.141593 
z
" clip-path="url(#p5059d03c7c)" style="fill: #7570b3; stroke: #7570b3; stroke-linejoin: miter"/>
   </g>
   <g id="patch_31">
    <path d="M 44.060177 304.59823 
L 71.776991 304.59823 
L 71.776991 276.881416 
L 44.060177 276.881416 
z
" clip-path="url(#p5059d03c7c)" style="fill: #7570b3; stroke: #7570b3; stroke-linejoin: miter"/>
   </g>
   <g id="patch_32">
    <path d="M 44.060177 271.338053 
L 71.776991 271.338053 
L 71.776991 243.621239 
L 44.060177 243.621239 
z
" clip-path="url(#p5059d03c7c)" style="fill: #e7298a; stroke: #e7298a; stroke-linejoin: miter"/>
   </g>
   <g id="patch_33">
    <path d="M 44.060177 238.077876 
L 71.776991 238.077876 
L 71.776991 210.361062 
L 44.060177 210.361062 
z
" clip-path="url(#p5059d03c7c)" style="fill: #e7298a; stroke: #e7298a; stroke-linejoin: miter"/>
   </g>
   <g id="patch_34">
    <path d="M 44.060177 204.817699 
L 71.776991 204.817699 
L 71.776991 177.100885 
L 44.060177 177.100885 
z
" clip-path="url(#p5059d03c7c)" style="fill: #e7298a; stroke: #e7298a; stroke-linejoin: miter"/>
   </g>
   <g id="patch_35">
    <path d="M 44.060177 171.557522 
L 71.776991 171.557522 
L 71.776991 143.840708 
L 44.060177 143.840708 
z
" clip-path="url(#p5059d03c7c)" style="fill: #1b9e77; stroke: #1b9e77; stroke-linejoin: miter"/>
   </g>
   <g id="patch_36">
    <path d="M 44.060177 138.297345 
L 71.776991 138.297345 
L 71.776991 110.580531 
L 44.060177 110.580531 
z
" clip-path="url(#p5059d03c7c)" style="fill: #1b9e77; stroke: #1b9e77; stroke-linejoin: miter"/>
   </g>
   <g id="patch_37">
    <path d="M 44.060177 105.037168 
L 71.776991 105.037168 
L 71.776991 77.320354 
L 44.060177 77.320354 
z
" clip-path="url(#p5059d03c7c)" style="fill: #1b9e77; stroke: #1b9e77; stroke-linejoin: miter"/>
   </g>
   <g id="patch_38">
    <path d="M 44.060177 71.776991 
L 71.776991 71.776991 
L 71.776991 44.060177 
L 44.060177 44.060177 
z
" clip-path="url(#p5059d03c7c)" style="fill: #1b9e77; stroke: #1b9e77; stroke-linejoin: miter"/>
   </g>
   <g id="patch_39">
    <path d="M 44.060177 38.516814 
L 71.776991 38.516814 
L 71.776991 10.8 
L 44.060177 10.8 
z
" clip-path="url(#p5059d03c7c)" style="fill: #66a61e; stroke: #66a61e; stroke-linejoin: miter"/>
   </g>
   <g id="patch_40">
    <path d="M 77.320354 637.2 
L 105.037168 637.2 
L 105.037168 609.483186 
L 77.320354 609.483186 
z
" clip-path="url(#p5059d03c7c)" style="fill: #66a61e; stroke: #66a61e; stroke-linejoin: miter"/>
   </g>
   <g id="patch_41">
    <path d="M 77.320354 603.939823 
L 105.037168 603.939823 
L 105.037168 576.223009 
L 77.320354 576.223009 
z
" clip-path="url(#p5059d03c7c)" style="fill: #66a61e; stroke: #66a61e; stroke-linejoin: miter"/>
   </g>
   <g id="patch_42">
    <path d="M 77.320354 570.679646 
L 105.037168 570.679646 
L 105.037168 542.962832 
L 77.320354 542.962832 
z
" clip-path="url(#p5059d03c7c)" style="fill: #d95f02; stroke: #d95f02; stroke-linejoin: miter"/>
   </g>
   <g id="patch_43">
    <path d="M 77.320354 537.419469 
L 105.037168 537.419469 
L 105.037168 509.702655 
L 77.320354 509.702655 
z
" clip-path="url(#p5059d03c7c)" style="fill: #d95f02; stroke: #d95f02; stroke-linejoin: miter"/>
   </g>
   <g id="patch_44">
    <path d="M 77.320354 504.159292 
L 105.037168 504.159292 
L 105.037168 476.442478 
L 77.320354 476.442478 
z
" clip-path="url(#p5059d03c7c)" style="fill: #7570b3; stroke: #7570b3; stroke-linejoin: miter"/>
   </g>
   <g id="patch_45">
    <path d="M 77.320354 470.899115 
L 105.037168 470.899115 
L 105.037168 443.182301 
L 77.320354 443.182301 
z
" clip-path="url(#p5059d03c7c)" style="fill: #7570b3; stroke: #7570b3; stroke-linejoin: miter"/>
   </g>
   <g id="patch_46">
    <path d="M 77.320354 437.638938 
L 105.037168 437.638938 
L 105.037168 409.922124 
L 77.320354 409.922124 
z
" clip-path="url(#p5059d03c7c)" style="fill: #7570b3; stroke: #7570b3; stroke-linejoin: miter"/>
   </g>
   <g id="patch_47">
    <path d="M 77.320354 404.378761 
L 105.037168 404.378761 
L 105.037168 376.661947 
L 77.320354 376.661947 
z
" clip-path="url(#p5059d03c7c)" style="fill: #7570b3; stroke: #7570b3; stroke-linejoin: miter"/>
   </g>
   <g id="patch_48">
    <path d="M 77.320354 371.118584 
L 105.037168 371.118584 
L 105.037168 343.40177 
L 77.320354 343.40177 
z
" clip-path="url(#p5059d03c7c)" style="fill: #7570b3; stroke: #7570b3; stroke-linejoin: miter"/>
   </g>
   <g id="patch_49">
    <path d="M 77.320354 337.858407 
L 105.037168 337.858407 
L 105.037168 310.141593 
L 77.320354 310.141593 
z
" clip-path="url(#p5059d03c7c)" style="fill: #7570b3; stroke: #7570b3; stroke-linejoin: miter"/>
   </g>
   <g id="patch_50">
    <path d="M 77.320354 304.59823 
L 105.037168 304.59823 
L 105.037168 276.881416 
L 77.320354 276.881416 
z
" clip-path="url(#p5059d03c7c)" style="fill: #e7298a; stroke: #e7298a; stroke-linejoin: miter"/>
   </g>
   <g id="patch_51">
    <path d="M 77.320354 271.338053 
L 105.037168 271.338053 
L 105.037168 243.621239 
L 77.320354 243.621239 
z
" clip-path="url(#p5059d03c7c)" style="fill: #e7298a; stroke: #e7298a; stroke-linejoin: miter"/>
   </g>
   <g id="patch_52">
    <path d="M 77.320354 238.077876 
L 105.037168 238.077876 
L 105.037168 210.361062 
L 77.320354 210.361062 
z
" clip-path="url(#p5059d03c7c)" style="fill: #e7298a; stroke: #e7298a; stroke-linejoin: miter"/>
   </g>
   <g id="patch_53">
    <path d="M 77.320354 204.817699 
L 105.037168 204.817699 
L 105.037168 177.100885 
L 77.320354 177.100885 
z
" clip-path="url(#p5059d03c7c)" style="fill: #1b9e77; stroke: #1b9e77; stroke-linejoin: miter"/>
   </g>
   <g id="patch_54">
    <path d="M 77.320354 171.557522 
L 105.037168 171.557522 
L 105.037168 143.840708 
L 77.320354 143.840708 
z
" clip-path="url(#p5059d03c7c)" style="fill: #1b9e77; stroke: #1b9e77; stroke-linejoin: miter"/>
   </g>
   <g id="patch_55">
    <path d="M 77.320354 138.297345 
L 105.037168 138.297345 
L 105.037168 110.580531 
L 77.320354 110.580531 
z
" clip-path="url(#p5059d03c7c)" style="fill: #1b9e77; stroke: #1b9e77; stroke-linejoin: miter"/>
   </g>
   <g id="patch_56">
    <path d="M 77.320354 105.037168 
L 105.037168 105.037168 
L 105.037168 77.320354 
L 77.320354 77.320354 
z
" clip-path="url(#p5059d03c7c)" style="fill: #1b9e77; stroke: #1b9e77; stroke-linejoin: miter"/>
   </g>
   <g id="patch_57">
    <path d="M 77.320354 71.776991 
L 105.037168 71.776991 
L 105.037168 44.060177 
L 77.320354 44.060177 
z
" clip-path="url(#p5059d03c7c)" style="fill: #66a61e; stroke: #66a61e; stroke-linejoin: miter"/>
   </g>
   <g id="patch_58">
    <path d="M 77.320354 38.516814 
L 105.037168 38.516814 
L 105.037168 10.8 
L 77.320354 10.8 
z
" clip-path="url(#p5059d03c7c)" style="fill: #66a61e; stroke: #66a61e; stroke-linejoin: miter"/>
   </g>
   <g id="patch_59">
    <path d="M 110.580531 637.2 
L 138.297345 637.2 
L 138.297345 609.483186 
L 110.580531 609.483186 
z
" clip-path="url(#p5059d03c7c)" style="fill: #66a61e; stroke: #66a61e; stroke-linejoin: miter"/>
   </g>
   <g id="patch_60">
    <path d="M 110.580531 603.939823 
L 138.297345 603.939823 
L 138.297345 576.223009 
L 110.580531 576.223009 
z
" clip-path="url(#p5059d03c7c)" style="fill: #d95f02; stroke: #d95f02; stroke-linejoin: miter"/>
   </g>
   <g id="patch_61">
    <path d="M 110.580531 570.679646 
L 138.297345 570.679646 
L 138.297345 542.962832 
L 110.580531 542.962832 
z
" clip-path="url(#p5059d03c7c)" style="fill: #d95f02; stroke: #d95f02; stroke-linejoin: miter"/>
   </g>
   <g id="patch_62">
    <path d="M 110.580531 537.419469 
L 138.297345 537.419469 
L 138.297345 509.702655 
L 110.580531 509.702655 
z
" clip-path="url(#p5059d03c7c)" style="fill: #d95f02; stroke: #d95f02; stroke-linejoin: miter"/>
   </g>
   <g id="patch_63">
    <path d="M 110.580531 504.159292 
L 138.297345 504.159292 
L 138.297345 476.442478 
L 110.580531 476.442478 
z
" clip-path="url(#p5059d03c7c)" style="fill: #7570b3; stroke: #7570b3; stroke-linejoin: miter"/>
   </g>
   <g id="patch_64">
    <path d="M 110.580531 470.899115 
L 138.297345 470.899115 
L 138.297345 443.182301 
L 110.580531 443.182301 
z
" clip-path="url(#p5059d03c7c)" style="fill: #7570b3; stroke: #7570b3; stroke-linejoin: miter"/>
   </g>
   <g id="patch_65">
    <path d="M 110.580531 437.638938 
L 138.297345 437.638938 
L 138.297345 409.922124 
L 110.580531 409.922124 
z
" clip-path="url(#p5059d03c7c)" style="fill: #7570b3; stroke: #7570b3; stroke-linejoin: miter"/>
   </g>
   <g id="patch_66">
    <path d="M 110.580531 404.378761 
L 138.297345 404.378761 
L 138.297345 376.661947 
L 110.580531 376.661947 
z
" clip-path="url(#p5059d03c7c)" style="fill: #7570b3; stroke: #7570b3; stroke-linejoin: miter"/>
   </g>
   <g id="patch_67">
    <path d="M 110.580531 371.118584 
L 138.297345 371.118584 
L 138.297345 343.40177 
L 110.580531 343.40177 
z
" clip-path="url(#p5059d03c7c)" style="fill: #7570b3; stroke: #7570b3; stroke-linejoin: miter"/>
   </g>
   <g id="patch_68">
    <path d="M 110.580531 337.858407 
L 138.297345 337.858407 
L 138.297345 310.141593 
L 110.580531 310.141593 
z
" clip-path="url(#p5059d03c7c)" style="fill: #7570b3; stroke: #7570b3; stroke-linejoin: miter"/>
   </g>
   <g id="patch_69">
    <path d="M 110.580531 304.59823 
L 138.297345 304.59823 
L 138.297345 276.881416 
L 110.580531 276.881416 
z
" clip-path="url(#p5059d03c7c)" style="fill: #7570b3; stroke: #7570b3; stroke-linejoin: miter"/>
   </g>
   <g id="patch_70">
    <path d="M 110.580531 271.338053 
L 138.297345 271.338053 
L 138.297345 243.621239 
L 110.580531 243.621239 
z
" clip-path="url(#p5059d03c7c)" style="fill: #e7298a; stroke: #e7298a; stroke-linejoin: miter"/>
   </g>
   <g id="patch_71">
    <path d="M 110.580531 238.077876 
L 138.297345 238.077876 
L 138.297345 210.361062 
L 110.580531 210.361062 
z
" clip-path="url(#p5059d03c7c)" style="fill: #e7298a; stroke: #e7298a; stroke-linejoin: miter"/>
   </g>
   <g id="patch_72">
    <path d="M 110.580531 204.817699 
L 138.297345 204.817699 
L 138.297345 177.100885 
L 110.580531 177.100885 
z
" clip-path="url(#p5059d03c7c)" style="fill: #e7298a; stroke: #e7298a; stroke-linejoin: miter"/>
   </g>
   <g id="patch_73">
    <path d="M 110.580531 171.557522 
L 138.297345 171.557522 
L 138.297345 143.840708 
L 110.580531 143.840708 
z
" clip-path="url(#p5059d03c7c)" style="fill: #1b9e77; stroke: #1b9e77; stroke-linejoin: miter"/>
   </g>
   <g id="patch_74">
    <path d="M 110.580531 138.297345 
L 138.297345 138.297345 
L 138.297345 110.580531 
L 110.580531 110.580531 
z
" clip-path="url(#p5059d03c7c)" style="fill: #1b9e77; stroke: #1b9e77; stroke-linejoin: miter"/>
   </g>
   <g id="patch_75">
    <path d="M 110.580531 105.037168 
L 138.297345 105.037168 
L 138.297345 77.320354 
L 110.580531 77.320354 
z
" clip-path="url(#p5059d03c7c)" style="fill: #1b9e77; stroke: #1b9e77; stroke-linejoin: miter"/>
   </g>
   <g id="legend_1">
    <g id="patch_76">
     <path d="M 146.697345 126.0825 
L 259.857345 126.0825 
Q 262.257345 126.0825 262.257345 123.6825 
L 262.257345 19.2 
Q 262.257345 16.8 259.857345 16.8 
L 146.697345 16.8 
Q 144.297345 16.8 144.297345 19.2 
L 144.297345 123.6825 
Q 144.297345 126.0825 146.697345 126.0825 
z
" style="fill: #ffffff; opacity: 0.8; stroke: #cccccc; stroke-linejoin: miter"/>
    </g>
    <g id="text_1">
     <!-- ADMET Endpoint -->
     <g transform="translate(153.308595 30.718125) scale(0.12 -0.12)">
      <defs>
       <path id="DejaVuSans-41" d="M 2188 4044 
L 1331 1722 
L 3047 1722 
L 2188 4044 
z
M 1831 4666 
L 2547 4666 
L 4325 0 
L 3669 0 
L 3244 1197 
L 1141 1197 
L 716 0 
L 50 0 
L 1831 4666 
z
" transform="scale(0.015625)"/>
       <path id="DejaVuSans-44" d="M 1259 4147 
L 1259 519 
L 2022 519 
Q 2988 519 3436 956 
Q 3884 1394 3884 2338 
Q 3884 3275 3436 3711 
Q 2988 4147 2022 4147 
L 1259 4147 
z
M 628 4666 
L 1925 4666 
Q 3281 4666 3915 4102 
Q 4550 3538 4550 2338 
Q 4550 1131 3912 565 
Q 3275 0 1925 0 
L 628 0 
L 628 4666 
z
" transform="scale(0.015625)"/>
       <path id="DejaVuSans-4d" d="M 628 4666 
L 1569 4666 
L 2759 1491 
L 3956 4666 
L 4897 4666 
L 4897 0 
L 4281 0 
L 4281 4097 
L 3078 897 
L 2444 897 
L 1241 4097 
L 1241 0 
L 628 0 
L 628 4666 
z
" transform="scale(0.015625)"/>
       <path id="DejaVuSans-45" d="M 628 4666 
L 3578 4666 
L 3578 4134 
L 1259 4134 
L 1259 2753 
L 3481 2753 
L 3481 2222 
L 1259 2222 
L 1259 531 
L 3634 531 
L 3634 0 
L 628 0 
L 628 4666 
z
" transform="scale(0.015625)"/>
       <path id="DejaVuSans-54" d="M -19 4666 
L 3928 4666 
L 3928 4134 
L 2272 4134 
L 2272 0 
L 1638 0 
L 1638 4134 
L -19 4134 
L -19 4666 
z
" transform="scale(0.015625)"/>
       <path id="DejaVuSans-20" transform="scale(0.015625)"/>
       <path id="DejaVuSans-6e" d="M 3513 2113 
L 3513 0 
L 2938 0 
L 2938 2094 
Q 2938 2591 2744 2837 
Q 2550 3084 2163 3084 
Q 1697 3084 1428 2787 
Q 1159 2491 1159 1978 
L 1159 0 
L 581 0 
L 581 3500 
L 1159 3500 
L 1159 2956 
Q 1366 3272 1645 3428 
Q 1925 3584 2291 3584 
Q 2894 3584 3203 3211 
Q 3513 2838 3513 2113 
z
" transform="scale(0.015625)"/>
       <path id="DejaVuSans-64" d="M 2906 2969 
L 2906 4863 
L 3481 4863 
L 3481 0 
L 2906 0 
L 2906 525 
Q 2725 213 2448 61 
Q 2172 -91 1784 -91 
Q 1150 -91 751 415 
Q 353 922 353 1747 
Q 353 2572 751 3078 
Q 1150 3584 1784 3584 
Q 2172 3584 2448 3432 
Q 2725 3281 2906 2969 
z
M 947 1747 
Q 947 1113 1208 752 
Q 1469 391 1925 391 
Q 2381 391 2643 752 
Q 2906 1113 2906 1747 
Q 2906 2381 2643 2742 
Q 2381 3103 1925 3103 
Q 1469 3103 1208 2742 
Q 947 2381 947 1747 
z
" transform="scale(0.015625)"/>
       <path id="DejaVuSans-70" d="M 1159 525 
L 1159 -1331 
L 581 -1331 
L 581 3500 
L 1159 3500 
L 1159 2969 
Q 1341 3281 1617 3432 
Q 1894 3584 2278 3584 
Q 2916 3584 3314 3078 
Q 3713 2572 3713 1747 
Q 3713 922 3314 415 
Q 2916 -91 2278 -91 
Q 1894 -91 1617 61 
Q 1341 213 1159 525 
z
M 3116 1747 
Q 3116 2381 2855 2742 
Q 2594 3103 2138 3103 
Q 1681 3103 1420 2742 
Q 1159 2381 1159 1747 
Q 1159 1113 1420 752 
Q 1681 391 2138 391 
Q 2594 391 2855 752 
Q 3116 1113 3116 1747 
z
" transform="scale(0.015625)"/>
       <path id="DejaVuSans-6f" d="M 1959 3097 
Q 1497 3097 1228 2736 
Q 959 2375 959 1747 
Q 959 1119 1226 758 
Q 1494 397 1959 397 
Q 2419 397 2687 759 
Q 2956 1122 2956 1747 
Q 2956 2369 2687 2733 
Q 2419 3097 1959 3097 
z
M 1959 3584 
Q 2709 3584 3137 3096 
Q 3566 2609 3566 1747 
Q 3566 888 3137 398 
Q 2709 -91 1959 -91 
Q 1206 -91 779 398 
Q 353 888 353 1747 
Q 353 2609 779 3096 
Q 1206 3584 1959 3584 
z
" transform="scale(0.015625)"/>
       <path id="DejaVuSans-69" d="M 603 3500 
L 1178 3500 
L 1178 0 
L 603 0 
L 603 3500 
z
M 603 4863 
L 1178 4863 
L 1178 4134 
L 603 4134 
L 603 4863 
z
" transform="scale(0.015625)"/>
       <path id="DejaVuSans-74" d="M 1172 4494 
L 1172 3500 
L 2356 3500 
L 2356 3053 
L 1172 3053 
L 1172 1153 
Q 1172 725 1289 603 
Q 1406 481 1766 481 
L 2356 481 
L 2356 0 
L 1766 0 
Q 1100 0 847 248 
Q 594 497 594 1153 
L 594 3053 
L 172 3053 
L 172 3500 
L 594 3500 
L 594 4494 
L 1172 4494 
z
" transform="scale(0.015625)"/>
      </defs>
      <use xlink:href="#DejaVuSans-41"/>
      <use xlink:href="#DejaVuSans-44" x="68.408203"/>
      <use xlink:href="#DejaVuSans-4d" x="145.410156"/>
      <use xlink:href="#DejaVuSans-45" x="231.689453"/>
      <use xlink:href="#DejaVuSans-54" x="294.873047"/>
      <use xlink:href="#DejaVuSans-20" x="355.957031"/>
      <use xlink:href="#DejaVuSans-45" x="387.744141"/>
      <use xlink:href="#DejaVuSans-6e" x="450.927734"/>
      <use xlink:href="#DejaVuSans-64" x="514.306641"/>
      <use xlink:href="#DejaVuSans-70" x="577.783203"/>
      <use xlink:href="#DejaVuSans-6f" x="641.259766"/>
      <use xlink:href="#DejaVuSans-69" x="702.441406"/>
      <use xlink:href="#DejaVuSans-6e" x="730.224609"/>
      <use xlink:href="#DejaVuSans-74" x="793.603516"/>
     </g>
    </g>
    <g id="patch_77">
     <path d="M 149.097345 48.331875 
L 173.097345 48.331875 
L 173.097345 39.931875 
L 149.097345 39.931875 
z
" style="fill: #66a61e; stroke: #66a61e; stroke-linejoin: miter"/>
    </g>
    <g id="text_2">
     <!-- LogP -->
     <g transform="translate(182.697345 48.331875) scale(0.12 -0.12)">
      <defs>
       <path id="DejaVuSans-4c" d="M 628 4666 
L 1259 4666 
L 1259 531 
L 3531 531 
L 3531 0 
L 628 0 
L 628 4666 
z
" transform="scale(0.015625)"/>
       <path id="DejaVuSans-67" d="M 2906 1791 
Q 2906 2416 2648 2759 
Q 2391 3103 1925 3103 
Q 1463 3103 1205 2759 
Q 947 2416 947 1791 
Q 947 1169 1205 825 
Q 1463 481 1925 481 
Q 2391 481 2648 825 
Q 2906 1169 2906 1791 
z
M 3481 434 
Q 3481 -459 3084 -895 
Q 2688 -1331 1869 -1331 
Q 1566 -1331 1297 -1286 
Q 1028 -1241 775 -1147 
L 775 -588 
Q 1028 -725 1275 -790 
Q 1522 -856 1778 -856 
Q 2344 -856 2625 -561 
Q 2906 -266 2906 331 
L 2906 616 
Q 2728 306 2450 153 
Q 2172 0 1784 0 
Q 1141 0 747 490 
Q 353 981 353 1791 
Q 353 2603 747 3093 
Q 1141 3584 1784 3584 
Q 2172 3584 2450 3431 
Q 2728 3278 2906 2969 
L 2906 3500 
L 3481 3500 
L 3481 434 
z
" transform="scale(0.015625)"/>
       <path id="DejaVuSans-50" d="M 1259 4147 
L 1259 2394 
L 2053 2394 
Q 2494 2394 2734 2622 
Q 2975 2850 2975 3272 
Q 2975 3691 2734 3919 
Q 2494 4147 2053 4147 
L 1259 4147 
z
M 628 4666 
L 2053 4666 
Q 2838 4666 3239 4311 
Q 3641 3956 3641 3272 
Q 3641 2581 3239 2228 
Q 2838 1875 2053 1875 
L 1259 1875 
L 1259 0 
L 628 0 
L 628 4666 
z
" transform="scale(0.015625)"/>
      </defs>
      <use xlink:href="#DejaVuSans-4c"/>
      <use xlink:href="#DejaVuSans-6f" x="53.962891"/>
      <use xlink:href="#DejaVuSans-67" x="115.144531"/>
      <use xlink:href="#DejaVuSans-50" x="178.621094"/>
     </g>
    </g>
    <g id="patch_78">
     <path d="M 149.097345 65.945625 
L 173.097345 65.945625 
L 173.097345 57.545625 
L 149.097345 57.545625 
z
" style="fill: #d95f02; stroke: #d95f02; stroke-linejoin: miter"/>
    </g>
    <g id="text_3">
     <!-- LogD -->
     <g transform="translate(182.697345 65.945625) scale(0.12 -0.12)">
      <use xlink:href="#DejaVuSans-4c"/>
      <use xlink:href="#DejaVuSans-6f" x="53.962891"/>
      <use xlink:href="#DejaVuSans-67" x="115.144531"/>
      <use xlink:href="#DejaVuSans-44" x="178.621094"/>
     </g>
    </g>
    <g id="patch_79">
     <path d="M 149.097345 83.559375 
L 173.097345 83.559375 
L 173.097345 75.159375 
L 149.097345 75.159375 
z
" style="fill: #7570b3; stroke: #7570b3; stroke-linejoin: miter"/>
    </g>
    <g id="text_4">
     <!-- Solubility -->
     <g transform="translate(182.697345 83.559375) scale(0.12 -0.12)">
      <defs>
       <path id="DejaVuSans-53" d="M 3425 4513 
L 3425 3897 
Q 3066 4069 2747 4153 
Q 2428 4238 2131 4238 
Q 1616 4238 1336 4038 
Q 1056 3838 1056 3469 
Q 1056 3159 1242 3001 
Q 1428 2844 1947 2747 
L 2328 2669 
Q 3034 2534 3370 2195 
Q 3706 1856 3706 1288 
Q 3706 609 3251 259 
Q 2797 -91 1919 -91 
Q 1588 -91 1214 -16 
Q 841 59 441 206 
L 441 856 
Q 825 641 1194 531 
Q 1563 422 1919 422 
Q 2459 422 2753 634 
Q 3047 847 3047 1241 
Q 3047 1584 2836 1778 
Q 2625 1972 2144 2069 
L 1759 2144 
Q 1053 2284 737 2584 
Q 422 2884 422 3419 
Q 422 4038 858 4394 
Q 1294 4750 2059 4750 
Q 2388 4750 2728 4690 
Q 3069 4631 3425 4513 
z
" transform="scale(0.015625)"/>
       <path id="DejaVuSans-6c" d="M 603 4863 
L 1178 4863 
L 1178 0 
L 603 0 
L 603 4863 
z
" transform="scale(0.015625)"/>
       <path id="DejaVuSans-75" d="M 544 1381 
L 544 3500 
L 1119 3500 
L 1119 1403 
Q 1119 906 1312 657 
Q 1506 409 1894 409 
Q 2359 409 2629 706 
Q 2900 1003 2900 1516 
L 2900 3500 
L 3475 3500 
L 3475 0 
L 2900 0 
L 2900 538 
Q 2691 219 2414 64 
Q 2138 -91 1772 -91 
Q 1169 -91 856 284 
Q 544 659 544 1381 
z
M 1991 3584 
L 1991 3584 
z
" transform="scale(0.015625)"/>
       <path id="DejaVuSans-62" d="M 3116 1747 
Q 3116 2381 2855 2742 
Q 2594 3103 2138 3103 
Q 1681 3103 1420 2742 
Q 1159 2381 1159 1747 
Q 1159 1113 1420 752 
Q 1681 391 2138 391 
Q 2594 391 2855 752 
Q 3116 1113 3116 1747 
z
M 1159 2969 
Q 1341 3281 1617 3432 
Q 1894 3584 2278 3584 
Q 2916 3584 3314 3078 
Q 3713 2572 3713 1747 
Q 3713 922 3314 415 
Q 2916 -91 2278 -91 
Q 1894 -91 1617 61 
Q 1341 213 1159 525 
L 1159 0 
L 581 0 
L 581 4863 
L 1159 4863 
L 1159 2969 
z
" transform="scale(0.015625)"/>
       <path id="DejaVuSans-79" d="M 2059 -325 
Q 1816 -950 1584 -1140 
Q 1353 -1331 966 -1331 
L 506 -1331 
L 506 -850 
L 844 -850 
Q 1081 -850 1212 -737 
Q 1344 -625 1503 -206 
L 1606 56 
L 191 3500 
L 800 3500 
L 1894 763 
L 2988 3500 
L 3597 3500 
L 2059 -325 
z
" transform="scale(0.015625)"/>
      </defs>
      <use xlink:href="#DejaVuSans-53"/>
      <use xlink:href="#DejaVuSans-6f" x="63.476562"/>
      <use xlink:href="#DejaVuSans-6c" x="124.658203"/>
      <use xlink:href="#DejaVuSans-75" x="152.441406"/>
      <use xlink:href="#DejaVuSans-62" x="215.820312"/>
      <use xlink:href="#DejaVuSans-69" x="279.296875"/>
      <use xlink:href="#DejaVuSans-6c" x="307.080078"/>
      <use xlink:href="#DejaVuSans-69" x="334.863281"/>
      <use xlink:href="#DejaVuSans-74" x="362.646484"/>
      <use xlink:href="#DejaVuSans-79" x="401.855469"/>
     </g>
    </g>
    <g id="patch_80">
     <path d="M 149.097345 101.173125 
L 173.097345 101.173125 
L 173.097345 92.773125 
L 149.097345 92.773125 
z
" style="fill: #e7298a; stroke: #e7298a; stroke-linejoin: miter"/>
    </g>
    <g id="text_5">
     <!-- Permeability -->
     <g transform="translate(182.697345 101.173125) scale(0.12 -0.12)">
      <defs>
       <path id="DejaVuSans-65" d="M 3597 1894 
L 3597 1613 
L 953 1613 
Q 991 1019 1311 708 
Q 1631 397 2203 397 
Q 2534 397 2845 478 
Q 3156 559 3463 722 
L 3463 178 
Q 3153 47 2828 -22 
Q 2503 -91 2169 -91 
Q 1331 -91 842 396 
Q 353 884 353 1716 
Q 353 2575 817 3079 
Q 1281 3584 2069 3584 
Q 2775 3584 3186 3129 
Q 3597 2675 3597 1894 
z
M 3022 2063 
Q 3016 2534 2758 2815 
Q 2500 3097 2075 3097 
Q 1594 3097 1305 2825 
Q 1016 2553 972 2059 
L 3022 2063 
z
" transform="scale(0.015625)"/>
       <path id="DejaVuSans-72" d="M 2631 2963 
Q 2534 3019 2420 3045 
Q 2306 3072 2169 3072 
Q 1681 3072 1420 2755 
Q 1159 2438 1159 1844 
L 1159 0 
L 581 0 
L 581 3500 
L 1159 3500 
L 1159 2956 
Q 1341 3275 1631 3429 
Q 1922 3584 2338 3584 
Q 2397 3584 2469 3576 
Q 2541 3569 2628 3553 
L 2631 2963 
z
" transform="scale(0.015625)"/>
       <path id="DejaVuSans-6d" d="M 3328 2828 
Q 3544 3216 3844 3400 
Q 4144 3584 4550 3584 
Q 5097 3584 5394 3201 
Q 5691 2819 5691 2113 
L 5691 0 
L 5113 0 
L 5113 2094 
Q 5113 2597 4934 2840 
Q 4756 3084 4391 3084 
Q 3944 3084 3684 2787 
Q 3425 2491 3425 1978 
L 3425 0 
L 2847 0 
L 2847 2094 
Q 2847 2600 2669 2842 
Q 2491 3084 2119 3084 
Q 1678 3084 1418 2786 
Q 1159 2488 1159 1978 
L 1159 0 
L 581 0 
L 581 3500 
L 1159 3500 
L 1159 2956 
Q 1356 3278 1631 3431 
Q 1906 3584 2284 3584 
Q 2666 3584 2933 3390 
Q 3200 3197 3328 2828 
z
" transform="scale(0.015625)"/>
       <path id="DejaVuSans-61" d="M 2194 1759 
Q 1497 1759 1228 1600 
Q 959 1441 959 1056 
Q 959 750 1161 570 
Q 1363 391 1709 391 
Q 2188 391 2477 730 
Q 2766 1069 2766 1631 
L 2766 1759 
L 2194 1759 
z
M 3341 1997 
L 3341 0 
L 2766 0 
L 2766 531 
Q 2569 213 2275 61 
Q 1981 -91 1556 -91 
Q 1019 -91 701 211 
Q 384 513 384 1019 
Q 384 1609 779 1909 
Q 1175 2209 1959 2209 
L 2766 2209 
L 2766 2266 
Q 2766 2663 2505 2880 
Q 2244 3097 1772 3097 
Q 1472 3097 1187 3025 
Q 903 2953 641 2809 
L 641 3341 
Q 956 3463 1253 3523 
Q 1550 3584 1831 3584 
Q 2591 3584 2966 3190 
Q 3341 2797 3341 1997 
z
" transform="scale(0.015625)"/>
      </defs>
      <use xlink:href="#DejaVuSans-50"/>
      <use xlink:href="#DejaVuSans-65" x="56.677734"/>
      <use xlink:href="#DejaVuSans-72" x="118.201172"/>
      <use xlink:href="#DejaVuSans-6d" x="157.564453"/>
      <use xlink:href="#DejaVuSans-65" x="254.976562"/>
      <use xlink:href="#DejaVuSans-61" x="316.5"/>
      <use xlink:href="#DejaVuSans-62" x="377.779297"/>
      <use xlink:href="#DejaVuSans-69" x="441.255859"/>
      <use xlink:href="#DejaVuSans-6c" x="469.039062"/>
      <use xlink:href="#DejaVuSans-69" x="496.822266"/>
      <use xlink:href="#DejaVuSans-74" x="524.605469"/>
      <use xlink:href="#DejaVuSans-79" x="563.814453"/>
     </g>
    </g>
    <g id="patch_81">
     <path d="M 149.097345 118.786875 
L 173.097345 118.786875 
L 173.097345 110.386875 
L 149.097345 110.386875 
z
" style="fill: #1b9e77; stroke: #1b9e77; stroke-linejoin: miter"/>
    </g>
    <g id="text_6">
     <!-- hERG -->
     <g transform="translate(182.697345 118.786875) scale(0.12 -0.12)">
      <defs>
       <path id="DejaVuSans-68" d="M 3513 2113 
L 3513 0 
L 2938 0 
L 2938 2094 
Q 2938 2591 2744 2837 
Q 2550 3084 2163 3084 
Q 1697 3084 1428 2787 
Q 1159 2491 1159 1978 
L 1159 0 
L 581 0 
L 581 4863 
L 1159 4863 
L 1159 2956 
Q 1366 3272 1645 3428 
Q 1925 3584 2291 3584 
Q 2894 3584 3203 3211 
Q 3513 2838 3513 2113 
z
" transform="scale(0.015625)"/>
       <path id="DejaVuSans-52" d="M 2841 2188 
Q 3044 2119 3236 1894 
Q 3428 1669 3622 1275 
L 4263 0 
L 3584 0 
L 2988 1197 
Q 2756 1666 2539 1819 
Q 2322 1972 1947 1972 
L 1259 1972 
L 1259 0 
L 628 0 
L 628 4666 
L 2053 4666 
Q 2853 4666 3247 4331 
Q 3641 3997 3641 3322 
Q 3641 2881 3436 2590 
Q 3231 2300 2841 2188 
z
M 1259 4147 
L 1259 2491 
L 2053 2491 
Q 2509 2491 2742 2702 
Q 2975 2913 2975 3322 
Q 2975 3731 2742 3939 
Q 2509 4147 2053 4147 
L 1259 4147 
z
" transform="scale(0.015625)"/>
       <path id="DejaVuSans-47" d="M 3809 666 
L 3809 1919 
L 2778 1919 
L 2778 2438 
L 4434 2438 
L 4434 434 
Q 4069 175 3628 42 
Q 3188 -91 2688 -91 
Q 1594 -91 976 548 
Q 359 1188 359 2328 
Q 359 3472 976 4111 
Q 1594 4750 2688 4750 
Q 3144 4750 3555 4637 
Q 3966 4525 4313 4306 
L 4313 3634 
Q 3963 3931 3569 4081 
Q 3175 4231 2741 4231 
Q 1884 4231 1454 3753 
Q 1025 3275 1025 2328 
Q 1025 1384 1454 906 
Q 1884 428 2741 428 
Q 3075 428 3337 486 
Q 3600 544 3809 666 
z
" transform="scale(0.015625)"/>
      </defs>
      <use xlink:href="#DejaVuSans-68"/>
      <use xlink:href="#DejaVuSans-45" x="63.378906"/>
      <use xlink:href="#DejaVuSans-52" x="126.5625"/>
      <use xlink:href="#DejaVuSans-47" x="196.044922"/>
     </g>
    </g>
   </g>
  </g>
 </g>
 <defs>
  <clipPath id="p5059d03c7c">
   <rect x="10.8" y="10.8" width="127.497345" height="626.4"/>
  </clipPath>
 </defs>
</svg>
