<?xml version="1.0" encoding="utf-8" standalone="no"?>
<!DOCTYPE svg PUBLIC "-//W3C//DTD SVG 1.1//EN"
  "http://www.w3.org/Graphics/SVG/1.1/DTD/svg11.dtd">
<svg xmlns:xlink="http://www.w3.org/1999/xlink" width="424.766875pt" height="424.105312pt" viewBox="0 0 424.766875 424.105312" xmlns="http://www.w3.org/2000/svg" version="1.1">
 <metadata>
  <rdf:RDF xmlns:dc="http://purl.org/dc/elements/1.1/" xmlns:cc="http://creativecommons.org/ns#" xmlns:rdf="http://www.w3.org/1999/02/22-rdf-syntax-ns#">
   <cc:Work>
    <dc:type rdf:resource="http://purl.org/dc/dcmitype/StillImage"/>
    <dc:date>2024-04-17T11:51:34.437660</dc:date>
    <dc:format>image/svg+xml</dc:format>
    <dc:creator>
     <cc:Agent>
      <dc:title>Matplotlib v3.6.2, https://matplotlib.org/</dc:title>
     </cc:Agent>
    </dc:creator>
   </cc:Work>
  </rdf:RDF>
 </metadata>
 <defs>
  <style type="text/css">*{stroke-linejoin: round; stroke-linecap: butt}</style>
 </defs>
 <g id="figure_1">
  <g id="patch_1">
   <path d="M 0 424.105312 
L 424.766875 424.105312 
L 424.766875 0 
L 0 0 
z
" style="fill: #ffffff"/>
  </g>
  <g id="axes_1">
   <g id="patch_2">
    <path d="M 50.836875 382.677812 
L 417.566875 382.677812 
L 417.566875 23.837812 
L 50.836875 23.837812 
z
" style="fill: #ffffff"/>
   </g>
   <g id="matplotlib.axis_1">
    <g id="xtick_1">
     <g id="line2d_1">
      <defs>
       <path id="m5ad225fa50" d="M 0 0 
L 0 3.5 
" style="stroke: #000000; stroke-width: 0.8"/>
      </defs>
      <g>
       <use xlink:href="#m5ad225fa50" x="50.836875" y="382.677812" style="stroke: #000000; stroke-width: 0.8"/>
      </g>
     </g>
     <g id="text_1">
      <!-- 0 -->
      <g transform="translate(47.655625 397.27625) scale(0.1 -0.1)">
       <defs>
        <path id="DejaVuSans-30" d="M 2034 4250 
Q 1547 4250 1301 3770 
Q 1056 3291 1056 2328 
Q 1056 1369 1301 889 
Q 1547 409 2034 409 
Q 2525 409 2770 889 
Q 3016 1369 3016 2328 
Q 3016 3291 2770 3770 
Q 2525 4250 2034 4250 
z
M 2034 4750 
Q 2819 4750 3233 4129 
Q 3647 3509 3647 2328 
Q 3647 1150 3233 529 
Q 2819 -91 2034 -91 
Q 1250 -91 836 529 
Q 422 1150 422 2328 
Q 422 3509 836 4129 
Q 1250 4750 2034 4750 
z
" transform="scale(0.015625)"/>
       </defs>
       <use xlink:href="#DejaVuSans-30"/>
      </g>
     </g>
    </g>
    <g id="xtick_2">
     <g id="line2d_2">
      <g>
       <use xlink:href="#m5ad225fa50" x="130.560788" y="382.677812" style="stroke: #000000; stroke-width: 0.8"/>
      </g>
     </g>
     <g id="text_2">
      <!-- 20 -->
      <g transform="translate(124.198288 397.27625) scale(0.1 -0.1)">
       <defs>
        <path id="DejaVuSans-32" d="M 1228 531 
L 3431 531 
L 3431 0 
L 469 0 
L 469 531 
Q 828 903 1448 1529 
Q 2069 2156 2228 2338 
Q 2531 2678 2651 2914 
Q 2772 3150 2772 3378 
Q 2772 3750 2511 3984 
Q 2250 4219 1831 4219 
Q 1534 4219 1204 4116 
Q 875 4013 500 3803 
L 500 4441 
Q 881 4594 1212 4672 
Q 1544 4750 1819 4750 
Q 2544 4750 2975 4387 
Q 3406 4025 3406 3419 
Q 3406 3131 3298 2873 
Q 3191 2616 2906 2266 
Q 2828 2175 2409 1742 
Q 1991 1309 1228 531 
z
" transform="scale(0.015625)"/>
       </defs>
       <use xlink:href="#DejaVuSans-32"/>
       <use xlink:href="#DejaVuSans-30" x="63.623047"/>
      </g>
     </g>
    </g>
    <g id="xtick_3">
     <g id="line2d_3">
      <g>
       <use xlink:href="#m5ad225fa50" x="210.284701" y="382.677812" style="stroke: #000000; stroke-width: 0.8"/>
      </g>
     </g>
     <g id="text_3">
      <!-- 40 -->
      <g transform="translate(203.922201 397.27625) scale(0.1 -0.1)">
       <defs>
        <path id="DejaVuSans-34" d="M 2419 4116 
L 825 1625 
L 2419 1625 
L 2419 4116 
z
M 2253 4666 
L 3047 4666 
L 3047 1625 
L 3713 1625 
L 3713 1100 
L 3047 1100 
L 3047 0 
L 2419 0 
L 2419 1100 
L 313 1100 
L 313 1709 
L 2253 4666 
z
" transform="scale(0.015625)"/>
       </defs>
       <use xlink:href="#DejaVuSans-34"/>
       <use xlink:href="#DejaVuSans-30" x="63.623047"/>
      </g>
     </g>
    </g>
    <g id="xtick_4">
     <g id="line2d_4">
      <g>
       <use xlink:href="#m5ad225fa50" x="290.008614" y="382.677812" style="stroke: #000000; stroke-width: 0.8"/>
      </g>
     </g>
     <g id="text_4">
      <!-- 60 -->
      <g transform="translate(283.646114 397.27625) scale(0.1 -0.1)">
       <defs>
        <path id="DejaVuSans-36" d="M 2113 2584 
Q 1688 2584 1439 2293 
Q 1191 2003 1191 1497 
Q 1191 994 1439 701 
Q 1688 409 2113 409 
Q 2538 409 2786 701 
Q 3034 994 3034 1497 
Q 3034 2003 2786 2293 
Q 2538 2584 2113 2584 
z
M 3366 4563 
L 3366 3988 
Q 3128 4100 2886 4159 
Q 2644 4219 2406 4219 
Q 1781 4219 1451 3797 
Q 1122 3375 1075 2522 
Q 1259 2794 1537 2939 
Q 1816 3084 2150 3084 
Q 2853 3084 3261 2657 
Q 3669 2231 3669 1497 
Q 3669 778 3244 343 
Q 2819 -91 2113 -91 
Q 1303 -91 875 529 
Q 447 1150 447 2328 
Q 447 3434 972 4092 
Q 1497 4750 2381 4750 
Q 2619 4750 2861 4703 
Q 3103 4656 3366 4563 
z
" transform="scale(0.015625)"/>
       </defs>
       <use xlink:href="#DejaVuSans-36"/>
       <use xlink:href="#DejaVuSans-30" x="63.623047"/>
      </g>
     </g>
    </g>
    <g id="xtick_5">
     <g id="line2d_5">
      <g>
       <use xlink:href="#m5ad225fa50" x="369.732527" y="382.677812" style="stroke: #000000; stroke-width: 0.8"/>
      </g>
     </g>
     <g id="text_5">
      <!-- 80 -->
      <g transform="translate(363.370027 397.27625) scale(0.1 -0.1)">
       <defs>
        <path id="DejaVuSans-38" d="M 2034 2216 
Q 1584 2216 1326 1975 
Q 1069 1734 1069 1313 
Q 1069 891 1326 650 
Q 1584 409 2034 409 
Q 2484 409 2743 651 
Q 3003 894 3003 1313 
Q 3003 1734 2745 1975 
Q 2488 2216 2034 2216 
z
M 1403 2484 
Q 997 2584 770 2862 
Q 544 3141 544 3541 
Q 544 4100 942 4425 
Q 1341 4750 2034 4750 
Q 2731 4750 3128 4425 
Q 3525 4100 3525 3541 
Q 3525 3141 3298 2862 
Q 3072 2584 2669 2484 
Q 3125 2378 3379 2068 
Q 3634 1759 3634 1313 
Q 3634 634 3220 271 
Q 2806 -91 2034 -91 
Q 1263 -91 848 271 
Q 434 634 434 1313 
Q 434 1759 690 2068 
Q 947 2378 1403 2484 
z
M 1172 3481 
Q 1172 3119 1398 2916 
Q 1625 2713 2034 2713 
Q 2441 2713 2670 2916 
Q 2900 3119 2900 3481 
Q 2900 3844 2670 4047 
Q 2441 4250 2034 4250 
Q 1625 4250 1398 4047 
Q 1172 3844 1172 3481 
z
" transform="scale(0.015625)"/>
       </defs>
       <use xlink:href="#DejaVuSans-38"/>
       <use xlink:href="#DejaVuSans-30" x="63.623047"/>
      </g>
     </g>
    </g>
    <g id="text_6">
     <!-- Number of participants -->
     <g transform="translate(153.230469 413.99375) scale(0.14 -0.14)">
      <defs>
       <path id="DejaVuSans-4e" d="M 628 4666 
L 1478 4666 
L 3547 763 
L 3547 4666 
L 4159 4666 
L 4159 0 
L 3309 0 
L 1241 3903 
L 1241 0 
L 628 0 
L 628 4666 
z
" transform="scale(0.015625)"/>
       <path id="DejaVuSans-75" d="M 544 1381 
L 544 3500 
L 1119 3500 
L 1119 1403 
Q 1119 906 1312 657 
Q 1506 409 1894 409 
Q 2359 409 2629 706 
Q 2900 1003 2900 1516 
L 2900 3500 
L 3475 3500 
L 3475 0 
L 2900 0 
L 2900 538 
Q 2691 219 2414 64 
Q 2138 -91 1772 -91 
Q 1169 -91 856 284 
Q 544 659 544 1381 
z
M 1991 3584 
L 1991 3584 
z
" transform="scale(0.015625)"/>
       <path id="DejaVuSans-6d" d="M 3328 2828 
Q 3544 3216 3844 3400 
Q 4144 3584 4550 3584 
Q 5097 3584 5394 3201 
Q 5691 2819 5691 2113 
L 5691 0 
L 5113 0 
L 5113 2094 
Q 5113 2597 4934 2840 
Q 4756 3084 4391 3084 
Q 3944 3084 3684 2787 
Q 3425 2491 3425 1978 
L 3425 0 
L 2847 0 
L 2847 2094 
Q 2847 2600 2669 2842 
Q 2491 3084 2119 3084 
Q 1678 3084 1418 2786 
Q 1159 2488 1159 1978 
L 1159 0 
L 581 0 
L 581 3500 
L 1159 3500 
L 1159 2956 
Q 1356 3278 1631 3431 
Q 1906 3584 2284 3584 
Q 2666 3584 2933 3390 
Q 3200 3197 3328 2828 
z
" transform="scale(0.015625)"/>
       <path id="DejaVuSans-62" d="M 3116 1747 
Q 3116 2381 2855 2742 
Q 2594 3103 2138 3103 
Q 1681 3103 1420 2742 
Q 1159 2381 1159 1747 
Q 1159 1113 1420 752 
Q 1681 391 2138 391 
Q 2594 391 2855 752 
Q 3116 1113 3116 1747 
z
M 1159 2969 
Q 1341 3281 1617 3432 
Q 1894 3584 2278 3584 
Q 2916 3584 3314 3078 
Q 3713 2572 3713 1747 
Q 3713 922 3314 415 
Q 2916 -91 2278 -91 
Q 1894 -91 1617 61 
Q 1341 213 1159 525 
L 1159 0 
L 581 0 
L 581 4863 
L 1159 4863 
L 1159 2969 
z
" transform="scale(0.015625)"/>
       <path id="DejaVuSans-65" d="M 3597 1894 
L 3597 1613 
L 953 1613 
Q 991 1019 1311 708 
Q 1631 397 2203 397 
Q 2534 397 2845 478 
Q 3156 559 3463 722 
L 3463 178 
Q 3153 47 2828 -22 
Q 2503 -91 2169 -91 
Q 1331 -91 842 396 
Q 353 884 353 1716 
Q 353 2575 817 3079 
Q 1281 3584 2069 3584 
Q 2775 3584 3186 3129 
Q 3597 2675 3597 1894 
z
M 3022 2063 
Q 3016 2534 2758 2815 
Q 2500 3097 2075 3097 
Q 1594 3097 1305 2825 
Q 1016 2553 972 2059 
L 3022 2063 
z
" transform="scale(0.015625)"/>
       <path id="DejaVuSans-72" d="M 2631 2963 
Q 2534 3019 2420 3045 
Q 2306 3072 2169 3072 
Q 1681 3072 1420 2755 
Q 1159 2438 1159 1844 
L 1159 0 
L 581 0 
L 581 3500 
L 1159 3500 
L 1159 2956 
Q 1341 3275 1631 3429 
Q 1922 3584 2338 3584 
Q 2397 3584 2469 3576 
Q 2541 3569 2628 3553 
L 2631 2963 
z
" transform="scale(0.015625)"/>
       <path id="DejaVuSans-20" transform="scale(0.015625)"/>
       <path id="DejaVuSans-6f" d="M 1959 3097 
Q 1497 3097 1228 2736 
Q 959 2375 959 1747 
Q 959 1119 1226 758 
Q 1494 397 1959 397 
Q 2419 397 2687 759 
Q 2956 1122 2956 1747 
Q 2956 2369 2687 2733 
Q 2419 3097 1959 3097 
z
M 1959 3584 
Q 2709 3584 3137 3096 
Q 3566 2609 3566 1747 
Q 3566 888 3137 398 
Q 2709 -91 1959 -91 
Q 1206 -91 779 398 
Q 353 888 353 1747 
Q 353 2609 779 3096 
Q 1206 3584 1959 3584 
z
" transform="scale(0.015625)"/>
       <path id="DejaVuSans-66" d="M 2375 4863 
L 2375 4384 
L 1825 4384 
Q 1516 4384 1395 4259 
Q 1275 4134 1275 3809 
L 1275 3500 
L 2222 3500 
L 2222 3053 
L 1275 3053 
L 1275 0 
L 697 0 
L 697 3053 
L 147 3053 
L 147 3500 
L 697 3500 
L 697 3744 
Q 697 4328 969 4595 
Q 1241 4863 1831 4863 
L 2375 4863 
z
" transform="scale(0.015625)"/>
       <path id="DejaVuSans-70" d="M 1159 525 
L 1159 -1331 
L 581 -1331 
L 581 3500 
L 1159 3500 
L 1159 2969 
Q 1341 3281 1617 3432 
Q 1894 3584 2278 3584 
Q 2916 3584 3314 3078 
Q 3713 2572 3713 1747 
Q 3713 922 3314 415 
Q 2916 -91 2278 -91 
Q 1894 -91 1617 61 
Q 1341 213 1159 525 
z
M 3116 1747 
Q 3116 2381 2855 2742 
Q 2594 3103 2138 3103 
Q 1681 3103 1420 2742 
Q 1159 2381 1159 1747 
Q 1159 1113 1420 752 
Q 1681 391 2138 391 
Q 2594 391 2855 752 
Q 3116 1113 3116 1747 
z
" transform="scale(0.015625)"/>
       <path id="DejaVuSans-61" d="M 2194 1759 
Q 1497 1759 1228 1600 
Q 959 1441 959 1056 
Q 959 750 1161 570 
Q 1363 391 1709 391 
Q 2188 391 2477 730 
Q 2766 1069 2766 1631 
L 2766 1759 
L 2194 1759 
z
M 3341 1997 
L 3341 0 
L 2766 0 
L 2766 531 
Q 2569 213 2275 61 
Q 1981 -91 1556 -91 
Q 1019 -91 701 211 
Q 384 513 384 1019 
Q 384 1609 779 1909 
Q 1175 2209 1959 2209 
L 2766 2209 
L 2766 2266 
Q 2766 2663 2505 2880 
Q 2244 3097 1772 3097 
Q 1472 3097 1187 3025 
Q 903 2953 641 2809 
L 641 3341 
Q 956 3463 1253 3523 
Q 1550 3584 1831 3584 
Q 2591 3584 2966 3190 
Q 3341 2797 3341 1997 
z
" transform="scale(0.015625)"/>
       <path id="DejaVuSans-74" d="M 1172 4494 
L 1172 3500 
L 2356 3500 
L 2356 3053 
L 1172 3053 
L 1172 1153 
Q 1172 725 1289 603 
Q 1406 481 1766 481 
L 2356 481 
L 2356 0 
L 1766 0 
Q 1100 0 847 248 
Q 594 497 594 1153 
L 594 3053 
L 172 3053 
L 172 3500 
L 594 3500 
L 594 4494 
L 1172 4494 
z
" transform="scale(0.015625)"/>
       <path id="DejaVuSans-69" d="M 603 3500 
L 1178 3500 
L 1178 0 
L 603 0 
L 603 3500 
z
M 603 4863 
L 1178 4863 
L 1178 4134 
L 603 4134 
L 603 4863 
z
" transform="scale(0.015625)"/>
       <path id="DejaVuSans-63" d="M 3122 3366 
L 3122 2828 
Q 2878 2963 2633 3030 
Q 2388 3097 2138 3097 
Q 1578 3097 1268 2742 
Q 959 2388 959 1747 
Q 959 1106 1268 751 
Q 1578 397 2138 397 
Q 2388 397 2633 464 
Q 2878 531 3122 666 
L 3122 134 
Q 2881 22 2623 -34 
Q 2366 -91 2075 -91 
Q 1284 -91 818 406 
Q 353 903 353 1747 
Q 353 2603 823 3093 
Q 1294 3584 2113 3584 
Q 2378 3584 2631 3529 
Q 2884 3475 3122 3366 
z
" transform="scale(0.015625)"/>
       <path id="DejaVuSans-6e" d="M 3513 2113 
L 3513 0 
L 2938 0 
L 2938 2094 
Q 2938 2591 2744 2837 
Q 2550 3084 2163 3084 
Q 1697 3084 1428 2787 
Q 1159 2491 1159 1978 
L 1159 0 
L 581 0 
L 581 3500 
L 1159 3500 
L 1159 2956 
Q 1366 3272 1645 3428 
Q 1925 3584 2291 3584 
Q 2894 3584 3203 3211 
Q 3513 2838 3513 2113 
z
" transform="scale(0.015625)"/>
       <path id="DejaVuSans-73" d="M 2834 3397 
L 2834 2853 
Q 2591 2978 2328 3040 
Q 2066 3103 1784 3103 
Q 1356 3103 1142 2972 
Q 928 2841 928 2578 
Q 928 2378 1081 2264 
Q 1234 2150 1697 2047 
L 1894 2003 
Q 2506 1872 2764 1633 
Q 3022 1394 3022 966 
Q 3022 478 2636 193 
Q 2250 -91 1575 -91 
Q 1294 -91 989 -36 
Q 684 19 347 128 
L 347 722 
Q 666 556 975 473 
Q 1284 391 1588 391 
Q 1994 391 2212 530 
Q 2431 669 2431 922 
Q 2431 1156 2273 1281 
Q 2116 1406 1581 1522 
L 1381 1569 
Q 847 1681 609 1914 
Q 372 2147 372 2553 
Q 372 3047 722 3315 
Q 1072 3584 1716 3584 
Q 2034 3584 2315 3537 
Q 2597 3491 2834 3397 
z
" transform="scale(0.015625)"/>
      </defs>
      <use xlink:href="#DejaVuSans-4e"/>
      <use xlink:href="#DejaVuSans-75" x="74.804688"/>
      <use xlink:href="#DejaVuSans-6d" x="138.183594"/>
      <use xlink:href="#DejaVuSans-62" x="235.595703"/>
      <use xlink:href="#DejaVuSans-65" x="299.072266"/>
      <use xlink:href="#DejaVuSans-72" x="360.595703"/>
      <use xlink:href="#DejaVuSans-20" x="401.708984"/>
      <use xlink:href="#DejaVuSans-6f" x="433.496094"/>
      <use xlink:href="#DejaVuSans-66" x="494.677734"/>
      <use xlink:href="#DejaVuSans-20" x="529.882812"/>
      <use xlink:href="#DejaVuSans-70" x="561.669922"/>
      <use xlink:href="#DejaVuSans-61" x="625.146484"/>
      <use xlink:href="#DejaVuSans-72" x="686.425781"/>
      <use xlink:href="#DejaVuSans-74" x="727.539062"/>
      <use xlink:href="#DejaVuSans-69" x="766.748047"/>
      <use xlink:href="#DejaVuSans-63" x="794.53125"/>
      <use xlink:href="#DejaVuSans-69" x="849.511719"/>
      <use xlink:href="#DejaVuSans-70" x="877.294922"/>
      <use xlink:href="#DejaVuSans-61" x="940.771484"/>
      <use xlink:href="#DejaVuSans-6e" x="1002.050781"/>
      <use xlink:href="#DejaVuSans-74" x="1065.429688"/>
      <use xlink:href="#DejaVuSans-73" x="1104.638672"/>
     </g>
    </g>
   </g>
   <g id="matplotlib.axis_2">
    <g id="ytick_1">
     <g id="line2d_6">
      <path d="M 50.836875 382.677812 
L 417.566875 382.677812 
" clip-path="url(#pb51fbf177a)" style="fill: none; stroke-dasharray: 2.96,1.28; stroke-dashoffset: 0; stroke: #c0c0c0; stroke-width: 0.8"/>
     </g>
     <g id="line2d_7">
      <defs>
       <path id="mb6203565bb" d="M 0 0 
L -3.5 0 
" style="stroke: #000000; stroke-width: 0.8"/>
      </defs>
      <g>
       <use xlink:href="#mb6203565bb" x="50.836875" y="382.677812" style="stroke: #000000; stroke-width: 0.8"/>
      </g>
     </g>
     <g id="text_7">
      <!-- 20 -->
      <g transform="translate(31.111875 386.477031) scale(0.1 -0.1)">
       <use xlink:href="#DejaVuSans-32"/>
       <use xlink:href="#DejaVuSans-30" x="63.623047"/>
      </g>
     </g>
    </g>
    <g id="ytick_2">
     <g id="line2d_8">
      <path d="M 50.836875 337.822812 
L 417.566875 337.822812 
" clip-path="url(#pb51fbf177a)" style="fill: none; stroke-dasharray: 2.96,1.28; stroke-dashoffset: 0; stroke: #c0c0c0; stroke-width: 0.8"/>
     </g>
     <g id="line2d_9">
      <g>
       <use xlink:href="#mb6203565bb" x="50.836875" y="337.822812" style="stroke: #000000; stroke-width: 0.8"/>
      </g>
     </g>
     <g id="text_8">
      <!-- 30 -->
      <g transform="translate(31.111875 341.622031) scale(0.1 -0.1)">
       <defs>
        <path id="DejaVuSans-33" d="M 2597 2516 
Q 3050 2419 3304 2112 
Q 3559 1806 3559 1356 
Q 3559 666 3084 287 
Q 2609 -91 1734 -91 
Q 1441 -91 1130 -33 
Q 819 25 488 141 
L 488 750 
Q 750 597 1062 519 
Q 1375 441 1716 441 
Q 2309 441 2620 675 
Q 2931 909 2931 1356 
Q 2931 1769 2642 2001 
Q 2353 2234 1838 2234 
L 1294 2234 
L 1294 2753 
L 1863 2753 
Q 2328 2753 2575 2939 
Q 2822 3125 2822 3475 
Q 2822 3834 2567 4026 
Q 2313 4219 1838 4219 
Q 1578 4219 1281 4162 
Q 984 4106 628 3988 
L 628 4550 
Q 988 4650 1302 4700 
Q 1616 4750 1894 4750 
Q 2613 4750 3031 4423 
Q 3450 4097 3450 3541 
Q 3450 3153 3228 2886 
Q 3006 2619 2597 2516 
z
" transform="scale(0.015625)"/>
       </defs>
       <use xlink:href="#DejaVuSans-33"/>
       <use xlink:href="#DejaVuSans-30" x="63.623047"/>
      </g>
     </g>
    </g>
    <g id="ytick_3">
     <g id="line2d_10">
      <path d="M 50.836875 292.967812 
L 417.566875 292.967812 
" clip-path="url(#pb51fbf177a)" style="fill: none; stroke-dasharray: 2.96,1.28; stroke-dashoffset: 0; stroke: #c0c0c0; stroke-width: 0.8"/>
     </g>
     <g id="line2d_11">
      <g>
       <use xlink:href="#mb6203565bb" x="50.836875" y="292.967812" style="stroke: #000000; stroke-width: 0.8"/>
      </g>
     </g>
     <g id="text_9">
      <!-- 40 -->
      <g transform="translate(31.111875 296.767031) scale(0.1 -0.1)">
       <use xlink:href="#DejaVuSans-34"/>
       <use xlink:href="#DejaVuSans-30" x="63.623047"/>
      </g>
     </g>
    </g>
    <g id="ytick_4">
     <g id="line2d_12">
      <path d="M 50.836875 248.112812 
L 417.566875 248.112812 
" clip-path="url(#pb51fbf177a)" style="fill: none; stroke-dasharray: 2.96,1.28; stroke-dashoffset: 0; stroke: #c0c0c0; stroke-width: 0.8"/>
     </g>
     <g id="line2d_13">
      <g>
       <use xlink:href="#mb6203565bb" x="50.836875" y="248.112812" style="stroke: #000000; stroke-width: 0.8"/>
      </g>
     </g>
     <g id="text_10">
      <!-- 50 -->
      <g transform="translate(31.111875 251.912031) scale(0.1 -0.1)">
       <defs>
        <path id="DejaVuSans-35" d="M 691 4666 
L 3169 4666 
L 3169 4134 
L 1269 4134 
L 1269 2991 
Q 1406 3038 1543 3061 
Q 1681 3084 1819 3084 
Q 2600 3084 3056 2656 
Q 3513 2228 3513 1497 
Q 3513 744 3044 326 
Q 2575 -91 1722 -91 
Q 1428 -91 1123 -41 
Q 819 9 494 109 
L 494 744 
Q 775 591 1075 516 
Q 1375 441 1709 441 
Q 2250 441 2565 725 
Q 2881 1009 2881 1497 
Q 2881 1984 2565 2268 
Q 2250 2553 1709 2553 
Q 1456 2553 1204 2497 
Q 953 2441 691 2322 
L 691 4666 
z
" transform="scale(0.015625)"/>
       </defs>
       <use xlink:href="#DejaVuSans-35"/>
       <use xlink:href="#DejaVuSans-30" x="63.623047"/>
      </g>
     </g>
    </g>
    <g id="ytick_5">
     <g id="line2d_14">
      <path d="M 50.836875 203.257812 
L 417.566875 203.257812 
" clip-path="url(#pb51fbf177a)" style="fill: none; stroke-dasharray: 2.96,1.28; stroke-dashoffset: 0; stroke: #c0c0c0; stroke-width: 0.8"/>
     </g>
     <g id="line2d_15">
      <g>
       <use xlink:href="#mb6203565bb" x="50.836875" y="203.257812" style="stroke: #000000; stroke-width: 0.8"/>
      </g>
     </g>
     <g id="text_11">
      <!-- 60 -->
      <g transform="translate(31.111875 207.057031) scale(0.1 -0.1)">
       <use xlink:href="#DejaVuSans-36"/>
       <use xlink:href="#DejaVuSans-30" x="63.623047"/>
      </g>
     </g>
    </g>
    <g id="ytick_6">
     <g id="line2d_16">
      <path d="M 50.836875 158.402812 
L 417.566875 158.402812 
" clip-path="url(#pb51fbf177a)" style="fill: none; stroke-dasharray: 2.96,1.28; stroke-dashoffset: 0; stroke: #c0c0c0; stroke-width: 0.8"/>
     </g>
     <g id="line2d_17">
      <g>
       <use xlink:href="#mb6203565bb" x="50.836875" y="158.402812" style="stroke: #000000; stroke-width: 0.8"/>
      </g>
     </g>
     <g id="text_12">
      <!-- 70 -->
      <g transform="translate(31.111875 162.202031) scale(0.1 -0.1)">
       <defs>
        <path id="DejaVuSans-37" d="M 525 4666 
L 3525 4666 
L 3525 4397 
L 1831 0 
L 1172 0 
L 2766 4134 
L 525 4134 
L 525 4666 
z
" transform="scale(0.015625)"/>
       </defs>
       <use xlink:href="#DejaVuSans-37"/>
       <use xlink:href="#DejaVuSans-30" x="63.623047"/>
      </g>
     </g>
    </g>
    <g id="ytick_7">
     <g id="line2d_18">
      <path d="M 50.836875 113.547812 
L 417.566875 113.547812 
" clip-path="url(#pb51fbf177a)" style="fill: none; stroke-dasharray: 2.96,1.28; stroke-dashoffset: 0; stroke: #c0c0c0; stroke-width: 0.8"/>
     </g>
     <g id="line2d_19">
      <g>
       <use xlink:href="#mb6203565bb" x="50.836875" y="113.547812" style="stroke: #000000; stroke-width: 0.8"/>
      </g>
     </g>
     <g id="text_13">
      <!-- 80 -->
      <g transform="translate(31.111875 117.347031) scale(0.1 -0.1)">
       <use xlink:href="#DejaVuSans-38"/>
       <use xlink:href="#DejaVuSans-30" x="63.623047"/>
      </g>
     </g>
    </g>
    <g id="ytick_8">
     <g id="line2d_20">
      <path d="M 50.836875 68.692812 
L 417.566875 68.692812 
" clip-path="url(#pb51fbf177a)" style="fill: none; stroke-dasharray: 2.96,1.28; stroke-dashoffset: 0; stroke: #c0c0c0; stroke-width: 0.8"/>
     </g>
     <g id="line2d_21">
      <g>
       <use xlink:href="#mb6203565bb" x="50.836875" y="68.692812" style="stroke: #000000; stroke-width: 0.8"/>
      </g>
     </g>
     <g id="text_14">
      <!-- 90 -->
      <g transform="translate(31.111875 72.492031) scale(0.1 -0.1)">
       <defs>
        <path id="DejaVuSans-39" d="M 703 97 
L 703 672 
Q 941 559 1184 500 
Q 1428 441 1663 441 
Q 2288 441 2617 861 
Q 2947 1281 2994 2138 
Q 2813 1869 2534 1725 
Q 2256 1581 1919 1581 
Q 1219 1581 811 2004 
Q 403 2428 403 3163 
Q 403 3881 828 4315 
Q 1253 4750 1959 4750 
Q 2769 4750 3195 4129 
Q 3622 3509 3622 2328 
Q 3622 1225 3098 567 
Q 2575 -91 1691 -91 
Q 1453 -91 1209 -44 
Q 966 3 703 97 
z
M 1959 2075 
Q 2384 2075 2632 2365 
Q 2881 2656 2881 3163 
Q 2881 3666 2632 3958 
Q 2384 4250 1959 4250 
Q 1534 4250 1286 3958 
Q 1038 3666 1038 3163 
Q 1038 2656 1286 2365 
Q 1534 2075 1959 2075 
z
" transform="scale(0.015625)"/>
       </defs>
       <use xlink:href="#DejaVuSans-39"/>
       <use xlink:href="#DejaVuSans-30" x="63.623047"/>
      </g>
     </g>
    </g>
    <g id="ytick_9">
     <g id="line2d_22">
      <path d="M 50.836875 23.837812 
L 417.566875 23.837812 
" clip-path="url(#pb51fbf177a)" style="fill: none; stroke-dasharray: 2.96,1.28; stroke-dashoffset: 0; stroke: #c0c0c0; stroke-width: 0.8"/>
     </g>
     <g id="line2d_23">
      <g>
       <use xlink:href="#mb6203565bb" x="50.836875" y="23.837812" style="stroke: #000000; stroke-width: 0.8"/>
      </g>
     </g>
     <g id="text_15">
      <!-- 100 -->
      <g transform="translate(24.749375 27.637031) scale(0.1 -0.1)">
       <defs>
        <path id="DejaVuSans-31" d="M 794 531 
L 1825 531 
L 1825 4091 
L 703 3866 
L 703 4441 
L 1819 4666 
L 2450 4666 
L 2450 531 
L 3481 531 
L 3481 0 
L 794 0 
L 794 531 
z
" transform="scale(0.015625)"/>
       </defs>
       <use xlink:href="#DejaVuSans-31"/>
       <use xlink:href="#DejaVuSans-30" x="63.623047"/>
       <use xlink:href="#DejaVuSans-30" x="127.246094"/>
      </g>
     </g>
    </g>
    <g id="text_16">
     <!-- Success Rate (%) -->
     <g transform="translate(17.837812 264.04625) rotate(-90) scale(0.14 -0.14)">
      <defs>
       <path id="DejaVuSans-53" d="M 3425 4513 
L 3425 3897 
Q 3066 4069 2747 4153 
Q 2428 4238 2131 4238 
Q 1616 4238 1336 4038 
Q 1056 3838 1056 3469 
Q 1056 3159 1242 3001 
Q 1428 2844 1947 2747 
L 2328 2669 
Q 3034 2534 3370 2195 
Q 3706 1856 3706 1288 
Q 3706 609 3251 259 
Q 2797 -91 1919 -91 
Q 1588 -91 1214 -16 
Q 841 59 441 206 
L 441 856 
Q 825 641 1194 531 
Q 1563 422 1919 422 
Q 2459 422 2753 634 
Q 3047 847 3047 1241 
Q 3047 1584 2836 1778 
Q 2625 1972 2144 2069 
L 1759 2144 
Q 1053 2284 737 2584 
Q 422 2884 422 3419 
Q 422 4038 858 4394 
Q 1294 4750 2059 4750 
Q 2388 4750 2728 4690 
Q 3069 4631 3425 4513 
z
" transform="scale(0.015625)"/>
       <path id="DejaVuSans-52" d="M 2841 2188 
Q 3044 2119 3236 1894 
Q 3428 1669 3622 1275 
L 4263 0 
L 3584 0 
L 2988 1197 
Q 2756 1666 2539 1819 
Q 2322 1972 1947 1972 
L 1259 1972 
L 1259 0 
L 628 0 
L 628 4666 
L 2053 4666 
Q 2853 4666 3247 4331 
Q 3641 3997 3641 3322 
Q 3641 2881 3436 2590 
Q 3231 2300 2841 2188 
z
M 1259 4147 
L 1259 2491 
L 2053 2491 
Q 2509 2491 2742 2702 
Q 2975 2913 2975 3322 
Q 2975 3731 2742 3939 
Q 2509 4147 2053 4147 
L 1259 4147 
z
" transform="scale(0.015625)"/>
       <path id="DejaVuSans-28" d="M 1984 4856 
Q 1566 4138 1362 3434 
Q 1159 2731 1159 2009 
Q 1159 1288 1364 580 
Q 1569 -128 1984 -844 
L 1484 -844 
Q 1016 -109 783 600 
Q 550 1309 550 2009 
Q 550 2706 781 3412 
Q 1013 4119 1484 4856 
L 1984 4856 
z
" transform="scale(0.015625)"/>
       <path id="DejaVuSans-25" d="M 4653 2053 
Q 4381 2053 4226 1822 
Q 4072 1591 4072 1178 
Q 4072 772 4226 539 
Q 4381 306 4653 306 
Q 4919 306 5073 539 
Q 5228 772 5228 1178 
Q 5228 1588 5073 1820 
Q 4919 2053 4653 2053 
z
M 4653 2450 
Q 5147 2450 5437 2106 
Q 5728 1763 5728 1178 
Q 5728 594 5436 251 
Q 5144 -91 4653 -91 
Q 4153 -91 3862 251 
Q 3572 594 3572 1178 
Q 3572 1766 3864 2108 
Q 4156 2450 4653 2450 
z
M 1428 4353 
Q 1159 4353 1004 4120 
Q 850 3888 850 3481 
Q 850 3069 1003 2837 
Q 1156 2606 1428 2606 
Q 1700 2606 1854 2837 
Q 2009 3069 2009 3481 
Q 2009 3884 1853 4118 
Q 1697 4353 1428 4353 
z
M 4250 4750 
L 4750 4750 
L 1831 -91 
L 1331 -91 
L 4250 4750 
z
M 1428 4750 
Q 1922 4750 2215 4408 
Q 2509 4066 2509 3481 
Q 2509 2891 2217 2550 
Q 1925 2209 1428 2209 
Q 931 2209 642 2551 
Q 353 2894 353 3481 
Q 353 4063 643 4406 
Q 934 4750 1428 4750 
z
" transform="scale(0.015625)"/>
       <path id="DejaVuSans-29" d="M 513 4856 
L 1013 4856 
Q 1481 4119 1714 3412 
Q 1947 2706 1947 2009 
Q 1947 1309 1714 600 
Q 1481 -109 1013 -844 
L 513 -844 
Q 928 -128 1133 580 
Q 1338 1288 1338 2009 
Q 1338 2731 1133 3434 
Q 928 4138 513 4856 
z
" transform="scale(0.015625)"/>
      </defs>
      <use xlink:href="#DejaVuSans-53"/>
      <use xlink:href="#DejaVuSans-75" x="63.476562"/>
      <use xlink:href="#DejaVuSans-63" x="126.855469"/>
      <use xlink:href="#DejaVuSans-63" x="181.835938"/>
      <use xlink:href="#DejaVuSans-65" x="236.816406"/>
      <use xlink:href="#DejaVuSans-73" x="298.339844"/>
      <use xlink:href="#DejaVuSans-73" x="350.439453"/>
      <use xlink:href="#DejaVuSans-20" x="402.539062"/>
      <use xlink:href="#DejaVuSans-52" x="434.326172"/>
      <use xlink:href="#DejaVuSans-61" x="501.558594"/>
      <use xlink:href="#DejaVuSans-74" x="562.837891"/>
      <use xlink:href="#DejaVuSans-65" x="602.046875"/>
      <use xlink:href="#DejaVuSans-20" x="663.570312"/>
      <use xlink:href="#DejaVuSans-28" x="695.357422"/>
      <use xlink:href="#DejaVuSans-25" x="734.371094"/>
      <use xlink:href="#DejaVuSans-29" x="829.390625"/>
     </g>
    </g>
   </g>
   <g id="PolyCollection_1">
    <defs>
     <path id="m3688328962" d="M 50.836875 -175.9925 
L 50.836875 -175.9925 
L 54.823071 -204.160999 
L 58.809266 -231.798196 
L 62.795462 -260.807078 
L 66.781658 -288.604802 
L 70.767853 -306.031894 
L 74.754049 -309.253942 
L 78.740245 -302.757265 
L 82.72644 -298.886233 
L 86.712636 -307.482408 
L 90.698832 -316.665408 
L 94.685027 -329.762604 
L 98.671223 -340.246217 
L 102.657418 -344.287973 
L 106.643614 -347.319945 
L 110.62981 -347.560356 
L 114.616005 -343.4496 
L 118.602201 -343.251656 
L 122.588397 -346.019955 
L 126.574592 -348.98381 
L 130.560788 -352.604103 
L 134.546984 -353.821963 
L 138.533179 -355.415263 
L 142.519375 -356.720747 
L 146.505571 -353.604138 
L 150.491766 -352.218533 
L 154.477962 -354.628969 
L 158.464158 -358.349677 
L 162.450353 -364.172648 
L 166.436549 -368.972322 
L 170.422745 -370.051229 
L 174.40894 -369.592932 
L 178.395136 -369.58501 
L 182.381332 -369.620278 
L 186.367527 -368.82424 
L 190.353723 -369.458245 
L 194.339918 -371.002504 
L 198.326114 -371.461686 
L 202.31231 -371.669403 
L 206.298505 -372.622516 
L 210.284701 -374.489216 
L 214.270897 -375.658962 
L 218.257092 -374.701626 
L 222.243288 -372.335471 
L 226.229484 -371.353883 
L 230.215679 -373.723051 
L 234.201875 -375.828659 
L 238.188071 -376.562005 
L 242.174266 -376.184524 
L 246.160462 -375.306488 
L 250.146658 -374.585755 
L 254.132853 -373.822269 
L 258.119049 -373.37939 
L 262.105245 -373.438705 
L 266.09144 -374.667371 
L 270.077636 -376.225831 
L 274.063832 -375.25995 
L 278.050027 -374.33416 
L 282.036223 -375.767217 
L 286.022418 -377.345749 
L 290.008614 -376.785408 
L 293.99481 -375.757901 
L 297.981005 -376.062874 
L 301.967201 -376.95156 
L 305.953397 -377.126155 
L 309.939592 -376.336905 
L 313.925788 -375.297646 
L 317.911984 -374.875453 
L 321.898179 -374.836965 
L 325.884375 -374.275092 
L 329.870571 -373.360022 
L 333.856766 -372.727141 
L 337.842962 -372.482574 
L 341.829158 -371.76025 
L 345.815353 -371.389351 
L 349.801549 -371.570535 
L 353.787745 -371.174345 
L 357.77394 -370.215625 
L 361.760136 -369.356448 
L 365.746332 -369.540965 
L 369.732527 -370.210951 
L 373.718723 -370.227954 
L 377.704918 -369.593143 
L 381.691114 -367.662014 
L 385.67731 -365.455374 
L 389.663505 -364.872566 
L 393.649701 -364.666272 
L 397.635897 -363.739383 
L 401.622092 -363.06065 
L 405.608288 -362.901952 
L 409.594484 -362.888735 
L 413.580679 -362.888333 
L 417.566875 -362.888333 
L 417.566875 -362.888333 
L 417.566875 -362.888333 
L 413.580679 -362.888333 
L 409.594484 -362.888047 
L 405.608288 -362.878582 
L 401.622092 -362.764032 
L 397.635897 -362.263944 
L 393.649701 -361.549523 
L 389.663505 -361.467775 
L 385.67731 -361.708326 
L 381.691114 -361.48865 
L 377.704918 -361.269703 
L 373.718723 -361.263893 
L 369.732527 -361.261492 
L 365.746332 -361.079305 
L 361.760136 -361.023099 
L 357.77394 -361.249238 
L 353.787745 -361.461202 
L 349.801549 -361.250049 
L 345.815353 -360.759925 
L 341.829158 -361.014902 
L 337.842962 -361.606292 
L 333.856766 -361.755888 
L 329.870571 -361.917618 
L 325.884375 -361.79759 
L 321.898179 -361.584229 
L 317.911984 -361.777065 
L 313.925788 -361.995262 
L 309.939592 -362.33204 
L 305.953397 -362.976012 
L 301.967201 -362.864821 
L 297.981005 -361.853249 
L 293.99481 -361.213888 
L 290.008614 -361.995738 
L 286.022418 -362.635367 
L 282.036223 -361.17321 
L 278.050027 -359.633924 
L 274.063832 -360.474124 
L 270.077636 -360.657757 
L 266.09144 -358.23245 
L 262.105245 -356.934884 
L 258.119049 -356.293612 
L 254.132853 -356.148065 
L 250.146658 -356.868369 
L 246.160462 -357.341182 
L 242.174266 -357.912356 
L 238.188071 -358.758175 
L 234.201875 -358.216778 
L 230.215679 -354.819928 
L 226.229484 -351.298308 
L 222.243288 -352.578532 
L 218.257092 -355.245073 
L 214.270897 -356.281792 
L 210.284701 -355.064998 
L 206.298505 -352.275973 
L 202.31231 -351.166193 
L 198.326114 -350.773577 
L 194.339918 -348.328443 
L 190.353723 -344.896789 
L 186.367527 -343.853974 
L 182.381332 -345.108016 
L 178.395136 -345.254177 
L 174.40894 -346.291904 
L 170.422745 -348.032797 
L 166.436549 -347.061441 
L 162.450353 -339.328151 
L 158.464158 -329.513827 
L 154.477962 -324.192185 
L 150.491766 -322.431661 
L 146.505571 -326.148943 
L 142.519375 -330.239204 
L 138.533179 -328.143447 
L 134.546984 -327.064061 
L 130.560788 -324.989066 
L 126.574592 -318.726237 
L 122.588397 -314.320641 
L 118.602201 -312.406569 
L 114.616005 -313.693321 
L 110.62981 -317.417766 
L 106.643614 -314.942296 
L 102.657418 -307.843828 
L 98.671223 -302.564274 
L 94.685027 -293.876122 
L 90.698832 -280.24572 
L 86.712636 -267.65128 
L 82.72644 -257.784784 
L 78.740245 -262.632882 
L 74.754049 -266.976243 
L 70.767853 -259.201209 
L 66.781658 -239.258012 
L 62.795462 -202.875368 
L 58.809266 -170.124592 
L 54.823071 -164.254597 
L 50.836875 -175.9925 
z
" style="stroke: #66a61e; stroke-opacity: 0.1"/>
    </defs>
    <g clip-path="url(#pb51fbf177a)">
     <use xlink:href="#m3688328962" x="0" y="424.105312" style="fill: #66a61e; fill-opacity: 0.1; stroke: #66a61e; stroke-opacity: 0.1"/>
    </g>
   </g>
   <g id="PolyCollection_2">
    <defs>
     <path id="mc0dbcacfa3" d="M 50.836875 -135.623 
L 50.836875 -135.623 
L 54.823071 -161.818812 
L 58.809266 -190.799607 
L 62.795462 -208.657804 
L 66.781658 -204.055066 
L 70.767853 -204.424913 
L 74.754049 -213.531657 
L 78.740245 -222.667766 
L 82.72644 -230.026921 
L 86.712636 -235.872234 
L 90.698832 -240.150913 
L 94.685027 -240.632461 
L 98.671223 -233.824928 
L 102.657418 -225.107977 
L 106.643614 -223.000052 
L 110.62981 -225.393841 
L 114.616005 -225.039665 
L 118.602201 -228.858644 
L 122.588397 -236.414637 
L 126.574592 -242.63119 
L 130.560788 -243.081121 
L 134.546984 -236.067316 
L 138.533179 -233.108101 
L 142.519375 -237.571622 
L 146.505571 -240.627637 
L 150.491766 -244.728164 
L 154.477962 -246.993879 
L 158.464158 -246.118945 
L 162.450353 -243.465306 
L 166.436549 -241.033047 
L 170.422745 -242.473984 
L 174.40894 -246.884259 
L 178.395136 -249.392046 
L 182.381332 -249.090584 
L 186.367527 -248.931626 
L 190.353723 -248.9536 
L 194.339918 -250.334152 
L 198.326114 -251.691455 
L 202.31231 -251.848014 
L 206.298505 -251.934939 
L 210.284701 -253.401957 
L 214.270897 -255.360261 
L 218.257092 -256.221705 
L 222.243288 -256.971845 
L 226.229484 -256.563838 
L 230.215679 -256.139451 
L 234.201875 -256.994393 
L 238.188071 -259.114955 
L 242.174266 -260.696874 
L 246.160462 -259.891225 
L 250.146658 -258.79526 
L 254.132853 -259.161671 
L 258.119049 -260.450678 
L 262.105245 -262.769469 
L 266.09144 -264.185374 
L 270.077636 -263.790607 
L 274.063832 -264.304766 
L 278.050027 -265.806536 
L 282.036223 -265.985864 
L 286.022418 -264.894138 
L 290.008614 -263.391112 
L 293.99481 -262.132901 
L 297.981005 -262.148382 
L 301.967201 -263.459332 
L 305.953397 -264.457154 
L 309.939592 -264.902699 
L 313.925788 -265.396612 
L 317.911984 -264.755628 
L 321.898179 -264.210654 
L 325.884375 -264.595784 
L 329.870571 -264.753037 
L 333.856766 -264.931461 
L 337.842962 -265.97804 
L 341.829158 -266.588513 
L 345.815353 -266.340023 
L 349.801549 -265.722382 
L 353.787745 -265.073528 
L 357.77394 -264.275248 
L 361.760136 -263.708866 
L 365.746332 -263.665463 
L 369.732527 -264.286735 
L 373.718723 -265.20752 
L 377.704918 -265.151576 
L 381.691114 -263.457413 
L 385.67731 -261.634435 
L 389.663505 -260.323046 
L 393.649701 -258.665667 
L 397.635897 -256.469878 
L 401.622092 -253.610187 
L 405.608288 -251.543539 
L 409.594484 -250.862373 
L 413.580679 -250.758126 
L 417.566875 -250.751022 
L 417.566875 -250.750624 
L 417.566875 -250.750624 
L 413.580679 -250.743708 
L 409.594484 -250.659456 
L 405.608288 -250.28148 
L 401.622092 -249.653575 
L 397.635897 -249.298715 
L 393.649701 -249.486894 
L 389.663505 -250.017337 
L 385.67731 -250.575401 
L 381.691114 -251.42616 
L 377.704918 -252.087883 
L 373.718723 -251.979056 
L 369.732527 -251.69668 
L 365.746332 -251.539334 
L 361.760136 -251.452902 
L 357.77394 -251.47021 
L 353.787745 -251.587576 
L 349.801549 -251.83169 
L 345.815353 -252.30425 
L 341.829158 -252.263533 
L 337.842962 -251.413407 
L 333.856766 -250.097268 
L 329.870571 -249.598438 
L 325.884375 -249.053579 
L 321.898179 -248.534019 
L 317.911984 -248.967275 
L 313.925788 -248.8546 
L 309.939592 -247.885413 
L 305.953397 -247.357622 
L 301.967201 -245.897192 
L 297.981005 -243.286233 
L 293.99481 -242.967742 
L 290.008614 -244.666258 
L 286.022418 -246.174625 
L 282.036223 -247.376323 
L 278.050027 -247.65244 
L 274.063832 -246.294681 
L 270.077636 -245.887985 
L 266.09144 -246.36332 
L 262.105245 -244.807971 
L 258.119049 -241.562019 
L 254.132853 -238.623228 
L 250.146658 -237.621206 
L 246.160462 -239.590055 
L 242.174266 -240.736911 
L 238.188071 -238.723544 
L 234.201875 -235.744768 
L 230.215679 -233.937694 
L 226.229484 -233.366545 
L 222.243288 -233.309841 
L 218.257092 -233.000155 
L 214.270897 -232.115651 
L 210.284701 -228.786382 
L 206.298505 -227.231816 
L 202.31231 -228.016635 
L 198.326114 -227.857154 
L 194.339918 -225.095775 
L 190.353723 -222.298898 
L 186.367527 -221.934911 
L 182.381332 -222.126574 
L 178.395136 -222.539037 
L 174.40894 -220.616675 
L 170.422745 -215.989613 
L 166.436549 -212.453827 
L 162.450353 -213.923303 
L 158.464158 -217.75727 
L 154.477962 -219.51361 
L 150.491766 -217.338989 
L 146.505571 -212.952827 
L 142.519375 -208.740585 
L 138.533179 -204.736364 
L 134.546984 -208.989118 
L 130.560788 -215.003168 
L 126.574592 -211.306865 
L 122.588397 -201.992668 
L 118.602201 -195.200785 
L 114.616005 -192.730666 
L 110.62981 -191.297379 
L 106.643614 -187.58427 
L 102.657418 -188.98415 
L 98.671223 -193.658436 
L 94.685027 -200.009373 
L 90.698832 -206.100375 
L 86.712636 -203.80858 
L 82.72644 -193.414398 
L 78.740245 -182.376578 
L 74.754049 -171.305047 
L 70.767853 -156.156023 
L 66.781658 -151.176363 
L 62.795462 -160.089348 
L 58.809266 -157.303494 
L 54.823071 -145.771935 
L 50.836875 -135.623 
z
" style="stroke: #e7298a; stroke-opacity: 0.1"/>
    </defs>
    <g clip-path="url(#pb51fbf177a)">
     <use xlink:href="#mc0dbcacfa3" x="0" y="424.105312" style="fill: #e7298a; fill-opacity: 0.1; stroke: #e7298a; stroke-opacity: 0.1"/>
    </g>
   </g>
   <g id="PolyCollection_3">
    <defs>
     <path id="mbdbe1072a0" d="M 50.836875 -122.1665 
L 50.836875 -122.1665 
L 54.823071 -141.369052 
L 58.809266 -160.095841 
L 62.795462 -173.405396 
L 66.781658 -176.873346 
L 70.767853 -175.847813 
L 74.754049 -172.064489 
L 78.740245 -173.148395 
L 82.72644 -180.064927 
L 86.712636 -181.863275 
L 90.698832 -179.12689 
L 94.685027 -180.615977 
L 98.671223 -184.343969 
L 102.657418 -183.290678 
L 106.643614 -182.369305 
L 110.62981 -183.725106 
L 114.616005 -186.421594 
L 118.602201 -189.960412 
L 122.588397 -190.602063 
L 126.574592 -189.764502 
L 130.560788 -190.572398 
L 134.546984 -190.926127 
L 138.533179 -191.343983 
L 142.519375 -193.508739 
L 146.505571 -194.358807 
L 150.491766 -192.43765 
L 154.477962 -191.542673 
L 158.464158 -193.486488 
L 162.450353 -194.273088 
L 166.436549 -193.950292 
L 170.422745 -195.791932 
L 174.40894 -198.374879 
L 178.395136 -200.022025 
L 182.381332 -201.193199 
L 186.367527 -201.428611 
L 190.353723 -200.796132 
L 194.339918 -200.974349 
L 198.326114 -202.737289 
L 202.31231 -203.929725 
L 206.298505 -203.906196 
L 210.284701 -204.150121 
L 214.270897 -205.417523 
L 218.257092 -206.435698 
L 222.243288 -206.120029 
L 226.229484 -206.087216 
L 230.215679 -207.244165 
L 234.201875 -208.530867 
L 238.188071 -208.555464 
L 242.174266 -207.937729 
L 246.160462 -208.013789 
L 250.146658 -208.205686 
L 254.132853 -209.092174 
L 258.119049 -210.177445 
L 262.105245 -210.220761 
L 266.09144 -210.413797 
L 270.077636 -210.574581 
L 274.063832 -209.996726 
L 278.050027 -210.015824 
L 282.036223 -211.104082 
L 286.022418 -212.355586 
L 290.008614 -212.403629 
L 293.99481 -211.641612 
L 297.981005 -211.245768 
L 301.967201 -211.762634 
L 305.953397 -212.560964 
L 309.939592 -213.191135 
L 313.925788 -213.641022 
L 317.911984 -213.398333 
L 321.898179 -213.023603 
L 325.884375 -213.454897 
L 329.870571 -213.919966 
L 333.856766 -213.889509 
L 337.842962 -213.856335 
L 341.829158 -213.722478 
L 345.815353 -213.562859 
L 349.801549 -213.712948 
L 353.787745 -214.128765 
L 357.77394 -214.481751 
L 361.760136 -214.545135 
L 365.746332 -214.412291 
L 369.732527 -214.244293 
L 373.718723 -214.148424 
L 377.704918 -213.756292 
L 381.691114 -213.174374 
L 385.67731 -212.794835 
L 389.663505 -212.52708 
L 393.649701 -212.078328 
L 397.635897 -211.361792 
L 401.622092 -210.772332 
L 405.608288 -210.540893 
L 409.594484 -210.49952 
L 413.580679 -210.496434 
L 417.566875 -210.496346 
L 417.566875 -210.496346 
L 417.566875 -210.496346 
L 413.580679 -210.496249 
L 409.594484 -210.493002 
L 405.608288 -210.452592 
L 401.622092 -210.261106 
L 397.635897 -209.898972 
L 393.649701 -209.603829 
L 389.663505 -209.496216 
L 385.67731 -209.477056 
L 381.691114 -209.428439 
L 377.704918 -209.274564 
L 373.718723 -209.026668 
L 369.732527 -208.816519 
L 365.746332 -208.591599 
L 361.760136 -208.114493 
L 357.77394 -207.443615 
L 353.787745 -206.655971 
L 349.801549 -206.291548 
L 345.815353 -206.537711 
L 341.829158 -206.481908 
L 337.842962 -206.125591 
L 333.856766 -205.905034 
L 329.870571 -205.609525 
L 325.884375 -204.654908 
L 321.898179 -204.144167 
L 317.911984 -204.622167 
L 313.925788 -204.650037 
L 309.939592 -203.87582 
L 305.953397 -202.940214 
L 301.967201 -201.815122 
L 297.981005 -201.511367 
L 293.99481 -202.415473 
L 290.008614 -203.07769 
L 286.022418 -202.703777 
L 282.036223 -201.192468 
L 278.050027 -199.937533 
L 274.063832 -199.99124 
L 270.077636 -200.705354 
L 266.09144 -200.55474 
L 262.105245 -200.297549 
L 258.119049 -199.924632 
L 254.132853 -198.439417 
L 250.146658 -197.474131 
L 246.160462 -197.213005 
L 242.174266 -196.890204 
L 238.188071 -197.459794 
L 234.201875 -197.200848 
L 230.215679 -195.209207 
L 226.229484 -193.590642 
L 222.243288 -193.45358 
L 218.257092 -193.92542 
L 214.270897 -193.449278 
L 210.284701 -192.651151 
L 206.298505 -192.55818 
L 202.31231 -192.351944 
L 198.326114 -190.36573 
L 194.339918 -187.313701 
L 190.353723 -185.940352 
L 186.367527 -186.736992 
L 182.381332 -186.995837 
L 178.395136 -185.708428 
L 174.40894 -183.837758 
L 170.422745 -180.985448 
L 166.436549 -178.932425 
L 162.450353 -179.798213 
L 158.464158 -179.591554 
L 154.477962 -177.256357 
L 150.491766 -177.078189 
L 146.505571 -178.364538 
L 142.519375 -177.343877 
L 138.533179 -175.288715 
L 134.546984 -174.44439 
L 130.560788 -172.609726 
L 126.574592 -171.209808 
L 122.588397 -173.392388 
L 118.602201 -173.072733 
L 114.616005 -169.008708 
L 110.62981 -166.048224 
L 106.643614 -164.288935 
L 102.657418 -164.300509 
L 98.671223 -164.766403 
L 94.685027 -159.859578 
L 90.698832 -157.99397 
L 86.712636 -162.91896 
L 82.72644 -162.973301 
L 78.740245 -156.155627 
L 74.754049 -153.172597 
L 70.767853 -154.469326 
L 66.781658 -153.489762 
L 62.795462 -150.499626 
L 58.809266 -141.261238 
L 54.823071 -130.636177 
L 50.836875 -122.1665 
z
" style="stroke: #7570b3; stroke-opacity: 0.1"/>
    </defs>
    <g clip-path="url(#pb51fbf177a)">
     <use xlink:href="#mbdbe1072a0" x="0" y="424.105312" style="fill: #7570b3; fill-opacity: 0.1; stroke: #7570b3; stroke-opacity: 0.1"/>
    </g>
   </g>
   <g id="PolyCollection_4">
    <defs>
     <path id="maabc6c6b17" d="M 50.836875 -99.739 
L 50.836875 -99.739 
L 54.823071 -104.237377 
L 58.809266 -118.179792 
L 62.795462 -143.563589 
L 66.781658 -161.573376 
L 70.767853 -165.389119 
L 74.754049 -169.457434 
L 78.740245 -175.847286 
L 82.72644 -178.750776 
L 86.712636 -179.638616 
L 90.698832 -181.172532 
L 94.685027 -179.222698 
L 98.671223 -171.489789 
L 102.657418 -168.599196 
L 106.643614 -177.379049 
L 110.62981 -185.35752 
L 114.616005 -185.731962 
L 118.602201 -184.365821 
L 122.588397 -184.685204 
L 126.574592 -181.360663 
L 130.560788 -177.385906 
L 134.546984 -176.424882 
L 138.533179 -179.100373 
L 142.519375 -177.509527 
L 146.505571 -171.644672 
L 150.491766 -170.309486 
L 154.477962 -174.069001 
L 158.464158 -177.39218 
L 162.450353 -177.227752 
L 166.436549 -175.380264 
L 170.422745 -173.936801 
L 174.40894 -174.930078 
L 178.395136 -175.793971 
L 182.381332 -174.046042 
L 186.367527 -175.138773 
L 190.353723 -176.100894 
L 194.339918 -174.319544 
L 198.326114 -169.894321 
L 202.31231 -166.812486 
L 206.298505 -167.629777 
L 210.284701 -168.148589 
L 214.270897 -167.021406 
L 218.257092 -167.241351 
L 222.243288 -168.007284 
L 226.229484 -166.685915 
L 230.215679 -165.556231 
L 234.201875 -167.101454 
L 238.188071 -169.089649 
L 242.174266 -169.376243 
L 246.160462 -169.503685 
L 250.146658 -169.357687 
L 254.132853 -167.285067 
L 258.119049 -165.201322 
L 262.105245 -163.937475 
L 266.09144 -164.947916 
L 270.077636 -167.06317 
L 274.063832 -168.369138 
L 278.050027 -168.334918 
L 282.036223 -166.166746 
L 286.022418 -164.390681 
L 290.008614 -165.147976 
L 293.99481 -165.510979 
L 297.981005 -164.253891 
L 301.967201 -163.113798 
L 305.953397 -162.859861 
L 309.939592 -162.271748 
L 313.925788 -161.947637 
L 317.911984 -161.190979 
L 321.898179 -161.361706 
L 325.884375 -162.583806 
L 329.870571 -163.306748 
L 333.856766 -163.07058 
L 337.842962 -161.688244 
L 341.829158 -160.225503 
L 345.815353 -160.392502 
L 349.801549 -161.229339 
L 353.787745 -160.82388 
L 357.77394 -159.373515 
L 361.760136 -157.280735 
L 365.746332 -155.404952 
L 369.732527 -153.995165 
L 373.718723 -153.607713 
L 377.704918 -154.626684 
L 381.691114 -154.902963 
L 385.67731 -153.806685 
L 389.663505 -152.603948 
L 393.649701 -151.66604 
L 397.635897 -151.186148 
L 401.622092 -151.081838 
L 405.608288 -151.073313 
L 409.594484 -151.073056 
L 413.580679 -151.073056 
L 417.566875 -151.073056 
L 417.566875 -151.073056 
L 417.566875 -151.073056 
L 413.580679 -151.073056 
L 409.594484 -151.073056 
L 405.608288 -151.072773 
L 401.622092 -151.063432 
L 397.635897 -150.949486 
L 393.649701 -150.435259 
L 389.663505 -149.546835 
L 385.67731 -148.840562 
L 381.691114 -148.533822 
L 377.704918 -148.891094 
L 373.718723 -149.371616 
L 369.732527 -148.966453 
L 365.746332 -148.40757 
L 361.760136 -148.354551 
L 357.77394 -148.602517 
L 353.787745 -148.899573 
L 349.801549 -149.028613 
L 345.815353 -148.782777 
L 341.829158 -148.734228 
L 337.842962 -149.194216 
L 333.856766 -149.646996 
L 329.870571 -149.712031 
L 325.884375 -149.386204 
L 321.898179 -148.741674 
L 317.911984 -148.56793 
L 313.925788 -149.136007 
L 309.939592 -149.440601 
L 305.953397 -149.191291 
L 301.967201 -148.663082 
L 297.981005 -149.033826 
L 293.99481 -149.685785 
L 290.008614 -149.935896 
L 286.022418 -149.393533 
L 282.036223 -149.565687 
L 278.050027 -150.815691 
L 274.063832 -150.92746 
L 270.077636 -149.95659 
L 266.09144 -149.222294 
L 262.105245 -148.834677 
L 258.119049 -148.984576 
L 254.132853 -149.584529 
L 250.146658 -150.559042 
L 246.160462 -150.769707 
L 242.174266 -151.110606 
L 238.188071 -150.455165 
L 234.201875 -147.996667 
L 230.215679 -146.521397 
L 226.229484 -146.885569 
L 222.243288 -148.321581 
L 218.257092 -148.318299 
L 214.270897 -147.246607 
L 210.284701 -146.535335 
L 206.298505 -145.661821 
L 202.31231 -145.879922 
L 198.326114 -147.731864 
L 194.339918 -149.733434 
L 190.353723 -151.243043 
L 186.367527 -151.022231 
L 182.381332 -149.745775 
L 178.395136 -151.613853 
L 174.40894 -150.940992 
L 170.422745 -148.878507 
L 166.436549 -147.579646 
L 162.450353 -147.064087 
L 158.464158 -146.708089 
L 154.477962 -145.35841 
L 150.491766 -143.439211 
L 146.505571 -143.372719 
L 142.519375 -147.547294 
L 138.533179 -148.53493 
L 134.546984 -144.311804 
L 130.560788 -143.250129 
L 126.574592 -145.286048 
L 122.588397 -146.407769 
L 118.602201 -146.862732 
L 114.616005 -150.578489 
L 110.62981 -152.163958 
L 106.643614 -142.835556 
L 102.657418 -132.042554 
L 98.671223 -132.950454 
L 94.685027 -135.942335 
L 90.698832 -135.505216 
L 86.712636 -132.014841 
L 82.72644 -129.46109 
L 78.740245 -130.28913 
L 74.754049 -129.196323 
L 70.767853 -124.150754 
L 66.781658 -116.784443 
L 62.795462 -99.907505 
L 58.809266 -83.322832 
L 54.823071 -84.989736 
L 50.836875 -99.739 
z
" style="stroke: #d95f02; stroke-opacity: 0.1"/>
    </defs>
    <g clip-path="url(#pb51fbf177a)">
     <use xlink:href="#maabc6c6b17" x="0" y="424.105312" style="fill: #d95f02; fill-opacity: 0.1; stroke: #d95f02; stroke-opacity: 0.1"/>
    </g>
   </g>
   <g id="PolyCollection_5">
    <defs>
     <path id="ma6fb7298ac" d="M 50.836875 -99.739 
L 50.836875 -99.739 
L 54.823071 -101.681924 
L 58.809266 -108.53072 
L 62.795462 -124.42428 
L 66.781658 -144.04186 
L 70.767853 -155.347846 
L 74.754049 -152.317194 
L 78.740245 -145.569857 
L 82.72644 -144.896754 
L 86.712636 -146.312596 
L 90.698832 -149.88304 
L 94.685027 -153.339795 
L 98.671223 -154.031657 
L 102.657418 -156.244683 
L 106.643614 -154.824997 
L 110.62981 -145.999813 
L 114.616005 -137.555641 
L 118.602201 -134.105041 
L 122.588397 -134.980499 
L 126.574592 -139.761748 
L 130.560788 -143.971236 
L 134.546984 -141.234409 
L 138.533179 -136.289147 
L 142.519375 -135.035328 
L 146.505571 -133.41978 
L 150.491766 -132.875915 
L 154.477962 -135.740953 
L 158.464158 -137.867784 
L 162.450353 -136.727474 
L 166.436549 -135.727139 
L 170.422745 -135.841488 
L 174.40894 -133.560719 
L 178.395136 -132.758671 
L 182.381332 -136.204807 
L 186.367527 -137.647569 
L 190.353723 -135.271551 
L 194.339918 -131.810859 
L 198.326114 -131.060044 
L 202.31231 -132.806662 
L 206.298505 -132.895575 
L 210.284701 -132.788183 
L 214.270897 -134.338513 
L 218.257092 -133.693294 
L 222.243288 -132.191059 
L 226.229484 -131.964332 
L 230.215679 -130.719928 
L 234.201875 -130.47189 
L 238.188071 -131.603531 
L 242.174266 -131.756018 
L 246.160462 -133.311135 
L 250.146658 -134.129447 
L 254.132853 -133.20983 
L 258.119049 -132.303299 
L 262.105245 -130.939073 
L 266.09144 -129.19215 
L 270.077636 -129.415997 
L 274.063832 -131.043872 
L 278.050027 -131.479913 
L 282.036223 -131.361901 
L 286.022418 -131.834281 
L 290.008614 -132.078937 
L 293.99481 -131.078487 
L 297.981005 -131.140523 
L 301.967201 -132.177373 
L 305.953397 -131.870203 
L 309.939592 -130.998669 
L 313.925788 -130.289668 
L 317.911984 -129.34963 
L 321.898179 -128.806195 
L 325.884375 -129.385672 
L 329.870571 -129.884836 
L 333.856766 -130.252927 
L 337.842962 -130.816386 
L 341.829158 -130.822729 
L 345.815353 -130.372378 
L 349.801549 -130.186728 
L 353.787745 -130.506644 
L 357.77394 -131.012772 
L 361.760136 -131.094405 
L 365.746332 -130.996102 
L 369.732527 -131.198963 
L 373.718723 -131.427421 
L 377.704918 -131.48347 
L 381.691114 -131.474465 
L 385.67731 -131.500889 
L 389.663505 -131.443141 
L 393.649701 -131.27406 
L 397.635897 -131.164309 
L 401.622092 -131.139593 
L 405.608288 -131.137561 
L 409.594484 -131.1375 
L 413.580679 -131.1375 
L 417.566875 -131.1375 
L 417.566875 -131.1375 
L 417.566875 -131.1375 
L 413.580679 -131.1375 
L 409.594484 -131.1375 
L 405.608288 -131.137238 
L 401.622092 -131.128549 
L 397.635897 -131.022312 
L 393.649701 -130.535909 
L 389.663505 -129.618517 
L 385.67731 -128.620541 
L 381.691114 -127.874826 
L 377.704918 -127.375711 
L 373.718723 -126.569319 
L 369.732527 -125.850243 
L 365.746332 -125.341321 
L 361.760136 -125.30923 
L 357.77394 -124.793226 
L 353.787745 -123.632373 
L 349.801549 -122.961813 
L 345.815353 -122.994567 
L 341.829158 -123.052736 
L 337.842962 -122.338356 
L 333.856766 -121.248381 
L 329.870571 -120.714946 
L 325.884375 -119.860277 
L 321.898179 -118.472707 
L 317.911984 -118.661256 
L 313.925788 -119.301607 
L 309.939592 -119.798472 
L 305.953397 -120.938454 
L 301.967201 -121.481456 
L 297.981005 -120.154734 
L 293.99481 -119.150242 
L 290.008614 -119.425252 
L 286.022418 -119.527364 
L 282.036223 -118.878198 
L 278.050027 -118.263244 
L 274.063832 -116.989776 
L 270.077636 -114.722559 
L 266.09144 -114.246811 
L 262.105245 -115.783489 
L 258.119049 -116.236237 
L 254.132853 -115.665378 
L 250.146658 -115.652692 
L 246.160462 -115.049111 
L 242.174266 -113.691344 
L 238.188071 -113.083426 
L 234.201875 -111.11212 
L 230.215679 -110.660561 
L 226.229484 -112.157749 
L 222.243288 -113.047838 
L 218.257092 -114.212095 
L 214.270897 -113.752091 
L 210.284701 -111.336611 
L 206.298505 -111.163212 
L 202.31231 -111.587003 
L 198.326114 -110.118764 
L 194.339918 -109.450882 
L 190.353723 -111.437108 
L 186.367527 -113.581711 
L 182.381332 -113.325328 
L 178.395136 -110.432905 
L 174.40894 -110.029509 
L 170.422745 -111.743165 
L 166.436549 -111.862597 
L 162.450353 -112.641235 
L 158.464158 -114.306088 
L 154.477962 -112.931555 
L 150.491766 -110.028116 
L 146.505571 -111.368585 
L 142.519375 -113.735345 
L 138.533179 -112.585708 
L 134.546984 -113.140321 
L 130.560788 -114.129438 
L 126.574592 -108.084762 
L 122.588397 -100.933287 
L 118.602201 -101.228404 
L 114.616005 -106.240252 
L 110.62981 -112.571958 
L 106.643614 -117.509933 
L 102.657418 -119.552563 
L 98.671223 -119.166716 
L 94.685027 -116.814436 
L 90.698832 -115.48202 
L 86.712636 -114.571079 
L 82.72644 -111.182123 
L 78.740245 -109.828091 
L 74.754049 -117.060847 
L 70.767853 -123.885371 
L 66.781658 -113.926969 
L 62.795462 -99.795168 
L 58.809266 -97.36619 
L 54.823071 -99.289628 
L 50.836875 -99.739 
z
" style="stroke: #1b9e77; stroke-opacity: 0.1"/>
    </defs>
    <g clip-path="url(#pb51fbf177a)">
     <use xlink:href="#ma6fb7298ac" x="0" y="424.105312" style="fill: #1b9e77; fill-opacity: 0.1; stroke: #1b9e77; stroke-opacity: 0.1"/>
    </g>
   </g>
   <g id="line2d_24">
    <path d="M 50.836875 248.112812 
L 54.823071 233.246448 
L 58.809266 212.864984 
L 62.795462 182.608805 
L 66.781658 151.94944 
L 70.767853 133.683647 
L 74.754049 128.943937 
L 78.740245 134.722842 
L 82.72644 138.919562 
L 86.712636 129.899947 
L 90.698832 119.579801 
L 94.685027 106.304869 
L 98.671223 96.419743 
L 102.657418 91.965388 
L 106.643614 87.577917 
L 110.62981 86.592487 
L 114.616005 90.574472 
L 118.602201 91.135352 
L 122.588397 88.651796 
L 126.574592 85.20736 
L 130.560788 80.706222 
L 134.546984 79.20265 
L 138.533179 77.780655 
L 142.519375 76.211746 
L 146.505571 79.652906 
L 150.491766 81.815737 
L 154.477962 79.621938 
L 158.464158 75.367585 
L 162.450353 68.214163 
L 166.436549 62.436618 
L 170.422745 61.393561 
L 174.40894 62.27939 
L 178.395136 62.63058 
L 182.381332 62.655789 
L 186.367527 63.604494 
L 190.353723 62.83422 
L 194.339918 60.660829 
L 198.326114 59.539663 
L 202.31231 59.270313 
L 206.298505 58.264978 
L 210.284701 56.090836 
L 214.270897 54.905407 
L 218.257092 55.889204 
L 222.243288 58.355488 
L 226.229484 59.436622 
L 230.215679 56.683302 
L 234.201875 54.147281 
L 238.188071 53.477917 
L 242.174266 54.011511 
L 246.160462 54.78726 
L 250.146658 55.425353 
L 254.132853 56.174445 
L 258.119049 56.421182 
L 262.105245 56.167881 
L 266.09144 54.916249 
L 270.077636 53.06884 
L 274.063832 53.773971 
L 278.050027 54.671231 
L 282.036223 53.202764 
L 286.022418 51.663024 
L 290.008614 52.249795 
L 293.99481 53.195416 
L 297.981005 52.77898 
L 301.967201 51.849332 
L 305.953397 51.695871 
L 309.939592 52.436696 
L 313.925788 53.241795 
L 317.911984 53.595989 
L 321.898179 53.685926 
L 325.884375 53.989388 
L 329.870571 54.559425 
L 333.856766 55.035256 
L 337.842962 55.248166 
L 341.829158 55.926845 
L 345.815353 56.259103 
L 349.801549 55.97494 
L 353.787745 56.168682 
L 357.77394 56.878483 
L 361.760136 57.526647 
L 365.746332 57.384901 
L 369.732527 56.877514 
L 373.718723 56.865379 
L 377.704918 57.286649 
L 381.691114 58.501086 
L 385.67731 59.898954 
L 389.663505 60.367677 
L 393.649701 60.477957 
L 397.635897 60.857743 
L 401.622092 61.143535 
L 405.608288 61.21115 
L 409.594484 61.216807 
L 413.580679 61.216979 
L 417.566875 61.216979 
" clip-path="url(#pb51fbf177a)" style="fill: none; stroke: #66a61e; stroke-width: 2; stroke-linecap: square"/>
   </g>
   <g id="line2d_25">
    <path d="M 50.836875 248.112812 
L 54.823071 219.944314 
L 58.809266 192.307116 
L 62.795462 163.298235 
L 66.781658 135.50051 
L 70.767853 118.073419 
L 74.754049 114.851371 
L 78.740245 121.348047 
L 82.72644 125.219079 
L 86.712636 116.622904 
L 90.698832 107.439905 
L 94.685027 94.342708 
L 98.671223 83.859096 
L 102.657418 79.81734 
L 106.643614 76.785368 
L 110.62981 76.544957 
L 114.616005 80.655712 
L 118.602201 80.853657 
L 122.588397 78.085358 
L 126.574592 75.121502 
L 130.560788 71.501209 
L 134.546984 70.28335 
L 138.533179 68.690049 
L 142.519375 67.384565 
L 146.505571 70.501174 
L 150.491766 71.88678 
L 154.477962 69.476343 
L 158.464158 65.755635 
L 162.450353 59.932664 
L 166.436549 55.132991 
L 170.422745 54.054083 
L 174.40894 54.512381 
L 178.395136 54.520302 
L 182.381332 54.485034 
L 186.367527 55.281072 
L 190.353723 54.647068 
L 194.339918 53.102808 
L 198.326114 52.643627 
L 202.31231 52.43591 
L 206.298505 51.482797 
L 210.284701 49.616096 
L 214.270897 48.44635 
L 218.257092 49.403686 
L 222.243288 51.769841 
L 226.229484 52.75143 
L 230.215679 50.382261 
L 234.201875 48.276654 
L 238.188071 47.543307 
L 242.174266 47.920789 
L 246.160462 48.798824 
L 250.146658 49.519557 
L 254.132853 50.283043 
L 258.119049 50.725923 
L 262.105245 50.666608 
L 266.09144 49.437942 
L 270.077636 47.879482 
L 274.063832 48.845363 
L 278.050027 49.771153 
L 282.036223 48.338095 
L 286.022418 46.759563 
L 290.008614 47.319905 
L 293.99481 48.347412 
L 297.981005 48.042438 
L 301.967201 47.153752 
L 305.953397 46.979157 
L 309.939592 47.768408 
L 313.925788 48.807667 
L 317.911984 49.229859 
L 321.898179 49.268347 
L 325.884375 49.830221 
L 329.870571 50.74529 
L 333.856766 51.378172 
L 337.842962 51.622739 
L 341.829158 52.345062 
L 345.815353 52.715961 
L 349.801549 52.534778 
L 353.787745 52.930968 
L 357.77394 53.889687 
L 361.760136 54.748864 
L 365.746332 54.564348 
L 369.732527 53.894361 
L 373.718723 53.877359 
L 377.704918 54.512169 
L 381.691114 56.443298 
L 385.67731 58.649938 
L 389.663505 59.232747 
L 393.649701 59.43904 
L 397.635897 60.36593 
L 401.622092 61.044663 
L 405.608288 61.20336 
L 409.594484 61.216577 
L 413.580679 61.216979 
L 417.566875 61.216979 
" clip-path="url(#pb51fbf177a)" style="fill: none; stroke-dasharray: 3.7,1.6; stroke-dashoffset: 0; stroke: #66a61e"/>
   </g>
   <g id="line2d_26">
    <path d="M 50.836875 248.112812 
L 54.823071 259.850716 
L 58.809266 253.98072 
L 62.795462 221.229945 
L 66.781658 184.8473 
L 70.767853 164.904103 
L 74.754049 157.129069 
L 78.740245 161.472431 
L 82.72644 166.320528 
L 86.712636 156.454032 
L 90.698832 143.859593 
L 94.685027 130.229191 
L 98.671223 121.541039 
L 102.657418 116.261484 
L 106.643614 109.163016 
L 110.62981 106.687547 
L 114.616005 110.411991 
L 118.602201 111.698744 
L 122.588397 109.784672 
L 126.574592 105.379076 
L 130.560788 99.116247 
L 134.546984 97.041251 
L 138.533179 95.961865 
L 142.519375 93.866108 
L 146.505571 97.95637 
L 150.491766 101.673651 
L 154.477962 99.913127 
L 158.464158 94.591485 
L 162.450353 84.777162 
L 166.436549 77.043872 
L 170.422745 76.072515 
L 174.40894 77.813408 
L 178.395136 78.851136 
L 182.381332 78.997297 
L 186.367527 80.251338 
L 190.353723 79.208523 
L 194.339918 75.77687 
L 198.326114 73.331735 
L 202.31231 72.93912 
L 206.298505 71.82934 
L 210.284701 69.040315 
L 214.270897 67.823521 
L 218.257092 68.86024 
L 222.243288 71.52678 
L 226.229484 72.807005 
L 230.215679 69.285385 
L 234.201875 65.888535 
L 238.188071 65.347138 
L 242.174266 66.192957 
L 246.160462 66.764131 
L 250.146658 67.236944 
L 254.132853 67.957247 
L 258.119049 67.8117 
L 262.105245 67.170429 
L 266.09144 65.872863 
L 270.077636 63.447556 
L 274.063832 63.631188 
L 278.050027 64.471388 
L 282.036223 62.932103 
L 286.022418 61.469946 
L 290.008614 62.109574 
L 293.99481 62.891424 
L 297.981005 62.252064 
L 301.967201 61.240491 
L 305.953397 61.1293 
L 309.939592 61.773273 
L 313.925788 62.110051 
L 317.911984 62.328247 
L 321.898179 62.521084 
L 325.884375 62.307723 
L 329.870571 62.187695 
L 333.856766 62.349424 
L 337.842962 62.499021 
L 341.829158 63.09041 
L 345.815353 63.345387 
L 349.801549 62.855264 
L 353.787745 62.644111 
L 357.77394 62.856074 
L 361.760136 63.082213 
L 365.746332 63.026008 
L 369.732527 62.84382 
L 373.718723 62.84142 
L 377.704918 62.835609 
L 381.691114 62.616662 
L 385.67731 62.396987 
L 389.663505 62.637537 
L 393.649701 62.555789 
L 397.635897 61.841369 
L 401.622092 61.341281 
L 405.608288 61.226731 
L 409.594484 61.217266 
L 413.580679 61.216979 
L 417.566875 61.216979 
" clip-path="url(#pb51fbf177a)" style="fill: none; stroke-dasharray: 3.7,1.6; stroke-dashoffset: 0; stroke: #66a61e"/>
   </g>
   <g id="line2d_27">
    <path d="M 50.836875 288.482312 
L 54.823071 267.63546 
L 58.809266 244.471077 
L 62.795462 231.636994 
L 66.781658 237.676481 
L 70.767853 235.770029 
L 74.754049 224.649193 
L 78.740245 214.867942 
L 82.72644 206.282566 
L 86.712636 198.920964 
L 90.698832 195.304579 
L 94.685027 197.013881 
L 98.671223 203.669215 
L 102.657418 211.038611 
L 106.643614 212.910521 
L 110.62981 210.076959 
L 114.616005 209.835314 
L 118.602201 206.465955 
L 122.588397 199.164665 
L 126.574592 191.915564 
L 130.560788 190.383509 
L 134.546984 197.064063 
L 138.533179 200.454457 
L 142.519375 196.144036 
L 146.505571 192.702612 
L 150.491766 188.506874 
L 154.477962 186.271523 
L 158.464158 187.440259 
L 162.450353 190.487341 
L 166.436549 192.598672 
L 170.422745 190.459453 
L 174.40894 185.976915 
L 178.395136 183.66427 
L 182.381332 184.002732 
L 186.367527 184.172592 
L 190.353723 184.036613 
L 194.339918 182.183953 
L 198.326114 180.358625 
L 202.31231 180.201092 
L 206.298505 180.404748 
L 210.284701 178.908547 
L 214.270897 176.493255 
L 218.257092 175.624124 
L 222.243288 175.020802 
L 226.229484 175.273906 
L 230.215679 175.366447 
L 234.201875 174.194128 
L 238.188071 171.787494 
L 242.174266 170.06176 
L 246.160462 170.981144 
L 250.146658 172.368071 
L 254.132853 171.789789 
L 258.119049 169.950854 
L 262.105245 167.32301 
L 266.09144 165.860623 
L 270.077636 166.282246 
L 274.063832 165.803908 
L 278.050027 164.350141 
L 282.036223 164.322629 
L 286.022418 165.451012 
L 290.008614 166.955818 
L 293.99481 168.360798 
L 297.981005 168.244313 
L 301.967201 166.500027 
L 305.953397 165.348002 
L 309.939592 164.875042 
L 313.925788 164.222704 
L 317.911984 164.612469 
L 321.898179 165.120203 
L 325.884375 164.690263 
L 329.870571 164.403809 
L 333.856766 164.118583 
L 337.842962 162.98215 
L 341.829158 162.291793 
L 345.815353 162.443881 
L 349.801549 163.013161 
L 353.787745 163.527102 
L 357.77394 164.098411 
L 361.760136 164.481768 
L 365.746332 164.481892 
L 369.732527 164.015262 
L 373.718723 163.307281 
L 377.704918 163.308301 
L 381.691114 164.658317 
L 385.67731 166.157222 
L 389.663505 167.217503 
L 393.649701 168.499237 
L 397.635897 170.025822 
L 401.622092 171.813996 
L 405.608288 172.982459 
L 409.594484 173.310578 
L 413.580679 173.351993 
L 417.566875 173.354423 
" clip-path="url(#pb51fbf177a)" style="fill: none; stroke: #e7298a; stroke-width: 2; stroke-linecap: square"/>
   </g>
   <g id="line2d_28">
    <path d="M 50.836875 288.482312 
L 54.823071 262.286501 
L 58.809266 233.305706 
L 62.795462 215.447508 
L 66.781658 220.050246 
L 70.767853 219.6804 
L 74.754049 210.573656 
L 78.740245 201.437547 
L 82.72644 194.078391 
L 86.712636 188.233079 
L 90.698832 183.9544 
L 94.685027 183.472852 
L 98.671223 190.280384 
L 102.657418 198.997335 
L 106.643614 201.105261 
L 110.62981 198.711471 
L 114.616005 199.065647 
L 118.602201 195.246669 
L 122.588397 187.690675 
L 126.574592 181.474122 
L 130.560788 181.024191 
L 134.546984 188.037997 
L 138.533179 190.997211 
L 142.519375 186.53369 
L 146.505571 183.477676 
L 150.491766 179.377149 
L 154.477962 177.111433 
L 158.464158 177.986368 
L 162.450353 180.640007 
L 166.436549 183.072266 
L 170.422745 181.631329 
L 174.40894 177.221053 
L 178.395136 174.713266 
L 182.381332 175.014729 
L 186.367527 175.173687 
L 190.353723 175.151713 
L 194.339918 173.77116 
L 198.326114 172.413858 
L 202.31231 172.257299 
L 206.298505 172.170374 
L 210.284701 170.703356 
L 214.270897 168.745052 
L 218.257092 167.883608 
L 222.243288 167.133467 
L 226.229484 167.541475 
L 230.215679 167.965862 
L 234.201875 167.11092 
L 238.188071 164.990357 
L 242.174266 163.408439 
L 246.160462 164.214088 
L 250.146658 165.310053 
L 254.132853 164.943642 
L 258.119049 163.654634 
L 262.105245 161.335844 
L 266.09144 159.919938 
L 270.077636 160.314705 
L 274.063832 159.800546 
L 278.050027 158.298776 
L 282.036223 158.119449 
L 286.022418 159.211174 
L 290.008614 160.714201 
L 293.99481 161.972412 
L 297.981005 161.95693 
L 301.967201 160.645981 
L 305.953397 159.648158 
L 309.939592 159.202613 
L 313.925788 158.7087 
L 317.911984 159.349685 
L 321.898179 159.894658 
L 325.884375 159.509528 
L 329.870571 159.352275 
L 333.856766 159.173852 
L 337.842962 158.127272 
L 341.829158 157.5168 
L 345.815353 157.76529 
L 349.801549 158.38293 
L 353.787745 159.031785 
L 357.77394 159.830065 
L 361.760136 160.396446 
L 365.746332 160.439849 
L 369.732527 159.818577 
L 373.718723 158.897793 
L 377.704918 158.953736 
L 381.691114 160.647899 
L 385.67731 162.470878 
L 389.663505 163.782267 
L 393.649701 165.439645 
L 397.635897 167.635434 
L 401.622092 170.495126 
L 405.608288 172.561773 
L 409.594484 173.24294 
L 413.580679 173.347187 
L 417.566875 173.35429 
" clip-path="url(#pb51fbf177a)" style="fill: none; stroke-dasharray: 3.7,1.6; stroke-dashoffset: 0; stroke: #e7298a"/>
   </g>
   <g id="line2d_29">
    <path d="M 50.836875 288.482312 
L 54.823071 278.333378 
L 58.809266 266.801818 
L 62.795462 264.015965 
L 66.781658 272.928949 
L 70.767853 267.949289 
L 74.754049 252.800266 
L 78.740245 241.728734 
L 82.72644 230.690915 
L 86.712636 220.296733 
L 90.698832 218.004937 
L 94.685027 224.09594 
L 98.671223 230.446877 
L 102.657418 235.121162 
L 106.643614 236.521042 
L 110.62981 232.807934 
L 114.616005 231.374647 
L 118.602201 228.904528 
L 122.588397 222.112644 
L 126.574592 212.798447 
L 130.560788 209.102145 
L 134.546984 215.116194 
L 138.533179 219.368948 
L 142.519375 215.364727 
L 146.505571 211.152486 
L 150.491766 206.766323 
L 154.477962 204.591703 
L 158.464158 206.348042 
L 162.450353 210.182009 
L 166.436549 211.651485 
L 170.422745 208.1157 
L 174.40894 203.488637 
L 178.395136 201.566276 
L 182.381332 201.978739 
L 186.367527 202.170401 
L 190.353723 201.806414 
L 194.339918 199.009538 
L 198.326114 196.248158 
L 202.31231 196.088678 
L 206.298505 196.873497 
L 210.284701 195.31893 
L 214.270897 191.989661 
L 218.257092 191.105157 
L 222.243288 190.795472 
L 226.229484 190.738767 
L 230.215679 190.167619 
L 234.201875 188.360544 
L 238.188071 185.381768 
L 242.174266 183.368402 
L 246.160462 184.515258 
L 250.146658 186.484107 
L 254.132853 185.482084 
L 258.119049 182.543293 
L 262.105245 179.297342 
L 266.09144 177.741993 
L 270.077636 178.217327 
L 274.063832 177.810631 
L 278.050027 176.452872 
L 282.036223 176.728989 
L 286.022418 177.930687 
L 290.008614 179.439054 
L 293.99481 181.13757 
L 297.981005 180.81908 
L 301.967201 178.208121 
L 305.953397 176.747691 
L 309.939592 176.2199 
L 313.925788 175.250712 
L 317.911984 175.138038 
L 321.898179 175.571293 
L 325.884375 175.051733 
L 329.870571 174.506875 
L 333.856766 174.008044 
L 337.842962 172.691906 
L 341.829158 171.841779 
L 345.815353 171.801063 
L 349.801549 172.273623 
L 353.787745 172.517737 
L 357.77394 172.635103 
L 361.760136 172.652411 
L 365.746332 172.565979 
L 369.732527 172.408633 
L 373.718723 172.126256 
L 377.704918 172.01743 
L 381.691114 172.679152 
L 385.67731 173.529912 
L 389.663505 174.087975 
L 393.649701 174.618419 
L 397.635897 174.806598 
L 401.622092 174.451737 
L 405.608288 173.823832 
L 409.594484 173.445856 
L 413.580679 173.361604 
L 417.566875 173.354688 
" clip-path="url(#pb51fbf177a)" style="fill: none; stroke-dasharray: 3.7,1.6; stroke-dashoffset: 0; stroke: #e7298a"/>
   </g>
   <g id="line2d_30">
    <path d="M 50.836875 301.938812 
L 54.823071 286.313885 
L 58.809266 270.287672 
L 62.795462 258.335173 
L 66.781658 255.026494 
L 70.767853 255.383662 
L 74.754049 258.338121 
L 78.740245 256.621174 
L 82.72644 249.737594 
L 86.712636 248.556809 
L 90.698832 252.022729 
L 94.685027 250.408135 
L 98.671223 246.287199 
L 102.657418 247.144691 
L 106.643614 247.762797 
L 110.62981 246.272501 
L 114.616005 243.488014 
L 118.602201 239.774127 
L 122.588397 239.239808 
L 126.574592 240.525709 
L 130.560788 239.520472 
L 134.546984 238.673098 
L 138.533179 238.113085 
L 142.519375 235.984861 
L 146.505571 235.077928 
L 150.491766 236.787483 
L 154.477962 237.324745 
L 158.464158 235.250469 
L 162.450353 234.657183 
L 166.436549 235.160976 
L 170.422745 233.248875 
L 174.40894 230.576141 
L 178.395136 228.854486 
L 182.381332 227.644568 
L 186.367527 227.573908 
L 190.353723 228.261107 
L 194.339918 227.684513 
L 198.326114 225.491877 
L 202.31231 224.034848 
L 206.298505 223.981789 
L 210.284701 223.788181 
L 214.270897 222.677205 
L 218.257092 221.839707 
L 222.243288 222.207433 
L 226.229484 222.183621 
L 230.215679 220.8728 
L 234.201875 219.351119 
L 238.188071 219.248405 
L 242.174266 219.850092 
L 246.160462 219.691785 
L 250.146658 219.476812 
L 254.132853 218.564058 
L 258.119049 217.345472 
L 262.105245 217.192289 
L 266.09144 216.977868 
L 270.077636 216.820474 
L 274.063832 217.443749 
L 278.050027 217.448919 
L 282.036223 216.305102 
L 286.022418 214.966997 
L 290.008614 214.81033 
L 293.99481 215.53908 
L 297.981005 216.104345 
L 301.967201 215.658516 
L 305.953397 214.751265 
L 309.939592 214.019282 
L 313.925788 213.461286 
L 317.911984 213.632368 
L 321.898179 214.041521 
L 325.884375 213.583745 
L 329.870571 212.955493 
L 333.856766 212.877295 
L 337.842962 212.825892 
L 341.829158 212.796358 
L 345.815353 212.884169 
L 349.801549 212.866165 
L 353.787745 212.467479 
L 357.77394 211.969607 
L 361.760136 211.703724 
L 365.746332 211.633252 
L 369.732527 211.670277 
L 373.718723 211.664141 
L 377.704918 211.84293 
L 381.691114 212.179584 
L 385.67731 212.416404 
L 389.663505 212.58852 
L 393.649701 212.851818 
L 397.635897 213.231127 
L 401.622092 213.503389 
L 405.608288 213.593853 
L 409.594484 213.607965 
L 413.580679 213.60894 
L 417.566875 213.608966 
" clip-path="url(#pb51fbf177a)" style="fill: none; stroke: #7570b3; stroke-width: 2; stroke-linecap: square"/>
   </g>
   <g id="line2d_31">
    <path d="M 50.836875 301.938812 
L 54.823071 282.73626 
L 58.809266 264.009471 
L 62.795462 250.699916 
L 66.781658 247.231966 
L 70.767853 248.257499 
L 74.754049 252.040824 
L 78.740245 250.956918 
L 82.72644 244.040386 
L 86.712636 242.242037 
L 90.698832 244.978422 
L 94.685027 243.489335 
L 98.671223 239.761344 
L 102.657418 240.814634 
L 106.643614 241.736008 
L 110.62981 240.380207 
L 114.616005 237.683718 
L 118.602201 234.1449 
L 122.588397 233.503249 
L 126.574592 234.340811 
L 130.560788 233.532914 
L 134.546984 233.179186 
L 138.533179 232.761329 
L 142.519375 230.596574 
L 146.505571 229.746505 
L 150.491766 231.667663 
L 154.477962 232.562639 
L 158.464158 230.618825 
L 162.450353 229.832224 
L 166.436549 230.15502 
L 170.422745 228.313381 
L 174.40894 225.730434 
L 178.395136 224.083287 
L 182.381332 222.912114 
L 186.367527 222.676702 
L 190.353723 223.309181 
L 194.339918 223.130964 
L 198.326114 221.368024 
L 202.31231 220.175588 
L 206.298505 220.199117 
L 210.284701 219.955192 
L 214.270897 218.68779 
L 218.257092 217.669614 
L 222.243288 217.985284 
L 226.229484 218.018096 
L 230.215679 216.861147 
L 234.201875 215.574446 
L 238.188071 215.549848 
L 242.174266 216.167583 
L 246.160462 216.091524 
L 250.146658 215.899627 
L 254.132853 215.013138 
L 258.119049 213.927867 
L 262.105245 213.884551 
L 266.09144 213.691515 
L 270.077636 213.530732 
L 274.063832 214.108587 
L 278.050027 214.089489 
L 282.036223 213.001231 
L 286.022418 211.749727 
L 290.008614 211.701683 
L 293.99481 212.463701 
L 297.981005 212.859545 
L 301.967201 212.342679 
L 305.953397 211.544348 
L 309.939592 210.914177 
L 313.925788 210.464291 
L 317.911984 210.70698 
L 321.898179 211.081709 
L 325.884375 210.650415 
L 329.870571 210.185347 
L 333.856766 210.215803 
L 337.842962 210.248977 
L 341.829158 210.382835 
L 345.815353 210.542454 
L 349.801549 210.392365 
L 353.787745 209.976548 
L 357.77394 209.623561 
L 361.760136 209.560177 
L 365.746332 209.693021 
L 369.732527 209.86102 
L 373.718723 209.956889 
L 377.704918 210.349021 
L 381.691114 210.930939 
L 385.67731 211.310478 
L 389.663505 211.578232 
L 393.649701 212.026985 
L 397.635897 212.743521 
L 401.622092 213.33298 
L 405.608288 213.56442 
L 409.594484 213.605792 
L 413.580679 213.608879 
L 417.566875 213.608966 
" clip-path="url(#pb51fbf177a)" style="fill: none; stroke-dasharray: 3.7,1.6; stroke-dashoffset: 0; stroke: #7570b3"/>
   </g>
   <g id="line2d_32">
    <path d="M 50.836875 301.938812 
L 54.823071 293.469135 
L 58.809266 282.844074 
L 62.795462 273.605686 
L 66.781658 270.615551 
L 70.767853 269.635987 
L 74.754049 270.932715 
L 78.740245 267.949686 
L 82.72644 261.132011 
L 86.712636 261.186352 
L 90.698832 266.111343 
L 94.685027 264.245735 
L 98.671223 259.338909 
L 102.657418 259.804803 
L 106.643614 259.816377 
L 110.62981 258.057089 
L 114.616005 255.096605 
L 118.602201 251.03258 
L 122.588397 250.712925 
L 126.574592 252.895505 
L 130.560788 251.495586 
L 134.546984 249.660922 
L 138.533179 248.816597 
L 142.519375 246.761436 
L 146.505571 245.740774 
L 150.491766 247.027124 
L 154.477962 246.848956 
L 158.464158 244.513759 
L 162.450353 244.3071 
L 166.436549 245.172887 
L 170.422745 243.119864 
L 174.40894 240.267554 
L 178.395136 238.396885 
L 182.381332 237.109476 
L 186.367527 237.36832 
L 190.353723 238.16496 
L 194.339918 236.791611 
L 198.326114 233.739583 
L 202.31231 231.753369 
L 206.298505 231.547132 
L 210.284701 231.454161 
L 214.270897 230.656035 
L 218.257092 230.179893 
L 222.243288 230.651733 
L 226.229484 230.514671 
L 230.215679 228.896106 
L 234.201875 226.904465 
L 238.188071 226.645518 
L 242.174266 227.215108 
L 246.160462 226.892307 
L 250.146658 226.631182 
L 254.132853 225.665896 
L 258.119049 224.180681 
L 262.105245 223.807763 
L 266.09144 223.550572 
L 270.077636 223.399959 
L 274.063832 224.114073 
L 278.050027 224.167779 
L 282.036223 222.912845 
L 286.022418 221.401536 
L 290.008614 221.027622 
L 293.99481 221.68984 
L 297.981005 222.593945 
L 301.967201 222.290191 
L 305.953397 221.165099 
L 309.939592 220.229492 
L 313.925788 219.455276 
L 317.911984 219.483146 
L 321.898179 219.961146 
L 325.884375 219.450405 
L 329.870571 218.495787 
L 333.856766 218.200279 
L 337.842962 217.979721 
L 341.829158 217.623404 
L 345.815353 217.567601 
L 349.801549 217.813765 
L 353.787745 217.449342 
L 357.77394 216.661698 
L 361.760136 215.990819 
L 365.746332 215.513713 
L 369.732527 215.288793 
L 373.718723 215.078645 
L 377.704918 214.830748 
L 381.691114 214.676873 
L 385.67731 214.628257 
L 389.663505 214.609097 
L 393.649701 214.501483 
L 397.635897 214.206341 
L 401.622092 213.844207 
L 405.608288 213.652721 
L 409.594484 213.61231 
L 413.580679 213.609063 
L 417.566875 213.608966 
" clip-path="url(#pb51fbf177a)" style="fill: none; stroke-dasharray: 3.7,1.6; stroke-dashoffset: 0; stroke: #7570b3"/>
   </g>
   <g id="line2d_33">
    <path d="M 50.836875 324.366312 
L 54.823071 326.283816 
L 58.809266 317.544507 
L 62.795462 295.093752 
L 66.781658 277.461581 
L 70.767853 272.462315 
L 74.754049 268.068249 
L 78.740245 263.444079 
L 82.72644 261.784432 
L 86.712636 260.341288 
L 90.698832 258.155219 
L 94.685027 259.309402 
L 98.671223 265.461968 
L 102.657418 267.691664 
L 106.643614 258.240761 
L 110.62981 249.812313 
L 114.616005 250.091175 
L 118.602201 252.240521 
L 122.588397 252.179253 
L 126.574592 254.769521 
L 130.560788 258.097999 
L 134.546984 258.38479 
L 138.533179 255.19342 
L 142.519375 256.583196 
L 146.505571 261.884625 
L 150.491766 262.752585 
L 154.477962 259.606509 
L 158.464158 256.941163 
L 162.450353 256.932116 
L 166.436549 257.991921 
L 170.422745 258.521276 
L 174.40894 257.171597 
L 178.395136 256.371381 
L 182.381332 258.15936 
L 186.367527 257.005387 
L 190.353723 256.290369 
L 194.339918 257.981139 
L 198.326114 261.598477 
L 202.31231 264.270348 
L 206.298505 263.798187 
L 210.284701 263.161141 
L 214.270897 263.675506 
L 218.257092 263.171646 
L 222.243288 262.659929 
L 226.229484 264.019513 
L 230.215679 264.894026 
L 234.201875 263.372121 
L 238.188071 261.227158 
L 242.174266 260.817615 
L 246.160462 260.846287 
L 250.146658 261.013841 
L 254.132853 262.720425 
L 258.119049 264.309573 
L 262.105245 265.202103 
L 266.09144 264.39927 
L 270.077636 262.744336 
L 274.063832 261.550067 
L 278.050027 261.610137 
L 282.036223 263.472253 
L 286.022418 264.713681 
L 290.008614 264.02803 
L 293.99481 263.869398 
L 297.981005 264.924776 
L 301.967201 265.80842 
L 305.953397 265.801641 
L 309.939592 266.110614 
L 313.925788 266.428219 
L 317.911984 267.122017 
L 321.898179 266.950284 
L 325.884375 265.920707 
L 329.870571 265.330137 
L 333.856766 265.50926 
L 337.842962 266.581745 
L 341.829158 267.710235 
L 345.815353 267.582719 
L 349.801549 266.942882 
L 353.787745 267.256202 
L 357.77394 268.322131 
L 361.760136 269.799972 
L 365.746332 271.032821 
L 369.732527 271.786385 
L 373.718723 271.909632 
L 377.704918 271.390492 
L 381.691114 271.325397 
L 385.67731 271.954002 
L 389.663505 272.520402 
L 393.649701 272.849533 
L 397.635897 272.998052 
L 401.622092 273.02961 
L 405.608288 273.032179 
L 409.594484 273.032257 
L 413.580679 273.032257 
L 417.566875 273.032257 
" clip-path="url(#pb51fbf177a)" style="fill: none; stroke: #d95f02; stroke-width: 2; stroke-linecap: square"/>
   </g>
   <g id="line2d_34">
    <path d="M 50.836875 324.366312 
L 54.823071 319.867936 
L 58.809266 305.925521 
L 62.795462 280.541724 
L 66.781658 262.531937 
L 70.767853 258.716193 
L 74.754049 254.647878 
L 78.740245 248.258027 
L 82.72644 245.354537 
L 86.712636 244.466696 
L 90.698832 242.93278 
L 94.685027 244.882614 
L 98.671223 252.615523 
L 102.657418 255.506116 
L 106.643614 246.726264 
L 110.62981 238.747792 
L 114.616005 238.373351 
L 118.602201 239.739492 
L 122.588397 239.420108 
L 126.574592 242.74465 
L 130.560788 246.719407 
L 134.546984 247.680431 
L 138.533179 245.004939 
L 142.519375 246.595785 
L 146.505571 252.460641 
L 150.491766 253.795826 
L 154.477962 250.036312 
L 158.464158 246.713132 
L 162.450353 246.877561 
L 166.436549 248.725049 
L 170.422745 250.168511 
L 174.40894 249.175235 
L 178.395136 248.311342 
L 182.381332 250.059271 
L 186.367527 248.966539 
L 190.353723 248.004418 
L 194.339918 249.785769 
L 198.326114 254.210991 
L 202.31231 257.292826 
L 206.298505 256.475535 
L 210.284701 255.956723 
L 214.270897 257.083906 
L 218.257092 256.863962 
L 222.243288 256.098028 
L 226.229484 257.419397 
L 230.215679 258.549082 
L 234.201875 257.003859 
L 238.188071 255.015664 
L 242.174266 254.72907 
L 246.160462 254.601628 
L 250.146658 254.747626 
L 254.132853 256.820246 
L 258.119049 258.903991 
L 262.105245 260.167837 
L 266.09144 259.157397 
L 270.077636 257.042143 
L 274.063832 255.736175 
L 278.050027 255.770394 
L 282.036223 257.938567 
L 286.022418 259.714631 
L 290.008614 258.957336 
L 293.99481 258.594333 
L 297.981005 259.851421 
L 301.967201 260.991515 
L 305.953397 261.245451 
L 309.939592 261.833565 
L 313.925788 262.157676 
L 317.911984 262.914333 
L 321.898179 262.743606 
L 325.884375 261.521507 
L 329.870571 260.798565 
L 333.856766 261.034732 
L 337.842962 262.417069 
L 341.829158 263.87981 
L 345.815353 263.712811 
L 349.801549 262.875973 
L 353.787745 263.281433 
L 357.77394 264.731798 
L 361.760136 266.824578 
L 365.746332 268.70036 
L 369.732527 270.110148 
L 373.718723 270.497599 
L 377.704918 269.478628 
L 381.691114 269.20235 
L 385.67731 270.298628 
L 389.663505 271.501364 
L 393.649701 272.439272 
L 397.635897 272.919164 
L 401.622092 273.023475 
L 405.608288 273.032 
L 409.594484 273.032257 
L 413.580679 273.032257 
L 417.566875 273.032257 
" clip-path="url(#pb51fbf177a)" style="fill: none; stroke-dasharray: 3.7,1.6; stroke-dashoffset: 0; stroke: #d95f02"/>
   </g>
   <g id="line2d_35">
    <path d="M 50.836875 324.366312 
L 54.823071 339.115577 
L 58.809266 340.78248 
L 62.795462 324.197808 
L 66.781658 307.320869 
L 70.767853 299.954558 
L 74.754049 294.90899 
L 78.740245 293.816183 
L 82.72644 294.644222 
L 86.712636 292.090471 
L 90.698832 288.600096 
L 94.685027 288.162977 
L 98.671223 291.154859 
L 102.657418 292.062759 
L 106.643614 281.269757 
L 110.62981 271.941355 
L 114.616005 273.526824 
L 118.602201 277.24258 
L 122.588397 277.697544 
L 126.574592 278.819265 
L 130.560788 280.855183 
L 134.546984 279.793508 
L 138.533179 275.570382 
L 142.519375 276.558019 
L 146.505571 280.732593 
L 150.491766 280.666102 
L 154.477962 278.746903 
L 158.464158 277.397223 
L 162.450353 277.041226 
L 166.436549 276.525666 
L 170.422745 275.226806 
L 174.40894 273.164321 
L 178.395136 272.491459 
L 182.381332 274.359537 
L 186.367527 273.083081 
L 190.353723 272.862269 
L 194.339918 274.371878 
L 198.326114 276.373448 
L 202.31231 278.225391 
L 206.298505 278.443491 
L 210.284701 277.569978 
L 214.270897 276.858706 
L 218.257092 275.787014 
L 222.243288 275.783731 
L 226.229484 277.219743 
L 230.215679 277.583916 
L 234.201875 276.108645 
L 238.188071 273.650148 
L 242.174266 272.994706 
L 246.160462 273.335606 
L 250.146658 273.546271 
L 254.132853 274.520784 
L 258.119049 275.120737 
L 262.105245 275.270635 
L 266.09144 274.883018 
L 270.077636 274.148722 
L 274.063832 273.177852 
L 278.050027 273.289621 
L 282.036223 274.539625 
L 286.022418 274.711779 
L 290.008614 274.169417 
L 293.99481 274.419527 
L 297.981005 275.071486 
L 301.967201 275.442231 
L 305.953397 274.914021 
L 309.939592 274.664711 
L 313.925788 274.969305 
L 317.911984 275.537383 
L 321.898179 275.363639 
L 325.884375 274.719109 
L 329.870571 274.393282 
L 333.856766 274.458317 
L 337.842962 274.911097 
L 341.829158 275.371084 
L 345.815353 275.322536 
L 349.801549 275.076699 
L 353.787745 275.205739 
L 357.77394 275.502796 
L 361.760136 275.750761 
L 365.746332 275.697743 
L 369.732527 275.13886 
L 373.718723 274.733697 
L 377.704918 275.214219 
L 381.691114 275.571491 
L 385.67731 275.264751 
L 389.663505 274.558478 
L 393.649701 273.670053 
L 397.635897 273.155826 
L 401.622092 273.041881 
L 405.608288 273.032539 
L 409.594484 273.032257 
L 413.580679 273.032257 
L 417.566875 273.032257 
" clip-path="url(#pb51fbf177a)" style="fill: none; stroke-dasharray: 3.7,1.6; stroke-dashoffset: 0; stroke: #d95f02"/>
   </g>
   <g id="line2d_36">
    <path d="M 50.836875 324.366312 
L 54.823071 323.220821 
L 58.809266 319.296103 
L 62.795462 307.890736 
L 66.781658 290.10175 
L 70.767853 279.244958 
L 74.754049 283.540234 
L 78.740245 290.449377 
L 82.72644 290.446769 
L 86.712636 288.373222 
L 90.698832 285.689279 
L 94.685027 282.940637 
L 98.671223 281.695303 
L 102.657418 280.091336 
L 106.643614 281.71867 
L 110.62981 289.248118 
L 114.616005 296.988135 
L 118.602201 300.95915 
L 122.588397 300.473884 
L 126.574592 294.90256 
L 130.560788 290.081343 
L 134.546984 292.2356 
L 138.533179 295.717311 
L 142.519375 296.169979 
L 146.505571 298.035931 
L 150.491766 298.845331 
L 154.477962 295.967492 
L 158.464158 294.091427 
L 162.450353 295.406584 
L 166.436549 296.333021 
L 170.422745 296.296599 
L 174.40894 298.38833 
L 178.395136 298.788563 
L 182.381332 295.526998 
L 186.367527 294.479696 
L 190.353723 296.778576 
L 194.339918 299.747779 
L 198.326114 300.025695 
L 202.31231 298.371871 
L 206.298505 298.453858 
L 210.284701 298.467654 
L 214.270897 296.62894 
L 218.257092 296.905751 
L 222.243288 298.295327 
L 226.229484 298.743175 
L 230.215679 300.07184 
L 234.201875 300.086679 
L 238.188071 298.67515 
L 242.174266 298.370852 
L 246.160462 296.881518 
L 250.146658 296.134784 
L 254.132853 296.743633 
L 258.119049 297.157701 
L 262.105245 298.218101 
L 266.09144 299.894943 
L 270.077636 299.587128 
L 274.063832 297.746139 
L 278.050027 297.030956 
L 282.036223 296.904646 
L 286.022418 296.373337 
L 290.008614 296.244271 
L 293.99481 297.002907 
L 297.981005 296.626719 
L 301.967201 295.493245 
L 305.953397 295.879026 
L 309.939592 296.840043 
L 313.925788 297.478331 
L 317.911984 298.318474 
L 321.898179 298.743614 
L 325.884375 297.894772 
L 329.870571 297.277107 
L 333.856766 296.853901 
L 337.842962 296.114936 
L 341.829158 295.872581 
L 345.815353 296.192205 
L 349.801549 296.326889 
L 353.787745 295.890092 
L 357.77394 295.165723 
L 361.760136 294.939299 
L 365.746332 294.994138 
L 369.732527 294.689256 
L 373.718723 294.297259 
L 377.704918 293.991096 
L 381.691114 293.830728 
L 385.67731 293.56454 
L 389.663505 293.270379 
L 393.649701 293.077302 
L 397.635897 292.988336 
L 401.622092 292.969401 
L 405.608288 292.967859 
L 409.594484 292.967812 
L 413.580679 292.967812 
L 417.566875 292.967812 
" clip-path="url(#pb51fbf177a)" style="fill: none; stroke: #1b9e77; stroke-width: 2; stroke-linecap: square"/>
   </g>
   <g id="line2d_37">
    <path d="M 50.836875 324.366312 
L 54.823071 322.423389 
L 58.809266 315.574593 
L 62.795462 299.681033 
L 66.781658 280.063452 
L 70.767853 268.757466 
L 74.754049 271.788118 
L 78.740245 278.535455 
L 82.72644 279.208559 
L 86.712636 277.792717 
L 90.698832 274.222273 
L 94.685027 270.765517 
L 98.671223 270.073656 
L 102.657418 267.860629 
L 106.643614 269.280316 
L 110.62981 278.1055 
L 114.616005 286.549672 
L 118.602201 290.000271 
L 122.588397 289.124813 
L 126.574592 284.343565 
L 130.560788 280.134077 
L 134.546984 282.870904 
L 138.533179 287.816165 
L 142.519375 289.069985 
L 146.505571 290.685533 
L 150.491766 291.229397 
L 154.477962 288.36436 
L 158.464158 286.237529 
L 162.450353 287.377838 
L 166.436549 288.378174 
L 170.422745 288.263825 
L 174.40894 290.544593 
L 178.395136 291.346641 
L 182.381332 287.900505 
L 186.367527 286.457743 
L 190.353723 288.833761 
L 194.339918 292.294453 
L 198.326114 293.045269 
L 202.31231 291.298651 
L 206.298505 291.209737 
L 210.284701 291.31713 
L 214.270897 289.766799 
L 218.257092 290.412018 
L 222.243288 291.914253 
L 226.229484 292.140981 
L 230.215679 293.385384 
L 234.201875 293.633423 
L 238.188071 292.501781 
L 242.174266 292.349294 
L 246.160462 290.794177 
L 250.146658 289.975866 
L 254.132853 290.895482 
L 258.119049 291.802013 
L 262.105245 293.16624 
L 266.09144 294.913163 
L 270.077636 294.689316 
L 274.063832 293.06144 
L 278.050027 292.6254 
L 282.036223 292.743412 
L 286.022418 292.271031 
L 290.008614 292.026376 
L 293.99481 293.026825 
L 297.981005 292.96479 
L 301.967201 291.92794 
L 305.953397 292.235109 
L 309.939592 293.106644 
L 313.925788 293.815644 
L 317.911984 294.755682 
L 321.898179 295.299118 
L 325.884375 294.71964 
L 329.870571 294.220477 
L 333.856766 293.852385 
L 337.842962 293.288926 
L 341.829158 293.282583 
L 345.815353 293.732935 
L 349.801549 293.918584 
L 353.787745 293.598668 
L 357.77394 293.092541 
L 361.760136 293.010908 
L 365.746332 293.10921 
L 369.732527 292.906349 
L 373.718723 292.677891 
L 377.704918 292.621843 
L 381.691114 292.630848 
L 385.67731 292.604424 
L 389.663505 292.662171 
L 393.649701 292.831252 
L 397.635897 292.941003 
L 401.622092 292.965719 
L 405.608288 292.967751 
L 409.594484 292.967812 
L 413.580679 292.967812 
L 417.566875 292.967812 
" clip-path="url(#pb51fbf177a)" style="fill: none; stroke-dasharray: 3.7,1.6; stroke-dashoffset: 0; stroke: #1b9e77"/>
   </g>
   <g id="line2d_38">
    <path d="M 50.836875 324.366312 
L 54.823071 324.815685 
L 58.809266 326.739123 
L 62.795462 324.310144 
L 66.781658 310.178344 
L 70.767853 300.219941 
L 74.754049 307.044466 
L 78.740245 314.277222 
L 82.72644 312.92319 
L 86.712636 309.534233 
L 90.698832 308.623293 
L 94.685027 307.290876 
L 98.671223 304.938596 
L 102.657418 304.552749 
L 106.643614 306.595379 
L 110.62981 311.533354 
L 114.616005 317.86506 
L 118.602201 322.876908 
L 122.588397 323.172025 
L 126.574592 316.020551 
L 130.560788 309.975875 
L 134.546984 310.964991 
L 138.533179 311.519604 
L 142.519375 310.369967 
L 146.505571 312.736728 
L 150.491766 314.077197 
L 154.477962 311.173757 
L 158.464158 309.799225 
L 162.450353 311.464077 
L 166.436549 312.242715 
L 170.422745 312.362147 
L 174.40894 314.075804 
L 178.395136 313.672408 
L 182.381332 310.779984 
L 186.367527 310.523601 
L 190.353723 312.668205 
L 194.339918 314.654431 
L 198.326114 313.986548 
L 202.31231 312.51831 
L 206.298505 312.9421 
L 210.284701 312.768702 
L 214.270897 310.353222 
L 218.257092 309.893218 
L 222.243288 311.057475 
L 226.229484 311.947564 
L 230.215679 313.444752 
L 234.201875 312.993193 
L 238.188071 311.021887 
L 242.174266 310.413968 
L 246.160462 309.056201 
L 250.146658 308.45262 
L 254.132853 308.439935 
L 258.119049 307.869076 
L 262.105245 308.321823 
L 266.09144 309.858502 
L 270.077636 309.382753 
L 274.063832 307.115536 
L 278.050027 305.842069 
L 282.036223 305.227114 
L 286.022418 304.577948 
L 290.008614 304.68006 
L 293.99481 304.95507 
L 297.981005 303.950578 
L 301.967201 302.623856 
L 305.953397 303.166859 
L 309.939592 304.30684 
L 313.925788 304.803705 
L 317.911984 305.444057 
L 321.898179 305.632606 
L 325.884375 304.245035 
L 329.870571 303.390367 
L 333.856766 302.856931 
L 337.842962 301.766957 
L 341.829158 301.052576 
L 345.815353 301.110745 
L 349.801549 301.1435 
L 353.787745 300.472939 
L 357.77394 299.312087 
L 361.760136 298.796082 
L 365.746332 298.763992 
L 369.732527 298.255069 
L 373.718723 297.535993 
L 377.704918 296.729602 
L 381.691114 296.230487 
L 385.67731 295.484772 
L 389.663505 294.486795 
L 393.649701 293.569403 
L 397.635897 293.083 
L 401.622092 292.976763 
L 405.608288 292.968075 
L 409.594484 292.967812 
L 413.580679 292.967812 
L 417.566875 292.967812 
" clip-path="url(#pb51fbf177a)" style="fill: none; stroke-dasharray: 3.7,1.6; stroke-dashoffset: 0; stroke: #1b9e77"/>
   </g>
   <g id="patch_3">
    <path d="M 50.836875 382.677812 
L 50.836875 23.837812 
" style="fill: none; stroke: #000000; stroke-width: 0.8; stroke-linejoin: miter; stroke-linecap: square"/>
   </g>
   <g id="patch_4">
    <path d="M 417.566875 382.677812 
L 417.566875 23.837812 
" style="fill: none; stroke: #000000; stroke-width: 0.8; stroke-linejoin: miter; stroke-linecap: square"/>
   </g>
   <g id="patch_5">
    <path d="M 50.836875 382.677812 
L 417.566875 382.677812 
" style="fill: none; stroke: #000000; stroke-width: 0.8; stroke-linejoin: miter; stroke-linecap: square"/>
   </g>
   <g id="patch_6">
    <path d="M 50.836875 23.837812 
L 417.566875 23.837812 
" style="fill: none; stroke: #000000; stroke-width: 0.8; stroke-linejoin: miter; stroke-linecap: square"/>
   </g>
   <g id="text_17">
    <!-- Weighted By Certitude -->
    <g transform="translate(154.976094 17.837812) scale(0.14 -0.14)">
     <defs>
      <path id="DejaVuSans-57" d="M 213 4666 
L 850 4666 
L 1831 722 
L 2809 4666 
L 3519 4666 
L 4500 722 
L 5478 4666 
L 6119 4666 
L 4947 0 
L 4153 0 
L 3169 4050 
L 2175 0 
L 1381 0 
L 213 4666 
z
" transform="scale(0.015625)"/>
      <path id="DejaVuSans-67" d="M 2906 1791 
Q 2906 2416 2648 2759 
Q 2391 3103 1925 3103 
Q 1463 3103 1205 2759 
Q 947 2416 947 1791 
Q 947 1169 1205 825 
Q 1463 481 1925 481 
Q 2391 481 2648 825 
Q 2906 1169 2906 1791 
z
M 3481 434 
Q 3481 -459 3084 -895 
Q 2688 -1331 1869 -1331 
Q 1566 -1331 1297 -1286 
Q 1028 -1241 775 -1147 
L 775 -588 
Q 1028 -725 1275 -790 
Q 1522 -856 1778 -856 
Q 2344 -856 2625 -561 
Q 2906 -266 2906 331 
L 2906 616 
Q 2728 306 2450 153 
Q 2172 0 1784 0 
Q 1141 0 747 490 
Q 353 981 353 1791 
Q 353 2603 747 3093 
Q 1141 3584 1784 3584 
Q 2172 3584 2450 3431 
Q 2728 3278 2906 2969 
L 2906 3500 
L 3481 3500 
L 3481 434 
z
" transform="scale(0.015625)"/>
      <path id="DejaVuSans-68" d="M 3513 2113 
L 3513 0 
L 2938 0 
L 2938 2094 
Q 2938 2591 2744 2837 
Q 2550 3084 2163 3084 
Q 1697 3084 1428 2787 
Q 1159 2491 1159 1978 
L 1159 0 
L 581 0 
L 581 4863 
L 1159 4863 
L 1159 2956 
Q 1366 3272 1645 3428 
Q 1925 3584 2291 3584 
Q 2894 3584 3203 3211 
Q 3513 2838 3513 2113 
z
" transform="scale(0.015625)"/>
      <path id="DejaVuSans-64" d="M 2906 2969 
L 2906 4863 
L 3481 4863 
L 3481 0 
L 2906 0 
L 2906 525 
Q 2725 213 2448 61 
Q 2172 -91 1784 -91 
Q 1150 -91 751 415 
Q 353 922 353 1747 
Q 353 2572 751 3078 
Q 1150 3584 1784 3584 
Q 2172 3584 2448 3432 
Q 2725 3281 2906 2969 
z
M 947 1747 
Q 947 1113 1208 752 
Q 1469 391 1925 391 
Q 2381 391 2643 752 
Q 2906 1113 2906 1747 
Q 2906 2381 2643 2742 
Q 2381 3103 1925 3103 
Q 1469 3103 1208 2742 
Q 947 2381 947 1747 
z
" transform="scale(0.015625)"/>
      <path id="DejaVuSans-42" d="M 1259 2228 
L 1259 519 
L 2272 519 
Q 2781 519 3026 730 
Q 3272 941 3272 1375 
Q 3272 1813 3026 2020 
Q 2781 2228 2272 2228 
L 1259 2228 
z
M 1259 4147 
L 1259 2741 
L 2194 2741 
Q 2656 2741 2882 2914 
Q 3109 3088 3109 3444 
Q 3109 3797 2882 3972 
Q 2656 4147 2194 4147 
L 1259 4147 
z
M 628 4666 
L 2241 4666 
Q 2963 4666 3353 4366 
Q 3744 4066 3744 3513 
Q 3744 3084 3544 2831 
Q 3344 2578 2956 2516 
Q 3422 2416 3680 2098 
Q 3938 1781 3938 1306 
Q 3938 681 3513 340 
Q 3088 0 2303 0 
L 628 0 
L 628 4666 
z
" transform="scale(0.015625)"/>
      <path id="DejaVuSans-79" d="M 2059 -325 
Q 1816 -950 1584 -1140 
Q 1353 -1331 966 -1331 
L 506 -1331 
L 506 -850 
L 844 -850 
Q 1081 -850 1212 -737 
Q 1344 -625 1503 -206 
L 1606 56 
L 191 3500 
L 800 3500 
L 1894 763 
L 2988 3500 
L 3597 3500 
L 2059 -325 
z
" transform="scale(0.015625)"/>
      <path id="DejaVuSans-43" d="M 4122 4306 
L 4122 3641 
Q 3803 3938 3442 4084 
Q 3081 4231 2675 4231 
Q 1875 4231 1450 3742 
Q 1025 3253 1025 2328 
Q 1025 1406 1450 917 
Q 1875 428 2675 428 
Q 3081 428 3442 575 
Q 3803 722 4122 1019 
L 4122 359 
Q 3791 134 3420 21 
Q 3050 -91 2638 -91 
Q 1578 -91 968 557 
Q 359 1206 359 2328 
Q 359 3453 968 4101 
Q 1578 4750 2638 4750 
Q 3056 4750 3426 4639 
Q 3797 4528 4122 4306 
z
" transform="scale(0.015625)"/>
     </defs>
     <use xlink:href="#DejaVuSans-57"/>
     <use xlink:href="#DejaVuSans-65" x="93.001953"/>
     <use xlink:href="#DejaVuSans-69" x="154.525391"/>
     <use xlink:href="#DejaVuSans-67" x="182.308594"/>
     <use xlink:href="#DejaVuSans-68" x="245.785156"/>
     <use xlink:href="#DejaVuSans-74" x="309.164062"/>
     <use xlink:href="#DejaVuSans-65" x="348.373047"/>
     <use xlink:href="#DejaVuSans-64" x="409.896484"/>
     <use xlink:href="#DejaVuSans-20" x="473.373047"/>
     <use xlink:href="#DejaVuSans-42" x="505.160156"/>
     <use xlink:href="#DejaVuSans-79" x="573.763672"/>
     <use xlink:href="#DejaVuSans-20" x="632.943359"/>
     <use xlink:href="#DejaVuSans-43" x="664.730469"/>
     <use xlink:href="#DejaVuSans-65" x="734.554688"/>
     <use xlink:href="#DejaVuSans-72" x="796.078125"/>
     <use xlink:href="#DejaVuSans-74" x="837.191406"/>
     <use xlink:href="#DejaVuSans-69" x="876.400391"/>
     <use xlink:href="#DejaVuSans-74" x="904.183594"/>
     <use xlink:href="#DejaVuSans-75" x="943.392578"/>
     <use xlink:href="#DejaVuSans-64" x="1006.771484"/>
     <use xlink:href="#DejaVuSans-65" x="1070.248047"/>
    </g>
   </g>
  </g>
 </g>
 <defs>
  <clipPath id="pb51fbf177a">
   <rect x="50.836875" y="23.837812" width="366.73" height="358.84"/>
  </clipPath>
 </defs>
</svg>
