<?xml version="1.0" encoding="utf-8" standalone="no"?>
<!DOCTYPE svg PUBLIC "-//W3C//DTD SVG 1.1//EN"
  "http://www.w3.org/Graphics/SVG/1.1/DTD/svg11.dtd">
<svg xmlns:xlink="http://www.w3.org/1999/xlink" width="424.766875pt" height="424.106719pt" viewBox="0 0 424.766875 424.106719" xmlns="http://www.w3.org/2000/svg" version="1.1">
 <metadata>
  <rdf:RDF xmlns:dc="http://purl.org/dc/elements/1.1/" xmlns:cc="http://creativecommons.org/ns#" xmlns:rdf="http://www.w3.org/1999/02/22-rdf-syntax-ns#">
   <cc:Work>
    <dc:type rdf:resource="http://purl.org/dc/dcmitype/StillImage"/>
    <dc:date>2024-04-17T11:50:19.307032</dc:date>
    <dc:format>image/svg+xml</dc:format>
    <dc:creator>
     <cc:Agent>
      <dc:title>Matplotlib v3.6.2, https://matplotlib.org/</dc:title>
     </cc:Agent>
    </dc:creator>
   </cc:Work>
  </rdf:RDF>
 </metadata>
 <defs>
  <style type="text/css">*{stroke-linejoin: round; stroke-linecap: butt}</style>
 </defs>
 <g id="figure_1">
  <g id="patch_1">
   <path d="M 0 424.106719 
L 424.766875 424.106719 
L 424.766875 0 
L 0 0 
z
" style="fill: #ffffff"/>
  </g>
  <g id="axes_1">
   <g id="patch_2">
    <path d="M 50.836875 382.679219 
L 417.566875 382.679219 
L 417.566875 10.999219 
L 50.836875 10.999219 
z
" style="fill: #ffffff"/>
   </g>
   <g id="matplotlib.axis_1">
    <g id="xtick_1">
     <g id="line2d_1">
      <defs>
       <path id="m0658860ddb" d="M 0 0 
L 0 3.5 
" style="stroke: #000000; stroke-width: 0.8"/>
      </defs>
      <g>
       <use xlink:href="#m0658860ddb" x="50.836875" y="382.679219" style="stroke: #000000; stroke-width: 0.8"/>
      </g>
     </g>
     <g id="text_1">
      <!-- 0 -->
      <g transform="translate(47.655625 397.277656) scale(0.1 -0.1)">
       <defs>
        <path id="DejaVuSans-30" d="M 2034 4250 
Q 1547 4250 1301 3770 
Q 1056 3291 1056 2328 
Q 1056 1369 1301 889 
Q 1547 409 2034 409 
Q 2525 409 2770 889 
Q 3016 1369 3016 2328 
Q 3016 3291 2770 3770 
Q 2525 4250 2034 4250 
z
M 2034 4750 
Q 2819 4750 3233 4129 
Q 3647 3509 3647 2328 
Q 3647 1150 3233 529 
Q 2819 -91 2034 -91 
Q 1250 -91 836 529 
Q 422 1150 422 2328 
Q 422 3509 836 4129 
Q 1250 4750 2034 4750 
z
" transform="scale(0.015625)"/>
       </defs>
       <use xlink:href="#DejaVuSans-30"/>
      </g>
     </g>
    </g>
    <g id="xtick_2">
     <g id="line2d_2">
      <g>
       <use xlink:href="#m0658860ddb" x="130.560788" y="382.679219" style="stroke: #000000; stroke-width: 0.8"/>
      </g>
     </g>
     <g id="text_2">
      <!-- 20 -->
      <g transform="translate(124.198288 397.277656) scale(0.1 -0.1)">
       <defs>
        <path id="DejaVuSans-32" d="M 1228 531 
L 3431 531 
L 3431 0 
L 469 0 
L 469 531 
Q 828 903 1448 1529 
Q 2069 2156 2228 2338 
Q 2531 2678 2651 2914 
Q 2772 3150 2772 3378 
Q 2772 3750 2511 3984 
Q 2250 4219 1831 4219 
Q 1534 4219 1204 4116 
Q 875 4013 500 3803 
L 500 4441 
Q 881 4594 1212 4672 
Q 1544 4750 1819 4750 
Q 2544 4750 2975 4387 
Q 3406 4025 3406 3419 
Q 3406 3131 3298 2873 
Q 3191 2616 2906 2266 
Q 2828 2175 2409 1742 
Q 1991 1309 1228 531 
z
" transform="scale(0.015625)"/>
       </defs>
       <use xlink:href="#DejaVuSans-32"/>
       <use xlink:href="#DejaVuSans-30" x="63.623047"/>
      </g>
     </g>
    </g>
    <g id="xtick_3">
     <g id="line2d_3">
      <g>
       <use xlink:href="#m0658860ddb" x="210.284701" y="382.679219" style="stroke: #000000; stroke-width: 0.8"/>
      </g>
     </g>
     <g id="text_3">
      <!-- 40 -->
      <g transform="translate(203.922201 397.277656) scale(0.1 -0.1)">
       <defs>
        <path id="DejaVuSans-34" d="M 2419 4116 
L 825 1625 
L 2419 1625 
L 2419 4116 
z
M 2253 4666 
L 3047 4666 
L 3047 1625 
L 3713 1625 
L 3713 1100 
L 3047 1100 
L 3047 0 
L 2419 0 
L 2419 1100 
L 313 1100 
L 313 1709 
L 2253 4666 
z
" transform="scale(0.015625)"/>
       </defs>
       <use xlink:href="#DejaVuSans-34"/>
       <use xlink:href="#DejaVuSans-30" x="63.623047"/>
      </g>
     </g>
    </g>
    <g id="xtick_4">
     <g id="line2d_4">
      <g>
       <use xlink:href="#m0658860ddb" x="290.008614" y="382.679219" style="stroke: #000000; stroke-width: 0.8"/>
      </g>
     </g>
     <g id="text_4">
      <!-- 60 -->
      <g transform="translate(283.646114 397.277656) scale(0.1 -0.1)">
       <defs>
        <path id="DejaVuSans-36" d="M 2113 2584 
Q 1688 2584 1439 2293 
Q 1191 2003 1191 1497 
Q 1191 994 1439 701 
Q 1688 409 2113 409 
Q 2538 409 2786 701 
Q 3034 994 3034 1497 
Q 3034 2003 2786 2293 
Q 2538 2584 2113 2584 
z
M 3366 4563 
L 3366 3988 
Q 3128 4100 2886 4159 
Q 2644 4219 2406 4219 
Q 1781 4219 1451 3797 
Q 1122 3375 1075 2522 
Q 1259 2794 1537 2939 
Q 1816 3084 2150 3084 
Q 2853 3084 3261 2657 
Q 3669 2231 3669 1497 
Q 3669 778 3244 343 
Q 2819 -91 2113 -91 
Q 1303 -91 875 529 
Q 447 1150 447 2328 
Q 447 3434 972 4092 
Q 1497 4750 2381 4750 
Q 2619 4750 2861 4703 
Q 3103 4656 3366 4563 
z
" transform="scale(0.015625)"/>
       </defs>
       <use xlink:href="#DejaVuSans-36"/>
       <use xlink:href="#DejaVuSans-30" x="63.623047"/>
      </g>
     </g>
    </g>
    <g id="xtick_5">
     <g id="line2d_5">
      <g>
       <use xlink:href="#m0658860ddb" x="369.732527" y="382.679219" style="stroke: #000000; stroke-width: 0.8"/>
      </g>
     </g>
     <g id="text_5">
      <!-- 80 -->
      <g transform="translate(363.370027 397.277656) scale(0.1 -0.1)">
       <defs>
        <path id="DejaVuSans-38" d="M 2034 2216 
Q 1584 2216 1326 1975 
Q 1069 1734 1069 1313 
Q 1069 891 1326 650 
Q 1584 409 2034 409 
Q 2484 409 2743 651 
Q 3003 894 3003 1313 
Q 3003 1734 2745 1975 
Q 2488 2216 2034 2216 
z
M 1403 2484 
Q 997 2584 770 2862 
Q 544 3141 544 3541 
Q 544 4100 942 4425 
Q 1341 4750 2034 4750 
Q 2731 4750 3128 4425 
Q 3525 4100 3525 3541 
Q 3525 3141 3298 2862 
Q 3072 2584 2669 2484 
Q 3125 2378 3379 2068 
Q 3634 1759 3634 1313 
Q 3634 634 3220 271 
Q 2806 -91 2034 -91 
Q 1263 -91 848 271 
Q 434 634 434 1313 
Q 434 1759 690 2068 
Q 947 2378 1403 2484 
z
M 1172 3481 
Q 1172 3119 1398 2916 
Q 1625 2713 2034 2713 
Q 2441 2713 2670 2916 
Q 2900 3119 2900 3481 
Q 2900 3844 2670 4047 
Q 2441 4250 2034 4250 
Q 1625 4250 1398 4047 
Q 1172 3844 1172 3481 
z
" transform="scale(0.015625)"/>
       </defs>
       <use xlink:href="#DejaVuSans-38"/>
       <use xlink:href="#DejaVuSans-30" x="63.623047"/>
      </g>
     </g>
    </g>
    <g id="text_6">
     <!-- Number of participants -->
     <g transform="translate(153.230469 413.995156) scale(0.14 -0.14)">
      <defs>
       <path id="DejaVuSans-4e" d="M 628 4666 
L 1478 4666 
L 3547 763 
L 3547 4666 
L 4159 4666 
L 4159 0 
L 3309 0 
L 1241 3903 
L 1241 0 
L 628 0 
L 628 4666 
z
" transform="scale(0.015625)"/>
       <path id="DejaVuSans-75" d="M 544 1381 
L 544 3500 
L 1119 3500 
L 1119 1403 
Q 1119 906 1312 657 
Q 1506 409 1894 409 
Q 2359 409 2629 706 
Q 2900 1003 2900 1516 
L 2900 3500 
L 3475 3500 
L 3475 0 
L 2900 0 
L 2900 538 
Q 2691 219 2414 64 
Q 2138 -91 1772 -91 
Q 1169 -91 856 284 
Q 544 659 544 1381 
z
M 1991 3584 
L 1991 3584 
z
" transform="scale(0.015625)"/>
       <path id="DejaVuSans-6d" d="M 3328 2828 
Q 3544 3216 3844 3400 
Q 4144 3584 4550 3584 
Q 5097 3584 5394 3201 
Q 5691 2819 5691 2113 
L 5691 0 
L 5113 0 
L 5113 2094 
Q 5113 2597 4934 2840 
Q 4756 3084 4391 3084 
Q 3944 3084 3684 2787 
Q 3425 2491 3425 1978 
L 3425 0 
L 2847 0 
L 2847 2094 
Q 2847 2600 2669 2842 
Q 2491 3084 2119 3084 
Q 1678 3084 1418 2786 
Q 1159 2488 1159 1978 
L 1159 0 
L 581 0 
L 581 3500 
L 1159 3500 
L 1159 2956 
Q 1356 3278 1631 3431 
Q 1906 3584 2284 3584 
Q 2666 3584 2933 3390 
Q 3200 3197 3328 2828 
z
" transform="scale(0.015625)"/>
       <path id="DejaVuSans-62" d="M 3116 1747 
Q 3116 2381 2855 2742 
Q 2594 3103 2138 3103 
Q 1681 3103 1420 2742 
Q 1159 2381 1159 1747 
Q 1159 1113 1420 752 
Q 1681 391 2138 391 
Q 2594 391 2855 752 
Q 3116 1113 3116 1747 
z
M 1159 2969 
Q 1341 3281 1617 3432 
Q 1894 3584 2278 3584 
Q 2916 3584 3314 3078 
Q 3713 2572 3713 1747 
Q 3713 922 3314 415 
Q 2916 -91 2278 -91 
Q 1894 -91 1617 61 
Q 1341 213 1159 525 
L 1159 0 
L 581 0 
L 581 4863 
L 1159 4863 
L 1159 2969 
z
" transform="scale(0.015625)"/>
       <path id="DejaVuSans-65" d="M 3597 1894 
L 3597 1613 
L 953 1613 
Q 991 1019 1311 708 
Q 1631 397 2203 397 
Q 2534 397 2845 478 
Q 3156 559 3463 722 
L 3463 178 
Q 3153 47 2828 -22 
Q 2503 -91 2169 -91 
Q 1331 -91 842 396 
Q 353 884 353 1716 
Q 353 2575 817 3079 
Q 1281 3584 2069 3584 
Q 2775 3584 3186 3129 
Q 3597 2675 3597 1894 
z
M 3022 2063 
Q 3016 2534 2758 2815 
Q 2500 3097 2075 3097 
Q 1594 3097 1305 2825 
Q 1016 2553 972 2059 
L 3022 2063 
z
" transform="scale(0.015625)"/>
       <path id="DejaVuSans-72" d="M 2631 2963 
Q 2534 3019 2420 3045 
Q 2306 3072 2169 3072 
Q 1681 3072 1420 2755 
Q 1159 2438 1159 1844 
L 1159 0 
L 581 0 
L 581 3500 
L 1159 3500 
L 1159 2956 
Q 1341 3275 1631 3429 
Q 1922 3584 2338 3584 
Q 2397 3584 2469 3576 
Q 2541 3569 2628 3553 
L 2631 2963 
z
" transform="scale(0.015625)"/>
       <path id="DejaVuSans-20" transform="scale(0.015625)"/>
       <path id="DejaVuSans-6f" d="M 1959 3097 
Q 1497 3097 1228 2736 
Q 959 2375 959 1747 
Q 959 1119 1226 758 
Q 1494 397 1959 397 
Q 2419 397 2687 759 
Q 2956 1122 2956 1747 
Q 2956 2369 2687 2733 
Q 2419 3097 1959 3097 
z
M 1959 3584 
Q 2709 3584 3137 3096 
Q 3566 2609 3566 1747 
Q 3566 888 3137 398 
Q 2709 -91 1959 -91 
Q 1206 -91 779 398 
Q 353 888 353 1747 
Q 353 2609 779 3096 
Q 1206 3584 1959 3584 
z
" transform="scale(0.015625)"/>
       <path id="DejaVuSans-66" d="M 2375 4863 
L 2375 4384 
L 1825 4384 
Q 1516 4384 1395 4259 
Q 1275 4134 1275 3809 
L 1275 3500 
L 2222 3500 
L 2222 3053 
L 1275 3053 
L 1275 0 
L 697 0 
L 697 3053 
L 147 3053 
L 147 3500 
L 697 3500 
L 697 3744 
Q 697 4328 969 4595 
Q 1241 4863 1831 4863 
L 2375 4863 
z
" transform="scale(0.015625)"/>
       <path id="DejaVuSans-70" d="M 1159 525 
L 1159 -1331 
L 581 -1331 
L 581 3500 
L 1159 3500 
L 1159 2969 
Q 1341 3281 1617 3432 
Q 1894 3584 2278 3584 
Q 2916 3584 3314 3078 
Q 3713 2572 3713 1747 
Q 3713 922 3314 415 
Q 2916 -91 2278 -91 
Q 1894 -91 1617 61 
Q 1341 213 1159 525 
z
M 3116 1747 
Q 3116 2381 2855 2742 
Q 2594 3103 2138 3103 
Q 1681 3103 1420 2742 
Q 1159 2381 1159 1747 
Q 1159 1113 1420 752 
Q 1681 391 2138 391 
Q 2594 391 2855 752 
Q 3116 1113 3116 1747 
z
" transform="scale(0.015625)"/>
       <path id="DejaVuSans-61" d="M 2194 1759 
Q 1497 1759 1228 1600 
Q 959 1441 959 1056 
Q 959 750 1161 570 
Q 1363 391 1709 391 
Q 2188 391 2477 730 
Q 2766 1069 2766 1631 
L 2766 1759 
L 2194 1759 
z
M 3341 1997 
L 3341 0 
L 2766 0 
L 2766 531 
Q 2569 213 2275 61 
Q 1981 -91 1556 -91 
Q 1019 -91 701 211 
Q 384 513 384 1019 
Q 384 1609 779 1909 
Q 1175 2209 1959 2209 
L 2766 2209 
L 2766 2266 
Q 2766 2663 2505 2880 
Q 2244 3097 1772 3097 
Q 1472 3097 1187 3025 
Q 903 2953 641 2809 
L 641 3341 
Q 956 3463 1253 3523 
Q 1550 3584 1831 3584 
Q 2591 3584 2966 3190 
Q 3341 2797 3341 1997 
z
" transform="scale(0.015625)"/>
       <path id="DejaVuSans-74" d="M 1172 4494 
L 1172 3500 
L 2356 3500 
L 2356 3053 
L 1172 3053 
L 1172 1153 
Q 1172 725 1289 603 
Q 1406 481 1766 481 
L 2356 481 
L 2356 0 
L 1766 0 
Q 1100 0 847 248 
Q 594 497 594 1153 
L 594 3053 
L 172 3053 
L 172 3500 
L 594 3500 
L 594 4494 
L 1172 4494 
z
" transform="scale(0.015625)"/>
       <path id="DejaVuSans-69" d="M 603 3500 
L 1178 3500 
L 1178 0 
L 603 0 
L 603 3500 
z
M 603 4863 
L 1178 4863 
L 1178 4134 
L 603 4134 
L 603 4863 
z
" transform="scale(0.015625)"/>
       <path id="DejaVuSans-63" d="M 3122 3366 
L 3122 2828 
Q 2878 2963 2633 3030 
Q 2388 3097 2138 3097 
Q 1578 3097 1268 2742 
Q 959 2388 959 1747 
Q 959 1106 1268 751 
Q 1578 397 2138 397 
Q 2388 397 2633 464 
Q 2878 531 3122 666 
L 3122 134 
Q 2881 22 2623 -34 
Q 2366 -91 2075 -91 
Q 1284 -91 818 406 
Q 353 903 353 1747 
Q 353 2603 823 3093 
Q 1294 3584 2113 3584 
Q 2378 3584 2631 3529 
Q 2884 3475 3122 3366 
z
" transform="scale(0.015625)"/>
       <path id="DejaVuSans-6e" d="M 3513 2113 
L 3513 0 
L 2938 0 
L 2938 2094 
Q 2938 2591 2744 2837 
Q 2550 3084 2163 3084 
Q 1697 3084 1428 2787 
Q 1159 2491 1159 1978 
L 1159 0 
L 581 0 
L 581 3500 
L 1159 3500 
L 1159 2956 
Q 1366 3272 1645 3428 
Q 1925 3584 2291 3584 
Q 2894 3584 3203 3211 
Q 3513 2838 3513 2113 
z
" transform="scale(0.015625)"/>
       <path id="DejaVuSans-73" d="M 2834 3397 
L 2834 2853 
Q 2591 2978 2328 3040 
Q 2066 3103 1784 3103 
Q 1356 3103 1142 2972 
Q 928 2841 928 2578 
Q 928 2378 1081 2264 
Q 1234 2150 1697 2047 
L 1894 2003 
Q 2506 1872 2764 1633 
Q 3022 1394 3022 966 
Q 3022 478 2636 193 
Q 2250 -91 1575 -91 
Q 1294 -91 989 -36 
Q 684 19 347 128 
L 347 722 
Q 666 556 975 473 
Q 1284 391 1588 391 
Q 1994 391 2212 530 
Q 2431 669 2431 922 
Q 2431 1156 2273 1281 
Q 2116 1406 1581 1522 
L 1381 1569 
Q 847 1681 609 1914 
Q 372 2147 372 2553 
Q 372 3047 722 3315 
Q 1072 3584 1716 3584 
Q 2034 3584 2315 3537 
Q 2597 3491 2834 3397 
z
" transform="scale(0.015625)"/>
      </defs>
      <use xlink:href="#DejaVuSans-4e"/>
      <use xlink:href="#DejaVuSans-75" x="74.804688"/>
      <use xlink:href="#DejaVuSans-6d" x="138.183594"/>
      <use xlink:href="#DejaVuSans-62" x="235.595703"/>
      <use xlink:href="#DejaVuSans-65" x="299.072266"/>
      <use xlink:href="#DejaVuSans-72" x="360.595703"/>
      <use xlink:href="#DejaVuSans-20" x="401.708984"/>
      <use xlink:href="#DejaVuSans-6f" x="433.496094"/>
      <use xlink:href="#DejaVuSans-66" x="494.677734"/>
      <use xlink:href="#DejaVuSans-20" x="529.882812"/>
      <use xlink:href="#DejaVuSans-70" x="561.669922"/>
      <use xlink:href="#DejaVuSans-61" x="625.146484"/>
      <use xlink:href="#DejaVuSans-72" x="686.425781"/>
      <use xlink:href="#DejaVuSans-74" x="727.539062"/>
      <use xlink:href="#DejaVuSans-69" x="766.748047"/>
      <use xlink:href="#DejaVuSans-63" x="794.53125"/>
      <use xlink:href="#DejaVuSans-69" x="849.511719"/>
      <use xlink:href="#DejaVuSans-70" x="877.294922"/>
      <use xlink:href="#DejaVuSans-61" x="940.771484"/>
      <use xlink:href="#DejaVuSans-6e" x="1002.050781"/>
      <use xlink:href="#DejaVuSans-74" x="1065.429688"/>
      <use xlink:href="#DejaVuSans-73" x="1104.638672"/>
     </g>
    </g>
   </g>
   <g id="matplotlib.axis_2">
    <g id="ytick_1">
     <g id="line2d_6">
      <path d="M 50.836875 382.679219 
L 417.566875 382.679219 
" clip-path="url(#pe50202f44a)" style="fill: none; stroke-dasharray: 2.96,1.28; stroke-dashoffset: 0; stroke: #c0c0c0; stroke-width: 0.8"/>
     </g>
     <g id="line2d_7">
      <defs>
       <path id="me023682080" d="M 0 0 
L -3.5 0 
" style="stroke: #000000; stroke-width: 0.8"/>
      </defs>
      <g>
       <use xlink:href="#me023682080" x="50.836875" y="382.679219" style="stroke: #000000; stroke-width: 0.8"/>
      </g>
     </g>
     <g id="text_7">
      <!-- 20 -->
      <g transform="translate(31.111875 386.478437) scale(0.1 -0.1)">
       <use xlink:href="#DejaVuSans-32"/>
       <use xlink:href="#DejaVuSans-30" x="63.623047"/>
      </g>
     </g>
    </g>
    <g id="ytick_2">
     <g id="line2d_8">
      <path d="M 50.836875 336.219219 
L 417.566875 336.219219 
" clip-path="url(#pe50202f44a)" style="fill: none; stroke-dasharray: 2.96,1.28; stroke-dashoffset: 0; stroke: #c0c0c0; stroke-width: 0.8"/>
     </g>
     <g id="line2d_9">
      <g>
       <use xlink:href="#me023682080" x="50.836875" y="336.219219" style="stroke: #000000; stroke-width: 0.8"/>
      </g>
     </g>
     <g id="text_8">
      <!-- 30 -->
      <g transform="translate(31.111875 340.018437) scale(0.1 -0.1)">
       <defs>
        <path id="DejaVuSans-33" d="M 2597 2516 
Q 3050 2419 3304 2112 
Q 3559 1806 3559 1356 
Q 3559 666 3084 287 
Q 2609 -91 1734 -91 
Q 1441 -91 1130 -33 
Q 819 25 488 141 
L 488 750 
Q 750 597 1062 519 
Q 1375 441 1716 441 
Q 2309 441 2620 675 
Q 2931 909 2931 1356 
Q 2931 1769 2642 2001 
Q 2353 2234 1838 2234 
L 1294 2234 
L 1294 2753 
L 1863 2753 
Q 2328 2753 2575 2939 
Q 2822 3125 2822 3475 
Q 2822 3834 2567 4026 
Q 2313 4219 1838 4219 
Q 1578 4219 1281 4162 
Q 984 4106 628 3988 
L 628 4550 
Q 988 4650 1302 4700 
Q 1616 4750 1894 4750 
Q 2613 4750 3031 4423 
Q 3450 4097 3450 3541 
Q 3450 3153 3228 2886 
Q 3006 2619 2597 2516 
z
" transform="scale(0.015625)"/>
       </defs>
       <use xlink:href="#DejaVuSans-33"/>
       <use xlink:href="#DejaVuSans-30" x="63.623047"/>
      </g>
     </g>
    </g>
    <g id="ytick_3">
     <g id="line2d_10">
      <path d="M 50.836875 289.759219 
L 417.566875 289.759219 
" clip-path="url(#pe50202f44a)" style="fill: none; stroke-dasharray: 2.96,1.28; stroke-dashoffset: 0; stroke: #c0c0c0; stroke-width: 0.8"/>
     </g>
     <g id="line2d_11">
      <g>
       <use xlink:href="#me023682080" x="50.836875" y="289.759219" style="stroke: #000000; stroke-width: 0.8"/>
      </g>
     </g>
     <g id="text_9">
      <!-- 40 -->
      <g transform="translate(31.111875 293.558437) scale(0.1 -0.1)">
       <use xlink:href="#DejaVuSans-34"/>
       <use xlink:href="#DejaVuSans-30" x="63.623047"/>
      </g>
     </g>
    </g>
    <g id="ytick_4">
     <g id="line2d_12">
      <path d="M 50.836875 243.299219 
L 417.566875 243.299219 
" clip-path="url(#pe50202f44a)" style="fill: none; stroke-dasharray: 2.96,1.28; stroke-dashoffset: 0; stroke: #c0c0c0; stroke-width: 0.8"/>
     </g>
     <g id="line2d_13">
      <g>
       <use xlink:href="#me023682080" x="50.836875" y="243.299219" style="stroke: #000000; stroke-width: 0.8"/>
      </g>
     </g>
     <g id="text_10">
      <!-- 50 -->
      <g transform="translate(31.111875 247.098437) scale(0.1 -0.1)">
       <defs>
        <path id="DejaVuSans-35" d="M 691 4666 
L 3169 4666 
L 3169 4134 
L 1269 4134 
L 1269 2991 
Q 1406 3038 1543 3061 
Q 1681 3084 1819 3084 
Q 2600 3084 3056 2656 
Q 3513 2228 3513 1497 
Q 3513 744 3044 326 
Q 2575 -91 1722 -91 
Q 1428 -91 1123 -41 
Q 819 9 494 109 
L 494 744 
Q 775 591 1075 516 
Q 1375 441 1709 441 
Q 2250 441 2565 725 
Q 2881 1009 2881 1497 
Q 2881 1984 2565 2268 
Q 2250 2553 1709 2553 
Q 1456 2553 1204 2497 
Q 953 2441 691 2322 
L 691 4666 
z
" transform="scale(0.015625)"/>
       </defs>
       <use xlink:href="#DejaVuSans-35"/>
       <use xlink:href="#DejaVuSans-30" x="63.623047"/>
      </g>
     </g>
    </g>
    <g id="ytick_5">
     <g id="line2d_14">
      <path d="M 50.836875 196.839219 
L 417.566875 196.839219 
" clip-path="url(#pe50202f44a)" style="fill: none; stroke-dasharray: 2.96,1.28; stroke-dashoffset: 0; stroke: #c0c0c0; stroke-width: 0.8"/>
     </g>
     <g id="line2d_15">
      <g>
       <use xlink:href="#me023682080" x="50.836875" y="196.839219" style="stroke: #000000; stroke-width: 0.8"/>
      </g>
     </g>
     <g id="text_11">
      <!-- 60 -->
      <g transform="translate(31.111875 200.638437) scale(0.1 -0.1)">
       <use xlink:href="#DejaVuSans-36"/>
       <use xlink:href="#DejaVuSans-30" x="63.623047"/>
      </g>
     </g>
    </g>
    <g id="ytick_6">
     <g id="line2d_16">
      <path d="M 50.836875 150.379219 
L 417.566875 150.379219 
" clip-path="url(#pe50202f44a)" style="fill: none; stroke-dasharray: 2.96,1.28; stroke-dashoffset: 0; stroke: #c0c0c0; stroke-width: 0.8"/>
     </g>
     <g id="line2d_17">
      <g>
       <use xlink:href="#me023682080" x="50.836875" y="150.379219" style="stroke: #000000; stroke-width: 0.8"/>
      </g>
     </g>
     <g id="text_12">
      <!-- 70 -->
      <g transform="translate(31.111875 154.178438) scale(0.1 -0.1)">
       <defs>
        <path id="DejaVuSans-37" d="M 525 4666 
L 3525 4666 
L 3525 4397 
L 1831 0 
L 1172 0 
L 2766 4134 
L 525 4134 
L 525 4666 
z
" transform="scale(0.015625)"/>
       </defs>
       <use xlink:href="#DejaVuSans-37"/>
       <use xlink:href="#DejaVuSans-30" x="63.623047"/>
      </g>
     </g>
    </g>
    <g id="ytick_7">
     <g id="line2d_18">
      <path d="M 50.836875 103.919219 
L 417.566875 103.919219 
" clip-path="url(#pe50202f44a)" style="fill: none; stroke-dasharray: 2.96,1.28; stroke-dashoffset: 0; stroke: #c0c0c0; stroke-width: 0.8"/>
     </g>
     <g id="line2d_19">
      <g>
       <use xlink:href="#me023682080" x="50.836875" y="103.919219" style="stroke: #000000; stroke-width: 0.8"/>
      </g>
     </g>
     <g id="text_13">
      <!-- 80 -->
      <g transform="translate(31.111875 107.718437) scale(0.1 -0.1)">
       <use xlink:href="#DejaVuSans-38"/>
       <use xlink:href="#DejaVuSans-30" x="63.623047"/>
      </g>
     </g>
    </g>
    <g id="ytick_8">
     <g id="line2d_20">
      <path d="M 50.836875 57.459219 
L 417.566875 57.459219 
" clip-path="url(#pe50202f44a)" style="fill: none; stroke-dasharray: 2.96,1.28; stroke-dashoffset: 0; stroke: #c0c0c0; stroke-width: 0.8"/>
     </g>
     <g id="line2d_21">
      <g>
       <use xlink:href="#me023682080" x="50.836875" y="57.459219" style="stroke: #000000; stroke-width: 0.8"/>
      </g>
     </g>
     <g id="text_14">
      <!-- 90 -->
      <g transform="translate(31.111875 61.258438) scale(0.1 -0.1)">
       <defs>
        <path id="DejaVuSans-39" d="M 703 97 
L 703 672 
Q 941 559 1184 500 
Q 1428 441 1663 441 
Q 2288 441 2617 861 
Q 2947 1281 2994 2138 
Q 2813 1869 2534 1725 
Q 2256 1581 1919 1581 
Q 1219 1581 811 2004 
Q 403 2428 403 3163 
Q 403 3881 828 4315 
Q 1253 4750 1959 4750 
Q 2769 4750 3195 4129 
Q 3622 3509 3622 2328 
Q 3622 1225 3098 567 
Q 2575 -91 1691 -91 
Q 1453 -91 1209 -44 
Q 966 3 703 97 
z
M 1959 2075 
Q 2384 2075 2632 2365 
Q 2881 2656 2881 3163 
Q 2881 3666 2632 3958 
Q 2384 4250 1959 4250 
Q 1534 4250 1286 3958 
Q 1038 3666 1038 3163 
Q 1038 2656 1286 2365 
Q 1534 2075 1959 2075 
z
" transform="scale(0.015625)"/>
       </defs>
       <use xlink:href="#DejaVuSans-39"/>
       <use xlink:href="#DejaVuSans-30" x="63.623047"/>
      </g>
     </g>
    </g>
    <g id="ytick_9">
     <g id="line2d_22">
      <path d="M 50.836875 10.999219 
L 417.566875 10.999219 
" clip-path="url(#pe50202f44a)" style="fill: none; stroke-dasharray: 2.96,1.28; stroke-dashoffset: 0; stroke: #c0c0c0; stroke-width: 0.8"/>
     </g>
     <g id="line2d_23">
      <g>
       <use xlink:href="#me023682080" x="50.836875" y="10.999219" style="stroke: #000000; stroke-width: 0.8"/>
      </g>
     </g>
     <g id="text_15">
      <!-- 100 -->
      <g transform="translate(24.749375 14.798438) scale(0.1 -0.1)">
       <defs>
        <path id="DejaVuSans-31" d="M 794 531 
L 1825 531 
L 1825 4091 
L 703 3866 
L 703 4441 
L 1819 4666 
L 2450 4666 
L 2450 531 
L 3481 531 
L 3481 0 
L 794 0 
L 794 531 
z
" transform="scale(0.015625)"/>
       </defs>
       <use xlink:href="#DejaVuSans-31"/>
       <use xlink:href="#DejaVuSans-30" x="63.623047"/>
       <use xlink:href="#DejaVuSans-30" x="127.246094"/>
      </g>
     </g>
    </g>
    <g id="text_16">
     <!-- Success Rate (%) -->
     <g transform="translate(17.837812 257.627656) rotate(-90) scale(0.14 -0.14)">
      <defs>
       <path id="DejaVuSans-53" d="M 3425 4513 
L 3425 3897 
Q 3066 4069 2747 4153 
Q 2428 4238 2131 4238 
Q 1616 4238 1336 4038 
Q 1056 3838 1056 3469 
Q 1056 3159 1242 3001 
Q 1428 2844 1947 2747 
L 2328 2669 
Q 3034 2534 3370 2195 
Q 3706 1856 3706 1288 
Q 3706 609 3251 259 
Q 2797 -91 1919 -91 
Q 1588 -91 1214 -16 
Q 841 59 441 206 
L 441 856 
Q 825 641 1194 531 
Q 1563 422 1919 422 
Q 2459 422 2753 634 
Q 3047 847 3047 1241 
Q 3047 1584 2836 1778 
Q 2625 1972 2144 2069 
L 1759 2144 
Q 1053 2284 737 2584 
Q 422 2884 422 3419 
Q 422 4038 858 4394 
Q 1294 4750 2059 4750 
Q 2388 4750 2728 4690 
Q 3069 4631 3425 4513 
z
" transform="scale(0.015625)"/>
       <path id="DejaVuSans-52" d="M 2841 2188 
Q 3044 2119 3236 1894 
Q 3428 1669 3622 1275 
L 4263 0 
L 3584 0 
L 2988 1197 
Q 2756 1666 2539 1819 
Q 2322 1972 1947 1972 
L 1259 1972 
L 1259 0 
L 628 0 
L 628 4666 
L 2053 4666 
Q 2853 4666 3247 4331 
Q 3641 3997 3641 3322 
Q 3641 2881 3436 2590 
Q 3231 2300 2841 2188 
z
M 1259 4147 
L 1259 2491 
L 2053 2491 
Q 2509 2491 2742 2702 
Q 2975 2913 2975 3322 
Q 2975 3731 2742 3939 
Q 2509 4147 2053 4147 
L 1259 4147 
z
" transform="scale(0.015625)"/>
       <path id="DejaVuSans-28" d="M 1984 4856 
Q 1566 4138 1362 3434 
Q 1159 2731 1159 2009 
Q 1159 1288 1364 580 
Q 1569 -128 1984 -844 
L 1484 -844 
Q 1016 -109 783 600 
Q 550 1309 550 2009 
Q 550 2706 781 3412 
Q 1013 4119 1484 4856 
L 1984 4856 
z
" transform="scale(0.015625)"/>
       <path id="DejaVuSans-25" d="M 4653 2053 
Q 4381 2053 4226 1822 
Q 4072 1591 4072 1178 
Q 4072 772 4226 539 
Q 4381 306 4653 306 
Q 4919 306 5073 539 
Q 5228 772 5228 1178 
Q 5228 1588 5073 1820 
Q 4919 2053 4653 2053 
z
M 4653 2450 
Q 5147 2450 5437 2106 
Q 5728 1763 5728 1178 
Q 5728 594 5436 251 
Q 5144 -91 4653 -91 
Q 4153 -91 3862 251 
Q 3572 594 3572 1178 
Q 3572 1766 3864 2108 
Q 4156 2450 4653 2450 
z
M 1428 4353 
Q 1159 4353 1004 4120 
Q 850 3888 850 3481 
Q 850 3069 1003 2837 
Q 1156 2606 1428 2606 
Q 1700 2606 1854 2837 
Q 2009 3069 2009 3481 
Q 2009 3884 1853 4118 
Q 1697 4353 1428 4353 
z
M 4250 4750 
L 4750 4750 
L 1831 -91 
L 1331 -91 
L 4250 4750 
z
M 1428 4750 
Q 1922 4750 2215 4408 
Q 2509 4066 2509 3481 
Q 2509 2891 2217 2550 
Q 1925 2209 1428 2209 
Q 931 2209 642 2551 
Q 353 2894 353 3481 
Q 353 4063 643 4406 
Q 934 4750 1428 4750 
z
" transform="scale(0.015625)"/>
       <path id="DejaVuSans-29" d="M 513 4856 
L 1013 4856 
Q 1481 4119 1714 3412 
Q 1947 2706 1947 2009 
Q 1947 1309 1714 600 
Q 1481 -109 1013 -844 
L 513 -844 
Q 928 -128 1133 580 
Q 1338 1288 1338 2009 
Q 1338 2731 1133 3434 
Q 928 4138 513 4856 
z
" transform="scale(0.015625)"/>
      </defs>
      <use xlink:href="#DejaVuSans-53"/>
      <use xlink:href="#DejaVuSans-75" x="63.476562"/>
      <use xlink:href="#DejaVuSans-63" x="126.855469"/>
      <use xlink:href="#DejaVuSans-63" x="181.835938"/>
      <use xlink:href="#DejaVuSans-65" x="236.816406"/>
      <use xlink:href="#DejaVuSans-73" x="298.339844"/>
      <use xlink:href="#DejaVuSans-73" x="350.439453"/>
      <use xlink:href="#DejaVuSans-20" x="402.539062"/>
      <use xlink:href="#DejaVuSans-52" x="434.326172"/>
      <use xlink:href="#DejaVuSans-61" x="501.558594"/>
      <use xlink:href="#DejaVuSans-74" x="562.837891"/>
      <use xlink:href="#DejaVuSans-65" x="602.046875"/>
      <use xlink:href="#DejaVuSans-20" x="663.570312"/>
      <use xlink:href="#DejaVuSans-28" x="695.357422"/>
      <use xlink:href="#DejaVuSans-25" x="734.371094"/>
      <use xlink:href="#DejaVuSans-29" x="829.390625"/>
     </g>
    </g>
   </g>
   <g id="PolyCollection_1">
    <defs>
     <path id="mf18a2d1152" d="M 50.836875 -149.2147 
L 50.836875 -149.2147 
L 54.823071 -156.555519 
L 58.809266 -168.988355 
L 62.795462 -180.583756 
L 66.781658 -178.487213 
L 70.767853 -174.606053 
L 74.754049 -177.285764 
L 78.740245 -180.940832 
L 82.72644 -184.451024 
L 86.712636 -186.224813 
L 90.698832 -187.634828 
L 94.685027 -187.399942 
L 98.671223 -187.272709 
L 102.657418 -187.842587 
L 106.643614 -188.436072 
L 110.62981 -189.4482 
L 114.616005 -191.461315 
L 118.602201 -194.510483 
L 122.588397 -195.445429 
L 126.574592 -195.671974 
L 130.560788 -196.924813 
L 134.546984 -196.841316 
L 138.533179 -197.204712 
L 142.519375 -199.377062 
L 146.505571 -200.363115 
L 150.491766 -200.965312 
L 154.477962 -203.470812 
L 158.464158 -205.563571 
L 162.450353 -205.200846 
L 166.436549 -204.126743 
L 170.422745 -204.359062 
L 174.40894 -205.036778 
L 178.395136 -205.602756 
L 182.381332 -206.163549 
L 186.367527 -207.142814 
L 190.353723 -208.259879 
L 194.339918 -209.629483 
L 198.326114 -210.71176 
L 202.31231 -210.842896 
L 206.298505 -211.834882 
L 210.284701 -213.281097 
L 214.270897 -213.433908 
L 218.257092 -212.764744 
L 222.243288 -211.897066 
L 226.229484 -211.767212 
L 230.215679 -212.693194 
L 234.201875 -214.120491 
L 238.188071 -215.306273 
L 242.174266 -215.688811 
L 246.160462 -215.261789 
L 250.146658 -214.659405 
L 254.132853 -214.953262 
L 258.119049 -216.400492 
L 262.105245 -217.389647 
L 266.09144 -217.725205 
L 270.077636 -217.928333 
L 274.063832 -218.184143 
L 278.050027 -218.257085 
L 282.036223 -218.077435 
L 286.022418 -218.421259 
L 290.008614 -219.373867 
L 293.99481 -219.97744 
L 297.981005 -219.972143 
L 301.967201 -220.383388 
L 305.953397 -220.967069 
L 309.939592 -221.097175 
L 313.925788 -221.200833 
L 317.911984 -220.969948 
L 321.898179 -221.278786 
L 325.884375 -221.464589 
L 329.870571 -221.456828 
L 333.856766 -222.334804 
L 337.842962 -222.596018 
L 341.829158 -222.057943 
L 345.815353 -222.043121 
L 349.801549 -223.137151 
L 353.787745 -224.643369 
L 357.77394 -225.092251 
L 361.760136 -224.40343 
L 365.746332 -224.233206 
L 369.732527 -225.008742 
L 373.718723 -225.905643 
L 377.704918 -226.210219 
L 381.691114 -226.029305 
L 385.67731 -226.100348 
L 389.663505 -226.273224 
L 393.649701 -226.047891 
L 397.635897 -225.988032 
L 401.622092 -226.225452 
L 405.608288 -225.998378 
L 409.594484 -225.302261 
L 413.580679 -224.862305 
L 417.566875 -224.764401 
L 421.553071 -224.75639 
L 421.553071 -224.755978 
L 421.553071 -224.755978 
L 417.566875 -224.750276 
L 413.580679 -224.679669 
L 409.594484 -224.344536 
L 405.608288 -223.646655 
L 401.622092 -222.720941 
L 397.635897 -221.835412 
L 393.649701 -221.430157 
L 389.663505 -221.052675 
L 385.67731 -220.384159 
L 381.691114 -220.192803 
L 377.704918 -220.496943 
L 373.718723 -220.191532 
L 369.732527 -218.92744 
L 365.746332 -217.592102 
L 361.760136 -217.215822 
L 357.77394 -217.574818 
L 353.787745 -217.218144 
L 349.801549 -216.009336 
L 345.815353 -215.119637 
L 341.829158 -215.115551 
L 337.842962 -215.576193 
L 333.856766 -215.291561 
L 329.870571 -214.250067 
L 325.884375 -213.969139 
L 321.898179 -213.741114 
L 317.911984 -213.498119 
L 313.925788 -213.579872 
L 309.939592 -213.221736 
L 305.953397 -212.807858 
L 301.967201 -212.091902 
L 297.981005 -211.743188 
L 293.99481 -211.827116 
L 290.008614 -211.120256 
L 286.022418 -209.967527 
L 282.036223 -209.403686 
L 278.050027 -209.295624 
L 274.063832 -209.222614 
L 270.077636 -209.197405 
L 266.09144 -208.668012 
L 262.105245 -207.872319 
L 258.119049 -207.086851 
L 254.132853 -205.912741 
L 250.146658 -205.27741 
L 246.160462 -205.552956 
L 242.174266 -205.910687 
L 238.188071 -205.465431 
L 234.201875 -204.229637 
L 230.215679 -203.079277 
L 226.229484 -202.110953 
L 222.243288 -201.843198 
L 218.257092 -202.074875 
L 214.270897 -202.283011 
L 210.284701 -202.159713 
L 206.298505 -201.242564 
L 202.31231 -201.316109 
L 198.326114 -201.449769 
L 194.339918 -199.721114 
L 190.353723 -197.983317 
L 186.367527 -196.697117 
L 182.381332 -195.277716 
L 178.395136 -194.454591 
L 174.40894 -193.2322 
L 170.422745 -191.326459 
L 166.436549 -190.862018 
L 162.450353 -192.682294 
L 158.464158 -193.512154 
L 154.477962 -191.615631 
L 150.491766 -188.575981 
L 146.505571 -186.864807 
L 142.519375 -186.171265 
L 138.533179 -185.461396 
L 134.546984 -185.16679 
L 130.560788 -183.84803 
L 126.574592 -180.866221 
L 122.588397 -180.057148 
L 118.602201 -179.589619 
L 114.616005 -176.871873 
L 110.62981 -174.831714 
L 106.643614 -173.657959 
L 102.657418 -174.039173 
L 98.671223 -174.622405 
L 94.685027 -173.892492 
L 90.698832 -172.23934 
L 86.712636 -168.873347 
L 82.72644 -166.68903 
L 78.740245 -165.072937 
L 74.754049 -161.556095 
L 70.767853 -155.059866 
L 66.781658 -151.745458 
L 62.795462 -141.570313 
L 58.809266 -129.457741 
L 54.823071 -133.272184 
L 50.836875 -149.2147 
z
" style="stroke: #808080; stroke-opacity: 0.1"/>
    </defs>
    <g clip-path="url(#pe50202f44a)">
     <use xlink:href="#mf18a2d1152" x="0" y="424.106719" style="fill: #808080; fill-opacity: 0.1; stroke: #808080; stroke-opacity: 0.1"/>
    </g>
   </g>
   <g id="PolyCollection_2">
    <defs>
     <path id="m9852ab7ef1" d="M 50.836875 -149.2147 
L 50.836875 -149.2147 
L 54.823071 -149.351093 
L 58.809266 -149.865661 
L 62.795462 -153.881581 
L 66.781658 -165.112264 
L 70.767853 -176.090487 
L 74.754049 -179.448524 
L 78.740245 -184.226872 
L 82.72644 -191.33971 
L 86.712636 -197.392122 
L 90.698832 -202.705092 
L 94.685027 -203.839393 
L 98.671223 -201.49396 
L 102.657418 -202.444033 
L 106.643614 -204.064018 
L 110.62981 -205.390439 
L 114.616005 -208.0969 
L 118.602201 -209.279782 
L 122.588397 -209.84449 
L 126.574592 -212.284043 
L 130.560788 -214.699646 
L 134.546984 -216.351822 
L 138.533179 -216.526182 
L 142.519375 -215.778381 
L 146.505571 -216.019927 
L 150.491766 -217.784398 
L 154.477962 -219.590387 
L 158.464158 -219.625238 
L 162.450353 -217.874847 
L 166.436549 -216.709312 
L 170.422745 -217.337886 
L 174.40894 -218.72094 
L 178.395136 -220.384229 
L 182.381332 -222.137687 
L 186.367527 -223.489135 
L 190.353723 -223.468672 
L 194.339918 -223.026848 
L 198.326114 -223.100569 
L 202.31231 -223.526367 
L 206.298505 -223.592758 
L 210.284701 -223.006686 
L 214.270897 -223.49722 
L 218.257092 -224.892798 
L 222.243288 -225.513323 
L 226.229484 -225.537492 
L 230.215679 -225.152439 
L 234.201875 -224.8322 
L 238.188071 -224.598498 
L 242.174266 -224.649176 
L 246.160462 -225.26215 
L 250.146658 -225.772158 
L 254.132853 -225.716279 
L 258.119049 -226.232965 
L 262.105245 -227.257442 
L 266.09144 -227.621014 
L 270.077636 -227.270006 
L 274.063832 -226.976973 
L 278.050027 -226.65478 
L 282.036223 -226.23409 
L 286.022418 -225.643627 
L 290.008614 -225.590133 
L 293.99481 -226.216834 
L 297.981005 -226.994952 
L 301.967201 -227.724362 
L 305.953397 -228.426058 
L 309.939592 -228.853091 
L 313.925788 -229.060836 
L 317.911984 -229.160938 
L 321.898179 -228.987057 
L 325.884375 -228.586779 
L 329.870571 -228.18664 
L 333.856766 -228.118966 
L 337.842962 -228.461185 
L 341.829158 -228.624674 
L 345.815353 -228.468754 
L 349.801549 -228.50628 
L 353.787745 -228.896071 
L 357.77394 -229.231679 
L 361.760136 -229.131591 
L 365.746332 -228.602232 
L 369.732527 -228.127653 
L 373.718723 -228.075786 
L 377.704918 -228.419964 
L 381.691114 -228.361053 
L 385.67731 -227.819034 
L 389.663505 -227.409778 
L 393.649701 -227.31495 
L 397.635897 -227.165255 
L 401.622092 -226.612963 
L 405.608288 -225.739611 
L 409.594484 -225.062975 
L 413.580679 -224.80515 
L 417.566875 -224.759624 
L 421.553071 -224.756244 
L 421.553071 -224.756099 
L 421.553071 -224.756099 
L 417.566875 -224.754517 
L 413.580679 -224.736898 
L 409.594484 -224.678451 
L 405.608288 -224.679528 
L 401.622092 -224.855232 
L 397.635897 -224.973197 
L 393.649701 -224.89476 
L 389.663505 -224.896842 
L 385.67731 -225.180422 
L 381.691114 -225.473775 
L 377.704918 -225.332752 
L 373.718723 -224.860207 
L 369.732527 -224.758854 
L 365.746332 -225.119338 
L 361.760136 -225.498632 
L 357.77394 -225.446965 
L 353.787745 -225.044426 
L 349.801549 -224.548139 
L 345.815353 -224.193212 
L 341.829158 -223.879761 
L 337.842962 -223.28841 
L 333.856766 -222.934852 
L 329.870571 -223.408762 
L 325.884375 -223.903662 
L 321.898179 -224.202384 
L 317.911984 -224.40574 
L 313.925788 -224.241411 
L 309.939592 -223.747777 
L 305.953397 -222.775836 
L 301.967201 -221.865487 
L 297.981005 -221.310494 
L 293.99481 -220.398803 
L 290.008614 -219.552904 
L 286.022418 -219.74149 
L 282.036223 -220.409791 
L 278.050027 -220.646663 
L 274.063832 -220.823622 
L 270.077636 -221.218177 
L 266.09144 -221.471059 
L 262.105245 -220.872761 
L 258.119049 -219.724653 
L 254.132853 -218.987656 
L 250.146658 -218.947579 
L 246.160462 -218.657822 
L 242.174266 -218.067523 
L 238.188071 -217.475646 
L 234.201875 -217.089313 
L 230.215679 -216.85287 
L 226.229484 -216.372879 
L 222.243288 -215.763998 
L 218.257092 -215.784047 
L 214.270897 -215.343364 
L 210.284701 -214.898147 
L 206.298505 -215.358344 
L 202.31231 -215.022808 
L 198.326114 -214.107842 
L 194.339918 -213.644432 
L 190.353723 -213.855483 
L 186.367527 -213.702662 
L 182.381332 -212.217065 
L 178.395136 -210.084884 
L 174.40894 -207.886127 
L 170.422745 -205.855093 
L 166.436549 -204.658285 
L 162.450353 -205.449996 
L 158.464158 -207.161446 
L 154.477962 -207.9431 
L 150.491766 -207.090578 
L 146.505571 -205.345117 
L 142.519375 -204.089394 
L 138.533179 -203.886497 
L 134.546984 -203.320922 
L 130.560788 -201.402344 
L 126.574592 -199.026623 
L 122.588397 -197.034113 
L 118.602201 -196.338473 
L 114.616005 -194.451264 
L 110.62981 -192.049156 
L 106.643614 -190.204058 
L 102.657418 -186.531123 
L 98.671223 -184.858147 
L 94.685027 -187.007774 
L 90.698832 -185.819521 
L 86.712636 -181.627721 
L 82.72644 -177.553026 
L 78.740245 -170.007168 
L 74.754049 -163.478002 
L 70.767853 -161.240708 
L 66.781658 -154.306451 
L 62.795462 -143.806935 
L 58.809266 -139.714443 
L 54.823071 -142.993858 
L 50.836875 -149.2147 
z
" style="stroke: #8c510a; stroke-opacity: 0.1"/>
    </defs>
    <g clip-path="url(#pe50202f44a)">
     <use xlink:href="#m9852ab7ef1" x="0" y="424.106719" style="fill: #8c510a; fill-opacity: 0.1; stroke: #8c510a; stroke-opacity: 0.1"/>
    </g>
   </g>
   <g id="PolyCollection_3">
    <defs>
     <path id="maf3f669330" d="M 50.836875 -149.2147 
L 50.836875 -149.2147 
L 54.823071 -147.812998 
L 58.809266 -142.818334 
L 62.795462 -138.068195 
L 66.781658 -144.882697 
L 70.767853 -155.671771 
L 74.754049 -159.331504 
L 78.740245 -161.357801 
L 82.72644 -158.383131 
L 86.712636 -152.399895 
L 90.698832 -148.884001 
L 94.685027 -142.617125 
L 98.671223 -137.249144 
L 102.657418 -138.129156 
L 106.643614 -143.539762 
L 110.62981 -150.2476 
L 114.616005 -154.872472 
L 118.602201 -154.760377 
L 122.588397 -151.80376 
L 126.574592 -149.728717 
L 130.560788 -148.271638 
L 134.546984 -149.02835 
L 138.533179 -150.686994 
L 142.519375 -151.068324 
L 146.505571 -151.675108 
L 150.491766 -154.653923 
L 154.477962 -157.958369 
L 158.464158 -156.346522 
L 162.450353 -152.468987 
L 166.436549 -153.011013 
L 170.422745 -153.62931 
L 174.40894 -151.980262 
L 178.395136 -152.034293 
L 182.381332 -155.042467 
L 186.367527 -157.235234 
L 190.353723 -156.305408 
L 194.339918 -155.944191 
L 198.326114 -155.120534 
L 202.31231 -152.601748 
L 206.298505 -153.360144 
L 210.284701 -155.931362 
L 214.270897 -155.372935 
L 218.257092 -154.980517 
L 222.243288 -156.650644 
L 226.229484 -158.17023 
L 230.215679 -158.749507 
L 234.201875 -158.349192 
L 238.188071 -157.458508 
L 242.174266 -157.290938 
L 246.160462 -156.884277 
L 250.146658 -156.298352 
L 254.132853 -155.936239 
L 258.119049 -155.631087 
L 262.105245 -155.963194 
L 266.09144 -156.18462 
L 270.077636 -156.166654 
L 274.063832 -157.447197 
L 278.050027 -158.258818 
L 282.036223 -157.328047 
L 286.022418 -156.202175 
L 290.008614 -156.208505 
L 293.99481 -156.649626 
L 297.981005 -157.123694 
L 301.967201 -157.534407 
L 305.953397 -157.596819 
L 309.939592 -157.36068 
L 313.925788 -157.054508 
L 317.911984 -157.136703 
L 321.898179 -157.17576 
L 325.884375 -157.127807 
L 329.870571 -157.296998 
L 333.856766 -157.20865 
L 337.842962 -156.184303 
L 341.829158 -154.990732 
L 345.815353 -154.707056 
L 349.801549 -155.274805 
L 353.787745 -155.704062 
L 357.77394 -156.122559 
L 361.760136 -156.642218 
L 365.746332 -155.983952 
L 369.732527 -154.590526 
L 373.718723 -153.548539 
L 377.704918 -152.993318 
L 381.691114 -152.813329 
L 385.67731 -153.322967 
L 389.663505 -153.931803 
L 393.649701 -154.000566 
L 397.635897 -153.245137 
L 401.622092 -152.323439 
L 405.608288 -151.684247 
L 409.594484 -150.910725 
L 413.580679 -150.01151 
L 417.566875 -149.527418 
L 421.553071 -149.424437 
L 421.553071 -149.407931 
L 421.553071 -149.407931 
L 417.566875 -149.319479 
L 413.580679 -148.916547 
L 409.594484 -148.227056 
L 405.608288 -147.764803 
L 401.622092 -147.634131 
L 397.635897 -147.651096 
L 393.649701 -147.705752 
L 389.663505 -147.717219 
L 385.67731 -147.652163 
L 381.691114 -147.299859 
L 377.704918 -146.965217 
L 373.718723 -147.19063 
L 369.732527 -147.338011 
L 365.746332 -147.245366 
L 361.760136 -147.407758 
L 357.77394 -147.319506 
L 353.787745 -146.566016 
L 349.801549 -145.350607 
L 345.815353 -144.340657 
L 341.829158 -143.872602 
L 337.842962 -143.797493 
L 333.856766 -144.905408 
L 329.870571 -145.44535 
L 325.884375 -144.784209 
L 321.898179 -144.409489 
L 317.911984 -143.749285 
L 313.925788 -142.804071 
L 309.939592 -143.155607 
L 305.953397 -144.00193 
L 301.967201 -143.57253 
L 297.981005 -142.518138 
L 293.99481 -142.182377 
L 290.008614 -141.993395 
L 286.022418 -142.035851 
L 282.036223 -142.820652 
L 278.050027 -143.376487 
L 274.063832 -142.283986 
L 270.077636 -140.322379 
L 266.09144 -139.333887 
L 262.105245 -138.148079 
L 258.119049 -137.329012 
L 254.132853 -137.755484 
L 250.146658 -138.146132 
L 246.160462 -138.883799 
L 242.174266 -140.303166 
L 238.188071 -140.817002 
L 234.201875 -141.228416 
L 230.215679 -140.783656 
L 226.229484 -139.459816 
L 222.243288 -137.895603 
L 218.257092 -136.08682 
L 214.270897 -136.042511 
L 210.284701 -136.761977 
L 206.298505 -133.582748 
L 202.31231 -132.217108 
L 198.326114 -135.296144 
L 194.339918 -136.629461 
L 190.353723 -136.753435 
L 186.367527 -136.42659 
L 182.381332 -133.183376 
L 178.395136 -129.554091 
L 174.40894 -129.401279 
L 170.422745 -131.464114 
L 166.436549 -129.815547 
L 162.450353 -128.178288 
L 158.464158 -133.577504 
L 154.477962 -137.288698 
L 150.491766 -133.547922 
L 146.505571 -129.991728 
L 142.519375 -129.719189 
L 138.533179 -130.034852 
L 134.546984 -128.986601 
L 130.560788 -127.519425 
L 126.574592 -127.578846 
L 122.588397 -129.149538 
L 118.602201 -131.847952 
L 114.616005 -131.945123 
L 110.62981 -127.4515 
L 106.643614 -122.535327 
L 102.657418 -119.991783 
L 98.671223 -119.788443 
L 94.685027 -122.808632 
L 90.698832 -125.691254 
L 86.712636 -127.21853 
L 82.72644 -132.791347 
L 78.740245 -134.555434 
L 74.754049 -129.779958 
L 70.767853 -122.462451 
L 66.781658 -110.643617 
L 62.795462 -112.615211 
L 58.809266 -130.185426 
L 54.823071 -143.21903 
L 50.836875 -149.2147 
z
" style="stroke: #01665e; stroke-opacity: 0.1"/>
    </defs>
    <g clip-path="url(#pe50202f44a)">
     <use xlink:href="#maf3f669330" x="0" y="424.106719" style="fill: #01665e; fill-opacity: 0.1; stroke: #01665e; stroke-opacity: 0.1"/>
    </g>
   </g>
   <g id="line2d_24">
    <path d="M 50.836875 274.892019 
L 54.823071 275.312311 
L 58.809266 268.295235 
L 62.795462 256.527444 
L 66.781658 254.533424 
L 70.767853 256.016062 
L 74.754049 252.064178 
L 78.740245 248.455185 
L 82.72644 245.576359 
L 86.712636 243.665728 
L 90.698832 241.60372 
L 94.685027 241.20926 
L 98.671223 241.050777 
L 102.657418 240.86527 
L 106.643614 240.596684 
L 110.62981 239.530681 
L 114.616005 237.508551 
L 118.602201 234.569857 
L 122.588397 233.790717 
L 126.574592 233.369996 
L 130.560788 231.540833 
L 134.546984 231.156912 
L 138.533179 230.816445 
L 142.519375 229.131589 
L 146.505571 228.24304 
L 150.491766 227.271184 
L 154.477962 224.587634 
L 158.464158 222.560287 
L 162.450353 223.078723 
L 166.436549 224.401551 
L 170.422745 224.091858 
L 174.40894 223.0048 
L 178.395136 222.220018 
L 182.381332 221.571781 
L 186.367527 220.445804 
L 190.353723 219.272361 
L 194.339918 217.780025 
L 198.326114 216.482289 
L 202.31231 216.439419 
L 206.298505 215.80261 
L 210.284701 214.53275 
L 214.270897 214.389777 
L 218.257092 214.905264 
L 222.243288 215.560942 
L 226.229484 215.55826 
L 230.215679 214.618164 
L 234.201875 213.283179 
L 238.188071 212.080726 
L 242.174266 211.677283 
L 246.160462 212.081208 
L 250.146658 212.574645 
L 254.132853 212.166964 
L 258.119049 210.810774 
L 262.105245 209.889514 
L 266.09144 209.400578 
L 270.077636 209.088695 
L 274.063832 208.909752 
L 278.050027 208.836787 
L 282.036223 208.920533 
L 286.022418 208.50337 
L 290.008614 207.484056 
L 293.99481 206.846053 
L 297.981005 206.877561 
L 301.967201 206.48716 
L 305.953397 205.859387 
L 309.939592 205.63469 
L 313.925788 205.446206 
L 317.911984 205.62738 
L 321.898179 205.34049 
L 325.884375 205.140613 
L 329.870571 205.052145 
L 333.856766 204.119662 
L 337.842962 203.850642 
L 341.829158 204.362906 
L 345.815353 204.371426 
L 349.801549 203.345506 
L 353.787745 201.938425 
L 357.77394 201.520279 
L 361.760136 202.099158 
L 365.746332 202.087214 
L 369.732527 201.125077 
L 373.718723 200.10578 
L 377.704918 199.800925 
L 381.691114 200.022915 
L 385.67731 199.911767 
L 389.663505 199.573678 
L 393.649701 199.598072 
L 397.635897 199.502894 
L 401.622092 199.049437 
L 405.608288 198.892248 
L 409.594484 199.1237 
L 413.580679 199.305293 
L 417.566875 199.347026 
L 421.553071 199.350466 
" clip-path="url(#pe50202f44a)" style="fill: none; stroke: #808080; stroke-width: 2; stroke-linecap: square"/>
   </g>
   <g id="line2d_25">
    <path d="M 50.836875 274.892019 
L 54.823071 267.5512 
L 58.809266 255.118363 
L 62.795462 243.522963 
L 66.781658 245.619506 
L 70.767853 249.500666 
L 74.754049 246.820955 
L 78.740245 243.165886 
L 82.72644 239.655694 
L 86.712636 237.881906 
L 90.698832 236.47189 
L 94.685027 236.706777 
L 98.671223 236.83401 
L 102.657418 236.264131 
L 106.643614 235.670647 
L 110.62981 234.658519 
L 114.616005 232.645403 
L 118.602201 229.596236 
L 122.588397 228.66129 
L 126.574592 228.434745 
L 130.560788 227.181906 
L 134.546984 227.265403 
L 138.533179 226.902007 
L 142.519375 224.729657 
L 146.505571 223.743604 
L 150.491766 223.141407 
L 154.477962 220.635907 
L 158.464158 218.543148 
L 162.450353 218.905872 
L 166.436549 219.979976 
L 170.422745 219.747657 
L 174.40894 219.069941 
L 178.395136 218.503963 
L 182.381332 217.94317 
L 186.367527 216.963904 
L 190.353723 215.84684 
L 194.339918 214.477236 
L 198.326114 213.394959 
L 202.31231 213.263823 
L 206.298505 212.271837 
L 210.284701 210.825622 
L 214.270897 210.672811 
L 218.257092 211.341975 
L 222.243288 212.209653 
L 226.229484 212.339507 
L 230.215679 211.413525 
L 234.201875 209.986227 
L 238.188071 208.800446 
L 242.174266 208.417908 
L 246.160462 208.84493 
L 250.146658 209.447314 
L 254.132853 209.153457 
L 258.119049 207.706227 
L 262.105245 206.717072 
L 266.09144 206.381514 
L 270.077636 206.178386 
L 274.063832 205.922576 
L 278.050027 205.849634 
L 282.036223 206.029284 
L 286.022418 205.685459 
L 290.008614 204.732852 
L 293.99481 204.129278 
L 297.981005 204.134576 
L 301.967201 203.723331 
L 305.953397 203.13965 
L 309.939592 203.009544 
L 313.925788 202.905886 
L 317.911984 203.136771 
L 321.898179 202.827933 
L 325.884375 202.64213 
L 329.870571 202.649891 
L 333.856766 201.771915 
L 337.842962 201.510701 
L 341.829158 202.048776 
L 345.815353 202.063598 
L 349.801549 200.969567 
L 353.787745 199.46335 
L 357.77394 199.014468 
L 361.760136 199.703288 
L 365.746332 199.873513 
L 369.732527 199.097977 
L 373.718723 198.201076 
L 377.704918 197.8965 
L 381.691114 198.077414 
L 385.67731 198.00637 
L 389.663505 197.833494 
L 393.649701 198.058828 
L 397.635897 198.118687 
L 401.622092 197.881267 
L 405.608288 198.108341 
L 409.594484 198.804458 
L 413.580679 199.244414 
L 417.566875 199.342318 
L 421.553071 199.350329 
" clip-path="url(#pe50202f44a)" style="fill: none; stroke-dasharray: 3.7,1.6; stroke-dashoffset: 0; stroke: #808080"/>
   </g>
   <g id="line2d_26">
    <path d="M 50.836875 274.892019 
L 54.823071 290.834535 
L 58.809266 294.648977 
L 62.795462 282.536406 
L 66.781658 272.361261 
L 70.767853 269.046853 
L 74.754049 262.550624 
L 78.740245 259.033782 
L 82.72644 257.417689 
L 86.712636 255.233372 
L 90.698832 251.867378 
L 94.685027 250.214227 
L 98.671223 249.484313 
L 102.657418 250.067546 
L 106.643614 250.448759 
L 110.62981 249.275005 
L 114.616005 247.234846 
L 118.602201 244.5171 
L 122.588397 244.049571 
L 126.574592 243.240498 
L 130.560788 240.258688 
L 134.546984 238.939929 
L 138.533179 238.645323 
L 142.519375 237.935453 
L 146.505571 237.241912 
L 150.491766 235.530738 
L 154.477962 232.491088 
L 158.464158 230.594565 
L 162.450353 231.424425 
L 166.436549 233.2447 
L 170.422745 232.78026 
L 174.40894 230.874519 
L 178.395136 229.652127 
L 182.381332 228.829002 
L 186.367527 227.409602 
L 190.353723 226.123402 
L 194.339918 224.385605 
L 198.326114 222.65695 
L 202.31231 222.79061 
L 206.298505 222.864155 
L 210.284701 221.947006 
L 214.270897 221.823708 
L 218.257092 222.031843 
L 222.243288 222.263521 
L 226.229484 221.995766 
L 230.215679 221.027442 
L 234.201875 219.877082 
L 238.188071 218.641288 
L 242.174266 218.196032 
L 246.160462 218.553763 
L 250.146658 218.829309 
L 254.132853 218.193977 
L 258.119049 217.019867 
L 262.105245 216.234399 
L 266.09144 215.438707 
L 270.077636 214.909314 
L 274.063832 214.884105 
L 278.050027 214.811094 
L 282.036223 214.703033 
L 286.022418 214.139192 
L 290.008614 212.986463 
L 293.99481 212.279602 
L 297.981005 212.36353 
L 301.967201 212.014817 
L 305.953397 211.29886 
L 309.939592 210.884983 
L 313.925788 210.526847 
L 317.911984 210.6086 
L 321.898179 210.365604 
L 325.884375 210.13758 
L 329.870571 209.856651 
L 333.856766 208.815157 
L 337.842962 208.530525 
L 341.829158 208.991168 
L 345.815353 208.987082 
L 349.801549 208.097383 
L 353.787745 206.888574 
L 357.77394 206.531901 
L 361.760136 206.890897 
L 365.746332 206.514616 
L 369.732527 205.179279 
L 373.718723 203.915187 
L 377.704918 203.609776 
L 381.691114 203.913916 
L 385.67731 203.72256 
L 389.663505 203.054044 
L 393.649701 202.676562 
L 397.635897 202.271307 
L 401.622092 201.385778 
L 405.608288 200.460063 
L 409.594484 199.762183 
L 413.580679 199.42705 
L 417.566875 199.356442 
L 421.553071 199.350741 
" clip-path="url(#pe50202f44a)" style="fill: none; stroke-dasharray: 3.7,1.6; stroke-dashoffset: 0; stroke: #808080"/>
   </g>
   <g id="line2d_27">
    <path d="M 50.836875 274.892019 
L 54.823071 276.874704 
L 58.809266 277.624797 
L 62.795462 273.583353 
L 66.781658 262.596392 
L 70.767853 252.966158 
L 74.754049 249.981702 
L 78.740245 244.619748 
L 82.72644 237.36257 
L 86.712636 231.969397 
L 90.698832 227.03015 
L 94.685027 225.877865 
L 98.671223 228.15803 
L 102.657418 226.966989 
L 106.643614 224.662687 
L 110.62981 223.163374 
L 114.616005 220.558364 
L 118.602201 219.140706 
L 122.588397 218.532354 
L 126.574592 216.241816 
L 130.560788 213.839507 
L 134.546984 212.09853 
L 138.533179 211.793765 
L 142.519375 212.224667 
L 146.505571 211.645062 
L 150.491766 209.886928 
L 154.477962 208.398761 
L 158.464158 208.636078 
L 162.450353 210.373489 
L 166.436549 211.414416 
L 170.422745 210.596431 
L 174.40894 208.997383 
L 178.395136 207.155605 
L 182.381332 205.275906 
L 186.367527 203.879742 
L 190.353723 203.842443 
L 194.339918 204.207343 
L 198.326114 204.003725 
L 202.31231 203.414871 
L 206.298505 203.258766 
L 210.284701 203.802879 
L 214.270897 203.327451 
L 218.257092 202.250171 
L 222.243288 201.843171 
L 226.229484 201.624098 
L 230.215679 201.720803 
L 234.201875 201.855481 
L 238.188071 201.882505 
L 242.174266 201.651427 
L 246.160462 201.046011 
L 250.146658 200.609421 
L 254.132853 200.633314 
L 258.119049 200.043191 
L 262.105245 198.977503 
L 266.09144 198.53569 
L 270.077636 198.853989 
L 274.063832 199.180863 
L 278.050027 199.454645 
L 282.036223 199.814062 
L 286.022418 200.430471 
L 290.008614 200.528995 
L 293.99481 199.829229 
L 297.981005 199.006586 
L 301.967201 198.335315 
L 305.953397 197.564068 
L 309.939592 196.955399 
L 313.925788 196.652358 
L 317.911984 196.530847 
L 321.898179 196.714553 
L 325.884375 197.080979 
L 329.870571 197.512705 
L 333.856766 197.715791 
L 337.842962 197.369792 
L 341.829158 197.063682 
L 345.815353 197.063145 
L 349.801549 196.919819 
L 353.787745 196.494529 
L 357.77394 196.136611 
L 361.760136 196.186114 
L 365.746332 196.665451 
L 369.732527 197.101999 
L 373.718723 197.102792 
L 377.704918 196.715825 
L 381.691114 196.708091 
L 385.67731 197.167222 
L 389.663505 197.534586 
L 393.649701 197.598498 
L 397.635897 197.67215 
L 401.622092 198.079666 
L 405.608288 198.720469 
L 409.594484 199.171919 
L 413.580679 199.324319 
L 417.566875 199.348797 
L 421.553071 199.350523 
" clip-path="url(#pe50202f44a)" style="fill: none; stroke: #8c510a; stroke-width: 2; stroke-linecap: square"/>
   </g>
   <g id="line2d_28">
    <path d="M 50.836875 274.892019 
L 54.823071 274.755626 
L 58.809266 274.241058 
L 62.795462 270.225138 
L 66.781658 258.994454 
L 70.767853 248.016232 
L 74.754049 244.658195 
L 78.740245 239.879847 
L 82.72644 232.767009 
L 86.712636 226.714597 
L 90.698832 221.401627 
L 94.685027 220.267326 
L 98.671223 222.612759 
L 102.657418 221.662685 
L 106.643614 220.0427 
L 110.62981 218.71628 
L 114.616005 216.009819 
L 118.602201 214.826936 
L 122.588397 214.262228 
L 126.574592 211.822676 
L 130.560788 209.407073 
L 134.546984 207.754897 
L 138.533179 207.580537 
L 142.519375 208.328337 
L 146.505571 208.086792 
L 150.491766 206.322321 
L 154.477962 204.516332 
L 158.464158 204.48148 
L 162.450353 206.231871 
L 166.436549 207.397407 
L 170.422745 206.768833 
L 174.40894 205.385779 
L 178.395136 203.72249 
L 182.381332 201.969032 
L 186.367527 200.617584 
L 190.353723 200.638047 
L 194.339918 201.079871 
L 198.326114 201.006149 
L 202.31231 200.580352 
L 206.298505 200.513961 
L 210.284701 201.100033 
L 214.270897 200.609499 
L 218.257092 199.213921 
L 222.243288 198.593396 
L 226.229484 198.569227 
L 230.215679 198.95428 
L 234.201875 199.274519 
L 238.188071 199.508221 
L 242.174266 199.457543 
L 246.160462 198.844568 
L 250.146658 198.334561 
L 254.132853 198.39044 
L 258.119049 197.873753 
L 262.105245 196.849276 
L 266.09144 196.485704 
L 270.077636 196.836713 
L 274.063832 197.129745 
L 278.050027 197.451939 
L 282.036223 197.872629 
L 286.022418 198.463092 
L 290.008614 198.516586 
L 293.99481 197.889885 
L 297.981005 197.111766 
L 301.967201 196.382357 
L 305.953397 195.68066 
L 309.939592 195.253628 
L 313.925788 195.045883 
L 317.911984 194.945781 
L 321.898179 195.119662 
L 325.884375 195.51994 
L 329.870571 195.920079 
L 333.856766 195.987753 
L 337.842962 195.645534 
L 341.829158 195.482045 
L 345.815353 195.637964 
L 349.801549 195.600439 
L 353.787745 195.210648 
L 357.77394 194.87504 
L 361.760136 194.975128 
L 365.746332 195.504486 
L 369.732527 195.979066 
L 373.718723 196.030933 
L 377.704918 195.686755 
L 381.691114 195.745665 
L 385.67731 196.287685 
L 389.663505 196.696941 
L 393.649701 196.791768 
L 397.635897 196.941464 
L 401.622092 197.493755 
L 405.608288 198.367108 
L 409.594484 199.043744 
L 413.580679 199.301569 
L 417.566875 199.347094 
L 421.553071 199.350474 
" clip-path="url(#pe50202f44a)" style="fill: none; stroke-dasharray: 3.7,1.6; stroke-dashoffset: 0; stroke: #8c510a"/>
   </g>
   <g id="line2d_29">
    <path d="M 50.836875 274.892019 
L 54.823071 281.112861 
L 58.809266 284.392276 
L 62.795462 280.299784 
L 66.781658 269.800267 
L 70.767853 262.86601 
L 74.754049 260.628717 
L 78.740245 254.099551 
L 82.72644 246.553692 
L 86.712636 242.478998 
L 90.698832 238.287198 
L 94.685027 237.098945 
L 98.671223 239.248572 
L 102.657418 237.575596 
L 106.643614 233.902661 
L 110.62981 232.057562 
L 114.616005 229.655455 
L 118.602201 227.768246 
L 122.588397 227.072605 
L 126.574592 225.080096 
L 130.560788 222.704375 
L 134.546984 220.785797 
L 138.533179 220.220222 
L 142.519375 220.017325 
L 146.505571 218.761602 
L 150.491766 217.016141 
L 154.477962 216.163619 
L 158.464158 216.945273 
L 162.450353 218.656723 
L 166.436549 219.448434 
L 170.422745 218.251626 
L 174.40894 216.220591 
L 178.395136 214.021834 
L 182.381332 211.889654 
L 186.367527 210.404057 
L 190.353723 210.251236 
L 194.339918 210.462287 
L 198.326114 209.998877 
L 202.31231 209.083911 
L 206.298505 208.748375 
L 210.284701 209.208572 
L 214.270897 208.763355 
L 218.257092 208.322672 
L 222.243288 208.342721 
L 226.229484 207.73384 
L 230.215679 207.253849 
L 234.201875 207.017406 
L 238.188071 206.631073 
L 242.174266 206.039196 
L 246.160462 205.448897 
L 250.146658 205.15914 
L 254.132853 205.119063 
L 258.119049 204.382066 
L 262.105245 203.233958 
L 266.09144 202.63566 
L 270.077636 202.888541 
L 274.063832 203.283097 
L 278.050027 203.460055 
L 282.036223 203.696927 
L 286.022418 204.365228 
L 290.008614 204.553815 
L 293.99481 203.707916 
L 297.981005 202.796224 
L 301.967201 202.241232 
L 305.953397 201.330882 
L 309.939592 200.358942 
L 313.925788 199.865307 
L 317.911984 199.700979 
L 321.898179 199.904335 
L 325.884375 200.203057 
L 329.870571 200.697956 
L 333.856766 201.171867 
L 337.842962 200.818309 
L 341.829158 200.226957 
L 345.815353 199.913507 
L 349.801549 199.55858 
L 353.787745 199.062293 
L 357.77394 198.659754 
L 361.760136 198.608087 
L 365.746332 198.987381 
L 369.732527 199.347865 
L 373.718723 199.246511 
L 377.704918 198.773967 
L 381.691114 198.632944 
L 385.67731 198.926297 
L 389.663505 199.209876 
L 393.649701 199.211959 
L 397.635897 199.133521 
L 401.622092 199.251486 
L 405.608288 199.42719 
L 409.594484 199.428268 
L 413.580679 199.36982 
L 417.566875 199.352202 
L 421.553071 199.35062 
" clip-path="url(#pe50202f44a)" style="fill: none; stroke-dasharray: 3.7,1.6; stroke-dashoffset: 0; stroke: #8c510a"/>
   </g>
   <g id="line2d_30">
    <path d="M 50.836875 274.892019 
L 54.823071 277.825044 
L 58.809266 285.499354 
L 62.795462 294.522852 
L 66.781658 290.637048 
L 70.767853 279.504721 
L 74.754049 274.62573 
L 78.740245 271.68304 
L 82.72644 274.254183 
L 86.712636 280.100612 
L 90.698832 282.953633 
L 94.685027 288.092425 
L 98.671223 292.677809 
L 102.657418 292.023354 
L 106.643614 287.568435 
L 110.62981 281.457819 
L 114.616005 276.876696 
L 118.602201 276.983817 
L 122.588397 279.854366 
L 126.574592 281.761292 
L 130.560788 282.752485 
L 134.546984 281.758952 
L 138.533179 280.303772 
L 142.519375 280.154773 
L 146.505571 279.659404 
L 150.491766 276.48813 
L 154.477962 273.03824 
L 158.464158 275.34987 
L 162.450353 279.734632 
L 166.436549 278.827527 
L 170.422745 277.865807 
L 174.40894 279.652785 
L 178.395136 279.565826 
L 182.381332 276.350615 
L 186.367527 273.8077 
L 190.353723 274.318635 
L 194.339918 274.600771 
L 198.326114 275.594315 
L 202.31231 278.299851 
L 206.298505 277.33904 
L 210.284701 274.565152 
L 214.270897 275.177259 
L 218.257092 275.424101 
L 222.243288 273.707755 
L 226.229484 272.173293 
L 230.215679 271.345829 
L 234.201875 271.464452 
L 238.188071 272.195379 
L 242.174266 272.478372 
L 246.160462 273.222601 
L 250.146658 273.859107 
L 254.132853 274.230732 
L 258.119049 274.576324 
L 262.105245 274.081896 
L 266.09144 273.53901 
L 270.077636 273.22149 
L 274.063832 271.713925 
L 278.050027 270.808678 
L 282.036223 271.61447 
L 286.022418 272.626652 
L 290.008614 272.636583 
L 293.99481 272.279509 
L 297.981005 271.851544 
L 301.967201 271.226271 
L 305.953397 271.041529 
L 309.939592 271.481063 
L 313.925788 271.802356 
L 317.911984 271.432489 
L 321.898179 271.186383 
L 325.884375 271.093444 
L 329.870571 270.76027 
L 333.856766 270.999149 
L 337.842962 272.051352 
L 341.829158 272.82203 
L 345.815353 272.855129 
L 349.801549 272.13998 
L 353.787745 271.448672 
L 357.77394 270.918511 
L 361.760136 270.542654 
L 365.746332 271.035629 
L 369.732527 271.933698 
L 373.718723 272.677483 
L 377.704918 273.122767 
L 381.691114 273.131213 
L 385.67731 272.674019 
L 389.663505 272.246444 
L 393.649701 272.204424 
L 397.635897 272.726262 
L 401.622092 273.346382 
L 405.608288 273.728953 
L 409.594484 274.09055 
L 413.580679 274.460197 
L 417.566875 274.648614 
L 421.553071 274.687784 
" clip-path="url(#pe50202f44a)" style="fill: none; stroke: #01665e; stroke-width: 2; stroke-linecap: square"/>
   </g>
   <g id="line2d_31">
    <path d="M 50.836875 274.892019 
L 54.823071 276.293721 
L 58.809266 281.288385 
L 62.795462 286.038524 
L 66.781658 279.224021 
L 70.767853 268.434947 
L 74.754049 264.775215 
L 78.740245 262.748917 
L 82.72644 265.723588 
L 86.712636 271.706824 
L 90.698832 275.222718 
L 94.685027 281.489594 
L 98.671223 286.857575 
L 102.657418 285.977563 
L 106.643614 280.566956 
L 110.62981 273.859119 
L 114.616005 269.234246 
L 118.602201 269.346342 
L 122.588397 272.302959 
L 126.574592 274.378002 
L 130.560788 275.83508 
L 134.546984 275.078369 
L 138.533179 273.419725 
L 142.519375 273.038394 
L 146.505571 272.431611 
L 150.491766 269.452796 
L 154.477962 266.14835 
L 158.464158 267.760197 
L 162.450353 271.637732 
L 166.436549 271.095705 
L 170.422745 270.477408 
L 174.40894 272.126457 
L 178.395136 272.072426 
L 182.381332 269.064252 
L 186.367527 266.871485 
L 190.353723 267.80131 
L 194.339918 268.162528 
L 198.326114 268.986185 
L 202.31231 271.504971 
L 206.298505 270.746574 
L 210.284701 268.175357 
L 214.270897 268.733784 
L 218.257092 269.126202 
L 222.243288 267.456074 
L 226.229484 265.936488 
L 230.215679 265.357212 
L 234.201875 265.757527 
L 238.188071 266.64821 
L 242.174266 266.815781 
L 246.160462 267.222442 
L 250.146658 267.808367 
L 254.132853 268.17048 
L 258.119049 268.475632 
L 262.105245 268.143525 
L 266.09144 267.922099 
L 270.077636 267.940065 
L 274.063832 266.659522 
L 278.050027 265.847901 
L 282.036223 266.778672 
L 286.022418 267.904544 
L 290.008614 267.898213 
L 293.99481 267.457093 
L 297.981005 266.983025 
L 301.967201 266.572312 
L 305.953397 266.5099 
L 309.939592 266.746039 
L 313.925788 267.052211 
L 317.911984 266.970016 
L 321.898179 266.930959 
L 325.884375 266.978912 
L 329.870571 266.809721 
L 333.856766 266.898069 
L 337.842962 267.922416 
L 341.829158 269.115987 
L 345.815353 269.399662 
L 349.801549 268.831913 
L 353.787745 268.402657 
L 357.77394 267.98416 
L 361.760136 267.4645 
L 365.746332 268.122767 
L 369.732527 269.516193 
L 373.718723 270.55818 
L 377.704918 271.1134 
L 381.691114 271.29339 
L 385.67731 270.783751 
L 389.663505 270.174916 
L 393.649701 270.106153 
L 397.635897 270.861582 
L 401.622092 271.78328 
L 405.608288 272.422471 
L 409.594484 273.195994 
L 413.580679 274.095209 
L 417.566875 274.579301 
L 421.553071 274.682282 
" clip-path="url(#pe50202f44a)" style="fill: none; stroke-dasharray: 3.7,1.6; stroke-dashoffset: 0; stroke: #01665e"/>
   </g>
   <g id="line2d_32">
    <path d="M 50.836875 274.892019 
L 54.823071 280.887689 
L 58.809266 293.921293 
L 62.795462 311.491508 
L 66.781658 313.463102 
L 70.767853 301.644267 
L 74.754049 294.326761 
L 78.740245 289.551285 
L 82.72644 291.315372 
L 86.712636 296.888188 
L 90.698832 298.415464 
L 94.685027 301.298086 
L 98.671223 304.318276 
L 102.657418 304.114935 
L 106.643614 301.571391 
L 110.62981 296.655219 
L 114.616005 292.161596 
L 118.602201 292.258767 
L 122.588397 294.957181 
L 126.574592 296.527873 
L 130.560788 296.587294 
L 134.546984 295.120117 
L 138.533179 294.071867 
L 142.519375 294.38753 
L 146.505571 294.11499 
L 150.491766 290.558797 
L 154.477962 286.818021 
L 158.464158 290.529215 
L 162.450353 295.928431 
L 166.436549 294.291171 
L 170.422745 292.642605 
L 174.40894 294.70544 
L 178.395136 294.552627 
L 182.381332 290.923342 
L 186.367527 287.680129 
L 190.353723 287.353284 
L 194.339918 287.477258 
L 198.326114 288.810575 
L 202.31231 291.889611 
L 206.298505 290.523971 
L 210.284701 287.344741 
L 214.270897 288.064208 
L 218.257092 288.019899 
L 222.243288 286.211115 
L 226.229484 284.646903 
L 230.215679 283.323062 
L 234.201875 282.878302 
L 238.188071 283.289717 
L 242.174266 283.803553 
L 246.160462 285.222919 
L 250.146658 285.960587 
L 254.132853 286.351235 
L 258.119049 286.777707 
L 262.105245 285.958639 
L 266.09144 284.772832 
L 270.077636 283.784339 
L 274.063832 281.822733 
L 278.050027 280.730232 
L 282.036223 281.286067 
L 286.022418 282.070868 
L 290.008614 282.113323 
L 293.99481 281.924341 
L 297.981005 281.588581 
L 301.967201 280.534188 
L 305.953397 280.104789 
L 309.939592 280.951112 
L 313.925788 281.302648 
L 317.911984 280.357434 
L 321.898179 279.69723 
L 325.884375 279.32251 
L 329.870571 278.661368 
L 333.856766 279.201311 
L 337.842962 280.309226 
L 341.829158 280.234117 
L 345.815353 279.766062 
L 349.801549 278.756112 
L 353.787745 277.540703 
L 357.77394 276.787212 
L 361.760136 276.69896 
L 365.746332 276.861353 
L 369.732527 276.768708 
L 373.718723 276.916088 
L 377.704918 277.141501 
L 381.691114 276.80686 
L 385.67731 276.454556 
L 389.663505 276.389499 
L 393.649701 276.400966 
L 397.635897 276.455623 
L 401.622092 276.472588 
L 405.608288 276.341915 
L 409.594484 275.879662 
L 413.580679 275.190172 
L 417.566875 274.78724 
L 421.553071 274.698788 
" clip-path="url(#pe50202f44a)" style="fill: none; stroke-dasharray: 3.7,1.6; stroke-dashoffset: 0; stroke: #01665e"/>
   </g>
   <g id="patch_3">
    <path d="M 50.836875 382.679219 
L 50.836875 10.999219 
" style="fill: none; stroke: #000000; stroke-width: 0.8; stroke-linejoin: miter; stroke-linecap: square"/>
   </g>
   <g id="patch_4">
    <path d="M 417.566875 382.679219 
L 417.566875 10.999219 
" style="fill: none; stroke: #000000; stroke-width: 0.8; stroke-linejoin: miter; stroke-linecap: square"/>
   </g>
   <g id="patch_5">
    <path d="M 50.836875 382.679219 
L 417.566875 382.679219 
" style="fill: none; stroke: #000000; stroke-width: 0.8; stroke-linejoin: miter; stroke-linecap: square"/>
   </g>
   <g id="patch_6">
    <path d="M 50.836875 10.999219 
L 417.566875 10.999219 
" style="fill: none; stroke: #000000; stroke-width: 0.8; stroke-linejoin: miter; stroke-linecap: square"/>
   </g>
   <g id="legend_1">
    <g id="patch_7">
     <path d="M 265.180937 377.679219 
L 410.566875 377.679219 
Q 412.566875 377.679219 412.566875 375.679219 
L 412.566875 332.644844 
Q 412.566875 330.644844 410.566875 330.644844 
L 265.180937 330.644844 
Q 263.180937 330.644844 263.180937 332.644844 
L 263.180937 375.679219 
Q 263.180937 377.679219 265.180937 377.679219 
z
" style="fill: #ffffff; opacity: 0.8; stroke: #cccccc; stroke-linejoin: miter"/>
    </g>
    <g id="line2d_33">
     <path d="M 267.180937 338.743281 
L 277.180937 338.743281 
L 287.180937 338.743281 
" style="fill: none; stroke: #808080; stroke-width: 2; stroke-linecap: square"/>
    </g>
    <g id="text_17">
     <!-- Most Frequent -->
     <g transform="translate(295.180937 342.243281) scale(0.1 -0.1)">
      <defs>
       <path id="DejaVuSans-4d" d="M 628 4666 
L 1569 4666 
L 2759 1491 
L 3956 4666 
L 4897 4666 
L 4897 0 
L 4281 0 
L 4281 4097 
L 3078 897 
L 2444 897 
L 1241 4097 
L 1241 0 
L 628 0 
L 628 4666 
z
" transform="scale(0.015625)"/>
       <path id="DejaVuSans-46" d="M 628 4666 
L 3309 4666 
L 3309 4134 
L 1259 4134 
L 1259 2759 
L 3109 2759 
L 3109 2228 
L 1259 2228 
L 1259 0 
L 628 0 
L 628 4666 
z
" transform="scale(0.015625)"/>
       <path id="DejaVuSans-71" d="M 947 1747 
Q 947 1113 1208 752 
Q 1469 391 1925 391 
Q 2381 391 2643 752 
Q 2906 1113 2906 1747 
Q 2906 2381 2643 2742 
Q 2381 3103 1925 3103 
Q 1469 3103 1208 2742 
Q 947 2381 947 1747 
z
M 2906 525 
Q 2725 213 2448 61 
Q 2172 -91 1784 -91 
Q 1150 -91 751 415 
Q 353 922 353 1747 
Q 353 2572 751 3078 
Q 1150 3584 1784 3584 
Q 2172 3584 2448 3432 
Q 2725 3281 2906 2969 
L 2906 3500 
L 3481 3500 
L 3481 -1331 
L 2906 -1331 
L 2906 525 
z
" transform="scale(0.015625)"/>
      </defs>
      <use xlink:href="#DejaVuSans-4d"/>
      <use xlink:href="#DejaVuSans-6f" x="86.279297"/>
      <use xlink:href="#DejaVuSans-73" x="147.460938"/>
      <use xlink:href="#DejaVuSans-74" x="199.560547"/>
      <use xlink:href="#DejaVuSans-20" x="238.769531"/>
      <use xlink:href="#DejaVuSans-46" x="270.556641"/>
      <use xlink:href="#DejaVuSans-72" x="320.826172"/>
      <use xlink:href="#DejaVuSans-65" x="359.689453"/>
      <use xlink:href="#DejaVuSans-71" x="421.212891"/>
      <use xlink:href="#DejaVuSans-75" x="484.689453"/>
      <use xlink:href="#DejaVuSans-65" x="548.068359"/>
      <use xlink:href="#DejaVuSans-6e" x="609.591797"/>
      <use xlink:href="#DejaVuSans-74" x="672.970703"/>
     </g>
    </g>
    <g id="line2d_34">
     <path d="M 267.180937 353.421406 
L 277.180937 353.421406 
L 287.180937 353.421406 
" style="fill: none; stroke: #8c510a; stroke-width: 2; stroke-linecap: square"/>
    </g>
    <g id="text_18">
     <!-- Log Odds -->
     <g transform="translate(295.180937 356.921406) scale(0.1 -0.1)">
      <defs>
       <path id="DejaVuSans-4c" d="M 628 4666 
L 1259 4666 
L 1259 531 
L 3531 531 
L 3531 0 
L 628 0 
L 628 4666 
z
" transform="scale(0.015625)"/>
       <path id="DejaVuSans-67" d="M 2906 1791 
Q 2906 2416 2648 2759 
Q 2391 3103 1925 3103 
Q 1463 3103 1205 2759 
Q 947 2416 947 1791 
Q 947 1169 1205 825 
Q 1463 481 1925 481 
Q 2391 481 2648 825 
Q 2906 1169 2906 1791 
z
M 3481 434 
Q 3481 -459 3084 -895 
Q 2688 -1331 1869 -1331 
Q 1566 -1331 1297 -1286 
Q 1028 -1241 775 -1147 
L 775 -588 
Q 1028 -725 1275 -790 
Q 1522 -856 1778 -856 
Q 2344 -856 2625 -561 
Q 2906 -266 2906 331 
L 2906 616 
Q 2728 306 2450 153 
Q 2172 0 1784 0 
Q 1141 0 747 490 
Q 353 981 353 1791 
Q 353 2603 747 3093 
Q 1141 3584 1784 3584 
Q 2172 3584 2450 3431 
Q 2728 3278 2906 2969 
L 2906 3500 
L 3481 3500 
L 3481 434 
z
" transform="scale(0.015625)"/>
       <path id="DejaVuSans-4f" d="M 2522 4238 
Q 1834 4238 1429 3725 
Q 1025 3213 1025 2328 
Q 1025 1447 1429 934 
Q 1834 422 2522 422 
Q 3209 422 3611 934 
Q 4013 1447 4013 2328 
Q 4013 3213 3611 3725 
Q 3209 4238 2522 4238 
z
M 2522 4750 
Q 3503 4750 4090 4092 
Q 4678 3434 4678 2328 
Q 4678 1225 4090 567 
Q 3503 -91 2522 -91 
Q 1538 -91 948 565 
Q 359 1222 359 2328 
Q 359 3434 948 4092 
Q 1538 4750 2522 4750 
z
" transform="scale(0.015625)"/>
       <path id="DejaVuSans-64" d="M 2906 2969 
L 2906 4863 
L 3481 4863 
L 3481 0 
L 2906 0 
L 2906 525 
Q 2725 213 2448 61 
Q 2172 -91 1784 -91 
Q 1150 -91 751 415 
Q 353 922 353 1747 
Q 353 2572 751 3078 
Q 1150 3584 1784 3584 
Q 2172 3584 2448 3432 
Q 2725 3281 2906 2969 
z
M 947 1747 
Q 947 1113 1208 752 
Q 1469 391 1925 391 
Q 2381 391 2643 752 
Q 2906 1113 2906 1747 
Q 2906 2381 2643 2742 
Q 2381 3103 1925 3103 
Q 1469 3103 1208 2742 
Q 947 2381 947 1747 
z
" transform="scale(0.015625)"/>
      </defs>
      <use xlink:href="#DejaVuSans-4c"/>
      <use xlink:href="#DejaVuSans-6f" x="53.962891"/>
      <use xlink:href="#DejaVuSans-67" x="115.144531"/>
      <use xlink:href="#DejaVuSans-20" x="178.621094"/>
      <use xlink:href="#DejaVuSans-4f" x="210.408203"/>
      <use xlink:href="#DejaVuSans-64" x="289.119141"/>
      <use xlink:href="#DejaVuSans-64" x="352.595703"/>
      <use xlink:href="#DejaVuSans-73" x="416.072266"/>
     </g>
    </g>
    <g id="line2d_35">
     <path d="M 267.180937 368.099531 
L 277.180937 368.099531 
L 287.180937 368.099531 
" style="fill: none; stroke: #01665e; stroke-width: 2; stroke-linecap: square"/>
    </g>
    <g id="text_19">
     <!-- Weighted By Expertise -->
     <g transform="translate(295.180937 371.599531) scale(0.1 -0.1)">
      <defs>
       <path id="DejaVuSans-57" d="M 213 4666 
L 850 4666 
L 1831 722 
L 2809 4666 
L 3519 4666 
L 4500 722 
L 5478 4666 
L 6119 4666 
L 4947 0 
L 4153 0 
L 3169 4050 
L 2175 0 
L 1381 0 
L 213 4666 
z
" transform="scale(0.015625)"/>
       <path id="DejaVuSans-68" d="M 3513 2113 
L 3513 0 
L 2938 0 
L 2938 2094 
Q 2938 2591 2744 2837 
Q 2550 3084 2163 3084 
Q 1697 3084 1428 2787 
Q 1159 2491 1159 1978 
L 1159 0 
L 581 0 
L 581 4863 
L 1159 4863 
L 1159 2956 
Q 1366 3272 1645 3428 
Q 1925 3584 2291 3584 
Q 2894 3584 3203 3211 
Q 3513 2838 3513 2113 
z
" transform="scale(0.015625)"/>
       <path id="DejaVuSans-42" d="M 1259 2228 
L 1259 519 
L 2272 519 
Q 2781 519 3026 730 
Q 3272 941 3272 1375 
Q 3272 1813 3026 2020 
Q 2781 2228 2272 2228 
L 1259 2228 
z
M 1259 4147 
L 1259 2741 
L 2194 2741 
Q 2656 2741 2882 2914 
Q 3109 3088 3109 3444 
Q 3109 3797 2882 3972 
Q 2656 4147 2194 4147 
L 1259 4147 
z
M 628 4666 
L 2241 4666 
Q 2963 4666 3353 4366 
Q 3744 4066 3744 3513 
Q 3744 3084 3544 2831 
Q 3344 2578 2956 2516 
Q 3422 2416 3680 2098 
Q 3938 1781 3938 1306 
Q 3938 681 3513 340 
Q 3088 0 2303 0 
L 628 0 
L 628 4666 
z
" transform="scale(0.015625)"/>
       <path id="DejaVuSans-79" d="M 2059 -325 
Q 1816 -950 1584 -1140 
Q 1353 -1331 966 -1331 
L 506 -1331 
L 506 -850 
L 844 -850 
Q 1081 -850 1212 -737 
Q 1344 -625 1503 -206 
L 1606 56 
L 191 3500 
L 800 3500 
L 1894 763 
L 2988 3500 
L 3597 3500 
L 2059 -325 
z
" transform="scale(0.015625)"/>
       <path id="DejaVuSans-45" d="M 628 4666 
L 3578 4666 
L 3578 4134 
L 1259 4134 
L 1259 2753 
L 3481 2753 
L 3481 2222 
L 1259 2222 
L 1259 531 
L 3634 531 
L 3634 0 
L 628 0 
L 628 4666 
z
" transform="scale(0.015625)"/>
       <path id="DejaVuSans-78" d="M 3513 3500 
L 2247 1797 
L 3578 0 
L 2900 0 
L 1881 1375 
L 863 0 
L 184 0 
L 1544 1831 
L 300 3500 
L 978 3500 
L 1906 2253 
L 2834 3500 
L 3513 3500 
z
" transform="scale(0.015625)"/>
      </defs>
      <use xlink:href="#DejaVuSans-57"/>
      <use xlink:href="#DejaVuSans-65" x="93.001953"/>
      <use xlink:href="#DejaVuSans-69" x="154.525391"/>
      <use xlink:href="#DejaVuSans-67" x="182.308594"/>
      <use xlink:href="#DejaVuSans-68" x="245.785156"/>
      <use xlink:href="#DejaVuSans-74" x="309.164062"/>
      <use xlink:href="#DejaVuSans-65" x="348.373047"/>
      <use xlink:href="#DejaVuSans-64" x="409.896484"/>
      <use xlink:href="#DejaVuSans-20" x="473.373047"/>
      <use xlink:href="#DejaVuSans-42" x="505.160156"/>
      <use xlink:href="#DejaVuSans-79" x="573.763672"/>
      <use xlink:href="#DejaVuSans-20" x="632.943359"/>
      <use xlink:href="#DejaVuSans-45" x="664.730469"/>
      <use xlink:href="#DejaVuSans-78" x="727.914062"/>
      <use xlink:href="#DejaVuSans-70" x="787.09375"/>
      <use xlink:href="#DejaVuSans-65" x="850.570312"/>
      <use xlink:href="#DejaVuSans-72" x="912.09375"/>
      <use xlink:href="#DejaVuSans-74" x="953.207031"/>
      <use xlink:href="#DejaVuSans-69" x="992.416016"/>
      <use xlink:href="#DejaVuSans-73" x="1020.199219"/>
      <use xlink:href="#DejaVuSans-65" x="1072.298828"/>
     </g>
    </g>
   </g>
  </g>
 </g>
 <defs>
  <clipPath id="pe50202f44a">
   <rect x="50.836875" y="10.999219" width="366.73" height="371.68"/>
  </clipPath>
 </defs>
</svg>
