<?xml version="1.0" encoding="utf-8" standalone="no"?>
<!DOCTYPE svg PUBLIC "-//W3C//DTD SVG 1.1//EN"
  "http://www.w3.org/Graphics/SVG/1.1/DTD/svg11.dtd">
<svg xmlns:xlink="http://www.w3.org/1999/xlink" width="424.766875pt" height="352.106719pt" viewBox="0 0 424.766875 352.106719" xmlns="http://www.w3.org/2000/svg" version="1.1">
 <metadata>
  <rdf:RDF xmlns:dc="http://purl.org/dc/elements/1.1/" xmlns:cc="http://creativecommons.org/ns#" xmlns:rdf="http://www.w3.org/1999/02/22-rdf-syntax-ns#">
   <cc:Work>
    <dc:type rdf:resource="http://purl.org/dc/dcmitype/StillImage"/>
    <dc:date>2024-04-17T11:50:53.422272</dc:date>
    <dc:format>image/svg+xml</dc:format>
    <dc:creator>
     <cc:Agent>
      <dc:title>Matplotlib v3.6.2, https://matplotlib.org/</dc:title>
     </cc:Agent>
    </dc:creator>
   </cc:Work>
  </rdf:RDF>
 </metadata>
 <defs>
  <style type="text/css">*{stroke-linejoin: round; stroke-linecap: butt}</style>
 </defs>
 <g id="figure_1">
  <g id="patch_1">
   <path d="M 0 352.106719 
L 424.766875 352.106719 
L 424.766875 0 
L 0 0 
z
" style="fill: #ffffff"/>
  </g>
  <g id="axes_1">
   <g id="patch_2">
    <path d="M 50.836875 310.679219 
L 417.566875 310.679219 
L 417.566875 10.999219 
L 50.836875 10.999219 
z
" style="fill: #ffffff"/>
   </g>
   <g id="matplotlib.axis_1">
    <g id="xtick_1">
     <g id="line2d_1">
      <defs>
       <path id="mbde3a11560" d="M 0 0 
L 0 3.5 
" style="stroke: #000000; stroke-width: 0.8"/>
      </defs>
      <g>
       <use xlink:href="#mbde3a11560" x="111.958542" y="310.679219" style="stroke: #000000; stroke-width: 0.8"/>
      </g>
     </g>
     <g id="text_1">
      <!-- Non-Expert (&lt;50%) -->
      <g transform="translate(63.006979 325.277656) scale(0.1 -0.1)">
       <defs>
        <path id="DejaVuSans-4e" d="M 628 4666 
L 1478 4666 
L 3547 763 
L 3547 4666 
L 4159 4666 
L 4159 0 
L 3309 0 
L 1241 3903 
L 1241 0 
L 628 0 
L 628 4666 
z
" transform="scale(0.015625)"/>
        <path id="DejaVuSans-6f" d="M 1959 3097 
Q 1497 3097 1228 2736 
Q 959 2375 959 1747 
Q 959 1119 1226 758 
Q 1494 397 1959 397 
Q 2419 397 2687 759 
Q 2956 1122 2956 1747 
Q 2956 2369 2687 2733 
Q 2419 3097 1959 3097 
z
M 1959 3584 
Q 2709 3584 3137 3096 
Q 3566 2609 3566 1747 
Q 3566 888 3137 398 
Q 2709 -91 1959 -91 
Q 1206 -91 779 398 
Q 353 888 353 1747 
Q 353 2609 779 3096 
Q 1206 3584 1959 3584 
z
" transform="scale(0.015625)"/>
        <path id="DejaVuSans-6e" d="M 3513 2113 
L 3513 0 
L 2938 0 
L 2938 2094 
Q 2938 2591 2744 2837 
Q 2550 3084 2163 3084 
Q 1697 3084 1428 2787 
Q 1159 2491 1159 1978 
L 1159 0 
L 581 0 
L 581 3500 
L 1159 3500 
L 1159 2956 
Q 1366 3272 1645 3428 
Q 1925 3584 2291 3584 
Q 2894 3584 3203 3211 
Q 3513 2838 3513 2113 
z
" transform="scale(0.015625)"/>
        <path id="DejaVuSans-2d" d="M 313 2009 
L 1997 2009 
L 1997 1497 
L 313 1497 
L 313 2009 
z
" transform="scale(0.015625)"/>
        <path id="DejaVuSans-45" d="M 628 4666 
L 3578 4666 
L 3578 4134 
L 1259 4134 
L 1259 2753 
L 3481 2753 
L 3481 2222 
L 1259 2222 
L 1259 531 
L 3634 531 
L 3634 0 
L 628 0 
L 628 4666 
z
" transform="scale(0.015625)"/>
        <path id="DejaVuSans-78" d="M 3513 3500 
L 2247 1797 
L 3578 0 
L 2900 0 
L 1881 1375 
L 863 0 
L 184 0 
L 1544 1831 
L 300 3500 
L 978 3500 
L 1906 2253 
L 2834 3500 
L 3513 3500 
z
" transform="scale(0.015625)"/>
        <path id="DejaVuSans-70" d="M 1159 525 
L 1159 -1331 
L 581 -1331 
L 581 3500 
L 1159 3500 
L 1159 2969 
Q 1341 3281 1617 3432 
Q 1894 3584 2278 3584 
Q 2916 3584 3314 3078 
Q 3713 2572 3713 1747 
Q 3713 922 3314 415 
Q 2916 -91 2278 -91 
Q 1894 -91 1617 61 
Q 1341 213 1159 525 
z
M 3116 1747 
Q 3116 2381 2855 2742 
Q 2594 3103 2138 3103 
Q 1681 3103 1420 2742 
Q 1159 2381 1159 1747 
Q 1159 1113 1420 752 
Q 1681 391 2138 391 
Q 2594 391 2855 752 
Q 3116 1113 3116 1747 
z
" transform="scale(0.015625)"/>
        <path id="DejaVuSans-65" d="M 3597 1894 
L 3597 1613 
L 953 1613 
Q 991 1019 1311 708 
Q 1631 397 2203 397 
Q 2534 397 2845 478 
Q 3156 559 3463 722 
L 3463 178 
Q 3153 47 2828 -22 
Q 2503 -91 2169 -91 
Q 1331 -91 842 396 
Q 353 884 353 1716 
Q 353 2575 817 3079 
Q 1281 3584 2069 3584 
Q 2775 3584 3186 3129 
Q 3597 2675 3597 1894 
z
M 3022 2063 
Q 3016 2534 2758 2815 
Q 2500 3097 2075 3097 
Q 1594 3097 1305 2825 
Q 1016 2553 972 2059 
L 3022 2063 
z
" transform="scale(0.015625)"/>
        <path id="DejaVuSans-72" d="M 2631 2963 
Q 2534 3019 2420 3045 
Q 2306 3072 2169 3072 
Q 1681 3072 1420 2755 
Q 1159 2438 1159 1844 
L 1159 0 
L 581 0 
L 581 3500 
L 1159 3500 
L 1159 2956 
Q 1341 3275 1631 3429 
Q 1922 3584 2338 3584 
Q 2397 3584 2469 3576 
Q 2541 3569 2628 3553 
L 2631 2963 
z
" transform="scale(0.015625)"/>
        <path id="DejaVuSans-74" d="M 1172 4494 
L 1172 3500 
L 2356 3500 
L 2356 3053 
L 1172 3053 
L 1172 1153 
Q 1172 725 1289 603 
Q 1406 481 1766 481 
L 2356 481 
L 2356 0 
L 1766 0 
Q 1100 0 847 248 
Q 594 497 594 1153 
L 594 3053 
L 172 3053 
L 172 3500 
L 594 3500 
L 594 4494 
L 1172 4494 
z
" transform="scale(0.015625)"/>
        <path id="DejaVuSans-20" transform="scale(0.015625)"/>
        <path id="DejaVuSans-28" d="M 1984 4856 
Q 1566 4138 1362 3434 
Q 1159 2731 1159 2009 
Q 1159 1288 1364 580 
Q 1569 -128 1984 -844 
L 1484 -844 
Q 1016 -109 783 600 
Q 550 1309 550 2009 
Q 550 2706 781 3412 
Q 1013 4119 1484 4856 
L 1984 4856 
z
" transform="scale(0.015625)"/>
        <path id="DejaVuSans-3c" d="M 4684 3150 
L 1459 2003 
L 4684 863 
L 4684 294 
L 678 1747 
L 678 2266 
L 4684 3719 
L 4684 3150 
z
" transform="scale(0.015625)"/>
        <path id="DejaVuSans-35" d="M 691 4666 
L 3169 4666 
L 3169 4134 
L 1269 4134 
L 1269 2991 
Q 1406 3038 1543 3061 
Q 1681 3084 1819 3084 
Q 2600 3084 3056 2656 
Q 3513 2228 3513 1497 
Q 3513 744 3044 326 
Q 2575 -91 1722 -91 
Q 1428 -91 1123 -41 
Q 819 9 494 109 
L 494 744 
Q 775 591 1075 516 
Q 1375 441 1709 441 
Q 2250 441 2565 725 
Q 2881 1009 2881 1497 
Q 2881 1984 2565 2268 
Q 2250 2553 1709 2553 
Q 1456 2553 1204 2497 
Q 953 2441 691 2322 
L 691 4666 
z
" transform="scale(0.015625)"/>
        <path id="DejaVuSans-30" d="M 2034 4250 
Q 1547 4250 1301 3770 
Q 1056 3291 1056 2328 
Q 1056 1369 1301 889 
Q 1547 409 2034 409 
Q 2525 409 2770 889 
Q 3016 1369 3016 2328 
Q 3016 3291 2770 3770 
Q 2525 4250 2034 4250 
z
M 2034 4750 
Q 2819 4750 3233 4129 
Q 3647 3509 3647 2328 
Q 3647 1150 3233 529 
Q 2819 -91 2034 -91 
Q 1250 -91 836 529 
Q 422 1150 422 2328 
Q 422 3509 836 4129 
Q 1250 4750 2034 4750 
z
" transform="scale(0.015625)"/>
        <path id="DejaVuSans-25" d="M 4653 2053 
Q 4381 2053 4226 1822 
Q 4072 1591 4072 1178 
Q 4072 772 4226 539 
Q 4381 306 4653 306 
Q 4919 306 5073 539 
Q 5228 772 5228 1178 
Q 5228 1588 5073 1820 
Q 4919 2053 4653 2053 
z
M 4653 2450 
Q 5147 2450 5437 2106 
Q 5728 1763 5728 1178 
Q 5728 594 5436 251 
Q 5144 -91 4653 -91 
Q 4153 -91 3862 251 
Q 3572 594 3572 1178 
Q 3572 1766 3864 2108 
Q 4156 2450 4653 2450 
z
M 1428 4353 
Q 1159 4353 1004 4120 
Q 850 3888 850 3481 
Q 850 3069 1003 2837 
Q 1156 2606 1428 2606 
Q 1700 2606 1854 2837 
Q 2009 3069 2009 3481 
Q 2009 3884 1853 4118 
Q 1697 4353 1428 4353 
z
M 4250 4750 
L 4750 4750 
L 1831 -91 
L 1331 -91 
L 4250 4750 
z
M 1428 4750 
Q 1922 4750 2215 4408 
Q 2509 4066 2509 3481 
Q 2509 2891 2217 2550 
Q 1925 2209 1428 2209 
Q 931 2209 642 2551 
Q 353 2894 353 3481 
Q 353 4063 643 4406 
Q 934 4750 1428 4750 
z
" transform="scale(0.015625)"/>
        <path id="DejaVuSans-29" d="M 513 4856 
L 1013 4856 
Q 1481 4119 1714 3412 
Q 1947 2706 1947 2009 
Q 1947 1309 1714 600 
Q 1481 -109 1013 -844 
L 513 -844 
Q 928 -128 1133 580 
Q 1338 1288 1338 2009 
Q 1338 2731 1133 3434 
Q 928 4138 513 4856 
z
" transform="scale(0.015625)"/>
       </defs>
       <use xlink:href="#DejaVuSans-4e"/>
       <use xlink:href="#DejaVuSans-6f" x="74.804688"/>
       <use xlink:href="#DejaVuSans-6e" x="135.986328"/>
       <use xlink:href="#DejaVuSans-2d" x="199.365234"/>
       <use xlink:href="#DejaVuSans-45" x="235.449219"/>
       <use xlink:href="#DejaVuSans-78" x="298.632812"/>
       <use xlink:href="#DejaVuSans-70" x="357.8125"/>
       <use xlink:href="#DejaVuSans-65" x="421.289062"/>
       <use xlink:href="#DejaVuSans-72" x="482.8125"/>
       <use xlink:href="#DejaVuSans-74" x="523.925781"/>
       <use xlink:href="#DejaVuSans-20" x="563.134766"/>
       <use xlink:href="#DejaVuSans-28" x="594.921875"/>
       <use xlink:href="#DejaVuSans-3c" x="633.935547"/>
       <use xlink:href="#DejaVuSans-35" x="717.724609"/>
       <use xlink:href="#DejaVuSans-30" x="781.347656"/>
       <use xlink:href="#DejaVuSans-25" x="844.970703"/>
       <use xlink:href="#DejaVuSans-29" x="939.990234"/>
      </g>
     </g>
    </g>
    <g id="xtick_2">
     <g id="line2d_2">
      <g>
       <use xlink:href="#mbde3a11560" x="234.201875" y="310.679219" style="stroke: #000000; stroke-width: 0.8"/>
      </g>
     </g>
     <g id="text_2">
      <!-- Expert (&gt;=50%) -->
      <g transform="translate(192.833125 325.277656) scale(0.1 -0.1)">
       <defs>
        <path id="DejaVuSans-3e" d="M 678 3150 
L 678 3719 
L 4684 2266 
L 4684 1747 
L 678 294 
L 678 863 
L 3897 2003 
L 678 3150 
z
" transform="scale(0.015625)"/>
        <path id="DejaVuSans-3d" d="M 678 2906 
L 4684 2906 
L 4684 2381 
L 678 2381 
L 678 2906 
z
M 678 1631 
L 4684 1631 
L 4684 1100 
L 678 1100 
L 678 1631 
z
" transform="scale(0.015625)"/>
       </defs>
       <use xlink:href="#DejaVuSans-45"/>
       <use xlink:href="#DejaVuSans-78" x="63.183594"/>
       <use xlink:href="#DejaVuSans-70" x="122.363281"/>
       <use xlink:href="#DejaVuSans-65" x="185.839844"/>
       <use xlink:href="#DejaVuSans-72" x="247.363281"/>
       <use xlink:href="#DejaVuSans-74" x="288.476562"/>
       <use xlink:href="#DejaVuSans-20" x="327.685547"/>
       <use xlink:href="#DejaVuSans-28" x="359.472656"/>
       <use xlink:href="#DejaVuSans-3e" x="398.486328"/>
       <use xlink:href="#DejaVuSans-3d" x="482.275391"/>
       <use xlink:href="#DejaVuSans-35" x="566.064453"/>
       <use xlink:href="#DejaVuSans-30" x="629.6875"/>
       <use xlink:href="#DejaVuSans-25" x="693.310547"/>
       <use xlink:href="#DejaVuSans-29" x="788.330078"/>
      </g>
     </g>
    </g>
    <g id="xtick_3">
     <g id="line2d_3">
      <g>
       <use xlink:href="#mbde3a11560" x="356.445208" y="310.679219" style="stroke: #000000; stroke-width: 0.8"/>
      </g>
     </g>
     <g id="text_3">
      <!-- All -->
      <g transform="translate(350.246771 325.277656) scale(0.1 -0.1)">
       <defs>
        <path id="DejaVuSans-41" d="M 2188 4044 
L 1331 1722 
L 3047 1722 
L 2188 4044 
z
M 1831 4666 
L 2547 4666 
L 4325 0 
L 3669 0 
L 3244 1197 
L 1141 1197 
L 716 0 
L 50 0 
L 1831 4666 
z
" transform="scale(0.015625)"/>
        <path id="DejaVuSans-6c" d="M 603 4863 
L 1178 4863 
L 1178 0 
L 603 0 
L 603 4863 
z
" transform="scale(0.015625)"/>
       </defs>
       <use xlink:href="#DejaVuSans-41"/>
       <use xlink:href="#DejaVuSans-6c" x="68.408203"/>
       <use xlink:href="#DejaVuSans-6c" x="96.191406"/>
      </g>
     </g>
    </g>
    <g id="text_4">
     <!-- Expertise Group -->
     <g transform="translate(177.832187 341.995156) scale(0.14 -0.14)">
      <defs>
       <path id="DejaVuSans-69" d="M 603 3500 
L 1178 3500 
L 1178 0 
L 603 0 
L 603 3500 
z
M 603 4863 
L 1178 4863 
L 1178 4134 
L 603 4134 
L 603 4863 
z
" transform="scale(0.015625)"/>
       <path id="DejaVuSans-73" d="M 2834 3397 
L 2834 2853 
Q 2591 2978 2328 3040 
Q 2066 3103 1784 3103 
Q 1356 3103 1142 2972 
Q 928 2841 928 2578 
Q 928 2378 1081 2264 
Q 1234 2150 1697 2047 
L 1894 2003 
Q 2506 1872 2764 1633 
Q 3022 1394 3022 966 
Q 3022 478 2636 193 
Q 2250 -91 1575 -91 
Q 1294 -91 989 -36 
Q 684 19 347 128 
L 347 722 
Q 666 556 975 473 
Q 1284 391 1588 391 
Q 1994 391 2212 530 
Q 2431 669 2431 922 
Q 2431 1156 2273 1281 
Q 2116 1406 1581 1522 
L 1381 1569 
Q 847 1681 609 1914 
Q 372 2147 372 2553 
Q 372 3047 722 3315 
Q 1072 3584 1716 3584 
Q 2034 3584 2315 3537 
Q 2597 3491 2834 3397 
z
" transform="scale(0.015625)"/>
       <path id="DejaVuSans-47" d="M 3809 666 
L 3809 1919 
L 2778 1919 
L 2778 2438 
L 4434 2438 
L 4434 434 
Q 4069 175 3628 42 
Q 3188 -91 2688 -91 
Q 1594 -91 976 548 
Q 359 1188 359 2328 
Q 359 3472 976 4111 
Q 1594 4750 2688 4750 
Q 3144 4750 3555 4637 
Q 3966 4525 4313 4306 
L 4313 3634 
Q 3963 3931 3569 4081 
Q 3175 4231 2741 4231 
Q 1884 4231 1454 3753 
Q 1025 3275 1025 2328 
Q 1025 1384 1454 906 
Q 1884 428 2741 428 
Q 3075 428 3337 486 
Q 3600 544 3809 666 
z
" transform="scale(0.015625)"/>
       <path id="DejaVuSans-75" d="M 544 1381 
L 544 3500 
L 1119 3500 
L 1119 1403 
Q 1119 906 1312 657 
Q 1506 409 1894 409 
Q 2359 409 2629 706 
Q 2900 1003 2900 1516 
L 2900 3500 
L 3475 3500 
L 3475 0 
L 2900 0 
L 2900 538 
Q 2691 219 2414 64 
Q 2138 -91 1772 -91 
Q 1169 -91 856 284 
Q 544 659 544 1381 
z
M 1991 3584 
L 1991 3584 
z
" transform="scale(0.015625)"/>
      </defs>
      <use xlink:href="#DejaVuSans-45"/>
      <use xlink:href="#DejaVuSans-78" x="63.183594"/>
      <use xlink:href="#DejaVuSans-70" x="122.363281"/>
      <use xlink:href="#DejaVuSans-65" x="185.839844"/>
      <use xlink:href="#DejaVuSans-72" x="247.363281"/>
      <use xlink:href="#DejaVuSans-74" x="288.476562"/>
      <use xlink:href="#DejaVuSans-69" x="327.685547"/>
      <use xlink:href="#DejaVuSans-73" x="355.46875"/>
      <use xlink:href="#DejaVuSans-65" x="407.568359"/>
      <use xlink:href="#DejaVuSans-20" x="469.091797"/>
      <use xlink:href="#DejaVuSans-47" x="500.878906"/>
      <use xlink:href="#DejaVuSans-72" x="578.369141"/>
      <use xlink:href="#DejaVuSans-6f" x="617.232422"/>
      <use xlink:href="#DejaVuSans-75" x="678.414062"/>
      <use xlink:href="#DejaVuSans-70" x="741.792969"/>
     </g>
    </g>
   </g>
   <g id="matplotlib.axis_2">
    <g id="ytick_1">
     <g id="line2d_4">
      <path d="M 50.836875 310.679219 
L 417.566875 310.679219 
" clip-path="url(#pab07fb0fd6)" style="fill: none; stroke-dasharray: 2.96,1.28; stroke-dashoffset: 0; stroke: #c0c0c0; stroke-width: 0.8"/>
     </g>
     <g id="line2d_5">
      <defs>
       <path id="ma3c6e2a830" d="M 0 0 
L -3.5 0 
" style="stroke: #000000; stroke-width: 0.8"/>
      </defs>
      <g>
       <use xlink:href="#ma3c6e2a830" x="50.836875" y="310.679219" style="stroke: #000000; stroke-width: 0.8"/>
      </g>
     </g>
     <g id="text_5">
      <!-- 0 -->
      <g transform="translate(37.474375 314.478438) scale(0.1 -0.1)">
       <use xlink:href="#DejaVuSans-30"/>
      </g>
     </g>
    </g>
    <g id="ytick_2">
     <g id="line2d_6">
      <path d="M 50.836875 250.743219 
L 417.566875 250.743219 
" clip-path="url(#pab07fb0fd6)" style="fill: none; stroke-dasharray: 2.96,1.28; stroke-dashoffset: 0; stroke: #c0c0c0; stroke-width: 0.8"/>
     </g>
     <g id="line2d_7">
      <g>
       <use xlink:href="#ma3c6e2a830" x="50.836875" y="250.743219" style="stroke: #000000; stroke-width: 0.8"/>
      </g>
     </g>
     <g id="text_6">
      <!-- 20 -->
      <g transform="translate(31.111875 254.542438) scale(0.1 -0.1)">
       <defs>
        <path id="DejaVuSans-32" d="M 1228 531 
L 3431 531 
L 3431 0 
L 469 0 
L 469 531 
Q 828 903 1448 1529 
Q 2069 2156 2228 2338 
Q 2531 2678 2651 2914 
Q 2772 3150 2772 3378 
Q 2772 3750 2511 3984 
Q 2250 4219 1831 4219 
Q 1534 4219 1204 4116 
Q 875 4013 500 3803 
L 500 4441 
Q 881 4594 1212 4672 
Q 1544 4750 1819 4750 
Q 2544 4750 2975 4387 
Q 3406 4025 3406 3419 
Q 3406 3131 3298 2873 
Q 3191 2616 2906 2266 
Q 2828 2175 2409 1742 
Q 1991 1309 1228 531 
z
" transform="scale(0.015625)"/>
       </defs>
       <use xlink:href="#DejaVuSans-32"/>
       <use xlink:href="#DejaVuSans-30" x="63.623047"/>
      </g>
     </g>
    </g>
    <g id="ytick_3">
     <g id="line2d_8">
      <path d="M 50.836875 190.807219 
L 417.566875 190.807219 
" clip-path="url(#pab07fb0fd6)" style="fill: none; stroke-dasharray: 2.96,1.28; stroke-dashoffset: 0; stroke: #c0c0c0; stroke-width: 0.8"/>
     </g>
     <g id="line2d_9">
      <g>
       <use xlink:href="#ma3c6e2a830" x="50.836875" y="190.807219" style="stroke: #000000; stroke-width: 0.8"/>
      </g>
     </g>
     <g id="text_7">
      <!-- 40 -->
      <g transform="translate(31.111875 194.606437) scale(0.1 -0.1)">
       <defs>
        <path id="DejaVuSans-34" d="M 2419 4116 
L 825 1625 
L 2419 1625 
L 2419 4116 
z
M 2253 4666 
L 3047 4666 
L 3047 1625 
L 3713 1625 
L 3713 1100 
L 3047 1100 
L 3047 0 
L 2419 0 
L 2419 1100 
L 313 1100 
L 313 1709 
L 2253 4666 
z
" transform="scale(0.015625)"/>
       </defs>
       <use xlink:href="#DejaVuSans-34"/>
       <use xlink:href="#DejaVuSans-30" x="63.623047"/>
      </g>
     </g>
    </g>
    <g id="ytick_4">
     <g id="line2d_10">
      <path d="M 50.836875 130.871219 
L 417.566875 130.871219 
" clip-path="url(#pab07fb0fd6)" style="fill: none; stroke-dasharray: 2.96,1.28; stroke-dashoffset: 0; stroke: #c0c0c0; stroke-width: 0.8"/>
     </g>
     <g id="line2d_11">
      <g>
       <use xlink:href="#ma3c6e2a830" x="50.836875" y="130.871219" style="stroke: #000000; stroke-width: 0.8"/>
      </g>
     </g>
     <g id="text_8">
      <!-- 60 -->
      <g transform="translate(31.111875 134.670437) scale(0.1 -0.1)">
       <defs>
        <path id="DejaVuSans-36" d="M 2113 2584 
Q 1688 2584 1439 2293 
Q 1191 2003 1191 1497 
Q 1191 994 1439 701 
Q 1688 409 2113 409 
Q 2538 409 2786 701 
Q 3034 994 3034 1497 
Q 3034 2003 2786 2293 
Q 2538 2584 2113 2584 
z
M 3366 4563 
L 3366 3988 
Q 3128 4100 2886 4159 
Q 2644 4219 2406 4219 
Q 1781 4219 1451 3797 
Q 1122 3375 1075 2522 
Q 1259 2794 1537 2939 
Q 1816 3084 2150 3084 
Q 2853 3084 3261 2657 
Q 3669 2231 3669 1497 
Q 3669 778 3244 343 
Q 2819 -91 2113 -91 
Q 1303 -91 875 529 
Q 447 1150 447 2328 
Q 447 3434 972 4092 
Q 1497 4750 2381 4750 
Q 2619 4750 2861 4703 
Q 3103 4656 3366 4563 
z
" transform="scale(0.015625)"/>
       </defs>
       <use xlink:href="#DejaVuSans-36"/>
       <use xlink:href="#DejaVuSans-30" x="63.623047"/>
      </g>
     </g>
    </g>
    <g id="ytick_5">
     <g id="line2d_12">
      <path d="M 50.836875 70.935219 
L 417.566875 70.935219 
" clip-path="url(#pab07fb0fd6)" style="fill: none; stroke-dasharray: 2.96,1.28; stroke-dashoffset: 0; stroke: #c0c0c0; stroke-width: 0.8"/>
     </g>
     <g id="line2d_13">
      <g>
       <use xlink:href="#ma3c6e2a830" x="50.836875" y="70.935219" style="stroke: #000000; stroke-width: 0.8"/>
      </g>
     </g>
     <g id="text_9">
      <!-- 80 -->
      <g transform="translate(31.111875 74.734438) scale(0.1 -0.1)">
       <defs>
        <path id="DejaVuSans-38" d="M 2034 2216 
Q 1584 2216 1326 1975 
Q 1069 1734 1069 1313 
Q 1069 891 1326 650 
Q 1584 409 2034 409 
Q 2484 409 2743 651 
Q 3003 894 3003 1313 
Q 3003 1734 2745 1975 
Q 2488 2216 2034 2216 
z
M 1403 2484 
Q 997 2584 770 2862 
Q 544 3141 544 3541 
Q 544 4100 942 4425 
Q 1341 4750 2034 4750 
Q 2731 4750 3128 4425 
Q 3525 4100 3525 3541 
Q 3525 3141 3298 2862 
Q 3072 2584 2669 2484 
Q 3125 2378 3379 2068 
Q 3634 1759 3634 1313 
Q 3634 634 3220 271 
Q 2806 -91 2034 -91 
Q 1263 -91 848 271 
Q 434 634 434 1313 
Q 434 1759 690 2068 
Q 947 2378 1403 2484 
z
M 1172 3481 
Q 1172 3119 1398 2916 
Q 1625 2713 2034 2713 
Q 2441 2713 2670 2916 
Q 2900 3119 2900 3481 
Q 2900 3844 2670 4047 
Q 2441 4250 2034 4250 
Q 1625 4250 1398 4047 
Q 1172 3844 1172 3481 
z
" transform="scale(0.015625)"/>
       </defs>
       <use xlink:href="#DejaVuSans-38"/>
       <use xlink:href="#DejaVuSans-30" x="63.623047"/>
      </g>
     </g>
    </g>
    <g id="ytick_6">
     <g id="line2d_14">
      <path d="M 50.836875 10.999219 
L 417.566875 10.999219 
" clip-path="url(#pab07fb0fd6)" style="fill: none; stroke-dasharray: 2.96,1.28; stroke-dashoffset: 0; stroke: #c0c0c0; stroke-width: 0.8"/>
     </g>
     <g id="line2d_15">
      <g>
       <use xlink:href="#ma3c6e2a830" x="50.836875" y="10.999219" style="stroke: #000000; stroke-width: 0.8"/>
      </g>
     </g>
     <g id="text_10">
      <!-- 100 -->
      <g transform="translate(24.749375 14.798437) scale(0.1 -0.1)">
       <defs>
        <path id="DejaVuSans-31" d="M 794 531 
L 1825 531 
L 1825 4091 
L 703 3866 
L 703 4441 
L 1819 4666 
L 2450 4666 
L 2450 531 
L 3481 531 
L 3481 0 
L 794 0 
L 794 531 
z
" transform="scale(0.015625)"/>
       </defs>
       <use xlink:href="#DejaVuSans-31"/>
       <use xlink:href="#DejaVuSans-30" x="63.623047"/>
       <use xlink:href="#DejaVuSans-30" x="127.246094"/>
      </g>
     </g>
    </g>
    <g id="text_11">
     <!-- Success Rate (%) -->
     <g transform="translate(17.837812 221.627656) rotate(-90) scale(0.14 -0.14)">
      <defs>
       <path id="DejaVuSans-53" d="M 3425 4513 
L 3425 3897 
Q 3066 4069 2747 4153 
Q 2428 4238 2131 4238 
Q 1616 4238 1336 4038 
Q 1056 3838 1056 3469 
Q 1056 3159 1242 3001 
Q 1428 2844 1947 2747 
L 2328 2669 
Q 3034 2534 3370 2195 
Q 3706 1856 3706 1288 
Q 3706 609 3251 259 
Q 2797 -91 1919 -91 
Q 1588 -91 1214 -16 
Q 841 59 441 206 
L 441 856 
Q 825 641 1194 531 
Q 1563 422 1919 422 
Q 2459 422 2753 634 
Q 3047 847 3047 1241 
Q 3047 1584 2836 1778 
Q 2625 1972 2144 2069 
L 1759 2144 
Q 1053 2284 737 2584 
Q 422 2884 422 3419 
Q 422 4038 858 4394 
Q 1294 4750 2059 4750 
Q 2388 4750 2728 4690 
Q 3069 4631 3425 4513 
z
" transform="scale(0.015625)"/>
       <path id="DejaVuSans-63" d="M 3122 3366 
L 3122 2828 
Q 2878 2963 2633 3030 
Q 2388 3097 2138 3097 
Q 1578 3097 1268 2742 
Q 959 2388 959 1747 
Q 959 1106 1268 751 
Q 1578 397 2138 397 
Q 2388 397 2633 464 
Q 2878 531 3122 666 
L 3122 134 
Q 2881 22 2623 -34 
Q 2366 -91 2075 -91 
Q 1284 -91 818 406 
Q 353 903 353 1747 
Q 353 2603 823 3093 
Q 1294 3584 2113 3584 
Q 2378 3584 2631 3529 
Q 2884 3475 3122 3366 
z
" transform="scale(0.015625)"/>
       <path id="DejaVuSans-52" d="M 2841 2188 
Q 3044 2119 3236 1894 
Q 3428 1669 3622 1275 
L 4263 0 
L 3584 0 
L 2988 1197 
Q 2756 1666 2539 1819 
Q 2322 1972 1947 1972 
L 1259 1972 
L 1259 0 
L 628 0 
L 628 4666 
L 2053 4666 
Q 2853 4666 3247 4331 
Q 3641 3997 3641 3322 
Q 3641 2881 3436 2590 
Q 3231 2300 2841 2188 
z
M 1259 4147 
L 1259 2491 
L 2053 2491 
Q 2509 2491 2742 2702 
Q 2975 2913 2975 3322 
Q 2975 3731 2742 3939 
Q 2509 4147 2053 4147 
L 1259 4147 
z
" transform="scale(0.015625)"/>
       <path id="DejaVuSans-61" d="M 2194 1759 
Q 1497 1759 1228 1600 
Q 959 1441 959 1056 
Q 959 750 1161 570 
Q 1363 391 1709 391 
Q 2188 391 2477 730 
Q 2766 1069 2766 1631 
L 2766 1759 
L 2194 1759 
z
M 3341 1997 
L 3341 0 
L 2766 0 
L 2766 531 
Q 2569 213 2275 61 
Q 1981 -91 1556 -91 
Q 1019 -91 701 211 
Q 384 513 384 1019 
Q 384 1609 779 1909 
Q 1175 2209 1959 2209 
L 2766 2209 
L 2766 2266 
Q 2766 2663 2505 2880 
Q 2244 3097 1772 3097 
Q 1472 3097 1187 3025 
Q 903 2953 641 2809 
L 641 3341 
Q 956 3463 1253 3523 
Q 1550 3584 1831 3584 
Q 2591 3584 2966 3190 
Q 3341 2797 3341 1997 
z
" transform="scale(0.015625)"/>
      </defs>
      <use xlink:href="#DejaVuSans-53"/>
      <use xlink:href="#DejaVuSans-75" x="63.476562"/>
      <use xlink:href="#DejaVuSans-63" x="126.855469"/>
      <use xlink:href="#DejaVuSans-63" x="181.835938"/>
      <use xlink:href="#DejaVuSans-65" x="236.816406"/>
      <use xlink:href="#DejaVuSans-73" x="298.339844"/>
      <use xlink:href="#DejaVuSans-73" x="350.439453"/>
      <use xlink:href="#DejaVuSans-20" x="402.539062"/>
      <use xlink:href="#DejaVuSans-52" x="434.326172"/>
      <use xlink:href="#DejaVuSans-61" x="501.558594"/>
      <use xlink:href="#DejaVuSans-74" x="562.837891"/>
      <use xlink:href="#DejaVuSans-65" x="602.046875"/>
      <use xlink:href="#DejaVuSans-20" x="663.570312"/>
      <use xlink:href="#DejaVuSans-28" x="695.357422"/>
      <use xlink:href="#DejaVuSans-25" x="734.371094"/>
      <use xlink:href="#DejaVuSans-29" x="829.390625"/>
     </g>
    </g>
   </g>
   <g id="PolyCollection_1">
    <path d="M 113.788575 286.38084 
L 110.128509 286.38084 
L 110.129737 285.15365 
L 110.166928 283.926459 
L 110.235344 282.699268 
L 110.328117 281.472077 
L 110.437015 280.244886 
L 110.553284 279.017695 
L 110.668432 277.790505 
L 110.774822 276.563314 
L 110.865994 275.336123 
L 110.936702 274.108932 
L 110.982688 272.881741 
L 111.000285 271.65455 
L 110.985949 270.42736 
L 110.93583 269.200169 
L 110.845466 267.972978 
L 110.70964 266.745787 
L 110.52241 265.518596 
L 110.277244 264.291405 
L 109.967215 263.064215 
L 109.585152 261.837024 
L 109.123697 260.609833 
L 108.57526 259.382642 
L 107.93189 258.155451 
L 107.185168 256.928261 
L 106.32625 255.70107 
L 105.346196 254.473879 
L 104.236721 253.246688 
L 102.991399 252.019497 
L 101.607291 250.792306 
L 100.086815 249.565116 
L 98.43961 248.337925 
L 96.684016 247.110734 
L 94.847826 245.883543 
L 92.967986 244.656352 
L 91.089068 243.429161 
L 89.260508 242.201971 
L 87.532841 240.97478 
L 85.953315 239.747589 
L 84.56144 238.520398 
L 83.385028 237.293207 
L 82.437258 236.066016 
L 81.715139 234.838826 
L 81.199554 233.611635 
L 80.85687 232.384444 
L 80.641912 231.157253 
L 80.501984 229.930062 
L 80.38155 228.702871 
L 80.227155 227.475681 
L 79.992197 226.24849 
L 79.64116 225.021299 
L 79.152971 223.794108 
L 78.523156 222.566917 
L 77.76456 221.339727 
L 76.906451 220.112536 
L 75.99201 218.885345 
L 75.07434 217.658154 
L 74.211328 216.430963 
L 73.459821 215.203772 
L 72.869711 213.976582 
L 72.478517 212.749391 
L 72.306994 211.5222 
L 72.35621 210.295009 
L 72.606348 209.067818 
L 73.017345 207.840627 
L 73.531333 206.613437 
L 74.076746 205.386246 
L 74.573812 204.159055 
L 74.941083 202.931864 
L 75.102527 201.704673 
L 74.994576 200.477482 
L 74.572459 199.250292 
L 73.815093 198.023101 
L 72.727886 196.79591 
L 71.342989 195.568719 
L 69.716799 194.341528 
L 67.924932 193.114338 
L 66.055191 191.887147 
L 64.199384 190.659956 
L 62.445023 189.432765 
L 60.867888 188.205574 
L 59.526318 186.978383 
L 58.457797 185.751193 
L 57.678063 184.524002 
L 57.182645 183.296811 
L 56.950474 182.06962 
L 56.949042 180.842429 
L 57.140475 179.615238 
L 57.487872 178.388048 
L 57.961256 177.160857 
L 58.542524 175.933666 
L 59.228826 174.706475 
L 60.033897 173.479284 
L 60.98705 172.252093 
L 62.129723 171.024903 
L 63.509839 169.797712 
L 65.174545 168.570521 
L 67.162219 167.34333 
L 69.494874 166.116139 
L 72.172103 164.888948 
L 151.74498 164.888948 
L 151.74498 164.888948 
L 154.42221 166.116139 
L 156.754864 167.34333 
L 158.742538 168.570521 
L 160.407244 169.797712 
L 161.78736 171.024903 
L 162.930033 172.252093 
L 163.883186 173.479284 
L 164.688258 174.706475 
L 165.374559 175.933666 
L 165.955827 177.160857 
L 166.429211 178.388048 
L 166.776608 179.615238 
L 166.968042 180.842429 
L 166.96661 182.06962 
L 166.734439 183.296811 
L 166.23902 184.524002 
L 165.459286 185.751193 
L 164.390766 186.978383 
L 163.049195 188.205574 
L 161.47206 189.432765 
L 159.717699 190.659956 
L 157.861893 191.887147 
L 155.992151 193.114338 
L 154.200285 194.341528 
L 152.574095 195.568719 
L 151.189197 196.79591 
L 150.10199 198.023101 
L 149.344624 199.250292 
L 148.922507 200.477482 
L 148.814556 201.704673 
L 148.976 202.931864 
L 149.343272 204.159055 
L 149.840337 205.386246 
L 150.38575 206.613437 
L 150.899739 207.840627 
L 151.310735 209.067818 
L 151.560873 210.295009 
L 151.610089 211.5222 
L 151.438566 212.749391 
L 151.047372 213.976582 
L 150.457263 215.203772 
L 149.705755 216.430963 
L 148.842743 217.658154 
L 147.925074 218.885345 
L 147.010633 220.112536 
L 146.152523 221.339727 
L 145.393927 222.566917 
L 144.764113 223.794108 
L 144.275923 225.021299 
L 143.924886 226.24849 
L 143.689928 227.475681 
L 143.535534 228.702871 
L 143.4151 229.930062 
L 143.275172 231.157253 
L 143.060213 232.384444 
L 142.717529 233.611635 
L 142.201945 234.838826 
L 141.479826 236.066016 
L 140.532056 237.293207 
L 139.355643 238.520398 
L 137.963768 239.747589 
L 136.384243 240.97478 
L 134.656575 242.201971 
L 132.828015 243.429161 
L 130.949097 244.656352 
L 129.069257 245.883543 
L 127.233067 247.110734 
L 125.477473 248.337925 
L 123.830268 249.565116 
L 122.309792 250.792306 
L 120.925684 252.019497 
L 119.680363 253.246688 
L 118.570888 254.473879 
L 117.590834 255.70107 
L 116.731915 256.928261 
L 115.985194 258.155451 
L 115.341824 259.382642 
L 114.793387 260.609833 
L 114.331932 261.837024 
L 113.949868 263.064215 
L 113.639839 264.291405 
L 113.394674 265.518596 
L 113.207443 266.745787 
L 113.071617 267.972978 
L 112.981253 269.200169 
L 112.931134 270.42736 
L 112.916798 271.65455 
L 112.934395 272.881741 
L 112.980381 274.108932 
L 113.051089 275.336123 
L 113.142261 276.563314 
L 113.248651 277.790505 
L 113.3638 279.017695 
L 113.480068 280.244886 
L 113.588966 281.472077 
L 113.681739 282.699268 
L 113.750156 283.926459 
L 113.787346 285.15365 
L 113.788575 286.38084 
z
" clip-path="url(#pab07fb0fd6)" style="fill: #8e0152"/>
   </g>
   <g id="PolyCollection_2">
    <path d="M 288.248423 156.789489 
L 180.155327 156.789489 
L 179.405758 156.134987 
L 179.192375 155.480485 
L 179.484861 154.825984 
L 180.233367 154.171482 
L 181.372188 153.51698 
L 182.824297 152.862478 
L 184.506346 152.207977 
L 186.333709 151.553475 
L 188.225196 150.898973 
L 190.107118 150.244471 
L 191.916507 149.58997 
L 193.603348 148.935468 
L 195.131825 148.280966 
L 196.480609 147.626464 
L 197.642307 146.971962 
L 198.622204 146.317461 
L 199.436454 145.662959 
L 200.109863 145.008457 
L 200.673427 144.353955 
L 201.161746 143.699454 
L 201.610453 143.044952 
L 202.053797 142.39045 
L 202.522478 141.735948 
L 203.041869 141.081446 
L 203.630699 140.426945 
L 204.300274 139.772443 
L 205.054265 139.117941 
L 205.889041 138.463439 
L 206.794512 137.808938 
L 207.755364 137.154436 
L 208.752588 136.499934 
L 209.76514 135.845432 
L 210.771611 135.19093 
L 211.751776 134.536429 
L 212.687921 133.881927 
L 213.565881 133.227425 
L 214.375756 132.572923 
L 215.112296 131.918422 
L 215.77498 131.26392 
L 216.367806 130.609418 
L 216.898848 129.954916 
L 217.379609 129.300414 
L 217.824205 128.645913 
L 218.24844 127.991411 
L 218.668787 127.336909 
L 219.101345 126.682407 
L 219.560804 126.027906 
L 220.05949 125.373404 
L 220.606547 124.718902 
L 221.207311 124.0644 
L 221.862935 123.409899 
L 222.570294 122.755397 
L 223.322186 122.100895 
L 224.107817 121.446393 
L 224.913531 120.791891 
L 225.723734 120.13739 
L 226.521928 119.482888 
L 227.291775 118.828386 
L 228.01811 118.173884 
L 228.687828 117.519383 
L 229.290585 116.864881 
L 229.819279 116.210379 
L 230.270283 115.555877 
L 230.643443 114.901375 
L 230.941855 114.246874 
L 231.171457 113.592372 
L 231.340477 112.93787 
L 231.458786 112.283368 
L 231.537201 111.628867 
L 231.586787 110.974365 
L 231.618202 110.319863 
L 231.641107 109.665361 
L 231.66369 109.010859 
L 231.692303 108.356358 
L 231.731239 107.701856 
L 231.78265 107.047354 
L 231.846596 106.392852 
L 231.921227 105.738351 
L 232.003065 105.083849 
L 232.087384 104.429347 
L 232.168639 103.774845 
L 232.240941 103.120344 
L 232.298528 102.465842 
L 232.33622 101.81134 
L 232.349828 101.156838 
L 232.336484 100.502336 
L 232.2949 99.847835 
L 232.225513 99.193333 
L 232.130528 98.538831 
L 232.013844 97.884329 
L 231.880874 97.229828 
L 231.738263 96.575326 
L 231.593522 95.920824 
L 231.454599 95.266322 
L 231.329416 94.61182 
L 231.225401 93.957319 
L 231.149046 93.302817 
L 231.105534 92.648315 
L 231.098442 91.993813 
L 237.305308 91.993813 
L 237.305308 91.993813 
L 237.298216 92.648315 
L 237.254704 93.302817 
L 237.178349 93.957319 
L 237.074334 94.61182 
L 236.949151 95.266322 
L 236.810228 95.920824 
L 236.665487 96.575326 
L 236.522876 97.229828 
L 236.389906 97.884329 
L 236.273222 98.538831 
L 236.178237 99.193333 
L 236.10885 99.847835 
L 236.067266 100.502336 
L 236.053922 101.156838 
L 236.06753 101.81134 
L 236.105222 102.465842 
L 236.162809 103.120344 
L 236.235111 103.774845 
L 236.316366 104.429347 
L 236.400685 105.083849 
L 236.482523 105.738351 
L 236.557154 106.392852 
L 236.6211 107.047354 
L 236.672511 107.701856 
L 236.711447 108.356358 
L 236.74006 109.010859 
L 236.762643 109.665361 
L 236.785548 110.319863 
L 236.816963 110.974365 
L 236.866549 111.628867 
L 236.944964 112.283368 
L 237.063273 112.93787 
L 237.232293 113.592372 
L 237.461895 114.246874 
L 237.760307 114.901375 
L 238.133467 115.555877 
L 238.584471 116.210379 
L 239.113165 116.864881 
L 239.715922 117.519383 
L 240.38564 118.173884 
L 241.111975 118.828386 
L 241.881822 119.482888 
L 242.680016 120.13739 
L 243.490219 120.791891 
L 244.295933 121.446393 
L 245.081564 122.100895 
L 245.833456 122.755397 
L 246.540815 123.409899 
L 247.196439 124.0644 
L 247.797203 124.718902 
L 248.34426 125.373404 
L 248.842946 126.027906 
L 249.302405 126.682407 
L 249.734963 127.336909 
L 250.15531 127.991411 
L 250.579545 128.645913 
L 251.024141 129.300414 
L 251.504902 129.954916 
L 252.035944 130.609418 
L 252.62877 131.26392 
L 253.291454 131.918422 
L 254.027994 132.572923 
L 254.837869 133.227425 
L 255.715829 133.881927 
L 256.651974 134.536429 
L 257.632139 135.19093 
L 258.63861 135.845432 
L 259.651162 136.499934 
L 260.648386 137.154436 
L 261.609238 137.808938 
L 262.514709 138.463439 
L 263.349485 139.117941 
L 264.103476 139.772443 
L 264.773051 140.426945 
L 265.361881 141.081446 
L 265.881272 141.735948 
L 266.349953 142.39045 
L 266.793297 143.044952 
L 267.242004 143.699454 
L 267.730323 144.353955 
L 268.293887 145.008457 
L 268.967296 145.662959 
L 269.781546 146.317461 
L 270.761443 146.971962 
L 271.923141 147.626464 
L 273.271925 148.280966 
L 274.800402 148.935468 
L 276.487243 149.58997 
L 278.296632 150.244471 
L 280.178554 150.898973 
L 282.070041 151.553475 
L 283.897404 152.207977 
L 285.579453 152.862478 
L 287.031562 153.51698 
L 288.170383 154.171482 
L 288.918889 154.825984 
L 289.211375 155.480485 
L 288.997992 156.134987 
L 288.248423 156.789489 
z
" clip-path="url(#pab07fb0fd6)" style="fill: #276419"/>
   </g>
   <g id="PolyCollection_3">
    <path d="M 357.97853 286.38084 
L 354.911887 286.38084 
L 354.902655 284.417335 
L 354.938686 282.45383 
L 355.007782 280.490324 
L 355.092455 278.526819 
L 355.171995 276.563314 
L 355.224365 274.599808 
L 355.22743 272.636303 
L 355.159375 270.672798 
L 354.998431 268.709292 
L 354.722255 266.745787 
L 354.307346 264.782282 
L 353.728818 262.818776 
L 352.96078 260.855271 
L 351.977587 258.891766 
L 350.756209 256.928261 
L 349.279935 254.964755 
L 347.543329 253.00125 
L 345.557887 251.037745 
L 343.357121 249.074239 
L 340.99933 247.110734 
L 338.566228 245.147229 
L 336.156227 243.183723 
L 333.872503 241.220218 
L 331.807578 239.256713 
L 330.027606 237.293207 
L 328.560183 235.329702 
L 327.389122 233.366197 
L 326.458116 231.402691 
L 325.683127 229.439186 
L 324.971109 227.475681 
L 324.240976 225.512175 
L 323.441993 223.54867 
L 322.565138 221.585165 
L 321.644449 219.621659 
L 320.747596 217.658154 
L 319.95743 215.694649 
L 319.34852 213.731143 
L 318.964078 211.767638 
L 318.798909 209.804133 
L 318.792883 207.840627 
L 318.837208 205.877122 
L 318.792884 203.913617 
L 318.517771 201.950111 
L 317.896439 199.986606 
L 316.865947 198.023101 
L 315.431319 196.059595 
L 313.666728 194.09609 
L 311.70183 192.132585 
L 309.696374 190.16908 
L 307.809103 188.205574 
L 306.168301 186.242069 
L 304.850608 184.278564 
L 303.872474 182.315058 
L 303.195316 180.351553 
L 302.742356 178.388048 
L 302.422675 176.424542 
L 302.156952 174.461037 
L 301.899419 172.497532 
L 301.651666 170.534026 
L 301.465697 168.570521 
L 301.435708 166.607016 
L 301.68022 164.64351 
L 302.318034 162.680005 
L 303.442922 160.7165 
L 305.102402 158.752994 
L 307.28541 156.789489 
L 309.921786 154.825984 
L 312.893825 152.862478 
L 316.057052 150.898973 
L 319.26501 148.935468 
L 322.39195 146.971962 
L 325.348188 145.008457 
L 328.085483 143.044952 
L 330.592871 141.081446 
L 332.886097 139.117941 
L 334.994972 137.154436 
L 336.952492 135.19093 
L 338.78787 133.227425 
L 340.523546 131.26392 
L 342.17484 129.300414 
L 343.750493 127.336909 
L 345.252961 125.373404 
L 346.678325 123.409899 
L 348.016463 121.446393 
L 349.252308 119.482888 
L 350.368498 117.519383 
L 351.349015 115.555877 
L 352.182811 113.592372 
L 352.86634 111.628867 
L 353.404386 109.665361 
L 353.8092 107.701856 
L 354.098593 105.738351 
L 354.293782 103.774845 
L 354.417604 101.81134 
L 354.493254 99.847835 
L 354.543308 97.884329 
L 354.588642 95.920824 
L 354.647017 93.957319 
L 354.731464 91.993813 
L 358.158953 91.993813 
L 358.158953 91.993813 
L 358.2434 93.957319 
L 358.301775 95.920824 
L 358.347109 97.884329 
L 358.397163 99.847835 
L 358.472813 101.81134 
L 358.596634 103.774845 
L 358.791823 105.738351 
L 359.081217 107.701856 
L 359.486031 109.665361 
L 360.024077 111.628867 
L 360.707606 113.592372 
L 361.541401 115.555877 
L 362.521919 117.519383 
L 363.638109 119.482888 
L 364.873953 121.446393 
L 366.212092 123.409899 
L 367.637456 125.373404 
L 369.139924 127.336909 
L 370.715577 129.300414 
L 372.36687 131.26392 
L 374.102546 133.227425 
L 375.937924 135.19093 
L 377.895445 137.154436 
L 380.00432 139.117941 
L 382.297546 141.081446 
L 384.804934 143.044952 
L 387.542229 145.008457 
L 390.498467 146.971962 
L 393.625406 148.935468 
L 396.833365 150.898973 
L 399.996591 152.862478 
L 402.968631 154.825984 
L 405.605007 156.789489 
L 407.788014 158.752994 
L 409.447495 160.7165 
L 410.572382 162.680005 
L 411.210197 164.64351 
L 411.454708 166.607016 
L 411.42472 168.570521 
L 411.23875 170.534026 
L 410.990998 172.497532 
L 410.733465 174.461037 
L 410.467742 176.424542 
L 410.14806 178.388048 
L 409.6951 180.351553 
L 409.017943 182.315058 
L 408.039808 184.278564 
L 406.722116 186.242069 
L 405.081313 188.205574 
L 403.194043 190.16908 
L 401.188586 192.132585 
L 399.223689 194.09609 
L 397.459097 196.059595 
L 396.02447 198.023101 
L 394.993978 199.986606 
L 394.372645 201.950111 
L 394.097532 203.913617 
L 394.053209 205.877122 
L 394.097534 207.840627 
L 394.091507 209.804133 
L 393.926338 211.767638 
L 393.541897 213.731143 
L 392.932987 215.694649 
L 392.142821 217.658154 
L 391.245968 219.621659 
L 390.325278 221.585165 
L 389.448423 223.54867 
L 388.64944 225.512175 
L 387.919308 227.475681 
L 387.20729 229.439186 
L 386.432301 231.402691 
L 385.501294 233.366197 
L 384.330233 235.329702 
L 382.862811 237.293207 
L 381.082838 239.256713 
L 379.017914 241.220218 
L 376.734189 243.183723 
L 374.324189 245.147229 
L 371.891087 247.110734 
L 369.533296 249.074239 
L 367.33253 251.037745 
L 365.347088 253.00125 
L 363.610482 254.964755 
L 362.134207 256.928261 
L 360.91283 258.891766 
L 359.929637 260.855271 
L 359.161599 262.818776 
L 358.58307 264.782282 
L 358.168162 266.745787 
L 357.891985 268.709292 
L 357.731041 270.672798 
L 357.662987 272.636303 
L 357.666052 274.599808 
L 357.718421 276.563314 
L 357.797962 278.526819 
L 357.882634 280.490324 
L 357.95173 282.45383 
L 357.987761 284.417335 
L 357.97853 286.38084 
z
" clip-path="url(#pab07fb0fd6)" style="fill: #2976bb"/>
   </g>
   <g id="patch_3">
    <path d="M 99.734208 221.585165 
L 124.182875 221.585165 
L 124.182875 192.28239 
L 118.070708 189.187327 
L 124.182875 186.092264 
L 124.182875 181.087867 
L 99.734208 181.087867 
L 99.734208 186.092264 
L 105.846375 189.187327 
L 99.734208 192.28239 
L 99.734208 221.585165 
z
" clip-path="url(#pab07fb0fd6)" style="fill: #a9a9a9; stroke: #000000; stroke-linejoin: miter"/>
   </g>
   <g id="line2d_16">
    <path d="M 111.958542 221.585165 
L 111.958542 237.784084 
" clip-path="url(#pab07fb0fd6)" style="fill: none; stroke: #000000; stroke-linecap: square"/>
   </g>
   <g id="line2d_17">
    <path d="M 111.958542 181.087867 
L 111.958542 164.888948 
" clip-path="url(#pab07fb0fd6)" style="fill: none; stroke: #000000; stroke-linecap: square"/>
   </g>
   <g id="line2d_18">
    <path d="M 105.846375 237.784084 
L 118.070708 237.784084 
" clip-path="url(#pab07fb0fd6)" style="fill: none; stroke: #000000; stroke-linecap: square"/>
   </g>
   <g id="line2d_19">
    <path d="M 105.846375 164.888948 
L 118.070708 164.888948 
" clip-path="url(#pab07fb0fd6)" style="fill: none; stroke: #000000; stroke-linecap: square"/>
   </g>
   <g id="line2d_20">
    <defs>
     <path id="mecb40c0902" d="M 0 2 
C 0.530406 2 1.03916 1.789267 1.414214 1.414214 
C 1.789267 1.03916 2 0.530406 2 0 
C 2 -0.530406 1.789267 -1.03916 1.414214 -1.414214 
C 1.03916 -1.789267 0.530406 -2 0 -2 
C -0.530406 -2 -1.03916 -1.789267 -1.414214 -1.414214 
C -1.789267 -1.03916 -2 -0.530406 -2 0 
C -2 0.530406 -1.789267 1.03916 -1.414214 1.414214 
C -1.03916 1.789267 -0.530406 2 0 2 
z
" style="stroke: #000000"/>
    </defs>
    <g clip-path="url(#pab07fb0fd6)">
     <use xlink:href="#mecb40c0902" x="111.958542" y="245.883543" style="fill-opacity: 0; stroke: #000000"/>
     <use xlink:href="#mecb40c0902" x="111.958542" y="245.883543" style="fill-opacity: 0; stroke: #000000"/>
     <use xlink:href="#mecb40c0902" x="111.958542" y="245.883543" style="fill-opacity: 0; stroke: #000000"/>
     <use xlink:href="#mecb40c0902" x="111.958542" y="245.883543" style="fill-opacity: 0; stroke: #000000"/>
     <use xlink:href="#mecb40c0902" x="111.958542" y="253.983003" style="fill-opacity: 0; stroke: #000000"/>
     <use xlink:href="#mecb40c0902" x="111.958542" y="253.983003" style="fill-opacity: 0; stroke: #000000"/>
     <use xlink:href="#mecb40c0902" x="111.958542" y="253.983003" style="fill-opacity: 0; stroke: #000000"/>
     <use xlink:href="#mecb40c0902" x="111.958542" y="253.983003" style="fill-opacity: 0; stroke: #000000"/>
     <use xlink:href="#mecb40c0902" x="111.958542" y="245.883543" style="fill-opacity: 0; stroke: #000000"/>
     <use xlink:href="#mecb40c0902" x="111.958542" y="245.883543" style="fill-opacity: 0; stroke: #000000"/>
     <use xlink:href="#mecb40c0902" x="111.958542" y="245.883543" style="fill-opacity: 0; stroke: #000000"/>
     <use xlink:href="#mecb40c0902" x="111.958542" y="245.883543" style="fill-opacity: 0; stroke: #000000"/>
     <use xlink:href="#mecb40c0902" x="111.958542" y="245.883543" style="fill-opacity: 0; stroke: #000000"/>
     <use xlink:href="#mecb40c0902" x="111.958542" y="245.883543" style="fill-opacity: 0; stroke: #000000"/>
     <use xlink:href="#mecb40c0902" x="111.958542" y="286.38084" style="fill-opacity: 0; stroke: #000000"/>
     <use xlink:href="#mecb40c0902" x="111.958542" y="286.38084" style="fill-opacity: 0; stroke: #000000"/>
     <use xlink:href="#mecb40c0902" x="111.958542" y="286.38084" style="fill-opacity: 0; stroke: #000000"/>
     <use xlink:href="#mecb40c0902" x="111.958542" y="286.38084" style="fill-opacity: 0; stroke: #000000"/>
     <use xlink:href="#mecb40c0902" x="111.958542" y="270.181921" style="fill-opacity: 0; stroke: #000000"/>
     <use xlink:href="#mecb40c0902" x="111.958542" y="253.983003" style="fill-opacity: 0; stroke: #000000"/>
    </g>
   </g>
   <g id="patch_4">
    <path d="M 221.977542 156.789489 
L 246.426208 156.789489 
L 246.426208 150.824261 
L 240.314042 148.69003 
L 246.426208 146.555798 
L 246.426208 140.59057 
L 221.977542 140.59057 
L 221.977542 146.555798 
L 228.089708 148.69003 
L 221.977542 150.824261 
L 221.977542 156.789489 
z
" clip-path="url(#pab07fb0fd6)" style="fill: #a9a9a9; stroke: #000000; stroke-linejoin: miter"/>
   </g>
   <g id="line2d_21">
    <path d="M 234.201875 156.789489 
L 234.201875 156.789489 
" clip-path="url(#pab07fb0fd6)" style="fill: none; stroke: #000000; stroke-linecap: square"/>
   </g>
   <g id="line2d_22">
    <path d="M 234.201875 140.59057 
L 234.201875 132.491111 
" clip-path="url(#pab07fb0fd6)" style="fill: none; stroke: #000000; stroke-linecap: square"/>
   </g>
   <g id="line2d_23">
    <path d="M 228.089708 156.789489 
L 240.314042 156.789489 
" clip-path="url(#pab07fb0fd6)" style="fill: none; stroke: #000000; stroke-linecap: square"/>
   </g>
   <g id="line2d_24">
    <path d="M 228.089708 132.491111 
L 240.314042 132.491111 
" clip-path="url(#pab07fb0fd6)" style="fill: none; stroke: #000000; stroke-linecap: square"/>
   </g>
   <g id="line2d_25">
    <g clip-path="url(#pab07fb0fd6)">
     <use xlink:href="#mecb40c0902" x="234.201875" y="108.192732" style="fill-opacity: 0; stroke: #000000"/>
     <use xlink:href="#mecb40c0902" x="234.201875" y="108.192732" style="fill-opacity: 0; stroke: #000000"/>
     <use xlink:href="#mecb40c0902" x="234.201875" y="108.192732" style="fill-opacity: 0; stroke: #000000"/>
     <use xlink:href="#mecb40c0902" x="234.201875" y="91.993813" style="fill-opacity: 0; stroke: #000000"/>
     <use xlink:href="#mecb40c0902" x="234.201875" y="91.993813" style="fill-opacity: 0; stroke: #000000"/>
     <use xlink:href="#mecb40c0902" x="234.201875" y="91.993813" style="fill-opacity: 0; stroke: #000000"/>
     <use xlink:href="#mecb40c0902" x="234.201875" y="91.993813" style="fill-opacity: 0; stroke: #000000"/>
     <use xlink:href="#mecb40c0902" x="234.201875" y="124.391651" style="fill-opacity: 0; stroke: #000000"/>
     <use xlink:href="#mecb40c0902" x="234.201875" y="124.391651" style="fill-opacity: 0; stroke: #000000"/>
     <use xlink:href="#mecb40c0902" x="234.201875" y="124.391651" style="fill-opacity: 0; stroke: #000000"/>
     <use xlink:href="#mecb40c0902" x="234.201875" y="124.391651" style="fill-opacity: 0; stroke: #000000"/>
     <use xlink:href="#mecb40c0902" x="234.201875" y="124.391651" style="fill-opacity: 0; stroke: #000000"/>
     <use xlink:href="#mecb40c0902" x="234.201875" y="124.391651" style="fill-opacity: 0; stroke: #000000"/>
     <use xlink:href="#mecb40c0902" x="234.201875" y="124.391651" style="fill-opacity: 0; stroke: #000000"/>
     <use xlink:href="#mecb40c0902" x="234.201875" y="124.391651" style="fill-opacity: 0; stroke: #000000"/>
     <use xlink:href="#mecb40c0902" x="234.201875" y="124.391651" style="fill-opacity: 0; stroke: #000000"/>
     <use xlink:href="#mecb40c0902" x="234.201875" y="124.391651" style="fill-opacity: 0; stroke: #000000"/>
     <use xlink:href="#mecb40c0902" x="234.201875" y="124.391651" style="fill-opacity: 0; stroke: #000000"/>
     <use xlink:href="#mecb40c0902" x="234.201875" y="124.391651" style="fill-opacity: 0; stroke: #000000"/>
     <use xlink:href="#mecb40c0902" x="234.201875" y="124.391651" style="fill-opacity: 0; stroke: #000000"/>
    </g>
   </g>
   <g id="patch_5">
    <path d="M 344.220875 213.485705 
L 368.669542 213.485705 
L 368.669542 184.835993 
L 362.557375 181.087867 
L 368.669542 177.339741 
L 368.669542 156.789489 
L 344.220875 156.789489 
L 344.220875 177.339741 
L 350.333042 181.087867 
L 344.220875 184.835993 
L 344.220875 213.485705 
z
" clip-path="url(#pab07fb0fd6)" style="fill: #a9a9a9; stroke: #000000; stroke-linejoin: miter"/>
   </g>
   <g id="line2d_26">
    <path d="M 356.445208 213.485705 
L 356.445208 237.784084 
" clip-path="url(#pab07fb0fd6)" style="fill: none; stroke: #000000; stroke-linecap: square"/>
   </g>
   <g id="line2d_27">
    <path d="M 356.445208 156.789489 
L 356.445208 132.491111 
" clip-path="url(#pab07fb0fd6)" style="fill: none; stroke: #000000; stroke-linecap: square"/>
   </g>
   <g id="line2d_28">
    <path d="M 350.333042 237.784084 
L 362.557375 237.784084 
" clip-path="url(#pab07fb0fd6)" style="fill: none; stroke: #000000; stroke-linecap: square"/>
   </g>
   <g id="line2d_29">
    <path d="M 350.333042 132.491111 
L 362.557375 132.491111 
" clip-path="url(#pab07fb0fd6)" style="fill: none; stroke: #000000; stroke-linecap: square"/>
   </g>
   <g id="line2d_30">
    <g clip-path="url(#pab07fb0fd6)">
     <use xlink:href="#mecb40c0902" x="356.445208" y="245.883543" style="fill-opacity: 0; stroke: #000000"/>
     <use xlink:href="#mecb40c0902" x="356.445208" y="245.883543" style="fill-opacity: 0; stroke: #000000"/>
     <use xlink:href="#mecb40c0902" x="356.445208" y="245.883543" style="fill-opacity: 0; stroke: #000000"/>
     <use xlink:href="#mecb40c0902" x="356.445208" y="245.883543" style="fill-opacity: 0; stroke: #000000"/>
     <use xlink:href="#mecb40c0902" x="356.445208" y="253.983003" style="fill-opacity: 0; stroke: #000000"/>
     <use xlink:href="#mecb40c0902" x="356.445208" y="253.983003" style="fill-opacity: 0; stroke: #000000"/>
     <use xlink:href="#mecb40c0902" x="356.445208" y="253.983003" style="fill-opacity: 0; stroke: #000000"/>
     <use xlink:href="#mecb40c0902" x="356.445208" y="253.983003" style="fill-opacity: 0; stroke: #000000"/>
     <use xlink:href="#mecb40c0902" x="356.445208" y="245.883543" style="fill-opacity: 0; stroke: #000000"/>
     <use xlink:href="#mecb40c0902" x="356.445208" y="245.883543" style="fill-opacity: 0; stroke: #000000"/>
     <use xlink:href="#mecb40c0902" x="356.445208" y="245.883543" style="fill-opacity: 0; stroke: #000000"/>
     <use xlink:href="#mecb40c0902" x="356.445208" y="245.883543" style="fill-opacity: 0; stroke: #000000"/>
     <use xlink:href="#mecb40c0902" x="356.445208" y="245.883543" style="fill-opacity: 0; stroke: #000000"/>
     <use xlink:href="#mecb40c0902" x="356.445208" y="245.883543" style="fill-opacity: 0; stroke: #000000"/>
     <use xlink:href="#mecb40c0902" x="356.445208" y="286.38084" style="fill-opacity: 0; stroke: #000000"/>
     <use xlink:href="#mecb40c0902" x="356.445208" y="286.38084" style="fill-opacity: 0; stroke: #000000"/>
     <use xlink:href="#mecb40c0902" x="356.445208" y="286.38084" style="fill-opacity: 0; stroke: #000000"/>
     <use xlink:href="#mecb40c0902" x="356.445208" y="286.38084" style="fill-opacity: 0; stroke: #000000"/>
     <use xlink:href="#mecb40c0902" x="356.445208" y="270.181921" style="fill-opacity: 0; stroke: #000000"/>
     <use xlink:href="#mecb40c0902" x="356.445208" y="253.983003" style="fill-opacity: 0; stroke: #000000"/>
     <use xlink:href="#mecb40c0902" x="356.445208" y="108.192732" style="fill-opacity: 0; stroke: #000000"/>
     <use xlink:href="#mecb40c0902" x="356.445208" y="108.192732" style="fill-opacity: 0; stroke: #000000"/>
     <use xlink:href="#mecb40c0902" x="356.445208" y="108.192732" style="fill-opacity: 0; stroke: #000000"/>
     <use xlink:href="#mecb40c0902" x="356.445208" y="91.993813" style="fill-opacity: 0; stroke: #000000"/>
     <use xlink:href="#mecb40c0902" x="356.445208" y="91.993813" style="fill-opacity: 0; stroke: #000000"/>
     <use xlink:href="#mecb40c0902" x="356.445208" y="91.993813" style="fill-opacity: 0; stroke: #000000"/>
     <use xlink:href="#mecb40c0902" x="356.445208" y="91.993813" style="fill-opacity: 0; stroke: #000000"/>
     <use xlink:href="#mecb40c0902" x="356.445208" y="124.391651" style="fill-opacity: 0; stroke: #000000"/>
     <use xlink:href="#mecb40c0902" x="356.445208" y="124.391651" style="fill-opacity: 0; stroke: #000000"/>
     <use xlink:href="#mecb40c0902" x="356.445208" y="124.391651" style="fill-opacity: 0; stroke: #000000"/>
     <use xlink:href="#mecb40c0902" x="356.445208" y="124.391651" style="fill-opacity: 0; stroke: #000000"/>
     <use xlink:href="#mecb40c0902" x="356.445208" y="124.391651" style="fill-opacity: 0; stroke: #000000"/>
     <use xlink:href="#mecb40c0902" x="356.445208" y="124.391651" style="fill-opacity: 0; stroke: #000000"/>
     <use xlink:href="#mecb40c0902" x="356.445208" y="124.391651" style="fill-opacity: 0; stroke: #000000"/>
     <use xlink:href="#mecb40c0902" x="356.445208" y="124.391651" style="fill-opacity: 0; stroke: #000000"/>
     <use xlink:href="#mecb40c0902" x="356.445208" y="124.391651" style="fill-opacity: 0; stroke: #000000"/>
     <use xlink:href="#mecb40c0902" x="356.445208" y="124.391651" style="fill-opacity: 0; stroke: #000000"/>
     <use xlink:href="#mecb40c0902" x="356.445208" y="124.391651" style="fill-opacity: 0; stroke: #000000"/>
     <use xlink:href="#mecb40c0902" x="356.445208" y="124.391651" style="fill-opacity: 0; stroke: #000000"/>
     <use xlink:href="#mecb40c0902" x="356.445208" y="124.391651" style="fill-opacity: 0; stroke: #000000"/>
    </g>
   </g>
   <g id="line2d_31">
    <path d="M 105.846375 189.187327 
L 118.070708 189.187327 
" clip-path="url(#pab07fb0fd6)" style="fill: none; stroke: #000000; stroke-width: 2; stroke-linecap: square"/>
   </g>
   <g id="line2d_32">
    <path d="M 228.089708 148.69003 
L 240.314042 148.69003 
" clip-path="url(#pab07fb0fd6)" style="fill: none; stroke: #000000; stroke-width: 2; stroke-linecap: square"/>
   </g>
   <g id="line2d_33">
    <path d="M 350.333042 181.087867 
L 362.557375 181.087867 
" clip-path="url(#pab07fb0fd6)" style="fill: none; stroke: #000000; stroke-width: 2; stroke-linecap: square"/>
   </g>
   <g id="patch_6">
    <path d="M 50.836875 310.679219 
L 50.836875 10.999219 
" style="fill: none; stroke: #000000; stroke-width: 0.8; stroke-linejoin: miter; stroke-linecap: square"/>
   </g>
   <g id="patch_7">
    <path d="M 417.566875 310.679219 
L 417.566875 10.999219 
" style="fill: none; stroke: #000000; stroke-width: 0.8; stroke-linejoin: miter; stroke-linecap: square"/>
   </g>
   <g id="patch_8">
    <path d="M 50.836875 310.679219 
L 417.566875 310.679219 
" style="fill: none; stroke: #000000; stroke-width: 0.8; stroke-linejoin: miter; stroke-linecap: square"/>
   </g>
   <g id="patch_9">
    <path d="M 50.836875 10.999219 
L 417.566875 10.999219 
" style="fill: none; stroke: #000000; stroke-width: 0.8; stroke-linejoin: miter; stroke-linecap: square"/>
   </g>
   <g id="PathCollection_1">
    <defs>
     <path id="m2b0b173542" d="M 0 4.472136 
C 1.186024 4.472136 2.323632 4.000923 3.162278 3.162278 
C 4.000923 2.323632 4.472136 1.186024 4.472136 0 
C 4.472136 -1.186024 4.000923 -2.323632 3.162278 -3.162278 
C 2.323632 -4.000923 1.186024 -4.472136 0 -4.472136 
C -1.186024 -4.472136 -2.323632 -4.000923 -3.162278 -3.162278 
C -4.000923 -2.323632 -4.472136 -1.186024 -4.472136 0 
C -4.472136 1.186024 -4.000923 2.323632 -3.162278 3.162278 
C -2.323632 4.000923 -1.186024 4.472136 0 4.472136 
z
" style="stroke: #000000; stroke-width: 1.5"/>
    </defs>
    <g clip-path="url(#pab07fb0fd6)">
     <use xlink:href="#m2b0b173542" x="111.958542" y="156.789489" style="fill: #ffffff; stroke: #000000; stroke-width: 1.5"/>
     <use xlink:href="#m2b0b173542" x="234.201875" y="140.59057" style="fill: #ffffff; stroke: #000000; stroke-width: 1.5"/>
     <use xlink:href="#m2b0b173542" x="356.445208" y="128.441381" style="fill: #ffffff; stroke: #000000; stroke-width: 1.5"/>
    </g>
   </g>
  </g>
 </g>
 <defs>
  <clipPath id="pab07fb0fd6">
   <rect x="50.836875" y="10.999219" width="366.73" height="299.68"/>
  </clipPath>
 </defs>
</svg>
