<?xml version="1.0" encoding="utf-8" standalone="no"?>
<!DOCTYPE svg PUBLIC "-//W3C//DTD SVG 1.1//EN"
  "http://www.w3.org/Graphics/SVG/1.1/DTD/svg11.dtd">
<svg xmlns:xlink="http://www.w3.org/1999/xlink" width="424.766875pt" height="424.106719pt" viewBox="0 0 424.766875 424.106719" xmlns="http://www.w3.org/2000/svg" version="1.1">
 <metadata>
  <rdf:RDF xmlns:dc="http://purl.org/dc/elements/1.1/" xmlns:cc="http://creativecommons.org/ns#" xmlns:rdf="http://www.w3.org/1999/02/22-rdf-syntax-ns#">
   <cc:Work>
    <dc:type rdf:resource="http://purl.org/dc/dcmitype/StillImage"/>
    <dc:date>2024-04-17T11:51:14.235859</dc:date>
    <dc:format>image/svg+xml</dc:format>
    <dc:creator>
     <cc:Agent>
      <dc:title>Matplotlib v3.6.2, https://matplotlib.org/</dc:title>
     </cc:Agent>
    </dc:creator>
   </cc:Work>
  </rdf:RDF>
 </metadata>
 <defs>
  <style type="text/css">*{stroke-linejoin: round; stroke-linecap: butt}</style>
 </defs>
 <g id="figure_1">
  <g id="patch_1">
   <path d="M 0 424.106719 
L 424.766875 424.106719 
L 424.766875 0 
L 0 0 
z
" style="fill: #ffffff"/>
  </g>
  <g id="axes_1">
   <g id="patch_2">
    <path d="M 50.836875 382.679219 
L 417.566875 382.679219 
L 417.566875 10.999219 
L 50.836875 10.999219 
z
" style="fill: #ffffff"/>
   </g>
   <g id="matplotlib.axis_1">
    <g id="xtick_1">
     <g id="line2d_1">
      <defs>
       <path id="m5fa1cb3293" d="M 0 0 
L 0 3.5 
" style="stroke: #000000; stroke-width: 0.8"/>
      </defs>
      <g>
       <use xlink:href="#m5fa1cb3293" x="50.836875" y="382.679219" style="stroke: #000000; stroke-width: 0.8"/>
      </g>
     </g>
     <g id="text_1">
      <!-- 0 -->
      <g transform="translate(47.655625 397.277656) scale(0.1 -0.1)">
       <defs>
        <path id="DejaVuSans-30" d="M 2034 4250 
Q 1547 4250 1301 3770 
Q 1056 3291 1056 2328 
Q 1056 1369 1301 889 
Q 1547 409 2034 409 
Q 2525 409 2770 889 
Q 3016 1369 3016 2328 
Q 3016 3291 2770 3770 
Q 2525 4250 2034 4250 
z
M 2034 4750 
Q 2819 4750 3233 4129 
Q 3647 3509 3647 2328 
Q 3647 1150 3233 529 
Q 2819 -91 2034 -91 
Q 1250 -91 836 529 
Q 422 1150 422 2328 
Q 422 3509 836 4129 
Q 1250 4750 2034 4750 
z
" transform="scale(0.015625)"/>
       </defs>
       <use xlink:href="#DejaVuSans-30"/>
      </g>
     </g>
    </g>
    <g id="xtick_2">
     <g id="line2d_2">
      <g>
       <use xlink:href="#m5fa1cb3293" x="130.560788" y="382.679219" style="stroke: #000000; stroke-width: 0.8"/>
      </g>
     </g>
     <g id="text_2">
      <!-- 20 -->
      <g transform="translate(124.198288 397.277656) scale(0.1 -0.1)">
       <defs>
        <path id="DejaVuSans-32" d="M 1228 531 
L 3431 531 
L 3431 0 
L 469 0 
L 469 531 
Q 828 903 1448 1529 
Q 2069 2156 2228 2338 
Q 2531 2678 2651 2914 
Q 2772 3150 2772 3378 
Q 2772 3750 2511 3984 
Q 2250 4219 1831 4219 
Q 1534 4219 1204 4116 
Q 875 4013 500 3803 
L 500 4441 
Q 881 4594 1212 4672 
Q 1544 4750 1819 4750 
Q 2544 4750 2975 4387 
Q 3406 4025 3406 3419 
Q 3406 3131 3298 2873 
Q 3191 2616 2906 2266 
Q 2828 2175 2409 1742 
Q 1991 1309 1228 531 
z
" transform="scale(0.015625)"/>
       </defs>
       <use xlink:href="#DejaVuSans-32"/>
       <use xlink:href="#DejaVuSans-30" x="63.623047"/>
      </g>
     </g>
    </g>
    <g id="xtick_3">
     <g id="line2d_3">
      <g>
       <use xlink:href="#m5fa1cb3293" x="210.284701" y="382.679219" style="stroke: #000000; stroke-width: 0.8"/>
      </g>
     </g>
     <g id="text_3">
      <!-- 40 -->
      <g transform="translate(203.922201 397.277656) scale(0.1 -0.1)">
       <defs>
        <path id="DejaVuSans-34" d="M 2419 4116 
L 825 1625 
L 2419 1625 
L 2419 4116 
z
M 2253 4666 
L 3047 4666 
L 3047 1625 
L 3713 1625 
L 3713 1100 
L 3047 1100 
L 3047 0 
L 2419 0 
L 2419 1100 
L 313 1100 
L 313 1709 
L 2253 4666 
z
" transform="scale(0.015625)"/>
       </defs>
       <use xlink:href="#DejaVuSans-34"/>
       <use xlink:href="#DejaVuSans-30" x="63.623047"/>
      </g>
     </g>
    </g>
    <g id="xtick_4">
     <g id="line2d_4">
      <g>
       <use xlink:href="#m5fa1cb3293" x="290.008614" y="382.679219" style="stroke: #000000; stroke-width: 0.8"/>
      </g>
     </g>
     <g id="text_4">
      <!-- 60 -->
      <g transform="translate(283.646114 397.277656) scale(0.1 -0.1)">
       <defs>
        <path id="DejaVuSans-36" d="M 2113 2584 
Q 1688 2584 1439 2293 
Q 1191 2003 1191 1497 
Q 1191 994 1439 701 
Q 1688 409 2113 409 
Q 2538 409 2786 701 
Q 3034 994 3034 1497 
Q 3034 2003 2786 2293 
Q 2538 2584 2113 2584 
z
M 3366 4563 
L 3366 3988 
Q 3128 4100 2886 4159 
Q 2644 4219 2406 4219 
Q 1781 4219 1451 3797 
Q 1122 3375 1075 2522 
Q 1259 2794 1537 2939 
Q 1816 3084 2150 3084 
Q 2853 3084 3261 2657 
Q 3669 2231 3669 1497 
Q 3669 778 3244 343 
Q 2819 -91 2113 -91 
Q 1303 -91 875 529 
Q 447 1150 447 2328 
Q 447 3434 972 4092 
Q 1497 4750 2381 4750 
Q 2619 4750 2861 4703 
Q 3103 4656 3366 4563 
z
" transform="scale(0.015625)"/>
       </defs>
       <use xlink:href="#DejaVuSans-36"/>
       <use xlink:href="#DejaVuSans-30" x="63.623047"/>
      </g>
     </g>
    </g>
    <g id="xtick_5">
     <g id="line2d_5">
      <g>
       <use xlink:href="#m5fa1cb3293" x="369.732527" y="382.679219" style="stroke: #000000; stroke-width: 0.8"/>
      </g>
     </g>
     <g id="text_5">
      <!-- 80 -->
      <g transform="translate(363.370027 397.277656) scale(0.1 -0.1)">
       <defs>
        <path id="DejaVuSans-38" d="M 2034 2216 
Q 1584 2216 1326 1975 
Q 1069 1734 1069 1313 
Q 1069 891 1326 650 
Q 1584 409 2034 409 
Q 2484 409 2743 651 
Q 3003 894 3003 1313 
Q 3003 1734 2745 1975 
Q 2488 2216 2034 2216 
z
M 1403 2484 
Q 997 2584 770 2862 
Q 544 3141 544 3541 
Q 544 4100 942 4425 
Q 1341 4750 2034 4750 
Q 2731 4750 3128 4425 
Q 3525 4100 3525 3541 
Q 3525 3141 3298 2862 
Q 3072 2584 2669 2484 
Q 3125 2378 3379 2068 
Q 3634 1759 3634 1313 
Q 3634 634 3220 271 
Q 2806 -91 2034 -91 
Q 1263 -91 848 271 
Q 434 634 434 1313 
Q 434 1759 690 2068 
Q 947 2378 1403 2484 
z
M 1172 3481 
Q 1172 3119 1398 2916 
Q 1625 2713 2034 2713 
Q 2441 2713 2670 2916 
Q 2900 3119 2900 3481 
Q 2900 3844 2670 4047 
Q 2441 4250 2034 4250 
Q 1625 4250 1398 4047 
Q 1172 3844 1172 3481 
z
" transform="scale(0.015625)"/>
       </defs>
       <use xlink:href="#DejaVuSans-38"/>
       <use xlink:href="#DejaVuSans-30" x="63.623047"/>
      </g>
     </g>
    </g>
    <g id="text_6">
     <!-- Number of participants -->
     <g transform="translate(153.230469 413.995156) scale(0.14 -0.14)">
      <defs>
       <path id="DejaVuSans-4e" d="M 628 4666 
L 1478 4666 
L 3547 763 
L 3547 4666 
L 4159 4666 
L 4159 0 
L 3309 0 
L 1241 3903 
L 1241 0 
L 628 0 
L 628 4666 
z
" transform="scale(0.015625)"/>
       <path id="DejaVuSans-75" d="M 544 1381 
L 544 3500 
L 1119 3500 
L 1119 1403 
Q 1119 906 1312 657 
Q 1506 409 1894 409 
Q 2359 409 2629 706 
Q 2900 1003 2900 1516 
L 2900 3500 
L 3475 3500 
L 3475 0 
L 2900 0 
L 2900 538 
Q 2691 219 2414 64 
Q 2138 -91 1772 -91 
Q 1169 -91 856 284 
Q 544 659 544 1381 
z
M 1991 3584 
L 1991 3584 
z
" transform="scale(0.015625)"/>
       <path id="DejaVuSans-6d" d="M 3328 2828 
Q 3544 3216 3844 3400 
Q 4144 3584 4550 3584 
Q 5097 3584 5394 3201 
Q 5691 2819 5691 2113 
L 5691 0 
L 5113 0 
L 5113 2094 
Q 5113 2597 4934 2840 
Q 4756 3084 4391 3084 
Q 3944 3084 3684 2787 
Q 3425 2491 3425 1978 
L 3425 0 
L 2847 0 
L 2847 2094 
Q 2847 2600 2669 2842 
Q 2491 3084 2119 3084 
Q 1678 3084 1418 2786 
Q 1159 2488 1159 1978 
L 1159 0 
L 581 0 
L 581 3500 
L 1159 3500 
L 1159 2956 
Q 1356 3278 1631 3431 
Q 1906 3584 2284 3584 
Q 2666 3584 2933 3390 
Q 3200 3197 3328 2828 
z
" transform="scale(0.015625)"/>
       <path id="DejaVuSans-62" d="M 3116 1747 
Q 3116 2381 2855 2742 
Q 2594 3103 2138 3103 
Q 1681 3103 1420 2742 
Q 1159 2381 1159 1747 
Q 1159 1113 1420 752 
Q 1681 391 2138 391 
Q 2594 391 2855 752 
Q 3116 1113 3116 1747 
z
M 1159 2969 
Q 1341 3281 1617 3432 
Q 1894 3584 2278 3584 
Q 2916 3584 3314 3078 
Q 3713 2572 3713 1747 
Q 3713 922 3314 415 
Q 2916 -91 2278 -91 
Q 1894 -91 1617 61 
Q 1341 213 1159 525 
L 1159 0 
L 581 0 
L 581 4863 
L 1159 4863 
L 1159 2969 
z
" transform="scale(0.015625)"/>
       <path id="DejaVuSans-65" d="M 3597 1894 
L 3597 1613 
L 953 1613 
Q 991 1019 1311 708 
Q 1631 397 2203 397 
Q 2534 397 2845 478 
Q 3156 559 3463 722 
L 3463 178 
Q 3153 47 2828 -22 
Q 2503 -91 2169 -91 
Q 1331 -91 842 396 
Q 353 884 353 1716 
Q 353 2575 817 3079 
Q 1281 3584 2069 3584 
Q 2775 3584 3186 3129 
Q 3597 2675 3597 1894 
z
M 3022 2063 
Q 3016 2534 2758 2815 
Q 2500 3097 2075 3097 
Q 1594 3097 1305 2825 
Q 1016 2553 972 2059 
L 3022 2063 
z
" transform="scale(0.015625)"/>
       <path id="DejaVuSans-72" d="M 2631 2963 
Q 2534 3019 2420 3045 
Q 2306 3072 2169 3072 
Q 1681 3072 1420 2755 
Q 1159 2438 1159 1844 
L 1159 0 
L 581 0 
L 581 3500 
L 1159 3500 
L 1159 2956 
Q 1341 3275 1631 3429 
Q 1922 3584 2338 3584 
Q 2397 3584 2469 3576 
Q 2541 3569 2628 3553 
L 2631 2963 
z
" transform="scale(0.015625)"/>
       <path id="DejaVuSans-20" transform="scale(0.015625)"/>
       <path id="DejaVuSans-6f" d="M 1959 3097 
Q 1497 3097 1228 2736 
Q 959 2375 959 1747 
Q 959 1119 1226 758 
Q 1494 397 1959 397 
Q 2419 397 2687 759 
Q 2956 1122 2956 1747 
Q 2956 2369 2687 2733 
Q 2419 3097 1959 3097 
z
M 1959 3584 
Q 2709 3584 3137 3096 
Q 3566 2609 3566 1747 
Q 3566 888 3137 398 
Q 2709 -91 1959 -91 
Q 1206 -91 779 398 
Q 353 888 353 1747 
Q 353 2609 779 3096 
Q 1206 3584 1959 3584 
z
" transform="scale(0.015625)"/>
       <path id="DejaVuSans-66" d="M 2375 4863 
L 2375 4384 
L 1825 4384 
Q 1516 4384 1395 4259 
Q 1275 4134 1275 3809 
L 1275 3500 
L 2222 3500 
L 2222 3053 
L 1275 3053 
L 1275 0 
L 697 0 
L 697 3053 
L 147 3053 
L 147 3500 
L 697 3500 
L 697 3744 
Q 697 4328 969 4595 
Q 1241 4863 1831 4863 
L 2375 4863 
z
" transform="scale(0.015625)"/>
       <path id="DejaVuSans-70" d="M 1159 525 
L 1159 -1331 
L 581 -1331 
L 581 3500 
L 1159 3500 
L 1159 2969 
Q 1341 3281 1617 3432 
Q 1894 3584 2278 3584 
Q 2916 3584 3314 3078 
Q 3713 2572 3713 1747 
Q 3713 922 3314 415 
Q 2916 -91 2278 -91 
Q 1894 -91 1617 61 
Q 1341 213 1159 525 
z
M 3116 1747 
Q 3116 2381 2855 2742 
Q 2594 3103 2138 3103 
Q 1681 3103 1420 2742 
Q 1159 2381 1159 1747 
Q 1159 1113 1420 752 
Q 1681 391 2138 391 
Q 2594 391 2855 752 
Q 3116 1113 3116 1747 
z
" transform="scale(0.015625)"/>
       <path id="DejaVuSans-61" d="M 2194 1759 
Q 1497 1759 1228 1600 
Q 959 1441 959 1056 
Q 959 750 1161 570 
Q 1363 391 1709 391 
Q 2188 391 2477 730 
Q 2766 1069 2766 1631 
L 2766 1759 
L 2194 1759 
z
M 3341 1997 
L 3341 0 
L 2766 0 
L 2766 531 
Q 2569 213 2275 61 
Q 1981 -91 1556 -91 
Q 1019 -91 701 211 
Q 384 513 384 1019 
Q 384 1609 779 1909 
Q 1175 2209 1959 2209 
L 2766 2209 
L 2766 2266 
Q 2766 2663 2505 2880 
Q 2244 3097 1772 3097 
Q 1472 3097 1187 3025 
Q 903 2953 641 2809 
L 641 3341 
Q 956 3463 1253 3523 
Q 1550 3584 1831 3584 
Q 2591 3584 2966 3190 
Q 3341 2797 3341 1997 
z
" transform="scale(0.015625)"/>
       <path id="DejaVuSans-74" d="M 1172 4494 
L 1172 3500 
L 2356 3500 
L 2356 3053 
L 1172 3053 
L 1172 1153 
Q 1172 725 1289 603 
Q 1406 481 1766 481 
L 2356 481 
L 2356 0 
L 1766 0 
Q 1100 0 847 248 
Q 594 497 594 1153 
L 594 3053 
L 172 3053 
L 172 3500 
L 594 3500 
L 594 4494 
L 1172 4494 
z
" transform="scale(0.015625)"/>
       <path id="DejaVuSans-69" d="M 603 3500 
L 1178 3500 
L 1178 0 
L 603 0 
L 603 3500 
z
M 603 4863 
L 1178 4863 
L 1178 4134 
L 603 4134 
L 603 4863 
z
" transform="scale(0.015625)"/>
       <path id="DejaVuSans-63" d="M 3122 3366 
L 3122 2828 
Q 2878 2963 2633 3030 
Q 2388 3097 2138 3097 
Q 1578 3097 1268 2742 
Q 959 2388 959 1747 
Q 959 1106 1268 751 
Q 1578 397 2138 397 
Q 2388 397 2633 464 
Q 2878 531 3122 666 
L 3122 134 
Q 2881 22 2623 -34 
Q 2366 -91 2075 -91 
Q 1284 -91 818 406 
Q 353 903 353 1747 
Q 353 2603 823 3093 
Q 1294 3584 2113 3584 
Q 2378 3584 2631 3529 
Q 2884 3475 3122 3366 
z
" transform="scale(0.015625)"/>
       <path id="DejaVuSans-6e" d="M 3513 2113 
L 3513 0 
L 2938 0 
L 2938 2094 
Q 2938 2591 2744 2837 
Q 2550 3084 2163 3084 
Q 1697 3084 1428 2787 
Q 1159 2491 1159 1978 
L 1159 0 
L 581 0 
L 581 3500 
L 1159 3500 
L 1159 2956 
Q 1366 3272 1645 3428 
Q 1925 3584 2291 3584 
Q 2894 3584 3203 3211 
Q 3513 2838 3513 2113 
z
" transform="scale(0.015625)"/>
       <path id="DejaVuSans-73" d="M 2834 3397 
L 2834 2853 
Q 2591 2978 2328 3040 
Q 2066 3103 1784 3103 
Q 1356 3103 1142 2972 
Q 928 2841 928 2578 
Q 928 2378 1081 2264 
Q 1234 2150 1697 2047 
L 1894 2003 
Q 2506 1872 2764 1633 
Q 3022 1394 3022 966 
Q 3022 478 2636 193 
Q 2250 -91 1575 -91 
Q 1294 -91 989 -36 
Q 684 19 347 128 
L 347 722 
Q 666 556 975 473 
Q 1284 391 1588 391 
Q 1994 391 2212 530 
Q 2431 669 2431 922 
Q 2431 1156 2273 1281 
Q 2116 1406 1581 1522 
L 1381 1569 
Q 847 1681 609 1914 
Q 372 2147 372 2553 
Q 372 3047 722 3315 
Q 1072 3584 1716 3584 
Q 2034 3584 2315 3537 
Q 2597 3491 2834 3397 
z
" transform="scale(0.015625)"/>
      </defs>
      <use xlink:href="#DejaVuSans-4e"/>
      <use xlink:href="#DejaVuSans-75" x="74.804688"/>
      <use xlink:href="#DejaVuSans-6d" x="138.183594"/>
      <use xlink:href="#DejaVuSans-62" x="235.595703"/>
      <use xlink:href="#DejaVuSans-65" x="299.072266"/>
      <use xlink:href="#DejaVuSans-72" x="360.595703"/>
      <use xlink:href="#DejaVuSans-20" x="401.708984"/>
      <use xlink:href="#DejaVuSans-6f" x="433.496094"/>
      <use xlink:href="#DejaVuSans-66" x="494.677734"/>
      <use xlink:href="#DejaVuSans-20" x="529.882812"/>
      <use xlink:href="#DejaVuSans-70" x="561.669922"/>
      <use xlink:href="#DejaVuSans-61" x="625.146484"/>
      <use xlink:href="#DejaVuSans-72" x="686.425781"/>
      <use xlink:href="#DejaVuSans-74" x="727.539062"/>
      <use xlink:href="#DejaVuSans-69" x="766.748047"/>
      <use xlink:href="#DejaVuSans-63" x="794.53125"/>
      <use xlink:href="#DejaVuSans-69" x="849.511719"/>
      <use xlink:href="#DejaVuSans-70" x="877.294922"/>
      <use xlink:href="#DejaVuSans-61" x="940.771484"/>
      <use xlink:href="#DejaVuSans-6e" x="1002.050781"/>
      <use xlink:href="#DejaVuSans-74" x="1065.429688"/>
      <use xlink:href="#DejaVuSans-73" x="1104.638672"/>
     </g>
    </g>
   </g>
   <g id="matplotlib.axis_2">
    <g id="ytick_1">
     <g id="line2d_6">
      <path d="M 50.836875 382.679219 
L 417.566875 382.679219 
" clip-path="url(#p1332e1d0e8)" style="fill: none; stroke-dasharray: 2.96,1.28; stroke-dashoffset: 0; stroke: #c0c0c0; stroke-width: 0.8"/>
     </g>
     <g id="line2d_7">
      <defs>
       <path id="m0bb1167078" d="M 0 0 
L -3.5 0 
" style="stroke: #000000; stroke-width: 0.8"/>
      </defs>
      <g>
       <use xlink:href="#m0bb1167078" x="50.836875" y="382.679219" style="stroke: #000000; stroke-width: 0.8"/>
      </g>
     </g>
     <g id="text_7">
      <!-- 20 -->
      <g transform="translate(31.111875 386.478437) scale(0.1 -0.1)">
       <use xlink:href="#DejaVuSans-32"/>
       <use xlink:href="#DejaVuSans-30" x="63.623047"/>
      </g>
     </g>
    </g>
    <g id="ytick_2">
     <g id="line2d_8">
      <path d="M 50.836875 336.219219 
L 417.566875 336.219219 
" clip-path="url(#p1332e1d0e8)" style="fill: none; stroke-dasharray: 2.96,1.28; stroke-dashoffset: 0; stroke: #c0c0c0; stroke-width: 0.8"/>
     </g>
     <g id="line2d_9">
      <g>
       <use xlink:href="#m0bb1167078" x="50.836875" y="336.219219" style="stroke: #000000; stroke-width: 0.8"/>
      </g>
     </g>
     <g id="text_8">
      <!-- 30 -->
      <g transform="translate(31.111875 340.018437) scale(0.1 -0.1)">
       <defs>
        <path id="DejaVuSans-33" d="M 2597 2516 
Q 3050 2419 3304 2112 
Q 3559 1806 3559 1356 
Q 3559 666 3084 287 
Q 2609 -91 1734 -91 
Q 1441 -91 1130 -33 
Q 819 25 488 141 
L 488 750 
Q 750 597 1062 519 
Q 1375 441 1716 441 
Q 2309 441 2620 675 
Q 2931 909 2931 1356 
Q 2931 1769 2642 2001 
Q 2353 2234 1838 2234 
L 1294 2234 
L 1294 2753 
L 1863 2753 
Q 2328 2753 2575 2939 
Q 2822 3125 2822 3475 
Q 2822 3834 2567 4026 
Q 2313 4219 1838 4219 
Q 1578 4219 1281 4162 
Q 984 4106 628 3988 
L 628 4550 
Q 988 4650 1302 4700 
Q 1616 4750 1894 4750 
Q 2613 4750 3031 4423 
Q 3450 4097 3450 3541 
Q 3450 3153 3228 2886 
Q 3006 2619 2597 2516 
z
" transform="scale(0.015625)"/>
       </defs>
       <use xlink:href="#DejaVuSans-33"/>
       <use xlink:href="#DejaVuSans-30" x="63.623047"/>
      </g>
     </g>
    </g>
    <g id="ytick_3">
     <g id="line2d_10">
      <path d="M 50.836875 289.759219 
L 417.566875 289.759219 
" clip-path="url(#p1332e1d0e8)" style="fill: none; stroke-dasharray: 2.96,1.28; stroke-dashoffset: 0; stroke: #c0c0c0; stroke-width: 0.8"/>
     </g>
     <g id="line2d_11">
      <g>
       <use xlink:href="#m0bb1167078" x="50.836875" y="289.759219" style="stroke: #000000; stroke-width: 0.8"/>
      </g>
     </g>
     <g id="text_9">
      <!-- 40 -->
      <g transform="translate(31.111875 293.558437) scale(0.1 -0.1)">
       <use xlink:href="#DejaVuSans-34"/>
       <use xlink:href="#DejaVuSans-30" x="63.623047"/>
      </g>
     </g>
    </g>
    <g id="ytick_4">
     <g id="line2d_12">
      <path d="M 50.836875 243.299219 
L 417.566875 243.299219 
" clip-path="url(#p1332e1d0e8)" style="fill: none; stroke-dasharray: 2.96,1.28; stroke-dashoffset: 0; stroke: #c0c0c0; stroke-width: 0.8"/>
     </g>
     <g id="line2d_13">
      <g>
       <use xlink:href="#m0bb1167078" x="50.836875" y="243.299219" style="stroke: #000000; stroke-width: 0.8"/>
      </g>
     </g>
     <g id="text_10">
      <!-- 50 -->
      <g transform="translate(31.111875 247.098437) scale(0.1 -0.1)">
       <defs>
        <path id="DejaVuSans-35" d="M 691 4666 
L 3169 4666 
L 3169 4134 
L 1269 4134 
L 1269 2991 
Q 1406 3038 1543 3061 
Q 1681 3084 1819 3084 
Q 2600 3084 3056 2656 
Q 3513 2228 3513 1497 
Q 3513 744 3044 326 
Q 2575 -91 1722 -91 
Q 1428 -91 1123 -41 
Q 819 9 494 109 
L 494 744 
Q 775 591 1075 516 
Q 1375 441 1709 441 
Q 2250 441 2565 725 
Q 2881 1009 2881 1497 
Q 2881 1984 2565 2268 
Q 2250 2553 1709 2553 
Q 1456 2553 1204 2497 
Q 953 2441 691 2322 
L 691 4666 
z
" transform="scale(0.015625)"/>
       </defs>
       <use xlink:href="#DejaVuSans-35"/>
       <use xlink:href="#DejaVuSans-30" x="63.623047"/>
      </g>
     </g>
    </g>
    <g id="ytick_5">
     <g id="line2d_14">
      <path d="M 50.836875 196.839219 
L 417.566875 196.839219 
" clip-path="url(#p1332e1d0e8)" style="fill: none; stroke-dasharray: 2.96,1.28; stroke-dashoffset: 0; stroke: #c0c0c0; stroke-width: 0.8"/>
     </g>
     <g id="line2d_15">
      <g>
       <use xlink:href="#m0bb1167078" x="50.836875" y="196.839219" style="stroke: #000000; stroke-width: 0.8"/>
      </g>
     </g>
     <g id="text_11">
      <!-- 60 -->
      <g transform="translate(31.111875 200.638437) scale(0.1 -0.1)">
       <use xlink:href="#DejaVuSans-36"/>
       <use xlink:href="#DejaVuSans-30" x="63.623047"/>
      </g>
     </g>
    </g>
    <g id="ytick_6">
     <g id="line2d_16">
      <path d="M 50.836875 150.379219 
L 417.566875 150.379219 
" clip-path="url(#p1332e1d0e8)" style="fill: none; stroke-dasharray: 2.96,1.28; stroke-dashoffset: 0; stroke: #c0c0c0; stroke-width: 0.8"/>
     </g>
     <g id="line2d_17">
      <g>
       <use xlink:href="#m0bb1167078" x="50.836875" y="150.379219" style="stroke: #000000; stroke-width: 0.8"/>
      </g>
     </g>
     <g id="text_12">
      <!-- 70 -->
      <g transform="translate(31.111875 154.178438) scale(0.1 -0.1)">
       <defs>
        <path id="DejaVuSans-37" d="M 525 4666 
L 3525 4666 
L 3525 4397 
L 1831 0 
L 1172 0 
L 2766 4134 
L 525 4134 
L 525 4666 
z
" transform="scale(0.015625)"/>
       </defs>
       <use xlink:href="#DejaVuSans-37"/>
       <use xlink:href="#DejaVuSans-30" x="63.623047"/>
      </g>
     </g>
    </g>
    <g id="ytick_7">
     <g id="line2d_18">
      <path d="M 50.836875 103.919219 
L 417.566875 103.919219 
" clip-path="url(#p1332e1d0e8)" style="fill: none; stroke-dasharray: 2.96,1.28; stroke-dashoffset: 0; stroke: #c0c0c0; stroke-width: 0.8"/>
     </g>
     <g id="line2d_19">
      <g>
       <use xlink:href="#m0bb1167078" x="50.836875" y="103.919219" style="stroke: #000000; stroke-width: 0.8"/>
      </g>
     </g>
     <g id="text_13">
      <!-- 80 -->
      <g transform="translate(31.111875 107.718437) scale(0.1 -0.1)">
       <use xlink:href="#DejaVuSans-38"/>
       <use xlink:href="#DejaVuSans-30" x="63.623047"/>
      </g>
     </g>
    </g>
    <g id="ytick_8">
     <g id="line2d_20">
      <path d="M 50.836875 57.459219 
L 417.566875 57.459219 
" clip-path="url(#p1332e1d0e8)" style="fill: none; stroke-dasharray: 2.96,1.28; stroke-dashoffset: 0; stroke: #c0c0c0; stroke-width: 0.8"/>
     </g>
     <g id="line2d_21">
      <g>
       <use xlink:href="#m0bb1167078" x="50.836875" y="57.459219" style="stroke: #000000; stroke-width: 0.8"/>
      </g>
     </g>
     <g id="text_14">
      <!-- 90 -->
      <g transform="translate(31.111875 61.258438) scale(0.1 -0.1)">
       <defs>
        <path id="DejaVuSans-39" d="M 703 97 
L 703 672 
Q 941 559 1184 500 
Q 1428 441 1663 441 
Q 2288 441 2617 861 
Q 2947 1281 2994 2138 
Q 2813 1869 2534 1725 
Q 2256 1581 1919 1581 
Q 1219 1581 811 2004 
Q 403 2428 403 3163 
Q 403 3881 828 4315 
Q 1253 4750 1959 4750 
Q 2769 4750 3195 4129 
Q 3622 3509 3622 2328 
Q 3622 1225 3098 567 
Q 2575 -91 1691 -91 
Q 1453 -91 1209 -44 
Q 966 3 703 97 
z
M 1959 2075 
Q 2384 2075 2632 2365 
Q 2881 2656 2881 3163 
Q 2881 3666 2632 3958 
Q 2384 4250 1959 4250 
Q 1534 4250 1286 3958 
Q 1038 3666 1038 3163 
Q 1038 2656 1286 2365 
Q 1534 2075 1959 2075 
z
" transform="scale(0.015625)"/>
       </defs>
       <use xlink:href="#DejaVuSans-39"/>
       <use xlink:href="#DejaVuSans-30" x="63.623047"/>
      </g>
     </g>
    </g>
    <g id="ytick_9">
     <g id="line2d_22">
      <path d="M 50.836875 10.999219 
L 417.566875 10.999219 
" clip-path="url(#p1332e1d0e8)" style="fill: none; stroke-dasharray: 2.96,1.28; stroke-dashoffset: 0; stroke: #c0c0c0; stroke-width: 0.8"/>
     </g>
     <g id="line2d_23">
      <g>
       <use xlink:href="#m0bb1167078" x="50.836875" y="10.999219" style="stroke: #000000; stroke-width: 0.8"/>
      </g>
     </g>
     <g id="text_15">
      <!-- 100 -->
      <g transform="translate(24.749375 14.798438) scale(0.1 -0.1)">
       <defs>
        <path id="DejaVuSans-31" d="M 794 531 
L 1825 531 
L 1825 4091 
L 703 3866 
L 703 4441 
L 1819 4666 
L 2450 4666 
L 2450 531 
L 3481 531 
L 3481 0 
L 794 0 
L 794 531 
z
" transform="scale(0.015625)"/>
       </defs>
       <use xlink:href="#DejaVuSans-31"/>
       <use xlink:href="#DejaVuSans-30" x="63.623047"/>
       <use xlink:href="#DejaVuSans-30" x="127.246094"/>
      </g>
     </g>
    </g>
    <g id="text_16">
     <!-- Success Rate (%) -->
     <g transform="translate(17.837812 257.627656) rotate(-90) scale(0.14 -0.14)">
      <defs>
       <path id="DejaVuSans-53" d="M 3425 4513 
L 3425 3897 
Q 3066 4069 2747 4153 
Q 2428 4238 2131 4238 
Q 1616 4238 1336 4038 
Q 1056 3838 1056 3469 
Q 1056 3159 1242 3001 
Q 1428 2844 1947 2747 
L 2328 2669 
Q 3034 2534 3370 2195 
Q 3706 1856 3706 1288 
Q 3706 609 3251 259 
Q 2797 -91 1919 -91 
Q 1588 -91 1214 -16 
Q 841 59 441 206 
L 441 856 
Q 825 641 1194 531 
Q 1563 422 1919 422 
Q 2459 422 2753 634 
Q 3047 847 3047 1241 
Q 3047 1584 2836 1778 
Q 2625 1972 2144 2069 
L 1759 2144 
Q 1053 2284 737 2584 
Q 422 2884 422 3419 
Q 422 4038 858 4394 
Q 1294 4750 2059 4750 
Q 2388 4750 2728 4690 
Q 3069 4631 3425 4513 
z
" transform="scale(0.015625)"/>
       <path id="DejaVuSans-52" d="M 2841 2188 
Q 3044 2119 3236 1894 
Q 3428 1669 3622 1275 
L 4263 0 
L 3584 0 
L 2988 1197 
Q 2756 1666 2539 1819 
Q 2322 1972 1947 1972 
L 1259 1972 
L 1259 0 
L 628 0 
L 628 4666 
L 2053 4666 
Q 2853 4666 3247 4331 
Q 3641 3997 3641 3322 
Q 3641 2881 3436 2590 
Q 3231 2300 2841 2188 
z
M 1259 4147 
L 1259 2491 
L 2053 2491 
Q 2509 2491 2742 2702 
Q 2975 2913 2975 3322 
Q 2975 3731 2742 3939 
Q 2509 4147 2053 4147 
L 1259 4147 
z
" transform="scale(0.015625)"/>
       <path id="DejaVuSans-28" d="M 1984 4856 
Q 1566 4138 1362 3434 
Q 1159 2731 1159 2009 
Q 1159 1288 1364 580 
Q 1569 -128 1984 -844 
L 1484 -844 
Q 1016 -109 783 600 
Q 550 1309 550 2009 
Q 550 2706 781 3412 
Q 1013 4119 1484 4856 
L 1984 4856 
z
" transform="scale(0.015625)"/>
       <path id="DejaVuSans-25" d="M 4653 2053 
Q 4381 2053 4226 1822 
Q 4072 1591 4072 1178 
Q 4072 772 4226 539 
Q 4381 306 4653 306 
Q 4919 306 5073 539 
Q 5228 772 5228 1178 
Q 5228 1588 5073 1820 
Q 4919 2053 4653 2053 
z
M 4653 2450 
Q 5147 2450 5437 2106 
Q 5728 1763 5728 1178 
Q 5728 594 5436 251 
Q 5144 -91 4653 -91 
Q 4153 -91 3862 251 
Q 3572 594 3572 1178 
Q 3572 1766 3864 2108 
Q 4156 2450 4653 2450 
z
M 1428 4353 
Q 1159 4353 1004 4120 
Q 850 3888 850 3481 
Q 850 3069 1003 2837 
Q 1156 2606 1428 2606 
Q 1700 2606 1854 2837 
Q 2009 3069 2009 3481 
Q 2009 3884 1853 4118 
Q 1697 4353 1428 4353 
z
M 4250 4750 
L 4750 4750 
L 1831 -91 
L 1331 -91 
L 4250 4750 
z
M 1428 4750 
Q 1922 4750 2215 4408 
Q 2509 4066 2509 3481 
Q 2509 2891 2217 2550 
Q 1925 2209 1428 2209 
Q 931 2209 642 2551 
Q 353 2894 353 3481 
Q 353 4063 643 4406 
Q 934 4750 1428 4750 
z
" transform="scale(0.015625)"/>
       <path id="DejaVuSans-29" d="M 513 4856 
L 1013 4856 
Q 1481 4119 1714 3412 
Q 1947 2706 1947 2009 
Q 1947 1309 1714 600 
Q 1481 -109 1013 -844 
L 513 -844 
Q 928 -128 1133 580 
Q 1338 1288 1338 2009 
Q 1338 2731 1133 3434 
Q 928 4138 513 4856 
z
" transform="scale(0.015625)"/>
      </defs>
      <use xlink:href="#DejaVuSans-53"/>
      <use xlink:href="#DejaVuSans-75" x="63.476562"/>
      <use xlink:href="#DejaVuSans-63" x="126.855469"/>
      <use xlink:href="#DejaVuSans-63" x="181.835938"/>
      <use xlink:href="#DejaVuSans-65" x="236.816406"/>
      <use xlink:href="#DejaVuSans-73" x="298.339844"/>
      <use xlink:href="#DejaVuSans-73" x="350.439453"/>
      <use xlink:href="#DejaVuSans-20" x="402.539062"/>
      <use xlink:href="#DejaVuSans-52" x="434.326172"/>
      <use xlink:href="#DejaVuSans-61" x="501.558594"/>
      <use xlink:href="#DejaVuSans-74" x="562.837891"/>
      <use xlink:href="#DejaVuSans-65" x="602.046875"/>
      <use xlink:href="#DejaVuSans-20" x="663.570312"/>
      <use xlink:href="#DejaVuSans-28" x="695.357422"/>
      <use xlink:href="#DejaVuSans-25" x="734.371094"/>
      <use xlink:href="#DejaVuSans-29" x="829.390625"/>
     </g>
    </g>
   </g>
   <g id="PolyCollection_1">
    <defs>
     <path id="md6aeadc381" d="M 50.836875 -124.1263 
L 50.836875 -124.1263 
L 54.823071 -117.950691 
L 58.809266 -117.006396 
L 62.795462 -122.76188 
L 66.781658 -129.90331 
L 70.767853 -136.335826 
L 74.754049 -140.869335 
L 78.740245 -143.51757 
L 82.72644 -145.83628 
L 86.712636 -147.185006 
L 90.698832 -148.362508 
L 94.685027 -153.621489 
L 98.671223 -158.867615 
L 102.657418 -158.436358 
L 106.643614 -157.39492 
L 110.62981 -159.352166 
L 114.616005 -161.717899 
L 118.602201 -161.84681 
L 122.588397 -161.115317 
L 126.574592 -163.0591 
L 130.560788 -163.830805 
L 134.546984 -163.834628 
L 138.533179 -165.426025 
L 142.519375 -166.013074 
L 146.505571 -166.053255 
L 150.491766 -166.061161 
L 154.477962 -166.209001 
L 158.464158 -165.277116 
L 162.450353 -164.363258 
L 166.436549 -165.953077 
L 170.422745 -167.684586 
L 174.40894 -165.981661 
L 178.395136 -163.156126 
L 182.381332 -161.995501 
L 186.367527 -163.508172 
L 190.353723 -166.815484 
L 194.339918 -168.102435 
L 198.326114 -167.333396 
L 202.31231 -167.362638 
L 206.298505 -167.16158 
L 210.284701 -166.339001 
L 214.270897 -166.353666 
L 218.257092 -166.181004 
L 222.243288 -164.996 
L 226.229484 -164.503194 
L 230.215679 -164.978051 
L 234.201875 -164.713476 
L 238.188071 -163.392789 
L 242.174266 -162.02748 
L 246.160462 -161.054335 
L 250.146658 -159.611107 
L 254.132853 -156.820218 
L 258.119049 -152.912193 
L 262.105245 -150.165263 
L 266.09144 -149.397664 
L 270.077636 -149.388614 
L 274.063832 -149.412847 
L 278.050027 -149.415517 
L 282.036223 -149.415608 
L 286.022418 -149.415608 
L 290.008614 -149.415608 
L 293.99481 -149.415608 
L 297.981005 -149.415608 
L 301.967201 -149.415608 
L 305.953397 -149.415608 
L 309.939592 -149.415608 
L 313.925788 -149.415608 
L 317.911984 -149.415608 
L 321.898179 -149.415608 
L 325.884375 -149.415608 
L 329.870571 -149.415608 
L 333.856766 -149.415608 
L 337.842962 -149.415608 
L 341.829158 -149.415608 
L 345.815353 -149.415608 
L 349.801549 -149.415608 
L 353.787745 -149.415608 
L 357.77394 -149.415608 
L 361.760136 -149.415608 
L 365.746332 -149.415608 
L 369.732527 -149.415608 
L 373.718723 -149.415608 
L 377.704918 -149.415608 
L 381.691114 -149.415608 
L 385.67731 -149.415608 
L 389.663505 -149.415608 
L 393.649701 -149.415608 
L 397.635897 -149.415608 
L 401.622092 -149.415608 
L 405.608288 -149.415608 
L 409.594484 -149.415608 
L 413.580679 -149.415608 
L 417.566875 -149.415608 
L 421.553071 -149.415608 
L 421.553071 -149.415608 
L 421.553071 -149.415608 
L 417.566875 -149.415608 
L 413.580679 -149.415608 
L 409.594484 -149.415608 
L 405.608288 -149.415608 
L 401.622092 -149.415608 
L 397.635897 -149.415608 
L 393.649701 -149.415608 
L 389.663505 -149.415608 
L 385.67731 -149.415608 
L 381.691114 -149.415608 
L 377.704918 -149.415608 
L 373.718723 -149.415608 
L 369.732527 -149.415608 
L 365.746332 -149.415608 
L 361.760136 -149.415608 
L 357.77394 -149.415608 
L 353.787745 -149.415608 
L 349.801549 -149.415608 
L 345.815353 -149.415608 
L 341.829158 -149.415608 
L 337.842962 -149.415608 
L 333.856766 -149.415608 
L 329.870571 -149.415608 
L 325.884375 -149.415608 
L 321.898179 -149.415608 
L 317.911984 -149.415608 
L 313.925788 -149.415608 
L 309.939592 -149.415608 
L 305.953397 -149.415608 
L 301.967201 -149.415608 
L 297.981005 -149.415608 
L 293.99481 -149.415608 
L 290.008614 -149.415608 
L 286.022418 -149.415608 
L 282.036223 -149.415608 
L 278.050027 -149.415257 
L 274.063832 -149.403859 
L 270.077636 -149.270186 
L 266.09144 -148.741804 
L 262.105245 -148.28857 
L 258.119049 -149.15238 
L 254.132853 -150.822435 
L 250.146658 -152.051328 
L 246.160462 -152.678747 
L 242.174266 -152.891721 
L 238.188071 -153.597266 
L 234.201875 -154.601279 
L 230.215679 -154.96345 
L 226.229484 -154.542329 
L 222.243288 -154.29533 
L 218.257092 -154.659768 
L 214.270897 -154.63126 
L 210.284701 -154.655437 
L 206.298505 -155.360334 
L 202.31231 -155.306735 
L 198.326114 -154.875707 
L 194.339918 -155.671836 
L 190.353723 -154.662558 
L 186.367527 -151.989157 
L 182.381332 -150.301602 
L 178.395136 -150.332631 
L 174.40894 -152.753736 
L 170.422745 -154.390866 
L 166.436549 -152.345299 
L 162.450353 -150.640084 
L 158.464158 -151.656912 
L 154.477962 -153.160964 
L 150.491766 -153.508573 
L 146.505571 -153.456781 
L 142.519375 -153.400527 
L 138.533179 -152.141271 
L 134.546984 -149.091992 
L 130.560788 -148.148414 
L 126.574592 -146.920069 
L 122.588397 -144.524106 
L 118.602201 -146.361338 
L 114.616005 -147.174202 
L 110.62981 -143.209114 
L 106.643614 -139.405762 
L 102.657418 -140.405904 
L 98.671223 -142.50478 
L 94.685027 -137.555136 
L 90.698832 -130.899735 
L 86.712636 -128.501376 
L 82.72644 -126.511322 
L 78.740245 -124.463288 
L 74.754049 -124.944878 
L 70.767853 -124.156599 
L 66.781658 -117.274579 
L 62.795462 -105.603473 
L 58.809266 -100.6666 
L 54.823071 -108.777962 
L 50.836875 -124.1263 
z
" style="stroke: #8e0052; stroke-opacity: 0.1"/>
    </defs>
    <g clip-path="url(#p1332e1d0e8)">
     <use xlink:href="#md6aeadc381" x="0" y="424.106719" style="fill: #8e0052; fill-opacity: 0.1; stroke: #8e0052; stroke-opacity: 0.1"/>
    </g>
   </g>
   <g id="PolyCollection_2">
    <defs>
     <path id="m57a8b225b3" d="M 50.836875 -174.3031 
L 50.836875 -174.3031 
L 54.823071 -177.979146 
L 58.809266 -185.461344 
L 62.795462 -196.762141 
L 66.781658 -205.386951 
L 70.767853 -210.291214 
L 74.754049 -211.879729 
L 78.740245 -209.397444 
L 82.72644 -208.423856 
L 86.712636 -212.966118 
L 90.698832 -216.473801 
L 94.685027 -218.214346 
L 98.671223 -219.666053 
L 102.657418 -221.693929 
L 106.643614 -224.333829 
L 110.62981 -225.692339 
L 114.616005 -225.808894 
L 118.602201 -225.528405 
L 122.588397 -224.98543 
L 126.574592 -224.272695 
L 130.560788 -223.381405 
L 134.546984 -224.815566 
L 138.533179 -227.031936 
L 142.519375 -226.987715 
L 146.505571 -226.992698 
L 150.491766 -227.192186 
L 154.477962 -226.358198 
L 158.464158 -225.606648 
L 162.450353 -225.437368 
L 166.436549 -225.525012 
L 170.422745 -226.211888 
L 174.40894 -226.572919 
L 178.395136 -226.890471 
L 182.381332 -227.171497 
L 186.367527 -227.105177 
L 190.353723 -227.083879 
L 194.339918 -227.799322 
L 198.326114 -229.035501 
L 202.31231 -230.255283 
L 206.298505 -230.888035 
L 210.284701 -231.02325 
L 214.270897 -231.034199 
L 218.257092 -231.034527 
L 222.243288 -231.034527 
L 226.229484 -231.034527 
L 230.215679 -231.034527 
L 234.201875 -231.034527 
L 238.188071 -231.034527 
L 242.174266 -231.034527 
L 246.160462 -231.034527 
L 250.146658 -231.034527 
L 254.132853 -231.034527 
L 258.119049 -231.034527 
L 262.105245 -231.034527 
L 266.09144 -231.034527 
L 270.077636 -231.034527 
L 274.063832 -231.034527 
L 278.050027 -231.034527 
L 282.036223 -231.034527 
L 286.022418 -231.034527 
L 290.008614 -231.034527 
L 293.99481 -231.034527 
L 297.981005 -231.034527 
L 301.967201 -231.034527 
L 305.953397 -231.034527 
L 309.939592 -231.034527 
L 313.925788 -231.034527 
L 317.911984 -231.034527 
L 321.898179 -231.034527 
L 325.884375 -231.034527 
L 329.870571 -231.034527 
L 333.856766 -231.034527 
L 337.842962 -231.034527 
L 341.829158 -231.034527 
L 345.815353 -231.034527 
L 349.801549 -231.034527 
L 353.787745 -231.034527 
L 357.77394 -231.034527 
L 361.760136 -231.034527 
L 365.746332 -231.034527 
L 369.732527 -231.034527 
L 373.718723 -231.034527 
L 377.704918 -231.034527 
L 381.691114 -231.034527 
L 385.67731 -231.034527 
L 389.663505 -231.034527 
L 393.649701 -231.034527 
L 397.635897 -231.034527 
L 401.622092 -231.034527 
L 405.608288 -231.034527 
L 409.594484 -231.034527 
L 413.580679 -231.034527 
L 417.566875 -231.034527 
L 421.553071 -231.034527 
L 421.553071 -231.034527 
L 421.553071 -231.034527 
L 417.566875 -231.034527 
L 413.580679 -231.034527 
L 409.594484 -231.034527 
L 405.608288 -231.034527 
L 401.622092 -231.034527 
L 397.635897 -231.034527 
L 393.649701 -231.034527 
L 389.663505 -231.034527 
L 385.67731 -231.034527 
L 381.691114 -231.034527 
L 377.704918 -231.034527 
L 373.718723 -231.034527 
L 369.732527 -231.034527 
L 365.746332 -231.034527 
L 361.760136 -231.034527 
L 357.77394 -231.034527 
L 353.787745 -231.034527 
L 349.801549 -231.034527 
L 345.815353 -231.034527 
L 341.829158 -231.034527 
L 337.842962 -231.034527 
L 333.856766 -231.034527 
L 329.870571 -231.034527 
L 325.884375 -231.034527 
L 321.898179 -231.034527 
L 317.911984 -231.034527 
L 313.925788 -231.034527 
L 309.939592 -231.034527 
L 305.953397 -231.034527 
L 301.967201 -231.034527 
L 297.981005 -231.034527 
L 293.99481 -231.034527 
L 290.008614 -231.034527 
L 286.022418 -231.034527 
L 282.036223 -231.034527 
L 278.050027 -231.034527 
L 274.063832 -231.034527 
L 270.077636 -231.034527 
L 266.09144 -231.034527 
L 262.105245 -231.034527 
L 258.119049 -231.034527 
L 254.132853 -231.034527 
L 250.146658 -231.034527 
L 246.160462 -231.034527 
L 242.174266 -231.034527 
L 238.188071 -231.034527 
L 234.201875 -231.034527 
L 230.215679 -231.034527 
L 226.229484 -231.034527 
L 222.243288 -231.034527 
L 218.257092 -231.034527 
L 214.270897 -231.033713 
L 210.284701 -231.006567 
L 206.298505 -230.671278 
L 202.31231 -229.107207 
L 198.326114 -226.180162 
L 194.339918 -223.525781 
L 190.353723 -222.004949 
L 186.367527 -221.617952 
L 182.381332 -221.601077 
L 178.395136 -221.219578 
L 174.40894 -220.463492 
L 170.422745 -219.401665 
L 166.436549 -218.221847 
L 162.450353 -217.470845 
L 158.464158 -217.259334 
L 154.477962 -218.274575 
L 150.491766 -219.224236 
L 146.505571 -218.635777 
L 142.519375 -217.966058 
L 138.533179 -217.199711 
L 134.546984 -214.68995 
L 130.560788 -213.609969 
L 126.574592 -214.534305 
L 122.588397 -215.488872 
L 118.602201 -217.237707 
L 114.616005 -217.672263 
L 110.62981 -216.226834 
L 106.643614 -213.308112 
L 102.657418 -209.596979 
L 98.671223 -206.934242 
L 94.685027 -205.992095 
L 90.698832 -205.312186 
L 86.712636 -200.82275 
L 82.72644 -193.053542 
L 78.740245 -192.137402 
L 74.754049 -195.175712 
L 70.767853 -194.081874 
L 66.781658 -188.397641 
L 62.795462 -182.065585 
L 58.809266 -178.495492 
L 54.823071 -176.448285 
L 50.836875 -174.3031 
z
" style="stroke: #276319; stroke-opacity: 0.1"/>
    </defs>
    <g clip-path="url(#p1332e1d0e8)">
     <use xlink:href="#m57a8b225b3" x="0" y="424.106719" style="fill: #276319; fill-opacity: 0.1; stroke: #276319; stroke-opacity: 0.1"/>
    </g>
   </g>
   <g id="PolyCollection_3">
    <defs>
     <path id="mbb190a78c6" d="M 50.836875 -149.2147 
L 50.836875 -149.2147 
L 54.823071 -147.812998 
L 58.809266 -142.818334 
L 62.795462 -138.068195 
L 66.781658 -144.882697 
L 70.767853 -155.671771 
L 74.754049 -159.331504 
L 78.740245 -161.357801 
L 82.72644 -158.383131 
L 86.712636 -152.399895 
L 90.698832 -148.884001 
L 94.685027 -142.617125 
L 98.671223 -137.249144 
L 102.657418 -138.129156 
L 106.643614 -143.539762 
L 110.62981 -150.2476 
L 114.616005 -154.872472 
L 118.602201 -154.760377 
L 122.588397 -151.80376 
L 126.574592 -149.728717 
L 130.560788 -148.271638 
L 134.546984 -149.02835 
L 138.533179 -150.686994 
L 142.519375 -151.068324 
L 146.505571 -151.675108 
L 150.491766 -154.653923 
L 154.477962 -157.958369 
L 158.464158 -156.346522 
L 162.450353 -152.468987 
L 166.436549 -153.011013 
L 170.422745 -153.62931 
L 174.40894 -151.980262 
L 178.395136 -152.034293 
L 182.381332 -155.042467 
L 186.367527 -157.235234 
L 190.353723 -156.305408 
L 194.339918 -155.944191 
L 198.326114 -155.120534 
L 202.31231 -152.601748 
L 206.298505 -153.360144 
L 210.284701 -155.931362 
L 214.270897 -155.372935 
L 218.257092 -154.980517 
L 222.243288 -156.650644 
L 226.229484 -158.17023 
L 230.215679 -158.749507 
L 234.201875 -158.349192 
L 238.188071 -157.458508 
L 242.174266 -157.290938 
L 246.160462 -156.884277 
L 250.146658 -156.298352 
L 254.132853 -155.936239 
L 258.119049 -155.631087 
L 262.105245 -155.963194 
L 266.09144 -156.18462 
L 270.077636 -156.166654 
L 274.063832 -157.447197 
L 278.050027 -158.258818 
L 282.036223 -157.328047 
L 286.022418 -156.202175 
L 290.008614 -156.208505 
L 293.99481 -156.649626 
L 297.981005 -157.123694 
L 301.967201 -157.534407 
L 305.953397 -157.596819 
L 309.939592 -157.36068 
L 313.925788 -157.054508 
L 317.911984 -157.136703 
L 321.898179 -157.17576 
L 325.884375 -157.127807 
L 329.870571 -157.296998 
L 333.856766 -157.20865 
L 337.842962 -156.184303 
L 341.829158 -154.990732 
L 345.815353 -154.707056 
L 349.801549 -155.274805 
L 353.787745 -155.704062 
L 357.77394 -156.122559 
L 361.760136 -156.642218 
L 365.746332 -155.983952 
L 369.732527 -154.590526 
L 373.718723 -153.548539 
L 377.704918 -152.993318 
L 381.691114 -152.813329 
L 385.67731 -153.322967 
L 389.663505 -153.931803 
L 393.649701 -154.000566 
L 397.635897 -153.245137 
L 401.622092 -152.323439 
L 405.608288 -151.684247 
L 409.594484 -150.910725 
L 413.580679 -150.01151 
L 417.566875 -149.527418 
L 421.553071 -149.424437 
L 421.553071 -149.407931 
L 421.553071 -149.407931 
L 417.566875 -149.319479 
L 413.580679 -148.916547 
L 409.594484 -148.227056 
L 405.608288 -147.764803 
L 401.622092 -147.634131 
L 397.635897 -147.651096 
L 393.649701 -147.705752 
L 389.663505 -147.717219 
L 385.67731 -147.652163 
L 381.691114 -147.299859 
L 377.704918 -146.965217 
L 373.718723 -147.19063 
L 369.732527 -147.338011 
L 365.746332 -147.245366 
L 361.760136 -147.407758 
L 357.77394 -147.319506 
L 353.787745 -146.566016 
L 349.801549 -145.350607 
L 345.815353 -144.340657 
L 341.829158 -143.872602 
L 337.842962 -143.797493 
L 333.856766 -144.905408 
L 329.870571 -145.44535 
L 325.884375 -144.784209 
L 321.898179 -144.409489 
L 317.911984 -143.749285 
L 313.925788 -142.804071 
L 309.939592 -143.155607 
L 305.953397 -144.00193 
L 301.967201 -143.57253 
L 297.981005 -142.518138 
L 293.99481 -142.182377 
L 290.008614 -141.993395 
L 286.022418 -142.035851 
L 282.036223 -142.820652 
L 278.050027 -143.376487 
L 274.063832 -142.283986 
L 270.077636 -140.322379 
L 266.09144 -139.333887 
L 262.105245 -138.148079 
L 258.119049 -137.329012 
L 254.132853 -137.755484 
L 250.146658 -138.146132 
L 246.160462 -138.883799 
L 242.174266 -140.303166 
L 238.188071 -140.817002 
L 234.201875 -141.228416 
L 230.215679 -140.783656 
L 226.229484 -139.459816 
L 222.243288 -137.895603 
L 218.257092 -136.08682 
L 214.270897 -136.042511 
L 210.284701 -136.761977 
L 206.298505 -133.582748 
L 202.31231 -132.217108 
L 198.326114 -135.296144 
L 194.339918 -136.629461 
L 190.353723 -136.753435 
L 186.367527 -136.42659 
L 182.381332 -133.183376 
L 178.395136 -129.554091 
L 174.40894 -129.401279 
L 170.422745 -131.464114 
L 166.436549 -129.815547 
L 162.450353 -128.178288 
L 158.464158 -133.577504 
L 154.477962 -137.288698 
L 150.491766 -133.547922 
L 146.505571 -129.991728 
L 142.519375 -129.719189 
L 138.533179 -130.034852 
L 134.546984 -128.986601 
L 130.560788 -127.519425 
L 126.574592 -127.578846 
L 122.588397 -129.149538 
L 118.602201 -131.847952 
L 114.616005 -131.945123 
L 110.62981 -127.4515 
L 106.643614 -122.535327 
L 102.657418 -119.991783 
L 98.671223 -119.788443 
L 94.685027 -122.808632 
L 90.698832 -125.691254 
L 86.712636 -127.21853 
L 82.72644 -132.791347 
L 78.740245 -134.555434 
L 74.754049 -129.779958 
L 70.767853 -122.462451 
L 66.781658 -110.643617 
L 62.795462 -112.615211 
L 58.809266 -130.185426 
L 54.823071 -143.21903 
L 50.836875 -149.2147 
z
" style="stroke: #6f9fc7; stroke-opacity: 0.1"/>
    </defs>
    <g clip-path="url(#p1332e1d0e8)">
     <use xlink:href="#mbb190a78c6" x="0" y="424.106719" style="fill: #6f9fc7; fill-opacity: 0.1; stroke: #6f9fc7; stroke-opacity: 0.1"/>
    </g>
   </g>
   <g id="line2d_24">
    <path d="M 50.836875 299.980419 
L 54.823071 309.213604 
L 58.809266 312.546921 
L 62.795462 307.064308 
L 66.781658 298.412986 
L 70.767853 291.830635 
L 74.754049 288.545536 
L 78.740245 286.940576 
L 82.72644 284.712091 
L 86.712636 283.149589 
L 90.698832 281.565135 
L 94.685027 275.84068 
L 98.671223 270.693382 
L 102.657418 271.680512 
L 106.643614 272.708185 
L 110.62981 270.13557 
L 114.616005 267.236719 
L 118.602201 267.421733 
L 122.588397 268.521806 
L 126.574592 266.427296 
L 130.560788 265.503378 
L 134.546984 265.186303 
L 138.533179 263.108945 
L 142.519375 262.297827 
L 146.505571 262.252288 
L 150.491766 262.229754 
L 154.477962 262.247064 
L 158.464158 263.369671 
L 162.450353 264.317852 
L 166.436549 262.689568 
L 170.422745 260.853373 
L 174.40894 262.534366 
L 178.395136 265.225091 
L 182.381332 266.009184 
L 186.367527 264.438218 
L 190.353723 261.34221 
L 194.339918 260.147817 
L 198.326114 260.925886 
L 202.31231 260.762715 
L 206.298505 260.878887 
L 210.284701 261.662239 
L 214.270897 261.660521 
L 218.257092 261.766127 
L 222.243288 262.677609 
L 226.229484 262.923813 
L 230.215679 262.466868 
L 234.201875 262.763975 
L 238.188071 263.979104 
L 242.174266 265.124492 
L 246.160462 265.844246 
L 250.146658 267.015538 
L 254.132853 269.285762 
L 258.119049 272.447797 
L 262.105245 274.56702 
L 266.09144 274.927675 
L 270.077636 274.757581 
L 274.063832 274.696867 
L 278.050027 274.691288 
L 282.036223 274.691111 
L 286.022418 274.691111 
L 290.008614 274.691111 
L 293.99481 274.691111 
L 297.981005 274.691111 
L 301.967201 274.691111 
L 305.953397 274.691111 
L 309.939592 274.691111 
L 313.925788 274.691111 
L 317.911984 274.691111 
L 321.898179 274.691111 
L 325.884375 274.691111 
L 329.870571 274.691111 
L 333.856766 274.691111 
L 337.842962 274.691111 
L 341.829158 274.691111 
L 345.815353 274.691111 
L 349.801549 274.691111 
L 353.787745 274.691111 
L 357.77394 274.691111 
L 361.760136 274.691111 
L 365.746332 274.691111 
L 369.732527 274.691111 
L 373.718723 274.691111 
L 377.704918 274.691111 
L 381.691114 274.691111 
L 385.67731 274.691111 
L 389.663505 274.691111 
L 393.649701 274.691111 
L 397.635897 274.691111 
L 401.622092 274.691111 
L 405.608288 274.691111 
L 409.594484 274.691111 
L 413.580679 274.691111 
L 417.566875 274.691111 
L 421.553071 274.691111 
" clip-path="url(#p1332e1d0e8)" style="fill: none; stroke: #8e0052; stroke-width: 2; stroke-linecap: square"/>
   </g>
   <g id="line2d_25">
    <path d="M 50.836875 299.980419 
L 54.823071 306.156028 
L 58.809266 307.100323 
L 62.795462 301.344839 
L 66.781658 294.203409 
L 70.767853 287.770893 
L 74.754049 283.237383 
L 78.740245 280.589148 
L 82.72644 278.270438 
L 86.712636 276.921712 
L 90.698832 275.744211 
L 94.685027 270.48523 
L 98.671223 265.239104 
L 102.657418 265.67036 
L 106.643614 266.711798 
L 110.62981 264.754552 
L 114.616005 262.38882 
L 118.602201 262.259909 
L 122.588397 262.991402 
L 126.574592 261.047619 
L 130.560788 260.275914 
L 134.546984 260.272091 
L 138.533179 258.680694 
L 142.519375 258.093644 
L 146.505571 258.053464 
L 150.491766 258.045558 
L 154.477962 257.897718 
L 158.464158 258.829603 
L 162.450353 259.743461 
L 166.436549 258.153642 
L 170.422745 256.422133 
L 174.40894 258.125058 
L 178.395136 260.950593 
L 182.381332 262.111217 
L 186.367527 260.598547 
L 190.353723 257.291234 
L 194.339918 256.004284 
L 198.326114 256.773323 
L 202.31231 256.74408 
L 206.298505 256.945138 
L 210.284701 257.767718 
L 214.270897 257.753052 
L 218.257092 257.925715 
L 222.243288 259.110719 
L 226.229484 259.603525 
L 230.215679 259.128668 
L 234.201875 259.393243 
L 238.188071 260.713929 
L 242.174266 262.079239 
L 246.160462 263.052384 
L 250.146658 264.495611 
L 254.132853 267.286501 
L 258.119049 271.194526 
L 262.105245 273.941456 
L 266.09144 274.709055 
L 270.077636 274.718105 
L 274.063832 274.693871 
L 278.050027 274.691202 
L 282.036223 274.691111 
L 286.022418 274.691111 
L 290.008614 274.691111 
L 293.99481 274.691111 
L 297.981005 274.691111 
L 301.967201 274.691111 
L 305.953397 274.691111 
L 309.939592 274.691111 
L 313.925788 274.691111 
L 317.911984 274.691111 
L 321.898179 274.691111 
L 325.884375 274.691111 
L 329.870571 274.691111 
L 333.856766 274.691111 
L 337.842962 274.691111 
L 341.829158 274.691111 
L 345.815353 274.691111 
L 349.801549 274.691111 
L 353.787745 274.691111 
L 357.77394 274.691111 
L 361.760136 274.691111 
L 365.746332 274.691111 
L 369.732527 274.691111 
L 373.718723 274.691111 
L 377.704918 274.691111 
L 381.691114 274.691111 
L 385.67731 274.691111 
L 389.663505 274.691111 
L 393.649701 274.691111 
L 397.635897 274.691111 
L 401.622092 274.691111 
L 405.608288 274.691111 
L 409.594484 274.691111 
L 413.580679 274.691111 
L 417.566875 274.691111 
L 421.553071 274.691111 
" clip-path="url(#p1332e1d0e8)" style="fill: none; stroke-dasharray: 3.7,1.6; stroke-dashoffset: 0; stroke: #8e0052"/>
   </g>
   <g id="line2d_26">
    <path d="M 50.836875 299.980419 
L 54.823071 315.328757 
L 58.809266 323.440119 
L 62.795462 318.503246 
L 66.781658 306.83214 
L 70.767853 299.950119 
L 74.754049 299.161841 
L 78.740245 299.643431 
L 82.72644 297.595396 
L 86.712636 295.605343 
L 90.698832 293.206983 
L 94.685027 286.551582 
L 98.671223 281.601939 
L 102.657418 283.700815 
L 106.643614 284.700957 
L 110.62981 280.897605 
L 114.616005 276.932517 
L 118.602201 277.745381 
L 122.588397 279.582613 
L 126.574592 277.18665 
L 130.560788 275.958305 
L 134.546984 275.014726 
L 138.533179 271.965448 
L 142.519375 270.706191 
L 146.505571 270.649937 
L 150.491766 270.598146 
L 154.477962 270.945755 
L 158.464158 272.449807 
L 162.450353 273.466635 
L 166.436549 271.76142 
L 170.422745 269.715853 
L 174.40894 271.352983 
L 178.395136 273.774088 
L 182.381332 273.805117 
L 186.367527 272.117561 
L 190.353723 269.444161 
L 194.339918 268.434882 
L 198.326114 269.231012 
L 202.31231 268.799984 
L 206.298505 268.746385 
L 210.284701 269.451281 
L 214.270897 269.475459 
L 218.257092 269.446951 
L 222.243288 269.811389 
L 226.229484 269.56439 
L 230.215679 269.143269 
L 234.201875 269.50544 
L 238.188071 270.509452 
L 242.174266 271.214998 
L 246.160462 271.427972 
L 250.146658 272.055391 
L 254.132853 273.284284 
L 258.119049 274.954339 
L 262.105245 275.818149 
L 266.09144 275.364915 
L 270.077636 274.836533 
L 274.063832 274.70286 
L 278.050027 274.691462 
L 282.036223 274.691111 
L 286.022418 274.691111 
L 290.008614 274.691111 
L 293.99481 274.691111 
L 297.981005 274.691111 
L 301.967201 274.691111 
L 305.953397 274.691111 
L 309.939592 274.691111 
L 313.925788 274.691111 
L 317.911984 274.691111 
L 321.898179 274.691111 
L 325.884375 274.691111 
L 329.870571 274.691111 
L 333.856766 274.691111 
L 337.842962 274.691111 
L 341.829158 274.691111 
L 345.815353 274.691111 
L 349.801549 274.691111 
L 353.787745 274.691111 
L 357.77394 274.691111 
L 361.760136 274.691111 
L 365.746332 274.691111 
L 369.732527 274.691111 
L 373.718723 274.691111 
L 377.704918 274.691111 
L 381.691114 274.691111 
L 385.67731 274.691111 
L 389.663505 274.691111 
L 393.649701 274.691111 
L 397.635897 274.691111 
L 401.622092 274.691111 
L 405.608288 274.691111 
L 409.594484 274.691111 
L 413.580679 274.691111 
L 417.566875 274.691111 
L 421.553071 274.691111 
" clip-path="url(#p1332e1d0e8)" style="fill: none; stroke-dasharray: 3.7,1.6; stroke-dashoffset: 0; stroke: #8e0052"/>
   </g>
   <g id="line2d_27">
    <path d="M 50.836875 249.803619 
L 54.823071 246.63786 
L 58.809266 240.967326 
L 62.795462 232.24343 
L 66.781658 224.382871 
L 70.767853 219.218618 
L 74.754049 217.794995 
L 78.740245 220.462622 
L 82.72644 220.8063 
L 86.712636 215.18839 
L 90.698832 211.353456 
L 94.685027 209.966457 
L 98.671223 208.684603 
L 102.657418 206.445107 
L 106.643614 203.448129 
L 110.62981 201.569548 
L 114.616005 201.010035 
L 118.602201 201.34188 
L 122.588397 202.286808 
L 126.574592 203.080154 
L 130.560788 203.982459 
L 134.546984 202.666358 
L 138.533179 200.352191 
L 142.519375 200.126223 
L 146.505571 199.899661 
L 150.491766 199.570516 
L 154.477962 200.443062 
L 158.464158 201.282509 
L 162.450353 201.324859 
L 166.436549 201.016095 
L 170.422745 200.164905 
L 174.40894 199.570275 
L 178.395136 199.106545 
L 182.381332 198.792028 
L 186.367527 198.830617 
L 190.353723 198.715816 
L 194.339918 197.73191 
L 198.326114 196.022998 
L 202.31231 194.234128 
L 206.298505 193.290936 
L 210.284701 193.08903 
L 214.270897 193.072682 
L 218.257092 193.072192 
L 222.243288 193.072192 
L 226.229484 193.072192 
L 230.215679 193.072192 
L 234.201875 193.072192 
L 238.188071 193.072192 
L 242.174266 193.072192 
L 246.160462 193.072192 
L 250.146658 193.072192 
L 254.132853 193.072192 
L 258.119049 193.072192 
L 262.105245 193.072192 
L 266.09144 193.072192 
L 270.077636 193.072192 
L 274.063832 193.072192 
L 278.050027 193.072192 
L 282.036223 193.072192 
L 286.022418 193.072192 
L 290.008614 193.072192 
L 293.99481 193.072192 
L 297.981005 193.072192 
L 301.967201 193.072192 
L 305.953397 193.072192 
L 309.939592 193.072192 
L 313.925788 193.072192 
L 317.911984 193.072192 
L 321.898179 193.072192 
L 325.884375 193.072192 
L 329.870571 193.072192 
L 333.856766 193.072192 
L 337.842962 193.072192 
L 341.829158 193.072192 
L 345.815353 193.072192 
L 349.801549 193.072192 
L 353.787745 193.072192 
L 357.77394 193.072192 
L 361.760136 193.072192 
L 365.746332 193.072192 
L 369.732527 193.072192 
L 373.718723 193.072192 
L 377.704918 193.072192 
L 381.691114 193.072192 
L 385.67731 193.072192 
L 389.663505 193.072192 
L 393.649701 193.072192 
L 397.635897 193.072192 
L 401.622092 193.072192 
L 405.608288 193.072192 
L 409.594484 193.072192 
L 413.580679 193.072192 
L 417.566875 193.072192 
L 421.553071 193.072192 
" clip-path="url(#p1332e1d0e8)" style="fill: none; stroke: #276319; stroke-width: 2; stroke-linecap: square"/>
   </g>
   <g id="line2d_28">
    <path d="M 50.836875 249.803619 
L 54.823071 246.127573 
L 58.809266 238.645375 
L 62.795462 227.344578 
L 66.781658 218.719768 
L 70.767853 213.815504 
L 74.754049 212.22699 
L 78.740245 214.709274 
L 82.72644 215.682862 
L 86.712636 211.1406 
L 90.698832 207.632918 
L 94.685027 205.892373 
L 98.671223 204.440666 
L 102.657418 202.41279 
L 106.643614 199.772889 
L 110.62981 198.414379 
L 114.616005 198.297825 
L 118.602201 198.578313 
L 122.588397 199.121289 
L 126.574592 199.834024 
L 130.560788 200.725313 
L 134.546984 199.291152 
L 138.533179 197.074783 
L 142.519375 197.119004 
L 146.505571 197.114021 
L 150.491766 196.914533 
L 154.477962 197.748521 
L 158.464158 198.50007 
L 162.450353 198.669351 
L 166.436549 198.581707 
L 170.422745 197.894831 
L 174.40894 197.5338 
L 178.395136 197.216248 
L 182.381332 196.935222 
L 186.367527 197.001541 
L 190.353723 197.02284 
L 194.339918 196.307397 
L 198.326114 195.071218 
L 202.31231 193.851436 
L 206.298505 193.218684 
L 210.284701 193.083469 
L 214.270897 193.07252 
L 218.257092 193.072192 
L 222.243288 193.072192 
L 226.229484 193.072192 
L 230.215679 193.072192 
L 234.201875 193.072192 
L 238.188071 193.072192 
L 242.174266 193.072192 
L 246.160462 193.072192 
L 250.146658 193.072192 
L 254.132853 193.072192 
L 258.119049 193.072192 
L 262.105245 193.072192 
L 266.09144 193.072192 
L 270.077636 193.072192 
L 274.063832 193.072192 
L 278.050027 193.072192 
L 282.036223 193.072192 
L 286.022418 193.072192 
L 290.008614 193.072192 
L 293.99481 193.072192 
L 297.981005 193.072192 
L 301.967201 193.072192 
L 305.953397 193.072192 
L 309.939592 193.072192 
L 313.925788 193.072192 
L 317.911984 193.072192 
L 321.898179 193.072192 
L 325.884375 193.072192 
L 329.870571 193.072192 
L 333.856766 193.072192 
L 337.842962 193.072192 
L 341.829158 193.072192 
L 345.815353 193.072192 
L 349.801549 193.072192 
L 353.787745 193.072192 
L 357.77394 193.072192 
L 361.760136 193.072192 
L 365.746332 193.072192 
L 369.732527 193.072192 
L 373.718723 193.072192 
L 377.704918 193.072192 
L 381.691114 193.072192 
L 385.67731 193.072192 
L 389.663505 193.072192 
L 393.649701 193.072192 
L 397.635897 193.072192 
L 401.622092 193.072192 
L 405.608288 193.072192 
L 409.594484 193.072192 
L 413.580679 193.072192 
L 417.566875 193.072192 
L 421.553071 193.072192 
" clip-path="url(#p1332e1d0e8)" style="fill: none; stroke-dasharray: 3.7,1.6; stroke-dashoffset: 0; stroke: #276319"/>
   </g>
   <g id="line2d_29">
    <path d="M 50.836875 249.803619 
L 54.823071 247.658434 
L 58.809266 245.611227 
L 62.795462 242.041133 
L 66.781658 235.709078 
L 70.767853 230.024844 
L 74.754049 228.931006 
L 78.740245 231.969317 
L 82.72644 231.053177 
L 86.712636 223.283969 
L 90.698832 218.794532 
L 94.685027 218.114624 
L 98.671223 217.172477 
L 102.657418 214.50974 
L 106.643614 210.798607 
L 110.62981 207.879884 
L 114.616005 206.434456 
L 118.602201 206.869012 
L 122.588397 208.617847 
L 126.574592 209.572414 
L 130.560788 210.49675 
L 134.546984 209.416769 
L 138.533179 206.907008 
L 142.519375 206.140661 
L 146.505571 205.470942 
L 150.491766 204.882482 
L 154.477962 205.832144 
L 158.464158 206.847385 
L 162.450353 206.635874 
L 166.436549 205.884872 
L 170.422745 204.705054 
L 174.40894 203.643227 
L 178.395136 202.887141 
L 182.381332 202.505642 
L 186.367527 202.488767 
L 190.353723 202.101769 
L 194.339918 200.580937 
L 198.326114 197.926557 
L 202.31231 194.999512 
L 206.298505 193.43544 
L 210.284701 193.100151 
L 214.270897 193.073005 
L 218.257092 193.072192 
L 222.243288 193.072192 
L 226.229484 193.072192 
L 230.215679 193.072192 
L 234.201875 193.072192 
L 238.188071 193.072192 
L 242.174266 193.072192 
L 246.160462 193.072192 
L 250.146658 193.072192 
L 254.132853 193.072192 
L 258.119049 193.072192 
L 262.105245 193.072192 
L 266.09144 193.072192 
L 270.077636 193.072192 
L 274.063832 193.072192 
L 278.050027 193.072192 
L 282.036223 193.072192 
L 286.022418 193.072192 
L 290.008614 193.072192 
L 293.99481 193.072192 
L 297.981005 193.072192 
L 301.967201 193.072192 
L 305.953397 193.072192 
L 309.939592 193.072192 
L 313.925788 193.072192 
L 317.911984 193.072192 
L 321.898179 193.072192 
L 325.884375 193.072192 
L 329.870571 193.072192 
L 333.856766 193.072192 
L 337.842962 193.072192 
L 341.829158 193.072192 
L 345.815353 193.072192 
L 349.801549 193.072192 
L 353.787745 193.072192 
L 357.77394 193.072192 
L 361.760136 193.072192 
L 365.746332 193.072192 
L 369.732527 193.072192 
L 373.718723 193.072192 
L 377.704918 193.072192 
L 381.691114 193.072192 
L 385.67731 193.072192 
L 389.663505 193.072192 
L 393.649701 193.072192 
L 397.635897 193.072192 
L 401.622092 193.072192 
L 405.608288 193.072192 
L 409.594484 193.072192 
L 413.580679 193.072192 
L 417.566875 193.072192 
L 421.553071 193.072192 
" clip-path="url(#p1332e1d0e8)" style="fill: none; stroke-dasharray: 3.7,1.6; stroke-dashoffset: 0; stroke: #276319"/>
   </g>
   <g id="line2d_30">
    <path d="M 50.836875 274.892019 
L 54.823071 277.825044 
L 58.809266 285.499354 
L 62.795462 294.522852 
L 66.781658 290.637048 
L 70.767853 279.504721 
L 74.754049 274.62573 
L 78.740245 271.68304 
L 82.72644 274.254183 
L 86.712636 280.100612 
L 90.698832 282.953633 
L 94.685027 288.092425 
L 98.671223 292.677809 
L 102.657418 292.023354 
L 106.643614 287.568435 
L 110.62981 281.457819 
L 114.616005 276.876696 
L 118.602201 276.983817 
L 122.588397 279.854366 
L 126.574592 281.761292 
L 130.560788 282.752485 
L 134.546984 281.758952 
L 138.533179 280.303772 
L 142.519375 280.154773 
L 146.505571 279.659404 
L 150.491766 276.48813 
L 154.477962 273.03824 
L 158.464158 275.34987 
L 162.450353 279.734632 
L 166.436549 278.827527 
L 170.422745 277.865807 
L 174.40894 279.652785 
L 178.395136 279.565826 
L 182.381332 276.350615 
L 186.367527 273.8077 
L 190.353723 274.318635 
L 194.339918 274.600771 
L 198.326114 275.594315 
L 202.31231 278.299851 
L 206.298505 277.33904 
L 210.284701 274.565152 
L 214.270897 275.177259 
L 218.257092 275.424101 
L 222.243288 273.707755 
L 226.229484 272.173293 
L 230.215679 271.345829 
L 234.201875 271.464452 
L 238.188071 272.195379 
L 242.174266 272.478372 
L 246.160462 273.222601 
L 250.146658 273.859107 
L 254.132853 274.230732 
L 258.119049 274.576324 
L 262.105245 274.081896 
L 266.09144 273.53901 
L 270.077636 273.22149 
L 274.063832 271.713925 
L 278.050027 270.808678 
L 282.036223 271.61447 
L 286.022418 272.626652 
L 290.008614 272.636583 
L 293.99481 272.279509 
L 297.981005 271.851544 
L 301.967201 271.226271 
L 305.953397 271.041529 
L 309.939592 271.481063 
L 313.925788 271.802356 
L 317.911984 271.432489 
L 321.898179 271.186383 
L 325.884375 271.093444 
L 329.870571 270.76027 
L 333.856766 270.999149 
L 337.842962 272.051352 
L 341.829158 272.82203 
L 345.815353 272.855129 
L 349.801549 272.13998 
L 353.787745 271.448672 
L 357.77394 270.918511 
L 361.760136 270.542654 
L 365.746332 271.035629 
L 369.732527 271.933698 
L 373.718723 272.677483 
L 377.704918 273.122767 
L 381.691114 273.131213 
L 385.67731 272.674019 
L 389.663505 272.246444 
L 393.649701 272.204424 
L 397.635897 272.726262 
L 401.622092 273.346382 
L 405.608288 273.728953 
L 409.594484 274.09055 
L 413.580679 274.460197 
L 417.566875 274.648614 
L 421.553071 274.687784 
" clip-path="url(#p1332e1d0e8)" style="fill: none; stroke: #6f9fc7; stroke-width: 2; stroke-linecap: square"/>
   </g>
   <g id="line2d_31">
    <path d="M 50.836875 274.892019 
L 54.823071 276.293721 
L 58.809266 281.288385 
L 62.795462 286.038524 
L 66.781658 279.224021 
L 70.767853 268.434947 
L 74.754049 264.775215 
L 78.740245 262.748917 
L 82.72644 265.723588 
L 86.712636 271.706824 
L 90.698832 275.222718 
L 94.685027 281.489594 
L 98.671223 286.857575 
L 102.657418 285.977563 
L 106.643614 280.566956 
L 110.62981 273.859119 
L 114.616005 269.234246 
L 118.602201 269.346342 
L 122.588397 272.302959 
L 126.574592 274.378002 
L 130.560788 275.83508 
L 134.546984 275.078369 
L 138.533179 273.419725 
L 142.519375 273.038394 
L 146.505571 272.431611 
L 150.491766 269.452796 
L 154.477962 266.14835 
L 158.464158 267.760197 
L 162.450353 271.637732 
L 166.436549 271.095705 
L 170.422745 270.477408 
L 174.40894 272.126457 
L 178.395136 272.072426 
L 182.381332 269.064252 
L 186.367527 266.871485 
L 190.353723 267.80131 
L 194.339918 268.162528 
L 198.326114 268.986185 
L 202.31231 271.504971 
L 206.298505 270.746574 
L 210.284701 268.175357 
L 214.270897 268.733784 
L 218.257092 269.126202 
L 222.243288 267.456074 
L 226.229484 265.936488 
L 230.215679 265.357212 
L 234.201875 265.757527 
L 238.188071 266.64821 
L 242.174266 266.815781 
L 246.160462 267.222442 
L 250.146658 267.808367 
L 254.132853 268.17048 
L 258.119049 268.475632 
L 262.105245 268.143525 
L 266.09144 267.922099 
L 270.077636 267.940065 
L 274.063832 266.659522 
L 278.050027 265.847901 
L 282.036223 266.778672 
L 286.022418 267.904544 
L 290.008614 267.898213 
L 293.99481 267.457093 
L 297.981005 266.983025 
L 301.967201 266.572312 
L 305.953397 266.5099 
L 309.939592 266.746039 
L 313.925788 267.052211 
L 317.911984 266.970016 
L 321.898179 266.930959 
L 325.884375 266.978912 
L 329.870571 266.809721 
L 333.856766 266.898069 
L 337.842962 267.922416 
L 341.829158 269.115987 
L 345.815353 269.399662 
L 349.801549 268.831913 
L 353.787745 268.402657 
L 357.77394 267.98416 
L 361.760136 267.4645 
L 365.746332 268.122767 
L 369.732527 269.516193 
L 373.718723 270.55818 
L 377.704918 271.1134 
L 381.691114 271.29339 
L 385.67731 270.783751 
L 389.663505 270.174916 
L 393.649701 270.106153 
L 397.635897 270.861582 
L 401.622092 271.78328 
L 405.608288 272.422471 
L 409.594484 273.195994 
L 413.580679 274.095209 
L 417.566875 274.579301 
L 421.553071 274.682282 
" clip-path="url(#p1332e1d0e8)" style="fill: none; stroke-dasharray: 3.7,1.6; stroke-dashoffset: 0; stroke: #6f9fc7"/>
   </g>
   <g id="line2d_32">
    <path d="M 50.836875 274.892019 
L 54.823071 280.887689 
L 58.809266 293.921293 
L 62.795462 311.491508 
L 66.781658 313.463102 
L 70.767853 301.644267 
L 74.754049 294.326761 
L 78.740245 289.551285 
L 82.72644 291.315372 
L 86.712636 296.888188 
L 90.698832 298.415464 
L 94.685027 301.298086 
L 98.671223 304.318276 
L 102.657418 304.114935 
L 106.643614 301.571391 
L 110.62981 296.655219 
L 114.616005 292.161596 
L 118.602201 292.258767 
L 122.588397 294.957181 
L 126.574592 296.527873 
L 130.560788 296.587294 
L 134.546984 295.120117 
L 138.533179 294.071867 
L 142.519375 294.38753 
L 146.505571 294.11499 
L 150.491766 290.558797 
L 154.477962 286.818021 
L 158.464158 290.529215 
L 162.450353 295.928431 
L 166.436549 294.291171 
L 170.422745 292.642605 
L 174.40894 294.70544 
L 178.395136 294.552627 
L 182.381332 290.923342 
L 186.367527 287.680129 
L 190.353723 287.353284 
L 194.339918 287.477258 
L 198.326114 288.810575 
L 202.31231 291.889611 
L 206.298505 290.523971 
L 210.284701 287.344741 
L 214.270897 288.064208 
L 218.257092 288.019899 
L 222.243288 286.211115 
L 226.229484 284.646903 
L 230.215679 283.323062 
L 234.201875 282.878302 
L 238.188071 283.289717 
L 242.174266 283.803553 
L 246.160462 285.222919 
L 250.146658 285.960587 
L 254.132853 286.351235 
L 258.119049 286.777707 
L 262.105245 285.958639 
L 266.09144 284.772832 
L 270.077636 283.784339 
L 274.063832 281.822733 
L 278.050027 280.730232 
L 282.036223 281.286067 
L 286.022418 282.070868 
L 290.008614 282.113323 
L 293.99481 281.924341 
L 297.981005 281.588581 
L 301.967201 280.534188 
L 305.953397 280.104789 
L 309.939592 280.951112 
L 313.925788 281.302648 
L 317.911984 280.357434 
L 321.898179 279.69723 
L 325.884375 279.32251 
L 329.870571 278.661368 
L 333.856766 279.201311 
L 337.842962 280.309226 
L 341.829158 280.234117 
L 345.815353 279.766062 
L 349.801549 278.756112 
L 353.787745 277.540703 
L 357.77394 276.787212 
L 361.760136 276.69896 
L 365.746332 276.861353 
L 369.732527 276.768708 
L 373.718723 276.916088 
L 377.704918 277.141501 
L 381.691114 276.80686 
L 385.67731 276.454556 
L 389.663505 276.389499 
L 393.649701 276.400966 
L 397.635897 276.455623 
L 401.622092 276.472588 
L 405.608288 276.341915 
L 409.594484 275.879662 
L 413.580679 275.190172 
L 417.566875 274.78724 
L 421.553071 274.698788 
" clip-path="url(#p1332e1d0e8)" style="fill: none; stroke-dasharray: 3.7,1.6; stroke-dashoffset: 0; stroke: #6f9fc7"/>
   </g>
   <g id="patch_3">
    <path d="M 50.836875 382.679219 
L 50.836875 10.999219 
" style="fill: none; stroke: #000000; stroke-width: 0.8; stroke-linejoin: miter; stroke-linecap: square"/>
   </g>
   <g id="patch_4">
    <path d="M 417.566875 382.679219 
L 417.566875 10.999219 
" style="fill: none; stroke: #000000; stroke-width: 0.8; stroke-linejoin: miter; stroke-linecap: square"/>
   </g>
   <g id="patch_5">
    <path d="M 50.836875 382.679219 
L 417.566875 382.679219 
" style="fill: none; stroke: #000000; stroke-width: 0.8; stroke-linejoin: miter; stroke-linecap: square"/>
   </g>
   <g id="patch_6">
    <path d="M 50.836875 10.999219 
L 417.566875 10.999219 
" style="fill: none; stroke: #000000; stroke-width: 0.8; stroke-linejoin: miter; stroke-linecap: square"/>
   </g>
   <g id="legend_1">
    <g id="patch_7">
     <path d="M 295.366875 377.679219 
L 410.566875 377.679219 
Q 412.566875 377.679219 412.566875 375.679219 
L 412.566875 332.644844 
Q 412.566875 330.644844 410.566875 330.644844 
L 295.366875 330.644844 
Q 293.366875 330.644844 293.366875 332.644844 
L 293.366875 375.679219 
Q 293.366875 377.679219 295.366875 377.679219 
z
" style="fill: #ffffff; opacity: 0.8; stroke: #cccccc; stroke-linejoin: miter"/>
    </g>
    <g id="line2d_33">
     <path d="M 297.366875 338.743281 
L 307.366875 338.743281 
L 317.366875 338.743281 
" style="fill: none; stroke: #8e0052; stroke-width: 2; stroke-linecap: square"/>
    </g>
    <g id="text_17">
     <!-- Non Expert (1-2) -->
     <g transform="translate(325.366875 342.243281) scale(0.1 -0.1)">
      <defs>
       <path id="DejaVuSans-45" d="M 628 4666 
L 3578 4666 
L 3578 4134 
L 1259 4134 
L 1259 2753 
L 3481 2753 
L 3481 2222 
L 1259 2222 
L 1259 531 
L 3634 531 
L 3634 0 
L 628 0 
L 628 4666 
z
" transform="scale(0.015625)"/>
       <path id="DejaVuSans-78" d="M 3513 3500 
L 2247 1797 
L 3578 0 
L 2900 0 
L 1881 1375 
L 863 0 
L 184 0 
L 1544 1831 
L 300 3500 
L 978 3500 
L 1906 2253 
L 2834 3500 
L 3513 3500 
z
" transform="scale(0.015625)"/>
       <path id="DejaVuSans-2d" d="M 313 2009 
L 1997 2009 
L 1997 1497 
L 313 1497 
L 313 2009 
z
" transform="scale(0.015625)"/>
      </defs>
      <use xlink:href="#DejaVuSans-4e"/>
      <use xlink:href="#DejaVuSans-6f" x="74.804688"/>
      <use xlink:href="#DejaVuSans-6e" x="135.986328"/>
      <use xlink:href="#DejaVuSans-20" x="199.365234"/>
      <use xlink:href="#DejaVuSans-45" x="231.152344"/>
      <use xlink:href="#DejaVuSans-78" x="294.335938"/>
      <use xlink:href="#DejaVuSans-70" x="353.515625"/>
      <use xlink:href="#DejaVuSans-65" x="416.992188"/>
      <use xlink:href="#DejaVuSans-72" x="478.515625"/>
      <use xlink:href="#DejaVuSans-74" x="519.628906"/>
      <use xlink:href="#DejaVuSans-20" x="558.837891"/>
      <use xlink:href="#DejaVuSans-28" x="590.625"/>
      <use xlink:href="#DejaVuSans-31" x="629.638672"/>
      <use xlink:href="#DejaVuSans-2d" x="693.261719"/>
      <use xlink:href="#DejaVuSans-32" x="729.345703"/>
      <use xlink:href="#DejaVuSans-29" x="792.96875"/>
     </g>
    </g>
    <g id="line2d_34">
     <path d="M 297.366875 353.421406 
L 307.366875 353.421406 
L 317.366875 353.421406 
" style="fill: none; stroke: #276319; stroke-width: 2; stroke-linecap: square"/>
    </g>
    <g id="text_18">
     <!-- Expert (3-5) -->
     <g transform="translate(325.366875 356.921406) scale(0.1 -0.1)">
      <use xlink:href="#DejaVuSans-45"/>
      <use xlink:href="#DejaVuSans-78" x="63.183594"/>
      <use xlink:href="#DejaVuSans-70" x="122.363281"/>
      <use xlink:href="#DejaVuSans-65" x="185.839844"/>
      <use xlink:href="#DejaVuSans-72" x="247.363281"/>
      <use xlink:href="#DejaVuSans-74" x="288.476562"/>
      <use xlink:href="#DejaVuSans-20" x="327.685547"/>
      <use xlink:href="#DejaVuSans-28" x="359.472656"/>
      <use xlink:href="#DejaVuSans-33" x="398.486328"/>
      <use xlink:href="#DejaVuSans-2d" x="462.109375"/>
      <use xlink:href="#DejaVuSans-35" x="498.193359"/>
      <use xlink:href="#DejaVuSans-29" x="561.816406"/>
     </g>
    </g>
    <g id="line2d_35">
     <path d="M 297.366875 368.099531 
L 307.366875 368.099531 
L 317.366875 368.099531 
" style="fill: none; stroke: #6f9fc7; stroke-width: 2; stroke-linecap: square"/>
    </g>
    <g id="text_19">
     <!-- All -->
     <g transform="translate(325.366875 371.599531) scale(0.1 -0.1)">
      <defs>
       <path id="DejaVuSans-41" d="M 2188 4044 
L 1331 1722 
L 3047 1722 
L 2188 4044 
z
M 1831 4666 
L 2547 4666 
L 4325 0 
L 3669 0 
L 3244 1197 
L 1141 1197 
L 716 0 
L 50 0 
L 1831 4666 
z
" transform="scale(0.015625)"/>
       <path id="DejaVuSans-6c" d="M 603 4863 
L 1178 4863 
L 1178 0 
L 603 0 
L 603 4863 
z
" transform="scale(0.015625)"/>
      </defs>
      <use xlink:href="#DejaVuSans-41"/>
      <use xlink:href="#DejaVuSans-6c" x="68.408203"/>
      <use xlink:href="#DejaVuSans-6c" x="96.191406"/>
     </g>
    </g>
   </g>
  </g>
 </g>
 <defs>
  <clipPath id="p1332e1d0e8">
   <rect x="50.836875" y="10.999219" width="366.73" height="371.68"/>
  </clipPath>
 </defs>
</svg>
