<?xml version="1.0" encoding="utf-8" standalone="no"?>
<!DOCTYPE svg PUBLIC "-//W3C//DTD SVG 1.1//EN"
  "http://www.w3.org/Graphics/SVG/1.1/DTD/svg11.dtd">
<svg xmlns:xlink="http://www.w3.org/1999/xlink" width="424.766875pt" height="424.106719pt" viewBox="0 0 424.766875 424.106719" xmlns="http://www.w3.org/2000/svg" version="1.1">
 <metadata>
  <rdf:RDF xmlns:dc="http://purl.org/dc/elements/1.1/" xmlns:cc="http://creativecommons.org/ns#" xmlns:rdf="http://www.w3.org/1999/02/22-rdf-syntax-ns#">
   <cc:Work>
    <dc:type rdf:resource="http://purl.org/dc/dcmitype/StillImage"/>
    <dc:date>2024-04-17T11:51:11.213154</dc:date>
    <dc:format>image/svg+xml</dc:format>
    <dc:creator>
     <cc:Agent>
      <dc:title>Matplotlib v3.6.2, https://matplotlib.org/</dc:title>
     </cc:Agent>
    </dc:creator>
   </cc:Work>
  </rdf:RDF>
 </metadata>
 <defs>
  <style type="text/css">*{stroke-linejoin: round; stroke-linecap: butt}</style>
 </defs>
 <g id="figure_1">
  <g id="patch_1">
   <path d="M 0 424.106719 
L 424.766875 424.106719 
L 424.766875 0 
L 0 0 
z
" style="fill: #ffffff"/>
  </g>
  <g id="axes_1">
   <g id="patch_2">
    <path d="M 50.836875 382.679219 
L 417.566875 382.679219 
L 417.566875 10.999219 
L 50.836875 10.999219 
z
" style="fill: #ffffff"/>
   </g>
   <g id="matplotlib.axis_1">
    <g id="xtick_1">
     <g id="line2d_1">
      <defs>
       <path id="m0d330d188d" d="M 0 0 
L 0 3.5 
" style="stroke: #000000; stroke-width: 0.8"/>
      </defs>
      <g>
       <use xlink:href="#m0d330d188d" x="50.836875" y="382.679219" style="stroke: #000000; stroke-width: 0.8"/>
      </g>
     </g>
     <g id="text_1">
      <!-- 0 -->
      <g transform="translate(47.655625 397.277656) scale(0.1 -0.1)">
       <defs>
        <path id="DejaVuSans-30" d="M 2034 4250 
Q 1547 4250 1301 3770 
Q 1056 3291 1056 2328 
Q 1056 1369 1301 889 
Q 1547 409 2034 409 
Q 2525 409 2770 889 
Q 3016 1369 3016 2328 
Q 3016 3291 2770 3770 
Q 2525 4250 2034 4250 
z
M 2034 4750 
Q 2819 4750 3233 4129 
Q 3647 3509 3647 2328 
Q 3647 1150 3233 529 
Q 2819 -91 2034 -91 
Q 1250 -91 836 529 
Q 422 1150 422 2328 
Q 422 3509 836 4129 
Q 1250 4750 2034 4750 
z
" transform="scale(0.015625)"/>
       </defs>
       <use xlink:href="#DejaVuSans-30"/>
      </g>
     </g>
    </g>
    <g id="xtick_2">
     <g id="line2d_2">
      <g>
       <use xlink:href="#m0d330d188d" x="130.560788" y="382.679219" style="stroke: #000000; stroke-width: 0.8"/>
      </g>
     </g>
     <g id="text_2">
      <!-- 20 -->
      <g transform="translate(124.198288 397.277656) scale(0.1 -0.1)">
       <defs>
        <path id="DejaVuSans-32" d="M 1228 531 
L 3431 531 
L 3431 0 
L 469 0 
L 469 531 
Q 828 903 1448 1529 
Q 2069 2156 2228 2338 
Q 2531 2678 2651 2914 
Q 2772 3150 2772 3378 
Q 2772 3750 2511 3984 
Q 2250 4219 1831 4219 
Q 1534 4219 1204 4116 
Q 875 4013 500 3803 
L 500 4441 
Q 881 4594 1212 4672 
Q 1544 4750 1819 4750 
Q 2544 4750 2975 4387 
Q 3406 4025 3406 3419 
Q 3406 3131 3298 2873 
Q 3191 2616 2906 2266 
Q 2828 2175 2409 1742 
Q 1991 1309 1228 531 
z
" transform="scale(0.015625)"/>
       </defs>
       <use xlink:href="#DejaVuSans-32"/>
       <use xlink:href="#DejaVuSans-30" x="63.623047"/>
      </g>
     </g>
    </g>
    <g id="xtick_3">
     <g id="line2d_3">
      <g>
       <use xlink:href="#m0d330d188d" x="210.284701" y="382.679219" style="stroke: #000000; stroke-width: 0.8"/>
      </g>
     </g>
     <g id="text_3">
      <!-- 40 -->
      <g transform="translate(203.922201 397.277656) scale(0.1 -0.1)">
       <defs>
        <path id="DejaVuSans-34" d="M 2419 4116 
L 825 1625 
L 2419 1625 
L 2419 4116 
z
M 2253 4666 
L 3047 4666 
L 3047 1625 
L 3713 1625 
L 3713 1100 
L 3047 1100 
L 3047 0 
L 2419 0 
L 2419 1100 
L 313 1100 
L 313 1709 
L 2253 4666 
z
" transform="scale(0.015625)"/>
       </defs>
       <use xlink:href="#DejaVuSans-34"/>
       <use xlink:href="#DejaVuSans-30" x="63.623047"/>
      </g>
     </g>
    </g>
    <g id="xtick_4">
     <g id="line2d_4">
      <g>
       <use xlink:href="#m0d330d188d" x="290.008614" y="382.679219" style="stroke: #000000; stroke-width: 0.8"/>
      </g>
     </g>
     <g id="text_4">
      <!-- 60 -->
      <g transform="translate(283.646114 397.277656) scale(0.1 -0.1)">
       <defs>
        <path id="DejaVuSans-36" d="M 2113 2584 
Q 1688 2584 1439 2293 
Q 1191 2003 1191 1497 
Q 1191 994 1439 701 
Q 1688 409 2113 409 
Q 2538 409 2786 701 
Q 3034 994 3034 1497 
Q 3034 2003 2786 2293 
Q 2538 2584 2113 2584 
z
M 3366 4563 
L 3366 3988 
Q 3128 4100 2886 4159 
Q 2644 4219 2406 4219 
Q 1781 4219 1451 3797 
Q 1122 3375 1075 2522 
Q 1259 2794 1537 2939 
Q 1816 3084 2150 3084 
Q 2853 3084 3261 2657 
Q 3669 2231 3669 1497 
Q 3669 778 3244 343 
Q 2819 -91 2113 -91 
Q 1303 -91 875 529 
Q 447 1150 447 2328 
Q 447 3434 972 4092 
Q 1497 4750 2381 4750 
Q 2619 4750 2861 4703 
Q 3103 4656 3366 4563 
z
" transform="scale(0.015625)"/>
       </defs>
       <use xlink:href="#DejaVuSans-36"/>
       <use xlink:href="#DejaVuSans-30" x="63.623047"/>
      </g>
     </g>
    </g>
    <g id="xtick_5">
     <g id="line2d_5">
      <g>
       <use xlink:href="#m0d330d188d" x="369.732527" y="382.679219" style="stroke: #000000; stroke-width: 0.8"/>
      </g>
     </g>
     <g id="text_5">
      <!-- 80 -->
      <g transform="translate(363.370027 397.277656) scale(0.1 -0.1)">
       <defs>
        <path id="DejaVuSans-38" d="M 2034 2216 
Q 1584 2216 1326 1975 
Q 1069 1734 1069 1313 
Q 1069 891 1326 650 
Q 1584 409 2034 409 
Q 2484 409 2743 651 
Q 3003 894 3003 1313 
Q 3003 1734 2745 1975 
Q 2488 2216 2034 2216 
z
M 1403 2484 
Q 997 2584 770 2862 
Q 544 3141 544 3541 
Q 544 4100 942 4425 
Q 1341 4750 2034 4750 
Q 2731 4750 3128 4425 
Q 3525 4100 3525 3541 
Q 3525 3141 3298 2862 
Q 3072 2584 2669 2484 
Q 3125 2378 3379 2068 
Q 3634 1759 3634 1313 
Q 3634 634 3220 271 
Q 2806 -91 2034 -91 
Q 1263 -91 848 271 
Q 434 634 434 1313 
Q 434 1759 690 2068 
Q 947 2378 1403 2484 
z
M 1172 3481 
Q 1172 3119 1398 2916 
Q 1625 2713 2034 2713 
Q 2441 2713 2670 2916 
Q 2900 3119 2900 3481 
Q 2900 3844 2670 4047 
Q 2441 4250 2034 4250 
Q 1625 4250 1398 4047 
Q 1172 3844 1172 3481 
z
" transform="scale(0.015625)"/>
       </defs>
       <use xlink:href="#DejaVuSans-38"/>
       <use xlink:href="#DejaVuSans-30" x="63.623047"/>
      </g>
     </g>
    </g>
    <g id="text_6">
     <!-- Number of participants -->
     <g transform="translate(153.230469 413.995156) scale(0.14 -0.14)">
      <defs>
       <path id="DejaVuSans-4e" d="M 628 4666 
L 1478 4666 
L 3547 763 
L 3547 4666 
L 4159 4666 
L 4159 0 
L 3309 0 
L 1241 3903 
L 1241 0 
L 628 0 
L 628 4666 
z
" transform="scale(0.015625)"/>
       <path id="DejaVuSans-75" d="M 544 1381 
L 544 3500 
L 1119 3500 
L 1119 1403 
Q 1119 906 1312 657 
Q 1506 409 1894 409 
Q 2359 409 2629 706 
Q 2900 1003 2900 1516 
L 2900 3500 
L 3475 3500 
L 3475 0 
L 2900 0 
L 2900 538 
Q 2691 219 2414 64 
Q 2138 -91 1772 -91 
Q 1169 -91 856 284 
Q 544 659 544 1381 
z
M 1991 3584 
L 1991 3584 
z
" transform="scale(0.015625)"/>
       <path id="DejaVuSans-6d" d="M 3328 2828 
Q 3544 3216 3844 3400 
Q 4144 3584 4550 3584 
Q 5097 3584 5394 3201 
Q 5691 2819 5691 2113 
L 5691 0 
L 5113 0 
L 5113 2094 
Q 5113 2597 4934 2840 
Q 4756 3084 4391 3084 
Q 3944 3084 3684 2787 
Q 3425 2491 3425 1978 
L 3425 0 
L 2847 0 
L 2847 2094 
Q 2847 2600 2669 2842 
Q 2491 3084 2119 3084 
Q 1678 3084 1418 2786 
Q 1159 2488 1159 1978 
L 1159 0 
L 581 0 
L 581 3500 
L 1159 3500 
L 1159 2956 
Q 1356 3278 1631 3431 
Q 1906 3584 2284 3584 
Q 2666 3584 2933 3390 
Q 3200 3197 3328 2828 
z
" transform="scale(0.015625)"/>
       <path id="DejaVuSans-62" d="M 3116 1747 
Q 3116 2381 2855 2742 
Q 2594 3103 2138 3103 
Q 1681 3103 1420 2742 
Q 1159 2381 1159 1747 
Q 1159 1113 1420 752 
Q 1681 391 2138 391 
Q 2594 391 2855 752 
Q 3116 1113 3116 1747 
z
M 1159 2969 
Q 1341 3281 1617 3432 
Q 1894 3584 2278 3584 
Q 2916 3584 3314 3078 
Q 3713 2572 3713 1747 
Q 3713 922 3314 415 
Q 2916 -91 2278 -91 
Q 1894 -91 1617 61 
Q 1341 213 1159 525 
L 1159 0 
L 581 0 
L 581 4863 
L 1159 4863 
L 1159 2969 
z
" transform="scale(0.015625)"/>
       <path id="DejaVuSans-65" d="M 3597 1894 
L 3597 1613 
L 953 1613 
Q 991 1019 1311 708 
Q 1631 397 2203 397 
Q 2534 397 2845 478 
Q 3156 559 3463 722 
L 3463 178 
Q 3153 47 2828 -22 
Q 2503 -91 2169 -91 
Q 1331 -91 842 396 
Q 353 884 353 1716 
Q 353 2575 817 3079 
Q 1281 3584 2069 3584 
Q 2775 3584 3186 3129 
Q 3597 2675 3597 1894 
z
M 3022 2063 
Q 3016 2534 2758 2815 
Q 2500 3097 2075 3097 
Q 1594 3097 1305 2825 
Q 1016 2553 972 2059 
L 3022 2063 
z
" transform="scale(0.015625)"/>
       <path id="DejaVuSans-72" d="M 2631 2963 
Q 2534 3019 2420 3045 
Q 2306 3072 2169 3072 
Q 1681 3072 1420 2755 
Q 1159 2438 1159 1844 
L 1159 0 
L 581 0 
L 581 3500 
L 1159 3500 
L 1159 2956 
Q 1341 3275 1631 3429 
Q 1922 3584 2338 3584 
Q 2397 3584 2469 3576 
Q 2541 3569 2628 3553 
L 2631 2963 
z
" transform="scale(0.015625)"/>
       <path id="DejaVuSans-20" transform="scale(0.015625)"/>
       <path id="DejaVuSans-6f" d="M 1959 3097 
Q 1497 3097 1228 2736 
Q 959 2375 959 1747 
Q 959 1119 1226 758 
Q 1494 397 1959 397 
Q 2419 397 2687 759 
Q 2956 1122 2956 1747 
Q 2956 2369 2687 2733 
Q 2419 3097 1959 3097 
z
M 1959 3584 
Q 2709 3584 3137 3096 
Q 3566 2609 3566 1747 
Q 3566 888 3137 398 
Q 2709 -91 1959 -91 
Q 1206 -91 779 398 
Q 353 888 353 1747 
Q 353 2609 779 3096 
Q 1206 3584 1959 3584 
z
" transform="scale(0.015625)"/>
       <path id="DejaVuSans-66" d="M 2375 4863 
L 2375 4384 
L 1825 4384 
Q 1516 4384 1395 4259 
Q 1275 4134 1275 3809 
L 1275 3500 
L 2222 3500 
L 2222 3053 
L 1275 3053 
L 1275 0 
L 697 0 
L 697 3053 
L 147 3053 
L 147 3500 
L 697 3500 
L 697 3744 
Q 697 4328 969 4595 
Q 1241 4863 1831 4863 
L 2375 4863 
z
" transform="scale(0.015625)"/>
       <path id="DejaVuSans-70" d="M 1159 525 
L 1159 -1331 
L 581 -1331 
L 581 3500 
L 1159 3500 
L 1159 2969 
Q 1341 3281 1617 3432 
Q 1894 3584 2278 3584 
Q 2916 3584 3314 3078 
Q 3713 2572 3713 1747 
Q 3713 922 3314 415 
Q 2916 -91 2278 -91 
Q 1894 -91 1617 61 
Q 1341 213 1159 525 
z
M 3116 1747 
Q 3116 2381 2855 2742 
Q 2594 3103 2138 3103 
Q 1681 3103 1420 2742 
Q 1159 2381 1159 1747 
Q 1159 1113 1420 752 
Q 1681 391 2138 391 
Q 2594 391 2855 752 
Q 3116 1113 3116 1747 
z
" transform="scale(0.015625)"/>
       <path id="DejaVuSans-61" d="M 2194 1759 
Q 1497 1759 1228 1600 
Q 959 1441 959 1056 
Q 959 750 1161 570 
Q 1363 391 1709 391 
Q 2188 391 2477 730 
Q 2766 1069 2766 1631 
L 2766 1759 
L 2194 1759 
z
M 3341 1997 
L 3341 0 
L 2766 0 
L 2766 531 
Q 2569 213 2275 61 
Q 1981 -91 1556 -91 
Q 1019 -91 701 211 
Q 384 513 384 1019 
Q 384 1609 779 1909 
Q 1175 2209 1959 2209 
L 2766 2209 
L 2766 2266 
Q 2766 2663 2505 2880 
Q 2244 3097 1772 3097 
Q 1472 3097 1187 3025 
Q 903 2953 641 2809 
L 641 3341 
Q 956 3463 1253 3523 
Q 1550 3584 1831 3584 
Q 2591 3584 2966 3190 
Q 3341 2797 3341 1997 
z
" transform="scale(0.015625)"/>
       <path id="DejaVuSans-74" d="M 1172 4494 
L 1172 3500 
L 2356 3500 
L 2356 3053 
L 1172 3053 
L 1172 1153 
Q 1172 725 1289 603 
Q 1406 481 1766 481 
L 2356 481 
L 2356 0 
L 1766 0 
Q 1100 0 847 248 
Q 594 497 594 1153 
L 594 3053 
L 172 3053 
L 172 3500 
L 594 3500 
L 594 4494 
L 1172 4494 
z
" transform="scale(0.015625)"/>
       <path id="DejaVuSans-69" d="M 603 3500 
L 1178 3500 
L 1178 0 
L 603 0 
L 603 3500 
z
M 603 4863 
L 1178 4863 
L 1178 4134 
L 603 4134 
L 603 4863 
z
" transform="scale(0.015625)"/>
       <path id="DejaVuSans-63" d="M 3122 3366 
L 3122 2828 
Q 2878 2963 2633 3030 
Q 2388 3097 2138 3097 
Q 1578 3097 1268 2742 
Q 959 2388 959 1747 
Q 959 1106 1268 751 
Q 1578 397 2138 397 
Q 2388 397 2633 464 
Q 2878 531 3122 666 
L 3122 134 
Q 2881 22 2623 -34 
Q 2366 -91 2075 -91 
Q 1284 -91 818 406 
Q 353 903 353 1747 
Q 353 2603 823 3093 
Q 1294 3584 2113 3584 
Q 2378 3584 2631 3529 
Q 2884 3475 3122 3366 
z
" transform="scale(0.015625)"/>
       <path id="DejaVuSans-6e" d="M 3513 2113 
L 3513 0 
L 2938 0 
L 2938 2094 
Q 2938 2591 2744 2837 
Q 2550 3084 2163 3084 
Q 1697 3084 1428 2787 
Q 1159 2491 1159 1978 
L 1159 0 
L 581 0 
L 581 3500 
L 1159 3500 
L 1159 2956 
Q 1366 3272 1645 3428 
Q 1925 3584 2291 3584 
Q 2894 3584 3203 3211 
Q 3513 2838 3513 2113 
z
" transform="scale(0.015625)"/>
       <path id="DejaVuSans-73" d="M 2834 3397 
L 2834 2853 
Q 2591 2978 2328 3040 
Q 2066 3103 1784 3103 
Q 1356 3103 1142 2972 
Q 928 2841 928 2578 
Q 928 2378 1081 2264 
Q 1234 2150 1697 2047 
L 1894 2003 
Q 2506 1872 2764 1633 
Q 3022 1394 3022 966 
Q 3022 478 2636 193 
Q 2250 -91 1575 -91 
Q 1294 -91 989 -36 
Q 684 19 347 128 
L 347 722 
Q 666 556 975 473 
Q 1284 391 1588 391 
Q 1994 391 2212 530 
Q 2431 669 2431 922 
Q 2431 1156 2273 1281 
Q 2116 1406 1581 1522 
L 1381 1569 
Q 847 1681 609 1914 
Q 372 2147 372 2553 
Q 372 3047 722 3315 
Q 1072 3584 1716 3584 
Q 2034 3584 2315 3537 
Q 2597 3491 2834 3397 
z
" transform="scale(0.015625)"/>
      </defs>
      <use xlink:href="#DejaVuSans-4e"/>
      <use xlink:href="#DejaVuSans-75" x="74.804688"/>
      <use xlink:href="#DejaVuSans-6d" x="138.183594"/>
      <use xlink:href="#DejaVuSans-62" x="235.595703"/>
      <use xlink:href="#DejaVuSans-65" x="299.072266"/>
      <use xlink:href="#DejaVuSans-72" x="360.595703"/>
      <use xlink:href="#DejaVuSans-20" x="401.708984"/>
      <use xlink:href="#DejaVuSans-6f" x="433.496094"/>
      <use xlink:href="#DejaVuSans-66" x="494.677734"/>
      <use xlink:href="#DejaVuSans-20" x="529.882812"/>
      <use xlink:href="#DejaVuSans-70" x="561.669922"/>
      <use xlink:href="#DejaVuSans-61" x="625.146484"/>
      <use xlink:href="#DejaVuSans-72" x="686.425781"/>
      <use xlink:href="#DejaVuSans-74" x="727.539062"/>
      <use xlink:href="#DejaVuSans-69" x="766.748047"/>
      <use xlink:href="#DejaVuSans-63" x="794.53125"/>
      <use xlink:href="#DejaVuSans-69" x="849.511719"/>
      <use xlink:href="#DejaVuSans-70" x="877.294922"/>
      <use xlink:href="#DejaVuSans-61" x="940.771484"/>
      <use xlink:href="#DejaVuSans-6e" x="1002.050781"/>
      <use xlink:href="#DejaVuSans-74" x="1065.429688"/>
      <use xlink:href="#DejaVuSans-73" x="1104.638672"/>
     </g>
    </g>
   </g>
   <g id="matplotlib.axis_2">
    <g id="ytick_1">
     <g id="line2d_6">
      <path d="M 50.836875 382.679219 
L 417.566875 382.679219 
" clip-path="url(#pd75a6a82d1)" style="fill: none; stroke-dasharray: 2.96,1.28; stroke-dashoffset: 0; stroke: #c0c0c0; stroke-width: 0.8"/>
     </g>
     <g id="line2d_7">
      <defs>
       <path id="m38a0731a18" d="M 0 0 
L -3.5 0 
" style="stroke: #000000; stroke-width: 0.8"/>
      </defs>
      <g>
       <use xlink:href="#m38a0731a18" x="50.836875" y="382.679219" style="stroke: #000000; stroke-width: 0.8"/>
      </g>
     </g>
     <g id="text_7">
      <!-- 20 -->
      <g transform="translate(31.111875 386.478437) scale(0.1 -0.1)">
       <use xlink:href="#DejaVuSans-32"/>
       <use xlink:href="#DejaVuSans-30" x="63.623047"/>
      </g>
     </g>
    </g>
    <g id="ytick_2">
     <g id="line2d_8">
      <path d="M 50.836875 336.219219 
L 417.566875 336.219219 
" clip-path="url(#pd75a6a82d1)" style="fill: none; stroke-dasharray: 2.96,1.28; stroke-dashoffset: 0; stroke: #c0c0c0; stroke-width: 0.8"/>
     </g>
     <g id="line2d_9">
      <g>
       <use xlink:href="#m38a0731a18" x="50.836875" y="336.219219" style="stroke: #000000; stroke-width: 0.8"/>
      </g>
     </g>
     <g id="text_8">
      <!-- 30 -->
      <g transform="translate(31.111875 340.018437) scale(0.1 -0.1)">
       <defs>
        <path id="DejaVuSans-33" d="M 2597 2516 
Q 3050 2419 3304 2112 
Q 3559 1806 3559 1356 
Q 3559 666 3084 287 
Q 2609 -91 1734 -91 
Q 1441 -91 1130 -33 
Q 819 25 488 141 
L 488 750 
Q 750 597 1062 519 
Q 1375 441 1716 441 
Q 2309 441 2620 675 
Q 2931 909 2931 1356 
Q 2931 1769 2642 2001 
Q 2353 2234 1838 2234 
L 1294 2234 
L 1294 2753 
L 1863 2753 
Q 2328 2753 2575 2939 
Q 2822 3125 2822 3475 
Q 2822 3834 2567 4026 
Q 2313 4219 1838 4219 
Q 1578 4219 1281 4162 
Q 984 4106 628 3988 
L 628 4550 
Q 988 4650 1302 4700 
Q 1616 4750 1894 4750 
Q 2613 4750 3031 4423 
Q 3450 4097 3450 3541 
Q 3450 3153 3228 2886 
Q 3006 2619 2597 2516 
z
" transform="scale(0.015625)"/>
       </defs>
       <use xlink:href="#DejaVuSans-33"/>
       <use xlink:href="#DejaVuSans-30" x="63.623047"/>
      </g>
     </g>
    </g>
    <g id="ytick_3">
     <g id="line2d_10">
      <path d="M 50.836875 289.759219 
L 417.566875 289.759219 
" clip-path="url(#pd75a6a82d1)" style="fill: none; stroke-dasharray: 2.96,1.28; stroke-dashoffset: 0; stroke: #c0c0c0; stroke-width: 0.8"/>
     </g>
     <g id="line2d_11">
      <g>
       <use xlink:href="#m38a0731a18" x="50.836875" y="289.759219" style="stroke: #000000; stroke-width: 0.8"/>
      </g>
     </g>
     <g id="text_9">
      <!-- 40 -->
      <g transform="translate(31.111875 293.558437) scale(0.1 -0.1)">
       <use xlink:href="#DejaVuSans-34"/>
       <use xlink:href="#DejaVuSans-30" x="63.623047"/>
      </g>
     </g>
    </g>
    <g id="ytick_4">
     <g id="line2d_12">
      <path d="M 50.836875 243.299219 
L 417.566875 243.299219 
" clip-path="url(#pd75a6a82d1)" style="fill: none; stroke-dasharray: 2.96,1.28; stroke-dashoffset: 0; stroke: #c0c0c0; stroke-width: 0.8"/>
     </g>
     <g id="line2d_13">
      <g>
       <use xlink:href="#m38a0731a18" x="50.836875" y="243.299219" style="stroke: #000000; stroke-width: 0.8"/>
      </g>
     </g>
     <g id="text_10">
      <!-- 50 -->
      <g transform="translate(31.111875 247.098437) scale(0.1 -0.1)">
       <defs>
        <path id="DejaVuSans-35" d="M 691 4666 
L 3169 4666 
L 3169 4134 
L 1269 4134 
L 1269 2991 
Q 1406 3038 1543 3061 
Q 1681 3084 1819 3084 
Q 2600 3084 3056 2656 
Q 3513 2228 3513 1497 
Q 3513 744 3044 326 
Q 2575 -91 1722 -91 
Q 1428 -91 1123 -41 
Q 819 9 494 109 
L 494 744 
Q 775 591 1075 516 
Q 1375 441 1709 441 
Q 2250 441 2565 725 
Q 2881 1009 2881 1497 
Q 2881 1984 2565 2268 
Q 2250 2553 1709 2553 
Q 1456 2553 1204 2497 
Q 953 2441 691 2322 
L 691 4666 
z
" transform="scale(0.015625)"/>
       </defs>
       <use xlink:href="#DejaVuSans-35"/>
       <use xlink:href="#DejaVuSans-30" x="63.623047"/>
      </g>
     </g>
    </g>
    <g id="ytick_5">
     <g id="line2d_14">
      <path d="M 50.836875 196.839219 
L 417.566875 196.839219 
" clip-path="url(#pd75a6a82d1)" style="fill: none; stroke-dasharray: 2.96,1.28; stroke-dashoffset: 0; stroke: #c0c0c0; stroke-width: 0.8"/>
     </g>
     <g id="line2d_15">
      <g>
       <use xlink:href="#m38a0731a18" x="50.836875" y="196.839219" style="stroke: #000000; stroke-width: 0.8"/>
      </g>
     </g>
     <g id="text_11">
      <!-- 60 -->
      <g transform="translate(31.111875 200.638437) scale(0.1 -0.1)">
       <use xlink:href="#DejaVuSans-36"/>
       <use xlink:href="#DejaVuSans-30" x="63.623047"/>
      </g>
     </g>
    </g>
    <g id="ytick_6">
     <g id="line2d_16">
      <path d="M 50.836875 150.379219 
L 417.566875 150.379219 
" clip-path="url(#pd75a6a82d1)" style="fill: none; stroke-dasharray: 2.96,1.28; stroke-dashoffset: 0; stroke: #c0c0c0; stroke-width: 0.8"/>
     </g>
     <g id="line2d_17">
      <g>
       <use xlink:href="#m38a0731a18" x="50.836875" y="150.379219" style="stroke: #000000; stroke-width: 0.8"/>
      </g>
     </g>
     <g id="text_12">
      <!-- 70 -->
      <g transform="translate(31.111875 154.178438) scale(0.1 -0.1)">
       <defs>
        <path id="DejaVuSans-37" d="M 525 4666 
L 3525 4666 
L 3525 4397 
L 1831 0 
L 1172 0 
L 2766 4134 
L 525 4134 
L 525 4666 
z
" transform="scale(0.015625)"/>
       </defs>
       <use xlink:href="#DejaVuSans-37"/>
       <use xlink:href="#DejaVuSans-30" x="63.623047"/>
      </g>
     </g>
    </g>
    <g id="ytick_7">
     <g id="line2d_18">
      <path d="M 50.836875 103.919219 
L 417.566875 103.919219 
" clip-path="url(#pd75a6a82d1)" style="fill: none; stroke-dasharray: 2.96,1.28; stroke-dashoffset: 0; stroke: #c0c0c0; stroke-width: 0.8"/>
     </g>
     <g id="line2d_19">
      <g>
       <use xlink:href="#m38a0731a18" x="50.836875" y="103.919219" style="stroke: #000000; stroke-width: 0.8"/>
      </g>
     </g>
     <g id="text_13">
      <!-- 80 -->
      <g transform="translate(31.111875 107.718437) scale(0.1 -0.1)">
       <use xlink:href="#DejaVuSans-38"/>
       <use xlink:href="#DejaVuSans-30" x="63.623047"/>
      </g>
     </g>
    </g>
    <g id="ytick_8">
     <g id="line2d_20">
      <path d="M 50.836875 57.459219 
L 417.566875 57.459219 
" clip-path="url(#pd75a6a82d1)" style="fill: none; stroke-dasharray: 2.96,1.28; stroke-dashoffset: 0; stroke: #c0c0c0; stroke-width: 0.8"/>
     </g>
     <g id="line2d_21">
      <g>
       <use xlink:href="#m38a0731a18" x="50.836875" y="57.459219" style="stroke: #000000; stroke-width: 0.8"/>
      </g>
     </g>
     <g id="text_14">
      <!-- 90 -->
      <g transform="translate(31.111875 61.258438) scale(0.1 -0.1)">
       <defs>
        <path id="DejaVuSans-39" d="M 703 97 
L 703 672 
Q 941 559 1184 500 
Q 1428 441 1663 441 
Q 2288 441 2617 861 
Q 2947 1281 2994 2138 
Q 2813 1869 2534 1725 
Q 2256 1581 1919 1581 
Q 1219 1581 811 2004 
Q 403 2428 403 3163 
Q 403 3881 828 4315 
Q 1253 4750 1959 4750 
Q 2769 4750 3195 4129 
Q 3622 3509 3622 2328 
Q 3622 1225 3098 567 
Q 2575 -91 1691 -91 
Q 1453 -91 1209 -44 
Q 966 3 703 97 
z
M 1959 2075 
Q 2384 2075 2632 2365 
Q 2881 2656 2881 3163 
Q 2881 3666 2632 3958 
Q 2384 4250 1959 4250 
Q 1534 4250 1286 3958 
Q 1038 3666 1038 3163 
Q 1038 2656 1286 2365 
Q 1534 2075 1959 2075 
z
" transform="scale(0.015625)"/>
       </defs>
       <use xlink:href="#DejaVuSans-39"/>
       <use xlink:href="#DejaVuSans-30" x="63.623047"/>
      </g>
     </g>
    </g>
    <g id="ytick_9">
     <g id="line2d_22">
      <path d="M 50.836875 10.999219 
L 417.566875 10.999219 
" clip-path="url(#pd75a6a82d1)" style="fill: none; stroke-dasharray: 2.96,1.28; stroke-dashoffset: 0; stroke: #c0c0c0; stroke-width: 0.8"/>
     </g>
     <g id="line2d_23">
      <g>
       <use xlink:href="#m38a0731a18" x="50.836875" y="10.999219" style="stroke: #000000; stroke-width: 0.8"/>
      </g>
     </g>
     <g id="text_15">
      <!-- 100 -->
      <g transform="translate(24.749375 14.798438) scale(0.1 -0.1)">
       <defs>
        <path id="DejaVuSans-31" d="M 794 531 
L 1825 531 
L 1825 4091 
L 703 3866 
L 703 4441 
L 1819 4666 
L 2450 4666 
L 2450 531 
L 3481 531 
L 3481 0 
L 794 0 
L 794 531 
z
" transform="scale(0.015625)"/>
       </defs>
       <use xlink:href="#DejaVuSans-31"/>
       <use xlink:href="#DejaVuSans-30" x="63.623047"/>
       <use xlink:href="#DejaVuSans-30" x="127.246094"/>
      </g>
     </g>
    </g>
    <g id="text_16">
     <!-- Success Rate (%) -->
     <g transform="translate(17.837812 257.627656) rotate(-90) scale(0.14 -0.14)">
      <defs>
       <path id="DejaVuSans-53" d="M 3425 4513 
L 3425 3897 
Q 3066 4069 2747 4153 
Q 2428 4238 2131 4238 
Q 1616 4238 1336 4038 
Q 1056 3838 1056 3469 
Q 1056 3159 1242 3001 
Q 1428 2844 1947 2747 
L 2328 2669 
Q 3034 2534 3370 2195 
Q 3706 1856 3706 1288 
Q 3706 609 3251 259 
Q 2797 -91 1919 -91 
Q 1588 -91 1214 -16 
Q 841 59 441 206 
L 441 856 
Q 825 641 1194 531 
Q 1563 422 1919 422 
Q 2459 422 2753 634 
Q 3047 847 3047 1241 
Q 3047 1584 2836 1778 
Q 2625 1972 2144 2069 
L 1759 2144 
Q 1053 2284 737 2584 
Q 422 2884 422 3419 
Q 422 4038 858 4394 
Q 1294 4750 2059 4750 
Q 2388 4750 2728 4690 
Q 3069 4631 3425 4513 
z
" transform="scale(0.015625)"/>
       <path id="DejaVuSans-52" d="M 2841 2188 
Q 3044 2119 3236 1894 
Q 3428 1669 3622 1275 
L 4263 0 
L 3584 0 
L 2988 1197 
Q 2756 1666 2539 1819 
Q 2322 1972 1947 1972 
L 1259 1972 
L 1259 0 
L 628 0 
L 628 4666 
L 2053 4666 
Q 2853 4666 3247 4331 
Q 3641 3997 3641 3322 
Q 3641 2881 3436 2590 
Q 3231 2300 2841 2188 
z
M 1259 4147 
L 1259 2491 
L 2053 2491 
Q 2509 2491 2742 2702 
Q 2975 2913 2975 3322 
Q 2975 3731 2742 3939 
Q 2509 4147 2053 4147 
L 1259 4147 
z
" transform="scale(0.015625)"/>
       <path id="DejaVuSans-28" d="M 1984 4856 
Q 1566 4138 1362 3434 
Q 1159 2731 1159 2009 
Q 1159 1288 1364 580 
Q 1569 -128 1984 -844 
L 1484 -844 
Q 1016 -109 783 600 
Q 550 1309 550 2009 
Q 550 2706 781 3412 
Q 1013 4119 1484 4856 
L 1984 4856 
z
" transform="scale(0.015625)"/>
       <path id="DejaVuSans-25" d="M 4653 2053 
Q 4381 2053 4226 1822 
Q 4072 1591 4072 1178 
Q 4072 772 4226 539 
Q 4381 306 4653 306 
Q 4919 306 5073 539 
Q 5228 772 5228 1178 
Q 5228 1588 5073 1820 
Q 4919 2053 4653 2053 
z
M 4653 2450 
Q 5147 2450 5437 2106 
Q 5728 1763 5728 1178 
Q 5728 594 5436 251 
Q 5144 -91 4653 -91 
Q 4153 -91 3862 251 
Q 3572 594 3572 1178 
Q 3572 1766 3864 2108 
Q 4156 2450 4653 2450 
z
M 1428 4353 
Q 1159 4353 1004 4120 
Q 850 3888 850 3481 
Q 850 3069 1003 2837 
Q 1156 2606 1428 2606 
Q 1700 2606 1854 2837 
Q 2009 3069 2009 3481 
Q 2009 3884 1853 4118 
Q 1697 4353 1428 4353 
z
M 4250 4750 
L 4750 4750 
L 1831 -91 
L 1331 -91 
L 4250 4750 
z
M 1428 4750 
Q 1922 4750 2215 4408 
Q 2509 4066 2509 3481 
Q 2509 2891 2217 2550 
Q 1925 2209 1428 2209 
Q 931 2209 642 2551 
Q 353 2894 353 3481 
Q 353 4063 643 4406 
Q 934 4750 1428 4750 
z
" transform="scale(0.015625)"/>
       <path id="DejaVuSans-29" d="M 513 4856 
L 1013 4856 
Q 1481 4119 1714 3412 
Q 1947 2706 1947 2009 
Q 1947 1309 1714 600 
Q 1481 -109 1013 -844 
L 513 -844 
Q 928 -128 1133 580 
Q 1338 1288 1338 2009 
Q 1338 2731 1133 3434 
Q 928 4138 513 4856 
z
" transform="scale(0.015625)"/>
      </defs>
      <use xlink:href="#DejaVuSans-53"/>
      <use xlink:href="#DejaVuSans-75" x="63.476562"/>
      <use xlink:href="#DejaVuSans-63" x="126.855469"/>
      <use xlink:href="#DejaVuSans-63" x="181.835938"/>
      <use xlink:href="#DejaVuSans-65" x="236.816406"/>
      <use xlink:href="#DejaVuSans-73" x="298.339844"/>
      <use xlink:href="#DejaVuSans-73" x="350.439453"/>
      <use xlink:href="#DejaVuSans-20" x="402.539062"/>
      <use xlink:href="#DejaVuSans-52" x="434.326172"/>
      <use xlink:href="#DejaVuSans-61" x="501.558594"/>
      <use xlink:href="#DejaVuSans-74" x="562.837891"/>
      <use xlink:href="#DejaVuSans-65" x="602.046875"/>
      <use xlink:href="#DejaVuSans-20" x="663.570312"/>
      <use xlink:href="#DejaVuSans-28" x="695.357422"/>
      <use xlink:href="#DejaVuSans-25" x="734.371094"/>
      <use xlink:href="#DejaVuSans-29" x="829.390625"/>
     </g>
    </g>
   </g>
   <g id="PolyCollection_1">
    <defs>
     <path id="m301a378248" d="M 50.836875 -124.1263 
L 50.836875 -124.1263 
L 54.823071 -127.498052 
L 58.809266 -128.488031 
L 62.795462 -125.432648 
L 66.781658 -124.096559 
L 70.767853 -130.92705 
L 74.754049 -138.606533 
L 78.740245 -138.43837 
L 82.72644 -134.177387 
L 86.712636 -136.581684 
L 90.698832 -141.282772 
L 94.685027 -140.797717 
L 98.671223 -139.094838 
L 102.657418 -138.519038 
L 106.643614 -136.632007 
L 110.62981 -133.545132 
L 114.616005 -133.833008 
L 118.602201 -136.20303 
L 122.588397 -136.13629 
L 126.574592 -135.008398 
L 130.560788 -133.083331 
L 134.546984 -131.809858 
L 138.533179 -134.274014 
L 142.519375 -135.228542 
L 146.505571 -134.125406 
L 150.491766 -134.082615 
L 154.477962 -135.202737 
L 158.464158 -137.576403 
L 162.450353 -139.451579 
L 166.436549 -140.298644 
L 170.422745 -139.785602 
L 174.40894 -137.995073 
L 178.395136 -138.489734 
L 182.381332 -140.270635 
L 186.367527 -141.245542 
L 190.353723 -140.84316 
L 194.339918 -139.854808 
L 198.326114 -140.178221 
L 202.31231 -140.433047 
L 206.298505 -141.215775 
L 210.284701 -142.476616 
L 214.270897 -142.162902 
L 218.257092 -140.815096 
L 222.243288 -139.681663 
L 226.229484 -139.639225 
L 230.215679 -139.65522 
L 234.201875 -139.471721 
L 238.188071 -140.236101 
L 242.174266 -140.518649 
L 246.160462 -140.153226 
L 250.146658 -140.522366 
L 254.132853 -140.942277 
L 258.119049 -141.251239 
L 262.105245 -141.947098 
L 266.09144 -142.700457 
L 270.077636 -143.059551 
L 274.063832 -143.131416 
L 278.050027 -143.137064 
L 282.036223 -143.13723 
L 286.022418 -143.13723 
L 290.008614 -143.13723 
L 293.99481 -143.13723 
L 297.981005 -143.13723 
L 301.967201 -143.13723 
L 305.953397 -143.13723 
L 309.939592 -143.13723 
L 313.925788 -143.13723 
L 317.911984 -143.13723 
L 321.898179 -143.13723 
L 325.884375 -143.13723 
L 329.870571 -143.13723 
L 333.856766 -143.13723 
L 337.842962 -143.13723 
L 341.829158 -143.13723 
L 345.815353 -143.13723 
L 349.801549 -143.13723 
L 353.787745 -143.13723 
L 357.77394 -143.13723 
L 361.760136 -143.13723 
L 365.746332 -143.13723 
L 369.732527 -143.13723 
L 373.718723 -143.13723 
L 377.704918 -143.13723 
L 381.691114 -143.13723 
L 385.67731 -143.13723 
L 389.663505 -143.13723 
L 393.649701 -143.13723 
L 397.635897 -143.13723 
L 401.622092 -143.13723 
L 405.608288 -143.13723 
L 409.594484 -143.13723 
L 413.580679 -143.13723 
L 417.566875 -143.13723 
L 421.553071 -143.13723 
L 421.553071 -143.13723 
L 421.553071 -143.13723 
L 417.566875 -143.13723 
L 413.580679 -143.13723 
L 409.594484 -143.13723 
L 405.608288 -143.13723 
L 401.622092 -143.13723 
L 397.635897 -143.13723 
L 393.649701 -143.13723 
L 389.663505 -143.13723 
L 385.67731 -143.13723 
L 381.691114 -143.13723 
L 377.704918 -143.13723 
L 373.718723 -143.13723 
L 369.732527 -143.13723 
L 365.746332 -143.13723 
L 361.760136 -143.13723 
L 357.77394 -143.13723 
L 353.787745 -143.13723 
L 349.801549 -143.13723 
L 345.815353 -143.13723 
L 341.829158 -143.13723 
L 337.842962 -143.13723 
L 333.856766 -143.13723 
L 329.870571 -143.13723 
L 325.884375 -143.13723 
L 321.898179 -143.13723 
L 317.911984 -143.13723 
L 313.925788 -143.13723 
L 309.939592 -143.13723 
L 305.953397 -143.13723 
L 301.967201 -143.13723 
L 297.981005 -143.13723 
L 293.99481 -143.13723 
L 290.008614 -143.13723 
L 286.022418 -143.13723 
L 282.036223 -143.13723 
L 278.050027 -143.136447 
L 274.063832 -143.110336 
L 270.077636 -142.787642 
L 266.09144 -141.275485 
L 262.105245 -138.35253 
L 258.119049 -135.248211 
L 254.132853 -132.580744 
L 250.146658 -130.90645 
L 246.160462 -130.676538 
L 242.174266 -131.061897 
L 238.188071 -129.771866 
L 234.201875 -127.927874 
L 230.215679 -127.443892 
L 226.229484 -127.259373 
L 222.243288 -127.34578 
L 218.257092 -128.041771 
L 214.270897 -128.412512 
L 210.284701 -127.816169 
L 206.298505 -126.310183 
L 202.31231 -125.765641 
L 198.326114 -125.863642 
L 194.339918 -125.458569 
L 190.353723 -125.487888 
L 186.367527 -125.255073 
L 182.381332 -123.885775 
L 178.395136 -121.654761 
L 174.40894 -121.384789 
L 170.422745 -123.804128 
L 166.436549 -124.965449 
L 162.450353 -123.820491 
L 158.464158 -120.628155 
L 154.477962 -118.103133 
L 150.491766 -117.546404 
L 146.505571 -115.966805 
L 142.519375 -115.165953 
L 138.533179 -114.113981 
L 134.546984 -113.038735 
L 130.560788 -115.269522 
L 126.574592 -117.540318 
L 122.588397 -119.318757 
L 118.602201 -120.147575 
L 114.616005 -118.800478 
L 110.62981 -118.492288 
L 106.643614 -120.794442 
L 102.657418 -122.454513 
L 98.671223 -121.693261 
L 94.685027 -120.344101 
L 90.698832 -119.199653 
L 86.712636 -114.026924 
L 82.72644 -110.092122 
L 78.740245 -112.445226 
L 74.754049 -110.850509 
L 70.767853 -104.544597 
L 66.781658 -98.229908 
L 62.795462 -98.611953 
L 58.809266 -106.662447 
L 54.823071 -115.847482 
L 50.836875 -124.1263 
z
" style="stroke: #8e0052; stroke-opacity: 0.1"/>
    </defs>
    <g clip-path="url(#pd75a6a82d1)">
     <use xlink:href="#m301a378248" x="0" y="424.106719" style="fill: #8e0052; fill-opacity: 0.1; stroke: #8e0052; stroke-opacity: 0.1"/>
    </g>
   </g>
   <g id="PolyCollection_2">
    <defs>
     <path id="m15558a6b84" d="M 50.836875 -174.3031 
L 50.836875 -174.3031 
L 54.823071 -170.110756 
L 58.809266 -166.440262 
L 62.795462 -171.553083 
L 66.781658 -187.055281 
L 70.767853 -193.596455 
L 74.754049 -190.456221 
L 78.740245 -188.708039 
L 82.72644 -190.299233 
L 86.712636 -192.844306 
L 90.698832 -193.143771 
L 94.685027 -193.42041 
L 98.671223 -194.537148 
L 102.657418 -196.073997 
L 106.643614 -198.789082 
L 110.62981 -199.678662 
L 114.616005 -197.317644 
L 118.602201 -196.163655 
L 122.588397 -198.568776 
L 126.574592 -202.034679 
L 130.560788 -204.706049 
L 134.546984 -205.922246 
L 138.533179 -206.99884 
L 142.519375 -208.889817 
L 146.505571 -210.475975 
L 150.491766 -212.452773 
L 154.477962 -213.932355 
L 158.464158 -213.712254 
L 162.450353 -213.655694 
L 166.436549 -215.041515 
L 170.422745 -217.841942 
L 174.40894 -220.540921 
L 178.395136 -222.258695 
L 182.381332 -224.416135 
L 186.367527 -227.231447 
L 190.353723 -229.303424 
L 194.339918 -229.966287 
L 198.326114 -231.07378 
L 202.31231 -233.222026 
L 206.298505 -235.652115 
L 210.284701 -236.994731 
L 214.270897 -237.288225 
L 218.257092 -237.312184 
L 222.243288 -237.312905 
L 226.229484 -237.312905 
L 230.215679 -237.312905 
L 234.201875 -237.312905 
L 238.188071 -237.312905 
L 242.174266 -237.312905 
L 246.160462 -237.312905 
L 250.146658 -237.312905 
L 254.132853 -237.312905 
L 258.119049 -237.312905 
L 262.105245 -237.312905 
L 266.09144 -237.312905 
L 270.077636 -237.312905 
L 274.063832 -237.312905 
L 278.050027 -237.312905 
L 282.036223 -237.312905 
L 286.022418 -237.312905 
L 290.008614 -237.312905 
L 293.99481 -237.312905 
L 297.981005 -237.312905 
L 301.967201 -237.312905 
L 305.953397 -237.312905 
L 309.939592 -237.312905 
L 313.925788 -237.312905 
L 317.911984 -237.312905 
L 321.898179 -237.312905 
L 325.884375 -237.312905 
L 329.870571 -237.312905 
L 333.856766 -237.312905 
L 337.842962 -237.312905 
L 341.829158 -237.312905 
L 345.815353 -237.312905 
L 349.801549 -237.312905 
L 353.787745 -237.312905 
L 357.77394 -237.312905 
L 361.760136 -237.312905 
L 365.746332 -237.312905 
L 369.732527 -237.312905 
L 373.718723 -237.312905 
L 377.704918 -237.312905 
L 381.691114 -237.312905 
L 385.67731 -237.312905 
L 389.663505 -237.312905 
L 393.649701 -237.312905 
L 397.635897 -237.312905 
L 401.622092 -237.312905 
L 405.608288 -237.312905 
L 409.594484 -237.312905 
L 413.580679 -237.312905 
L 417.566875 -237.312905 
L 421.553071 -237.312905 
L 421.553071 -237.312905 
L 421.553071 -237.312905 
L 417.566875 -237.312905 
L 413.580679 -237.312905 
L 409.594484 -237.312905 
L 405.608288 -237.312905 
L 401.622092 -237.312905 
L 397.635897 -237.312905 
L 393.649701 -237.312905 
L 389.663505 -237.312905 
L 385.67731 -237.312905 
L 381.691114 -237.312905 
L 377.704918 -237.312905 
L 373.718723 -237.312905 
L 369.732527 -237.312905 
L 365.746332 -237.312905 
L 361.760136 -237.312905 
L 357.77394 -237.312905 
L 353.787745 -237.312905 
L 349.801549 -237.312905 
L 345.815353 -237.312905 
L 341.829158 -237.312905 
L 337.842962 -237.312905 
L 333.856766 -237.312905 
L 329.870571 -237.312905 
L 325.884375 -237.312905 
L 321.898179 -237.312905 
L 317.911984 -237.312905 
L 313.925788 -237.312905 
L 309.939592 -237.312905 
L 305.953397 -237.312905 
L 301.967201 -237.312905 
L 297.981005 -237.312905 
L 293.99481 -237.312905 
L 290.008614 -237.312905 
L 286.022418 -237.312905 
L 282.036223 -237.312905 
L 278.050027 -237.312905 
L 274.063832 -237.312905 
L 270.077636 -237.312905 
L 266.09144 -237.312905 
L 262.105245 -237.312905 
L 258.119049 -237.312905 
L 254.132853 -237.312905 
L 250.146658 -237.312905 
L 246.160462 -237.312905 
L 242.174266 -237.312905 
L 238.188071 -237.312905 
L 234.201875 -237.312905 
L 230.215679 -237.312905 
L 226.229484 -237.312905 
L 222.243288 -237.312905 
L 218.257092 -237.311548 
L 214.270897 -237.266436 
L 210.284701 -236.712686 
L 206.298505 -234.171837 
L 202.31231 -229.615129 
L 198.326114 -225.908158 
L 194.339918 -224.310063 
L 190.353723 -223.525405 
L 186.367527 -220.905763 
L 182.381332 -216.820506 
L 178.395136 -213.173624 
L 174.40894 -210.92292 
L 170.422745 -208.39178 
L 166.436549 -205.046752 
L 162.450353 -202.578996 
L 158.464158 -201.673579 
L 154.477962 -200.782801 
L 150.491766 -198.230927 
L 146.505571 -196.055464 
L 142.519375 -195.302022 
L 138.533179 -193.417673 
L 134.546984 -191.077181 
L 130.560788 -189.59363 
L 126.574592 -188.025666 
L 122.588397 -185.419152 
L 118.602201 -183.048936 
L 114.616005 -182.885077 
L 110.62981 -184.427251 
L 106.643614 -184.2164 
L 102.657418 -181.453367 
L 98.671223 -178.533275 
L 94.685027 -176.207846 
L 90.698832 -174.866135 
L 86.712636 -175.22903 
L 82.72644 -174.644431 
L 78.740245 -173.936349 
L 74.754049 -175.710291 
L 70.767853 -179.626179 
L 66.781658 -175.416215 
L 62.795462 -162.203961 
L 58.809266 -160.362966 
L 54.823071 -167.407898 
L 50.836875 -174.3031 
z
" style="stroke: #276319; stroke-opacity: 0.1"/>
    </defs>
    <g clip-path="url(#pd75a6a82d1)">
     <use xlink:href="#m15558a6b84" x="0" y="424.106719" style="fill: #276319; fill-opacity: 0.1; stroke: #276319; stroke-opacity: 0.1"/>
    </g>
   </g>
   <g id="PolyCollection_3">
    <defs>
     <path id="m875cdb8420" d="M 50.836875 -149.2147 
L 50.836875 -149.2147 
L 54.823071 -153.098694 
L 58.809266 -159.550481 
L 62.795462 -170.417261 
L 66.781658 -182.942606 
L 70.767853 -189.775194 
L 74.754049 -186.37349 
L 78.740245 -181.367034 
L 82.72644 -181.248179 
L 86.712636 -185.091128 
L 90.698832 -183.627287 
L 94.685027 -178.349679 
L 98.671223 -182.751554 
L 102.657418 -187.863127 
L 106.643614 -188.320725 
L 110.62981 -189.300923 
L 114.616005 -189.206219 
L 118.602201 -187.01624 
L 122.588397 -186.186482 
L 126.574592 -186.2826 
L 130.560788 -187.64892 
L 134.546984 -192.040206 
L 138.533179 -196.383186 
L 142.519375 -199.937056 
L 146.505571 -201.461288 
L 150.491766 -199.125142 
L 154.477962 -196.376495 
L 158.464158 -197.372926 
L 162.450353 -200.929265 
L 166.436549 -203.114966 
L 170.422745 -202.563059 
L 174.40894 -202.290715 
L 178.395136 -201.811503 
L 182.381332 -201.616615 
L 186.367527 -202.237211 
L 190.353723 -203.236482 
L 194.339918 -204.036694 
L 198.326114 -203.758306 
L 202.31231 -203.533148 
L 206.298505 -204.959288 
L 210.284701 -206.66796 
L 214.270897 -206.883335 
L 218.257092 -205.526656 
L 222.243288 -204.448376 
L 226.229484 -205.662149 
L 230.215679 -207.816089 
L 234.201875 -208.796164 
L 238.188071 -210.000714 
L 242.174266 -211.116276 
L 246.160462 -211.245047 
L 250.146658 -210.907373 
L 254.132853 -210.605256 
L 258.119049 -210.333478 
L 262.105245 -210.215192 
L 266.09144 -209.788501 
L 270.077636 -210.499525 
L 274.063832 -212.754572 
L 278.050027 -214.21038 
L 282.036223 -213.819301 
L 286.022418 -212.555892 
L 290.008614 -211.413155 
L 293.99481 -211.163699 
L 297.981005 -211.360723 
L 301.967201 -211.53512 
L 305.953397 -212.033286 
L 309.939592 -212.574236 
L 313.925788 -212.790466 
L 317.911984 -213.158558 
L 321.898179 -213.678807 
L 325.884375 -214.174147 
L 329.870571 -213.989994 
L 333.856766 -213.696673 
L 337.842962 -214.330556 
L 341.829158 -214.645816 
L 345.815353 -214.031029 
L 349.801549 -213.522803 
L 353.787745 -213.757329 
L 357.77394 -214.126488 
L 361.760136 -214.124304 
L 365.746332 -214.415729 
L 369.732527 -214.695973 
L 373.718723 -214.65397 
L 377.704918 -214.640322 
L 381.691114 -214.258508 
L 385.67731 -213.580901 
L 389.663505 -213.317255 
L 393.649701 -213.379125 
L 397.635897 -213.300893 
L 401.622092 -212.50764 
L 405.608288 -210.991347 
L 409.594484 -208.963779 
L 413.580679 -207.054166 
L 417.566875 -206.126825 
L 421.553071 -205.937044 
L 421.553071 -205.924966 
L 421.553071 -205.924966 
L 417.566875 -205.971801 
L 413.580679 -206.203783 
L 409.594484 -206.728792 
L 405.608288 -207.503401 
L 401.622092 -208.361641 
L 397.635897 -208.781096 
L 393.649701 -208.580389 
L 389.663505 -208.173449 
L 385.67731 -208.055535 
L 381.691114 -208.525169 
L 377.704918 -208.863457 
L 373.718723 -208.718681 
L 369.732527 -208.594487 
L 365.746332 -208.227221 
L 361.760136 -207.637486 
L 357.77394 -207.278019 
L 353.787745 -206.785377 
L 349.801549 -206.60684 
L 345.815353 -207.103769 
L 341.829158 -207.636712 
L 337.842962 -207.246958 
L 333.856766 -206.207553 
L 329.870571 -205.835355 
L 325.884375 -205.587251 
L 321.898179 -204.979252 
L 317.911984 -204.280006 
L 313.925788 -203.775369 
L 309.939592 -203.990393 
L 305.953397 -203.736174 
L 301.967201 -202.871383 
L 297.981005 -202.624458 
L 293.99481 -202.765746 
L 290.008614 -202.993556 
L 286.022418 -203.435637 
L 282.036223 -204.0499 
L 278.050027 -204.17367 
L 274.063832 -202.403628 
L 270.077636 -200.150586 
L 266.09144 -199.586082 
L 262.105245 -199.690295 
L 258.119049 -199.052711 
L 254.132853 -199.153688 
L 250.146658 -199.821915 
L 246.160462 -200.181684 
L 242.174266 -199.486781 
L 238.188071 -198.419381 
L 234.201875 -197.569938 
L 230.215679 -196.639939 
L 226.229484 -194.048748 
L 222.243288 -191.616805 
L 218.257092 -191.495586 
L 214.270897 -192.901351 
L 210.284701 -193.220098 
L 206.298505 -191.581454 
L 202.31231 -190.084809 
L 198.326114 -190.766893 
L 194.339918 -191.553254 
L 190.353723 -190.577143 
L 186.367527 -188.900228 
L 182.381332 -187.391435 
L 178.395136 -187.07352 
L 174.40894 -187.555893 
L 170.422745 -188.153533 
L 166.436549 -189.204067 
L 162.450353 -186.261115 
L 158.464158 -181.217724 
L 154.477962 -180.081858 
L 150.491766 -182.051931 
L 146.505571 -182.331456 
L 142.519375 -179.90797 
L 138.533179 -177.677232 
L 134.546984 -173.324192 
L 130.560788 -167.033567 
L 126.574592 -165.291401 
L 122.588397 -165.699528 
L 118.602201 -167.587655 
L 114.616005 -170.607047 
L 110.62981 -171.380047 
L 106.643614 -170.465485 
L 102.657418 -167.957447 
L 98.671223 -160.811417 
L 94.685027 -155.612747 
L 90.698832 -162.108374 
L 86.712636 -165.06168 
L 82.72644 -163.241687 
L 78.740245 -165.66473 
L 74.754049 -169.845164 
L 70.767853 -170.025758 
L 66.781658 -164.826447 
L 62.795462 -157.497746 
L 58.809266 -152.37758 
L 54.823071 -150.209872 
L 50.836875 -149.2147 
z
" style="stroke: #6f9fc7; stroke-opacity: 0.1"/>
    </defs>
    <g clip-path="url(#pd75a6a82d1)">
     <use xlink:href="#m875cdb8420" x="0" y="424.106719" style="fill: #6f9fc7; fill-opacity: 0.1; stroke: #6f9fc7; stroke-opacity: 0.1"/>
    </g>
   </g>
   <g id="line2d_24">
    <path d="M 50.836875 299.980419 
L 54.823071 300.49219 
L 58.809266 302.893882 
L 62.795462 307.614303 
L 66.781658 308.632377 
L 70.767853 301.97382 
L 74.754049 294.752194 
L 78.740245 294.33273 
L 82.72644 297.957753 
L 86.712636 295.043288 
L 90.698832 290.184986 
L 94.685027 290.126874 
L 98.671223 290.812406 
L 102.657418 290.942523 
L 106.643614 292.7539 
L 110.62981 295.579202 
L 114.616005 295.284554 
L 118.602201 293.255507 
L 122.588397 293.576273 
L 126.574592 294.921014 
L 130.560788 296.961324 
L 134.546984 298.553902 
L 138.533179 296.552715 
L 142.519375 295.565707 
L 146.505571 296.03418 
L 150.491766 295.536174 
L 154.477962 294.60385 
L 158.464158 292.179732 
L 162.450353 289.865503 
L 166.436549 288.91914 
L 170.422745 289.648275 
L 174.40894 291.648407 
L 178.395136 291.228642 
L 182.381332 289.297704 
L 186.367527 288.191333 
L 190.353723 288.381983 
L 194.339918 289.050657 
L 198.326114 288.700024 
L 202.31231 288.562807 
L 206.298505 287.859474 
L 210.284701 286.516919 
L 214.270897 286.52728 
L 218.257092 287.549398 
L 222.243288 288.537017 
L 226.229484 288.594111 
L 230.215679 288.521941 
L 234.201875 288.482947 
L 238.188071 287.358696 
L 242.174266 286.740321 
L 246.160462 287.112389 
L 250.146658 286.789658 
L 254.132853 285.951619 
L 258.119049 284.856489 
L 262.105245 283.35781 
L 266.09144 281.881252 
L 270.077636 281.137804 
L 274.063832 280.982329 
L 278.050027 280.969861 
L 282.036223 280.969489 
L 286.022418 280.969489 
L 290.008614 280.969489 
L 293.99481 280.969489 
L 297.981005 280.969489 
L 301.967201 280.969489 
L 305.953397 280.969489 
L 309.939592 280.969489 
L 313.925788 280.969489 
L 317.911984 280.969489 
L 321.898179 280.969489 
L 325.884375 280.969489 
L 329.870571 280.969489 
L 333.856766 280.969489 
L 337.842962 280.969489 
L 341.829158 280.969489 
L 345.815353 280.969489 
L 349.801549 280.969489 
L 353.787745 280.969489 
L 357.77394 280.969489 
L 361.760136 280.969489 
L 365.746332 280.969489 
L 369.732527 280.969489 
L 373.718723 280.969489 
L 377.704918 280.969489 
L 381.691114 280.969489 
L 385.67731 280.969489 
L 389.663505 280.969489 
L 393.649701 280.969489 
L 397.635897 280.969489 
L 401.622092 280.969489 
L 405.608288 280.969489 
L 409.594484 280.969489 
L 413.580679 280.969489 
L 417.566875 280.969489 
L 421.553071 280.969489 
" clip-path="url(#pd75a6a82d1)" style="fill: none; stroke: #8e0052; stroke-width: 2; stroke-linecap: square"/>
   </g>
   <g id="line2d_25">
    <path d="M 50.836875 299.980419 
L 54.823071 296.608666 
L 58.809266 295.618688 
L 62.795462 298.674071 
L 66.781658 300.010159 
L 70.767853 293.179669 
L 74.754049 285.500186 
L 78.740245 285.668348 
L 82.72644 289.929332 
L 86.712636 287.525035 
L 90.698832 282.823947 
L 94.685027 283.309002 
L 98.671223 285.011881 
L 102.657418 285.587681 
L 106.643614 287.474712 
L 110.62981 290.561587 
L 114.616005 290.273711 
L 118.602201 287.903689 
L 122.588397 287.970429 
L 126.574592 289.098321 
L 130.560788 291.023387 
L 134.546984 292.296861 
L 138.533179 289.832704 
L 142.519375 288.878177 
L 146.505571 289.981312 
L 150.491766 290.024104 
L 154.477962 288.903982 
L 158.464158 286.530316 
L 162.450353 284.65514 
L 166.436549 283.808074 
L 170.422745 284.321116 
L 174.40894 286.111645 
L 178.395136 285.616984 
L 182.381332 283.836084 
L 186.367527 282.861177 
L 190.353723 283.263559 
L 194.339918 284.25191 
L 198.326114 283.928497 
L 202.31231 283.673672 
L 206.298505 282.890944 
L 210.284701 281.630103 
L 214.270897 281.943817 
L 218.257092 283.291623 
L 222.243288 284.425056 
L 226.229484 284.467494 
L 230.215679 284.451498 
L 234.201875 284.634998 
L 238.188071 283.870617 
L 242.174266 283.58807 
L 246.160462 283.953493 
L 250.146658 283.584353 
L 254.132853 283.164442 
L 258.119049 282.855479 
L 262.105245 282.15962 
L 266.09144 281.406262 
L 270.077636 281.047168 
L 274.063832 280.975303 
L 278.050027 280.969655 
L 282.036223 280.969489 
L 286.022418 280.969489 
L 290.008614 280.969489 
L 293.99481 280.969489 
L 297.981005 280.969489 
L 301.967201 280.969489 
L 305.953397 280.969489 
L 309.939592 280.969489 
L 313.925788 280.969489 
L 317.911984 280.969489 
L 321.898179 280.969489 
L 325.884375 280.969489 
L 329.870571 280.969489 
L 333.856766 280.969489 
L 337.842962 280.969489 
L 341.829158 280.969489 
L 345.815353 280.969489 
L 349.801549 280.969489 
L 353.787745 280.969489 
L 357.77394 280.969489 
L 361.760136 280.969489 
L 365.746332 280.969489 
L 369.732527 280.969489 
L 373.718723 280.969489 
L 377.704918 280.969489 
L 381.691114 280.969489 
L 385.67731 280.969489 
L 389.663505 280.969489 
L 393.649701 280.969489 
L 397.635897 280.969489 
L 401.622092 280.969489 
L 405.608288 280.969489 
L 409.594484 280.969489 
L 413.580679 280.969489 
L 417.566875 280.969489 
L 421.553071 280.969489 
" clip-path="url(#pd75a6a82d1)" style="fill: none; stroke-dasharray: 3.7,1.6; stroke-dashoffset: 0; stroke: #8e0052"/>
   </g>
   <g id="line2d_26">
    <path d="M 50.836875 299.980419 
L 54.823071 308.259237 
L 58.809266 317.444272 
L 62.795462 325.494766 
L 66.781658 325.876811 
L 70.767853 319.562122 
L 74.754049 313.256209 
L 78.740245 311.661493 
L 82.72644 314.014597 
L 86.712636 310.079795 
L 90.698832 304.907066 
L 94.685027 303.762617 
L 98.671223 302.413458 
L 102.657418 301.652206 
L 106.643614 303.312276 
L 110.62981 305.614431 
L 114.616005 305.30624 
L 118.602201 303.959144 
L 122.588397 304.787962 
L 126.574592 306.5664 
L 130.560788 308.837197 
L 134.546984 311.067984 
L 138.533179 309.992737 
L 142.519375 308.940766 
L 146.505571 308.139914 
L 150.491766 306.560315 
L 154.477962 306.003586 
L 158.464158 303.478564 
L 162.450353 300.286228 
L 166.436549 299.14127 
L 170.422745 300.302591 
L 174.40894 302.72193 
L 178.395136 302.451958 
L 182.381332 300.220943 
L 186.367527 298.851646 
L 190.353723 298.618831 
L 194.339918 298.648149 
L 198.326114 298.243077 
L 202.31231 298.341077 
L 206.298505 297.796535 
L 210.284701 296.29055 
L 214.270897 295.694206 
L 218.257092 296.064948 
L 222.243288 296.760938 
L 226.229484 296.847345 
L 230.215679 296.662826 
L 234.201875 296.178845 
L 238.188071 294.334852 
L 242.174266 293.044822 
L 246.160462 293.430181 
L 250.146658 293.200268 
L 254.132853 291.525974 
L 258.119049 288.858508 
L 262.105245 285.754189 
L 266.09144 282.831234 
L 270.077636 281.319077 
L 274.063832 280.996383 
L 278.050027 280.970272 
L 282.036223 280.969489 
L 286.022418 280.969489 
L 290.008614 280.969489 
L 293.99481 280.969489 
L 297.981005 280.969489 
L 301.967201 280.969489 
L 305.953397 280.969489 
L 309.939592 280.969489 
L 313.925788 280.969489 
L 317.911984 280.969489 
L 321.898179 280.969489 
L 325.884375 280.969489 
L 329.870571 280.969489 
L 333.856766 280.969489 
L 337.842962 280.969489 
L 341.829158 280.969489 
L 345.815353 280.969489 
L 349.801549 280.969489 
L 353.787745 280.969489 
L 357.77394 280.969489 
L 361.760136 280.969489 
L 365.746332 280.969489 
L 369.732527 280.969489 
L 373.718723 280.969489 
L 377.704918 280.969489 
L 381.691114 280.969489 
L 385.67731 280.969489 
L 389.663505 280.969489 
L 393.649701 280.969489 
L 397.635897 280.969489 
L 401.622092 280.969489 
L 405.608288 280.969489 
L 409.594484 280.969489 
L 413.580679 280.969489 
L 417.566875 280.969489 
L 421.553071 280.969489 
" clip-path="url(#pd75a6a82d1)" style="fill: none; stroke-dasharray: 3.7,1.6; stroke-dashoffset: 0; stroke: #8e0052"/>
   </g>
   <g id="line2d_27">
    <path d="M 50.836875 249.803619 
L 54.823071 254.896916 
L 58.809266 259.692222 
L 62.795462 255.67001 
L 66.781658 240.931126 
L 70.767853 235.167022 
L 74.754049 238.565808 
L 78.740245 240.322576 
L 82.72644 239.025753 
L 86.712636 237.134171 
L 90.698832 237.055493 
L 94.685027 236.42383 
L 98.671223 234.904195 
L 102.657418 232.906265 
L 106.643614 230.175198 
L 110.62981 229.511861 
L 114.616005 231.599931 
L 118.602201 232.314637 
L 122.588397 229.921151 
L 126.574592 226.741711 
L 130.560788 224.438142 
L 134.546984 223.132828 
L 138.533179 221.634934 
L 142.519375 219.746167 
L 146.505571 218.437581 
L 150.491766 216.394561 
L 154.477962 214.557549 
L 158.464158 214.407356 
L 162.450353 214.143258 
L 166.436549 212.396791 
L 170.422745 209.414831 
L 174.40894 206.771798 
L 178.395136 204.876381 
L 182.381332 202.22246 
L 186.367527 198.983833 
L 190.353723 196.729301 
L 194.339918 196.02584 
L 198.326114 194.754812 
L 202.31231 192.086992 
L 206.298505 188.94803 
L 210.284701 187.206003 
L 214.270897 186.825757 
L 218.257092 186.794747 
L 222.243288 186.793813 
L 226.229484 186.793813 
L 230.215679 186.793813 
L 234.201875 186.793813 
L 238.188071 186.793813 
L 242.174266 186.793813 
L 246.160462 186.793813 
L 250.146658 186.793813 
L 254.132853 186.793813 
L 258.119049 186.793813 
L 262.105245 186.793813 
L 266.09144 186.793813 
L 270.077636 186.793813 
L 274.063832 186.793813 
L 278.050027 186.793813 
L 282.036223 186.793813 
L 286.022418 186.793813 
L 290.008614 186.793813 
L 293.99481 186.793813 
L 297.981005 186.793813 
L 301.967201 186.793813 
L 305.953397 186.793813 
L 309.939592 186.793813 
L 313.925788 186.793813 
L 317.911984 186.793813 
L 321.898179 186.793813 
L 325.884375 186.793813 
L 329.870571 186.793813 
L 333.856766 186.793813 
L 337.842962 186.793813 
L 341.829158 186.793813 
L 345.815353 186.793813 
L 349.801549 186.793813 
L 353.787745 186.793813 
L 357.77394 186.793813 
L 361.760136 186.793813 
L 365.746332 186.793813 
L 369.732527 186.793813 
L 373.718723 186.793813 
L 377.704918 186.793813 
L 381.691114 186.793813 
L 385.67731 186.793813 
L 389.663505 186.793813 
L 393.649701 186.793813 
L 397.635897 186.793813 
L 401.622092 186.793813 
L 405.608288 186.793813 
L 409.594484 186.793813 
L 413.580679 186.793813 
L 417.566875 186.793813 
L 421.553071 186.793813 
" clip-path="url(#pd75a6a82d1)" style="fill: none; stroke: #276319; stroke-width: 2; stroke-linecap: square"/>
   </g>
   <g id="line2d_28">
    <path d="M 50.836875 249.803619 
L 54.823071 253.995963 
L 58.809266 257.666457 
L 62.795462 252.553636 
L 66.781658 237.051438 
L 70.767853 230.510263 
L 74.754049 233.650498 
L 78.740245 235.39868 
L 82.72644 233.807485 
L 86.712636 231.262413 
L 90.698832 230.962948 
L 94.685027 230.686308 
L 98.671223 229.569571 
L 102.657418 228.032722 
L 106.643614 225.317637 
L 110.62981 224.428057 
L 114.616005 226.789075 
L 118.602201 227.943064 
L 122.588397 225.537943 
L 126.574592 222.07204 
L 130.560788 219.400669 
L 134.546984 218.184473 
L 138.533179 217.107878 
L 142.519375 215.216902 
L 146.505571 213.630744 
L 150.491766 211.653946 
L 154.477962 210.174364 
L 158.464158 210.394465 
L 162.450353 210.451025 
L 166.436549 209.065203 
L 170.422745 206.264776 
L 174.40894 203.565797 
L 178.395136 201.848024 
L 182.381332 199.690583 
L 186.367527 196.875272 
L 190.353723 194.803295 
L 194.339918 194.140432 
L 198.326114 193.032938 
L 202.31231 190.884693 
L 206.298505 188.454604 
L 210.284701 187.111988 
L 214.270897 186.818494 
L 218.257092 186.794535 
L 222.243288 186.793813 
L 226.229484 186.793813 
L 230.215679 186.793813 
L 234.201875 186.793813 
L 238.188071 186.793813 
L 242.174266 186.793813 
L 246.160462 186.793813 
L 250.146658 186.793813 
L 254.132853 186.793813 
L 258.119049 186.793813 
L 262.105245 186.793813 
L 266.09144 186.793813 
L 270.077636 186.793813 
L 274.063832 186.793813 
L 278.050027 186.793813 
L 282.036223 186.793813 
L 286.022418 186.793813 
L 290.008614 186.793813 
L 293.99481 186.793813 
L 297.981005 186.793813 
L 301.967201 186.793813 
L 305.953397 186.793813 
L 309.939592 186.793813 
L 313.925788 186.793813 
L 317.911984 186.793813 
L 321.898179 186.793813 
L 325.884375 186.793813 
L 329.870571 186.793813 
L 333.856766 186.793813 
L 337.842962 186.793813 
L 341.829158 186.793813 
L 345.815353 186.793813 
L 349.801549 186.793813 
L 353.787745 186.793813 
L 357.77394 186.793813 
L 361.760136 186.793813 
L 365.746332 186.793813 
L 369.732527 186.793813 
L 373.718723 186.793813 
L 377.704918 186.793813 
L 381.691114 186.793813 
L 385.67731 186.793813 
L 389.663505 186.793813 
L 393.649701 186.793813 
L 397.635897 186.793813 
L 401.622092 186.793813 
L 405.608288 186.793813 
L 409.594484 186.793813 
L 413.580679 186.793813 
L 417.566875 186.793813 
L 421.553071 186.793813 
" clip-path="url(#pd75a6a82d1)" style="fill: none; stroke-dasharray: 3.7,1.6; stroke-dashoffset: 0; stroke: #276319"/>
   </g>
   <g id="line2d_29">
    <path d="M 50.836875 249.803619 
L 54.823071 256.698821 
L 58.809266 263.743753 
L 62.795462 261.902758 
L 66.781658 248.690504 
L 70.767853 244.48054 
L 74.754049 248.396428 
L 78.740245 250.17037 
L 82.72644 249.462288 
L 86.712636 248.877688 
L 90.698832 249.240583 
L 94.685027 247.898873 
L 98.671223 245.573443 
L 102.657418 242.653351 
L 106.643614 239.890319 
L 110.62981 239.679468 
L 114.616005 241.221642 
L 118.602201 241.057783 
L 122.588397 238.687567 
L 126.574592 236.081052 
L 130.560788 234.513089 
L 134.546984 233.029538 
L 138.533179 230.689046 
L 142.519375 228.804696 
L 146.505571 228.051255 
L 150.491766 225.875792 
L 154.477962 223.323917 
L 158.464158 222.433139 
L 162.450353 221.527723 
L 166.436549 219.059967 
L 170.422745 215.714939 
L 174.40894 213.183798 
L 178.395136 210.933095 
L 182.381332 207.286213 
L 186.367527 203.200955 
L 190.353723 200.581314 
L 194.339918 199.796656 
L 198.326114 198.198561 
L 202.31231 194.491589 
L 206.298505 189.934881 
L 210.284701 187.394033 
L 214.270897 186.840283 
L 218.257092 186.79517 
L 222.243288 186.793813 
L 226.229484 186.793813 
L 230.215679 186.793813 
L 234.201875 186.793813 
L 238.188071 186.793813 
L 242.174266 186.793813 
L 246.160462 186.793813 
L 250.146658 186.793813 
L 254.132853 186.793813 
L 258.119049 186.793813 
L 262.105245 186.793813 
L 266.09144 186.793813 
L 270.077636 186.793813 
L 274.063832 186.793813 
L 278.050027 186.793813 
L 282.036223 186.793813 
L 286.022418 186.793813 
L 290.008614 186.793813 
L 293.99481 186.793813 
L 297.981005 186.793813 
L 301.967201 186.793813 
L 305.953397 186.793813 
L 309.939592 186.793813 
L 313.925788 186.793813 
L 317.911984 186.793813 
L 321.898179 186.793813 
L 325.884375 186.793813 
L 329.870571 186.793813 
L 333.856766 186.793813 
L 337.842962 186.793813 
L 341.829158 186.793813 
L 345.815353 186.793813 
L 349.801549 186.793813 
L 353.787745 186.793813 
L 357.77394 186.793813 
L 361.760136 186.793813 
L 365.746332 186.793813 
L 369.732527 186.793813 
L 373.718723 186.793813 
L 377.704918 186.793813 
L 381.691114 186.793813 
L 385.67731 186.793813 
L 389.663505 186.793813 
L 393.649701 186.793813 
L 397.635897 186.793813 
L 401.622092 186.793813 
L 405.608288 186.793813 
L 409.594484 186.793813 
L 413.580679 186.793813 
L 417.566875 186.793813 
L 421.553071 186.793813 
" clip-path="url(#pd75a6a82d1)" style="fill: none; stroke-dasharray: 3.7,1.6; stroke-dashoffset: 0; stroke: #276319"/>
   </g>
   <g id="line2d_30">
    <path d="M 50.836875 274.892019 
L 54.823071 271.970965 
L 58.809266 266.947205 
L 62.795462 257.995963 
L 66.781658 247.202832 
L 70.767853 240.91467 
L 74.754049 243.242671 
L 78.740245 247.973786 
L 82.72644 248.860704 
L 86.712636 245.692073 
L 90.698832 247.652403 
L 94.685027 253.336017 
L 98.671223 248.668544 
L 102.657418 242.878818 
L 106.643614 241.73774 
L 110.62981 240.779421 
L 114.616005 241.100224 
L 118.602201 243.566674 
L 122.588397 244.749221 
L 126.574592 244.821185 
L 130.560788 243.329583 
L 134.546984 238.305184 
L 138.533179 233.958851 
L 142.519375 230.846025 
L 146.505571 229.022041 
L 150.491766 230.672647 
L 154.477962 233.16177 
L 158.464158 232.11886 
L 162.450353 228.066837 
L 166.436549 225.628719 
L 170.422745 226.346835 
L 174.40894 226.727611 
L 178.395136 227.207876 
L 182.381332 227.23183 
L 186.367527 226.315169 
L 190.353723 225.090017 
L 194.339918 224.231171 
L 198.326114 224.678884 
L 202.31231 225.056351 
L 206.298505 223.606709 
L 210.284701 221.921379 
L 214.270897 221.884045 
L 218.257092 223.257086 
L 222.243288 223.935534 
L 226.229484 222.315703 
L 230.215679 220.016013 
L 234.201875 219.05263 
L 238.188071 217.966449 
L 242.174266 216.866941 
L 246.160462 216.54946 
L 250.146658 216.894499 
L 254.132853 217.318652 
L 258.119049 217.533497 
L 262.105245 217.399826 
L 266.09144 217.719024 
L 270.077636 217.05684 
L 274.063832 214.802462 
L 278.050027 213.241908 
L 282.036223 213.543885 
L 286.022418 214.590911 
L 290.008614 215.500097 
L 293.99481 215.742338 
L 297.981005 215.658084 
L 301.967201 215.459511 
L 305.953397 214.839137 
L 309.939592 214.393764 
L 313.925788 214.321285 
L 317.911984 213.907678 
L 321.898179 213.327763 
L 325.884375 212.79487 
L 329.870571 212.834937 
L 333.856766 212.906419 
L 337.842962 212.137362 
L 341.829158 211.797271 
L 345.815353 212.384777 
L 349.801549 212.889237 
L 353.787745 212.673374 
L 357.77394 212.263054 
L 361.760136 212.144687 
L 365.746332 211.753825 
L 369.732527 211.444574 
L 373.718723 211.431179 
L 377.704918 211.392019 
L 381.691114 211.759324 
L 385.67731 212.367607 
L 389.663505 212.504066 
L 393.649701 212.327173 
L 397.635897 212.312425 
L 401.622092 212.981079 
L 405.608288 214.27802 
L 409.594484 215.887936 
L 413.580679 217.336013 
L 417.566875 218.031568 
L 421.553071 218.173701 
" clip-path="url(#pd75a6a82d1)" style="fill: none; stroke: #6f9fc7; stroke-width: 2; stroke-linecap: square"/>
   </g>
   <g id="line2d_31">
    <path d="M 50.836875 274.892019 
L 54.823071 271.008025 
L 58.809266 264.556238 
L 62.795462 253.689458 
L 66.781658 241.164113 
L 70.767853 234.331525 
L 74.754049 237.733229 
L 78.740245 242.739684 
L 82.72644 242.85854 
L 86.712636 239.01559 
L 90.698832 240.479432 
L 94.685027 245.75704 
L 98.671223 241.355165 
L 102.657418 236.243591 
L 106.643614 235.785993 
L 110.62981 234.805795 
L 114.616005 234.9005 
L 118.602201 237.090479 
L 122.588397 237.920237 
L 126.574592 237.824118 
L 130.560788 236.457799 
L 134.546984 232.066513 
L 138.533179 227.723533 
L 142.519375 224.169663 
L 146.505571 222.645431 
L 150.491766 224.981577 
L 154.477962 227.730224 
L 158.464158 226.733793 
L 162.450353 223.177454 
L 166.436549 220.991753 
L 170.422745 221.54366 
L 174.40894 221.816003 
L 178.395136 222.295216 
L 182.381332 222.490104 
L 186.367527 221.869508 
L 190.353723 220.870237 
L 194.339918 220.070025 
L 198.326114 220.348413 
L 202.31231 220.573571 
L 206.298505 219.147431 
L 210.284701 217.438758 
L 214.270897 217.223384 
L 218.257092 218.580063 
L 222.243288 219.658343 
L 226.229484 218.44457 
L 230.215679 216.29063 
L 234.201875 215.310555 
L 238.188071 214.106005 
L 242.174266 212.990442 
L 246.160462 212.861672 
L 250.146658 213.199346 
L 254.132853 213.501462 
L 258.119049 213.773241 
L 262.105245 213.891527 
L 266.09144 214.318217 
L 270.077636 213.607194 
L 274.063832 211.352147 
L 278.050027 209.896339 
L 282.036223 210.287418 
L 286.022418 211.550826 
L 290.008614 212.693563 
L 293.99481 212.94302 
L 297.981005 212.745996 
L 301.967201 212.571599 
L 305.953397 212.073433 
L 309.939592 211.532483 
L 313.925788 211.316252 
L 317.911984 210.94816 
L 321.898179 210.427911 
L 325.884375 209.932572 
L 329.870571 210.116724 
L 333.856766 210.410046 
L 337.842962 209.776163 
L 341.829158 209.460903 
L 345.815353 210.07569 
L 349.801549 210.583916 
L 353.787745 210.34939 
L 357.77394 209.980231 
L 361.760136 209.982415 
L 365.746332 209.690989 
L 369.732527 209.410745 
L 373.718723 209.452749 
L 377.704918 209.466397 
L 381.691114 209.84821 
L 385.67731 210.525818 
L 389.663505 210.789464 
L 393.649701 210.727594 
L 397.635897 210.805826 
L 401.622092 211.599079 
L 405.608288 213.115371 
L 409.594484 215.14294 
L 413.580679 217.052552 
L 417.566875 217.979894 
L 421.553071 218.169675 
" clip-path="url(#pd75a6a82d1)" style="fill: none; stroke-dasharray: 3.7,1.6; stroke-dashoffset: 0; stroke: #6f9fc7"/>
   </g>
   <g id="line2d_32">
    <path d="M 50.836875 274.892019 
L 54.823071 273.896847 
L 58.809266 271.729139 
L 62.795462 266.608973 
L 66.781658 259.280271 
L 70.767853 254.080961 
L 74.754049 254.261555 
L 78.740245 258.441989 
L 82.72644 260.865031 
L 86.712636 259.045039 
L 90.698832 261.998344 
L 94.685027 268.493971 
L 98.671223 263.295301 
L 102.657418 256.149272 
L 106.643614 253.641234 
L 110.62981 252.726672 
L 114.616005 253.499672 
L 118.602201 256.519063 
L 122.588397 258.407191 
L 126.574592 258.815317 
L 130.560788 257.073151 
L 134.546984 250.782527 
L 138.533179 246.429487 
L 142.519375 244.198749 
L 146.505571 241.775263 
L 150.491766 242.054788 
L 154.477962 244.024861 
L 158.464158 242.888995 
L 162.450353 237.845604 
L 166.436549 234.902651 
L 170.422745 235.953186 
L 174.40894 236.550826 
L 178.395136 237.033198 
L 182.381332 236.715283 
L 186.367527 235.206491 
L 190.353723 233.529576 
L 194.339918 232.553465 
L 198.326114 233.339825 
L 202.31231 234.02191 
L 206.298505 232.525265 
L 210.284701 230.886621 
L 214.270897 231.205367 
L 218.257092 232.611132 
L 222.243288 232.489914 
L 226.229484 230.057971 
L 230.215679 227.46678 
L 234.201875 226.536781 
L 238.188071 225.687338 
L 242.174266 224.619938 
L 246.160462 223.925035 
L 250.146658 224.284804 
L 254.132853 224.953031 
L 258.119049 225.054007 
L 262.105245 224.416424 
L 266.09144 224.520637 
L 270.077636 223.956132 
L 274.063832 221.703091 
L 278.050027 219.933048 
L 282.036223 220.056819 
L 286.022418 220.671081 
L 290.008614 221.113163 
L 293.99481 221.340973 
L 297.981005 221.482261 
L 301.967201 221.235335 
L 305.953397 220.370545 
L 309.939592 220.116326 
L 313.925788 220.33135 
L 317.911984 219.826712 
L 321.898179 219.127467 
L 325.884375 218.519468 
L 329.870571 218.271364 
L 333.856766 217.899165 
L 337.842962 216.859761 
L 341.829158 216.470006 
L 345.815353 217.00295 
L 349.801549 217.499879 
L 353.787745 217.321342 
L 357.77394 216.8287 
L 361.760136 216.469233 
L 365.746332 215.879497 
L 369.732527 215.512232 
L 373.718723 215.388038 
L 377.704918 215.243262 
L 381.691114 215.58155 
L 385.67731 216.051184 
L 389.663505 215.93327 
L 393.649701 215.52633 
L 397.635897 215.325623 
L 401.622092 215.745078 
L 405.608288 216.603317 
L 409.594484 217.377927 
L 413.580679 217.902935 
L 417.566875 218.134918 
L 421.553071 218.181753 
" clip-path="url(#pd75a6a82d1)" style="fill: none; stroke-dasharray: 3.7,1.6; stroke-dashoffset: 0; stroke: #6f9fc7"/>
   </g>
   <g id="patch_3">
    <path d="M 50.836875 382.679219 
L 50.836875 10.999219 
" style="fill: none; stroke: #000000; stroke-width: 0.8; stroke-linejoin: miter; stroke-linecap: square"/>
   </g>
   <g id="patch_4">
    <path d="M 417.566875 382.679219 
L 417.566875 10.999219 
" style="fill: none; stroke: #000000; stroke-width: 0.8; stroke-linejoin: miter; stroke-linecap: square"/>
   </g>
   <g id="patch_5">
    <path d="M 50.836875 382.679219 
L 417.566875 382.679219 
" style="fill: none; stroke: #000000; stroke-width: 0.8; stroke-linejoin: miter; stroke-linecap: square"/>
   </g>
   <g id="patch_6">
    <path d="M 50.836875 10.999219 
L 417.566875 10.999219 
" style="fill: none; stroke: #000000; stroke-width: 0.8; stroke-linejoin: miter; stroke-linecap: square"/>
   </g>
   <g id="legend_1">
    <g id="patch_7">
     <path d="M 295.366875 377.679219 
L 410.566875 377.679219 
Q 412.566875 377.679219 412.566875 375.679219 
L 412.566875 332.644844 
Q 412.566875 330.644844 410.566875 330.644844 
L 295.366875 330.644844 
Q 293.366875 330.644844 293.366875 332.644844 
L 293.366875 375.679219 
Q 293.366875 377.679219 295.366875 377.679219 
z
" style="fill: #ffffff; opacity: 0.8; stroke: #cccccc; stroke-linejoin: miter"/>
    </g>
    <g id="line2d_33">
     <path d="M 297.366875 338.743281 
L 307.366875 338.743281 
L 317.366875 338.743281 
" style="fill: none; stroke: #8e0052; stroke-width: 2; stroke-linecap: square"/>
    </g>
    <g id="text_17">
     <!-- Non Expert (1-2) -->
     <g transform="translate(325.366875 342.243281) scale(0.1 -0.1)">
      <defs>
       <path id="DejaVuSans-45" d="M 628 4666 
L 3578 4666 
L 3578 4134 
L 1259 4134 
L 1259 2753 
L 3481 2753 
L 3481 2222 
L 1259 2222 
L 1259 531 
L 3634 531 
L 3634 0 
L 628 0 
L 628 4666 
z
" transform="scale(0.015625)"/>
       <path id="DejaVuSans-78" d="M 3513 3500 
L 2247 1797 
L 3578 0 
L 2900 0 
L 1881 1375 
L 863 0 
L 184 0 
L 1544 1831 
L 300 3500 
L 978 3500 
L 1906 2253 
L 2834 3500 
L 3513 3500 
z
" transform="scale(0.015625)"/>
       <path id="DejaVuSans-2d" d="M 313 2009 
L 1997 2009 
L 1997 1497 
L 313 1497 
L 313 2009 
z
" transform="scale(0.015625)"/>
      </defs>
      <use xlink:href="#DejaVuSans-4e"/>
      <use xlink:href="#DejaVuSans-6f" x="74.804688"/>
      <use xlink:href="#DejaVuSans-6e" x="135.986328"/>
      <use xlink:href="#DejaVuSans-20" x="199.365234"/>
      <use xlink:href="#DejaVuSans-45" x="231.152344"/>
      <use xlink:href="#DejaVuSans-78" x="294.335938"/>
      <use xlink:href="#DejaVuSans-70" x="353.515625"/>
      <use xlink:href="#DejaVuSans-65" x="416.992188"/>
      <use xlink:href="#DejaVuSans-72" x="478.515625"/>
      <use xlink:href="#DejaVuSans-74" x="519.628906"/>
      <use xlink:href="#DejaVuSans-20" x="558.837891"/>
      <use xlink:href="#DejaVuSans-28" x="590.625"/>
      <use xlink:href="#DejaVuSans-31" x="629.638672"/>
      <use xlink:href="#DejaVuSans-2d" x="693.261719"/>
      <use xlink:href="#DejaVuSans-32" x="729.345703"/>
      <use xlink:href="#DejaVuSans-29" x="792.96875"/>
     </g>
    </g>
    <g id="line2d_34">
     <path d="M 297.366875 353.421406 
L 307.366875 353.421406 
L 317.366875 353.421406 
" style="fill: none; stroke: #276319; stroke-width: 2; stroke-linecap: square"/>
    </g>
    <g id="text_18">
     <!-- Expert (3-5) -->
     <g transform="translate(325.366875 356.921406) scale(0.1 -0.1)">
      <use xlink:href="#DejaVuSans-45"/>
      <use xlink:href="#DejaVuSans-78" x="63.183594"/>
      <use xlink:href="#DejaVuSans-70" x="122.363281"/>
      <use xlink:href="#DejaVuSans-65" x="185.839844"/>
      <use xlink:href="#DejaVuSans-72" x="247.363281"/>
      <use xlink:href="#DejaVuSans-74" x="288.476562"/>
      <use xlink:href="#DejaVuSans-20" x="327.685547"/>
      <use xlink:href="#DejaVuSans-28" x="359.472656"/>
      <use xlink:href="#DejaVuSans-33" x="398.486328"/>
      <use xlink:href="#DejaVuSans-2d" x="462.109375"/>
      <use xlink:href="#DejaVuSans-35" x="498.193359"/>
      <use xlink:href="#DejaVuSans-29" x="561.816406"/>
     </g>
    </g>
    <g id="line2d_35">
     <path d="M 297.366875 368.099531 
L 307.366875 368.099531 
L 317.366875 368.099531 
" style="fill: none; stroke: #6f9fc7; stroke-width: 2; stroke-linecap: square"/>
    </g>
    <g id="text_19">
     <!-- All -->
     <g transform="translate(325.366875 371.599531) scale(0.1 -0.1)">
      <defs>
       <path id="DejaVuSans-41" d="M 2188 4044 
L 1331 1722 
L 3047 1722 
L 2188 4044 
z
M 1831 4666 
L 2547 4666 
L 4325 0 
L 3669 0 
L 3244 1197 
L 1141 1197 
L 716 0 
L 50 0 
L 1831 4666 
z
" transform="scale(0.015625)"/>
       <path id="DejaVuSans-6c" d="M 603 4863 
L 1178 4863 
L 1178 0 
L 603 0 
L 603 4863 
z
" transform="scale(0.015625)"/>
      </defs>
      <use xlink:href="#DejaVuSans-41"/>
      <use xlink:href="#DejaVuSans-6c" x="68.408203"/>
      <use xlink:href="#DejaVuSans-6c" x="96.191406"/>
     </g>
    </g>
   </g>
  </g>
 </g>
 <defs>
  <clipPath id="pd75a6a82d1">
   <rect x="50.836875" y="10.999219" width="366.73" height="371.68"/>
  </clipPath>
 </defs>
</svg>
