<?xml version="1.0" encoding="utf-8" standalone="no"?>
<!DOCTYPE svg PUBLIC "-//W3C//DTD SVG 1.1//EN"
  "http://www.w3.org/Graphics/SVG/1.1/DTD/svg11.dtd">
<svg xmlns:xlink="http://www.w3.org/1999/xlink" width="388.766875pt" height="352.106719pt" viewBox="0 0 388.766875 352.106719" xmlns="http://www.w3.org/2000/svg" version="1.1">
 <metadata>
  <rdf:RDF xmlns:dc="http://purl.org/dc/elements/1.1/" xmlns:cc="http://creativecommons.org/ns#" xmlns:rdf="http://www.w3.org/1999/02/22-rdf-syntax-ns#">
   <cc:Work>
    <dc:type rdf:resource="http://purl.org/dc/dcmitype/StillImage"/>
    <dc:date>2024-04-17T11:50:12.793483</dc:date>
    <dc:format>image/svg+xml</dc:format>
    <dc:creator>
     <cc:Agent>
      <dc:title>Matplotlib v3.6.2, https://matplotlib.org/</dc:title>
     </cc:Agent>
    </dc:creator>
   </cc:Work>
  </rdf:RDF>
 </metadata>
 <defs>
  <style type="text/css">*{stroke-linejoin: round; stroke-linecap: butt}</style>
 </defs>
 <g id="figure_1">
  <g id="patch_1">
   <path d="M 0 352.106719 
L 388.766875 352.106719 
L 388.766875 0 
L 0 0 
z
" style="fill: #ffffff"/>
  </g>
  <g id="axes_1">
   <g id="patch_2">
    <path d="M 50.836875 310.679219 
L 381.566875 310.679219 
L 381.566875 10.999219 
L 50.836875 10.999219 
z
" style="fill: #ffffff"/>
   </g>
   <g id="matplotlib.axis_1">
    <g id="xtick_1">
     <g id="line2d_1">
      <defs>
       <path id="mc43dee22ff" d="M 0 0 
L 0 3.5 
" style="stroke: #000000; stroke-width: 0.8"/>
      </defs>
      <g>
       <use xlink:href="#mc43dee22ff" x="78.397708" y="310.679219" style="stroke: #000000; stroke-width: 0.8"/>
      </g>
     </g>
     <g id="text_1">
      <!-- 1 -->
      <g transform="translate(75.216458 325.277656) scale(0.1 -0.1)">
       <defs>
        <path id="DejaVuSans-31" d="M 794 531 
L 1825 531 
L 1825 4091 
L 703 3866 
L 703 4441 
L 1819 4666 
L 2450 4666 
L 2450 531 
L 3481 531 
L 3481 0 
L 794 0 
L 794 531 
z
" transform="scale(0.015625)"/>
       </defs>
       <use xlink:href="#DejaVuSans-31"/>
      </g>
     </g>
    </g>
    <g id="xtick_2">
     <g id="line2d_2">
      <g>
       <use xlink:href="#mc43dee22ff" x="133.519375" y="310.679219" style="stroke: #000000; stroke-width: 0.8"/>
      </g>
     </g>
     <g id="text_2">
      <!-- 2 -->
      <g transform="translate(130.338125 325.277656) scale(0.1 -0.1)">
       <defs>
        <path id="DejaVuSans-32" d="M 1228 531 
L 3431 531 
L 3431 0 
L 469 0 
L 469 531 
Q 828 903 1448 1529 
Q 2069 2156 2228 2338 
Q 2531 2678 2651 2914 
Q 2772 3150 2772 3378 
Q 2772 3750 2511 3984 
Q 2250 4219 1831 4219 
Q 1534 4219 1204 4116 
Q 875 4013 500 3803 
L 500 4441 
Q 881 4594 1212 4672 
Q 1544 4750 1819 4750 
Q 2544 4750 2975 4387 
Q 3406 4025 3406 3419 
Q 3406 3131 3298 2873 
Q 3191 2616 2906 2266 
Q 2828 2175 2409 1742 
Q 1991 1309 1228 531 
z
" transform="scale(0.015625)"/>
       </defs>
       <use xlink:href="#DejaVuSans-32"/>
      </g>
     </g>
    </g>
    <g id="xtick_3">
     <g id="line2d_3">
      <g>
       <use xlink:href="#mc43dee22ff" x="188.641042" y="310.679219" style="stroke: #000000; stroke-width: 0.8"/>
      </g>
     </g>
     <g id="text_3">
      <!-- 3 -->
      <g transform="translate(185.459792 325.277656) scale(0.1 -0.1)">
       <defs>
        <path id="DejaVuSans-33" d="M 2597 2516 
Q 3050 2419 3304 2112 
Q 3559 1806 3559 1356 
Q 3559 666 3084 287 
Q 2609 -91 1734 -91 
Q 1441 -91 1130 -33 
Q 819 25 488 141 
L 488 750 
Q 750 597 1062 519 
Q 1375 441 1716 441 
Q 2309 441 2620 675 
Q 2931 909 2931 1356 
Q 2931 1769 2642 2001 
Q 2353 2234 1838 2234 
L 1294 2234 
L 1294 2753 
L 1863 2753 
Q 2328 2753 2575 2939 
Q 2822 3125 2822 3475 
Q 2822 3834 2567 4026 
Q 2313 4219 1838 4219 
Q 1578 4219 1281 4162 
Q 984 4106 628 3988 
L 628 4550 
Q 988 4650 1302 4700 
Q 1616 4750 1894 4750 
Q 2613 4750 3031 4423 
Q 3450 4097 3450 3541 
Q 3450 3153 3228 2886 
Q 3006 2619 2597 2516 
z
" transform="scale(0.015625)"/>
       </defs>
       <use xlink:href="#DejaVuSans-33"/>
      </g>
     </g>
    </g>
    <g id="xtick_4">
     <g id="line2d_4">
      <g>
       <use xlink:href="#mc43dee22ff" x="243.762708" y="310.679219" style="stroke: #000000; stroke-width: 0.8"/>
      </g>
     </g>
     <g id="text_4">
      <!-- 4 -->
      <g transform="translate(240.581458 325.277656) scale(0.1 -0.1)">
       <defs>
        <path id="DejaVuSans-34" d="M 2419 4116 
L 825 1625 
L 2419 1625 
L 2419 4116 
z
M 2253 4666 
L 3047 4666 
L 3047 1625 
L 3713 1625 
L 3713 1100 
L 3047 1100 
L 3047 0 
L 2419 0 
L 2419 1100 
L 313 1100 
L 313 1709 
L 2253 4666 
z
" transform="scale(0.015625)"/>
       </defs>
       <use xlink:href="#DejaVuSans-34"/>
      </g>
     </g>
    </g>
    <g id="xtick_5">
     <g id="line2d_5">
      <g>
       <use xlink:href="#mc43dee22ff" x="298.884375" y="310.679219" style="stroke: #000000; stroke-width: 0.8"/>
      </g>
     </g>
     <g id="text_5">
      <!-- 5 -->
      <g transform="translate(295.703125 325.277656) scale(0.1 -0.1)">
       <defs>
        <path id="DejaVuSans-35" d="M 691 4666 
L 3169 4666 
L 3169 4134 
L 1269 4134 
L 1269 2991 
Q 1406 3038 1543 3061 
Q 1681 3084 1819 3084 
Q 2600 3084 3056 2656 
Q 3513 2228 3513 1497 
Q 3513 744 3044 326 
Q 2575 -91 1722 -91 
Q 1428 -91 1123 -41 
Q 819 9 494 109 
L 494 744 
Q 775 591 1075 516 
Q 1375 441 1709 441 
Q 2250 441 2565 725 
Q 2881 1009 2881 1497 
Q 2881 1984 2565 2268 
Q 2250 2553 1709 2553 
Q 1456 2553 1204 2497 
Q 953 2441 691 2322 
L 691 4666 
z
" transform="scale(0.015625)"/>
       </defs>
       <use xlink:href="#DejaVuSans-35"/>
      </g>
     </g>
    </g>
    <g id="xtick_6">
     <g id="line2d_6">
      <g>
       <use xlink:href="#mc43dee22ff" x="354.006042" y="310.679219" style="stroke: #000000; stroke-width: 0.8"/>
      </g>
     </g>
     <g id="text_6">
      <!-- All -->
      <g transform="translate(347.807604 325.277656) scale(0.1 -0.1)">
       <defs>
        <path id="DejaVuSans-41" d="M 2188 4044 
L 1331 1722 
L 3047 1722 
L 2188 4044 
z
M 1831 4666 
L 2547 4666 
L 4325 0 
L 3669 0 
L 3244 1197 
L 1141 1197 
L 716 0 
L 50 0 
L 1831 4666 
z
" transform="scale(0.015625)"/>
        <path id="DejaVuSans-6c" d="M 603 4863 
L 1178 4863 
L 1178 0 
L 603 0 
L 603 4863 
z
" transform="scale(0.015625)"/>
       </defs>
       <use xlink:href="#DejaVuSans-41"/>
       <use xlink:href="#DejaVuSans-6c" x="68.408203"/>
       <use xlink:href="#DejaVuSans-6c" x="96.191406"/>
      </g>
     </g>
    </g>
    <g id="text_7">
     <!-- Expertise -->
     <g transform="translate(183.364219 341.995156) scale(0.14 -0.14)">
      <defs>
       <path id="DejaVuSans-45" d="M 628 4666 
L 3578 4666 
L 3578 4134 
L 1259 4134 
L 1259 2753 
L 3481 2753 
L 3481 2222 
L 1259 2222 
L 1259 531 
L 3634 531 
L 3634 0 
L 628 0 
L 628 4666 
z
" transform="scale(0.015625)"/>
       <path id="DejaVuSans-78" d="M 3513 3500 
L 2247 1797 
L 3578 0 
L 2900 0 
L 1881 1375 
L 863 0 
L 184 0 
L 1544 1831 
L 300 3500 
L 978 3500 
L 1906 2253 
L 2834 3500 
L 3513 3500 
z
" transform="scale(0.015625)"/>
       <path id="DejaVuSans-70" d="M 1159 525 
L 1159 -1331 
L 581 -1331 
L 581 3500 
L 1159 3500 
L 1159 2969 
Q 1341 3281 1617 3432 
Q 1894 3584 2278 3584 
Q 2916 3584 3314 3078 
Q 3713 2572 3713 1747 
Q 3713 922 3314 415 
Q 2916 -91 2278 -91 
Q 1894 -91 1617 61 
Q 1341 213 1159 525 
z
M 3116 1747 
Q 3116 2381 2855 2742 
Q 2594 3103 2138 3103 
Q 1681 3103 1420 2742 
Q 1159 2381 1159 1747 
Q 1159 1113 1420 752 
Q 1681 391 2138 391 
Q 2594 391 2855 752 
Q 3116 1113 3116 1747 
z
" transform="scale(0.015625)"/>
       <path id="DejaVuSans-65" d="M 3597 1894 
L 3597 1613 
L 953 1613 
Q 991 1019 1311 708 
Q 1631 397 2203 397 
Q 2534 397 2845 478 
Q 3156 559 3463 722 
L 3463 178 
Q 3153 47 2828 -22 
Q 2503 -91 2169 -91 
Q 1331 -91 842 396 
Q 353 884 353 1716 
Q 353 2575 817 3079 
Q 1281 3584 2069 3584 
Q 2775 3584 3186 3129 
Q 3597 2675 3597 1894 
z
M 3022 2063 
Q 3016 2534 2758 2815 
Q 2500 3097 2075 3097 
Q 1594 3097 1305 2825 
Q 1016 2553 972 2059 
L 3022 2063 
z
" transform="scale(0.015625)"/>
       <path id="DejaVuSans-72" d="M 2631 2963 
Q 2534 3019 2420 3045 
Q 2306 3072 2169 3072 
Q 1681 3072 1420 2755 
Q 1159 2438 1159 1844 
L 1159 0 
L 581 0 
L 581 3500 
L 1159 3500 
L 1159 2956 
Q 1341 3275 1631 3429 
Q 1922 3584 2338 3584 
Q 2397 3584 2469 3576 
Q 2541 3569 2628 3553 
L 2631 2963 
z
" transform="scale(0.015625)"/>
       <path id="DejaVuSans-74" d="M 1172 4494 
L 1172 3500 
L 2356 3500 
L 2356 3053 
L 1172 3053 
L 1172 1153 
Q 1172 725 1289 603 
Q 1406 481 1766 481 
L 2356 481 
L 2356 0 
L 1766 0 
Q 1100 0 847 248 
Q 594 497 594 1153 
L 594 3053 
L 172 3053 
L 172 3500 
L 594 3500 
L 594 4494 
L 1172 4494 
z
" transform="scale(0.015625)"/>
       <path id="DejaVuSans-69" d="M 603 3500 
L 1178 3500 
L 1178 0 
L 603 0 
L 603 3500 
z
M 603 4863 
L 1178 4863 
L 1178 4134 
L 603 4134 
L 603 4863 
z
" transform="scale(0.015625)"/>
       <path id="DejaVuSans-73" d="M 2834 3397 
L 2834 2853 
Q 2591 2978 2328 3040 
Q 2066 3103 1784 3103 
Q 1356 3103 1142 2972 
Q 928 2841 928 2578 
Q 928 2378 1081 2264 
Q 1234 2150 1697 2047 
L 1894 2003 
Q 2506 1872 2764 1633 
Q 3022 1394 3022 966 
Q 3022 478 2636 193 
Q 2250 -91 1575 -91 
Q 1294 -91 989 -36 
Q 684 19 347 128 
L 347 722 
Q 666 556 975 473 
Q 1284 391 1588 391 
Q 1994 391 2212 530 
Q 2431 669 2431 922 
Q 2431 1156 2273 1281 
Q 2116 1406 1581 1522 
L 1381 1569 
Q 847 1681 609 1914 
Q 372 2147 372 2553 
Q 372 3047 722 3315 
Q 1072 3584 1716 3584 
Q 2034 3584 2315 3537 
Q 2597 3491 2834 3397 
z
" transform="scale(0.015625)"/>
      </defs>
      <use xlink:href="#DejaVuSans-45"/>
      <use xlink:href="#DejaVuSans-78" x="63.183594"/>
      <use xlink:href="#DejaVuSans-70" x="122.363281"/>
      <use xlink:href="#DejaVuSans-65" x="185.839844"/>
      <use xlink:href="#DejaVuSans-72" x="247.363281"/>
      <use xlink:href="#DejaVuSans-74" x="288.476562"/>
      <use xlink:href="#DejaVuSans-69" x="327.685547"/>
      <use xlink:href="#DejaVuSans-73" x="355.46875"/>
      <use xlink:href="#DejaVuSans-65" x="407.568359"/>
     </g>
    </g>
   </g>
   <g id="matplotlib.axis_2">
    <g id="ytick_1">
     <g id="line2d_7">
      <path d="M 50.836875 310.679219 
L 381.566875 310.679219 
" clip-path="url(#p80584755b0)" style="fill: none; stroke-dasharray: 2.96,1.28; stroke-dashoffset: 0; stroke: #c0c0c0; stroke-width: 0.8"/>
     </g>
     <g id="line2d_8">
      <defs>
       <path id="mee1bc72582" d="M 0 0 
L -3.5 0 
" style="stroke: #000000; stroke-width: 0.8"/>
      </defs>
      <g>
       <use xlink:href="#mee1bc72582" x="50.836875" y="310.679219" style="stroke: #000000; stroke-width: 0.8"/>
      </g>
     </g>
     <g id="text_8">
      <!-- 0 -->
      <g transform="translate(37.474375 314.478438) scale(0.1 -0.1)">
       <defs>
        <path id="DejaVuSans-30" d="M 2034 4250 
Q 1547 4250 1301 3770 
Q 1056 3291 1056 2328 
Q 1056 1369 1301 889 
Q 1547 409 2034 409 
Q 2525 409 2770 889 
Q 3016 1369 3016 2328 
Q 3016 3291 2770 3770 
Q 2525 4250 2034 4250 
z
M 2034 4750 
Q 2819 4750 3233 4129 
Q 3647 3509 3647 2328 
Q 3647 1150 3233 529 
Q 2819 -91 2034 -91 
Q 1250 -91 836 529 
Q 422 1150 422 2328 
Q 422 3509 836 4129 
Q 1250 4750 2034 4750 
z
" transform="scale(0.015625)"/>
       </defs>
       <use xlink:href="#DejaVuSans-30"/>
      </g>
     </g>
    </g>
    <g id="ytick_2">
     <g id="line2d_9">
      <path d="M 50.836875 250.743219 
L 381.566875 250.743219 
" clip-path="url(#p80584755b0)" style="fill: none; stroke-dasharray: 2.96,1.28; stroke-dashoffset: 0; stroke: #c0c0c0; stroke-width: 0.8"/>
     </g>
     <g id="line2d_10">
      <g>
       <use xlink:href="#mee1bc72582" x="50.836875" y="250.743219" style="stroke: #000000; stroke-width: 0.8"/>
      </g>
     </g>
     <g id="text_9">
      <!-- 20 -->
      <g transform="translate(31.111875 254.542438) scale(0.1 -0.1)">
       <use xlink:href="#DejaVuSans-32"/>
       <use xlink:href="#DejaVuSans-30" x="63.623047"/>
      </g>
     </g>
    </g>
    <g id="ytick_3">
     <g id="line2d_11">
      <path d="M 50.836875 190.807219 
L 381.566875 190.807219 
" clip-path="url(#p80584755b0)" style="fill: none; stroke-dasharray: 2.96,1.28; stroke-dashoffset: 0; stroke: #c0c0c0; stroke-width: 0.8"/>
     </g>
     <g id="line2d_12">
      <g>
       <use xlink:href="#mee1bc72582" x="50.836875" y="190.807219" style="stroke: #000000; stroke-width: 0.8"/>
      </g>
     </g>
     <g id="text_10">
      <!-- 40 -->
      <g transform="translate(31.111875 194.606437) scale(0.1 -0.1)">
       <use xlink:href="#DejaVuSans-34"/>
       <use xlink:href="#DejaVuSans-30" x="63.623047"/>
      </g>
     </g>
    </g>
    <g id="ytick_4">
     <g id="line2d_13">
      <path d="M 50.836875 130.871219 
L 381.566875 130.871219 
" clip-path="url(#p80584755b0)" style="fill: none; stroke-dasharray: 2.96,1.28; stroke-dashoffset: 0; stroke: #c0c0c0; stroke-width: 0.8"/>
     </g>
     <g id="line2d_14">
      <g>
       <use xlink:href="#mee1bc72582" x="50.836875" y="130.871219" style="stroke: #000000; stroke-width: 0.8"/>
      </g>
     </g>
     <g id="text_11">
      <!-- 60 -->
      <g transform="translate(31.111875 134.670437) scale(0.1 -0.1)">
       <defs>
        <path id="DejaVuSans-36" d="M 2113 2584 
Q 1688 2584 1439 2293 
Q 1191 2003 1191 1497 
Q 1191 994 1439 701 
Q 1688 409 2113 409 
Q 2538 409 2786 701 
Q 3034 994 3034 1497 
Q 3034 2003 2786 2293 
Q 2538 2584 2113 2584 
z
M 3366 4563 
L 3366 3988 
Q 3128 4100 2886 4159 
Q 2644 4219 2406 4219 
Q 1781 4219 1451 3797 
Q 1122 3375 1075 2522 
Q 1259 2794 1537 2939 
Q 1816 3084 2150 3084 
Q 2853 3084 3261 2657 
Q 3669 2231 3669 1497 
Q 3669 778 3244 343 
Q 2819 -91 2113 -91 
Q 1303 -91 875 529 
Q 447 1150 447 2328 
Q 447 3434 972 4092 
Q 1497 4750 2381 4750 
Q 2619 4750 2861 4703 
Q 3103 4656 3366 4563 
z
" transform="scale(0.015625)"/>
       </defs>
       <use xlink:href="#DejaVuSans-36"/>
       <use xlink:href="#DejaVuSans-30" x="63.623047"/>
      </g>
     </g>
    </g>
    <g id="ytick_5">
     <g id="line2d_15">
      <path d="M 50.836875 70.935219 
L 381.566875 70.935219 
" clip-path="url(#p80584755b0)" style="fill: none; stroke-dasharray: 2.96,1.28; stroke-dashoffset: 0; stroke: #c0c0c0; stroke-width: 0.8"/>
     </g>
     <g id="line2d_16">
      <g>
       <use xlink:href="#mee1bc72582" x="50.836875" y="70.935219" style="stroke: #000000; stroke-width: 0.8"/>
      </g>
     </g>
     <g id="text_12">
      <!-- 80 -->
      <g transform="translate(31.111875 74.734438) scale(0.1 -0.1)">
       <defs>
        <path id="DejaVuSans-38" d="M 2034 2216 
Q 1584 2216 1326 1975 
Q 1069 1734 1069 1313 
Q 1069 891 1326 650 
Q 1584 409 2034 409 
Q 2484 409 2743 651 
Q 3003 894 3003 1313 
Q 3003 1734 2745 1975 
Q 2488 2216 2034 2216 
z
M 1403 2484 
Q 997 2584 770 2862 
Q 544 3141 544 3541 
Q 544 4100 942 4425 
Q 1341 4750 2034 4750 
Q 2731 4750 3128 4425 
Q 3525 4100 3525 3541 
Q 3525 3141 3298 2862 
Q 3072 2584 2669 2484 
Q 3125 2378 3379 2068 
Q 3634 1759 3634 1313 
Q 3634 634 3220 271 
Q 2806 -91 2034 -91 
Q 1263 -91 848 271 
Q 434 634 434 1313 
Q 434 1759 690 2068 
Q 947 2378 1403 2484 
z
M 1172 3481 
Q 1172 3119 1398 2916 
Q 1625 2713 2034 2713 
Q 2441 2713 2670 2916 
Q 2900 3119 2900 3481 
Q 2900 3844 2670 4047 
Q 2441 4250 2034 4250 
Q 1625 4250 1398 4047 
Q 1172 3844 1172 3481 
z
" transform="scale(0.015625)"/>
       </defs>
       <use xlink:href="#DejaVuSans-38"/>
       <use xlink:href="#DejaVuSans-30" x="63.623047"/>
      </g>
     </g>
    </g>
    <g id="ytick_6">
     <g id="line2d_17">
      <path d="M 50.836875 10.999219 
L 381.566875 10.999219 
" clip-path="url(#p80584755b0)" style="fill: none; stroke-dasharray: 2.96,1.28; stroke-dashoffset: 0; stroke: #c0c0c0; stroke-width: 0.8"/>
     </g>
     <g id="line2d_18">
      <g>
       <use xlink:href="#mee1bc72582" x="50.836875" y="10.999219" style="stroke: #000000; stroke-width: 0.8"/>
      </g>
     </g>
     <g id="text_13">
      <!-- 100 -->
      <g transform="translate(24.749375 14.798437) scale(0.1 -0.1)">
       <use xlink:href="#DejaVuSans-31"/>
       <use xlink:href="#DejaVuSans-30" x="63.623047"/>
       <use xlink:href="#DejaVuSans-30" x="127.246094"/>
      </g>
     </g>
    </g>
    <g id="text_14">
     <!-- Success Rate (%) -->
     <g transform="translate(17.837812 221.627656) rotate(-90) scale(0.14 -0.14)">
      <defs>
       <path id="DejaVuSans-53" d="M 3425 4513 
L 3425 3897 
Q 3066 4069 2747 4153 
Q 2428 4238 2131 4238 
Q 1616 4238 1336 4038 
Q 1056 3838 1056 3469 
Q 1056 3159 1242 3001 
Q 1428 2844 1947 2747 
L 2328 2669 
Q 3034 2534 3370 2195 
Q 3706 1856 3706 1288 
Q 3706 609 3251 259 
Q 2797 -91 1919 -91 
Q 1588 -91 1214 -16 
Q 841 59 441 206 
L 441 856 
Q 825 641 1194 531 
Q 1563 422 1919 422 
Q 2459 422 2753 634 
Q 3047 847 3047 1241 
Q 3047 1584 2836 1778 
Q 2625 1972 2144 2069 
L 1759 2144 
Q 1053 2284 737 2584 
Q 422 2884 422 3419 
Q 422 4038 858 4394 
Q 1294 4750 2059 4750 
Q 2388 4750 2728 4690 
Q 3069 4631 3425 4513 
z
" transform="scale(0.015625)"/>
       <path id="DejaVuSans-75" d="M 544 1381 
L 544 3500 
L 1119 3500 
L 1119 1403 
Q 1119 906 1312 657 
Q 1506 409 1894 409 
Q 2359 409 2629 706 
Q 2900 1003 2900 1516 
L 2900 3500 
L 3475 3500 
L 3475 0 
L 2900 0 
L 2900 538 
Q 2691 219 2414 64 
Q 2138 -91 1772 -91 
Q 1169 -91 856 284 
Q 544 659 544 1381 
z
M 1991 3584 
L 1991 3584 
z
" transform="scale(0.015625)"/>
       <path id="DejaVuSans-63" d="M 3122 3366 
L 3122 2828 
Q 2878 2963 2633 3030 
Q 2388 3097 2138 3097 
Q 1578 3097 1268 2742 
Q 959 2388 959 1747 
Q 959 1106 1268 751 
Q 1578 397 2138 397 
Q 2388 397 2633 464 
Q 2878 531 3122 666 
L 3122 134 
Q 2881 22 2623 -34 
Q 2366 -91 2075 -91 
Q 1284 -91 818 406 
Q 353 903 353 1747 
Q 353 2603 823 3093 
Q 1294 3584 2113 3584 
Q 2378 3584 2631 3529 
Q 2884 3475 3122 3366 
z
" transform="scale(0.015625)"/>
       <path id="DejaVuSans-20" transform="scale(0.015625)"/>
       <path id="DejaVuSans-52" d="M 2841 2188 
Q 3044 2119 3236 1894 
Q 3428 1669 3622 1275 
L 4263 0 
L 3584 0 
L 2988 1197 
Q 2756 1666 2539 1819 
Q 2322 1972 1947 1972 
L 1259 1972 
L 1259 0 
L 628 0 
L 628 4666 
L 2053 4666 
Q 2853 4666 3247 4331 
Q 3641 3997 3641 3322 
Q 3641 2881 3436 2590 
Q 3231 2300 2841 2188 
z
M 1259 4147 
L 1259 2491 
L 2053 2491 
Q 2509 2491 2742 2702 
Q 2975 2913 2975 3322 
Q 2975 3731 2742 3939 
Q 2509 4147 2053 4147 
L 1259 4147 
z
" transform="scale(0.015625)"/>
       <path id="DejaVuSans-61" d="M 2194 1759 
Q 1497 1759 1228 1600 
Q 959 1441 959 1056 
Q 959 750 1161 570 
Q 1363 391 1709 391 
Q 2188 391 2477 730 
Q 2766 1069 2766 1631 
L 2766 1759 
L 2194 1759 
z
M 3341 1997 
L 3341 0 
L 2766 0 
L 2766 531 
Q 2569 213 2275 61 
Q 1981 -91 1556 -91 
Q 1019 -91 701 211 
Q 384 513 384 1019 
Q 384 1609 779 1909 
Q 1175 2209 1959 2209 
L 2766 2209 
L 2766 2266 
Q 2766 2663 2505 2880 
Q 2244 3097 1772 3097 
Q 1472 3097 1187 3025 
Q 903 2953 641 2809 
L 641 3341 
Q 956 3463 1253 3523 
Q 1550 3584 1831 3584 
Q 2591 3584 2966 3190 
Q 3341 2797 3341 1997 
z
" transform="scale(0.015625)"/>
       <path id="DejaVuSans-28" d="M 1984 4856 
Q 1566 4138 1362 3434 
Q 1159 2731 1159 2009 
Q 1159 1288 1364 580 
Q 1569 -128 1984 -844 
L 1484 -844 
Q 1016 -109 783 600 
Q 550 1309 550 2009 
Q 550 2706 781 3412 
Q 1013 4119 1484 4856 
L 1984 4856 
z
" transform="scale(0.015625)"/>
       <path id="DejaVuSans-25" d="M 4653 2053 
Q 4381 2053 4226 1822 
Q 4072 1591 4072 1178 
Q 4072 772 4226 539 
Q 4381 306 4653 306 
Q 4919 306 5073 539 
Q 5228 772 5228 1178 
Q 5228 1588 5073 1820 
Q 4919 2053 4653 2053 
z
M 4653 2450 
Q 5147 2450 5437 2106 
Q 5728 1763 5728 1178 
Q 5728 594 5436 251 
Q 5144 -91 4653 -91 
Q 4153 -91 3862 251 
Q 3572 594 3572 1178 
Q 3572 1766 3864 2108 
Q 4156 2450 4653 2450 
z
M 1428 4353 
Q 1159 4353 1004 4120 
Q 850 3888 850 3481 
Q 850 3069 1003 2837 
Q 1156 2606 1428 2606 
Q 1700 2606 1854 2837 
Q 2009 3069 2009 3481 
Q 2009 3884 1853 4118 
Q 1697 4353 1428 4353 
z
M 4250 4750 
L 4750 4750 
L 1831 -91 
L 1331 -91 
L 4250 4750 
z
M 1428 4750 
Q 1922 4750 2215 4408 
Q 2509 4066 2509 3481 
Q 2509 2891 2217 2550 
Q 1925 2209 1428 2209 
Q 931 2209 642 2551 
Q 353 2894 353 3481 
Q 353 4063 643 4406 
Q 934 4750 1428 4750 
z
" transform="scale(0.015625)"/>
       <path id="DejaVuSans-29" d="M 513 4856 
L 1013 4856 
Q 1481 4119 1714 3412 
Q 1947 2706 1947 2009 
Q 1947 1309 1714 600 
Q 1481 -109 1013 -844 
L 513 -844 
Q 928 -128 1133 580 
Q 1338 1288 1338 2009 
Q 1338 2731 1133 3434 
Q 928 4138 513 4856 
z
" transform="scale(0.015625)"/>
      </defs>
      <use xlink:href="#DejaVuSans-53"/>
      <use xlink:href="#DejaVuSans-75" x="63.476562"/>
      <use xlink:href="#DejaVuSans-63" x="126.855469"/>
      <use xlink:href="#DejaVuSans-63" x="181.835938"/>
      <use xlink:href="#DejaVuSans-65" x="236.816406"/>
      <use xlink:href="#DejaVuSans-73" x="298.339844"/>
      <use xlink:href="#DejaVuSans-73" x="350.439453"/>
      <use xlink:href="#DejaVuSans-20" x="402.539062"/>
      <use xlink:href="#DejaVuSans-52" x="434.326172"/>
      <use xlink:href="#DejaVuSans-61" x="501.558594"/>
      <use xlink:href="#DejaVuSans-74" x="562.837891"/>
      <use xlink:href="#DejaVuSans-65" x="602.046875"/>
      <use xlink:href="#DejaVuSans-20" x="663.570312"/>
      <use xlink:href="#DejaVuSans-28" x="695.357422"/>
      <use xlink:href="#DejaVuSans-25" x="734.371094"/>
      <use xlink:href="#DejaVuSans-29" x="829.390625"/>
     </g>
    </g>
   </g>
   <g id="PolyCollection_1">
    <path d="M 80.770991 286.38084 
L 76.024426 286.38084 
L 75.997562 284.826399 
L 76.002839 283.271957 
L 76.03666 281.717515 
L 76.093349 280.163074 
L 76.165376 278.608632 
L 76.24365 277.05419 
L 76.317838 275.499748 
L 76.376689 273.945307 
L 76.40834 272.390865 
L 76.400596 270.836423 
L 76.341231 269.281982 
L 76.218289 267.72754 
L 76.020449 266.173098 
L 75.737434 264.618656 
L 75.360489 263.064215 
L 74.882886 261.509773 
L 74.300424 259.955331 
L 73.611862 258.40089 
L 72.819237 256.846448 
L 71.928001 255.292006 
L 70.946952 253.737564 
L 69.887946 252.183123 
L 68.76541 250.628681 
L 67.595702 249.074239 
L 66.39638 247.519798 
L 65.185449 245.965356 
L 63.980657 244.410914 
L 62.798882 242.856472 
L 61.655644 241.302031 
L 60.564746 239.747589 
L 59.538025 238.193147 
L 58.585199 236.638706 
L 57.713776 235.084264 
L 56.929013 233.529822 
L 56.233922 231.97538 
L 55.629317 230.420939 
L 55.11394 228.866497 
L 54.684664 227.312055 
L 54.336782 225.757614 
L 54.064383 224.203172 
L 53.860778 222.64873 
L 53.718932 221.094288 
L 53.631866 219.539847 
L 53.592958 217.985405 
L 53.596133 216.430963 
L 53.635916 214.876522 
L 53.707378 213.32208 
L 53.806022 211.767638 
L 53.927667 210.213196 
L 54.068405 208.658755 
L 54.224683 207.104313 
L 54.393527 205.549871 
L 54.572908 203.99543 
L 54.762178 202.440988 
L 54.962507 200.886546 
L 55.177192 199.332104 
L 55.411757 197.777663 
L 55.67376 196.223221 
L 55.972281 194.668779 
L 56.317117 193.114338 
L 56.717764 191.559896 
L 57.182326 190.005454 
L 57.716479 188.451012 
L 58.322648 186.896571 
L 58.999515 185.342129 
L 59.741902 183.787687 
L 60.541073 182.233246 
L 61.385361 180.678804 
L 62.261063 179.124362 
L 63.153451 177.56992 
L 64.047787 176.015479 
L 64.930233 174.461037 
L 65.788558 172.906595 
L 66.612629 171.352154 
L 67.394662 169.797712 
L 68.12927 168.24327 
L 68.813352 166.688828 
L 69.445878 165.134387 
L 70.027607 163.579945 
L 70.560787 162.025503 
L 71.04884 160.471062 
L 71.496057 158.91662 
L 71.907288 157.362178 
L 72.287642 155.807736 
L 72.642188 154.253295 
L 72.975684 152.698853 
L 73.292333 151.144411 
L 73.595609 149.58997 
L 73.888146 148.035528 
L 74.171727 146.481086 
L 74.447352 144.926644 
L 74.715378 143.372203 
L 74.975715 141.817761 
L 75.228024 140.263319 
L 75.471908 138.708877 
L 75.707047 137.154436 
L 75.933275 135.599994 
L 76.150586 134.045552 
L 76.359079 132.491111 
L 80.436337 132.491111 
L 80.436337 132.491111 
L 80.644831 134.045552 
L 80.862141 135.599994 
L 81.08837 137.154436 
L 81.323509 138.708877 
L 81.567393 140.263319 
L 81.819702 141.817761 
L 82.080038 143.372203 
L 82.348065 144.926644 
L 82.623689 146.481086 
L 82.90727 148.035528 
L 83.199808 149.58997 
L 83.503083 151.144411 
L 83.819733 152.698853 
L 84.153228 154.253295 
L 84.507775 155.807736 
L 84.888128 157.362178 
L 85.29936 158.91662 
L 85.746577 160.471062 
L 86.23463 162.025503 
L 86.76781 163.579945 
L 87.349539 165.134387 
L 87.982064 166.688828 
L 88.666147 168.24327 
L 89.400755 169.797712 
L 90.182788 171.352154 
L 91.006859 172.906595 
L 91.865184 174.461037 
L 92.747629 176.015479 
L 93.641966 177.56992 
L 94.534354 179.124362 
L 95.410056 180.678804 
L 96.254344 182.233246 
L 97.053514 183.787687 
L 97.795902 185.342129 
L 98.472768 186.896571 
L 99.078938 188.451012 
L 99.613091 190.005454 
L 100.077653 191.559896 
L 100.4783 193.114338 
L 100.823135 194.668779 
L 101.121657 196.223221 
L 101.38366 197.777663 
L 101.618225 199.332104 
L 101.832909 200.886546 
L 102.033238 202.440988 
L 102.222509 203.99543 
L 102.401889 205.549871 
L 102.570733 207.104313 
L 102.727011 208.658755 
L 102.86775 210.213196 
L 102.989395 211.767638 
L 103.088038 213.32208 
L 103.159501 214.876522 
L 103.199283 216.430963 
L 103.202458 217.985405 
L 103.163551 219.539847 
L 103.076484 221.094288 
L 102.934639 222.64873 
L 102.731033 224.203172 
L 102.458635 225.757614 
L 102.110753 227.312055 
L 101.681477 228.866497 
L 101.1661 230.420939 
L 100.561495 231.97538 
L 99.866403 233.529822 
L 99.081641 235.084264 
L 98.210218 236.638706 
L 97.257391 238.193147 
L 96.23067 239.747589 
L 95.139772 241.302031 
L 93.996535 242.856472 
L 92.81476 244.410914 
L 91.609968 245.965356 
L 90.399037 247.519798 
L 89.199715 249.074239 
L 88.030007 250.628681 
L 86.907471 252.183123 
L 85.848465 253.737564 
L 84.867416 255.292006 
L 83.97618 256.846448 
L 83.183555 258.40089 
L 82.494993 259.955331 
L 81.912531 261.509773 
L 81.434928 263.064215 
L 81.057983 264.618656 
L 80.774968 266.173098 
L 80.577127 267.72754 
L 80.454186 269.281982 
L 80.39482 270.836423 
L 80.387077 272.390865 
L 80.418727 273.945307 
L 80.477579 275.499748 
L 80.551767 277.05419 
L 80.63004 278.608632 
L 80.702067 280.163074 
L 80.758757 281.717515 
L 80.792578 283.271957 
L 80.797855 284.826399 
L 80.770991 286.38084 
z
" clip-path="url(#p80584755b0)" style="fill: #8e0152"/>
   </g>
   <g id="PolyCollection_2">
    <path d="M 146.667395 237.784084 
L 120.371355 237.784084 
L 119.692467 236.720518 
L 119.062323 235.656953 
L 118.483666 234.593387 
L 117.957349 233.529822 
L 117.482451 232.466257 
L 117.056506 231.402691 
L 116.675829 230.339126 
L 116.335907 229.275561 
L 116.031831 228.211995 
L 115.758739 227.14843 
L 115.512227 226.084864 
L 115.28869 225.021299 
L 115.085588 223.957734 
L 114.901575 222.894168 
L 114.736514 221.830603 
L 114.591355 220.767037 
L 114.467881 219.703472 
L 114.368349 218.639907 
L 114.295056 217.576341 
L 114.24985 216.512776 
L 114.233646 215.449211 
L 114.245983 214.385645 
L 114.284662 213.32208 
L 114.345513 212.258514 
L 114.422313 211.194949 
L 114.506876 210.131384 
L 114.589327 209.067818 
L 114.658548 208.004253 
L 114.702771 206.940687 
L 114.710291 205.877122 
L 114.670238 204.813557 
L 114.573369 203.749991 
L 114.412803 202.686426 
L 114.184651 201.622861 
L 113.888482 200.559295 
L 113.527581 199.49573 
L 113.108966 198.432164 
L 112.643152 197.368599 
L 112.143674 196.305034 
L 111.626383 195.241468 
L 111.108562 194.177903 
L 110.607933 193.114338 
L 110.141602 192.050772 
L 109.725038 190.987207 
L 109.371147 189.923641 
L 109.089512 188.860076 
L 108.885856 187.796511 
L 108.761752 186.732945 
L 108.714625 185.66938 
L 108.738008 184.605814 
L 108.822059 183.542249 
L 108.954281 182.478684 
L 109.120398 181.415118 
L 109.305323 180.351553 
L 109.494152 179.287988 
L 109.673124 178.224422 
L 109.830483 177.160857 
L 109.957199 176.097291 
L 110.047511 175.033726 
L 110.099269 173.970161 
L 110.114062 172.906595 
L 110.097145 171.84303 
L 110.057158 170.779464 
L 110.005685 169.715899 
L 109.956655 168.652334 
L 109.925637 167.588768 
L 109.929052 166.525203 
L 109.983353 165.461638 
L 110.104194 164.398072 
L 110.305639 163.334507 
L 110.599447 162.270941 
L 110.994453 161.207376 
L 111.496088 160.143811 
L 112.106056 159.080245 
L 112.822186 158.01668 
L 113.638464 156.953114 
L 114.545252 155.889549 
L 115.529676 154.825984 
L 116.576179 153.762418 
L 117.667182 152.698853 
L 118.783854 151.635288 
L 119.906914 150.571722 
L 121.017454 149.508157 
L 122.097701 148.444591 
L 123.131721 147.381026 
L 124.105986 146.317461 
L 125.009809 145.253895 
L 125.83561 144.19033 
L 126.579014 143.126764 
L 127.238786 142.063199 
L 127.816604 140.999634 
L 128.316717 139.936068 
L 128.745486 138.872503 
L 129.110867 137.808938 
L 129.421854 136.745372 
L 129.687934 135.681807 
L 129.918562 134.618241 
L 130.122705 133.554676 
L 130.308463 132.491111 
L 136.730287 132.491111 
L 136.730287 132.491111 
L 136.916045 133.554676 
L 137.120188 134.618241 
L 137.350816 135.681807 
L 137.616896 136.745372 
L 137.927883 137.808938 
L 138.293264 138.872503 
L 138.722033 139.936068 
L 139.222146 140.999634 
L 139.799964 142.063199 
L 140.459736 143.126764 
L 141.20314 144.19033 
L 142.028941 145.253895 
L 142.932764 146.317461 
L 143.907029 147.381026 
L 144.941049 148.444591 
L 146.021296 149.508157 
L 147.131836 150.571722 
L 148.254896 151.635288 
L 149.371568 152.698853 
L 150.462571 153.762418 
L 151.509074 154.825984 
L 152.493498 155.889549 
L 153.400286 156.953114 
L 154.216564 158.01668 
L 154.932694 159.080245 
L 155.542662 160.143811 
L 156.044297 161.207376 
L 156.439303 162.270941 
L 156.733111 163.334507 
L 156.934556 164.398072 
L 157.055397 165.461638 
L 157.109698 166.525203 
L 157.113113 167.588768 
L 157.082095 168.652334 
L 157.033065 169.715899 
L 156.981592 170.779464 
L 156.941605 171.84303 
L 156.924688 172.906595 
L 156.939481 173.970161 
L 156.991239 175.033726 
L 157.081551 176.097291 
L 157.208267 177.160857 
L 157.365626 178.224422 
L 157.544598 179.287988 
L 157.733427 180.351553 
L 157.918352 181.415118 
L 158.084469 182.478684 
L 158.216691 183.542249 
L 158.300742 184.605814 
L 158.324125 185.66938 
L 158.276998 186.732945 
L 158.152894 187.796511 
L 157.949238 188.860076 
L 157.667603 189.923641 
L 157.313712 190.987207 
L 156.897148 192.050772 
L 156.430817 193.114338 
L 155.930188 194.177903 
L 155.412367 195.241468 
L 154.895076 196.305034 
L 154.395598 197.368599 
L 153.929784 198.432164 
L 153.511169 199.49573 
L 153.150268 200.559295 
L 152.854099 201.622861 
L 152.625947 202.686426 
L 152.465381 203.749991 
L 152.368512 204.813557 
L 152.328459 205.877122 
L 152.335979 206.940687 
L 152.380202 208.004253 
L 152.449423 209.067818 
L 152.531874 210.131384 
L 152.616437 211.194949 
L 152.693237 212.258514 
L 152.754088 213.32208 
L 152.792767 214.385645 
L 152.805104 215.449211 
L 152.7889 216.512776 
L 152.743694 217.576341 
L 152.670401 218.639907 
L 152.570869 219.703472 
L 152.447395 220.767037 
L 152.302236 221.830603 
L 152.137175 222.894168 
L 151.953162 223.957734 
L 151.75006 225.021299 
L 151.526523 226.084864 
L 151.280011 227.14843 
L 151.006919 228.211995 
L 150.702843 229.275561 
L 150.362921 230.339126 
L 149.982244 231.402691 
L 149.556299 232.466257 
L 149.081401 233.529822 
L 148.555084 234.593387 
L 147.976427 235.656953 
L 147.346283 236.720518 
L 146.667395 237.784084 
z
" clip-path="url(#p80584755b0)" style="fill: #e897c4"/>
   </g>
   <g id="PolyCollection_3">
    <path d="M 191.782561 253.983003 
L 185.499523 253.983003 
L 185.24284 252.919437 
L 184.979088 251.855872 
L 184.709962 250.792306 
L 184.437736 249.728741 
L 184.165318 248.665176 
L 183.89625 247.60161 
L 183.634653 246.538045 
L 183.385106 245.474479 
L 183.15247 244.410914 
L 182.941643 243.347349 
L 182.757288 242.283783 
L 182.603523 241.220218 
L 182.483629 240.156653 
L 182.399763 239.093087 
L 182.352737 238.029522 
L 182.341858 236.965956 
L 182.364858 235.902391 
L 182.417913 234.838826 
L 182.495765 233.77526 
L 182.591926 232.711695 
L 182.698961 231.648129 
L 182.808825 230.584564 
L 182.913229 229.520999 
L 183.004019 228.457433 
L 183.073534 227.393868 
L 183.114933 226.330303 
L 183.122462 225.266737 
L 183.091665 224.203172 
L 183.019513 223.139606 
L 182.904477 222.076041 
L 182.746514 221.012476 
L 182.547008 219.94891 
L 182.308637 218.885345 
L 182.03521 217.821779 
L 181.731451 216.758214 
L 181.402766 215.694649 
L 181.054973 214.631083 
L 180.694023 213.567518 
L 180.325718 212.503953 
L 179.955413 211.440387 
L 179.587741 210.376822 
L 179.226351 209.313256 
L 178.873676 208.249691 
L 178.530746 207.186126 
L 178.197064 206.12256 
L 177.870548 205.058995 
L 177.54756 203.99543 
L 177.223024 202.931864 
L 176.890644 201.868299 
L 176.543214 200.804733 
L 176.173011 199.741168 
L 175.772267 198.677603 
L 175.333683 197.614037 
L 174.850968 196.550472 
L 174.319366 195.486906 
L 173.736135 194.423341 
L 173.100949 193.359776 
L 172.416184 192.29621 
L 171.687061 191.232645 
L 170.921637 190.16908 
L 170.130617 189.105514 
L 169.32701 188.041949 
L 168.525632 186.978383 
L 167.742483 185.914818 
L 166.994041 184.851253 
L 166.296509 183.787687 
L 165.665074 182.724122 
L 165.113208 181.660556 
L 164.652077 180.596991 
L 164.290078 179.533426 
L 164.032542 178.46986 
L 163.881611 177.406295 
L 163.836292 176.34273 
L 163.892687 175.279164 
L 164.044363 174.215599 
L 164.282835 173.152033 
L 164.598135 172.088468 
L 164.979415 171.024903 
L 165.415545 169.961337 
L 165.895686 168.897772 
L 166.409779 167.834206 
L 166.948949 166.770641 
L 167.505805 165.707076 
L 168.074614 164.64351 
L 168.651368 163.579945 
L 169.233732 162.51638 
L 169.820909 161.452814 
L 170.413409 160.389249 
L 171.012767 159.325683 
L 171.621221 158.262118 
L 172.241368 157.198553 
L 172.875818 156.134987 
L 173.526878 155.071422 
L 174.196264 154.007856 
L 174.884868 152.944291 
L 175.592585 151.880726 
L 176.318205 150.81716 
L 177.059381 149.753595 
L 177.812665 148.69003 
L 199.469418 148.69003 
L 199.469418 148.69003 
L 200.222702 149.753595 
L 200.963879 150.81716 
L 201.689499 151.880726 
L 202.397215 152.944291 
L 203.08582 154.007856 
L 203.755206 155.071422 
L 204.406266 156.134987 
L 205.040716 157.198553 
L 205.660862 158.262118 
L 206.269317 159.325683 
L 206.868675 160.389249 
L 207.461174 161.452814 
L 208.048351 162.51638 
L 208.630716 163.579945 
L 209.207469 164.64351 
L 209.776278 165.707076 
L 210.333134 166.770641 
L 210.872305 167.834206 
L 211.386397 168.897772 
L 211.866538 169.961337 
L 212.302669 171.024903 
L 212.683948 172.088468 
L 212.999248 173.152033 
L 213.23772 174.215599 
L 213.389396 175.279164 
L 213.445792 176.34273 
L 213.400473 177.406295 
L 213.249541 178.46986 
L 212.992005 179.533426 
L 212.630006 180.596991 
L 212.168875 181.660556 
L 211.617009 182.724122 
L 210.985574 183.787687 
L 210.288042 184.851253 
L 209.5396 185.914818 
L 208.756451 186.978383 
L 207.955073 188.041949 
L 207.151466 189.105514 
L 206.360446 190.16908 
L 205.595022 191.232645 
L 204.8659 192.29621 
L 204.181135 193.359776 
L 203.545949 194.423341 
L 202.962717 195.486906 
L 202.431115 196.550472 
L 201.9484 197.614037 
L 201.509817 198.677603 
L 201.109073 199.741168 
L 200.73887 200.804733 
L 200.391439 201.868299 
L 200.059059 202.931864 
L 199.734523 203.99543 
L 199.411535 205.058995 
L 199.085019 206.12256 
L 198.751337 207.186126 
L 198.408407 208.249691 
L 198.055732 209.313256 
L 197.694342 210.376822 
L 197.326671 211.440387 
L 196.956365 212.503953 
L 196.58806 213.567518 
L 196.227111 214.631083 
L 195.879317 215.694649 
L 195.550632 216.758214 
L 195.246874 217.821779 
L 194.973446 218.885345 
L 194.735076 219.94891 
L 194.535569 221.012476 
L 194.377607 222.076041 
L 194.26257 223.139606 
L 194.190419 224.203172 
L 194.159621 225.266737 
L 194.16715 226.330303 
L 194.208549 227.393868 
L 194.278065 228.457433 
L 194.368854 229.520999 
L 194.473258 230.584564 
L 194.583122 231.648129 
L 194.690158 232.711695 
L 194.786319 233.77526 
L 194.86417 234.838826 
L 194.917225 235.902391 
L 194.940225 236.965956 
L 194.929347 238.029522 
L 194.882321 239.093087 
L 194.798455 240.156653 
L 194.67856 241.220218 
L 194.524796 242.283783 
L 194.34044 243.347349 
L 194.129613 244.410914 
L 193.896977 245.474479 
L 193.647431 246.538045 
L 193.385833 247.60161 
L 193.116765 248.665176 
L 192.844347 249.728741 
L 192.572121 250.792306 
L 192.302995 251.855872 
L 192.039244 252.919437 
L 191.782561 253.983003 
z
" clip-path="url(#p80584755b0)" style="fill: #d9d9d9"/>
   </g>
   <g id="PolyCollection_4">
    <path d="M 248.245847 213.485705 
L 239.27957 213.485705 
L 239.256917 212.667578 
L 239.257387 211.849451 
L 239.278909 211.031324 
L 239.318734 210.213196 
L 239.373509 209.395069 
L 239.439368 208.576942 
L 239.512056 207.758815 
L 239.587059 206.940687 
L 239.65974 206.12256 
L 239.725493 205.304433 
L 239.779878 204.486306 
L 239.818765 203.668179 
L 239.838454 202.850051 
L 239.835782 202.031924 
L 239.808211 201.213797 
L 239.75389 200.39567 
L 239.671692 199.577543 
L 239.561226 198.759415 
L 239.42282 197.941288 
L 239.257483 197.123161 
L 239.066842 196.305034 
L 238.853056 195.486906 
L 238.618721 194.668779 
L 238.366754 193.850652 
L 238.100273 193.032525 
L 237.822467 192.214398 
L 237.536474 191.39627 
L 237.245259 190.578143 
L 236.951493 189.760016 
L 236.657455 188.941889 
L 236.364942 188.123761 
L 236.075197 187.305634 
L 235.788856 186.487507 
L 235.505919 185.66938 
L 235.225739 184.851253 
L 234.947036 184.033125 
L 234.667936 183.214998 
L 234.386022 182.396871 
L 234.09842 181.578744 
L 233.801891 180.760617 
L 233.492949 179.942489 
L 233.167985 179.124362 
L 232.823409 178.306235 
L 232.455794 177.488108 
L 232.062026 176.66998 
L 231.63945 175.851853 
L 231.186014 175.033726 
L 230.700393 174.215599 
L 230.182111 173.397472 
L 229.631623 172.579344 
L 229.050386 171.761217 
L 228.440892 170.94309 
L 227.806664 170.124963 
L 227.152222 169.306835 
L 226.483004 168.488708 
L 225.80525 167.670581 
L 225.125851 166.852454 
L 224.452163 166.034327 
L 223.791795 165.216199 
L 223.152374 164.398072 
L 222.541306 163.579945 
L 221.965528 162.761818 
L 221.43128 161.94369 
L 220.943892 161.125563 
L 220.507612 160.307436 
L 220.125473 159.489309 
L 219.799216 158.671182 
L 219.529272 157.853054 
L 219.314803 157.034927 
L 219.153808 156.2168 
L 219.043286 155.398673 
L 218.979445 154.580546 
L 218.957958 153.762418 
L 218.974242 152.944291 
L 219.023739 152.126164 
L 219.102208 151.308037 
L 219.20598 150.489909 
L 219.332182 149.671782 
L 219.478909 148.853655 
L 219.64533 148.035528 
L 219.831735 147.217401 
L 220.0395 146.399273 
L 220.270991 145.581146 
L 220.529401 144.763019 
L 220.818534 143.944892 
L 221.142548 143.126764 
L 221.505679 142.308637 
L 221.911944 141.49051 
L 222.364868 140.672383 
L 222.867217 139.854256 
L 223.420789 139.036128 
L 224.026235 138.218001 
L 224.682948 137.399874 
L 225.38901 136.581747 
L 226.141206 135.76362 
L 226.935086 134.945492 
L 227.765093 134.127365 
L 228.624727 133.309238 
L 229.506751 132.491111 
L 258.018666 132.491111 
L 258.018666 132.491111 
L 258.900689 133.309238 
L 259.760324 134.127365 
L 260.59033 134.945492 
L 261.384211 135.76362 
L 262.136406 136.581747 
L 262.842469 137.399874 
L 263.499182 138.218001 
L 264.104627 139.036128 
L 264.658199 139.854256 
L 265.160549 140.672383 
L 265.613472 141.49051 
L 266.019738 142.308637 
L 266.382868 143.126764 
L 266.706883 143.944892 
L 266.996016 144.763019 
L 267.254426 145.581146 
L 267.485917 146.399273 
L 267.693682 147.217401 
L 267.880087 148.035528 
L 268.046508 148.853655 
L 268.193234 149.671782 
L 268.319436 150.489909 
L 268.423209 151.308037 
L 268.501678 152.126164 
L 268.551175 152.944291 
L 268.567458 153.762418 
L 268.545972 154.580546 
L 268.482131 155.398673 
L 268.371608 156.2168 
L 268.210614 157.034927 
L 267.996145 157.853054 
L 267.726201 158.671182 
L 267.399944 159.489309 
L 267.017805 160.307436 
L 266.581525 161.125563 
L 266.094137 161.94369 
L 265.559889 162.761818 
L 264.984111 163.579945 
L 264.373043 164.398072 
L 263.733622 165.216199 
L 263.073253 166.034327 
L 262.399566 166.852454 
L 261.720167 167.670581 
L 261.042413 168.488708 
L 260.373195 169.306835 
L 259.718753 170.124963 
L 259.084525 170.94309 
L 258.47503 171.761217 
L 257.893794 172.579344 
L 257.343306 173.397472 
L 256.825023 174.215599 
L 256.339403 175.033726 
L 255.885966 175.851853 
L 255.463391 176.66998 
L 255.069623 177.488108 
L 254.702008 178.306235 
L 254.357432 179.124362 
L 254.032468 179.942489 
L 253.723526 180.760617 
L 253.426997 181.578744 
L 253.139395 182.396871 
L 252.857481 183.214998 
L 252.57838 184.033125 
L 252.299678 184.851253 
L 252.019498 185.66938 
L 251.736561 186.487507 
L 251.45022 187.305634 
L 251.160475 188.123761 
L 250.867962 188.941889 
L 250.573924 189.760016 
L 250.280158 190.578143 
L 249.988942 191.39627 
L 249.70295 192.214398 
L 249.425144 193.032525 
L 249.158662 193.850652 
L 248.906695 194.668779 
L 248.672361 195.486906 
L 248.458575 196.305034 
L 248.267933 197.123161 
L 248.102596 197.941288 
L 247.96419 198.759415 
L 247.853724 199.577543 
L 247.771527 200.39567 
L 247.717206 201.213797 
L 247.689635 202.031924 
L 247.686963 202.850051 
L 247.706652 203.668179 
L 247.745539 204.486306 
L 247.799924 205.304433 
L 247.865676 206.12256 
L 247.938358 206.940687 
L 248.01336 207.758815 
L 248.086049 208.576942 
L 248.151908 209.395069 
L 248.206682 210.213196 
L 248.246508 211.031324 
L 248.26803 211.849451 
L 248.268499 212.667578 
L 248.245847 213.485705 
z
" clip-path="url(#p80584755b0)" style="fill: #9acd61"/>
   </g>
   <g id="PolyCollection_5">
    <path d="M 303.222593 213.485705 
L 294.546157 213.485705 
L 294.558868 212.258514 
L 294.609628 211.031324 
L 294.69579 209.804133 
L 294.813403 208.576942 
L 294.957304 207.349751 
L 295.121251 206.12256 
L 295.298081 204.895369 
L 295.479893 203.668179 
L 295.658239 202.440988 
L 295.824307 201.213797 
L 295.969102 199.986606 
L 296.083619 198.759415 
L 296.158989 197.532224 
L 296.186621 196.305034 
L 296.158329 195.077843 
L 296.066456 193.850652 
L 295.903994 192.623461 
L 295.664717 191.39627 
L 295.343316 190.16908 
L 294.935554 188.941889 
L 294.438434 187.714698 
L 293.850368 186.487507 
L 293.171355 185.260316 
L 292.40315 184.033125 
L 291.549402 182.805935 
L 290.615763 181.578744 
L 289.609936 180.351553 
L 288.541659 179.124362 
L 287.422606 177.897171 
L 286.266197 176.66998 
L 285.087324 175.44279 
L 283.901977 174.215599 
L 282.726807 172.988408 
L 281.578615 171.761217 
L 280.473811 170.534026 
L 279.427861 169.306835 
L 278.454749 168.079645 
L 277.566499 166.852454 
L 276.772761 165.625263 
L 276.080515 164.398072 
L 275.49389 163.170881 
L 275.014118 161.94369 
L 274.63962 160.7165 
L 274.366227 159.489309 
L 274.187507 158.262118 
L 274.095186 157.034927 
L 274.079625 155.807736 
L 274.130338 154.580546 
L 274.236496 153.353355 
L 274.387414 152.126164 
L 274.572971 150.898973 
L 274.783967 149.671782 
L 275.012393 148.444591 
L 275.251607 147.217401 
L 275.496435 145.99021 
L 275.743186 144.763019 
L 275.989613 143.535828 
L 276.234814 142.308637 
L 276.479106 141.081446 
L 276.723879 139.854256 
L 276.971426 138.627065 
L 277.224782 137.399874 
L 277.487553 136.172683 
L 277.763736 134.945492 
L 278.05755 133.718301 
L 278.373242 132.491111 
L 278.714901 131.26392 
L 279.086253 130.036729 
L 279.490462 128.809538 
L 279.92993 127.582347 
L 280.406118 126.355157 
L 280.919386 125.127966 
L 281.468882 123.900775 
L 282.052476 122.673584 
L 282.666762 121.446393 
L 283.307121 120.219202 
L 283.967856 118.992012 
L 284.642391 117.764821 
L 285.323519 116.53763 
L 286.003696 115.310439 
L 286.67536 114.083248 
L 287.331245 112.856057 
L 287.964688 111.628867 
L 288.569906 110.401676 
L 289.14221 109.174485 
L 289.678181 107.947294 
L 290.175757 106.720103 
L 290.634266 105.492912 
L 291.054379 104.265722 
L 291.438006 103.038531 
L 291.788132 101.81134 
L 292.108611 100.584149 
L 292.403928 99.356958 
L 292.678943 98.129767 
L 292.938637 96.902577 
L 293.187856 95.675386 
L 293.431092 94.448195 
L 293.672283 93.221004 
L 293.914664 91.993813 
L 303.854086 91.993813 
L 303.854086 91.993813 
L 304.096467 93.221004 
L 304.337658 94.448195 
L 304.580894 95.675386 
L 304.830113 96.902577 
L 305.089807 98.129767 
L 305.364822 99.356958 
L 305.660139 100.584149 
L 305.980618 101.81134 
L 306.330744 103.038531 
L 306.714371 104.265722 
L 307.134484 105.492912 
L 307.592993 106.720103 
L 308.090569 107.947294 
L 308.62654 109.174485 
L 309.198844 110.401676 
L 309.804062 111.628867 
L 310.437505 112.856057 
L 311.09339 114.083248 
L 311.765054 115.310439 
L 312.445231 116.53763 
L 313.126359 117.764821 
L 313.800894 118.992012 
L 314.461629 120.219202 
L 315.101988 121.446393 
L 315.716274 122.673584 
L 316.299868 123.900775 
L 316.849364 125.127966 
L 317.362632 126.355157 
L 317.83882 127.582347 
L 318.278288 128.809538 
L 318.682497 130.036729 
L 319.053849 131.26392 
L 319.395508 132.491111 
L 319.7112 133.718301 
L 320.005014 134.945492 
L 320.281197 136.172683 
L 320.543968 137.399874 
L 320.797324 138.627065 
L 321.044871 139.854256 
L 321.289644 141.081446 
L 321.533936 142.308637 
L 321.779137 143.535828 
L 322.025564 144.763019 
L 322.272315 145.99021 
L 322.517143 147.217401 
L 322.756357 148.444591 
L 322.984783 149.671782 
L 323.195779 150.898973 
L 323.381336 152.126164 
L 323.532254 153.353355 
L 323.638412 154.580546 
L 323.689125 155.807736 
L 323.673564 157.034927 
L 323.581243 158.262118 
L 323.402523 159.489309 
L 323.12913 160.7165 
L 322.754632 161.94369 
L 322.27486 163.170881 
L 321.688235 164.398072 
L 320.995989 165.625263 
L 320.202251 166.852454 
L 319.314001 168.079645 
L 318.340889 169.306835 
L 317.294939 170.534026 
L 316.190135 171.761217 
L 315.041943 172.988408 
L 313.866773 174.215599 
L 312.681426 175.44279 
L 311.502553 176.66998 
L 310.346144 177.897171 
L 309.227091 179.124362 
L 308.158814 180.351553 
L 307.152987 181.578744 
L 306.219348 182.805935 
L 305.3656 184.033125 
L 304.597395 185.260316 
L 303.918382 186.487507 
L 303.330316 187.714698 
L 302.833196 188.941889 
L 302.425434 190.16908 
L 302.104033 191.39627 
L 301.864756 192.623461 
L 301.702294 193.850652 
L 301.610421 195.077843 
L 301.582129 196.305034 
L 301.609761 197.532224 
L 301.685131 198.759415 
L 301.799648 199.986606 
L 301.944443 201.213797 
L 302.110511 202.440988 
L 302.288857 203.668179 
L 302.470669 204.895369 
L 302.647499 206.12256 
L 302.811446 207.349751 
L 302.955347 208.576942 
L 303.07296 209.804133 
L 303.159122 211.031324 
L 303.209882 212.258514 
L 303.222593 213.485705 
z
" clip-path="url(#p80584755b0)" style="fill: #276419"/>
   </g>
   <g id="PolyCollection_6">
    <path d="M 354.702436 286.38084 
L 353.309647 286.38084 
L 353.306005 284.417335 
L 353.32339 282.45383 
L 353.356494 280.490324 
L 353.397702 278.526819 
L 353.438038 276.563314 
L 353.468005 274.599808 
L 353.478091 272.636303 
L 353.458861 270.672798 
L 353.400712 268.709292 
L 353.293457 266.745787 
L 353.125972 264.782282 
L 352.886062 262.818776 
L 352.560724 260.855271 
L 352.136877 258.891766 
L 351.602688 256.928261 
L 350.949483 254.964755 
L 350.17417 253.00125 
L 349.281833 251.037745 
L 348.287943 249.074239 
L 347.219404 247.110734 
L 346.1137 245.147229 
L 345.015683 243.183723 
L 343.972113 241.220218 
L 343.024758 239.256713 
L 342.203449 237.293207 
L 341.520749 235.329702 
L 340.969717 233.366197 
L 340.525588 231.402691 
L 340.151295 229.439186 
L 339.805789 227.475681 
L 339.453363 225.512175 
L 339.07185 223.54867 
L 338.657705 221.585165 
L 338.226627 219.621659 
L 337.809341 217.658154 
L 337.443302 215.694649 
L 337.162127 213.731143 
L 336.985178 211.767638 
L 336.90986 209.804133 
L 336.908695 207.840627 
L 336.932206 205.877122 
L 336.917333 203.913617 
L 336.799762 201.950111 
L 336.527488 199.986606 
L 336.072493 198.023101 
L 335.437663 196.059595 
L 334.657167 194.09609 
L 333.790042 192.132585 
L 332.908459 190.16908 
L 332.083453 188.205574 
L 331.371521 186.242069 
L 330.805117 184.278564 
L 330.389035 182.315058 
L 330.103109 180.351553 
L 329.910261 178.388048 
L 329.767774 176.424542 
L 329.639216 174.461037 
L 329.504486 172.497532 
L 329.365981 170.534026 
L 329.249726 168.570521 
L 329.201292 166.607016 
L 329.277286 164.64351 
L 329.534086 162.680005 
L 330.01608 160.7165 
L 330.745902 158.752994 
L 331.718834 156.789489 
L 332.902689 154.825984 
L 334.24325 152.862478 
L 335.673927 150.898973 
L 337.127218 148.935468 
L 338.545167 146.971962 
L 339.886419 145.008457 
L 341.12867 143.044952 
L 342.266736 141.081446 
L 343.307687 139.117941 
L 344.265042 137.154436 
L 345.153777 135.19093 
L 345.987145 133.227425 
L 346.775318 131.26392 
L 347.525237 129.300414 
L 348.240863 127.336909 
L 348.923311 125.373404 
L 349.5708 123.409899 
L 350.17872 121.446393 
L 350.740201 119.482888 
L 351.247324 117.519383 
L 351.692776 115.555877 
L 352.071516 113.592372 
L 352.381925 111.628867 
L 352.626184 109.665361 
L 352.809878 107.701856 
L 352.941116 105.738351 
L 353.029552 103.774845 
L 353.085571 101.81134 
L 353.119716 99.847835 
L 353.142251 97.884329 
L 353.162672 95.920824 
L 353.189061 93.957319 
L 353.22735 91.993813 
L 354.784733 91.993813 
L 354.784733 91.993813 
L 354.823022 93.957319 
L 354.849412 95.920824 
L 354.869832 97.884329 
L 354.892368 99.847835 
L 354.926512 101.81134 
L 354.982531 103.774845 
L 355.070967 105.738351 
L 355.202206 107.701856 
L 355.385899 109.665361 
L 355.630159 111.628867 
L 355.940568 113.592372 
L 356.319307 115.555877 
L 356.76476 117.519383 
L 357.271882 119.482888 
L 357.833363 121.446393 
L 358.441283 123.409899 
L 359.088772 125.373404 
L 359.771221 127.336909 
L 360.486847 129.300414 
L 361.236765 131.26392 
L 362.024938 133.227425 
L 362.858307 135.19093 
L 363.747042 137.154436 
L 364.704396 139.117941 
L 365.745348 141.081446 
L 366.883413 143.044952 
L 368.125664 145.008457 
L 369.466916 146.971962 
L 370.884865 148.935468 
L 372.338157 150.898973 
L 373.768833 152.862478 
L 375.109394 154.825984 
L 376.293249 156.789489 
L 377.266181 158.752994 
L 377.996004 160.7165 
L 378.477997 162.680005 
L 378.734797 164.64351 
L 378.810792 166.607016 
L 378.762358 168.570521 
L 378.646103 170.534026 
L 378.507597 172.497532 
L 378.372867 174.461037 
L 378.244309 176.424542 
L 378.101822 178.388048 
L 377.908974 180.351553 
L 377.623049 182.315058 
L 377.206966 184.278564 
L 376.640563 186.242069 
L 375.92863 188.205574 
L 375.103624 190.16908 
L 374.222041 192.132585 
L 373.354917 194.09609 
L 372.574421 196.059595 
L 371.93959 198.023101 
L 371.484595 199.986606 
L 371.212322 201.950111 
L 371.09475 203.913617 
L 371.079877 205.877122 
L 371.103388 207.840627 
L 371.102224 209.804133 
L 371.026906 211.767638 
L 370.849956 213.731143 
L 370.568781 215.694649 
L 370.202743 217.658154 
L 369.785456 219.621659 
L 369.354379 221.585165 
L 368.940234 223.54867 
L 368.55872 225.512175 
L 368.206294 227.475681 
L 367.860788 229.439186 
L 367.486495 231.402691 
L 367.042366 233.366197 
L 366.491334 235.329702 
L 365.808635 237.293207 
L 364.987325 239.256713 
L 364.03997 241.220218 
L 362.9964 243.183723 
L 361.898383 245.147229 
L 360.792679 247.110734 
L 359.72414 249.074239 
L 358.73025 251.037745 
L 357.837914 253.00125 
L 357.0626 254.964755 
L 356.409395 256.928261 
L 355.875206 258.891766 
L 355.451359 260.855271 
L 355.126021 262.818776 
L 354.886112 264.782282 
L 354.718626 266.745787 
L 354.611371 268.709292 
L 354.553222 270.672798 
L 354.533993 272.636303 
L 354.544078 274.599808 
L 354.574045 276.563314 
L 354.614381 278.526819 
L 354.655589 280.490324 
L 354.688694 282.45383 
L 354.706078 284.417335 
L 354.702436 286.38084 
z
" clip-path="url(#p80584755b0)" style="fill: #2976bb"/>
   </g>
   <g id="patch_3">
    <path d="M 72.885542 229.684624 
L 83.909875 229.684624 
L 83.909875 215.012377 
L 81.153792 209.435976 
L 83.909875 203.859574 
L 83.909875 189.187327 
L 72.885542 189.187327 
L 72.885542 203.859574 
L 75.641625 209.435976 
L 72.885542 215.012377 
L 72.885542 229.684624 
z
" clip-path="url(#p80584755b0)" style="fill: #a9a9a9; stroke: #000000; stroke-linejoin: miter"/>
   </g>
   <g id="line2d_19">
    <path d="M 78.397708 229.684624 
L 78.397708 245.883543 
" clip-path="url(#p80584755b0)" style="fill: none; stroke: #000000; stroke-linecap: square"/>
   </g>
   <g id="line2d_20">
    <path d="M 78.397708 189.187327 
L 78.397708 172.988408 
" clip-path="url(#p80584755b0)" style="fill: none; stroke: #000000; stroke-linecap: square"/>
   </g>
   <g id="line2d_21">
    <path d="M 75.641625 245.883543 
L 81.153792 245.883543 
" clip-path="url(#p80584755b0)" style="fill: none; stroke: #000000; stroke-linecap: square"/>
   </g>
   <g id="line2d_22">
    <path d="M 75.641625 172.988408 
L 81.153792 172.988408 
" clip-path="url(#p80584755b0)" style="fill: none; stroke: #000000; stroke-linecap: square"/>
   </g>
   <g id="line2d_23">
    <defs>
     <path id="m1d6f255d66" d="M 0 2 
C 0.530406 2 1.03916 1.789267 1.414214 1.414214 
C 1.789267 1.03916 2 0.530406 2 0 
C 2 -0.530406 1.789267 -1.03916 1.414214 -1.414214 
C 1.03916 -1.789267 0.530406 -2 0 -2 
C -0.530406 -2 -1.03916 -1.789267 -1.414214 -1.414214 
C -1.789267 -1.03916 -2 -0.530406 -2 0 
C -2 0.530406 -1.789267 1.03916 -1.414214 1.414214 
C -1.03916 1.789267 -0.530406 2 0 2 
z
" style="stroke: #000000"/>
    </defs>
    <g clip-path="url(#p80584755b0)">
     <use xlink:href="#m1d6f255d66" x="78.397708" y="286.38084" style="fill-opacity: 0; stroke: #000000"/>
     <use xlink:href="#m1d6f255d66" x="78.397708" y="286.38084" style="fill-opacity: 0; stroke: #000000"/>
     <use xlink:href="#m1d6f255d66" x="78.397708" y="286.38084" style="fill-opacity: 0; stroke: #000000"/>
     <use xlink:href="#m1d6f255d66" x="78.397708" y="286.38084" style="fill-opacity: 0; stroke: #000000"/>
     <use xlink:href="#m1d6f255d66" x="78.397708" y="270.181921" style="fill-opacity: 0; stroke: #000000"/>
     <use xlink:href="#m1d6f255d66" x="78.397708" y="164.888948" style="fill-opacity: 0; stroke: #000000"/>
     <use xlink:href="#m1d6f255d66" x="78.397708" y="164.888948" style="fill-opacity: 0; stroke: #000000"/>
     <use xlink:href="#m1d6f255d66" x="78.397708" y="164.888948" style="fill-opacity: 0; stroke: #000000"/>
     <use xlink:href="#m1d6f255d66" x="78.397708" y="164.888948" style="fill-opacity: 0; stroke: #000000"/>
     <use xlink:href="#m1d6f255d66" x="78.397708" y="148.69003" style="fill-opacity: 0; stroke: #000000"/>
     <use xlink:href="#m1d6f255d66" x="78.397708" y="148.69003" style="fill-opacity: 0; stroke: #000000"/>
     <use xlink:href="#m1d6f255d66" x="78.397708" y="132.491111" style="fill-opacity: 0; stroke: #000000"/>
     <use xlink:href="#m1d6f255d66" x="78.397708" y="132.491111" style="fill-opacity: 0; stroke: #000000"/>
     <use xlink:href="#m1d6f255d66" x="78.397708" y="156.789489" style="fill-opacity: 0; stroke: #000000"/>
     <use xlink:href="#m1d6f255d66" x="78.397708" y="156.789489" style="fill-opacity: 0; stroke: #000000"/>
     <use xlink:href="#m1d6f255d66" x="78.397708" y="148.69003" style="fill-opacity: 0; stroke: #000000"/>
     <use xlink:href="#m1d6f255d66" x="78.397708" y="148.69003" style="fill-opacity: 0; stroke: #000000"/>
    </g>
   </g>
   <g id="patch_4">
    <path d="M 128.007208 213.485705 
L 139.031542 213.485705 
L 139.031542 195.181778 
L 136.275458 189.187327 
L 139.031542 183.192876 
L 139.031542 164.888948 
L 128.007208 164.888948 
L 128.007208 183.192876 
L 130.763292 189.187327 
L 128.007208 195.181778 
L 128.007208 213.485705 
z
" clip-path="url(#p80584755b0)" style="fill: #a9a9a9; stroke: #000000; stroke-linejoin: miter"/>
   </g>
   <g id="line2d_24">
    <path d="M 133.519375 213.485705 
L 133.519375 237.784084 
" clip-path="url(#p80584755b0)" style="fill: none; stroke: #000000; stroke-linecap: square"/>
   </g>
   <g id="line2d_25">
    <path d="M 133.519375 164.888948 
L 133.519375 156.789489 
" clip-path="url(#p80584755b0)" style="fill: none; stroke: #000000; stroke-linecap: square"/>
   </g>
   <g id="line2d_26">
    <path d="M 130.763292 237.784084 
L 136.275458 237.784084 
" clip-path="url(#p80584755b0)" style="fill: none; stroke: #000000; stroke-linecap: square"/>
   </g>
   <g id="line2d_27">
    <path d="M 130.763292 156.789489 
L 136.275458 156.789489 
" clip-path="url(#p80584755b0)" style="fill: none; stroke: #000000; stroke-linecap: square"/>
   </g>
   <g id="line2d_28">
    <g clip-path="url(#p80584755b0)">
     <use xlink:href="#m1d6f255d66" x="133.519375" y="132.491111" style="fill-opacity: 0; stroke: #000000"/>
     <use xlink:href="#m1d6f255d66" x="133.519375" y="132.491111" style="fill-opacity: 0; stroke: #000000"/>
     <use xlink:href="#m1d6f255d66" x="133.519375" y="132.491111" style="fill-opacity: 0; stroke: #000000"/>
     <use xlink:href="#m1d6f255d66" x="133.519375" y="132.491111" style="fill-opacity: 0; stroke: #000000"/>
     <use xlink:href="#m1d6f255d66" x="133.519375" y="132.491111" style="fill-opacity: 0; stroke: #000000"/>
    </g>
   </g>
   <g id="patch_5">
    <path d="M 183.128875 205.386246 
L 194.153208 205.386246 
L 194.153208 186.442333 
L 191.397125 181.087867 
L 194.153208 175.733402 
L 194.153208 164.888948 
L 183.128875 164.888948 
L 183.128875 175.733402 
L 185.884958 181.087867 
L 183.128875 186.442333 
L 183.128875 205.386246 
z
" clip-path="url(#p80584755b0)" style="fill: #a9a9a9; stroke: #000000; stroke-linejoin: miter"/>
   </g>
   <g id="line2d_29">
    <path d="M 188.641042 205.386246 
L 188.641042 221.585165 
" clip-path="url(#p80584755b0)" style="fill: none; stroke: #000000; stroke-linecap: square"/>
   </g>
   <g id="line2d_30">
    <path d="M 188.641042 164.888948 
L 188.641042 148.69003 
" clip-path="url(#p80584755b0)" style="fill: none; stroke: #000000; stroke-linecap: square"/>
   </g>
   <g id="line2d_31">
    <path d="M 185.884958 221.585165 
L 191.397125 221.585165 
" clip-path="url(#p80584755b0)" style="fill: none; stroke: #000000; stroke-linecap: square"/>
   </g>
   <g id="line2d_32">
    <path d="M 185.884958 148.69003 
L 191.397125 148.69003 
" clip-path="url(#p80584755b0)" style="fill: none; stroke: #000000; stroke-linecap: square"/>
   </g>
   <g id="line2d_33">
    <g clip-path="url(#p80584755b0)">
     <use xlink:href="#m1d6f255d66" x="188.641042" y="237.784084" style="fill-opacity: 0; stroke: #000000"/>
     <use xlink:href="#m1d6f255d66" x="188.641042" y="237.784084" style="fill-opacity: 0; stroke: #000000"/>
     <use xlink:href="#m1d6f255d66" x="188.641042" y="237.784084" style="fill-opacity: 0; stroke: #000000"/>
     <use xlink:href="#m1d6f255d66" x="188.641042" y="237.784084" style="fill-opacity: 0; stroke: #000000"/>
     <use xlink:href="#m1d6f255d66" x="188.641042" y="237.784084" style="fill-opacity: 0; stroke: #000000"/>
     <use xlink:href="#m1d6f255d66" x="188.641042" y="253.983003" style="fill-opacity: 0; stroke: #000000"/>
     <use xlink:href="#m1d6f255d66" x="188.641042" y="253.983003" style="fill-opacity: 0; stroke: #000000"/>
     <use xlink:href="#m1d6f255d66" x="188.641042" y="253.983003" style="fill-opacity: 0; stroke: #000000"/>
     <use xlink:href="#m1d6f255d66" x="188.641042" y="253.983003" style="fill-opacity: 0; stroke: #000000"/>
     <use xlink:href="#m1d6f255d66" x="188.641042" y="237.784084" style="fill-opacity: 0; stroke: #000000"/>
     <use xlink:href="#m1d6f255d66" x="188.641042" y="237.784084" style="fill-opacity: 0; stroke: #000000"/>
     <use xlink:href="#m1d6f255d66" x="188.641042" y="237.784084" style="fill-opacity: 0; stroke: #000000"/>
     <use xlink:href="#m1d6f255d66" x="188.641042" y="237.784084" style="fill-opacity: 0; stroke: #000000"/>
     <use xlink:href="#m1d6f255d66" x="188.641042" y="237.784084" style="fill-opacity: 0; stroke: #000000"/>
     <use xlink:href="#m1d6f255d66" x="188.641042" y="237.784084" style="fill-opacity: 0; stroke: #000000"/>
     <use xlink:href="#m1d6f255d66" x="188.641042" y="237.784084" style="fill-opacity: 0; stroke: #000000"/>
     <use xlink:href="#m1d6f255d66" x="188.641042" y="237.784084" style="fill-opacity: 0; stroke: #000000"/>
    </g>
   </g>
   <g id="patch_6">
    <path d="M 238.250542 170.963543 
L 249.274875 170.963543 
L 249.274875 162.845562 
L 246.518792 156.789489 
L 249.274875 150.733416 
L 249.274875 140.59057 
L 238.250542 140.59057 
L 238.250542 150.733416 
L 241.006625 156.789489 
L 238.250542 162.845562 
L 238.250542 170.963543 
z
" clip-path="url(#p80584755b0)" style="fill: #a9a9a9; stroke: #000000; stroke-linejoin: miter"/>
   </g>
   <g id="line2d_34">
    <path d="M 243.762708 170.963543 
L 243.762708 181.087867 
" clip-path="url(#p80584755b0)" style="fill: none; stroke: #000000; stroke-linecap: square"/>
   </g>
   <g id="line2d_35">
    <path d="M 243.762708 140.59057 
L 243.762708 132.491111 
" clip-path="url(#p80584755b0)" style="fill: none; stroke: #000000; stroke-linecap: square"/>
   </g>
   <g id="line2d_36">
    <path d="M 241.006625 181.087867 
L 246.518792 181.087867 
" clip-path="url(#p80584755b0)" style="fill: none; stroke: #000000; stroke-linecap: square"/>
   </g>
   <g id="line2d_37">
    <path d="M 241.006625 132.491111 
L 246.518792 132.491111 
" clip-path="url(#p80584755b0)" style="fill: none; stroke: #000000; stroke-linecap: square"/>
   </g>
   <g id="line2d_38">
    <g clip-path="url(#p80584755b0)">
     <use xlink:href="#m1d6f255d66" x="243.762708" y="213.485705" style="fill-opacity: 0; stroke: #000000"/>
     <use xlink:href="#m1d6f255d66" x="243.762708" y="213.485705" style="fill-opacity: 0; stroke: #000000"/>
     <use xlink:href="#m1d6f255d66" x="243.762708" y="213.485705" style="fill-opacity: 0; stroke: #000000"/>
     <use xlink:href="#m1d6f255d66" x="243.762708" y="213.485705" style="fill-opacity: 0; stroke: #000000"/>
     <use xlink:href="#m1d6f255d66" x="243.762708" y="189.187327" style="fill-opacity: 0; stroke: #000000"/>
     <use xlink:href="#m1d6f255d66" x="243.762708" y="189.187327" style="fill-opacity: 0; stroke: #000000"/>
     <use xlink:href="#m1d6f255d66" x="243.762708" y="189.187327" style="fill-opacity: 0; stroke: #000000"/>
     <use xlink:href="#m1d6f255d66" x="243.762708" y="189.187327" style="fill-opacity: 0; stroke: #000000"/>
     <use xlink:href="#m1d6f255d66" x="243.762708" y="213.485705" style="fill-opacity: 0; stroke: #000000"/>
    </g>
   </g>
   <g id="patch_7">
    <path d="M 293.372208 164.888948 
L 304.396542 164.888948 
L 304.396542 156.576252 
L 301.640458 148.69003 
L 304.396542 140.803807 
L 304.396542 124.391651 
L 293.372208 124.391651 
L 293.372208 140.803807 
L 296.128292 148.69003 
L 293.372208 156.576252 
L 293.372208 164.888948 
z
" clip-path="url(#p80584755b0)" style="fill: #a9a9a9; stroke: #000000; stroke-linejoin: miter"/>
   </g>
   <g id="line2d_39">
    <path d="M 298.884375 164.888948 
L 298.884375 172.988408 
" clip-path="url(#p80584755b0)" style="fill: none; stroke: #000000; stroke-linecap: square"/>
   </g>
   <g id="line2d_40">
    <path d="M 298.884375 124.391651 
L 298.884375 108.192732 
" clip-path="url(#p80584755b0)" style="fill: none; stroke: #000000; stroke-linecap: square"/>
   </g>
   <g id="line2d_41">
    <path d="M 296.128292 172.988408 
L 301.640458 172.988408 
" clip-path="url(#p80584755b0)" style="fill: none; stroke: #000000; stroke-linecap: square"/>
   </g>
   <g id="line2d_42">
    <path d="M 296.128292 108.192732 
L 301.640458 108.192732 
" clip-path="url(#p80584755b0)" style="fill: none; stroke: #000000; stroke-linecap: square"/>
   </g>
   <g id="line2d_43">
    <g clip-path="url(#p80584755b0)">
     <use xlink:href="#m1d6f255d66" x="298.884375" y="213.485705" style="fill-opacity: 0; stroke: #000000"/>
     <use xlink:href="#m1d6f255d66" x="298.884375" y="213.485705" style="fill-opacity: 0; stroke: #000000"/>
     <use xlink:href="#m1d6f255d66" x="298.884375" y="213.485705" style="fill-opacity: 0; stroke: #000000"/>
     <use xlink:href="#m1d6f255d66" x="298.884375" y="213.485705" style="fill-opacity: 0; stroke: #000000"/>
     <use xlink:href="#m1d6f255d66" x="298.884375" y="213.485705" style="fill-opacity: 0; stroke: #000000"/>
     <use xlink:href="#m1d6f255d66" x="298.884375" y="91.993813" style="fill-opacity: 0; stroke: #000000"/>
     <use xlink:href="#m1d6f255d66" x="298.884375" y="91.993813" style="fill-opacity: 0; stroke: #000000"/>
     <use xlink:href="#m1d6f255d66" x="298.884375" y="91.993813" style="fill-opacity: 0; stroke: #000000"/>
     <use xlink:href="#m1d6f255d66" x="298.884375" y="91.993813" style="fill-opacity: 0; stroke: #000000"/>
    </g>
   </g>
   <g id="patch_8">
    <path d="M 348.493875 213.485705 
L 359.518208 213.485705 
L 359.518208 184.849356 
L 356.762125 181.087867 
L 359.518208 177.326379 
L 359.518208 156.789489 
L 348.493875 156.789489 
L 348.493875 177.326379 
L 351.249958 181.087867 
L 348.493875 184.849356 
L 348.493875 213.485705 
z
" clip-path="url(#p80584755b0)" style="fill: #a9a9a9; stroke: #000000; stroke-linejoin: miter"/>
   </g>
   <g id="line2d_44">
    <path d="M 354.006042 213.485705 
L 354.006042 237.784084 
" clip-path="url(#p80584755b0)" style="fill: none; stroke: #000000; stroke-linecap: square"/>
   </g>
   <g id="line2d_45">
    <path d="M 354.006042 156.789489 
L 354.006042 132.491111 
" clip-path="url(#p80584755b0)" style="fill: none; stroke: #000000; stroke-linecap: square"/>
   </g>
   <g id="line2d_46">
    <path d="M 351.249958 237.784084 
L 356.762125 237.784084 
" clip-path="url(#p80584755b0)" style="fill: none; stroke: #000000; stroke-linecap: square"/>
   </g>
   <g id="line2d_47">
    <path d="M 351.249958 132.491111 
L 356.762125 132.491111 
" clip-path="url(#p80584755b0)" style="fill: none; stroke: #000000; stroke-linecap: square"/>
   </g>
   <g id="line2d_48">
    <g clip-path="url(#p80584755b0)">
     <use xlink:href="#m1d6f255d66" x="354.006042" y="245.883543" style="fill-opacity: 0; stroke: #000000"/>
     <use xlink:href="#m1d6f255d66" x="354.006042" y="245.883543" style="fill-opacity: 0; stroke: #000000"/>
     <use xlink:href="#m1d6f255d66" x="354.006042" y="245.883543" style="fill-opacity: 0; stroke: #000000"/>
     <use xlink:href="#m1d6f255d66" x="354.006042" y="245.883543" style="fill-opacity: 0; stroke: #000000"/>
     <use xlink:href="#m1d6f255d66" x="354.006042" y="253.983003" style="fill-opacity: 0; stroke: #000000"/>
     <use xlink:href="#m1d6f255d66" x="354.006042" y="253.983003" style="fill-opacity: 0; stroke: #000000"/>
     <use xlink:href="#m1d6f255d66" x="354.006042" y="253.983003" style="fill-opacity: 0; stroke: #000000"/>
     <use xlink:href="#m1d6f255d66" x="354.006042" y="253.983003" style="fill-opacity: 0; stroke: #000000"/>
     <use xlink:href="#m1d6f255d66" x="354.006042" y="245.883543" style="fill-opacity: 0; stroke: #000000"/>
     <use xlink:href="#m1d6f255d66" x="354.006042" y="245.883543" style="fill-opacity: 0; stroke: #000000"/>
     <use xlink:href="#m1d6f255d66" x="354.006042" y="245.883543" style="fill-opacity: 0; stroke: #000000"/>
     <use xlink:href="#m1d6f255d66" x="354.006042" y="245.883543" style="fill-opacity: 0; stroke: #000000"/>
     <use xlink:href="#m1d6f255d66" x="354.006042" y="245.883543" style="fill-opacity: 0; stroke: #000000"/>
     <use xlink:href="#m1d6f255d66" x="354.006042" y="245.883543" style="fill-opacity: 0; stroke: #000000"/>
     <use xlink:href="#m1d6f255d66" x="354.006042" y="286.38084" style="fill-opacity: 0; stroke: #000000"/>
     <use xlink:href="#m1d6f255d66" x="354.006042" y="286.38084" style="fill-opacity: 0; stroke: #000000"/>
     <use xlink:href="#m1d6f255d66" x="354.006042" y="286.38084" style="fill-opacity: 0; stroke: #000000"/>
     <use xlink:href="#m1d6f255d66" x="354.006042" y="286.38084" style="fill-opacity: 0; stroke: #000000"/>
     <use xlink:href="#m1d6f255d66" x="354.006042" y="270.181921" style="fill-opacity: 0; stroke: #000000"/>
     <use xlink:href="#m1d6f255d66" x="354.006042" y="108.192732" style="fill-opacity: 0; stroke: #000000"/>
     <use xlink:href="#m1d6f255d66" x="354.006042" y="108.192732" style="fill-opacity: 0; stroke: #000000"/>
     <use xlink:href="#m1d6f255d66" x="354.006042" y="108.192732" style="fill-opacity: 0; stroke: #000000"/>
     <use xlink:href="#m1d6f255d66" x="354.006042" y="91.993813" style="fill-opacity: 0; stroke: #000000"/>
     <use xlink:href="#m1d6f255d66" x="354.006042" y="91.993813" style="fill-opacity: 0; stroke: #000000"/>
     <use xlink:href="#m1d6f255d66" x="354.006042" y="91.993813" style="fill-opacity: 0; stroke: #000000"/>
     <use xlink:href="#m1d6f255d66" x="354.006042" y="91.993813" style="fill-opacity: 0; stroke: #000000"/>
     <use xlink:href="#m1d6f255d66" x="354.006042" y="124.391651" style="fill-opacity: 0; stroke: #000000"/>
     <use xlink:href="#m1d6f255d66" x="354.006042" y="124.391651" style="fill-opacity: 0; stroke: #000000"/>
     <use xlink:href="#m1d6f255d66" x="354.006042" y="124.391651" style="fill-opacity: 0; stroke: #000000"/>
     <use xlink:href="#m1d6f255d66" x="354.006042" y="124.391651" style="fill-opacity: 0; stroke: #000000"/>
     <use xlink:href="#m1d6f255d66" x="354.006042" y="124.391651" style="fill-opacity: 0; stroke: #000000"/>
     <use xlink:href="#m1d6f255d66" x="354.006042" y="124.391651" style="fill-opacity: 0; stroke: #000000"/>
     <use xlink:href="#m1d6f255d66" x="354.006042" y="124.391651" style="fill-opacity: 0; stroke: #000000"/>
     <use xlink:href="#m1d6f255d66" x="354.006042" y="124.391651" style="fill-opacity: 0; stroke: #000000"/>
     <use xlink:href="#m1d6f255d66" x="354.006042" y="124.391651" style="fill-opacity: 0; stroke: #000000"/>
     <use xlink:href="#m1d6f255d66" x="354.006042" y="124.391651" style="fill-opacity: 0; stroke: #000000"/>
     <use xlink:href="#m1d6f255d66" x="354.006042" y="124.391651" style="fill-opacity: 0; stroke: #000000"/>
     <use xlink:href="#m1d6f255d66" x="354.006042" y="124.391651" style="fill-opacity: 0; stroke: #000000"/>
     <use xlink:href="#m1d6f255d66" x="354.006042" y="124.391651" style="fill-opacity: 0; stroke: #000000"/>
    </g>
   </g>
   <g id="line2d_49">
    <path d="M 75.641625 209.435976 
L 81.153792 209.435976 
" clip-path="url(#p80584755b0)" style="fill: none; stroke: #000000; stroke-width: 2; stroke-linecap: square"/>
   </g>
   <g id="line2d_50">
    <path d="M 130.763292 189.187327 
L 136.275458 189.187327 
" clip-path="url(#p80584755b0)" style="fill: none; stroke: #000000; stroke-width: 2; stroke-linecap: square"/>
   </g>
   <g id="line2d_51">
    <path d="M 185.884958 181.087867 
L 191.397125 181.087867 
" clip-path="url(#p80584755b0)" style="fill: none; stroke: #000000; stroke-width: 2; stroke-linecap: square"/>
   </g>
   <g id="line2d_52">
    <path d="M 241.006625 156.789489 
L 246.518792 156.789489 
" clip-path="url(#p80584755b0)" style="fill: none; stroke: #000000; stroke-width: 2; stroke-linecap: square"/>
   </g>
   <g id="line2d_53">
    <path d="M 296.128292 148.69003 
L 301.640458 148.69003 
" clip-path="url(#p80584755b0)" style="fill: none; stroke: #000000; stroke-width: 2; stroke-linecap: square"/>
   </g>
   <g id="line2d_54">
    <path d="M 351.249958 181.087867 
L 356.762125 181.087867 
" clip-path="url(#p80584755b0)" style="fill: none; stroke: #000000; stroke-width: 2; stroke-linecap: square"/>
   </g>
   <g id="patch_9">
    <path d="M 50.836875 310.679219 
L 50.836875 10.999219 
" style="fill: none; stroke: #000000; stroke-width: 0.8; stroke-linejoin: miter; stroke-linecap: square"/>
   </g>
   <g id="patch_10">
    <path d="M 381.566875 310.679219 
L 381.566875 10.999219 
" style="fill: none; stroke: #000000; stroke-width: 0.8; stroke-linejoin: miter; stroke-linecap: square"/>
   </g>
   <g id="patch_11">
    <path d="M 50.836875 310.679219 
L 381.566875 310.679219 
" style="fill: none; stroke: #000000; stroke-width: 0.8; stroke-linejoin: miter; stroke-linecap: square"/>
   </g>
   <g id="patch_12">
    <path d="M 50.836875 10.999219 
L 381.566875 10.999219 
" style="fill: none; stroke: #000000; stroke-width: 0.8; stroke-linejoin: miter; stroke-linecap: square"/>
   </g>
   <g id="PathCollection_1">
    <defs>
     <path id="m0df142fa19" d="M 0 4.472136 
C 1.186024 4.472136 2.323632 4.000923 3.162278 3.162278 
C 4.000923 2.323632 4.472136 1.186024 4.472136 0 
C 4.472136 -1.186024 4.000923 -2.323632 3.162278 -3.162278 
C 2.323632 -4.000923 1.186024 -4.472136 0 -4.472136 
C -1.186024 -4.472136 -2.323632 -4.000923 -3.162278 -3.162278 
C -4.000923 -2.323632 -4.472136 -1.186024 -4.472136 0 
C -4.472136 1.186024 -4.000923 2.323632 -3.162278 3.162278 
C -2.323632 4.000923 -1.186024 4.472136 0 4.472136 
z
" style="stroke: #000000; stroke-width: 1.5"/>
    </defs>
    <g clip-path="url(#p80584755b0)">
     <use xlink:href="#m0df142fa19" x="78.397708" y="201.336516" style="fill: #ffffff; stroke: #000000; stroke-width: 1.5"/>
     <use xlink:href="#m0df142fa19" x="133.519375" y="168.938678" style="fill: #ffffff; stroke: #000000; stroke-width: 1.5"/>
     <use xlink:href="#m0df142fa19" x="188.641042" y="128.441381" style="fill: #ffffff; stroke: #000000; stroke-width: 1.5"/>
     <use xlink:href="#m0df142fa19" x="243.762708" y="140.59057" style="fill: #ffffff; stroke: #000000; stroke-width: 1.5"/>
     <use xlink:href="#m0df142fa19" x="298.884375" y="132.491111" style="fill: #ffffff; stroke: #000000; stroke-width: 1.5"/>
     <use xlink:href="#m0df142fa19" x="354.006042" y="128.441381" style="fill: #ffffff; stroke: #000000; stroke-width: 1.5"/>
    </g>
   </g>
   <g id="PathCollection_2">
    <g clip-path="url(#p80584755b0)">
     <use xlink:href="#m0df142fa19" x="78.397708" y="201.336516" style="fill: #ffffff; stroke: #000000; stroke-width: 1.5"/>
     <use xlink:href="#m0df142fa19" x="133.519375" y="168.938678" style="fill: #ffffff; stroke: #000000; stroke-width: 1.5"/>
     <use xlink:href="#m0df142fa19" x="188.641042" y="128.441381" style="fill: #ffffff; stroke: #000000; stroke-width: 1.5"/>
     <use xlink:href="#m0df142fa19" x="243.762708" y="140.59057" style="fill: #ffffff; stroke: #000000; stroke-width: 1.5"/>
     <use xlink:href="#m0df142fa19" x="298.884375" y="132.491111" style="fill: #ffffff; stroke: #000000; stroke-width: 1.5"/>
     <use xlink:href="#m0df142fa19" x="354.006042" y="128.441381" style="fill: #ffffff; stroke: #000000; stroke-width: 1.5"/>
    </g>
   </g>
   <g id="PathCollection_3">
    <g clip-path="url(#p80584755b0)">
     <use xlink:href="#m0df142fa19" x="78.397708" y="201.336516" style="fill: #ffffff; stroke: #000000; stroke-width: 1.5"/>
     <use xlink:href="#m0df142fa19" x="133.519375" y="168.938678" style="fill: #ffffff; stroke: #000000; stroke-width: 1.5"/>
     <use xlink:href="#m0df142fa19" x="188.641042" y="128.441381" style="fill: #ffffff; stroke: #000000; stroke-width: 1.5"/>
     <use xlink:href="#m0df142fa19" x="243.762708" y="140.59057" style="fill: #ffffff; stroke: #000000; stroke-width: 1.5"/>
     <use xlink:href="#m0df142fa19" x="298.884375" y="132.491111" style="fill: #ffffff; stroke: #000000; stroke-width: 1.5"/>
     <use xlink:href="#m0df142fa19" x="354.006042" y="128.441381" style="fill: #ffffff; stroke: #000000; stroke-width: 1.5"/>
    </g>
   </g>
   <g id="PathCollection_4">
    <g clip-path="url(#p80584755b0)">
     <use xlink:href="#m0df142fa19" x="78.397708" y="201.336516" style="fill: #ffffff; stroke: #000000; stroke-width: 1.5"/>
     <use xlink:href="#m0df142fa19" x="133.519375" y="168.938678" style="fill: #ffffff; stroke: #000000; stroke-width: 1.5"/>
     <use xlink:href="#m0df142fa19" x="188.641042" y="128.441381" style="fill: #ffffff; stroke: #000000; stroke-width: 1.5"/>
     <use xlink:href="#m0df142fa19" x="243.762708" y="140.59057" style="fill: #ffffff; stroke: #000000; stroke-width: 1.5"/>
     <use xlink:href="#m0df142fa19" x="298.884375" y="132.491111" style="fill: #ffffff; stroke: #000000; stroke-width: 1.5"/>
     <use xlink:href="#m0df142fa19" x="354.006042" y="128.441381" style="fill: #ffffff; stroke: #000000; stroke-width: 1.5"/>
    </g>
   </g>
   <g id="PathCollection_5">
    <g clip-path="url(#p80584755b0)">
     <use xlink:href="#m0df142fa19" x="78.397708" y="201.336516" style="fill: #ffffff; stroke: #000000; stroke-width: 1.5"/>
     <use xlink:href="#m0df142fa19" x="133.519375" y="168.938678" style="fill: #ffffff; stroke: #000000; stroke-width: 1.5"/>
     <use xlink:href="#m0df142fa19" x="188.641042" y="128.441381" style="fill: #ffffff; stroke: #000000; stroke-width: 1.5"/>
     <use xlink:href="#m0df142fa19" x="243.762708" y="140.59057" style="fill: #ffffff; stroke: #000000; stroke-width: 1.5"/>
     <use xlink:href="#m0df142fa19" x="298.884375" y="132.491111" style="fill: #ffffff; stroke: #000000; stroke-width: 1.5"/>
     <use xlink:href="#m0df142fa19" x="354.006042" y="128.441381" style="fill: #ffffff; stroke: #000000; stroke-width: 1.5"/>
    </g>
   </g>
   <g id="PathCollection_6">
    <g clip-path="url(#p80584755b0)">
     <use xlink:href="#m0df142fa19" x="78.397708" y="201.336516" style="fill: #ffffff; stroke: #000000; stroke-width: 1.5"/>
     <use xlink:href="#m0df142fa19" x="133.519375" y="168.938678" style="fill: #ffffff; stroke: #000000; stroke-width: 1.5"/>
     <use xlink:href="#m0df142fa19" x="188.641042" y="128.441381" style="fill: #ffffff; stroke: #000000; stroke-width: 1.5"/>
     <use xlink:href="#m0df142fa19" x="243.762708" y="140.59057" style="fill: #ffffff; stroke: #000000; stroke-width: 1.5"/>
     <use xlink:href="#m0df142fa19" x="298.884375" y="132.491111" style="fill: #ffffff; stroke: #000000; stroke-width: 1.5"/>
     <use xlink:href="#m0df142fa19" x="354.006042" y="128.441381" style="fill: #ffffff; stroke: #000000; stroke-width: 1.5"/>
    </g>
   </g>
   <g id="PathCollection_7">
    <g clip-path="url(#p80584755b0)">
     <use xlink:href="#m0df142fa19" x="78.397708" y="201.336516" style="fill: #ffffff; stroke: #000000; stroke-width: 1.5"/>
     <use xlink:href="#m0df142fa19" x="133.519375" y="168.938678" style="fill: #ffffff; stroke: #000000; stroke-width: 1.5"/>
     <use xlink:href="#m0df142fa19" x="188.641042" y="128.441381" style="fill: #ffffff; stroke: #000000; stroke-width: 1.5"/>
     <use xlink:href="#m0df142fa19" x="243.762708" y="140.59057" style="fill: #ffffff; stroke: #000000; stroke-width: 1.5"/>
     <use xlink:href="#m0df142fa19" x="298.884375" y="132.491111" style="fill: #ffffff; stroke: #000000; stroke-width: 1.5"/>
     <use xlink:href="#m0df142fa19" x="354.006042" y="128.441381" style="fill: #ffffff; stroke: #000000; stroke-width: 1.5"/>
    </g>
   </g>
   <g id="legend_1">
    <g id="patch_13">
     <path d="M 59.236875 38.212969 
L 230.169375 38.212969 
Q 232.569375 38.212969 232.569375 35.812969 
L 232.569375 19.399219 
Q 232.569375 16.999219 230.169375 16.999219 
L 59.236875 16.999219 
Q 56.836875 16.999219 56.836875 19.399219 
L 56.836875 35.812969 
Q 56.836875 38.212969 59.236875 38.212969 
z
" style="fill: #ffffff; stroke: #cccccc; stroke-linejoin: miter"/>
    </g>
    <g id="PathCollection_8">
     <g>
      <use xlink:href="#m0df142fa19" x="73.636875" y="27.767344" style="fill: #ffffff; stroke: #000000; stroke-width: 1.5"/>
     </g>
    </g>
    <g id="text_15">
     <!-- Collective Intelligence -->
     <g transform="translate(95.236875 30.917344) scale(0.12 -0.12)">
      <defs>
       <path id="DejaVuSans-43" d="M 4122 4306 
L 4122 3641 
Q 3803 3938 3442 4084 
Q 3081 4231 2675 4231 
Q 1875 4231 1450 3742 
Q 1025 3253 1025 2328 
Q 1025 1406 1450 917 
Q 1875 428 2675 428 
Q 3081 428 3442 575 
Q 3803 722 4122 1019 
L 4122 359 
Q 3791 134 3420 21 
Q 3050 -91 2638 -91 
Q 1578 -91 968 557 
Q 359 1206 359 2328 
Q 359 3453 968 4101 
Q 1578 4750 2638 4750 
Q 3056 4750 3426 4639 
Q 3797 4528 4122 4306 
z
" transform="scale(0.015625)"/>
       <path id="DejaVuSans-6f" d="M 1959 3097 
Q 1497 3097 1228 2736 
Q 959 2375 959 1747 
Q 959 1119 1226 758 
Q 1494 397 1959 397 
Q 2419 397 2687 759 
Q 2956 1122 2956 1747 
Q 2956 2369 2687 2733 
Q 2419 3097 1959 3097 
z
M 1959 3584 
Q 2709 3584 3137 3096 
Q 3566 2609 3566 1747 
Q 3566 888 3137 398 
Q 2709 -91 1959 -91 
Q 1206 -91 779 398 
Q 353 888 353 1747 
Q 353 2609 779 3096 
Q 1206 3584 1959 3584 
z
" transform="scale(0.015625)"/>
       <path id="DejaVuSans-76" d="M 191 3500 
L 800 3500 
L 1894 563 
L 2988 3500 
L 3597 3500 
L 2284 0 
L 1503 0 
L 191 3500 
z
" transform="scale(0.015625)"/>
       <path id="DejaVuSans-49" d="M 628 4666 
L 1259 4666 
L 1259 0 
L 628 0 
L 628 4666 
z
" transform="scale(0.015625)"/>
       <path id="DejaVuSans-6e" d="M 3513 2113 
L 3513 0 
L 2938 0 
L 2938 2094 
Q 2938 2591 2744 2837 
Q 2550 3084 2163 3084 
Q 1697 3084 1428 2787 
Q 1159 2491 1159 1978 
L 1159 0 
L 581 0 
L 581 3500 
L 1159 3500 
L 1159 2956 
Q 1366 3272 1645 3428 
Q 1925 3584 2291 3584 
Q 2894 3584 3203 3211 
Q 3513 2838 3513 2113 
z
" transform="scale(0.015625)"/>
       <path id="DejaVuSans-67" d="M 2906 1791 
Q 2906 2416 2648 2759 
Q 2391 3103 1925 3103 
Q 1463 3103 1205 2759 
Q 947 2416 947 1791 
Q 947 1169 1205 825 
Q 1463 481 1925 481 
Q 2391 481 2648 825 
Q 2906 1169 2906 1791 
z
M 3481 434 
Q 3481 -459 3084 -895 
Q 2688 -1331 1869 -1331 
Q 1566 -1331 1297 -1286 
Q 1028 -1241 775 -1147 
L 775 -588 
Q 1028 -725 1275 -790 
Q 1522 -856 1778 -856 
Q 2344 -856 2625 -561 
Q 2906 -266 2906 331 
L 2906 616 
Q 2728 306 2450 153 
Q 2172 0 1784 0 
Q 1141 0 747 490 
Q 353 981 353 1791 
Q 353 2603 747 3093 
Q 1141 3584 1784 3584 
Q 2172 3584 2450 3431 
Q 2728 3278 2906 2969 
L 2906 3500 
L 3481 3500 
L 3481 434 
z
" transform="scale(0.015625)"/>
      </defs>
      <use xlink:href="#DejaVuSans-43"/>
      <use xlink:href="#DejaVuSans-6f" x="69.824219"/>
      <use xlink:href="#DejaVuSans-6c" x="131.005859"/>
      <use xlink:href="#DejaVuSans-6c" x="158.789062"/>
      <use xlink:href="#DejaVuSans-65" x="186.572266"/>
      <use xlink:href="#DejaVuSans-63" x="248.095703"/>
      <use xlink:href="#DejaVuSans-74" x="303.076172"/>
      <use xlink:href="#DejaVuSans-69" x="342.285156"/>
      <use xlink:href="#DejaVuSans-76" x="370.068359"/>
      <use xlink:href="#DejaVuSans-65" x="429.248047"/>
      <use xlink:href="#DejaVuSans-20" x="490.771484"/>
      <use xlink:href="#DejaVuSans-49" x="522.558594"/>
      <use xlink:href="#DejaVuSans-6e" x="552.050781"/>
      <use xlink:href="#DejaVuSans-74" x="615.429688"/>
      <use xlink:href="#DejaVuSans-65" x="654.638672"/>
      <use xlink:href="#DejaVuSans-6c" x="716.162109"/>
      <use xlink:href="#DejaVuSans-6c" x="743.945312"/>
      <use xlink:href="#DejaVuSans-69" x="771.728516"/>
      <use xlink:href="#DejaVuSans-67" x="799.511719"/>
      <use xlink:href="#DejaVuSans-65" x="862.988281"/>
      <use xlink:href="#DejaVuSans-6e" x="924.511719"/>
      <use xlink:href="#DejaVuSans-63" x="987.890625"/>
      <use xlink:href="#DejaVuSans-65" x="1042.871094"/>
     </g>
    </g>
   </g>
  </g>
 </g>
 <defs>
  <clipPath id="p80584755b0">
   <rect x="50.836875" y="10.999219" width="330.73" height="299.68"/>
  </clipPath>
 </defs>
</svg>
