<?xml version="1.0" encoding="utf-8" standalone="no"?>
<!DOCTYPE svg PUBLIC "-//W3C//DTD SVG 1.1//EN"
  "http://www.w3.org/Graphics/SVG/1.1/DTD/svg11.dtd">
<svg xmlns:xlink="http://www.w3.org/1999/xlink" width="388.766875pt" height="352.106719pt" viewBox="0 0 388.766875 352.106719" xmlns="http://www.w3.org/2000/svg" version="1.1">
 <metadata>
  <rdf:RDF xmlns:dc="http://purl.org/dc/elements/1.1/" xmlns:cc="http://creativecommons.org/ns#" xmlns:rdf="http://www.w3.org/1999/02/22-rdf-syntax-ns#">
   <cc:Work>
    <dc:type rdf:resource="http://purl.org/dc/dcmitype/StillImage"/>
    <dc:date>2024-04-17T11:50:51.077461</dc:date>
    <dc:format>image/svg+xml</dc:format>
    <dc:creator>
     <cc:Agent>
      <dc:title>Matplotlib v3.6.2, https://matplotlib.org/</dc:title>
     </cc:Agent>
    </dc:creator>
   </cc:Work>
  </rdf:RDF>
 </metadata>
 <defs>
  <style type="text/css">*{stroke-linejoin: round; stroke-linecap: butt}</style>
 </defs>
 <g id="figure_1">
  <g id="patch_1">
   <path d="M 0 352.106719 
L 388.766875 352.106719 
L 388.766875 0 
L 0 0 
z
" style="fill: #ffffff"/>
  </g>
  <g id="axes_1">
   <g id="patch_2">
    <path d="M 50.836875 310.679219 
L 381.566875 310.679219 
L 381.566875 10.999219 
L 50.836875 10.999219 
z
" style="fill: #ffffff"/>
   </g>
   <g id="matplotlib.axis_1">
    <g id="xtick_1">
     <g id="line2d_1">
      <defs>
       <path id="mf5a2369e03" d="M 0 0 
L 0 3.5 
" style="stroke: #000000; stroke-width: 0.8"/>
      </defs>
      <g>
       <use xlink:href="#mf5a2369e03" x="92.178125" y="310.679219" style="stroke: #000000; stroke-width: 0.8"/>
      </g>
     </g>
     <g id="text_1">
      <!-- Non-Expert (1-2) -->
      <g transform="translate(50.363281 325.277656) scale(0.1 -0.1)">
       <defs>
        <path id="DejaVuSans-4e" d="M 628 4666 
L 1478 4666 
L 3547 763 
L 3547 4666 
L 4159 4666 
L 4159 0 
L 3309 0 
L 1241 3903 
L 1241 0 
L 628 0 
L 628 4666 
z
" transform="scale(0.015625)"/>
        <path id="DejaVuSans-6f" d="M 1959 3097 
Q 1497 3097 1228 2736 
Q 959 2375 959 1747 
Q 959 1119 1226 758 
Q 1494 397 1959 397 
Q 2419 397 2687 759 
Q 2956 1122 2956 1747 
Q 2956 2369 2687 2733 
Q 2419 3097 1959 3097 
z
M 1959 3584 
Q 2709 3584 3137 3096 
Q 3566 2609 3566 1747 
Q 3566 888 3137 398 
Q 2709 -91 1959 -91 
Q 1206 -91 779 398 
Q 353 888 353 1747 
Q 353 2609 779 3096 
Q 1206 3584 1959 3584 
z
" transform="scale(0.015625)"/>
        <path id="DejaVuSans-6e" d="M 3513 2113 
L 3513 0 
L 2938 0 
L 2938 2094 
Q 2938 2591 2744 2837 
Q 2550 3084 2163 3084 
Q 1697 3084 1428 2787 
Q 1159 2491 1159 1978 
L 1159 0 
L 581 0 
L 581 3500 
L 1159 3500 
L 1159 2956 
Q 1366 3272 1645 3428 
Q 1925 3584 2291 3584 
Q 2894 3584 3203 3211 
Q 3513 2838 3513 2113 
z
" transform="scale(0.015625)"/>
        <path id="DejaVuSans-2d" d="M 313 2009 
L 1997 2009 
L 1997 1497 
L 313 1497 
L 313 2009 
z
" transform="scale(0.015625)"/>
        <path id="DejaVuSans-45" d="M 628 4666 
L 3578 4666 
L 3578 4134 
L 1259 4134 
L 1259 2753 
L 3481 2753 
L 3481 2222 
L 1259 2222 
L 1259 531 
L 3634 531 
L 3634 0 
L 628 0 
L 628 4666 
z
" transform="scale(0.015625)"/>
        <path id="DejaVuSans-78" d="M 3513 3500 
L 2247 1797 
L 3578 0 
L 2900 0 
L 1881 1375 
L 863 0 
L 184 0 
L 1544 1831 
L 300 3500 
L 978 3500 
L 1906 2253 
L 2834 3500 
L 3513 3500 
z
" transform="scale(0.015625)"/>
        <path id="DejaVuSans-70" d="M 1159 525 
L 1159 -1331 
L 581 -1331 
L 581 3500 
L 1159 3500 
L 1159 2969 
Q 1341 3281 1617 3432 
Q 1894 3584 2278 3584 
Q 2916 3584 3314 3078 
Q 3713 2572 3713 1747 
Q 3713 922 3314 415 
Q 2916 -91 2278 -91 
Q 1894 -91 1617 61 
Q 1341 213 1159 525 
z
M 3116 1747 
Q 3116 2381 2855 2742 
Q 2594 3103 2138 3103 
Q 1681 3103 1420 2742 
Q 1159 2381 1159 1747 
Q 1159 1113 1420 752 
Q 1681 391 2138 391 
Q 2594 391 2855 752 
Q 3116 1113 3116 1747 
z
" transform="scale(0.015625)"/>
        <path id="DejaVuSans-65" d="M 3597 1894 
L 3597 1613 
L 953 1613 
Q 991 1019 1311 708 
Q 1631 397 2203 397 
Q 2534 397 2845 478 
Q 3156 559 3463 722 
L 3463 178 
Q 3153 47 2828 -22 
Q 2503 -91 2169 -91 
Q 1331 -91 842 396 
Q 353 884 353 1716 
Q 353 2575 817 3079 
Q 1281 3584 2069 3584 
Q 2775 3584 3186 3129 
Q 3597 2675 3597 1894 
z
M 3022 2063 
Q 3016 2534 2758 2815 
Q 2500 3097 2075 3097 
Q 1594 3097 1305 2825 
Q 1016 2553 972 2059 
L 3022 2063 
z
" transform="scale(0.015625)"/>
        <path id="DejaVuSans-72" d="M 2631 2963 
Q 2534 3019 2420 3045 
Q 2306 3072 2169 3072 
Q 1681 3072 1420 2755 
Q 1159 2438 1159 1844 
L 1159 0 
L 581 0 
L 581 3500 
L 1159 3500 
L 1159 2956 
Q 1341 3275 1631 3429 
Q 1922 3584 2338 3584 
Q 2397 3584 2469 3576 
Q 2541 3569 2628 3553 
L 2631 2963 
z
" transform="scale(0.015625)"/>
        <path id="DejaVuSans-74" d="M 1172 4494 
L 1172 3500 
L 2356 3500 
L 2356 3053 
L 1172 3053 
L 1172 1153 
Q 1172 725 1289 603 
Q 1406 481 1766 481 
L 2356 481 
L 2356 0 
L 1766 0 
Q 1100 0 847 248 
Q 594 497 594 1153 
L 594 3053 
L 172 3053 
L 172 3500 
L 594 3500 
L 594 4494 
L 1172 4494 
z
" transform="scale(0.015625)"/>
        <path id="DejaVuSans-20" transform="scale(0.015625)"/>
        <path id="DejaVuSans-28" d="M 1984 4856 
Q 1566 4138 1362 3434 
Q 1159 2731 1159 2009 
Q 1159 1288 1364 580 
Q 1569 -128 1984 -844 
L 1484 -844 
Q 1016 -109 783 600 
Q 550 1309 550 2009 
Q 550 2706 781 3412 
Q 1013 4119 1484 4856 
L 1984 4856 
z
" transform="scale(0.015625)"/>
        <path id="DejaVuSans-31" d="M 794 531 
L 1825 531 
L 1825 4091 
L 703 3866 
L 703 4441 
L 1819 4666 
L 2450 4666 
L 2450 531 
L 3481 531 
L 3481 0 
L 794 0 
L 794 531 
z
" transform="scale(0.015625)"/>
        <path id="DejaVuSans-32" d="M 1228 531 
L 3431 531 
L 3431 0 
L 469 0 
L 469 531 
Q 828 903 1448 1529 
Q 2069 2156 2228 2338 
Q 2531 2678 2651 2914 
Q 2772 3150 2772 3378 
Q 2772 3750 2511 3984 
Q 2250 4219 1831 4219 
Q 1534 4219 1204 4116 
Q 875 4013 500 3803 
L 500 4441 
Q 881 4594 1212 4672 
Q 1544 4750 1819 4750 
Q 2544 4750 2975 4387 
Q 3406 4025 3406 3419 
Q 3406 3131 3298 2873 
Q 3191 2616 2906 2266 
Q 2828 2175 2409 1742 
Q 1991 1309 1228 531 
z
" transform="scale(0.015625)"/>
        <path id="DejaVuSans-29" d="M 513 4856 
L 1013 4856 
Q 1481 4119 1714 3412 
Q 1947 2706 1947 2009 
Q 1947 1309 1714 600 
Q 1481 -109 1013 -844 
L 513 -844 
Q 928 -128 1133 580 
Q 1338 1288 1338 2009 
Q 1338 2731 1133 3434 
Q 928 4138 513 4856 
z
" transform="scale(0.015625)"/>
       </defs>
       <use xlink:href="#DejaVuSans-4e"/>
       <use xlink:href="#DejaVuSans-6f" x="74.804688"/>
       <use xlink:href="#DejaVuSans-6e" x="135.986328"/>
       <use xlink:href="#DejaVuSans-2d" x="199.365234"/>
       <use xlink:href="#DejaVuSans-45" x="235.449219"/>
       <use xlink:href="#DejaVuSans-78" x="298.632812"/>
       <use xlink:href="#DejaVuSans-70" x="357.8125"/>
       <use xlink:href="#DejaVuSans-65" x="421.289062"/>
       <use xlink:href="#DejaVuSans-72" x="482.8125"/>
       <use xlink:href="#DejaVuSans-74" x="523.925781"/>
       <use xlink:href="#DejaVuSans-20" x="563.134766"/>
       <use xlink:href="#DejaVuSans-28" x="594.921875"/>
       <use xlink:href="#DejaVuSans-31" x="633.935547"/>
       <use xlink:href="#DejaVuSans-2d" x="697.558594"/>
       <use xlink:href="#DejaVuSans-32" x="733.642578"/>
       <use xlink:href="#DejaVuSans-29" x="797.265625"/>
      </g>
     </g>
    </g>
    <g id="xtick_2">
     <g id="line2d_2">
      <g>
       <use xlink:href="#mf5a2369e03" x="174.860625" y="310.679219" style="stroke: #000000; stroke-width: 0.8"/>
      </g>
     </g>
     <g id="text_2">
      <!-- Average (3) -->
      <g transform="translate(145.655938 325.277656) scale(0.1 -0.1)">
       <defs>
        <path id="DejaVuSans-41" d="M 2188 4044 
L 1331 1722 
L 3047 1722 
L 2188 4044 
z
M 1831 4666 
L 2547 4666 
L 4325 0 
L 3669 0 
L 3244 1197 
L 1141 1197 
L 716 0 
L 50 0 
L 1831 4666 
z
" transform="scale(0.015625)"/>
        <path id="DejaVuSans-76" d="M 191 3500 
L 800 3500 
L 1894 563 
L 2988 3500 
L 3597 3500 
L 2284 0 
L 1503 0 
L 191 3500 
z
" transform="scale(0.015625)"/>
        <path id="DejaVuSans-61" d="M 2194 1759 
Q 1497 1759 1228 1600 
Q 959 1441 959 1056 
Q 959 750 1161 570 
Q 1363 391 1709 391 
Q 2188 391 2477 730 
Q 2766 1069 2766 1631 
L 2766 1759 
L 2194 1759 
z
M 3341 1997 
L 3341 0 
L 2766 0 
L 2766 531 
Q 2569 213 2275 61 
Q 1981 -91 1556 -91 
Q 1019 -91 701 211 
Q 384 513 384 1019 
Q 384 1609 779 1909 
Q 1175 2209 1959 2209 
L 2766 2209 
L 2766 2266 
Q 2766 2663 2505 2880 
Q 2244 3097 1772 3097 
Q 1472 3097 1187 3025 
Q 903 2953 641 2809 
L 641 3341 
Q 956 3463 1253 3523 
Q 1550 3584 1831 3584 
Q 2591 3584 2966 3190 
Q 3341 2797 3341 1997 
z
" transform="scale(0.015625)"/>
        <path id="DejaVuSans-67" d="M 2906 1791 
Q 2906 2416 2648 2759 
Q 2391 3103 1925 3103 
Q 1463 3103 1205 2759 
Q 947 2416 947 1791 
Q 947 1169 1205 825 
Q 1463 481 1925 481 
Q 2391 481 2648 825 
Q 2906 1169 2906 1791 
z
M 3481 434 
Q 3481 -459 3084 -895 
Q 2688 -1331 1869 -1331 
Q 1566 -1331 1297 -1286 
Q 1028 -1241 775 -1147 
L 775 -588 
Q 1028 -725 1275 -790 
Q 1522 -856 1778 -856 
Q 2344 -856 2625 -561 
Q 2906 -266 2906 331 
L 2906 616 
Q 2728 306 2450 153 
Q 2172 0 1784 0 
Q 1141 0 747 490 
Q 353 981 353 1791 
Q 353 2603 747 3093 
Q 1141 3584 1784 3584 
Q 2172 3584 2450 3431 
Q 2728 3278 2906 2969 
L 2906 3500 
L 3481 3500 
L 3481 434 
z
" transform="scale(0.015625)"/>
        <path id="DejaVuSans-33" d="M 2597 2516 
Q 3050 2419 3304 2112 
Q 3559 1806 3559 1356 
Q 3559 666 3084 287 
Q 2609 -91 1734 -91 
Q 1441 -91 1130 -33 
Q 819 25 488 141 
L 488 750 
Q 750 597 1062 519 
Q 1375 441 1716 441 
Q 2309 441 2620 675 
Q 2931 909 2931 1356 
Q 2931 1769 2642 2001 
Q 2353 2234 1838 2234 
L 1294 2234 
L 1294 2753 
L 1863 2753 
Q 2328 2753 2575 2939 
Q 2822 3125 2822 3475 
Q 2822 3834 2567 4026 
Q 2313 4219 1838 4219 
Q 1578 4219 1281 4162 
Q 984 4106 628 3988 
L 628 4550 
Q 988 4650 1302 4700 
Q 1616 4750 1894 4750 
Q 2613 4750 3031 4423 
Q 3450 4097 3450 3541 
Q 3450 3153 3228 2886 
Q 3006 2619 2597 2516 
z
" transform="scale(0.015625)"/>
       </defs>
       <use xlink:href="#DejaVuSans-41"/>
       <use xlink:href="#DejaVuSans-76" x="62.533203"/>
       <use xlink:href="#DejaVuSans-65" x="121.712891"/>
       <use xlink:href="#DejaVuSans-72" x="183.236328"/>
       <use xlink:href="#DejaVuSans-61" x="224.349609"/>
       <use xlink:href="#DejaVuSans-67" x="285.628906"/>
       <use xlink:href="#DejaVuSans-65" x="349.105469"/>
       <use xlink:href="#DejaVuSans-20" x="410.628906"/>
       <use xlink:href="#DejaVuSans-28" x="442.416016"/>
       <use xlink:href="#DejaVuSans-33" x="481.429688"/>
       <use xlink:href="#DejaVuSans-29" x="545.052734"/>
      </g>
     </g>
    </g>
    <g id="xtick_3">
     <g id="line2d_3">
      <g>
       <use xlink:href="#mf5a2369e03" x="257.543125" y="310.679219" style="stroke: #000000; stroke-width: 0.8"/>
      </g>
     </g>
     <g id="text_3">
      <!-- Expert (4-5) -->
      <g transform="translate(227.500938 325.277656) scale(0.1 -0.1)">
       <defs>
        <path id="DejaVuSans-34" d="M 2419 4116 
L 825 1625 
L 2419 1625 
L 2419 4116 
z
M 2253 4666 
L 3047 4666 
L 3047 1625 
L 3713 1625 
L 3713 1100 
L 3047 1100 
L 3047 0 
L 2419 0 
L 2419 1100 
L 313 1100 
L 313 1709 
L 2253 4666 
z
" transform="scale(0.015625)"/>
        <path id="DejaVuSans-35" d="M 691 4666 
L 3169 4666 
L 3169 4134 
L 1269 4134 
L 1269 2991 
Q 1406 3038 1543 3061 
Q 1681 3084 1819 3084 
Q 2600 3084 3056 2656 
Q 3513 2228 3513 1497 
Q 3513 744 3044 326 
Q 2575 -91 1722 -91 
Q 1428 -91 1123 -41 
Q 819 9 494 109 
L 494 744 
Q 775 591 1075 516 
Q 1375 441 1709 441 
Q 2250 441 2565 725 
Q 2881 1009 2881 1497 
Q 2881 1984 2565 2268 
Q 2250 2553 1709 2553 
Q 1456 2553 1204 2497 
Q 953 2441 691 2322 
L 691 4666 
z
" transform="scale(0.015625)"/>
       </defs>
       <use xlink:href="#DejaVuSans-45"/>
       <use xlink:href="#DejaVuSans-78" x="63.183594"/>
       <use xlink:href="#DejaVuSans-70" x="122.363281"/>
       <use xlink:href="#DejaVuSans-65" x="185.839844"/>
       <use xlink:href="#DejaVuSans-72" x="247.363281"/>
       <use xlink:href="#DejaVuSans-74" x="288.476562"/>
       <use xlink:href="#DejaVuSans-20" x="327.685547"/>
       <use xlink:href="#DejaVuSans-28" x="359.472656"/>
       <use xlink:href="#DejaVuSans-34" x="398.486328"/>
       <use xlink:href="#DejaVuSans-2d" x="462.109375"/>
       <use xlink:href="#DejaVuSans-35" x="498.193359"/>
       <use xlink:href="#DejaVuSans-29" x="561.816406"/>
      </g>
     </g>
    </g>
    <g id="xtick_4">
     <g id="line2d_4">
      <g>
       <use xlink:href="#mf5a2369e03" x="340.225625" y="310.679219" style="stroke: #000000; stroke-width: 0.8"/>
      </g>
     </g>
     <g id="text_4">
      <!-- All -->
      <g transform="translate(334.027188 325.277656) scale(0.1 -0.1)">
       <defs>
        <path id="DejaVuSans-6c" d="M 603 4863 
L 1178 4863 
L 1178 0 
L 603 0 
L 603 4863 
z
" transform="scale(0.015625)"/>
       </defs>
       <use xlink:href="#DejaVuSans-41"/>
       <use xlink:href="#DejaVuSans-6c" x="68.408203"/>
       <use xlink:href="#DejaVuSans-6c" x="96.191406"/>
      </g>
     </g>
    </g>
    <g id="text_5">
     <!-- Expertise Group -->
     <g transform="translate(159.832188 341.995156) scale(0.14 -0.14)">
      <defs>
       <path id="DejaVuSans-69" d="M 603 3500 
L 1178 3500 
L 1178 0 
L 603 0 
L 603 3500 
z
M 603 4863 
L 1178 4863 
L 1178 4134 
L 603 4134 
L 603 4863 
z
" transform="scale(0.015625)"/>
       <path id="DejaVuSans-73" d="M 2834 3397 
L 2834 2853 
Q 2591 2978 2328 3040 
Q 2066 3103 1784 3103 
Q 1356 3103 1142 2972 
Q 928 2841 928 2578 
Q 928 2378 1081 2264 
Q 1234 2150 1697 2047 
L 1894 2003 
Q 2506 1872 2764 1633 
Q 3022 1394 3022 966 
Q 3022 478 2636 193 
Q 2250 -91 1575 -91 
Q 1294 -91 989 -36 
Q 684 19 347 128 
L 347 722 
Q 666 556 975 473 
Q 1284 391 1588 391 
Q 1994 391 2212 530 
Q 2431 669 2431 922 
Q 2431 1156 2273 1281 
Q 2116 1406 1581 1522 
L 1381 1569 
Q 847 1681 609 1914 
Q 372 2147 372 2553 
Q 372 3047 722 3315 
Q 1072 3584 1716 3584 
Q 2034 3584 2315 3537 
Q 2597 3491 2834 3397 
z
" transform="scale(0.015625)"/>
       <path id="DejaVuSans-47" d="M 3809 666 
L 3809 1919 
L 2778 1919 
L 2778 2438 
L 4434 2438 
L 4434 434 
Q 4069 175 3628 42 
Q 3188 -91 2688 -91 
Q 1594 -91 976 548 
Q 359 1188 359 2328 
Q 359 3472 976 4111 
Q 1594 4750 2688 4750 
Q 3144 4750 3555 4637 
Q 3966 4525 4313 4306 
L 4313 3634 
Q 3963 3931 3569 4081 
Q 3175 4231 2741 4231 
Q 1884 4231 1454 3753 
Q 1025 3275 1025 2328 
Q 1025 1384 1454 906 
Q 1884 428 2741 428 
Q 3075 428 3337 486 
Q 3600 544 3809 666 
z
" transform="scale(0.015625)"/>
       <path id="DejaVuSans-75" d="M 544 1381 
L 544 3500 
L 1119 3500 
L 1119 1403 
Q 1119 906 1312 657 
Q 1506 409 1894 409 
Q 2359 409 2629 706 
Q 2900 1003 2900 1516 
L 2900 3500 
L 3475 3500 
L 3475 0 
L 2900 0 
L 2900 538 
Q 2691 219 2414 64 
Q 2138 -91 1772 -91 
Q 1169 -91 856 284 
Q 544 659 544 1381 
z
M 1991 3584 
L 1991 3584 
z
" transform="scale(0.015625)"/>
      </defs>
      <use xlink:href="#DejaVuSans-45"/>
      <use xlink:href="#DejaVuSans-78" x="63.183594"/>
      <use xlink:href="#DejaVuSans-70" x="122.363281"/>
      <use xlink:href="#DejaVuSans-65" x="185.839844"/>
      <use xlink:href="#DejaVuSans-72" x="247.363281"/>
      <use xlink:href="#DejaVuSans-74" x="288.476562"/>
      <use xlink:href="#DejaVuSans-69" x="327.685547"/>
      <use xlink:href="#DejaVuSans-73" x="355.46875"/>
      <use xlink:href="#DejaVuSans-65" x="407.568359"/>
      <use xlink:href="#DejaVuSans-20" x="469.091797"/>
      <use xlink:href="#DejaVuSans-47" x="500.878906"/>
      <use xlink:href="#DejaVuSans-72" x="578.369141"/>
      <use xlink:href="#DejaVuSans-6f" x="617.232422"/>
      <use xlink:href="#DejaVuSans-75" x="678.414062"/>
      <use xlink:href="#DejaVuSans-70" x="741.792969"/>
     </g>
    </g>
   </g>
   <g id="matplotlib.axis_2">
    <g id="ytick_1">
     <g id="line2d_5">
      <path d="M 50.836875 310.679219 
L 381.566875 310.679219 
" clip-path="url(#pa5f1e4041a)" style="fill: none; stroke-dasharray: 2.96,1.28; stroke-dashoffset: 0; stroke: #c0c0c0; stroke-width: 0.8"/>
     </g>
     <g id="line2d_6">
      <defs>
       <path id="m30f8134882" d="M 0 0 
L -3.5 0 
" style="stroke: #000000; stroke-width: 0.8"/>
      </defs>
      <g>
       <use xlink:href="#m30f8134882" x="50.836875" y="310.679219" style="stroke: #000000; stroke-width: 0.8"/>
      </g>
     </g>
     <g id="text_6">
      <!-- 0 -->
      <g transform="translate(37.474375 314.478438) scale(0.1 -0.1)">
       <defs>
        <path id="DejaVuSans-30" d="M 2034 4250 
Q 1547 4250 1301 3770 
Q 1056 3291 1056 2328 
Q 1056 1369 1301 889 
Q 1547 409 2034 409 
Q 2525 409 2770 889 
Q 3016 1369 3016 2328 
Q 3016 3291 2770 3770 
Q 2525 4250 2034 4250 
z
M 2034 4750 
Q 2819 4750 3233 4129 
Q 3647 3509 3647 2328 
Q 3647 1150 3233 529 
Q 2819 -91 2034 -91 
Q 1250 -91 836 529 
Q 422 1150 422 2328 
Q 422 3509 836 4129 
Q 1250 4750 2034 4750 
z
" transform="scale(0.015625)"/>
       </defs>
       <use xlink:href="#DejaVuSans-30"/>
      </g>
     </g>
    </g>
    <g id="ytick_2">
     <g id="line2d_7">
      <path d="M 50.836875 250.743219 
L 381.566875 250.743219 
" clip-path="url(#pa5f1e4041a)" style="fill: none; stroke-dasharray: 2.96,1.28; stroke-dashoffset: 0; stroke: #c0c0c0; stroke-width: 0.8"/>
     </g>
     <g id="line2d_8">
      <g>
       <use xlink:href="#m30f8134882" x="50.836875" y="250.743219" style="stroke: #000000; stroke-width: 0.8"/>
      </g>
     </g>
     <g id="text_7">
      <!-- 20 -->
      <g transform="translate(31.111875 254.542438) scale(0.1 -0.1)">
       <use xlink:href="#DejaVuSans-32"/>
       <use xlink:href="#DejaVuSans-30" x="63.623047"/>
      </g>
     </g>
    </g>
    <g id="ytick_3">
     <g id="line2d_9">
      <path d="M 50.836875 190.807219 
L 381.566875 190.807219 
" clip-path="url(#pa5f1e4041a)" style="fill: none; stroke-dasharray: 2.96,1.28; stroke-dashoffset: 0; stroke: #c0c0c0; stroke-width: 0.8"/>
     </g>
     <g id="line2d_10">
      <g>
       <use xlink:href="#m30f8134882" x="50.836875" y="190.807219" style="stroke: #000000; stroke-width: 0.8"/>
      </g>
     </g>
     <g id="text_8">
      <!-- 40 -->
      <g transform="translate(31.111875 194.606437) scale(0.1 -0.1)">
       <use xlink:href="#DejaVuSans-34"/>
       <use xlink:href="#DejaVuSans-30" x="63.623047"/>
      </g>
     </g>
    </g>
    <g id="ytick_4">
     <g id="line2d_11">
      <path d="M 50.836875 130.871219 
L 381.566875 130.871219 
" clip-path="url(#pa5f1e4041a)" style="fill: none; stroke-dasharray: 2.96,1.28; stroke-dashoffset: 0; stroke: #c0c0c0; stroke-width: 0.8"/>
     </g>
     <g id="line2d_12">
      <g>
       <use xlink:href="#m30f8134882" x="50.836875" y="130.871219" style="stroke: #000000; stroke-width: 0.8"/>
      </g>
     </g>
     <g id="text_9">
      <!-- 60 -->
      <g transform="translate(31.111875 134.670437) scale(0.1 -0.1)">
       <defs>
        <path id="DejaVuSans-36" d="M 2113 2584 
Q 1688 2584 1439 2293 
Q 1191 2003 1191 1497 
Q 1191 994 1439 701 
Q 1688 409 2113 409 
Q 2538 409 2786 701 
Q 3034 994 3034 1497 
Q 3034 2003 2786 2293 
Q 2538 2584 2113 2584 
z
M 3366 4563 
L 3366 3988 
Q 3128 4100 2886 4159 
Q 2644 4219 2406 4219 
Q 1781 4219 1451 3797 
Q 1122 3375 1075 2522 
Q 1259 2794 1537 2939 
Q 1816 3084 2150 3084 
Q 2853 3084 3261 2657 
Q 3669 2231 3669 1497 
Q 3669 778 3244 343 
Q 2819 -91 2113 -91 
Q 1303 -91 875 529 
Q 447 1150 447 2328 
Q 447 3434 972 4092 
Q 1497 4750 2381 4750 
Q 2619 4750 2861 4703 
Q 3103 4656 3366 4563 
z
" transform="scale(0.015625)"/>
       </defs>
       <use xlink:href="#DejaVuSans-36"/>
       <use xlink:href="#DejaVuSans-30" x="63.623047"/>
      </g>
     </g>
    </g>
    <g id="ytick_5">
     <g id="line2d_13">
      <path d="M 50.836875 70.935219 
L 381.566875 70.935219 
" clip-path="url(#pa5f1e4041a)" style="fill: none; stroke-dasharray: 2.96,1.28; stroke-dashoffset: 0; stroke: #c0c0c0; stroke-width: 0.8"/>
     </g>
     <g id="line2d_14">
      <g>
       <use xlink:href="#m30f8134882" x="50.836875" y="70.935219" style="stroke: #000000; stroke-width: 0.8"/>
      </g>
     </g>
     <g id="text_10">
      <!-- 80 -->
      <g transform="translate(31.111875 74.734438) scale(0.1 -0.1)">
       <defs>
        <path id="DejaVuSans-38" d="M 2034 2216 
Q 1584 2216 1326 1975 
Q 1069 1734 1069 1313 
Q 1069 891 1326 650 
Q 1584 409 2034 409 
Q 2484 409 2743 651 
Q 3003 894 3003 1313 
Q 3003 1734 2745 1975 
Q 2488 2216 2034 2216 
z
M 1403 2484 
Q 997 2584 770 2862 
Q 544 3141 544 3541 
Q 544 4100 942 4425 
Q 1341 4750 2034 4750 
Q 2731 4750 3128 4425 
Q 3525 4100 3525 3541 
Q 3525 3141 3298 2862 
Q 3072 2584 2669 2484 
Q 3125 2378 3379 2068 
Q 3634 1759 3634 1313 
Q 3634 634 3220 271 
Q 2806 -91 2034 -91 
Q 1263 -91 848 271 
Q 434 634 434 1313 
Q 434 1759 690 2068 
Q 947 2378 1403 2484 
z
M 1172 3481 
Q 1172 3119 1398 2916 
Q 1625 2713 2034 2713 
Q 2441 2713 2670 2916 
Q 2900 3119 2900 3481 
Q 2900 3844 2670 4047 
Q 2441 4250 2034 4250 
Q 1625 4250 1398 4047 
Q 1172 3844 1172 3481 
z
" transform="scale(0.015625)"/>
       </defs>
       <use xlink:href="#DejaVuSans-38"/>
       <use xlink:href="#DejaVuSans-30" x="63.623047"/>
      </g>
     </g>
    </g>
    <g id="ytick_6">
     <g id="line2d_15">
      <path d="M 50.836875 10.999219 
L 381.566875 10.999219 
" clip-path="url(#pa5f1e4041a)" style="fill: none; stroke-dasharray: 2.96,1.28; stroke-dashoffset: 0; stroke: #c0c0c0; stroke-width: 0.8"/>
     </g>
     <g id="line2d_16">
      <g>
       <use xlink:href="#m30f8134882" x="50.836875" y="10.999219" style="stroke: #000000; stroke-width: 0.8"/>
      </g>
     </g>
     <g id="text_11">
      <!-- 100 -->
      <g transform="translate(24.749375 14.798437) scale(0.1 -0.1)">
       <use xlink:href="#DejaVuSans-31"/>
       <use xlink:href="#DejaVuSans-30" x="63.623047"/>
       <use xlink:href="#DejaVuSans-30" x="127.246094"/>
      </g>
     </g>
    </g>
    <g id="text_12">
     <!-- Success Rate (%) -->
     <g transform="translate(17.837812 221.627656) rotate(-90) scale(0.14 -0.14)">
      <defs>
       <path id="DejaVuSans-53" d="M 3425 4513 
L 3425 3897 
Q 3066 4069 2747 4153 
Q 2428 4238 2131 4238 
Q 1616 4238 1336 4038 
Q 1056 3838 1056 3469 
Q 1056 3159 1242 3001 
Q 1428 2844 1947 2747 
L 2328 2669 
Q 3034 2534 3370 2195 
Q 3706 1856 3706 1288 
Q 3706 609 3251 259 
Q 2797 -91 1919 -91 
Q 1588 -91 1214 -16 
Q 841 59 441 206 
L 441 856 
Q 825 641 1194 531 
Q 1563 422 1919 422 
Q 2459 422 2753 634 
Q 3047 847 3047 1241 
Q 3047 1584 2836 1778 
Q 2625 1972 2144 2069 
L 1759 2144 
Q 1053 2284 737 2584 
Q 422 2884 422 3419 
Q 422 4038 858 4394 
Q 1294 4750 2059 4750 
Q 2388 4750 2728 4690 
Q 3069 4631 3425 4513 
z
" transform="scale(0.015625)"/>
       <path id="DejaVuSans-63" d="M 3122 3366 
L 3122 2828 
Q 2878 2963 2633 3030 
Q 2388 3097 2138 3097 
Q 1578 3097 1268 2742 
Q 959 2388 959 1747 
Q 959 1106 1268 751 
Q 1578 397 2138 397 
Q 2388 397 2633 464 
Q 2878 531 3122 666 
L 3122 134 
Q 2881 22 2623 -34 
Q 2366 -91 2075 -91 
Q 1284 -91 818 406 
Q 353 903 353 1747 
Q 353 2603 823 3093 
Q 1294 3584 2113 3584 
Q 2378 3584 2631 3529 
Q 2884 3475 3122 3366 
z
" transform="scale(0.015625)"/>
       <path id="DejaVuSans-52" d="M 2841 2188 
Q 3044 2119 3236 1894 
Q 3428 1669 3622 1275 
L 4263 0 
L 3584 0 
L 2988 1197 
Q 2756 1666 2539 1819 
Q 2322 1972 1947 1972 
L 1259 1972 
L 1259 0 
L 628 0 
L 628 4666 
L 2053 4666 
Q 2853 4666 3247 4331 
Q 3641 3997 3641 3322 
Q 3641 2881 3436 2590 
Q 3231 2300 2841 2188 
z
M 1259 4147 
L 1259 2491 
L 2053 2491 
Q 2509 2491 2742 2702 
Q 2975 2913 2975 3322 
Q 2975 3731 2742 3939 
Q 2509 4147 2053 4147 
L 1259 4147 
z
" transform="scale(0.015625)"/>
       <path id="DejaVuSans-25" d="M 4653 2053 
Q 4381 2053 4226 1822 
Q 4072 1591 4072 1178 
Q 4072 772 4226 539 
Q 4381 306 4653 306 
Q 4919 306 5073 539 
Q 5228 772 5228 1178 
Q 5228 1588 5073 1820 
Q 4919 2053 4653 2053 
z
M 4653 2450 
Q 5147 2450 5437 2106 
Q 5728 1763 5728 1178 
Q 5728 594 5436 251 
Q 5144 -91 4653 -91 
Q 4153 -91 3862 251 
Q 3572 594 3572 1178 
Q 3572 1766 3864 2108 
Q 4156 2450 4653 2450 
z
M 1428 4353 
Q 1159 4353 1004 4120 
Q 850 3888 850 3481 
Q 850 3069 1003 2837 
Q 1156 2606 1428 2606 
Q 1700 2606 1854 2837 
Q 2009 3069 2009 3481 
Q 2009 3884 1853 4118 
Q 1697 4353 1428 4353 
z
M 4250 4750 
L 4750 4750 
L 1831 -91 
L 1331 -91 
L 4250 4750 
z
M 1428 4750 
Q 1922 4750 2215 4408 
Q 2509 4066 2509 3481 
Q 2509 2891 2217 2550 
Q 1925 2209 1428 2209 
Q 931 2209 642 2551 
Q 353 2894 353 3481 
Q 353 4063 643 4406 
Q 934 4750 1428 4750 
z
" transform="scale(0.015625)"/>
      </defs>
      <use xlink:href="#DejaVuSans-53"/>
      <use xlink:href="#DejaVuSans-75" x="63.476562"/>
      <use xlink:href="#DejaVuSans-63" x="126.855469"/>
      <use xlink:href="#DejaVuSans-63" x="181.835938"/>
      <use xlink:href="#DejaVuSans-65" x="236.816406"/>
      <use xlink:href="#DejaVuSans-73" x="298.339844"/>
      <use xlink:href="#DejaVuSans-73" x="350.439453"/>
      <use xlink:href="#DejaVuSans-20" x="402.539062"/>
      <use xlink:href="#DejaVuSans-52" x="434.326172"/>
      <use xlink:href="#DejaVuSans-61" x="501.558594"/>
      <use xlink:href="#DejaVuSans-74" x="562.837891"/>
      <use xlink:href="#DejaVuSans-65" x="602.046875"/>
      <use xlink:href="#DejaVuSans-20" x="663.570312"/>
      <use xlink:href="#DejaVuSans-28" x="695.357422"/>
      <use xlink:href="#DejaVuSans-25" x="734.371094"/>
      <use xlink:href="#DejaVuSans-29" x="829.390625"/>
     </g>
    </g>
   </g>
   <g id="PolyCollection_1">
    <path d="M 94.133126 286.38084 
L 90.223124 286.38084 
L 90.212425 284.826399 
L 90.241098 283.271957 
L 90.304571 281.717515 
L 90.395844 280.163074 
L 90.506205 278.608632 
L 90.625962 277.05419 
L 90.745032 275.499748 
L 90.853268 273.945307 
L 90.940466 272.390865 
L 90.996079 270.836423 
L 91.008732 269.281982 
L 90.965685 267.72754 
L 90.852397 266.173098 
L 90.652373 264.618656 
L 90.347378 263.064215 
L 89.9181 261.509773 
L 89.345243 259.955331 
L 88.610959 258.40089 
L 87.700514 256.846448 
L 86.603991 255.292006 
L 85.31786 253.737564 
L 83.846233 252.183123 
L 82.201644 250.628681 
L 80.405245 249.074239 
L 78.486357 247.519798 
L 76.481349 245.965356 
L 74.431917 244.410914 
L 72.38283 242.856472 
L 70.379301 241.302031 
L 68.464176 239.747589 
L 66.675157 238.193147 
L 65.042334 236.638706 
L 63.586283 235.084264 
L 62.31699 233.529822 
L 61.233794 231.97538 
L 60.326446 230.420939 
L 59.577235 228.866497 
L 58.963975 227.312055 
L 58.463475 225.757614 
L 58.054983 224.203172 
L 57.723035 222.64873 
L 57.459187 221.094288 
L 57.262238 219.539847 
L 57.136801 217.985405 
L 57.090378 216.430963 
L 57.129387 214.876522 
L 57.254861 213.32208 
L 57.45867 211.767638 
L 57.721119 210.213196 
L 58.010611 208.658755 
L 58.285765 207.104313 
L 58.499929 205.549871 
L 58.607606 203.99543 
L 58.571851 202.440988 
L 58.371402 200.886546 
L 58.00623 199.332104 
L 57.500307 197.777663 
L 56.900812 196.223221 
L 56.27357 194.668779 
L 55.695231 193.114338 
L 55.243297 191.559896 
L 54.985609 190.005454 
L 54.971 188.451012 
L 55.222704 186.896571 
L 55.735559 185.342129 
L 56.47739 183.787687 
L 57.3942 182.233246 
L 58.418185 180.678804 
L 59.477169 179.124362 
L 60.50399 177.56992 
L 61.444504 176.015479 
L 62.263271 174.461037 
L 62.946459 172.906595 
L 63.501941 171.352154 
L 63.956942 169.797712 
L 64.353797 168.24327 
L 64.744486 166.688828 
L 65.184611 165.134387 
L 65.727385 163.579945 
L 66.418142 162.025503 
L 67.289784 160.471062 
L 68.359505 158.91662 
L 69.62704 157.362178 
L 71.074592 155.807736 
L 72.668465 154.253295 
L 74.36224 152.698853 
L 76.10121 151.144411 
L 77.827573 149.58997 
L 79.485843 148.035528 
L 81.027848 146.481086 
L 82.41676 144.926644 
L 83.629725 143.372203 
L 84.658829 141.817761 
L 85.510381 140.263319 
L 86.202692 138.708877 
L 86.762721 137.154436 
L 87.222097 135.599994 
L 87.613052 134.045552 
L 87.96481 132.491111 
L 96.39144 132.491111 
L 96.39144 132.491111 
L 96.743198 134.045552 
L 97.134153 135.599994 
L 97.593529 137.154436 
L 98.153558 138.708877 
L 98.845869 140.263319 
L 99.697421 141.817761 
L 100.726525 143.372203 
L 101.93949 144.926644 
L 103.328402 146.481086 
L 104.870407 148.035528 
L 106.528677 149.58997 
L 108.25504 151.144411 
L 109.99401 152.698853 
L 111.687785 154.253295 
L 113.281658 155.807736 
L 114.72921 157.362178 
L 115.996745 158.91662 
L 117.066466 160.471062 
L 117.938108 162.025503 
L 118.628865 163.579945 
L 119.171639 165.134387 
L 119.611764 166.688828 
L 120.002453 168.24327 
L 120.399308 169.797712 
L 120.854309 171.352154 
L 121.409791 172.906595 
L 122.092979 174.461037 
L 122.911746 176.015479 
L 123.85226 177.56992 
L 124.879081 179.124362 
L 125.938065 180.678804 
L 126.96205 182.233246 
L 127.87886 183.787687 
L 128.620691 185.342129 
L 129.133546 186.896571 
L 129.38525 188.451012 
L 129.370641 190.005454 
L 129.112953 191.559896 
L 128.661019 193.114338 
L 128.08268 194.668779 
L 127.455438 196.223221 
L 126.855943 197.777663 
L 126.35002 199.332104 
L 125.984848 200.886546 
L 125.784399 202.440988 
L 125.748644 203.99543 
L 125.856321 205.549871 
L 126.070485 207.104313 
L 126.345639 208.658755 
L 126.635131 210.213196 
L 126.89758 211.767638 
L 127.101389 213.32208 
L 127.226863 214.876522 
L 127.265872 216.430963 
L 127.219449 217.985405 
L 127.094012 219.539847 
L 126.897063 221.094288 
L 126.633215 222.64873 
L 126.301267 224.203172 
L 125.892775 225.757614 
L 125.392275 227.312055 
L 124.779015 228.866497 
L 124.029804 230.420939 
L 123.122456 231.97538 
L 122.03926 233.529822 
L 120.769967 235.084264 
L 119.313916 236.638706 
L 117.681093 238.193147 
L 115.892074 239.747589 
L 113.976949 241.302031 
L 111.97342 242.856472 
L 109.924333 244.410914 
L 107.874901 245.965356 
L 105.869893 247.519798 
L 103.951005 249.074239 
L 102.154606 250.628681 
L 100.510017 252.183123 
L 99.03839 253.737564 
L 97.752259 255.292006 
L 96.655736 256.846448 
L 95.745291 258.40089 
L 95.011007 259.955331 
L 94.43815 261.509773 
L 94.008872 263.064215 
L 93.703877 264.618656 
L 93.503853 266.173098 
L 93.390565 267.72754 
L 93.347518 269.281982 
L 93.360171 270.836423 
L 93.415784 272.390865 
L 93.502982 273.945307 
L 93.611218 275.499748 
L 93.730288 277.05419 
L 93.850045 278.608632 
L 93.960406 280.163074 
L 94.051679 281.717515 
L 94.115152 283.271957 
L 94.143825 284.826399 
L 94.133126 286.38084 
z
" clip-path="url(#pa5f1e4041a)" style="fill: #8e0152"/>
   </g>
   <g id="PolyCollection_2">
    <path d="M 179.572904 253.983003 
L 170.148346 253.983003 
L 169.763322 252.919437 
L 169.367695 251.855872 
L 168.964005 250.792306 
L 168.555667 249.728741 
L 168.14704 248.665176 
L 167.743438 247.60161 
L 167.351041 246.538045 
L 166.976722 245.474479 
L 166.627767 244.410914 
L 166.311528 243.347349 
L 166.034994 242.283783 
L 165.804348 241.220218 
L 165.624506 240.156653 
L 165.498706 239.093087 
L 165.428167 238.029522 
L 165.41185 236.965956 
L 165.446349 235.902391 
L 165.525932 234.838826 
L 165.64271 233.77526 
L 165.786951 232.711695 
L 165.947504 231.648129 
L 166.1123 230.584564 
L 166.268906 229.520999 
L 166.405091 228.457433 
L 166.509364 227.393868 
L 166.571462 226.330303 
L 166.582756 225.266737 
L 166.536559 224.203172 
L 166.428332 223.139606 
L 166.255777 222.076041 
L 166.018834 221.012476 
L 165.719574 219.94891 
L 165.362018 218.885345 
L 164.951877 217.821779 
L 164.49624 216.758214 
L 164.003212 215.694649 
L 163.481522 214.631083 
L 162.940098 213.567518 
L 162.387639 212.503953 
L 161.832181 211.440387 
L 161.280674 210.376822 
L 160.738589 209.313256 
L 160.209576 208.249691 
L 159.695182 207.186126 
L 159.194659 206.12256 
L 158.704885 205.058995 
L 158.220403 203.99543 
L 157.733599 202.931864 
L 157.235029 201.868299 
L 156.713883 200.804733 
L 156.158578 199.741168 
L 155.557463 198.677603 
L 154.899587 197.614037 
L 154.175515 196.550472 
L 153.378112 195.486906 
L 152.503265 194.423341 
L 151.550486 193.359776 
L 150.523338 192.29621 
L 149.429654 191.232645 
L 148.281518 190.16908 
L 147.094988 189.105514 
L 145.889578 188.041949 
L 144.687511 186.978383 
L 143.512787 185.914818 
L 142.390124 184.851253 
L 141.343827 183.787687 
L 140.396674 182.724122 
L 139.568875 181.660556 
L 138.877178 180.596991 
L 138.33418 179.533426 
L 137.947876 178.46986 
L 137.721478 177.406295 
L 137.6535 176.34273 
L 137.738094 175.279164 
L 137.965607 174.215599 
L 138.323315 173.152033 
L 138.796266 172.088468 
L 139.368184 171.024903 
L 140.022381 169.961337 
L 140.742592 168.897772 
L 141.513731 167.834206 
L 142.322486 166.770641 
L 143.15777 165.707076 
L 144.010984 164.64351 
L 144.876114 163.579945 
L 145.749661 162.51638 
L 146.630426 161.452814 
L 147.519175 160.389249 
L 148.418213 159.325683 
L 149.330894 158.262118 
L 150.261114 157.198553 
L 151.212789 156.134987 
L 152.189379 155.071422 
L 153.193458 154.007856 
L 154.226365 152.944291 
L 155.287939 151.880726 
L 156.376369 150.81716 
L 157.488134 149.753595 
L 158.61806 148.69003 
L 191.10319 148.69003 
L 191.10319 148.69003 
L 192.233116 149.753595 
L 193.344881 150.81716 
L 194.433311 151.880726 
L 195.494885 152.944291 
L 196.527792 154.007856 
L 197.531871 155.071422 
L 198.508461 156.134987 
L 199.460136 157.198553 
L 200.390356 158.262118 
L 201.303037 159.325683 
L 202.202075 160.389249 
L 203.090824 161.452814 
L 203.971589 162.51638 
L 204.845136 163.579945 
L 205.710266 164.64351 
L 206.56348 165.707076 
L 207.398764 166.770641 
L 208.207519 167.834206 
L 208.978658 168.897772 
L 209.698869 169.961337 
L 210.353066 171.024903 
L 210.924984 172.088468 
L 211.397935 173.152033 
L 211.755643 174.215599 
L 211.983156 175.279164 
L 212.06775 176.34273 
L 211.999772 177.406295 
L 211.773374 178.46986 
L 211.38707 179.533426 
L 210.844072 180.596991 
L 210.152375 181.660556 
L 209.324576 182.724122 
L 208.377423 183.787687 
L 207.331126 184.851253 
L 206.208463 185.914818 
L 205.033739 186.978383 
L 203.831672 188.041949 
L 202.626262 189.105514 
L 201.439732 190.16908 
L 200.291596 191.232645 
L 199.197912 192.29621 
L 198.170764 193.359776 
L 197.217985 194.423341 
L 196.343138 195.486906 
L 195.545735 196.550472 
L 194.821663 197.614037 
L 194.163787 198.677603 
L 193.562672 199.741168 
L 193.007367 200.804733 
L 192.486221 201.868299 
L 191.987651 202.931864 
L 191.500847 203.99543 
L 191.016365 205.058995 
L 190.526591 206.12256 
L 190.026068 207.186126 
L 189.511674 208.249691 
L 188.982661 209.313256 
L 188.440576 210.376822 
L 187.889069 211.440387 
L 187.333611 212.503953 
L 186.781152 213.567518 
L 186.239728 214.631083 
L 185.718038 215.694649 
L 185.22501 216.758214 
L 184.769373 217.821779 
L 184.359232 218.885345 
L 184.001676 219.94891 
L 183.702416 221.012476 
L 183.465473 222.076041 
L 183.292918 223.139606 
L 183.184691 224.203172 
L 183.138494 225.266737 
L 183.149788 226.330303 
L 183.211886 227.393868 
L 183.316159 228.457433 
L 183.452344 229.520999 
L 183.60895 230.584564 
L 183.773746 231.648129 
L 183.934299 232.711695 
L 184.07854 233.77526 
L 184.195318 234.838826 
L 184.274901 235.902391 
L 184.3094 236.965956 
L 184.293083 238.029522 
L 184.222544 239.093087 
L 184.096744 240.156653 
L 183.916902 241.220218 
L 183.686256 242.283783 
L 183.409722 243.347349 
L 183.093483 244.410914 
L 182.744528 245.474479 
L 182.370209 246.538045 
L 181.977812 247.60161 
L 181.57421 248.665176 
L 181.165583 249.728741 
L 180.757245 250.792306 
L 180.353555 251.855872 
L 179.957928 252.919437 
L 179.572904 253.983003 
z
" clip-path="url(#pa5f1e4041a)" style="fill: #d9d9d9"/>
   </g>
   <g id="PolyCollection_3">
    <path d="M 264.050452 213.485705 
L 251.035798 213.485705 
L 251.054865 212.258514 
L 251.131004 211.031324 
L 251.260247 209.804133 
L 251.436667 208.576942 
L 251.652519 207.349751 
L 251.898439 206.12256 
L 252.163683 204.895369 
L 252.436403 203.668179 
L 252.703922 202.440988 
L 252.953022 201.213797 
L 253.170216 199.986606 
L 253.341991 198.759415 
L 253.455046 197.532224 
L 253.496494 196.305034 
L 253.454056 195.077843 
L 253.316246 193.850652 
L 253.072554 192.623461 
L 252.713638 191.39627 
L 252.231536 190.16908 
L 251.619894 188.941889 
L 250.874214 187.714698 
L 249.992114 186.487507 
L 248.973595 185.260316 
L 247.821287 184.033125 
L 246.540665 182.805935 
L 245.140207 181.578744 
L 243.631466 180.351553 
L 242.029051 179.124362 
L 240.350471 177.897171 
L 238.615858 176.66998 
L 236.847548 175.44279 
L 235.069528 174.215599 
L 233.306773 172.988408 
L 231.584485 171.761217 
L 229.927279 170.534026 
L 228.358353 169.306835 
L 226.898687 168.079645 
L 225.566311 166.852454 
L 224.375704 165.625263 
L 223.337335 164.398072 
L 222.457398 163.170881 
L 221.73774 161.94369 
L 221.175993 160.7165 
L 220.765903 159.489309 
L 220.497824 158.262118 
L 220.359341 157.034927 
L 220.336 155.807736 
L 220.412069 154.580546 
L 220.571307 153.353355 
L 220.797683 152.126164 
L 221.076019 150.898973 
L 221.392513 149.671782 
L 221.735152 148.444591 
L 222.093973 147.217401 
L 222.461215 145.99021 
L 222.831342 144.763019 
L 223.200982 143.535828 
L 223.568783 142.308637 
L 223.935222 141.081446 
L 224.30238 139.854256 
L 224.673701 138.627065 
L 225.053736 137.399874 
L 225.447892 136.172683 
L 225.862167 134.945492 
L 226.302887 133.718301 
L 226.776426 132.491111 
L 227.288914 131.26392 
L 227.845942 130.036729 
L 228.452255 128.809538 
L 229.111458 127.582347 
L 229.82574 126.355157 
L 230.595642 125.127966 
L 231.419885 123.900775 
L 232.295276 122.673584 
L 233.216705 121.446393 
L 234.177244 120.219202 
L 235.168347 118.992012 
L 236.180149 117.764821 
L 237.20184 116.53763 
L 238.222107 115.310439 
L 239.229603 114.083248 
L 240.21343 112.856057 
L 241.163595 111.628867 
L 242.071421 110.401676 
L 242.929878 109.174485 
L 243.733833 107.947294 
L 244.480198 106.720103 
L 245.167961 105.492912 
L 245.798131 104.265722 
L 246.373572 103.038531 
L 246.898761 101.81134 
L 247.379479 100.584149 
L 247.822454 99.356958 
L 248.234978 98.129767 
L 248.624518 96.902577 
L 248.998347 95.675386 
L 249.363201 94.448195 
L 249.724987 93.221004 
L 250.088559 91.993813 
L 264.997691 91.993813 
L 264.997691 91.993813 
L 265.361263 93.221004 
L 265.723049 94.448195 
L 266.087903 95.675386 
L 266.461732 96.902577 
L 266.851272 98.129767 
L 267.263796 99.356958 
L 267.706771 100.584149 
L 268.187489 101.81134 
L 268.712678 103.038531 
L 269.288119 104.265722 
L 269.918289 105.492912 
L 270.606052 106.720103 
L 271.352417 107.947294 
L 272.156372 109.174485 
L 273.014829 110.401676 
L 273.922655 111.628867 
L 274.87282 112.856057 
L 275.856647 114.083248 
L 276.864143 115.310439 
L 277.88441 116.53763 
L 278.906101 117.764821 
L 279.917903 118.992012 
L 280.909006 120.219202 
L 281.869545 121.446393 
L 282.790974 122.673584 
L 283.666365 123.900775 
L 284.490608 125.127966 
L 285.26051 126.355157 
L 285.974792 127.582347 
L 286.633995 128.809538 
L 287.240308 130.036729 
L 287.797336 131.26392 
L 288.309824 132.491111 
L 288.783363 133.718301 
L 289.224083 134.945492 
L 289.638358 136.172683 
L 290.032514 137.399874 
L 290.412549 138.627065 
L 290.78387 139.854256 
L 291.151028 141.081446 
L 291.517467 142.308637 
L 291.885268 143.535828 
L 292.254908 144.763019 
L 292.625035 145.99021 
L 292.992277 147.217401 
L 293.351098 148.444591 
L 293.693737 149.671782 
L 294.010231 150.898973 
L 294.288567 152.126164 
L 294.514943 153.353355 
L 294.674181 154.580546 
L 294.75025 155.807736 
L 294.726909 157.034927 
L 294.588426 158.262118 
L 294.320347 159.489309 
L 293.910257 160.7165 
L 293.34851 161.94369 
L 292.628852 163.170881 
L 291.748915 164.398072 
L 290.710546 165.625263 
L 289.519939 166.852454 
L 288.187563 168.079645 
L 286.727897 169.306835 
L 285.158971 170.534026 
L 283.501765 171.761217 
L 281.779477 172.988408 
L 280.016722 174.215599 
L 278.238702 175.44279 
L 276.470392 176.66998 
L 274.735779 177.897171 
L 273.057199 179.124362 
L 271.454784 180.351553 
L 269.946043 181.578744 
L 268.545585 182.805935 
L 267.264963 184.033125 
L 266.112655 185.260316 
L 265.094136 186.487507 
L 264.212036 187.714698 
L 263.466356 188.941889 
L 262.854714 190.16908 
L 262.372612 191.39627 
L 262.013696 192.623461 
L 261.770004 193.850652 
L 261.632194 195.077843 
L 261.589756 196.305034 
L 261.631204 197.532224 
L 261.744259 198.759415 
L 261.916034 199.986606 
L 262.133228 201.213797 
L 262.382328 202.440988 
L 262.649847 203.668179 
L 262.922567 204.895369 
L 263.187811 206.12256 
L 263.433731 207.349751 
L 263.649583 208.576942 
L 263.826003 209.804133 
L 263.955246 211.031324 
L 264.031385 212.258514 
L 264.050452 213.485705 
z
" clip-path="url(#pa5f1e4041a)" style="fill: #276419"/>
   </g>
   <g id="PolyCollection_4">
    <path d="M 341.145955 286.38084 
L 339.305295 286.38084 
L 339.302407 284.417335 
L 339.329238 282.45383 
L 339.378255 280.490324 
L 339.438768 278.526819 
L 339.498438 276.563314 
L 339.544561 274.599808 
L 339.564782 272.636303 
L 339.54714 270.672798 
L 339.479586 268.709292 
L 339.349269 266.745787 
L 339.141925 264.782282 
L 338.841609 262.818776 
L 338.430943 260.855271 
L 337.891999 258.891766 
L 337.207959 256.928261 
L 336.365638 254.964755 
L 335.358831 253.00125 
L 334.192125 251.037745 
L 332.884367 249.074239 
L 331.470647 247.110734 
L 330.001551 245.147229 
L 328.538852 243.183723 
L 327.147647 241.220218 
L 325.886104 239.256713 
L 324.794925 237.293207 
L 323.889185 235.329702 
L 323.154903 233.366197 
L 322.55178 231.402691 
L 322.022019 229.439186 
L 321.503626 227.475681 
L 320.945326 225.512175 
L 320.31957 223.54867 
L 319.630339 221.585165 
L 318.913399 219.621659 
L 318.228394 217.658154 
L 317.644122 215.694649 
L 317.220169 213.731143 
L 316.98924 211.767638 
L 316.944595 209.804133 
L 317.036024 207.840627 
L 317.175884 205.877122 
L 317.25437 203.913617 
L 317.160991 201.950111 
L 316.807543 199.986606 
L 316.147344 198.023101 
L 315.186064 196.059595 
L 313.981385 194.09609 
L 312.631351 192.132585 
L 311.254077 190.16908 
L 309.963639 188.205574 
L 308.847809 186.242069 
L 307.952662 184.278564 
L 307.277141 182.315058 
L 306.778227 180.351553 
L 306.384942 178.388048 
L 306.017789 176.424542 
L 305.609431 174.461037 
L 305.122484 172.497532 
L 304.561047 170.534026 
L 303.973699 168.570521 
L 303.447141 166.607016 
L 303.091313 164.64351 
L 303.0185 162.680005 
L 303.320467 160.7165 
L 304.048637 158.752994 
L 305.202171 156.789489 
L 306.727353 154.825984 
L 308.528933 152.862478 
L 310.49072 150.898973 
L 312.499897 148.935468 
L 314.468312 146.971962 
L 316.34504 145.008457 
L 318.117519 143.044952 
L 319.802399 141.081446 
L 321.43046 139.117941 
L 323.03121 137.154436 
L 324.621962 135.19093 
L 326.203656 133.227425 
L 327.762896 131.26392 
L 329.277655 129.300414 
L 330.723558 127.336909 
L 332.078495 125.373404 
L 333.324774 123.409899 
L 334.449367 121.446393 
L 335.443401 119.482888 
L 336.301852 117.519383 
L 337.023788 115.555877 
L 337.612855 113.592372 
L 338.077436 111.628867 
L 338.430109 109.665361 
L 338.686404 107.701856 
L 338.863288 105.738351 
L 338.97786 103.774845 
L 339.046585 101.81134 
L 339.085041 99.847835 
L 339.107842 97.884329 
L 339.128352 95.920824 
L 339.157975 93.957319 
L 339.20512 91.993813 
L 341.24613 91.993813 
L 341.24613 91.993813 
L 341.293275 93.957319 
L 341.322898 95.920824 
L 341.343408 97.884329 
L 341.366209 99.847835 
L 341.404665 101.81134 
L 341.47339 103.774845 
L 341.587962 105.738351 
L 341.764846 107.701856 
L 342.021141 109.665361 
L 342.373814 111.628867 
L 342.838395 113.592372 
L 343.427462 115.555877 
L 344.149398 117.519383 
L 345.007849 119.482888 
L 346.001883 121.446393 
L 347.126476 123.409899 
L 348.372755 125.373404 
L 349.727692 127.336909 
L 351.173595 129.300414 
L 352.688354 131.26392 
L 354.247594 133.227425 
L 355.829288 135.19093 
L 357.42004 137.154436 
L 359.02079 139.117941 
L 360.648851 141.081446 
L 362.333731 143.044952 
L 364.10621 145.008457 
L 365.982938 146.971962 
L 367.951353 148.935468 
L 369.96053 150.898973 
L 371.922317 152.862478 
L 373.723897 154.825984 
L 375.249079 156.789489 
L 376.402613 158.752994 
L 377.130783 160.7165 
L 377.43275 162.680005 
L 377.359937 164.64351 
L 377.004109 166.607016 
L 376.477551 168.570521 
L 375.890203 170.534026 
L 375.328766 172.497532 
L 374.841819 174.461037 
L 374.433461 176.424542 
L 374.066308 178.388048 
L 373.673023 180.351553 
L 373.174109 182.315058 
L 372.498588 184.278564 
L 371.603441 186.242069 
L 370.487611 188.205574 
L 369.197173 190.16908 
L 367.819899 192.132585 
L 366.469865 194.09609 
L 365.265186 196.059595 
L 364.303906 198.023101 
L 363.643707 199.986606 
L 363.290259 201.950111 
L 363.19688 203.913617 
L 363.275366 205.877122 
L 363.415226 207.840627 
L 363.506655 209.804133 
L 363.46201 211.767638 
L 363.231081 213.731143 
L 362.807128 215.694649 
L 362.222856 217.658154 
L 361.537851 219.621659 
L 360.820911 221.585165 
L 360.13168 223.54867 
L 359.505924 225.512175 
L 358.947624 227.475681 
L 358.429231 229.439186 
L 357.89947 231.402691 
L 357.296347 233.366197 
L 356.562065 235.329702 
L 355.656325 237.293207 
L 354.565146 239.256713 
L 353.303603 241.220218 
L 351.912398 243.183723 
L 350.449699 245.147229 
L 348.980603 247.110734 
L 347.566883 249.074239 
L 346.259125 251.037745 
L 345.092419 253.00125 
L 344.085612 254.964755 
L 343.243291 256.928261 
L 342.559251 258.891766 
L 342.020307 260.855271 
L 341.609641 262.818776 
L 341.309325 264.782282 
L 341.101981 266.745787 
L 340.971664 268.709292 
L 340.90411 270.672798 
L 340.886468 272.636303 
L 340.906689 274.599808 
L 340.952812 276.563314 
L 341.012482 278.526819 
L 341.072995 280.490324 
L 341.122012 282.45383 
L 341.148843 284.417335 
L 341.145955 286.38084 
z
" clip-path="url(#pa5f1e4041a)" style="fill: #2976bb"/>
   </g>
   <g id="patch_3">
    <path d="M 83.909875 221.585165 
L 100.446375 221.585165 
L 100.446375 201.751725 
L 96.31225 197.286786 
L 100.446375 192.821847 
L 100.446375 172.988408 
L 83.909875 172.988408 
L 83.909875 192.821847 
L 88.044 197.286786 
L 83.909875 201.751725 
L 83.909875 221.585165 
z
" clip-path="url(#pa5f1e4041a)" style="fill: #a9a9a9; stroke: #000000; stroke-linejoin: miter"/>
   </g>
   <g id="line2d_17">
    <path d="M 92.178125 221.585165 
L 92.178125 245.883543 
" clip-path="url(#pa5f1e4041a)" style="fill: none; stroke: #000000; stroke-linecap: square"/>
   </g>
   <g id="line2d_18">
    <path d="M 92.178125 172.988408 
L 92.178125 148.69003 
" clip-path="url(#pa5f1e4041a)" style="fill: none; stroke: #000000; stroke-linecap: square"/>
   </g>
   <g id="line2d_19">
    <path d="M 88.044 245.883543 
L 96.31225 245.883543 
" clip-path="url(#pa5f1e4041a)" style="fill: none; stroke: #000000; stroke-linecap: square"/>
   </g>
   <g id="line2d_20">
    <path d="M 88.044 148.69003 
L 96.31225 148.69003 
" clip-path="url(#pa5f1e4041a)" style="fill: none; stroke: #000000; stroke-linecap: square"/>
   </g>
   <g id="line2d_21">
    <defs>
     <path id="ma784c2f90e" d="M 0 2 
C 0.530406 2 1.03916 1.789267 1.414214 1.414214 
C 1.789267 1.03916 2 0.530406 2 0 
C 2 -0.530406 1.789267 -1.03916 1.414214 -1.414214 
C 1.03916 -1.789267 0.530406 -2 0 -2 
C -0.530406 -2 -1.03916 -1.789267 -1.414214 -1.414214 
C -1.789267 -1.03916 -2 -0.530406 -2 0 
C -2 0.530406 -1.789267 1.03916 -1.414214 1.414214 
C -1.03916 1.789267 -0.530406 2 0 2 
z
" style="stroke: #000000"/>
    </defs>
    <g clip-path="url(#pa5f1e4041a)">
     <use xlink:href="#ma784c2f90e" x="92.178125" y="286.38084" style="fill-opacity: 0; stroke: #000000"/>
     <use xlink:href="#ma784c2f90e" x="92.178125" y="286.38084" style="fill-opacity: 0; stroke: #000000"/>
     <use xlink:href="#ma784c2f90e" x="92.178125" y="286.38084" style="fill-opacity: 0; stroke: #000000"/>
     <use xlink:href="#ma784c2f90e" x="92.178125" y="286.38084" style="fill-opacity: 0; stroke: #000000"/>
     <use xlink:href="#ma784c2f90e" x="92.178125" y="270.181921" style="fill-opacity: 0; stroke: #000000"/>
     <use xlink:href="#ma784c2f90e" x="92.178125" y="132.491111" style="fill-opacity: 0; stroke: #000000"/>
     <use xlink:href="#ma784c2f90e" x="92.178125" y="132.491111" style="fill-opacity: 0; stroke: #000000"/>
     <use xlink:href="#ma784c2f90e" x="92.178125" y="132.491111" style="fill-opacity: 0; stroke: #000000"/>
     <use xlink:href="#ma784c2f90e" x="92.178125" y="132.491111" style="fill-opacity: 0; stroke: #000000"/>
     <use xlink:href="#ma784c2f90e" x="92.178125" y="132.491111" style="fill-opacity: 0; stroke: #000000"/>
     <use xlink:href="#ma784c2f90e" x="92.178125" y="132.491111" style="fill-opacity: 0; stroke: #000000"/>
     <use xlink:href="#ma784c2f90e" x="92.178125" y="132.491111" style="fill-opacity: 0; stroke: #000000"/>
    </g>
   </g>
   <g id="patch_4">
    <path d="M 166.592375 205.386246 
L 183.128875 205.386246 
L 183.128875 186.442333 
L 178.99475 181.087867 
L 183.128875 175.733402 
L 183.128875 164.888948 
L 166.592375 164.888948 
L 166.592375 175.733402 
L 170.7265 181.087867 
L 166.592375 186.442333 
L 166.592375 205.386246 
z
" clip-path="url(#pa5f1e4041a)" style="fill: #a9a9a9; stroke: #000000; stroke-linejoin: miter"/>
   </g>
   <g id="line2d_22">
    <path d="M 174.860625 205.386246 
L 174.860625 221.585165 
" clip-path="url(#pa5f1e4041a)" style="fill: none; stroke: #000000; stroke-linecap: square"/>
   </g>
   <g id="line2d_23">
    <path d="M 174.860625 164.888948 
L 174.860625 148.69003 
" clip-path="url(#pa5f1e4041a)" style="fill: none; stroke: #000000; stroke-linecap: square"/>
   </g>
   <g id="line2d_24">
    <path d="M 170.7265 221.585165 
L 178.99475 221.585165 
" clip-path="url(#pa5f1e4041a)" style="fill: none; stroke: #000000; stroke-linecap: square"/>
   </g>
   <g id="line2d_25">
    <path d="M 170.7265 148.69003 
L 178.99475 148.69003 
" clip-path="url(#pa5f1e4041a)" style="fill: none; stroke: #000000; stroke-linecap: square"/>
   </g>
   <g id="line2d_26">
    <g clip-path="url(#pa5f1e4041a)">
     <use xlink:href="#ma784c2f90e" x="174.860625" y="237.784084" style="fill-opacity: 0; stroke: #000000"/>
     <use xlink:href="#ma784c2f90e" x="174.860625" y="237.784084" style="fill-opacity: 0; stroke: #000000"/>
     <use xlink:href="#ma784c2f90e" x="174.860625" y="237.784084" style="fill-opacity: 0; stroke: #000000"/>
     <use xlink:href="#ma784c2f90e" x="174.860625" y="237.784084" style="fill-opacity: 0; stroke: #000000"/>
     <use xlink:href="#ma784c2f90e" x="174.860625" y="237.784084" style="fill-opacity: 0; stroke: #000000"/>
     <use xlink:href="#ma784c2f90e" x="174.860625" y="253.983003" style="fill-opacity: 0; stroke: #000000"/>
     <use xlink:href="#ma784c2f90e" x="174.860625" y="253.983003" style="fill-opacity: 0; stroke: #000000"/>
     <use xlink:href="#ma784c2f90e" x="174.860625" y="253.983003" style="fill-opacity: 0; stroke: #000000"/>
     <use xlink:href="#ma784c2f90e" x="174.860625" y="253.983003" style="fill-opacity: 0; stroke: #000000"/>
     <use xlink:href="#ma784c2f90e" x="174.860625" y="237.784084" style="fill-opacity: 0; stroke: #000000"/>
     <use xlink:href="#ma784c2f90e" x="174.860625" y="237.784084" style="fill-opacity: 0; stroke: #000000"/>
     <use xlink:href="#ma784c2f90e" x="174.860625" y="237.784084" style="fill-opacity: 0; stroke: #000000"/>
     <use xlink:href="#ma784c2f90e" x="174.860625" y="237.784084" style="fill-opacity: 0; stroke: #000000"/>
     <use xlink:href="#ma784c2f90e" x="174.860625" y="237.784084" style="fill-opacity: 0; stroke: #000000"/>
     <use xlink:href="#ma784c2f90e" x="174.860625" y="237.784084" style="fill-opacity: 0; stroke: #000000"/>
     <use xlink:href="#ma784c2f90e" x="174.860625" y="237.784084" style="fill-opacity: 0; stroke: #000000"/>
     <use xlink:href="#ma784c2f90e" x="174.860625" y="237.784084" style="fill-opacity: 0; stroke: #000000"/>
    </g>
   </g>
   <g id="patch_5">
    <path d="M 249.274875 164.888948 
L 265.811375 164.888948 
L 265.811375 156.576252 
L 261.67725 148.69003 
L 265.811375 140.803807 
L 265.811375 124.391651 
L 249.274875 124.391651 
L 249.274875 140.803807 
L 253.409 148.69003 
L 249.274875 156.576252 
L 249.274875 164.888948 
z
" clip-path="url(#pa5f1e4041a)" style="fill: #a9a9a9; stroke: #000000; stroke-linejoin: miter"/>
   </g>
   <g id="line2d_27">
    <path d="M 257.543125 164.888948 
L 257.543125 172.988408 
" clip-path="url(#pa5f1e4041a)" style="fill: none; stroke: #000000; stroke-linecap: square"/>
   </g>
   <g id="line2d_28">
    <path d="M 257.543125 124.391651 
L 257.543125 108.192732 
" clip-path="url(#pa5f1e4041a)" style="fill: none; stroke: #000000; stroke-linecap: square"/>
   </g>
   <g id="line2d_29">
    <path d="M 253.409 172.988408 
L 261.67725 172.988408 
" clip-path="url(#pa5f1e4041a)" style="fill: none; stroke: #000000; stroke-linecap: square"/>
   </g>
   <g id="line2d_30">
    <path d="M 253.409 108.192732 
L 261.67725 108.192732 
" clip-path="url(#pa5f1e4041a)" style="fill: none; stroke: #000000; stroke-linecap: square"/>
   </g>
   <g id="line2d_31">
    <g clip-path="url(#pa5f1e4041a)">
     <use xlink:href="#ma784c2f90e" x="257.543125" y="213.485705" style="fill-opacity: 0; stroke: #000000"/>
     <use xlink:href="#ma784c2f90e" x="257.543125" y="213.485705" style="fill-opacity: 0; stroke: #000000"/>
     <use xlink:href="#ma784c2f90e" x="257.543125" y="213.485705" style="fill-opacity: 0; stroke: #000000"/>
     <use xlink:href="#ma784c2f90e" x="257.543125" y="213.485705" style="fill-opacity: 0; stroke: #000000"/>
     <use xlink:href="#ma784c2f90e" x="257.543125" y="213.485705" style="fill-opacity: 0; stroke: #000000"/>
     <use xlink:href="#ma784c2f90e" x="257.543125" y="91.993813" style="fill-opacity: 0; stroke: #000000"/>
     <use xlink:href="#ma784c2f90e" x="257.543125" y="91.993813" style="fill-opacity: 0; stroke: #000000"/>
     <use xlink:href="#ma784c2f90e" x="257.543125" y="91.993813" style="fill-opacity: 0; stroke: #000000"/>
     <use xlink:href="#ma784c2f90e" x="257.543125" y="91.993813" style="fill-opacity: 0; stroke: #000000"/>
    </g>
   </g>
   <g id="patch_6">
    <path d="M 331.957375 213.485705 
L 348.493875 213.485705 
L 348.493875 184.656966 
L 344.35975 181.087867 
L 348.493875 177.518769 
L 348.493875 156.789489 
L 331.957375 156.789489 
L 331.957375 177.518769 
L 336.0915 181.087867 
L 331.957375 184.656966 
L 331.957375 213.485705 
z
" clip-path="url(#pa5f1e4041a)" style="fill: #a9a9a9; stroke: #000000; stroke-linejoin: miter"/>
   </g>
   <g id="line2d_32">
    <path d="M 340.225625 213.485705 
L 340.225625 237.784084 
" clip-path="url(#pa5f1e4041a)" style="fill: none; stroke: #000000; stroke-linecap: square"/>
   </g>
   <g id="line2d_33">
    <path d="M 340.225625 156.789489 
L 340.225625 132.491111 
" clip-path="url(#pa5f1e4041a)" style="fill: none; stroke: #000000; stroke-linecap: square"/>
   </g>
   <g id="line2d_34">
    <path d="M 336.0915 237.784084 
L 344.35975 237.784084 
" clip-path="url(#pa5f1e4041a)" style="fill: none; stroke: #000000; stroke-linecap: square"/>
   </g>
   <g id="line2d_35">
    <path d="M 336.0915 132.491111 
L 344.35975 132.491111 
" clip-path="url(#pa5f1e4041a)" style="fill: none; stroke: #000000; stroke-linecap: square"/>
   </g>
   <g id="line2d_36">
    <g clip-path="url(#pa5f1e4041a)">
     <use xlink:href="#ma784c2f90e" x="340.225625" y="245.883543" style="fill-opacity: 0; stroke: #000000"/>
     <use xlink:href="#ma784c2f90e" x="340.225625" y="245.883543" style="fill-opacity: 0; stroke: #000000"/>
     <use xlink:href="#ma784c2f90e" x="340.225625" y="245.883543" style="fill-opacity: 0; stroke: #000000"/>
     <use xlink:href="#ma784c2f90e" x="340.225625" y="245.883543" style="fill-opacity: 0; stroke: #000000"/>
     <use xlink:href="#ma784c2f90e" x="340.225625" y="253.983003" style="fill-opacity: 0; stroke: #000000"/>
     <use xlink:href="#ma784c2f90e" x="340.225625" y="253.983003" style="fill-opacity: 0; stroke: #000000"/>
     <use xlink:href="#ma784c2f90e" x="340.225625" y="253.983003" style="fill-opacity: 0; stroke: #000000"/>
     <use xlink:href="#ma784c2f90e" x="340.225625" y="253.983003" style="fill-opacity: 0; stroke: #000000"/>
     <use xlink:href="#ma784c2f90e" x="340.225625" y="245.883543" style="fill-opacity: 0; stroke: #000000"/>
     <use xlink:href="#ma784c2f90e" x="340.225625" y="245.883543" style="fill-opacity: 0; stroke: #000000"/>
     <use xlink:href="#ma784c2f90e" x="340.225625" y="245.883543" style="fill-opacity: 0; stroke: #000000"/>
     <use xlink:href="#ma784c2f90e" x="340.225625" y="245.883543" style="fill-opacity: 0; stroke: #000000"/>
     <use xlink:href="#ma784c2f90e" x="340.225625" y="245.883543" style="fill-opacity: 0; stroke: #000000"/>
     <use xlink:href="#ma784c2f90e" x="340.225625" y="245.883543" style="fill-opacity: 0; stroke: #000000"/>
     <use xlink:href="#ma784c2f90e" x="340.225625" y="286.38084" style="fill-opacity: 0; stroke: #000000"/>
     <use xlink:href="#ma784c2f90e" x="340.225625" y="286.38084" style="fill-opacity: 0; stroke: #000000"/>
     <use xlink:href="#ma784c2f90e" x="340.225625" y="286.38084" style="fill-opacity: 0; stroke: #000000"/>
     <use xlink:href="#ma784c2f90e" x="340.225625" y="286.38084" style="fill-opacity: 0; stroke: #000000"/>
     <use xlink:href="#ma784c2f90e" x="340.225625" y="270.181921" style="fill-opacity: 0; stroke: #000000"/>
     <use xlink:href="#ma784c2f90e" x="340.225625" y="108.192732" style="fill-opacity: 0; stroke: #000000"/>
     <use xlink:href="#ma784c2f90e" x="340.225625" y="108.192732" style="fill-opacity: 0; stroke: #000000"/>
     <use xlink:href="#ma784c2f90e" x="340.225625" y="108.192732" style="fill-opacity: 0; stroke: #000000"/>
     <use xlink:href="#ma784c2f90e" x="340.225625" y="91.993813" style="fill-opacity: 0; stroke: #000000"/>
     <use xlink:href="#ma784c2f90e" x="340.225625" y="91.993813" style="fill-opacity: 0; stroke: #000000"/>
     <use xlink:href="#ma784c2f90e" x="340.225625" y="91.993813" style="fill-opacity: 0; stroke: #000000"/>
     <use xlink:href="#ma784c2f90e" x="340.225625" y="91.993813" style="fill-opacity: 0; stroke: #000000"/>
     <use xlink:href="#ma784c2f90e" x="340.225625" y="124.391651" style="fill-opacity: 0; stroke: #000000"/>
     <use xlink:href="#ma784c2f90e" x="340.225625" y="124.391651" style="fill-opacity: 0; stroke: #000000"/>
     <use xlink:href="#ma784c2f90e" x="340.225625" y="124.391651" style="fill-opacity: 0; stroke: #000000"/>
     <use xlink:href="#ma784c2f90e" x="340.225625" y="124.391651" style="fill-opacity: 0; stroke: #000000"/>
     <use xlink:href="#ma784c2f90e" x="340.225625" y="124.391651" style="fill-opacity: 0; stroke: #000000"/>
     <use xlink:href="#ma784c2f90e" x="340.225625" y="124.391651" style="fill-opacity: 0; stroke: #000000"/>
     <use xlink:href="#ma784c2f90e" x="340.225625" y="124.391651" style="fill-opacity: 0; stroke: #000000"/>
     <use xlink:href="#ma784c2f90e" x="340.225625" y="124.391651" style="fill-opacity: 0; stroke: #000000"/>
     <use xlink:href="#ma784c2f90e" x="340.225625" y="124.391651" style="fill-opacity: 0; stroke: #000000"/>
     <use xlink:href="#ma784c2f90e" x="340.225625" y="124.391651" style="fill-opacity: 0; stroke: #000000"/>
     <use xlink:href="#ma784c2f90e" x="340.225625" y="124.391651" style="fill-opacity: 0; stroke: #000000"/>
     <use xlink:href="#ma784c2f90e" x="340.225625" y="124.391651" style="fill-opacity: 0; stroke: #000000"/>
     <use xlink:href="#ma784c2f90e" x="340.225625" y="124.391651" style="fill-opacity: 0; stroke: #000000"/>
    </g>
   </g>
   <g id="line2d_37">
    <path d="M 88.044 197.286786 
L 96.31225 197.286786 
" clip-path="url(#pa5f1e4041a)" style="fill: none; stroke: #000000; stroke-width: 2; stroke-linecap: square"/>
   </g>
   <g id="line2d_38">
    <path d="M 170.7265 181.087867 
L 178.99475 181.087867 
" clip-path="url(#pa5f1e4041a)" style="fill: none; stroke: #000000; stroke-width: 2; stroke-linecap: square"/>
   </g>
   <g id="line2d_39">
    <path d="M 253.409 148.69003 
L 261.67725 148.69003 
" clip-path="url(#pa5f1e4041a)" style="fill: none; stroke: #000000; stroke-width: 2; stroke-linecap: square"/>
   </g>
   <g id="line2d_40">
    <path d="M 336.0915 181.087867 
L 344.35975 181.087867 
" clip-path="url(#pa5f1e4041a)" style="fill: none; stroke: #000000; stroke-width: 2; stroke-linecap: square"/>
   </g>
   <g id="patch_7">
    <path d="M 50.836875 310.679219 
L 50.836875 10.999219 
" style="fill: none; stroke: #000000; stroke-width: 0.8; stroke-linejoin: miter; stroke-linecap: square"/>
   </g>
   <g id="patch_8">
    <path d="M 381.566875 310.679219 
L 381.566875 10.999219 
" style="fill: none; stroke: #000000; stroke-width: 0.8; stroke-linejoin: miter; stroke-linecap: square"/>
   </g>
   <g id="patch_9">
    <path d="M 50.836875 310.679219 
L 381.566875 310.679219 
" style="fill: none; stroke: #000000; stroke-width: 0.8; stroke-linejoin: miter; stroke-linecap: square"/>
   </g>
   <g id="patch_10">
    <path d="M 50.836875 10.999219 
L 381.566875 10.999219 
" style="fill: none; stroke: #000000; stroke-width: 0.8; stroke-linejoin: miter; stroke-linecap: square"/>
   </g>
   <g id="PathCollection_1">
    <defs>
     <path id="m126e0809e4" d="M 0 4.472136 
C 1.186024 4.472136 2.323632 4.000923 3.162278 3.162278 
C 4.000923 2.323632 4.472136 1.186024 4.472136 0 
C 4.472136 -1.186024 4.000923 -2.323632 3.162278 -3.162278 
C 2.323632 -4.000923 1.186024 -4.472136 0 -4.472136 
C -1.186024 -4.472136 -2.323632 -4.000923 -3.162278 -3.162278 
C -4.000923 -2.323632 -4.472136 -1.186024 -4.472136 0 
C -4.472136 1.186024 -4.000923 2.323632 -3.162278 3.162278 
C -2.323632 4.000923 -1.186024 4.472136 0 4.472136 
z
" style="stroke: #000000; stroke-width: 1.5"/>
    </defs>
    <g clip-path="url(#pa5f1e4041a)">
     <use xlink:href="#m126e0809e4" x="92.178125" y="164.888948" style="fill: #ffffff; stroke: #000000; stroke-width: 1.5"/>
     <use xlink:href="#m126e0809e4" x="174.860625" y="128.441381" style="fill: #ffffff; stroke: #000000; stroke-width: 1.5"/>
     <use xlink:href="#m126e0809e4" x="257.543125" y="132.491111" style="fill: #ffffff; stroke: #000000; stroke-width: 1.5"/>
     <use xlink:href="#m126e0809e4" x="340.225625" y="128.441381" style="fill: #ffffff; stroke: #000000; stroke-width: 1.5"/>
    </g>
   </g>
  </g>
 </g>
 <defs>
  <clipPath id="pa5f1e4041a">
   <rect x="50.836875" y="10.999219" width="330.73" height="299.68"/>
  </clipPath>
 </defs>
</svg>
