<?xml version="1.0" encoding="utf-8" standalone="no"?>
<!DOCTYPE svg PUBLIC "-//W3C//DTD SVG 1.1//EN"
  "http://www.w3.org/Graphics/SVG/1.1/DTD/svg11.dtd">
<svg xmlns:xlink="http://www.w3.org/1999/xlink" width="424.766875pt" height="424.106719pt" viewBox="0 0 424.766875 424.106719" xmlns="http://www.w3.org/2000/svg" version="1.1">
 <metadata>
  <rdf:RDF xmlns:dc="http://purl.org/dc/elements/1.1/" xmlns:cc="http://creativecommons.org/ns#" xmlns:rdf="http://www.w3.org/1999/02/22-rdf-syntax-ns#">
   <cc:Work>
    <dc:type rdf:resource="http://purl.org/dc/dcmitype/StillImage"/>
    <dc:date>2024-04-17T11:51:13.215061</dc:date>
    <dc:format>image/svg+xml</dc:format>
    <dc:creator>
     <cc:Agent>
      <dc:title>Matplotlib v3.6.2, https://matplotlib.org/</dc:title>
     </cc:Agent>
    </dc:creator>
   </cc:Work>
  </rdf:RDF>
 </metadata>
 <defs>
  <style type="text/css">*{stroke-linejoin: round; stroke-linecap: butt}</style>
 </defs>
 <g id="figure_1">
  <g id="patch_1">
   <path d="M 0 424.106719 
L 424.766875 424.106719 
L 424.766875 0 
L 0 0 
z
" style="fill: #ffffff"/>
  </g>
  <g id="axes_1">
   <g id="patch_2">
    <path d="M 50.836875 382.679219 
L 417.566875 382.679219 
L 417.566875 10.999219 
L 50.836875 10.999219 
z
" style="fill: #ffffff"/>
   </g>
   <g id="matplotlib.axis_1">
    <g id="xtick_1">
     <g id="line2d_1">
      <defs>
       <path id="mf1b4347b9a" d="M 0 0 
L 0 3.5 
" style="stroke: #000000; stroke-width: 0.8"/>
      </defs>
      <g>
       <use xlink:href="#mf1b4347b9a" x="50.836875" y="382.679219" style="stroke: #000000; stroke-width: 0.8"/>
      </g>
     </g>
     <g id="text_1">
      <!-- 0 -->
      <g transform="translate(47.655625 397.277656) scale(0.1 -0.1)">
       <defs>
        <path id="DejaVuSans-30" d="M 2034 4250 
Q 1547 4250 1301 3770 
Q 1056 3291 1056 2328 
Q 1056 1369 1301 889 
Q 1547 409 2034 409 
Q 2525 409 2770 889 
Q 3016 1369 3016 2328 
Q 3016 3291 2770 3770 
Q 2525 4250 2034 4250 
z
M 2034 4750 
Q 2819 4750 3233 4129 
Q 3647 3509 3647 2328 
Q 3647 1150 3233 529 
Q 2819 -91 2034 -91 
Q 1250 -91 836 529 
Q 422 1150 422 2328 
Q 422 3509 836 4129 
Q 1250 4750 2034 4750 
z
" transform="scale(0.015625)"/>
       </defs>
       <use xlink:href="#DejaVuSans-30"/>
      </g>
     </g>
    </g>
    <g id="xtick_2">
     <g id="line2d_2">
      <g>
       <use xlink:href="#mf1b4347b9a" x="130.560788" y="382.679219" style="stroke: #000000; stroke-width: 0.8"/>
      </g>
     </g>
     <g id="text_2">
      <!-- 20 -->
      <g transform="translate(124.198288 397.277656) scale(0.1 -0.1)">
       <defs>
        <path id="DejaVuSans-32" d="M 1228 531 
L 3431 531 
L 3431 0 
L 469 0 
L 469 531 
Q 828 903 1448 1529 
Q 2069 2156 2228 2338 
Q 2531 2678 2651 2914 
Q 2772 3150 2772 3378 
Q 2772 3750 2511 3984 
Q 2250 4219 1831 4219 
Q 1534 4219 1204 4116 
Q 875 4013 500 3803 
L 500 4441 
Q 881 4594 1212 4672 
Q 1544 4750 1819 4750 
Q 2544 4750 2975 4387 
Q 3406 4025 3406 3419 
Q 3406 3131 3298 2873 
Q 3191 2616 2906 2266 
Q 2828 2175 2409 1742 
Q 1991 1309 1228 531 
z
" transform="scale(0.015625)"/>
       </defs>
       <use xlink:href="#DejaVuSans-32"/>
       <use xlink:href="#DejaVuSans-30" x="63.623047"/>
      </g>
     </g>
    </g>
    <g id="xtick_3">
     <g id="line2d_3">
      <g>
       <use xlink:href="#mf1b4347b9a" x="210.284701" y="382.679219" style="stroke: #000000; stroke-width: 0.8"/>
      </g>
     </g>
     <g id="text_3">
      <!-- 40 -->
      <g transform="translate(203.922201 397.277656) scale(0.1 -0.1)">
       <defs>
        <path id="DejaVuSans-34" d="M 2419 4116 
L 825 1625 
L 2419 1625 
L 2419 4116 
z
M 2253 4666 
L 3047 4666 
L 3047 1625 
L 3713 1625 
L 3713 1100 
L 3047 1100 
L 3047 0 
L 2419 0 
L 2419 1100 
L 313 1100 
L 313 1709 
L 2253 4666 
z
" transform="scale(0.015625)"/>
       </defs>
       <use xlink:href="#DejaVuSans-34"/>
       <use xlink:href="#DejaVuSans-30" x="63.623047"/>
      </g>
     </g>
    </g>
    <g id="xtick_4">
     <g id="line2d_4">
      <g>
       <use xlink:href="#mf1b4347b9a" x="290.008614" y="382.679219" style="stroke: #000000; stroke-width: 0.8"/>
      </g>
     </g>
     <g id="text_4">
      <!-- 60 -->
      <g transform="translate(283.646114 397.277656) scale(0.1 -0.1)">
       <defs>
        <path id="DejaVuSans-36" d="M 2113 2584 
Q 1688 2584 1439 2293 
Q 1191 2003 1191 1497 
Q 1191 994 1439 701 
Q 1688 409 2113 409 
Q 2538 409 2786 701 
Q 3034 994 3034 1497 
Q 3034 2003 2786 2293 
Q 2538 2584 2113 2584 
z
M 3366 4563 
L 3366 3988 
Q 3128 4100 2886 4159 
Q 2644 4219 2406 4219 
Q 1781 4219 1451 3797 
Q 1122 3375 1075 2522 
Q 1259 2794 1537 2939 
Q 1816 3084 2150 3084 
Q 2853 3084 3261 2657 
Q 3669 2231 3669 1497 
Q 3669 778 3244 343 
Q 2819 -91 2113 -91 
Q 1303 -91 875 529 
Q 447 1150 447 2328 
Q 447 3434 972 4092 
Q 1497 4750 2381 4750 
Q 2619 4750 2861 4703 
Q 3103 4656 3366 4563 
z
" transform="scale(0.015625)"/>
       </defs>
       <use xlink:href="#DejaVuSans-36"/>
       <use xlink:href="#DejaVuSans-30" x="63.623047"/>
      </g>
     </g>
    </g>
    <g id="xtick_5">
     <g id="line2d_5">
      <g>
       <use xlink:href="#mf1b4347b9a" x="369.732527" y="382.679219" style="stroke: #000000; stroke-width: 0.8"/>
      </g>
     </g>
     <g id="text_5">
      <!-- 80 -->
      <g transform="translate(363.370027 397.277656) scale(0.1 -0.1)">
       <defs>
        <path id="DejaVuSans-38" d="M 2034 2216 
Q 1584 2216 1326 1975 
Q 1069 1734 1069 1313 
Q 1069 891 1326 650 
Q 1584 409 2034 409 
Q 2484 409 2743 651 
Q 3003 894 3003 1313 
Q 3003 1734 2745 1975 
Q 2488 2216 2034 2216 
z
M 1403 2484 
Q 997 2584 770 2862 
Q 544 3141 544 3541 
Q 544 4100 942 4425 
Q 1341 4750 2034 4750 
Q 2731 4750 3128 4425 
Q 3525 4100 3525 3541 
Q 3525 3141 3298 2862 
Q 3072 2584 2669 2484 
Q 3125 2378 3379 2068 
Q 3634 1759 3634 1313 
Q 3634 634 3220 271 
Q 2806 -91 2034 -91 
Q 1263 -91 848 271 
Q 434 634 434 1313 
Q 434 1759 690 2068 
Q 947 2378 1403 2484 
z
M 1172 3481 
Q 1172 3119 1398 2916 
Q 1625 2713 2034 2713 
Q 2441 2713 2670 2916 
Q 2900 3119 2900 3481 
Q 2900 3844 2670 4047 
Q 2441 4250 2034 4250 
Q 1625 4250 1398 4047 
Q 1172 3844 1172 3481 
z
" transform="scale(0.015625)"/>
       </defs>
       <use xlink:href="#DejaVuSans-38"/>
       <use xlink:href="#DejaVuSans-30" x="63.623047"/>
      </g>
     </g>
    </g>
    <g id="text_6">
     <!-- Number of participants -->
     <g transform="translate(153.230469 413.995156) scale(0.14 -0.14)">
      <defs>
       <path id="DejaVuSans-4e" d="M 628 4666 
L 1478 4666 
L 3547 763 
L 3547 4666 
L 4159 4666 
L 4159 0 
L 3309 0 
L 1241 3903 
L 1241 0 
L 628 0 
L 628 4666 
z
" transform="scale(0.015625)"/>
       <path id="DejaVuSans-75" d="M 544 1381 
L 544 3500 
L 1119 3500 
L 1119 1403 
Q 1119 906 1312 657 
Q 1506 409 1894 409 
Q 2359 409 2629 706 
Q 2900 1003 2900 1516 
L 2900 3500 
L 3475 3500 
L 3475 0 
L 2900 0 
L 2900 538 
Q 2691 219 2414 64 
Q 2138 -91 1772 -91 
Q 1169 -91 856 284 
Q 544 659 544 1381 
z
M 1991 3584 
L 1991 3584 
z
" transform="scale(0.015625)"/>
       <path id="DejaVuSans-6d" d="M 3328 2828 
Q 3544 3216 3844 3400 
Q 4144 3584 4550 3584 
Q 5097 3584 5394 3201 
Q 5691 2819 5691 2113 
L 5691 0 
L 5113 0 
L 5113 2094 
Q 5113 2597 4934 2840 
Q 4756 3084 4391 3084 
Q 3944 3084 3684 2787 
Q 3425 2491 3425 1978 
L 3425 0 
L 2847 0 
L 2847 2094 
Q 2847 2600 2669 2842 
Q 2491 3084 2119 3084 
Q 1678 3084 1418 2786 
Q 1159 2488 1159 1978 
L 1159 0 
L 581 0 
L 581 3500 
L 1159 3500 
L 1159 2956 
Q 1356 3278 1631 3431 
Q 1906 3584 2284 3584 
Q 2666 3584 2933 3390 
Q 3200 3197 3328 2828 
z
" transform="scale(0.015625)"/>
       <path id="DejaVuSans-62" d="M 3116 1747 
Q 3116 2381 2855 2742 
Q 2594 3103 2138 3103 
Q 1681 3103 1420 2742 
Q 1159 2381 1159 1747 
Q 1159 1113 1420 752 
Q 1681 391 2138 391 
Q 2594 391 2855 752 
Q 3116 1113 3116 1747 
z
M 1159 2969 
Q 1341 3281 1617 3432 
Q 1894 3584 2278 3584 
Q 2916 3584 3314 3078 
Q 3713 2572 3713 1747 
Q 3713 922 3314 415 
Q 2916 -91 2278 -91 
Q 1894 -91 1617 61 
Q 1341 213 1159 525 
L 1159 0 
L 581 0 
L 581 4863 
L 1159 4863 
L 1159 2969 
z
" transform="scale(0.015625)"/>
       <path id="DejaVuSans-65" d="M 3597 1894 
L 3597 1613 
L 953 1613 
Q 991 1019 1311 708 
Q 1631 397 2203 397 
Q 2534 397 2845 478 
Q 3156 559 3463 722 
L 3463 178 
Q 3153 47 2828 -22 
Q 2503 -91 2169 -91 
Q 1331 -91 842 396 
Q 353 884 353 1716 
Q 353 2575 817 3079 
Q 1281 3584 2069 3584 
Q 2775 3584 3186 3129 
Q 3597 2675 3597 1894 
z
M 3022 2063 
Q 3016 2534 2758 2815 
Q 2500 3097 2075 3097 
Q 1594 3097 1305 2825 
Q 1016 2553 972 2059 
L 3022 2063 
z
" transform="scale(0.015625)"/>
       <path id="DejaVuSans-72" d="M 2631 2963 
Q 2534 3019 2420 3045 
Q 2306 3072 2169 3072 
Q 1681 3072 1420 2755 
Q 1159 2438 1159 1844 
L 1159 0 
L 581 0 
L 581 3500 
L 1159 3500 
L 1159 2956 
Q 1341 3275 1631 3429 
Q 1922 3584 2338 3584 
Q 2397 3584 2469 3576 
Q 2541 3569 2628 3553 
L 2631 2963 
z
" transform="scale(0.015625)"/>
       <path id="DejaVuSans-20" transform="scale(0.015625)"/>
       <path id="DejaVuSans-6f" d="M 1959 3097 
Q 1497 3097 1228 2736 
Q 959 2375 959 1747 
Q 959 1119 1226 758 
Q 1494 397 1959 397 
Q 2419 397 2687 759 
Q 2956 1122 2956 1747 
Q 2956 2369 2687 2733 
Q 2419 3097 1959 3097 
z
M 1959 3584 
Q 2709 3584 3137 3096 
Q 3566 2609 3566 1747 
Q 3566 888 3137 398 
Q 2709 -91 1959 -91 
Q 1206 -91 779 398 
Q 353 888 353 1747 
Q 353 2609 779 3096 
Q 1206 3584 1959 3584 
z
" transform="scale(0.015625)"/>
       <path id="DejaVuSans-66" d="M 2375 4863 
L 2375 4384 
L 1825 4384 
Q 1516 4384 1395 4259 
Q 1275 4134 1275 3809 
L 1275 3500 
L 2222 3500 
L 2222 3053 
L 1275 3053 
L 1275 0 
L 697 0 
L 697 3053 
L 147 3053 
L 147 3500 
L 697 3500 
L 697 3744 
Q 697 4328 969 4595 
Q 1241 4863 1831 4863 
L 2375 4863 
z
" transform="scale(0.015625)"/>
       <path id="DejaVuSans-70" d="M 1159 525 
L 1159 -1331 
L 581 -1331 
L 581 3500 
L 1159 3500 
L 1159 2969 
Q 1341 3281 1617 3432 
Q 1894 3584 2278 3584 
Q 2916 3584 3314 3078 
Q 3713 2572 3713 1747 
Q 3713 922 3314 415 
Q 2916 -91 2278 -91 
Q 1894 -91 1617 61 
Q 1341 213 1159 525 
z
M 3116 1747 
Q 3116 2381 2855 2742 
Q 2594 3103 2138 3103 
Q 1681 3103 1420 2742 
Q 1159 2381 1159 1747 
Q 1159 1113 1420 752 
Q 1681 391 2138 391 
Q 2594 391 2855 752 
Q 3116 1113 3116 1747 
z
" transform="scale(0.015625)"/>
       <path id="DejaVuSans-61" d="M 2194 1759 
Q 1497 1759 1228 1600 
Q 959 1441 959 1056 
Q 959 750 1161 570 
Q 1363 391 1709 391 
Q 2188 391 2477 730 
Q 2766 1069 2766 1631 
L 2766 1759 
L 2194 1759 
z
M 3341 1997 
L 3341 0 
L 2766 0 
L 2766 531 
Q 2569 213 2275 61 
Q 1981 -91 1556 -91 
Q 1019 -91 701 211 
Q 384 513 384 1019 
Q 384 1609 779 1909 
Q 1175 2209 1959 2209 
L 2766 2209 
L 2766 2266 
Q 2766 2663 2505 2880 
Q 2244 3097 1772 3097 
Q 1472 3097 1187 3025 
Q 903 2953 641 2809 
L 641 3341 
Q 956 3463 1253 3523 
Q 1550 3584 1831 3584 
Q 2591 3584 2966 3190 
Q 3341 2797 3341 1997 
z
" transform="scale(0.015625)"/>
       <path id="DejaVuSans-74" d="M 1172 4494 
L 1172 3500 
L 2356 3500 
L 2356 3053 
L 1172 3053 
L 1172 1153 
Q 1172 725 1289 603 
Q 1406 481 1766 481 
L 2356 481 
L 2356 0 
L 1766 0 
Q 1100 0 847 248 
Q 594 497 594 1153 
L 594 3053 
L 172 3053 
L 172 3500 
L 594 3500 
L 594 4494 
L 1172 4494 
z
" transform="scale(0.015625)"/>
       <path id="DejaVuSans-69" d="M 603 3500 
L 1178 3500 
L 1178 0 
L 603 0 
L 603 3500 
z
M 603 4863 
L 1178 4863 
L 1178 4134 
L 603 4134 
L 603 4863 
z
" transform="scale(0.015625)"/>
       <path id="DejaVuSans-63" d="M 3122 3366 
L 3122 2828 
Q 2878 2963 2633 3030 
Q 2388 3097 2138 3097 
Q 1578 3097 1268 2742 
Q 959 2388 959 1747 
Q 959 1106 1268 751 
Q 1578 397 2138 397 
Q 2388 397 2633 464 
Q 2878 531 3122 666 
L 3122 134 
Q 2881 22 2623 -34 
Q 2366 -91 2075 -91 
Q 1284 -91 818 406 
Q 353 903 353 1747 
Q 353 2603 823 3093 
Q 1294 3584 2113 3584 
Q 2378 3584 2631 3529 
Q 2884 3475 3122 3366 
z
" transform="scale(0.015625)"/>
       <path id="DejaVuSans-6e" d="M 3513 2113 
L 3513 0 
L 2938 0 
L 2938 2094 
Q 2938 2591 2744 2837 
Q 2550 3084 2163 3084 
Q 1697 3084 1428 2787 
Q 1159 2491 1159 1978 
L 1159 0 
L 581 0 
L 581 3500 
L 1159 3500 
L 1159 2956 
Q 1366 3272 1645 3428 
Q 1925 3584 2291 3584 
Q 2894 3584 3203 3211 
Q 3513 2838 3513 2113 
z
" transform="scale(0.015625)"/>
       <path id="DejaVuSans-73" d="M 2834 3397 
L 2834 2853 
Q 2591 2978 2328 3040 
Q 2066 3103 1784 3103 
Q 1356 3103 1142 2972 
Q 928 2841 928 2578 
Q 928 2378 1081 2264 
Q 1234 2150 1697 2047 
L 1894 2003 
Q 2506 1872 2764 1633 
Q 3022 1394 3022 966 
Q 3022 478 2636 193 
Q 2250 -91 1575 -91 
Q 1294 -91 989 -36 
Q 684 19 347 128 
L 347 722 
Q 666 556 975 473 
Q 1284 391 1588 391 
Q 1994 391 2212 530 
Q 2431 669 2431 922 
Q 2431 1156 2273 1281 
Q 2116 1406 1581 1522 
L 1381 1569 
Q 847 1681 609 1914 
Q 372 2147 372 2553 
Q 372 3047 722 3315 
Q 1072 3584 1716 3584 
Q 2034 3584 2315 3537 
Q 2597 3491 2834 3397 
z
" transform="scale(0.015625)"/>
      </defs>
      <use xlink:href="#DejaVuSans-4e"/>
      <use xlink:href="#DejaVuSans-75" x="74.804688"/>
      <use xlink:href="#DejaVuSans-6d" x="138.183594"/>
      <use xlink:href="#DejaVuSans-62" x="235.595703"/>
      <use xlink:href="#DejaVuSans-65" x="299.072266"/>
      <use xlink:href="#DejaVuSans-72" x="360.595703"/>
      <use xlink:href="#DejaVuSans-20" x="401.708984"/>
      <use xlink:href="#DejaVuSans-6f" x="433.496094"/>
      <use xlink:href="#DejaVuSans-66" x="494.677734"/>
      <use xlink:href="#DejaVuSans-20" x="529.882812"/>
      <use xlink:href="#DejaVuSans-70" x="561.669922"/>
      <use xlink:href="#DejaVuSans-61" x="625.146484"/>
      <use xlink:href="#DejaVuSans-72" x="686.425781"/>
      <use xlink:href="#DejaVuSans-74" x="727.539062"/>
      <use xlink:href="#DejaVuSans-69" x="766.748047"/>
      <use xlink:href="#DejaVuSans-63" x="794.53125"/>
      <use xlink:href="#DejaVuSans-69" x="849.511719"/>
      <use xlink:href="#DejaVuSans-70" x="877.294922"/>
      <use xlink:href="#DejaVuSans-61" x="940.771484"/>
      <use xlink:href="#DejaVuSans-6e" x="1002.050781"/>
      <use xlink:href="#DejaVuSans-74" x="1065.429688"/>
      <use xlink:href="#DejaVuSans-73" x="1104.638672"/>
     </g>
    </g>
   </g>
   <g id="matplotlib.axis_2">
    <g id="ytick_1">
     <g id="line2d_6">
      <path d="M 50.836875 382.679219 
L 417.566875 382.679219 
" clip-path="url(#p85293b7ed4)" style="fill: none; stroke-dasharray: 2.96,1.28; stroke-dashoffset: 0; stroke: #c0c0c0; stroke-width: 0.8"/>
     </g>
     <g id="line2d_7">
      <defs>
       <path id="m9ce0e91491" d="M 0 0 
L -3.5 0 
" style="stroke: #000000; stroke-width: 0.8"/>
      </defs>
      <g>
       <use xlink:href="#m9ce0e91491" x="50.836875" y="382.679219" style="stroke: #000000; stroke-width: 0.8"/>
      </g>
     </g>
     <g id="text_7">
      <!-- 20 -->
      <g transform="translate(31.111875 386.478437) scale(0.1 -0.1)">
       <use xlink:href="#DejaVuSans-32"/>
       <use xlink:href="#DejaVuSans-30" x="63.623047"/>
      </g>
     </g>
    </g>
    <g id="ytick_2">
     <g id="line2d_8">
      <path d="M 50.836875 336.219219 
L 417.566875 336.219219 
" clip-path="url(#p85293b7ed4)" style="fill: none; stroke-dasharray: 2.96,1.28; stroke-dashoffset: 0; stroke: #c0c0c0; stroke-width: 0.8"/>
     </g>
     <g id="line2d_9">
      <g>
       <use xlink:href="#m9ce0e91491" x="50.836875" y="336.219219" style="stroke: #000000; stroke-width: 0.8"/>
      </g>
     </g>
     <g id="text_8">
      <!-- 30 -->
      <g transform="translate(31.111875 340.018437) scale(0.1 -0.1)">
       <defs>
        <path id="DejaVuSans-33" d="M 2597 2516 
Q 3050 2419 3304 2112 
Q 3559 1806 3559 1356 
Q 3559 666 3084 287 
Q 2609 -91 1734 -91 
Q 1441 -91 1130 -33 
Q 819 25 488 141 
L 488 750 
Q 750 597 1062 519 
Q 1375 441 1716 441 
Q 2309 441 2620 675 
Q 2931 909 2931 1356 
Q 2931 1769 2642 2001 
Q 2353 2234 1838 2234 
L 1294 2234 
L 1294 2753 
L 1863 2753 
Q 2328 2753 2575 2939 
Q 2822 3125 2822 3475 
Q 2822 3834 2567 4026 
Q 2313 4219 1838 4219 
Q 1578 4219 1281 4162 
Q 984 4106 628 3988 
L 628 4550 
Q 988 4650 1302 4700 
Q 1616 4750 1894 4750 
Q 2613 4750 3031 4423 
Q 3450 4097 3450 3541 
Q 3450 3153 3228 2886 
Q 3006 2619 2597 2516 
z
" transform="scale(0.015625)"/>
       </defs>
       <use xlink:href="#DejaVuSans-33"/>
       <use xlink:href="#DejaVuSans-30" x="63.623047"/>
      </g>
     </g>
    </g>
    <g id="ytick_3">
     <g id="line2d_10">
      <path d="M 50.836875 289.759219 
L 417.566875 289.759219 
" clip-path="url(#p85293b7ed4)" style="fill: none; stroke-dasharray: 2.96,1.28; stroke-dashoffset: 0; stroke: #c0c0c0; stroke-width: 0.8"/>
     </g>
     <g id="line2d_11">
      <g>
       <use xlink:href="#m9ce0e91491" x="50.836875" y="289.759219" style="stroke: #000000; stroke-width: 0.8"/>
      </g>
     </g>
     <g id="text_9">
      <!-- 40 -->
      <g transform="translate(31.111875 293.558437) scale(0.1 -0.1)">
       <use xlink:href="#DejaVuSans-34"/>
       <use xlink:href="#DejaVuSans-30" x="63.623047"/>
      </g>
     </g>
    </g>
    <g id="ytick_4">
     <g id="line2d_12">
      <path d="M 50.836875 243.299219 
L 417.566875 243.299219 
" clip-path="url(#p85293b7ed4)" style="fill: none; stroke-dasharray: 2.96,1.28; stroke-dashoffset: 0; stroke: #c0c0c0; stroke-width: 0.8"/>
     </g>
     <g id="line2d_13">
      <g>
       <use xlink:href="#m9ce0e91491" x="50.836875" y="243.299219" style="stroke: #000000; stroke-width: 0.8"/>
      </g>
     </g>
     <g id="text_10">
      <!-- 50 -->
      <g transform="translate(31.111875 247.098437) scale(0.1 -0.1)">
       <defs>
        <path id="DejaVuSans-35" d="M 691 4666 
L 3169 4666 
L 3169 4134 
L 1269 4134 
L 1269 2991 
Q 1406 3038 1543 3061 
Q 1681 3084 1819 3084 
Q 2600 3084 3056 2656 
Q 3513 2228 3513 1497 
Q 3513 744 3044 326 
Q 2575 -91 1722 -91 
Q 1428 -91 1123 -41 
Q 819 9 494 109 
L 494 744 
Q 775 591 1075 516 
Q 1375 441 1709 441 
Q 2250 441 2565 725 
Q 2881 1009 2881 1497 
Q 2881 1984 2565 2268 
Q 2250 2553 1709 2553 
Q 1456 2553 1204 2497 
Q 953 2441 691 2322 
L 691 4666 
z
" transform="scale(0.015625)"/>
       </defs>
       <use xlink:href="#DejaVuSans-35"/>
       <use xlink:href="#DejaVuSans-30" x="63.623047"/>
      </g>
     </g>
    </g>
    <g id="ytick_5">
     <g id="line2d_14">
      <path d="M 50.836875 196.839219 
L 417.566875 196.839219 
" clip-path="url(#p85293b7ed4)" style="fill: none; stroke-dasharray: 2.96,1.28; stroke-dashoffset: 0; stroke: #c0c0c0; stroke-width: 0.8"/>
     </g>
     <g id="line2d_15">
      <g>
       <use xlink:href="#m9ce0e91491" x="50.836875" y="196.839219" style="stroke: #000000; stroke-width: 0.8"/>
      </g>
     </g>
     <g id="text_11">
      <!-- 60 -->
      <g transform="translate(31.111875 200.638437) scale(0.1 -0.1)">
       <use xlink:href="#DejaVuSans-36"/>
       <use xlink:href="#DejaVuSans-30" x="63.623047"/>
      </g>
     </g>
    </g>
    <g id="ytick_6">
     <g id="line2d_16">
      <path d="M 50.836875 150.379219 
L 417.566875 150.379219 
" clip-path="url(#p85293b7ed4)" style="fill: none; stroke-dasharray: 2.96,1.28; stroke-dashoffset: 0; stroke: #c0c0c0; stroke-width: 0.8"/>
     </g>
     <g id="line2d_17">
      <g>
       <use xlink:href="#m9ce0e91491" x="50.836875" y="150.379219" style="stroke: #000000; stroke-width: 0.8"/>
      </g>
     </g>
     <g id="text_12">
      <!-- 70 -->
      <g transform="translate(31.111875 154.178438) scale(0.1 -0.1)">
       <defs>
        <path id="DejaVuSans-37" d="M 525 4666 
L 3525 4666 
L 3525 4397 
L 1831 0 
L 1172 0 
L 2766 4134 
L 525 4134 
L 525 4666 
z
" transform="scale(0.015625)"/>
       </defs>
       <use xlink:href="#DejaVuSans-37"/>
       <use xlink:href="#DejaVuSans-30" x="63.623047"/>
      </g>
     </g>
    </g>
    <g id="ytick_7">
     <g id="line2d_18">
      <path d="M 50.836875 103.919219 
L 417.566875 103.919219 
" clip-path="url(#p85293b7ed4)" style="fill: none; stroke-dasharray: 2.96,1.28; stroke-dashoffset: 0; stroke: #c0c0c0; stroke-width: 0.8"/>
     </g>
     <g id="line2d_19">
      <g>
       <use xlink:href="#m9ce0e91491" x="50.836875" y="103.919219" style="stroke: #000000; stroke-width: 0.8"/>
      </g>
     </g>
     <g id="text_13">
      <!-- 80 -->
      <g transform="translate(31.111875 107.718437) scale(0.1 -0.1)">
       <use xlink:href="#DejaVuSans-38"/>
       <use xlink:href="#DejaVuSans-30" x="63.623047"/>
      </g>
     </g>
    </g>
    <g id="ytick_8">
     <g id="line2d_20">
      <path d="M 50.836875 57.459219 
L 417.566875 57.459219 
" clip-path="url(#p85293b7ed4)" style="fill: none; stroke-dasharray: 2.96,1.28; stroke-dashoffset: 0; stroke: #c0c0c0; stroke-width: 0.8"/>
     </g>
     <g id="line2d_21">
      <g>
       <use xlink:href="#m9ce0e91491" x="50.836875" y="57.459219" style="stroke: #000000; stroke-width: 0.8"/>
      </g>
     </g>
     <g id="text_14">
      <!-- 90 -->
      <g transform="translate(31.111875 61.258438) scale(0.1 -0.1)">
       <defs>
        <path id="DejaVuSans-39" d="M 703 97 
L 703 672 
Q 941 559 1184 500 
Q 1428 441 1663 441 
Q 2288 441 2617 861 
Q 2947 1281 2994 2138 
Q 2813 1869 2534 1725 
Q 2256 1581 1919 1581 
Q 1219 1581 811 2004 
Q 403 2428 403 3163 
Q 403 3881 828 4315 
Q 1253 4750 1959 4750 
Q 2769 4750 3195 4129 
Q 3622 3509 3622 2328 
Q 3622 1225 3098 567 
Q 2575 -91 1691 -91 
Q 1453 -91 1209 -44 
Q 966 3 703 97 
z
M 1959 2075 
Q 2384 2075 2632 2365 
Q 2881 2656 2881 3163 
Q 2881 3666 2632 3958 
Q 2384 4250 1959 4250 
Q 1534 4250 1286 3958 
Q 1038 3666 1038 3163 
Q 1038 2656 1286 2365 
Q 1534 2075 1959 2075 
z
" transform="scale(0.015625)"/>
       </defs>
       <use xlink:href="#DejaVuSans-39"/>
       <use xlink:href="#DejaVuSans-30" x="63.623047"/>
      </g>
     </g>
    </g>
    <g id="ytick_9">
     <g id="line2d_22">
      <path d="M 50.836875 10.999219 
L 417.566875 10.999219 
" clip-path="url(#p85293b7ed4)" style="fill: none; stroke-dasharray: 2.96,1.28; stroke-dashoffset: 0; stroke: #c0c0c0; stroke-width: 0.8"/>
     </g>
     <g id="line2d_23">
      <g>
       <use xlink:href="#m9ce0e91491" x="50.836875" y="10.999219" style="stroke: #000000; stroke-width: 0.8"/>
      </g>
     </g>
     <g id="text_15">
      <!-- 100 -->
      <g transform="translate(24.749375 14.798438) scale(0.1 -0.1)">
       <defs>
        <path id="DejaVuSans-31" d="M 794 531 
L 1825 531 
L 1825 4091 
L 703 3866 
L 703 4441 
L 1819 4666 
L 2450 4666 
L 2450 531 
L 3481 531 
L 3481 0 
L 794 0 
L 794 531 
z
" transform="scale(0.015625)"/>
       </defs>
       <use xlink:href="#DejaVuSans-31"/>
       <use xlink:href="#DejaVuSans-30" x="63.623047"/>
       <use xlink:href="#DejaVuSans-30" x="127.246094"/>
      </g>
     </g>
    </g>
    <g id="text_16">
     <!-- Success Rate (%) -->
     <g transform="translate(17.837812 257.627656) rotate(-90) scale(0.14 -0.14)">
      <defs>
       <path id="DejaVuSans-53" d="M 3425 4513 
L 3425 3897 
Q 3066 4069 2747 4153 
Q 2428 4238 2131 4238 
Q 1616 4238 1336 4038 
Q 1056 3838 1056 3469 
Q 1056 3159 1242 3001 
Q 1428 2844 1947 2747 
L 2328 2669 
Q 3034 2534 3370 2195 
Q 3706 1856 3706 1288 
Q 3706 609 3251 259 
Q 2797 -91 1919 -91 
Q 1588 -91 1214 -16 
Q 841 59 441 206 
L 441 856 
Q 825 641 1194 531 
Q 1563 422 1919 422 
Q 2459 422 2753 634 
Q 3047 847 3047 1241 
Q 3047 1584 2836 1778 
Q 2625 1972 2144 2069 
L 1759 2144 
Q 1053 2284 737 2584 
Q 422 2884 422 3419 
Q 422 4038 858 4394 
Q 1294 4750 2059 4750 
Q 2388 4750 2728 4690 
Q 3069 4631 3425 4513 
z
" transform="scale(0.015625)"/>
       <path id="DejaVuSans-52" d="M 2841 2188 
Q 3044 2119 3236 1894 
Q 3428 1669 3622 1275 
L 4263 0 
L 3584 0 
L 2988 1197 
Q 2756 1666 2539 1819 
Q 2322 1972 1947 1972 
L 1259 1972 
L 1259 0 
L 628 0 
L 628 4666 
L 2053 4666 
Q 2853 4666 3247 4331 
Q 3641 3997 3641 3322 
Q 3641 2881 3436 2590 
Q 3231 2300 2841 2188 
z
M 1259 4147 
L 1259 2491 
L 2053 2491 
Q 2509 2491 2742 2702 
Q 2975 2913 2975 3322 
Q 2975 3731 2742 3939 
Q 2509 4147 2053 4147 
L 1259 4147 
z
" transform="scale(0.015625)"/>
       <path id="DejaVuSans-28" d="M 1984 4856 
Q 1566 4138 1362 3434 
Q 1159 2731 1159 2009 
Q 1159 1288 1364 580 
Q 1569 -128 1984 -844 
L 1484 -844 
Q 1016 -109 783 600 
Q 550 1309 550 2009 
Q 550 2706 781 3412 
Q 1013 4119 1484 4856 
L 1984 4856 
z
" transform="scale(0.015625)"/>
       <path id="DejaVuSans-25" d="M 4653 2053 
Q 4381 2053 4226 1822 
Q 4072 1591 4072 1178 
Q 4072 772 4226 539 
Q 4381 306 4653 306 
Q 4919 306 5073 539 
Q 5228 772 5228 1178 
Q 5228 1588 5073 1820 
Q 4919 2053 4653 2053 
z
M 4653 2450 
Q 5147 2450 5437 2106 
Q 5728 1763 5728 1178 
Q 5728 594 5436 251 
Q 5144 -91 4653 -91 
Q 4153 -91 3862 251 
Q 3572 594 3572 1178 
Q 3572 1766 3864 2108 
Q 4156 2450 4653 2450 
z
M 1428 4353 
Q 1159 4353 1004 4120 
Q 850 3888 850 3481 
Q 850 3069 1003 2837 
Q 1156 2606 1428 2606 
Q 1700 2606 1854 2837 
Q 2009 3069 2009 3481 
Q 2009 3884 1853 4118 
Q 1697 4353 1428 4353 
z
M 4250 4750 
L 4750 4750 
L 1831 -91 
L 1331 -91 
L 4250 4750 
z
M 1428 4750 
Q 1922 4750 2215 4408 
Q 2509 4066 2509 3481 
Q 2509 2891 2217 2550 
Q 1925 2209 1428 2209 
Q 931 2209 642 2551 
Q 353 2894 353 3481 
Q 353 4063 643 4406 
Q 934 4750 1428 4750 
z
" transform="scale(0.015625)"/>
       <path id="DejaVuSans-29" d="M 513 4856 
L 1013 4856 
Q 1481 4119 1714 3412 
Q 1947 2706 1947 2009 
Q 1947 1309 1714 600 
Q 1481 -109 1013 -844 
L 513 -844 
Q 928 -128 1133 580 
Q 1338 1288 1338 2009 
Q 1338 2731 1133 3434 
Q 928 4138 513 4856 
z
" transform="scale(0.015625)"/>
      </defs>
      <use xlink:href="#DejaVuSans-53"/>
      <use xlink:href="#DejaVuSans-75" x="63.476562"/>
      <use xlink:href="#DejaVuSans-63" x="126.855469"/>
      <use xlink:href="#DejaVuSans-63" x="181.835938"/>
      <use xlink:href="#DejaVuSans-65" x="236.816406"/>
      <use xlink:href="#DejaVuSans-73" x="298.339844"/>
      <use xlink:href="#DejaVuSans-73" x="350.439453"/>
      <use xlink:href="#DejaVuSans-20" x="402.539062"/>
      <use xlink:href="#DejaVuSans-52" x="434.326172"/>
      <use xlink:href="#DejaVuSans-61" x="501.558594"/>
      <use xlink:href="#DejaVuSans-74" x="562.837891"/>
      <use xlink:href="#DejaVuSans-65" x="602.046875"/>
      <use xlink:href="#DejaVuSans-20" x="663.570312"/>
      <use xlink:href="#DejaVuSans-28" x="695.357422"/>
      <use xlink:href="#DejaVuSans-25" x="734.371094"/>
      <use xlink:href="#DejaVuSans-29" x="829.390625"/>
     </g>
    </g>
   </g>
   <g id="PolyCollection_1">
    <defs>
     <path id="mb1a8aa2e31" d="M 50.836875 -124.1263 
L 50.836875 -124.1263 
L 54.823071 -135.408678 
L 58.809266 -143.030178 
L 62.795462 -145.011937 
L 66.781658 -144.460262 
L 70.767853 -145.954916 
L 74.754049 -150.082664 
L 78.740245 -154.723003 
L 82.72644 -157.157207 
L 86.712636 -155.777188 
L 90.698832 -155.773223 
L 94.685027 -154.858968 
L 98.671223 -153.657655 
L 102.657418 -154.998677 
L 106.643614 -157.777832 
L 110.62981 -159.194524 
L 114.616005 -160.836068 
L 118.602201 -162.686205 
L 122.588397 -164.322168 
L 126.574592 -165.945475 
L 130.560788 -165.568964 
L 134.546984 -163.877251 
L 138.533179 -163.542029 
L 142.519375 -165.188348 
L 146.505571 -166.024065 
L 150.491766 -164.360919 
L 154.477962 -164.110862 
L 158.464158 -165.648055 
L 162.450353 -165.435189 
L 166.436549 -164.931818 
L 170.422745 -166.397052 
L 174.40894 -168.612181 
L 178.395136 -169.658611 
L 182.381332 -168.882537 
L 186.367527 -167.754392 
L 190.353723 -167.303862 
L 194.339918 -167.952665 
L 198.326114 -169.275323 
L 202.31231 -170.209177 
L 206.298505 -170.697597 
L 210.284701 -170.226407 
L 214.270897 -169.547372 
L 218.257092 -169.164477 
L 222.243288 -169.670549 
L 226.229484 -170.83735 
L 230.215679 -171.85428 
L 234.201875 -171.512022 
L 238.188071 -170.023248 
L 242.174266 -168.630209 
L 246.160462 -167.749581 
L 250.146658 -167.227506 
L 254.132853 -167.45416 
L 258.119049 -168.415247 
L 262.105245 -168.731942 
L 266.09144 -168.454031 
L 270.077636 -168.285072 
L 274.063832 -168.253191 
L 278.050027 -168.25081 
L 282.036223 -168.250743 
L 286.022418 -168.250743 
L 290.008614 -168.250743 
L 293.99481 -168.250743 
L 297.981005 -168.250743 
L 301.967201 -168.250743 
L 305.953397 -168.250743 
L 309.939592 -168.250743 
L 313.925788 -168.250743 
L 317.911984 -168.250743 
L 321.898179 -168.250743 
L 325.884375 -168.250743 
L 329.870571 -168.250743 
L 333.856766 -168.250743 
L 337.842962 -168.250743 
L 341.829158 -168.250743 
L 345.815353 -168.250743 
L 349.801549 -168.250743 
L 353.787745 -168.250743 
L 357.77394 -168.250743 
L 361.760136 -168.250743 
L 365.746332 -168.250743 
L 369.732527 -168.250743 
L 373.718723 -168.250743 
L 377.704918 -168.250743 
L 381.691114 -168.250743 
L 385.67731 -168.250743 
L 389.663505 -168.250743 
L 393.649701 -168.250743 
L 397.635897 -168.250743 
L 401.622092 -168.250743 
L 405.608288 -168.250743 
L 409.594484 -168.250743 
L 413.580679 -168.250743 
L 417.566875 -168.250743 
L 421.553071 -168.250743 
L 421.553071 -168.250743 
L 421.553071 -168.250743 
L 417.566875 -168.250743 
L 413.580679 -168.250743 
L 409.594484 -168.250743 
L 405.608288 -168.250743 
L 401.622092 -168.250743 
L 397.635897 -168.250743 
L 393.649701 -168.250743 
L 389.663505 -168.250743 
L 385.67731 -168.250743 
L 381.691114 -168.250743 
L 377.704918 -168.250743 
L 373.718723 -168.250743 
L 369.732527 -168.250743 
L 365.746332 -168.250743 
L 361.760136 -168.250743 
L 357.77394 -168.250743 
L 353.787745 -168.250743 
L 349.801549 -168.250743 
L 345.815353 -168.250743 
L 341.829158 -168.250743 
L 337.842962 -168.250743 
L 333.856766 -168.250743 
L 329.870571 -168.250743 
L 325.884375 -168.250743 
L 321.898179 -168.250743 
L 317.911984 -168.250743 
L 313.925788 -168.250743 
L 309.939592 -168.250743 
L 305.953397 -168.250743 
L 301.967201 -168.250743 
L 297.981005 -168.250743 
L 293.99481 -168.250743 
L 290.008614 -168.250743 
L 286.022418 -168.250743 
L 282.036223 -168.250743 
L 278.050027 -168.250658 
L 274.063832 -168.247792 
L 270.077636 -168.211247 
L 266.09144 -168.013486 
L 262.105245 -167.34705 
L 258.119049 -165.541879 
L 254.132853 -162.895748 
L 250.146658 -161.233051 
L 246.160462 -160.796579 
L 242.174266 -161.254306 
L 238.188071 -162.355798 
L 234.201875 -163.541823 
L 230.215679 -163.988687 
L 226.229484 -162.906439 
L 222.243288 -161.127256 
L 218.257092 -159.92889 
L 214.270897 -159.771571 
L 210.284701 -160.040964 
L 206.298505 -160.227323 
L 202.31231 -159.806536 
L 198.326114 -159.099322 
L 194.339918 -157.818984 
L 190.353723 -156.721274 
L 186.367527 -156.630818 
L 182.381332 -157.915885 
L 178.395136 -159.344158 
L 174.40894 -158.658961 
L 170.422745 -155.849781 
L 166.436549 -153.728036 
L 162.450353 -153.524351 
L 158.464158 -152.349465 
L 154.477962 -149.858103 
L 150.491766 -150.268588 
L 146.505571 -151.563211 
L 142.519375 -149.723437 
L 138.533179 -147.234225 
L 134.546984 -147.81111 
L 130.560788 -150.39911 
L 126.574592 -150.990953 
L 122.588397 -147.960788 
L 118.602201 -145.077702 
L 114.616005 -142.9147 
L 110.62981 -140.005703 
L 106.643614 -138.431877 
L 102.657418 -137.927815 
L 98.671223 -137.214778 
L 94.685027 -135.226569 
L 90.698832 -133.294849 
L 86.712636 -133.079639 
L 82.72644 -135.444318 
L 78.740245 -134.391279 
L 74.754049 -125.961967 
L 70.767853 -115.88016 
L 66.781658 -113.514974 
L 62.795462 -113.395613 
L 58.809266 -111.324197 
L 54.823071 -114.885923 
L 50.836875 -124.1263 
z
" style="stroke: #8e0052; stroke-opacity: 0.1"/>
    </defs>
    <g clip-path="url(#p85293b7ed4)">
     <use xlink:href="#mb1a8aa2e31" x="0" y="424.106719" style="fill: #8e0052; fill-opacity: 0.1; stroke: #8e0052; stroke-opacity: 0.1"/>
    </g>
   </g>
   <g id="PolyCollection_2">
    <defs>
     <path id="mb536277b51" d="M 50.836875 -174.3031 
L 50.836875 -174.3031 
L 54.823071 -173.849696 
L 58.809266 -177.344456 
L 62.795462 -183.916253 
L 66.781658 -190.103137 
L 70.767853 -198.619252 
L 74.754049 -206.888705 
L 78.740245 -214.187998 
L 82.72644 -215.71175 
L 86.712636 -211.998835 
L 90.698832 -211.49982 
L 94.685027 -214.155737 
L 98.671223 -217.830445 
L 102.657418 -221.155535 
L 106.643614 -222.894004 
L 110.62981 -224.019053 
L 114.616005 -224.727009 
L 118.602201 -224.531646 
L 122.588397 -223.171112 
L 126.574592 -221.466388 
L 130.560788 -220.464515 
L 134.546984 -221.791341 
L 138.533179 -223.557857 
L 142.519375 -224.345234 
L 146.505571 -224.703066 
L 150.491766 -224.71402 
L 154.477962 -224.138583 
L 158.464158 -223.441651 
L 162.450353 -223.039139 
L 166.436549 -223.007467 
L 170.422745 -223.272819 
L 174.40894 -223.33123 
L 178.395136 -223.746863 
L 182.381332 -224.039776 
L 186.367527 -223.833011 
L 190.353723 -224.422782 
L 194.339918 -226.112666 
L 198.326114 -227.675371 
L 202.31231 -229.019458 
L 206.298505 -230.263606 
L 210.284701 -230.892268 
L 214.270897 -231.023683 
L 218.257092 -231.034213 
L 222.243288 -231.034527 
L 226.229484 -231.034527 
L 230.215679 -231.034527 
L 234.201875 -231.034527 
L 238.188071 -231.034527 
L 242.174266 -231.034527 
L 246.160462 -231.034527 
L 250.146658 -231.034527 
L 254.132853 -231.034527 
L 258.119049 -231.034527 
L 262.105245 -231.034527 
L 266.09144 -231.034527 
L 270.077636 -231.034527 
L 274.063832 -231.034527 
L 278.050027 -231.034527 
L 282.036223 -231.034527 
L 286.022418 -231.034527 
L 290.008614 -231.034527 
L 293.99481 -231.034527 
L 297.981005 -231.034527 
L 301.967201 -231.034527 
L 305.953397 -231.034527 
L 309.939592 -231.034527 
L 313.925788 -231.034527 
L 317.911984 -231.034527 
L 321.898179 -231.034527 
L 325.884375 -231.034527 
L 329.870571 -231.034527 
L 333.856766 -231.034527 
L 337.842962 -231.034527 
L 341.829158 -231.034527 
L 345.815353 -231.034527 
L 349.801549 -231.034527 
L 353.787745 -231.034527 
L 357.77394 -231.034527 
L 361.760136 -231.034527 
L 365.746332 -231.034527 
L 369.732527 -231.034527 
L 373.718723 -231.034527 
L 377.704918 -231.034527 
L 381.691114 -231.034527 
L 385.67731 -231.034527 
L 389.663505 -231.034527 
L 393.649701 -231.034527 
L 397.635897 -231.034527 
L 401.622092 -231.034527 
L 405.608288 -231.034527 
L 409.594484 -231.034527 
L 413.580679 -231.034527 
L 417.566875 -231.034527 
L 421.553071 -231.034527 
L 421.553071 -231.034527 
L 421.553071 -231.034527 
L 417.566875 -231.034527 
L 413.580679 -231.034527 
L 409.594484 -231.034527 
L 405.608288 -231.034527 
L 401.622092 -231.034527 
L 397.635897 -231.034527 
L 393.649701 -231.034527 
L 389.663505 -231.034527 
L 385.67731 -231.034527 
L 381.691114 -231.034527 
L 377.704918 -231.034527 
L 373.718723 -231.034527 
L 369.732527 -231.034527 
L 365.746332 -231.034527 
L 361.760136 -231.034527 
L 357.77394 -231.034527 
L 353.787745 -231.034527 
L 349.801549 -231.034527 
L 345.815353 -231.034527 
L 341.829158 -231.034527 
L 337.842962 -231.034527 
L 333.856766 -231.034527 
L 329.870571 -231.034527 
L 325.884375 -231.034527 
L 321.898179 -231.034527 
L 317.911984 -231.034527 
L 313.925788 -231.034527 
L 309.939592 -231.034527 
L 305.953397 -231.034527 
L 301.967201 -231.034527 
L 297.981005 -231.034527 
L 293.99481 -231.034527 
L 290.008614 -231.034527 
L 286.022418 -231.034527 
L 282.036223 -231.034527 
L 278.050027 -231.034527 
L 274.063832 -231.034527 
L 270.077636 -231.034527 
L 266.09144 -231.034527 
L 262.105245 -231.034527 
L 258.119049 -231.034527 
L 254.132853 -231.034527 
L 250.146658 -231.034527 
L 246.160462 -231.034527 
L 242.174266 -231.034527 
L 238.188071 -231.034527 
L 234.201875 -231.034527 
L 230.215679 -231.034527 
L 226.229484 -231.034527 
L 222.243288 -231.034527 
L 218.257092 -231.033894 
L 214.270897 -231.012658 
L 210.284701 -230.748262 
L 206.298505 -229.492005 
L 202.31231 -227.064174 
L 198.326114 -224.675637 
L 194.339918 -222.317946 
L 190.353723 -219.696885 
L 186.367527 -217.968698 
L 182.381332 -217.012301 
L 178.395136 -216.350467 
L 174.40894 -216.391364 
L 170.422745 -216.721436 
L 166.436549 -216.512557 
L 162.450353 -216.465032 
L 158.464158 -216.617993 
L 154.477962 -217.004671 
L 150.491766 -216.799237 
L 146.505571 -215.716952 
L 142.519375 -214.779002 
L 138.533179 -214.108337 
L 134.546984 -212.345779 
L 130.560788 -210.810075 
L 126.574592 -211.876611 
L 122.588397 -213.527493 
L 118.602201 -214.580327 
L 114.616005 -214.652598 
L 110.62981 -214.564964 
L 106.643614 -214.119595 
L 102.657418 -211.812327 
L 98.671223 -207.019919 
L 94.685027 -201.748899 
L 90.698832 -198.328076 
L 86.712636 -197.953557 
L 82.72644 -200.298322 
L 78.740245 -197.583248 
L 74.754049 -189.112091 
L 70.767853 -179.772917 
L 66.781658 -170.947313 
L 62.795462 -168.574922 
L 58.809266 -166.319428 
L 54.823071 -167.51022 
L 50.836875 -174.3031 
z
" style="stroke: #276319; stroke-opacity: 0.1"/>
    </defs>
    <g clip-path="url(#p85293b7ed4)">
     <use xlink:href="#mb536277b51" x="0" y="424.106719" style="fill: #276319; fill-opacity: 0.1; stroke: #276319; stroke-opacity: 0.1"/>
    </g>
   </g>
   <g id="PolyCollection_3">
    <defs>
     <path id="m5d960aec5a" d="M 50.836875 -149.2147 
L 50.836875 -149.2147 
L 54.823071 -150.531894 
L 58.809266 -148.414813 
L 62.795462 -149.781241 
L 66.781658 -163.33448 
L 70.767853 -174.305115 
L 74.754049 -177.041708 
L 78.740245 -179.756527 
L 82.72644 -183.675299 
L 86.712636 -188.495331 
L 90.698832 -192.822231 
L 94.685027 -194.673037 
L 98.671223 -195.197211 
L 102.657418 -195.98939 
L 106.643614 -195.735658 
L 110.62981 -195.533566 
L 114.616005 -199.571952 
L 118.602201 -205.504256 
L 122.588397 -207.867988 
L 126.574592 -207.574616 
L 130.560788 -205.333201 
L 134.546984 -204.119746 
L 138.533179 -205.739637 
L 142.519375 -208.183922 
L 146.505571 -208.534234 
L 150.491766 -208.963056 
L 154.477962 -209.904246 
L 158.464158 -209.95657 
L 162.450353 -209.875604 
L 166.436549 -211.066446 
L 170.422745 -213.036479 
L 174.40894 -213.952406 
L 178.395136 -215.096053 
L 182.381332 -216.356403 
L 186.367527 -216.495626 
L 190.353723 -215.748329 
L 194.339918 -215.151696 
L 198.326114 -216.248753 
L 202.31231 -217.843907 
L 206.298505 -218.953788 
L 210.284701 -219.601468 
L 214.270897 -219.278936 
L 218.257092 -218.599412 
L 222.243288 -218.567832 
L 226.229484 -219.009677 
L 230.215679 -219.480399 
L 234.201875 -218.909442 
L 238.188071 -218.368832 
L 242.174266 -219.750424 
L 246.160462 -221.688558 
L 250.146658 -223.091526 
L 254.132853 -224.401319 
L 258.119049 -224.171689 
L 262.105245 -223.36365 
L 266.09144 -223.725143 
L 270.077636 -224.166376 
L 274.063832 -223.588147 
L 278.050027 -223.075326 
L 282.036223 -223.421326 
L 286.022418 -223.94008 
L 290.008614 -224.519042 
L 293.99481 -225.229204 
L 297.981005 -225.589099 
L 301.967201 -225.556471 
L 305.953397 -225.857411 
L 309.939592 -226.477791 
L 313.925788 -226.657199 
L 317.911984 -226.693314 
L 321.898179 -227.134827 
L 325.884375 -227.751598 
L 329.870571 -228.2154 
L 333.856766 -228.185183 
L 337.842962 -227.931097 
L 341.829158 -228.280252 
L 345.815353 -228.85437 
L 349.801549 -228.652903 
L 353.787745 -228.266158 
L 357.77394 -228.388162 
L 361.760136 -228.879368 
L 365.746332 -229.590076 
L 369.732527 -229.897486 
L 373.718723 -229.805763 
L 377.704918 -229.692442 
L 381.691114 -229.66924 
L 385.67731 -229.858973 
L 389.663505 -230.510122 
L 393.649701 -231.188621 
L 397.635897 -231.401445 
L 401.622092 -231.501611 
L 405.608288 -231.560195 
L 409.594484 -231.321507 
L 413.580679 -231.096396 
L 417.566875 -231.039544 
L 421.553071 -231.034677 
L 421.553071 -231.034198 
L 421.553071 -231.034198 
L 417.566875 -231.023154 
L 413.580679 -230.885533 
L 409.594484 -230.229051 
L 405.608288 -228.940952 
L 401.622092 -227.707333 
L 397.635897 -226.963364 
L 393.649701 -226.37727 
L 389.663505 -225.420474 
L 385.67731 -224.469835 
L 381.691114 -224.006349 
L 377.704918 -224.007735 
L 373.718723 -224.111584 
L 369.732527 -223.938722 
L 365.746332 -223.312955 
L 361.760136 -222.626109 
L 357.77394 -222.255186 
L 353.787745 -221.889896 
L 349.801549 -222.064651 
L 345.815353 -222.215834 
L 341.829158 -221.43663 
L 337.842962 -220.781619 
L 333.856766 -220.919496 
L 329.870571 -220.939134 
L 325.884375 -220.279224 
L 321.898179 -219.550092 
L 317.911984 -219.323689 
L 313.925788 -219.727861 
L 309.939592 -219.847353 
L 305.953397 -219.054379 
L 301.967201 -218.309414 
L 297.981005 -218.101841 
L 293.99481 -217.418059 
L 290.008614 -216.239639 
L 286.022418 -215.37814 
L 282.036223 -214.956937 
L 278.050027 -214.708712 
L 274.063832 -215.202243 
L 270.077636 -215.606864 
L 266.09144 -215.112749 
L 262.105245 -214.65442 
L 258.119049 -215.199711 
L 254.132853 -215.454475 
L 250.146658 -214.289489 
L 246.160462 -212.951146 
L 242.174266 -211.031375 
L 238.188071 -209.226606 
L 234.201875 -209.228065 
L 230.215679 -209.797443 
L 226.229484 -209.51291 
L 222.243288 -208.946007 
L 218.257092 -208.66861 
L 214.270897 -209.451302 
L 210.284701 -209.988326 
L 206.298505 -209.266619 
L 202.31231 -208.197981 
L 198.326114 -206.222323 
L 194.339918 -204.551938 
L 190.353723 -205.283129 
L 186.367527 -206.340066 
L 182.381332 -206.601715 
L 178.395136 -205.311452 
L 174.40894 -203.473305 
L 170.422745 -202.098789 
L 166.436549 -200.13235 
L 162.450353 -198.492963 
L 158.464158 -197.822449 
L 154.477962 -197.226822 
L 150.491766 -196.289355 
L 146.505571 -196.124736 
L 142.519375 -194.992152 
L 138.533179 -191.633148 
L 134.546984 -189.877812 
L 130.560788 -191.31141 
L 126.574592 -193.366432 
L 122.588397 -192.442769 
L 118.602201 -188.676151 
L 114.616005 -183.219833 
L 110.62981 -180.848591 
L 106.643614 -181.216457 
L 102.657418 -179.64469 
L 98.671223 -177.572704 
L 94.685027 -176.516859 
L 90.698832 -174.182836 
L 86.712636 -169.86088 
L 82.72644 -165.024195 
L 78.740245 -163.503559 
L 74.754049 -164.948791 
L 70.767853 -161.485334 
L 66.781658 -144.860011 
L 62.795462 -129.479036 
L 58.809266 -134.159928 
L 54.823071 -143.984745 
L 50.836875 -149.2147 
z
" style="stroke: #6f9fc7; stroke-opacity: 0.1"/>
    </defs>
    <g clip-path="url(#p85293b7ed4)">
     <use xlink:href="#m5d960aec5a" x="0" y="424.106719" style="fill: #6f9fc7; fill-opacity: 0.1; stroke: #6f9fc7; stroke-opacity: 0.1"/>
    </g>
   </g>
   <g id="line2d_24">
    <path d="M 50.836875 299.980419 
L 54.823071 295.538959 
L 58.809266 291.645201 
L 62.795462 289.633556 
L 66.781658 289.961553 
L 70.767853 288.176722 
L 74.754049 282.064287 
L 78.740245 276.160957 
L 82.72644 274.187141 
L 86.712636 275.895381 
L 90.698832 275.826287 
L 94.685027 275.791883 
L 98.671223 275.930023 
L 102.657418 274.798329 
L 106.643614 272.777539 
L 110.62981 271.308468 
L 114.616005 269.24444 
L 118.602201 267.290015 
L 122.588397 265.238344 
L 126.574592 263.146084 
L 130.560788 263.594373 
L 134.546984 265.584848 
L 138.533179 266.000625 
L 142.519375 264.073341 
L 146.505571 262.902938 
L 150.491766 264.443244 
L 154.477962 264.746776 
L 158.464158 262.891527 
L 162.450353 262.641809 
L 166.436549 262.909494 
L 170.422745 261.225424 
L 174.40894 258.812278 
L 178.395136 257.886258 
L 182.381332 258.879732 
L 186.367527 260.060185 
L 190.353723 260.330386 
L 194.339918 259.531948 
L 198.326114 258.223396 
L 202.31231 257.365089 
L 206.298505 256.899213 
L 210.284701 257.275459 
L 214.270897 257.817947 
L 218.257092 258.020771 
L 222.243288 257.283934 
L 226.229484 255.913006 
L 230.215679 254.874303 
L 234.201875 255.25143 
L 238.188071 256.639287 
L 242.174266 257.935145 
L 246.160462 258.674805 
L 250.146658 258.877365 
L 254.132853 258.172029 
L 258.119049 256.649261 
L 262.105245 255.836407 
L 266.09144 255.799537 
L 270.077636 255.846255 
L 274.063832 255.855327 
L 278.050027 255.855959 
L 282.036223 255.855976 
L 286.022418 255.855976 
L 290.008614 255.855976 
L 293.99481 255.855976 
L 297.981005 255.855976 
L 301.967201 255.855976 
L 305.953397 255.855976 
L 309.939592 255.855976 
L 313.925788 255.855976 
L 317.911984 255.855976 
L 321.898179 255.855976 
L 325.884375 255.855976 
L 329.870571 255.855976 
L 333.856766 255.855976 
L 337.842962 255.855976 
L 341.829158 255.855976 
L 345.815353 255.855976 
L 349.801549 255.855976 
L 353.787745 255.855976 
L 357.77394 255.855976 
L 361.760136 255.855976 
L 365.746332 255.855976 
L 369.732527 255.855976 
L 373.718723 255.855976 
L 377.704918 255.855976 
L 381.691114 255.855976 
L 385.67731 255.855976 
L 389.663505 255.855976 
L 393.649701 255.855976 
L 397.635897 255.855976 
L 401.622092 255.855976 
L 405.608288 255.855976 
L 409.594484 255.855976 
L 413.580679 255.855976 
L 417.566875 255.855976 
L 421.553071 255.855976 
" clip-path="url(#p85293b7ed4)" style="fill: none; stroke: #8e0052; stroke-width: 2; stroke-linecap: square"/>
   </g>
   <g id="line2d_25">
    <path d="M 50.836875 299.980419 
L 54.823071 288.698041 
L 58.809266 281.076541 
L 62.795462 279.094782 
L 66.781658 279.646457 
L 70.767853 278.151803 
L 74.754049 274.024054 
L 78.740245 269.383716 
L 82.72644 266.949511 
L 86.712636 268.329531 
L 90.698832 268.333496 
L 94.685027 269.24775 
L 98.671223 270.449063 
L 102.657418 269.108042 
L 106.643614 266.328887 
L 110.62981 264.912194 
L 114.616005 263.270651 
L 118.602201 261.420514 
L 122.588397 259.784551 
L 126.574592 258.161244 
L 130.560788 258.537754 
L 134.546984 260.229468 
L 138.533179 260.56469 
L 142.519375 258.918371 
L 146.505571 258.082654 
L 150.491766 259.7458 
L 154.477962 259.995856 
L 158.464158 258.458663 
L 162.450353 258.67153 
L 166.436549 259.1749 
L 170.422745 257.709667 
L 174.40894 255.494538 
L 178.395136 254.448107 
L 182.381332 255.224181 
L 186.367527 256.352327 
L 190.353723 256.802857 
L 194.339918 256.154054 
L 198.326114 254.831395 
L 202.31231 253.897542 
L 206.298505 253.409122 
L 210.284701 253.880311 
L 214.270897 254.559347 
L 218.257092 254.942242 
L 222.243288 254.43617 
L 226.229484 253.269369 
L 230.215679 252.252439 
L 234.201875 252.594697 
L 238.188071 254.083471 
L 242.174266 255.47651 
L 246.160462 256.357138 
L 250.146658 256.879213 
L 254.132853 256.652559 
L 258.119049 255.691472 
L 262.105245 255.374777 
L 266.09144 255.652688 
L 270.077636 255.821646 
L 274.063832 255.853528 
L 278.050027 255.855909 
L 282.036223 255.855976 
L 286.022418 255.855976 
L 290.008614 255.855976 
L 293.99481 255.855976 
L 297.981005 255.855976 
L 301.967201 255.855976 
L 305.953397 255.855976 
L 309.939592 255.855976 
L 313.925788 255.855976 
L 317.911984 255.855976 
L 321.898179 255.855976 
L 325.884375 255.855976 
L 329.870571 255.855976 
L 333.856766 255.855976 
L 337.842962 255.855976 
L 341.829158 255.855976 
L 345.815353 255.855976 
L 349.801549 255.855976 
L 353.787745 255.855976 
L 357.77394 255.855976 
L 361.760136 255.855976 
L 365.746332 255.855976 
L 369.732527 255.855976 
L 373.718723 255.855976 
L 377.704918 255.855976 
L 381.691114 255.855976 
L 385.67731 255.855976 
L 389.663505 255.855976 
L 393.649701 255.855976 
L 397.635897 255.855976 
L 401.622092 255.855976 
L 405.608288 255.855976 
L 409.594484 255.855976 
L 413.580679 255.855976 
L 417.566875 255.855976 
L 421.553071 255.855976 
" clip-path="url(#p85293b7ed4)" style="fill: none; stroke-dasharray: 3.7,1.6; stroke-dashoffset: 0; stroke: #8e0052"/>
   </g>
   <g id="line2d_26">
    <path d="M 50.836875 299.980419 
L 54.823071 309.220795 
L 58.809266 312.782522 
L 62.795462 310.711106 
L 66.781658 310.591745 
L 70.767853 308.226559 
L 74.754049 298.144752 
L 78.740245 289.71544 
L 82.72644 288.662401 
L 86.712636 291.02708 
L 90.698832 290.811869 
L 94.685027 288.88015 
L 98.671223 286.891941 
L 102.657418 286.178904 
L 106.643614 285.674842 
L 110.62981 284.101015 
L 114.616005 281.192018 
L 118.602201 279.029016 
L 122.588397 276.145931 
L 126.574592 273.115766 
L 130.560788 273.707609 
L 134.546984 276.295609 
L 138.533179 276.872494 
L 142.519375 274.383281 
L 146.505571 272.543508 
L 150.491766 273.838131 
L 154.477962 274.248616 
L 158.464158 271.757254 
L 162.450353 270.582368 
L 166.436549 270.378682 
L 170.422745 268.256938 
L 174.40894 265.447758 
L 178.395136 264.762561 
L 182.381332 266.190834 
L 186.367527 267.4759 
L 190.353723 267.385445 
L 194.339918 266.287735 
L 198.326114 265.007397 
L 202.31231 264.300183 
L 206.298505 263.879395 
L 210.284701 264.065754 
L 214.270897 264.335148 
L 218.257092 264.177828 
L 222.243288 262.979463 
L 226.229484 261.20028 
L 230.215679 260.118032 
L 234.201875 260.564896 
L 238.188071 261.750921 
L 242.174266 262.852413 
L 246.160462 263.31014 
L 250.146658 262.873668 
L 254.132853 261.210971 
L 258.119049 258.564839 
L 262.105245 256.759668 
L 266.09144 256.093233 
L 270.077636 255.895471 
L 274.063832 255.858926 
L 278.050027 255.856061 
L 282.036223 255.855976 
L 286.022418 255.855976 
L 290.008614 255.855976 
L 293.99481 255.855976 
L 297.981005 255.855976 
L 301.967201 255.855976 
L 305.953397 255.855976 
L 309.939592 255.855976 
L 313.925788 255.855976 
L 317.911984 255.855976 
L 321.898179 255.855976 
L 325.884375 255.855976 
L 329.870571 255.855976 
L 333.856766 255.855976 
L 337.842962 255.855976 
L 341.829158 255.855976 
L 345.815353 255.855976 
L 349.801549 255.855976 
L 353.787745 255.855976 
L 357.77394 255.855976 
L 361.760136 255.855976 
L 365.746332 255.855976 
L 369.732527 255.855976 
L 373.718723 255.855976 
L 377.704918 255.855976 
L 381.691114 255.855976 
L 385.67731 255.855976 
L 389.663505 255.855976 
L 393.649701 255.855976 
L 397.635897 255.855976 
L 401.622092 255.855976 
L 405.608288 255.855976 
L 409.594484 255.855976 
L 413.580679 255.855976 
L 417.566875 255.855976 
L 421.553071 255.855976 
" clip-path="url(#p85293b7ed4)" style="fill: none; stroke-dasharray: 3.7,1.6; stroke-dashoffset: 0; stroke: #8e0052"/>
   </g>
   <g id="line2d_27">
    <path d="M 50.836875 249.803619 
L 54.823071 252.370181 
L 58.809266 250.437272 
L 62.795462 245.304243 
L 66.781658 240.388856 
L 70.767853 231.769578 
L 74.754049 223.143552 
L 78.740245 215.453638 
L 82.72644 213.532778 
L 86.712636 216.789643 
L 90.698832 216.99748 
L 94.685027 214.086594 
L 98.671223 209.879782 
L 102.657418 206.065586 
L 106.643614 204.137518 
L 110.62981 203.239029 
L 114.616005 202.737846 
L 118.602201 202.892179 
L 122.588397 204.150146 
L 126.574592 205.836923 
L 130.560788 206.86035 
L 134.546984 205.463898 
L 138.533179 203.698702 
L 142.519375 202.950229 
L 146.505571 202.399024 
L 150.491766 202.030959 
L 154.477962 202.346106 
L 158.464158 202.93962 
L 162.450353 203.258949 
L 166.436549 203.264222 
L 170.422745 203.017694 
L 174.40894 203.088778 
L 178.395136 202.825321 
L 182.381332 202.409434 
L 186.367527 202.228479 
L 190.353723 201.259236 
L 194.339918 199.25896 
L 198.326114 197.431259 
L 202.31231 195.739022 
L 206.298505 194.100313 
L 210.284701 193.262453 
L 214.270897 193.086711 
L 218.257092 193.072612 
L 222.243288 193.072192 
L 226.229484 193.072192 
L 230.215679 193.072192 
L 234.201875 193.072192 
L 238.188071 193.072192 
L 242.174266 193.072192 
L 246.160462 193.072192 
L 250.146658 193.072192 
L 254.132853 193.072192 
L 258.119049 193.072192 
L 262.105245 193.072192 
L 266.09144 193.072192 
L 270.077636 193.072192 
L 274.063832 193.072192 
L 278.050027 193.072192 
L 282.036223 193.072192 
L 286.022418 193.072192 
L 290.008614 193.072192 
L 293.99481 193.072192 
L 297.981005 193.072192 
L 301.967201 193.072192 
L 305.953397 193.072192 
L 309.939592 193.072192 
L 313.925788 193.072192 
L 317.911984 193.072192 
L 321.898179 193.072192 
L 325.884375 193.072192 
L 329.870571 193.072192 
L 333.856766 193.072192 
L 337.842962 193.072192 
L 341.829158 193.072192 
L 345.815353 193.072192 
L 349.801549 193.072192 
L 353.787745 193.072192 
L 357.77394 193.072192 
L 361.760136 193.072192 
L 365.746332 193.072192 
L 369.732527 193.072192 
L 373.718723 193.072192 
L 377.704918 193.072192 
L 381.691114 193.072192 
L 385.67731 193.072192 
L 389.663505 193.072192 
L 393.649701 193.072192 
L 397.635897 193.072192 
L 401.622092 193.072192 
L 405.608288 193.072192 
L 409.594484 193.072192 
L 413.580679 193.072192 
L 417.566875 193.072192 
L 421.553071 193.072192 
" clip-path="url(#p85293b7ed4)" style="fill: none; stroke: #276319; stroke-width: 2; stroke-linecap: square"/>
   </g>
   <g id="line2d_28">
    <path d="M 50.836875 249.803619 
L 54.823071 250.257022 
L 58.809266 246.762263 
L 62.795462 240.190466 
L 66.781658 234.003582 
L 70.767853 225.487467 
L 74.754049 217.218014 
L 78.740245 209.918721 
L 82.72644 208.394968 
L 86.712636 212.107883 
L 90.698832 212.606898 
L 94.685027 209.950981 
L 98.671223 206.276274 
L 102.657418 202.951184 
L 106.643614 201.212715 
L 110.62981 200.087666 
L 114.616005 199.37971 
L 118.602201 199.575072 
L 122.588397 200.935607 
L 126.574592 202.64033 
L 130.560788 203.642204 
L 134.546984 202.315378 
L 138.533179 200.548861 
L 142.519375 199.761485 
L 146.505571 199.403653 
L 150.491766 199.392698 
L 154.477962 199.968136 
L 158.464158 200.665067 
L 162.450353 201.06758 
L 166.436549 201.099252 
L 170.422745 200.8339 
L 174.40894 200.775489 
L 178.395136 200.359856 
L 182.381332 200.066943 
L 186.367527 200.273708 
L 190.353723 199.683936 
L 194.339918 197.994053 
L 198.326114 196.431348 
L 202.31231 195.08726 
L 206.298505 193.843113 
L 210.284701 193.214451 
L 214.270897 193.083036 
L 218.257092 193.072505 
L 222.243288 193.072192 
L 226.229484 193.072192 
L 230.215679 193.072192 
L 234.201875 193.072192 
L 238.188071 193.072192 
L 242.174266 193.072192 
L 246.160462 193.072192 
L 250.146658 193.072192 
L 254.132853 193.072192 
L 258.119049 193.072192 
L 262.105245 193.072192 
L 266.09144 193.072192 
L 270.077636 193.072192 
L 274.063832 193.072192 
L 278.050027 193.072192 
L 282.036223 193.072192 
L 286.022418 193.072192 
L 290.008614 193.072192 
L 293.99481 193.072192 
L 297.981005 193.072192 
L 301.967201 193.072192 
L 305.953397 193.072192 
L 309.939592 193.072192 
L 313.925788 193.072192 
L 317.911984 193.072192 
L 321.898179 193.072192 
L 325.884375 193.072192 
L 329.870571 193.072192 
L 333.856766 193.072192 
L 337.842962 193.072192 
L 341.829158 193.072192 
L 345.815353 193.072192 
L 349.801549 193.072192 
L 353.787745 193.072192 
L 357.77394 193.072192 
L 361.760136 193.072192 
L 365.746332 193.072192 
L 369.732527 193.072192 
L 373.718723 193.072192 
L 377.704918 193.072192 
L 381.691114 193.072192 
L 385.67731 193.072192 
L 389.663505 193.072192 
L 393.649701 193.072192 
L 397.635897 193.072192 
L 401.622092 193.072192 
L 405.608288 193.072192 
L 409.594484 193.072192 
L 413.580679 193.072192 
L 417.566875 193.072192 
L 421.553071 193.072192 
" clip-path="url(#p85293b7ed4)" style="fill: none; stroke-dasharray: 3.7,1.6; stroke-dashoffset: 0; stroke: #276319"/>
   </g>
   <g id="line2d_29">
    <path d="M 50.836875 249.803619 
L 54.823071 256.596499 
L 58.809266 257.787291 
L 62.795462 255.531797 
L 66.781658 253.159405 
L 70.767853 244.333802 
L 74.754049 234.994628 
L 78.740245 226.523471 
L 82.72644 223.808397 
L 86.712636 226.153162 
L 90.698832 225.778643 
L 94.685027 222.35782 
L 98.671223 217.0868 
L 102.657418 212.294391 
L 106.643614 209.987124 
L 110.62981 209.541755 
L 114.616005 209.45412 
L 118.602201 209.526392 
L 122.588397 210.579225 
L 126.574592 212.230108 
L 130.560788 213.296644 
L 134.546984 211.76094 
L 138.533179 209.998382 
L 142.519375 209.327716 
L 146.505571 208.389767 
L 150.491766 207.307481 
L 154.477962 207.102048 
L 158.464158 207.488725 
L 162.450353 207.641686 
L 166.436549 207.594162 
L 170.422745 207.385283 
L 174.40894 207.715355 
L 178.395136 207.756252 
L 182.381332 207.094418 
L 186.367527 206.138021 
L 190.353723 204.409834 
L 194.339918 201.788773 
L 198.326114 199.431082 
L 202.31231 197.042545 
L 206.298505 194.614714 
L 210.284701 193.358456 
L 214.270897 193.094061 
L 218.257092 193.072825 
L 222.243288 193.072192 
L 226.229484 193.072192 
L 230.215679 193.072192 
L 234.201875 193.072192 
L 238.188071 193.072192 
L 242.174266 193.072192 
L 246.160462 193.072192 
L 250.146658 193.072192 
L 254.132853 193.072192 
L 258.119049 193.072192 
L 262.105245 193.072192 
L 266.09144 193.072192 
L 270.077636 193.072192 
L 274.063832 193.072192 
L 278.050027 193.072192 
L 282.036223 193.072192 
L 286.022418 193.072192 
L 290.008614 193.072192 
L 293.99481 193.072192 
L 297.981005 193.072192 
L 301.967201 193.072192 
L 305.953397 193.072192 
L 309.939592 193.072192 
L 313.925788 193.072192 
L 317.911984 193.072192 
L 321.898179 193.072192 
L 325.884375 193.072192 
L 329.870571 193.072192 
L 333.856766 193.072192 
L 337.842962 193.072192 
L 341.829158 193.072192 
L 345.815353 193.072192 
L 349.801549 193.072192 
L 353.787745 193.072192 
L 357.77394 193.072192 
L 361.760136 193.072192 
L 365.746332 193.072192 
L 369.732527 193.072192 
L 373.718723 193.072192 
L 377.704918 193.072192 
L 381.691114 193.072192 
L 385.67731 193.072192 
L 389.663505 193.072192 
L 393.649701 193.072192 
L 397.635897 193.072192 
L 401.622092 193.072192 
L 405.608288 193.072192 
L 409.594484 193.072192 
L 413.580679 193.072192 
L 417.566875 193.072192 
L 421.553071 193.072192 
" clip-path="url(#p85293b7ed4)" style="fill: none; stroke-dasharray: 3.7,1.6; stroke-dashoffset: 0; stroke: #276319"/>
   </g>
   <g id="line2d_30">
    <path d="M 50.836875 274.892019 
L 54.823071 275.757208 
L 58.809266 280.443534 
L 62.795462 281.092879 
L 66.781658 266.930395 
L 70.767853 254.074864 
L 74.754049 251.095983 
L 78.740245 249.767847 
L 82.72644 246.648454 
L 86.712636 241.822872 
L 90.698832 237.497619 
L 94.685027 235.485741 
L 98.671223 234.784343 
L 102.657418 233.565562 
L 106.643614 233.210794 
L 110.62981 233.468145 
L 114.616005 229.985473 
L 118.602201 224.211831 
L 122.588397 221.38047 
L 126.574592 221.268164 
L 130.560788 223.447448 
L 134.546984 224.734284 
L 138.533179 223.069245 
L 142.519375 220.320054 
L 146.505571 219.708984 
L 150.491766 219.36823 
L 154.477962 218.428281 
L 158.464158 218.194856 
L 162.450353 218.025328 
L 166.436549 216.684971 
L 170.422745 214.716137 
L 174.40894 213.647346 
L 178.395136 212.272199 
L 182.381332 211.001878 
L 186.367527 210.996279 
L 190.353723 211.84679 
L 194.339918 212.488276 
L 198.326114 211.200109 
L 202.31231 209.478121 
L 206.298505 208.381987 
L 210.284701 207.709632 
L 214.270897 208.103661 
L 218.257092 208.817574 
L 222.243288 208.746161 
L 226.229484 208.262631 
L 230.215679 207.853972 
L 234.201875 208.424403 
L 238.188071 208.785296 
L 242.174266 207.262644 
L 246.160462 205.330632 
L 250.146658 203.949205 
L 254.132853 202.687681 
L 258.119049 202.925689 
L 262.105245 203.646145 
L 266.09144 203.252374 
L 270.077636 202.793514 
L 274.063832 203.313873 
L 278.050027 203.820264 
L 282.036223 203.506856 
L 286.022418 203.020619 
L 290.008614 202.347477 
L 293.99481 201.48123 
L 297.981005 201.013373 
L 301.967201 200.965934 
L 305.953397 200.516985 
L 309.939592 199.839074 
L 313.925788 199.759299 
L 317.911984 199.869946 
L 321.898179 199.500136 
L 325.884375 198.845912 
L 329.870571 198.316741 
L 333.856766 198.343432 
L 337.842962 198.558781 
L 341.829158 198.107674 
L 345.815353 197.465194 
L 349.801549 197.6499 
L 353.787745 197.965982 
L 357.77394 197.762882 
L 361.760136 197.31177 
L 365.746332 196.609016 
L 369.732527 196.195488 
L 373.718723 196.199015 
L 377.704918 196.309179 
L 381.691114 196.325109 
L 385.67731 196.044125 
L 389.663505 195.293146 
L 393.649701 194.521882 
L 397.635897 194.184634 
L 401.622092 193.869867 
L 405.608288 193.419605 
L 409.594484 193.149364 
L 413.580679 193.080611 
L 417.566875 193.072638 
L 421.553071 193.072201 
" clip-path="url(#p85293b7ed4)" style="fill: none; stroke: #6f9fc7; stroke-width: 2; stroke-linecap: square"/>
   </g>
   <g id="line2d_31">
    <path d="M 50.836875 274.892019 
L 54.823071 273.574825 
L 58.809266 275.691905 
L 62.795462 274.325477 
L 66.781658 260.772239 
L 70.767853 249.801603 
L 74.754049 247.065011 
L 78.740245 244.350192 
L 82.72644 240.431419 
L 86.712636 235.611388 
L 90.698832 231.284487 
L 94.685027 229.433682 
L 98.671223 228.909507 
L 102.657418 228.117329 
L 106.643614 228.371061 
L 110.62981 228.573153 
L 114.616005 224.534766 
L 118.602201 218.602462 
L 122.588397 216.238731 
L 126.574592 216.532103 
L 130.560788 218.773518 
L 134.546984 219.986973 
L 138.533179 218.367082 
L 142.519375 215.922797 
L 146.505571 215.572485 
L 150.491766 215.143663 
L 154.477962 214.202473 
L 158.464158 214.150149 
L 162.450353 214.231115 
L 166.436549 213.040273 
L 170.422745 211.07024 
L 174.40894 210.154313 
L 178.395136 209.010666 
L 182.381332 207.750316 
L 186.367527 207.611093 
L 190.353723 208.358389 
L 194.339918 208.955023 
L 198.326114 207.857965 
L 202.31231 206.262812 
L 206.298505 205.152931 
L 210.284701 204.505251 
L 214.270897 204.827782 
L 218.257092 205.507307 
L 222.243288 205.538886 
L 226.229484 205.097042 
L 230.215679 204.626319 
L 234.201875 205.197277 
L 238.188071 205.737887 
L 242.174266 204.356295 
L 246.160462 202.418161 
L 250.146658 201.015193 
L 254.132853 199.7054 
L 258.119049 199.93503 
L 262.105245 200.743069 
L 266.09144 200.381576 
L 270.077636 199.940343 
L 274.063832 200.518571 
L 278.050027 201.031393 
L 282.036223 200.685393 
L 286.022418 200.166639 
L 290.008614 199.587676 
L 293.99481 198.877515 
L 297.981005 198.51762 
L 301.967201 198.550248 
L 305.953397 198.249308 
L 309.939592 197.628928 
L 313.925788 197.44952 
L 317.911984 197.413405 
L 321.898179 196.971891 
L 325.884375 196.355121 
L 329.870571 195.891319 
L 333.856766 195.921536 
L 337.842962 196.175622 
L 341.829158 195.826467 
L 345.815353 195.252349 
L 349.801549 195.453816 
L 353.787745 195.840561 
L 357.77394 195.718557 
L 361.760136 195.227351 
L 365.746332 194.516643 
L 369.732527 194.209233 
L 373.718723 194.300956 
L 377.704918 194.414277 
L 381.691114 194.437479 
L 385.67731 194.247746 
L 389.663505 193.596596 
L 393.649701 192.918098 
L 397.635897 192.705274 
L 401.622092 192.605108 
L 405.608288 192.546524 
L 409.594484 192.785212 
L 413.580679 193.010323 
L 417.566875 193.067175 
L 421.553071 193.072041 
" clip-path="url(#p85293b7ed4)" style="fill: none; stroke-dasharray: 3.7,1.6; stroke-dashoffset: 0; stroke: #6f9fc7"/>
   </g>
   <g id="line2d_32">
    <path d="M 50.836875 274.892019 
L 54.823071 280.121974 
L 58.809266 289.946791 
L 62.795462 294.627683 
L 66.781658 279.246708 
L 70.767853 262.621384 
L 74.754049 259.157928 
L 78.740245 260.603159 
L 82.72644 259.082524 
L 86.712636 254.245839 
L 90.698832 249.923883 
L 94.685027 247.58986 
L 98.671223 246.534015 
L 102.657418 244.462029 
L 106.643614 242.890261 
L 110.62981 243.258128 
L 114.616005 240.886886 
L 118.602201 235.430568 
L 122.588397 231.663949 
L 126.574592 230.740287 
L 130.560788 232.795309 
L 134.546984 234.228907 
L 138.533179 232.473571 
L 142.519375 229.114567 
L 146.505571 227.981982 
L 150.491766 227.817364 
L 154.477962 226.879897 
L 158.464158 226.28427 
L 162.450353 225.613756 
L 166.436549 223.974369 
L 170.422745 222.00793 
L 174.40894 220.633413 
L 178.395136 218.795266 
L 182.381332 217.505004 
L 186.367527 217.766653 
L 190.353723 218.82359 
L 194.339918 219.554781 
L 198.326114 217.884396 
L 202.31231 215.908738 
L 206.298505 214.8401 
L 210.284701 214.118393 
L 214.270897 214.655417 
L 218.257092 215.438108 
L 222.243288 215.160712 
L 226.229484 214.593808 
L 230.215679 214.309276 
L 234.201875 214.878654 
L 238.188071 214.880113 
L 242.174266 213.075343 
L 246.160462 211.155573 
L 250.146658 209.817229 
L 254.132853 208.652244 
L 258.119049 208.907008 
L 262.105245 209.452299 
L 266.09144 208.99397 
L 270.077636 208.499855 
L 274.063832 208.904476 
L 278.050027 209.398007 
L 282.036223 209.149782 
L 286.022418 208.728579 
L 290.008614 207.86708 
L 293.99481 206.68866 
L 297.981005 206.004878 
L 301.967201 205.797305 
L 305.953397 205.05234 
L 309.939592 204.259366 
L 313.925788 204.378857 
L 317.911984 204.783029 
L 321.898179 204.556627 
L 325.884375 203.827494 
L 329.870571 203.167585 
L 333.856766 203.187223 
L 337.842962 203.3251 
L 341.829158 202.670089 
L 345.815353 201.890885 
L 349.801549 202.042068 
L 353.787745 202.216823 
L 357.77394 201.851532 
L 361.760136 201.48061 
L 365.746332 200.793764 
L 369.732527 200.167997 
L 373.718723 199.995135 
L 377.704918 200.098984 
L 381.691114 200.10037 
L 385.67731 199.636884 
L 389.663505 198.686244 
L 393.649701 197.729449 
L 397.635897 197.143355 
L 401.622092 196.399385 
L 405.608288 195.165766 
L 409.594484 193.877667 
L 413.580679 193.221186 
L 417.566875 193.083565 
L 421.553071 193.072521 
" clip-path="url(#p85293b7ed4)" style="fill: none; stroke-dasharray: 3.7,1.6; stroke-dashoffset: 0; stroke: #6f9fc7"/>
   </g>
   <g id="patch_3">
    <path d="M 50.836875 382.679219 
L 50.836875 10.999219 
" style="fill: none; stroke: #000000; stroke-width: 0.8; stroke-linejoin: miter; stroke-linecap: square"/>
   </g>
   <g id="patch_4">
    <path d="M 417.566875 382.679219 
L 417.566875 10.999219 
" style="fill: none; stroke: #000000; stroke-width: 0.8; stroke-linejoin: miter; stroke-linecap: square"/>
   </g>
   <g id="patch_5">
    <path d="M 50.836875 382.679219 
L 417.566875 382.679219 
" style="fill: none; stroke: #000000; stroke-width: 0.8; stroke-linejoin: miter; stroke-linecap: square"/>
   </g>
   <g id="patch_6">
    <path d="M 50.836875 10.999219 
L 417.566875 10.999219 
" style="fill: none; stroke: #000000; stroke-width: 0.8; stroke-linejoin: miter; stroke-linecap: square"/>
   </g>
   <g id="legend_1">
    <g id="patch_7">
     <path d="M 295.366875 377.679219 
L 410.566875 377.679219 
Q 412.566875 377.679219 412.566875 375.679219 
L 412.566875 332.644844 
Q 412.566875 330.644844 410.566875 330.644844 
L 295.366875 330.644844 
Q 293.366875 330.644844 293.366875 332.644844 
L 293.366875 375.679219 
Q 293.366875 377.679219 295.366875 377.679219 
z
" style="fill: #ffffff; opacity: 0.8; stroke: #cccccc; stroke-linejoin: miter"/>
    </g>
    <g id="line2d_33">
     <path d="M 297.366875 338.743281 
L 307.366875 338.743281 
L 317.366875 338.743281 
" style="fill: none; stroke: #8e0052; stroke-width: 2; stroke-linecap: square"/>
    </g>
    <g id="text_17">
     <!-- Non Expert (1-2) -->
     <g transform="translate(325.366875 342.243281) scale(0.1 -0.1)">
      <defs>
       <path id="DejaVuSans-45" d="M 628 4666 
L 3578 4666 
L 3578 4134 
L 1259 4134 
L 1259 2753 
L 3481 2753 
L 3481 2222 
L 1259 2222 
L 1259 531 
L 3634 531 
L 3634 0 
L 628 0 
L 628 4666 
z
" transform="scale(0.015625)"/>
       <path id="DejaVuSans-78" d="M 3513 3500 
L 2247 1797 
L 3578 0 
L 2900 0 
L 1881 1375 
L 863 0 
L 184 0 
L 1544 1831 
L 300 3500 
L 978 3500 
L 1906 2253 
L 2834 3500 
L 3513 3500 
z
" transform="scale(0.015625)"/>
       <path id="DejaVuSans-2d" d="M 313 2009 
L 1997 2009 
L 1997 1497 
L 313 1497 
L 313 2009 
z
" transform="scale(0.015625)"/>
      </defs>
      <use xlink:href="#DejaVuSans-4e"/>
      <use xlink:href="#DejaVuSans-6f" x="74.804688"/>
      <use xlink:href="#DejaVuSans-6e" x="135.986328"/>
      <use xlink:href="#DejaVuSans-20" x="199.365234"/>
      <use xlink:href="#DejaVuSans-45" x="231.152344"/>
      <use xlink:href="#DejaVuSans-78" x="294.335938"/>
      <use xlink:href="#DejaVuSans-70" x="353.515625"/>
      <use xlink:href="#DejaVuSans-65" x="416.992188"/>
      <use xlink:href="#DejaVuSans-72" x="478.515625"/>
      <use xlink:href="#DejaVuSans-74" x="519.628906"/>
      <use xlink:href="#DejaVuSans-20" x="558.837891"/>
      <use xlink:href="#DejaVuSans-28" x="590.625"/>
      <use xlink:href="#DejaVuSans-31" x="629.638672"/>
      <use xlink:href="#DejaVuSans-2d" x="693.261719"/>
      <use xlink:href="#DejaVuSans-32" x="729.345703"/>
      <use xlink:href="#DejaVuSans-29" x="792.96875"/>
     </g>
    </g>
    <g id="line2d_34">
     <path d="M 297.366875 353.421406 
L 307.366875 353.421406 
L 317.366875 353.421406 
" style="fill: none; stroke: #276319; stroke-width: 2; stroke-linecap: square"/>
    </g>
    <g id="text_18">
     <!-- Expert (3-5) -->
     <g transform="translate(325.366875 356.921406) scale(0.1 -0.1)">
      <use xlink:href="#DejaVuSans-45"/>
      <use xlink:href="#DejaVuSans-78" x="63.183594"/>
      <use xlink:href="#DejaVuSans-70" x="122.363281"/>
      <use xlink:href="#DejaVuSans-65" x="185.839844"/>
      <use xlink:href="#DejaVuSans-72" x="247.363281"/>
      <use xlink:href="#DejaVuSans-74" x="288.476562"/>
      <use xlink:href="#DejaVuSans-20" x="327.685547"/>
      <use xlink:href="#DejaVuSans-28" x="359.472656"/>
      <use xlink:href="#DejaVuSans-33" x="398.486328"/>
      <use xlink:href="#DejaVuSans-2d" x="462.109375"/>
      <use xlink:href="#DejaVuSans-35" x="498.193359"/>
      <use xlink:href="#DejaVuSans-29" x="561.816406"/>
     </g>
    </g>
    <g id="line2d_35">
     <path d="M 297.366875 368.099531 
L 307.366875 368.099531 
L 317.366875 368.099531 
" style="fill: none; stroke: #6f9fc7; stroke-width: 2; stroke-linecap: square"/>
    </g>
    <g id="text_19">
     <!-- All -->
     <g transform="translate(325.366875 371.599531) scale(0.1 -0.1)">
      <defs>
       <path id="DejaVuSans-41" d="M 2188 4044 
L 1331 1722 
L 3047 1722 
L 2188 4044 
z
M 1831 4666 
L 2547 4666 
L 4325 0 
L 3669 0 
L 3244 1197 
L 1141 1197 
L 716 0 
L 50 0 
L 1831 4666 
z
" transform="scale(0.015625)"/>
       <path id="DejaVuSans-6c" d="M 603 4863 
L 1178 4863 
L 1178 0 
L 603 0 
L 603 4863 
z
" transform="scale(0.015625)"/>
      </defs>
      <use xlink:href="#DejaVuSans-41"/>
      <use xlink:href="#DejaVuSans-6c" x="68.408203"/>
      <use xlink:href="#DejaVuSans-6c" x="96.191406"/>
     </g>
    </g>
   </g>
  </g>
 </g>
 <defs>
  <clipPath id="p85293b7ed4">
   <rect x="50.836875" y="10.999219" width="366.73" height="371.68"/>
  </clipPath>
 </defs>
</svg>
