<?xml version="1.0" encoding="utf-8" standalone="no"?>
<!DOCTYPE svg PUBLIC "-//W3C//DTD SVG 1.1//EN"
  "http://www.w3.org/Graphics/SVG/1.1/DTD/svg11.dtd">
<svg xmlns:xlink="http://www.w3.org/1999/xlink" width="424.766875pt" height="424.105312pt" viewBox="0 0 424.766875 424.105312" xmlns="http://www.w3.org/2000/svg" version="1.1">
 <metadata>
  <rdf:RDF xmlns:dc="http://purl.org/dc/elements/1.1/" xmlns:cc="http://creativecommons.org/ns#" xmlns:rdf="http://www.w3.org/1999/02/22-rdf-syntax-ns#">
   <cc:Work>
    <dc:type rdf:resource="http://purl.org/dc/dcmitype/StillImage"/>
    <dc:date>2024-04-17T11:51:35.780404</dc:date>
    <dc:format>image/svg+xml</dc:format>
    <dc:creator>
     <cc:Agent>
      <dc:title>Matplotlib v3.6.2, https://matplotlib.org/</dc:title>
     </cc:Agent>
    </dc:creator>
   </cc:Work>
  </rdf:RDF>
 </metadata>
 <defs>
  <style type="text/css">*{stroke-linejoin: round; stroke-linecap: butt}</style>
 </defs>
 <g id="figure_1">
  <g id="patch_1">
   <path d="M 0 424.105312 
L 424.766875 424.105312 
L 424.766875 0 
L 0 0 
z
" style="fill: #ffffff"/>
  </g>
  <g id="axes_1">
   <g id="patch_2">
    <path d="M 50.836875 382.677812 
L 417.566875 382.677812 
L 417.566875 23.837812 
L 50.836875 23.837812 
z
" style="fill: #ffffff"/>
   </g>
   <g id="matplotlib.axis_1">
    <g id="xtick_1">
     <g id="line2d_1">
      <defs>
       <path id="me7b869761a" d="M 0 0 
L 0 3.5 
" style="stroke: #000000; stroke-width: 0.8"/>
      </defs>
      <g>
       <use xlink:href="#me7b869761a" x="50.836875" y="382.677812" style="stroke: #000000; stroke-width: 0.8"/>
      </g>
     </g>
     <g id="text_1">
      <!-- 0 -->
      <g transform="translate(47.655625 397.27625) scale(0.1 -0.1)">
       <defs>
        <path id="DejaVuSans-30" d="M 2034 4250 
Q 1547 4250 1301 3770 
Q 1056 3291 1056 2328 
Q 1056 1369 1301 889 
Q 1547 409 2034 409 
Q 2525 409 2770 889 
Q 3016 1369 3016 2328 
Q 3016 3291 2770 3770 
Q 2525 4250 2034 4250 
z
M 2034 4750 
Q 2819 4750 3233 4129 
Q 3647 3509 3647 2328 
Q 3647 1150 3233 529 
Q 2819 -91 2034 -91 
Q 1250 -91 836 529 
Q 422 1150 422 2328 
Q 422 3509 836 4129 
Q 1250 4750 2034 4750 
z
" transform="scale(0.015625)"/>
       </defs>
       <use xlink:href="#DejaVuSans-30"/>
      </g>
     </g>
    </g>
    <g id="xtick_2">
     <g id="line2d_2">
      <g>
       <use xlink:href="#me7b869761a" x="130.560788" y="382.677812" style="stroke: #000000; stroke-width: 0.8"/>
      </g>
     </g>
     <g id="text_2">
      <!-- 20 -->
      <g transform="translate(124.198288 397.27625) scale(0.1 -0.1)">
       <defs>
        <path id="DejaVuSans-32" d="M 1228 531 
L 3431 531 
L 3431 0 
L 469 0 
L 469 531 
Q 828 903 1448 1529 
Q 2069 2156 2228 2338 
Q 2531 2678 2651 2914 
Q 2772 3150 2772 3378 
Q 2772 3750 2511 3984 
Q 2250 4219 1831 4219 
Q 1534 4219 1204 4116 
Q 875 4013 500 3803 
L 500 4441 
Q 881 4594 1212 4672 
Q 1544 4750 1819 4750 
Q 2544 4750 2975 4387 
Q 3406 4025 3406 3419 
Q 3406 3131 3298 2873 
Q 3191 2616 2906 2266 
Q 2828 2175 2409 1742 
Q 1991 1309 1228 531 
z
" transform="scale(0.015625)"/>
       </defs>
       <use xlink:href="#DejaVuSans-32"/>
       <use xlink:href="#DejaVuSans-30" x="63.623047"/>
      </g>
     </g>
    </g>
    <g id="xtick_3">
     <g id="line2d_3">
      <g>
       <use xlink:href="#me7b869761a" x="210.284701" y="382.677812" style="stroke: #000000; stroke-width: 0.8"/>
      </g>
     </g>
     <g id="text_3">
      <!-- 40 -->
      <g transform="translate(203.922201 397.27625) scale(0.1 -0.1)">
       <defs>
        <path id="DejaVuSans-34" d="M 2419 4116 
L 825 1625 
L 2419 1625 
L 2419 4116 
z
M 2253 4666 
L 3047 4666 
L 3047 1625 
L 3713 1625 
L 3713 1100 
L 3047 1100 
L 3047 0 
L 2419 0 
L 2419 1100 
L 313 1100 
L 313 1709 
L 2253 4666 
z
" transform="scale(0.015625)"/>
       </defs>
       <use xlink:href="#DejaVuSans-34"/>
       <use xlink:href="#DejaVuSans-30" x="63.623047"/>
      </g>
     </g>
    </g>
    <g id="xtick_4">
     <g id="line2d_4">
      <g>
       <use xlink:href="#me7b869761a" x="290.008614" y="382.677812" style="stroke: #000000; stroke-width: 0.8"/>
      </g>
     </g>
     <g id="text_4">
      <!-- 60 -->
      <g transform="translate(283.646114 397.27625) scale(0.1 -0.1)">
       <defs>
        <path id="DejaVuSans-36" d="M 2113 2584 
Q 1688 2584 1439 2293 
Q 1191 2003 1191 1497 
Q 1191 994 1439 701 
Q 1688 409 2113 409 
Q 2538 409 2786 701 
Q 3034 994 3034 1497 
Q 3034 2003 2786 2293 
Q 2538 2584 2113 2584 
z
M 3366 4563 
L 3366 3988 
Q 3128 4100 2886 4159 
Q 2644 4219 2406 4219 
Q 1781 4219 1451 3797 
Q 1122 3375 1075 2522 
Q 1259 2794 1537 2939 
Q 1816 3084 2150 3084 
Q 2853 3084 3261 2657 
Q 3669 2231 3669 1497 
Q 3669 778 3244 343 
Q 2819 -91 2113 -91 
Q 1303 -91 875 529 
Q 447 1150 447 2328 
Q 447 3434 972 4092 
Q 1497 4750 2381 4750 
Q 2619 4750 2861 4703 
Q 3103 4656 3366 4563 
z
" transform="scale(0.015625)"/>
       </defs>
       <use xlink:href="#DejaVuSans-36"/>
       <use xlink:href="#DejaVuSans-30" x="63.623047"/>
      </g>
     </g>
    </g>
    <g id="xtick_5">
     <g id="line2d_5">
      <g>
       <use xlink:href="#me7b869761a" x="369.732527" y="382.677812" style="stroke: #000000; stroke-width: 0.8"/>
      </g>
     </g>
     <g id="text_5">
      <!-- 80 -->
      <g transform="translate(363.370027 397.27625) scale(0.1 -0.1)">
       <defs>
        <path id="DejaVuSans-38" d="M 2034 2216 
Q 1584 2216 1326 1975 
Q 1069 1734 1069 1313 
Q 1069 891 1326 650 
Q 1584 409 2034 409 
Q 2484 409 2743 651 
Q 3003 894 3003 1313 
Q 3003 1734 2745 1975 
Q 2488 2216 2034 2216 
z
M 1403 2484 
Q 997 2584 770 2862 
Q 544 3141 544 3541 
Q 544 4100 942 4425 
Q 1341 4750 2034 4750 
Q 2731 4750 3128 4425 
Q 3525 4100 3525 3541 
Q 3525 3141 3298 2862 
Q 3072 2584 2669 2484 
Q 3125 2378 3379 2068 
Q 3634 1759 3634 1313 
Q 3634 634 3220 271 
Q 2806 -91 2034 -91 
Q 1263 -91 848 271 
Q 434 634 434 1313 
Q 434 1759 690 2068 
Q 947 2378 1403 2484 
z
M 1172 3481 
Q 1172 3119 1398 2916 
Q 1625 2713 2034 2713 
Q 2441 2713 2670 2916 
Q 2900 3119 2900 3481 
Q 2900 3844 2670 4047 
Q 2441 4250 2034 4250 
Q 1625 4250 1398 4047 
Q 1172 3844 1172 3481 
z
" transform="scale(0.015625)"/>
       </defs>
       <use xlink:href="#DejaVuSans-38"/>
       <use xlink:href="#DejaVuSans-30" x="63.623047"/>
      </g>
     </g>
    </g>
    <g id="text_6">
     <!-- Number of participants -->
     <g transform="translate(153.230469 413.99375) scale(0.14 -0.14)">
      <defs>
       <path id="DejaVuSans-4e" d="M 628 4666 
L 1478 4666 
L 3547 763 
L 3547 4666 
L 4159 4666 
L 4159 0 
L 3309 0 
L 1241 3903 
L 1241 0 
L 628 0 
L 628 4666 
z
" transform="scale(0.015625)"/>
       <path id="DejaVuSans-75" d="M 544 1381 
L 544 3500 
L 1119 3500 
L 1119 1403 
Q 1119 906 1312 657 
Q 1506 409 1894 409 
Q 2359 409 2629 706 
Q 2900 1003 2900 1516 
L 2900 3500 
L 3475 3500 
L 3475 0 
L 2900 0 
L 2900 538 
Q 2691 219 2414 64 
Q 2138 -91 1772 -91 
Q 1169 -91 856 284 
Q 544 659 544 1381 
z
M 1991 3584 
L 1991 3584 
z
" transform="scale(0.015625)"/>
       <path id="DejaVuSans-6d" d="M 3328 2828 
Q 3544 3216 3844 3400 
Q 4144 3584 4550 3584 
Q 5097 3584 5394 3201 
Q 5691 2819 5691 2113 
L 5691 0 
L 5113 0 
L 5113 2094 
Q 5113 2597 4934 2840 
Q 4756 3084 4391 3084 
Q 3944 3084 3684 2787 
Q 3425 2491 3425 1978 
L 3425 0 
L 2847 0 
L 2847 2094 
Q 2847 2600 2669 2842 
Q 2491 3084 2119 3084 
Q 1678 3084 1418 2786 
Q 1159 2488 1159 1978 
L 1159 0 
L 581 0 
L 581 3500 
L 1159 3500 
L 1159 2956 
Q 1356 3278 1631 3431 
Q 1906 3584 2284 3584 
Q 2666 3584 2933 3390 
Q 3200 3197 3328 2828 
z
" transform="scale(0.015625)"/>
       <path id="DejaVuSans-62" d="M 3116 1747 
Q 3116 2381 2855 2742 
Q 2594 3103 2138 3103 
Q 1681 3103 1420 2742 
Q 1159 2381 1159 1747 
Q 1159 1113 1420 752 
Q 1681 391 2138 391 
Q 2594 391 2855 752 
Q 3116 1113 3116 1747 
z
M 1159 2969 
Q 1341 3281 1617 3432 
Q 1894 3584 2278 3584 
Q 2916 3584 3314 3078 
Q 3713 2572 3713 1747 
Q 3713 922 3314 415 
Q 2916 -91 2278 -91 
Q 1894 -91 1617 61 
Q 1341 213 1159 525 
L 1159 0 
L 581 0 
L 581 4863 
L 1159 4863 
L 1159 2969 
z
" transform="scale(0.015625)"/>
       <path id="DejaVuSans-65" d="M 3597 1894 
L 3597 1613 
L 953 1613 
Q 991 1019 1311 708 
Q 1631 397 2203 397 
Q 2534 397 2845 478 
Q 3156 559 3463 722 
L 3463 178 
Q 3153 47 2828 -22 
Q 2503 -91 2169 -91 
Q 1331 -91 842 396 
Q 353 884 353 1716 
Q 353 2575 817 3079 
Q 1281 3584 2069 3584 
Q 2775 3584 3186 3129 
Q 3597 2675 3597 1894 
z
M 3022 2063 
Q 3016 2534 2758 2815 
Q 2500 3097 2075 3097 
Q 1594 3097 1305 2825 
Q 1016 2553 972 2059 
L 3022 2063 
z
" transform="scale(0.015625)"/>
       <path id="DejaVuSans-72" d="M 2631 2963 
Q 2534 3019 2420 3045 
Q 2306 3072 2169 3072 
Q 1681 3072 1420 2755 
Q 1159 2438 1159 1844 
L 1159 0 
L 581 0 
L 581 3500 
L 1159 3500 
L 1159 2956 
Q 1341 3275 1631 3429 
Q 1922 3584 2338 3584 
Q 2397 3584 2469 3576 
Q 2541 3569 2628 3553 
L 2631 2963 
z
" transform="scale(0.015625)"/>
       <path id="DejaVuSans-20" transform="scale(0.015625)"/>
       <path id="DejaVuSans-6f" d="M 1959 3097 
Q 1497 3097 1228 2736 
Q 959 2375 959 1747 
Q 959 1119 1226 758 
Q 1494 397 1959 397 
Q 2419 397 2687 759 
Q 2956 1122 2956 1747 
Q 2956 2369 2687 2733 
Q 2419 3097 1959 3097 
z
M 1959 3584 
Q 2709 3584 3137 3096 
Q 3566 2609 3566 1747 
Q 3566 888 3137 398 
Q 2709 -91 1959 -91 
Q 1206 -91 779 398 
Q 353 888 353 1747 
Q 353 2609 779 3096 
Q 1206 3584 1959 3584 
z
" transform="scale(0.015625)"/>
       <path id="DejaVuSans-66" d="M 2375 4863 
L 2375 4384 
L 1825 4384 
Q 1516 4384 1395 4259 
Q 1275 4134 1275 3809 
L 1275 3500 
L 2222 3500 
L 2222 3053 
L 1275 3053 
L 1275 0 
L 697 0 
L 697 3053 
L 147 3053 
L 147 3500 
L 697 3500 
L 697 3744 
Q 697 4328 969 4595 
Q 1241 4863 1831 4863 
L 2375 4863 
z
" transform="scale(0.015625)"/>
       <path id="DejaVuSans-70" d="M 1159 525 
L 1159 -1331 
L 581 -1331 
L 581 3500 
L 1159 3500 
L 1159 2969 
Q 1341 3281 1617 3432 
Q 1894 3584 2278 3584 
Q 2916 3584 3314 3078 
Q 3713 2572 3713 1747 
Q 3713 922 3314 415 
Q 2916 -91 2278 -91 
Q 1894 -91 1617 61 
Q 1341 213 1159 525 
z
M 3116 1747 
Q 3116 2381 2855 2742 
Q 2594 3103 2138 3103 
Q 1681 3103 1420 2742 
Q 1159 2381 1159 1747 
Q 1159 1113 1420 752 
Q 1681 391 2138 391 
Q 2594 391 2855 752 
Q 3116 1113 3116 1747 
z
" transform="scale(0.015625)"/>
       <path id="DejaVuSans-61" d="M 2194 1759 
Q 1497 1759 1228 1600 
Q 959 1441 959 1056 
Q 959 750 1161 570 
Q 1363 391 1709 391 
Q 2188 391 2477 730 
Q 2766 1069 2766 1631 
L 2766 1759 
L 2194 1759 
z
M 3341 1997 
L 3341 0 
L 2766 0 
L 2766 531 
Q 2569 213 2275 61 
Q 1981 -91 1556 -91 
Q 1019 -91 701 211 
Q 384 513 384 1019 
Q 384 1609 779 1909 
Q 1175 2209 1959 2209 
L 2766 2209 
L 2766 2266 
Q 2766 2663 2505 2880 
Q 2244 3097 1772 3097 
Q 1472 3097 1187 3025 
Q 903 2953 641 2809 
L 641 3341 
Q 956 3463 1253 3523 
Q 1550 3584 1831 3584 
Q 2591 3584 2966 3190 
Q 3341 2797 3341 1997 
z
" transform="scale(0.015625)"/>
       <path id="DejaVuSans-74" d="M 1172 4494 
L 1172 3500 
L 2356 3500 
L 2356 3053 
L 1172 3053 
L 1172 1153 
Q 1172 725 1289 603 
Q 1406 481 1766 481 
L 2356 481 
L 2356 0 
L 1766 0 
Q 1100 0 847 248 
Q 594 497 594 1153 
L 594 3053 
L 172 3053 
L 172 3500 
L 594 3500 
L 594 4494 
L 1172 4494 
z
" transform="scale(0.015625)"/>
       <path id="DejaVuSans-69" d="M 603 3500 
L 1178 3500 
L 1178 0 
L 603 0 
L 603 3500 
z
M 603 4863 
L 1178 4863 
L 1178 4134 
L 603 4134 
L 603 4863 
z
" transform="scale(0.015625)"/>
       <path id="DejaVuSans-63" d="M 3122 3366 
L 3122 2828 
Q 2878 2963 2633 3030 
Q 2388 3097 2138 3097 
Q 1578 3097 1268 2742 
Q 959 2388 959 1747 
Q 959 1106 1268 751 
Q 1578 397 2138 397 
Q 2388 397 2633 464 
Q 2878 531 3122 666 
L 3122 134 
Q 2881 22 2623 -34 
Q 2366 -91 2075 -91 
Q 1284 -91 818 406 
Q 353 903 353 1747 
Q 353 2603 823 3093 
Q 1294 3584 2113 3584 
Q 2378 3584 2631 3529 
Q 2884 3475 3122 3366 
z
" transform="scale(0.015625)"/>
       <path id="DejaVuSans-6e" d="M 3513 2113 
L 3513 0 
L 2938 0 
L 2938 2094 
Q 2938 2591 2744 2837 
Q 2550 3084 2163 3084 
Q 1697 3084 1428 2787 
Q 1159 2491 1159 1978 
L 1159 0 
L 581 0 
L 581 3500 
L 1159 3500 
L 1159 2956 
Q 1366 3272 1645 3428 
Q 1925 3584 2291 3584 
Q 2894 3584 3203 3211 
Q 3513 2838 3513 2113 
z
" transform="scale(0.015625)"/>
       <path id="DejaVuSans-73" d="M 2834 3397 
L 2834 2853 
Q 2591 2978 2328 3040 
Q 2066 3103 1784 3103 
Q 1356 3103 1142 2972 
Q 928 2841 928 2578 
Q 928 2378 1081 2264 
Q 1234 2150 1697 2047 
L 1894 2003 
Q 2506 1872 2764 1633 
Q 3022 1394 3022 966 
Q 3022 478 2636 193 
Q 2250 -91 1575 -91 
Q 1294 -91 989 -36 
Q 684 19 347 128 
L 347 722 
Q 666 556 975 473 
Q 1284 391 1588 391 
Q 1994 391 2212 530 
Q 2431 669 2431 922 
Q 2431 1156 2273 1281 
Q 2116 1406 1581 1522 
L 1381 1569 
Q 847 1681 609 1914 
Q 372 2147 372 2553 
Q 372 3047 722 3315 
Q 1072 3584 1716 3584 
Q 2034 3584 2315 3537 
Q 2597 3491 2834 3397 
z
" transform="scale(0.015625)"/>
      </defs>
      <use xlink:href="#DejaVuSans-4e"/>
      <use xlink:href="#DejaVuSans-75" x="74.804688"/>
      <use xlink:href="#DejaVuSans-6d" x="138.183594"/>
      <use xlink:href="#DejaVuSans-62" x="235.595703"/>
      <use xlink:href="#DejaVuSans-65" x="299.072266"/>
      <use xlink:href="#DejaVuSans-72" x="360.595703"/>
      <use xlink:href="#DejaVuSans-20" x="401.708984"/>
      <use xlink:href="#DejaVuSans-6f" x="433.496094"/>
      <use xlink:href="#DejaVuSans-66" x="494.677734"/>
      <use xlink:href="#DejaVuSans-20" x="529.882812"/>
      <use xlink:href="#DejaVuSans-70" x="561.669922"/>
      <use xlink:href="#DejaVuSans-61" x="625.146484"/>
      <use xlink:href="#DejaVuSans-72" x="686.425781"/>
      <use xlink:href="#DejaVuSans-74" x="727.539062"/>
      <use xlink:href="#DejaVuSans-69" x="766.748047"/>
      <use xlink:href="#DejaVuSans-63" x="794.53125"/>
      <use xlink:href="#DejaVuSans-69" x="849.511719"/>
      <use xlink:href="#DejaVuSans-70" x="877.294922"/>
      <use xlink:href="#DejaVuSans-61" x="940.771484"/>
      <use xlink:href="#DejaVuSans-6e" x="1002.050781"/>
      <use xlink:href="#DejaVuSans-74" x="1065.429688"/>
      <use xlink:href="#DejaVuSans-73" x="1104.638672"/>
     </g>
    </g>
   </g>
   <g id="matplotlib.axis_2">
    <g id="ytick_1">
     <g id="line2d_6">
      <path d="M 50.836875 382.677812 
L 417.566875 382.677812 
" clip-path="url(#pf0fb8ab710)" style="fill: none; stroke-dasharray: 2.96,1.28; stroke-dashoffset: 0; stroke: #c0c0c0; stroke-width: 0.8"/>
     </g>
     <g id="line2d_7">
      <defs>
       <path id="m4267d3c3e0" d="M 0 0 
L -3.5 0 
" style="stroke: #000000; stroke-width: 0.8"/>
      </defs>
      <g>
       <use xlink:href="#m4267d3c3e0" x="50.836875" y="382.677812" style="stroke: #000000; stroke-width: 0.8"/>
      </g>
     </g>
     <g id="text_7">
      <!-- 20 -->
      <g transform="translate(31.111875 386.477031) scale(0.1 -0.1)">
       <use xlink:href="#DejaVuSans-32"/>
       <use xlink:href="#DejaVuSans-30" x="63.623047"/>
      </g>
     </g>
    </g>
    <g id="ytick_2">
     <g id="line2d_8">
      <path d="M 50.836875 337.822812 
L 417.566875 337.822812 
" clip-path="url(#pf0fb8ab710)" style="fill: none; stroke-dasharray: 2.96,1.28; stroke-dashoffset: 0; stroke: #c0c0c0; stroke-width: 0.8"/>
     </g>
     <g id="line2d_9">
      <g>
       <use xlink:href="#m4267d3c3e0" x="50.836875" y="337.822812" style="stroke: #000000; stroke-width: 0.8"/>
      </g>
     </g>
     <g id="text_8">
      <!-- 30 -->
      <g transform="translate(31.111875 341.622031) scale(0.1 -0.1)">
       <defs>
        <path id="DejaVuSans-33" d="M 2597 2516 
Q 3050 2419 3304 2112 
Q 3559 1806 3559 1356 
Q 3559 666 3084 287 
Q 2609 -91 1734 -91 
Q 1441 -91 1130 -33 
Q 819 25 488 141 
L 488 750 
Q 750 597 1062 519 
Q 1375 441 1716 441 
Q 2309 441 2620 675 
Q 2931 909 2931 1356 
Q 2931 1769 2642 2001 
Q 2353 2234 1838 2234 
L 1294 2234 
L 1294 2753 
L 1863 2753 
Q 2328 2753 2575 2939 
Q 2822 3125 2822 3475 
Q 2822 3834 2567 4026 
Q 2313 4219 1838 4219 
Q 1578 4219 1281 4162 
Q 984 4106 628 3988 
L 628 4550 
Q 988 4650 1302 4700 
Q 1616 4750 1894 4750 
Q 2613 4750 3031 4423 
Q 3450 4097 3450 3541 
Q 3450 3153 3228 2886 
Q 3006 2619 2597 2516 
z
" transform="scale(0.015625)"/>
       </defs>
       <use xlink:href="#DejaVuSans-33"/>
       <use xlink:href="#DejaVuSans-30" x="63.623047"/>
      </g>
     </g>
    </g>
    <g id="ytick_3">
     <g id="line2d_10">
      <path d="M 50.836875 292.967812 
L 417.566875 292.967812 
" clip-path="url(#pf0fb8ab710)" style="fill: none; stroke-dasharray: 2.96,1.28; stroke-dashoffset: 0; stroke: #c0c0c0; stroke-width: 0.8"/>
     </g>
     <g id="line2d_11">
      <g>
       <use xlink:href="#m4267d3c3e0" x="50.836875" y="292.967812" style="stroke: #000000; stroke-width: 0.8"/>
      </g>
     </g>
     <g id="text_9">
      <!-- 40 -->
      <g transform="translate(31.111875 296.767031) scale(0.1 -0.1)">
       <use xlink:href="#DejaVuSans-34"/>
       <use xlink:href="#DejaVuSans-30" x="63.623047"/>
      </g>
     </g>
    </g>
    <g id="ytick_4">
     <g id="line2d_12">
      <path d="M 50.836875 248.112812 
L 417.566875 248.112812 
" clip-path="url(#pf0fb8ab710)" style="fill: none; stroke-dasharray: 2.96,1.28; stroke-dashoffset: 0; stroke: #c0c0c0; stroke-width: 0.8"/>
     </g>
     <g id="line2d_13">
      <g>
       <use xlink:href="#m4267d3c3e0" x="50.836875" y="248.112812" style="stroke: #000000; stroke-width: 0.8"/>
      </g>
     </g>
     <g id="text_10">
      <!-- 50 -->
      <g transform="translate(31.111875 251.912031) scale(0.1 -0.1)">
       <defs>
        <path id="DejaVuSans-35" d="M 691 4666 
L 3169 4666 
L 3169 4134 
L 1269 4134 
L 1269 2991 
Q 1406 3038 1543 3061 
Q 1681 3084 1819 3084 
Q 2600 3084 3056 2656 
Q 3513 2228 3513 1497 
Q 3513 744 3044 326 
Q 2575 -91 1722 -91 
Q 1428 -91 1123 -41 
Q 819 9 494 109 
L 494 744 
Q 775 591 1075 516 
Q 1375 441 1709 441 
Q 2250 441 2565 725 
Q 2881 1009 2881 1497 
Q 2881 1984 2565 2268 
Q 2250 2553 1709 2553 
Q 1456 2553 1204 2497 
Q 953 2441 691 2322 
L 691 4666 
z
" transform="scale(0.015625)"/>
       </defs>
       <use xlink:href="#DejaVuSans-35"/>
       <use xlink:href="#DejaVuSans-30" x="63.623047"/>
      </g>
     </g>
    </g>
    <g id="ytick_5">
     <g id="line2d_14">
      <path d="M 50.836875 203.257812 
L 417.566875 203.257812 
" clip-path="url(#pf0fb8ab710)" style="fill: none; stroke-dasharray: 2.96,1.28; stroke-dashoffset: 0; stroke: #c0c0c0; stroke-width: 0.8"/>
     </g>
     <g id="line2d_15">
      <g>
       <use xlink:href="#m4267d3c3e0" x="50.836875" y="203.257812" style="stroke: #000000; stroke-width: 0.8"/>
      </g>
     </g>
     <g id="text_11">
      <!-- 60 -->
      <g transform="translate(31.111875 207.057031) scale(0.1 -0.1)">
       <use xlink:href="#DejaVuSans-36"/>
       <use xlink:href="#DejaVuSans-30" x="63.623047"/>
      </g>
     </g>
    </g>
    <g id="ytick_6">
     <g id="line2d_16">
      <path d="M 50.836875 158.402812 
L 417.566875 158.402812 
" clip-path="url(#pf0fb8ab710)" style="fill: none; stroke-dasharray: 2.96,1.28; stroke-dashoffset: 0; stroke: #c0c0c0; stroke-width: 0.8"/>
     </g>
     <g id="line2d_17">
      <g>
       <use xlink:href="#m4267d3c3e0" x="50.836875" y="158.402812" style="stroke: #000000; stroke-width: 0.8"/>
      </g>
     </g>
     <g id="text_12">
      <!-- 70 -->
      <g transform="translate(31.111875 162.202031) scale(0.1 -0.1)">
       <defs>
        <path id="DejaVuSans-37" d="M 525 4666 
L 3525 4666 
L 3525 4397 
L 1831 0 
L 1172 0 
L 2766 4134 
L 525 4134 
L 525 4666 
z
" transform="scale(0.015625)"/>
       </defs>
       <use xlink:href="#DejaVuSans-37"/>
       <use xlink:href="#DejaVuSans-30" x="63.623047"/>
      </g>
     </g>
    </g>
    <g id="ytick_7">
     <g id="line2d_18">
      <path d="M 50.836875 113.547812 
L 417.566875 113.547812 
" clip-path="url(#pf0fb8ab710)" style="fill: none; stroke-dasharray: 2.96,1.28; stroke-dashoffset: 0; stroke: #c0c0c0; stroke-width: 0.8"/>
     </g>
     <g id="line2d_19">
      <g>
       <use xlink:href="#m4267d3c3e0" x="50.836875" y="113.547812" style="stroke: #000000; stroke-width: 0.8"/>
      </g>
     </g>
     <g id="text_13">
      <!-- 80 -->
      <g transform="translate(31.111875 117.347031) scale(0.1 -0.1)">
       <use xlink:href="#DejaVuSans-38"/>
       <use xlink:href="#DejaVuSans-30" x="63.623047"/>
      </g>
     </g>
    </g>
    <g id="ytick_8">
     <g id="line2d_20">
      <path d="M 50.836875 68.692812 
L 417.566875 68.692812 
" clip-path="url(#pf0fb8ab710)" style="fill: none; stroke-dasharray: 2.96,1.28; stroke-dashoffset: 0; stroke: #c0c0c0; stroke-width: 0.8"/>
     </g>
     <g id="line2d_21">
      <g>
       <use xlink:href="#m4267d3c3e0" x="50.836875" y="68.692812" style="stroke: #000000; stroke-width: 0.8"/>
      </g>
     </g>
     <g id="text_14">
      <!-- 90 -->
      <g transform="translate(31.111875 72.492031) scale(0.1 -0.1)">
       <defs>
        <path id="DejaVuSans-39" d="M 703 97 
L 703 672 
Q 941 559 1184 500 
Q 1428 441 1663 441 
Q 2288 441 2617 861 
Q 2947 1281 2994 2138 
Q 2813 1869 2534 1725 
Q 2256 1581 1919 1581 
Q 1219 1581 811 2004 
Q 403 2428 403 3163 
Q 403 3881 828 4315 
Q 1253 4750 1959 4750 
Q 2769 4750 3195 4129 
Q 3622 3509 3622 2328 
Q 3622 1225 3098 567 
Q 2575 -91 1691 -91 
Q 1453 -91 1209 -44 
Q 966 3 703 97 
z
M 1959 2075 
Q 2384 2075 2632 2365 
Q 2881 2656 2881 3163 
Q 2881 3666 2632 3958 
Q 2384 4250 1959 4250 
Q 1534 4250 1286 3958 
Q 1038 3666 1038 3163 
Q 1038 2656 1286 2365 
Q 1534 2075 1959 2075 
z
" transform="scale(0.015625)"/>
       </defs>
       <use xlink:href="#DejaVuSans-39"/>
       <use xlink:href="#DejaVuSans-30" x="63.623047"/>
      </g>
     </g>
    </g>
    <g id="ytick_9">
     <g id="line2d_22">
      <path d="M 50.836875 23.837812 
L 417.566875 23.837812 
" clip-path="url(#pf0fb8ab710)" style="fill: none; stroke-dasharray: 2.96,1.28; stroke-dashoffset: 0; stroke: #c0c0c0; stroke-width: 0.8"/>
     </g>
     <g id="line2d_23">
      <g>
       <use xlink:href="#m4267d3c3e0" x="50.836875" y="23.837812" style="stroke: #000000; stroke-width: 0.8"/>
      </g>
     </g>
     <g id="text_15">
      <!-- 100 -->
      <g transform="translate(24.749375 27.637031) scale(0.1 -0.1)">
       <defs>
        <path id="DejaVuSans-31" d="M 794 531 
L 1825 531 
L 1825 4091 
L 703 3866 
L 703 4441 
L 1819 4666 
L 2450 4666 
L 2450 531 
L 3481 531 
L 3481 0 
L 794 0 
L 794 531 
z
" transform="scale(0.015625)"/>
       </defs>
       <use xlink:href="#DejaVuSans-31"/>
       <use xlink:href="#DejaVuSans-30" x="63.623047"/>
       <use xlink:href="#DejaVuSans-30" x="127.246094"/>
      </g>
     </g>
    </g>
    <g id="text_16">
     <!-- Success Rate (%) -->
     <g transform="translate(17.837812 264.04625) rotate(-90) scale(0.14 -0.14)">
      <defs>
       <path id="DejaVuSans-53" d="M 3425 4513 
L 3425 3897 
Q 3066 4069 2747 4153 
Q 2428 4238 2131 4238 
Q 1616 4238 1336 4038 
Q 1056 3838 1056 3469 
Q 1056 3159 1242 3001 
Q 1428 2844 1947 2747 
L 2328 2669 
Q 3034 2534 3370 2195 
Q 3706 1856 3706 1288 
Q 3706 609 3251 259 
Q 2797 -91 1919 -91 
Q 1588 -91 1214 -16 
Q 841 59 441 206 
L 441 856 
Q 825 641 1194 531 
Q 1563 422 1919 422 
Q 2459 422 2753 634 
Q 3047 847 3047 1241 
Q 3047 1584 2836 1778 
Q 2625 1972 2144 2069 
L 1759 2144 
Q 1053 2284 737 2584 
Q 422 2884 422 3419 
Q 422 4038 858 4394 
Q 1294 4750 2059 4750 
Q 2388 4750 2728 4690 
Q 3069 4631 3425 4513 
z
" transform="scale(0.015625)"/>
       <path id="DejaVuSans-52" d="M 2841 2188 
Q 3044 2119 3236 1894 
Q 3428 1669 3622 1275 
L 4263 0 
L 3584 0 
L 2988 1197 
Q 2756 1666 2539 1819 
Q 2322 1972 1947 1972 
L 1259 1972 
L 1259 0 
L 628 0 
L 628 4666 
L 2053 4666 
Q 2853 4666 3247 4331 
Q 3641 3997 3641 3322 
Q 3641 2881 3436 2590 
Q 3231 2300 2841 2188 
z
M 1259 4147 
L 1259 2491 
L 2053 2491 
Q 2509 2491 2742 2702 
Q 2975 2913 2975 3322 
Q 2975 3731 2742 3939 
Q 2509 4147 2053 4147 
L 1259 4147 
z
" transform="scale(0.015625)"/>
       <path id="DejaVuSans-28" d="M 1984 4856 
Q 1566 4138 1362 3434 
Q 1159 2731 1159 2009 
Q 1159 1288 1364 580 
Q 1569 -128 1984 -844 
L 1484 -844 
Q 1016 -109 783 600 
Q 550 1309 550 2009 
Q 550 2706 781 3412 
Q 1013 4119 1484 4856 
L 1984 4856 
z
" transform="scale(0.015625)"/>
       <path id="DejaVuSans-25" d="M 4653 2053 
Q 4381 2053 4226 1822 
Q 4072 1591 4072 1178 
Q 4072 772 4226 539 
Q 4381 306 4653 306 
Q 4919 306 5073 539 
Q 5228 772 5228 1178 
Q 5228 1588 5073 1820 
Q 4919 2053 4653 2053 
z
M 4653 2450 
Q 5147 2450 5437 2106 
Q 5728 1763 5728 1178 
Q 5728 594 5436 251 
Q 5144 -91 4653 -91 
Q 4153 -91 3862 251 
Q 3572 594 3572 1178 
Q 3572 1766 3864 2108 
Q 4156 2450 4653 2450 
z
M 1428 4353 
Q 1159 4353 1004 4120 
Q 850 3888 850 3481 
Q 850 3069 1003 2837 
Q 1156 2606 1428 2606 
Q 1700 2606 1854 2837 
Q 2009 3069 2009 3481 
Q 2009 3884 1853 4118 
Q 1697 4353 1428 4353 
z
M 4250 4750 
L 4750 4750 
L 1831 -91 
L 1331 -91 
L 4250 4750 
z
M 1428 4750 
Q 1922 4750 2215 4408 
Q 2509 4066 2509 3481 
Q 2509 2891 2217 2550 
Q 1925 2209 1428 2209 
Q 931 2209 642 2551 
Q 353 2894 353 3481 
Q 353 4063 643 4406 
Q 934 4750 1428 4750 
z
" transform="scale(0.015625)"/>
       <path id="DejaVuSans-29" d="M 513 4856 
L 1013 4856 
Q 1481 4119 1714 3412 
Q 1947 2706 1947 2009 
Q 1947 1309 1714 600 
Q 1481 -109 1013 -844 
L 513 -844 
Q 928 -128 1133 580 
Q 1338 1288 1338 2009 
Q 1338 2731 1133 3434 
Q 928 4138 513 4856 
z
" transform="scale(0.015625)"/>
      </defs>
      <use xlink:href="#DejaVuSans-53"/>
      <use xlink:href="#DejaVuSans-75" x="63.476562"/>
      <use xlink:href="#DejaVuSans-63" x="126.855469"/>
      <use xlink:href="#DejaVuSans-63" x="181.835938"/>
      <use xlink:href="#DejaVuSans-65" x="236.816406"/>
      <use xlink:href="#DejaVuSans-73" x="298.339844"/>
      <use xlink:href="#DejaVuSans-73" x="350.439453"/>
      <use xlink:href="#DejaVuSans-20" x="402.539062"/>
      <use xlink:href="#DejaVuSans-52" x="434.326172"/>
      <use xlink:href="#DejaVuSans-61" x="501.558594"/>
      <use xlink:href="#DejaVuSans-74" x="562.837891"/>
      <use xlink:href="#DejaVuSans-65" x="602.046875"/>
      <use xlink:href="#DejaVuSans-20" x="663.570312"/>
      <use xlink:href="#DejaVuSans-28" x="695.357422"/>
      <use xlink:href="#DejaVuSans-25" x="734.371094"/>
      <use xlink:href="#DejaVuSans-29" x="829.390625"/>
     </g>
    </g>
   </g>
   <g id="PolyCollection_1">
    <defs>
     <path id="m6effda8026" d="M 50.836875 -175.9925 
L 50.836875 -175.9925 
L 54.823071 -178.826825 
L 58.809266 -208.275106 
L 62.795462 -262.648597 
L 66.781658 -288.724731 
L 70.767853 -279.300199 
L 74.754049 -275.935758 
L 78.740245 -294.072253 
L 82.72644 -310.871602 
L 86.712636 -313.807992 
L 90.698832 -314.343643 
L 94.685027 -312.954205 
L 98.671223 -311.929174 
L 102.657418 -322.344804 
L 106.643614 -336.941865 
L 110.62981 -347.283205 
L 114.616005 -346.930552 
L 118.602201 -342.791675 
L 122.588397 -345.470967 
L 126.574592 -351.420183 
L 130.560788 -351.702133 
L 134.546984 -347.358167 
L 138.533179 -344.858661 
L 142.519375 -346.728232 
L 146.505571 -350.814191 
L 150.491766 -353.757691 
L 154.477962 -353.347639 
L 158.464158 -352.7568 
L 162.450353 -353.575379 
L 166.436549 -356.417538 
L 170.422745 -359.474979 
L 174.40894 -361.492972 
L 178.395136 -362.376778 
L 182.381332 -363.034146 
L 186.367527 -364.129006 
L 190.353723 -365.253634 
L 194.339918 -364.396928 
L 198.326114 -362.669698 
L 202.31231 -364.90687 
L 206.298505 -368.254368 
L 210.284701 -370.933336 
L 214.270897 -373.442152 
L 218.257092 -374.628354 
L 222.243288 -374.063839 
L 226.229484 -373.114366 
L 230.215679 -372.800588 
L 234.201875 -375.239695 
L 238.188071 -379.975068 
L 242.174266 -381.231182 
L 246.160462 -379.596594 
L 250.146658 -379.589633 
L 254.132853 -380.311664 
L 258.119049 -379.920953 
L 262.105245 -379.798501 
L 266.09144 -380.736295 
L 270.077636 -381.858131 
L 274.063832 -381.498853 
L 278.050027 -380.109077 
L 282.036223 -381.093704 
L 286.022418 -384.019069 
L 290.008614 -386.288726 
L 293.99481 -386.702271 
L 297.981005 -386.376366 
L 301.967201 -386.426405 
L 305.953397 -387.023481 
L 309.939592 -387.987563 
L 313.925788 -388.514396 
L 317.911984 -388.896376 
L 321.898179 -388.89642 
L 325.884375 -388.842458 
L 329.870571 -389.812521 
L 333.856766 -390.735893 
L 337.842962 -391.309016 
L 341.829158 -392.02481 
L 345.815353 -392.087844 
L 349.801549 -391.95638 
L 353.787745 -392.840877 
L 357.77394 -393.39133 
L 361.760136 -392.882019 
L 365.746332 -391.654458 
L 369.732527 -391.510648 
L 373.718723 -393.237524 
L 377.704918 -394.599349 
L 381.691114 -395.160892 
L 385.67731 -396.064761 
L 389.663505 -396.953672 
L 393.649701 -397.410927 
L 397.635897 -398.193185 
L 401.622092 -399.394244 
L 405.608288 -400.099628 
L 409.594484 -400.254492 
L 413.580679 -400.26712 
L 417.566875 -400.2675 
L 417.566875 -400.2675 
L 417.566875 -400.2675 
L 413.580679 -400.265701 
L 409.594484 -400.206043 
L 405.608288 -399.477397 
L 401.622092 -396.191345 
L 397.635897 -390.705456 
L 393.649701 -387.289131 
L 389.663505 -386.062889 
L 385.67731 -384.56179 
L 381.691114 -383.09679 
L 377.704918 -382.279156 
L 373.718723 -380.504415 
L 369.732527 -378.224524 
L 365.746332 -378.322978 
L 361.760136 -379.861704 
L 357.77394 -380.530592 
L 353.787745 -379.823817 
L 349.801549 -378.42917 
L 345.815353 -377.988889 
L 341.829158 -377.388941 
L 337.842962 -376.44342 
L 333.856766 -376.016988 
L 329.870571 -375.161687 
L 325.884375 -374.03209 
L 321.898179 -373.712453 
L 317.911984 -373.237074 
L 313.925788 -372.697176 
L 309.939592 -372.102501 
L 305.953397 -371.036159 
L 301.967201 -370.575269 
L 297.981005 -370.388388 
L 293.99481 -370.021381 
L 290.008614 -369.273973 
L 286.022418 -367.131275 
L 282.036223 -363.772598 
L 278.050027 -361.776481 
L 274.063832 -362.558815 
L 270.077636 -362.482756 
L 266.09144 -361.37482 
L 262.105245 -361.16345 
L 258.119049 -361.666384 
L 254.132853 -361.582108 
L 250.146658 -359.87087 
L 246.160462 -359.405966 
L 242.174266 -361.154335 
L 238.188071 -359.917409 
L 234.201875 -354.741177 
L 230.215679 -352.008956 
L 226.229484 -352.65109 
L 222.243288 -353.92601 
L 218.257092 -353.433141 
L 214.270897 -350.932254 
L 210.284701 -348.417392 
L 206.298505 -345.553983 
L 202.31231 -340.863872 
L 198.326114 -336.943694 
L 194.339918 -337.400984 
L 190.353723 -337.632494 
L 186.367527 -337.864322 
L 182.381332 -338.697056 
L 178.395136 -338.697929 
L 174.40894 -336.814737 
L 170.422745 -331.667599 
L 166.436549 -326.937037 
L 162.450353 -326.445409 
L 158.464158 -326.78016 
L 154.477962 -325.707494 
L 150.491766 -324.345146 
L 146.505571 -319.821215 
L 142.519375 -316.820166 
L 138.533179 -316.595528 
L 134.546984 -319.125371 
L 130.560788 -323.750455 
L 126.574592 -322.856231 
L 122.588397 -314.594033 
L 118.602201 -310.925792 
L 114.616005 -316.880587 
L 110.62981 -316.086513 
L 106.643614 -301.207366 
L 102.657418 -285.095672 
L 98.671223 -275.703305 
L 94.685027 -276.285695 
L 90.698832 -274.691692 
L 86.712636 -269.431345 
L 82.72644 -264.463896 
L 78.740245 -251.274447 
L 74.754049 -232.435607 
L 70.767853 -229.837893 
L 66.781658 -235.224163 
L 62.795462 -209.575674 
L 58.809266 -168.034886 
L 54.823071 -158.457938 
L 50.836875 -175.9925 
z
" style="stroke: #66a61e; stroke-opacity: 0.1"/>
    </defs>
    <g clip-path="url(#pf0fb8ab710)">
     <use xlink:href="#m6effda8026" x="0" y="424.105312" style="fill: #66a61e; fill-opacity: 0.1; stroke: #66a61e; stroke-opacity: 0.1"/>
    </g>
   </g>
   <g id="PolyCollection_2">
    <defs>
     <path id="m0c33d9e0e4" d="M 50.836875 -135.623 
L 50.836875 -135.623 
L 54.823071 -179.538705 
L 58.809266 -204.149147 
L 62.795462 -198.818677 
L 66.781658 -188.021835 
L 70.767853 -192.775381 
L 74.754049 -198.800282 
L 78.740245 -198.438705 
L 82.72644 -195.740703 
L 86.712636 -202.726872 
L 90.698832 -213.346603 
L 94.685027 -226.64736 
L 98.671223 -236.493554 
L 102.657418 -232.481891 
L 106.643614 -220.385647 
L 110.62981 -216.463026 
L 114.616005 -221.318533 
L 118.602201 -224.962156 
L 122.588397 -228.733444 
L 126.574592 -232.719373 
L 130.560788 -234.898911 
L 134.546984 -238.344262 
L 138.533179 -240.166545 
L 142.519375 -237.18852 
L 146.505571 -235.181052 
L 150.491766 -236.019788 
L 154.477962 -235.335433 
L 158.464158 -234.995948 
L 162.450353 -236.408631 
L 166.436549 -237.975805 
L 170.422745 -236.841687 
L 174.40894 -235.150593 
L 178.395136 -235.348025 
L 182.381332 -236.05118 
L 186.367527 -236.674638 
L 190.353723 -238.21471 
L 194.339918 -241.022443 
L 198.326114 -244.840463 
L 202.31231 -246.319034 
L 206.298505 -245.689805 
L 210.284701 -243.411256 
L 214.270897 -242.603381 
L 218.257092 -244.361867 
L 222.243288 -246.713445 
L 226.229484 -248.18538 
L 230.215679 -250.012203 
L 234.201875 -251.156151 
L 238.188071 -249.708458 
L 242.174266 -249.359062 
L 246.160462 -250.959799 
L 250.146658 -253.161728 
L 254.132853 -255.227614 
L 258.119049 -254.487586 
L 262.105245 -252.31887 
L 266.09144 -251.288124 
L 270.077636 -251.610759 
L 274.063832 -252.817344 
L 278.050027 -254.878014 
L 282.036223 -256.15493 
L 286.022418 -255.204815 
L 290.008614 -253.504246 
L 293.99481 -253.542779 
L 297.981005 -253.907404 
L 301.967201 -253.34452 
L 305.953397 -254.286232 
L 309.939592 -256.186036 
L 313.925788 -257.265243 
L 317.911984 -256.467172 
L 321.898179 -255.983589 
L 325.884375 -256.805622 
L 329.870571 -256.751579 
L 333.856766 -256.477733 
L 337.842962 -257.009156 
L 341.829158 -257.331173 
L 345.815353 -256.905243 
L 349.801549 -257.333106 
L 353.787745 -257.747996 
L 357.77394 -257.752261 
L 361.760136 -259.973213 
L 365.746332 -262.495439 
L 369.732527 -262.092716 
L 373.718723 -260.674377 
L 377.704918 -260.122646 
L 381.691114 -259.904888 
L 385.67731 -259.048649 
L 389.663505 -258.190617 
L 393.649701 -257.960079 
L 397.635897 -258.417567 
L 401.622092 -257.253286 
L 405.608288 -253.741739 
L 409.594484 -251.349713 
L 413.580679 -250.798015 
L 417.566875 -250.752224 
L 417.566875 -250.749569 
L 417.566875 -250.749569 
L 413.580679 -250.707408 
L 409.594484 -250.187393 
L 405.608288 -247.771505 
L 401.622092 -243.311952 
L 397.635897 -239.478095 
L 393.649701 -237.718705 
L 389.663505 -237.95277 
L 385.67731 -239.253154 
L 381.691114 -240.285694 
L 377.704918 -239.90556 
L 373.718723 -239.921428 
L 369.732527 -241.664958 
L 365.746332 -243.019086 
L 361.760136 -240.776958 
L 357.77394 -237.800425 
L 353.787745 -237.209401 
L 349.801549 -236.702825 
L 345.815353 -236.268747 
L 341.829158 -237.165798 
L 337.842962 -237.131472 
L 333.856766 -236.136758 
L 329.870571 -235.919533 
L 325.884375 -236.278919 
L 321.898179 -235.41317 
L 317.911984 -235.469822 
L 313.925788 -236.252009 
L 309.939592 -235.004916 
L 305.953397 -232.769773 
L 301.967201 -231.683798 
L 297.981005 -232.341128 
L 293.99481 -232.316532 
L 290.008614 -232.076521 
L 286.022418 -233.500192 
L 282.036223 -234.66854 
L 278.050027 -232.991834 
L 274.063832 -230.002226 
L 270.077636 -228.830208 
L 266.09144 -229.072376 
L 262.105245 -230.33744 
L 258.119049 -232.57132 
L 254.132853 -233.639471 
L 250.146658 -231.294066 
L 246.160462 -227.99751 
L 242.174266 -226.044935 
L 238.188071 -225.936491 
L 234.201875 -226.647562 
L 230.215679 -225.39276 
L 226.229484 -223.572167 
L 222.243288 -222.08036 
L 218.257092 -219.893944 
L 214.270897 -218.28596 
L 210.284701 -219.10158 
L 206.298505 -220.557347 
L 202.31231 -220.397911 
L 198.326114 -218.727349 
L 194.339918 -212.606001 
L 190.353723 -206.762488 
L 186.367527 -205.406343 
L 182.381332 -207.099368 
L 178.395136 -207.274722 
L 174.40894 -207.151662 
L 170.422745 -208.853033 
L 166.436549 -211.234786 
L 162.450353 -210.964718 
L 158.464158 -209.322188 
L 154.477962 -209.007944 
L 150.491766 -209.101287 
L 146.505571 -206.737374 
L 142.519375 -205.939421 
L 138.533179 -205.020384 
L 134.546984 -200.847064 
L 130.560788 -197.656767 
L 126.574592 -196.449521 
L 122.588397 -194.329013 
L 118.602201 -191.571278 
L 114.616005 -187.818807 
L 110.62981 -183.28276 
L 106.643614 -189.203988 
L 102.657418 -202.416775 
L 98.671223 -204.246725 
L 94.685027 -190.84729 
L 90.698832 -176.263756 
L 86.712636 -165.863339 
L 82.72644 -160.880864 
L 78.740245 -165.902481 
L 74.754049 -164.078339 
L 70.767853 -154.859252 
L 66.781658 -149.147747 
L 62.795462 -157.627299 
L 58.809266 -165.261386 
L 54.823071 -155.819208 
L 50.836875 -135.623 
z
" style="stroke: #e7298a; stroke-opacity: 0.1"/>
    </defs>
    <g clip-path="url(#pf0fb8ab710)">
     <use xlink:href="#m0c33d9e0e4" x="0" y="424.105312" style="fill: #e7298a; fill-opacity: 0.1; stroke: #e7298a; stroke-opacity: 0.1"/>
    </g>
   </g>
   <g id="PolyCollection_3">
    <defs>
     <path id="m002636f635" d="M 50.836875 -122.1665 
L 50.836875 -122.1665 
L 54.823071 -118.025488 
L 58.809266 -123.329918 
L 62.795462 -138.312735 
L 66.781658 -147.905282 
L 70.767853 -152.20004 
L 74.754049 -160.403381 
L 78.740245 -169.27757 
L 82.72644 -171.81611 
L 86.712636 -171.611596 
L 90.698832 -173.112777 
L 94.685027 -174.667753 
L 98.671223 -175.82892 
L 102.657418 -173.57976 
L 106.643614 -170.784468 
L 110.62981 -170.96542 
L 114.616005 -173.864472 
L 118.602201 -178.108864 
L 122.588397 -182.382448 
L 126.574592 -184.940957 
L 130.560788 -185.326694 
L 134.546984 -185.093501 
L 138.533179 -186.244884 
L 142.519375 -188.629865 
L 146.505571 -192.265356 
L 150.491766 -194.176961 
L 154.477962 -192.821715 
L 158.464158 -191.670925 
L 162.450353 -192.701952 
L 166.436549 -193.304665 
L 170.422745 -193.165534 
L 174.40894 -193.238184 
L 178.395136 -193.901591 
L 182.381332 -195.646603 
L 186.367527 -197.642898 
L 190.353723 -199.009032 
L 194.339918 -200.715191 
L 198.326114 -200.965836 
L 202.31231 -198.227341 
L 206.298505 -195.858133 
L 210.284701 -197.641444 
L 214.270897 -201.723068 
L 218.257092 -204.187943 
L 222.243288 -204.385989 
L 226.229484 -203.430272 
L 230.215679 -202.822975 
L 234.201875 -203.332132 
L 238.188071 -203.732748 
L 242.174266 -203.741417 
L 246.160462 -204.327323 
L 250.146658 -205.246253 
L 254.132853 -205.823748 
L 258.119049 -206.692119 
L 262.105245 -207.708729 
L 266.09144 -208.973125 
L 270.077636 -210.309793 
L 274.063832 -210.849999 
L 278.050027 -211.168465 
L 282.036223 -211.624932 
L 286.022418 -211.734596 
L 290.008614 -211.671462 
L 293.99481 -211.943293 
L 297.981005 -211.769836 
L 301.967201 -211.510155 
L 305.953397 -212.570829 
L 309.939592 -214.501004 
L 313.925788 -215.391689 
L 317.911984 -215.7247 
L 321.898179 -215.687716 
L 325.884375 -215.216043 
L 329.870571 -215.480254 
L 333.856766 -217.205059 
L 337.842962 -219.059372 
L 341.829158 -219.679822 
L 345.815353 -219.251023 
L 349.801549 -219.629815 
L 353.787745 -220.596452 
L 357.77394 -221.321295 
L 361.760136 -222.060108 
L 365.746332 -222.542484 
L 369.732527 -222.698057 
L 373.718723 -222.801871 
L 377.704918 -223.086466 
L 381.691114 -223.606916 
L 385.67731 -224.204404 
L 389.663505 -224.526846 
L 393.649701 -224.827671 
L 397.635897 -225.477463 
L 401.622092 -226.313984 
L 405.608288 -227.166361 
L 409.594484 -227.63631 
L 413.580679 -227.739564 
L 417.566875 -227.748014 
L 417.566875 -227.747301 
L 417.566875 -227.747301 
L 413.580679 -227.715217 
L 409.594484 -227.323887 
L 405.608288 -225.559305 
L 401.622092 -222.534284 
L 397.635897 -220.212736 
L 393.649701 -218.940089 
L 389.663505 -218.354584 
L 385.67731 -217.709398 
L 381.691114 -216.613863 
L 377.704918 -215.874142 
L 373.718723 -215.628482 
L 369.732527 -215.464168 
L 365.746332 -215.090888 
L 361.760136 -214.175148 
L 357.77394 -212.922989 
L 353.787745 -212.081984 
L 349.801549 -211.005188 
L 345.815353 -210.615278 
L 341.829158 -211.050984 
L 337.842962 -210.088952 
L 333.856766 -207.846228 
L 329.870571 -205.628758 
L 325.884375 -204.987152 
L 321.898179 -205.216892 
L 317.911984 -205.384634 
L 313.925788 -204.936551 
L 309.939592 -203.649861 
L 305.953397 -201.537003 
L 301.967201 -200.581142 
L 297.981005 -200.854233 
L 293.99481 -200.503529 
L 290.008614 -199.752 
L 286.022418 -199.753791 
L 282.036223 -199.69473 
L 278.050027 -199.473308 
L 274.063832 -199.422296 
L 270.077636 -198.551003 
L 266.09144 -196.248597 
L 262.105245 -194.232883 
L 258.119049 -193.182495 
L 254.132853 -192.7825 
L 250.146658 -192.038384 
L 246.160462 -190.642377 
L 242.174266 -190.109505 
L 238.188071 -190.126703 
L 234.201875 -189.255918 
L 230.215679 -188.814603 
L 226.229484 -189.815755 
L 222.243288 -190.703752 
L 218.257092 -190.497713 
L 214.270897 -187.972662 
L 210.284701 -182.968368 
L 206.298505 -180.083945 
L 202.31231 -182.428441 
L 198.326114 -186.155262 
L 194.339918 -186.251023 
L 190.353723 -183.929517 
L 186.367527 -182.515803 
L 182.381332 -180.975698 
L 178.395136 -178.057879 
L 174.40894 -175.16378 
L 170.422745 -174.810545 
L 166.436549 -176.601871 
L 162.450353 -177.214788 
L 158.464158 -176.175622 
L 154.477962 -176.785334 
L 150.491766 -177.798407 
L 146.505571 -176.320052 
L 142.519375 -172.522552 
L 138.533179 -169.311546 
L 134.546984 -166.897696 
L 130.560788 -165.639735 
L 126.574592 -165.353299 
L 122.588397 -164.033676 
L 118.602201 -160.124226 
L 114.616005 -154.989269 
L 110.62981 -151.033926 
L 106.643614 -151.185397 
L 102.657418 -154.993705 
L 98.671223 -156.3366 
L 94.685027 -154.550135 
L 90.698832 -153.049339 
L 86.712636 -150.009909 
L 82.72644 -149.51227 
L 78.740245 -148.13834 
L 74.754049 -142.24549 
L 70.767853 -136.243061 
L 66.781658 -130.336141 
L 62.795462 -117.794748 
L 58.809266 -104.32658 
L 54.823071 -106.823122 
L 50.836875 -122.1665 
z
" style="stroke: #7570b3; stroke-opacity: 0.1"/>
    </defs>
    <g clip-path="url(#pf0fb8ab710)">
     <use xlink:href="#m002636f635" x="0" y="424.105312" style="fill: #7570b3; fill-opacity: 0.1; stroke: #7570b3; stroke-opacity: 0.1"/>
    </g>
   </g>
   <g id="PolyCollection_4">
    <defs>
     <path id="mbbb123bc14" d="M 50.836875 -99.739 
L 50.836875 -99.739 
L 54.823071 -119.514958 
L 58.809266 -143.198868 
L 62.795462 -162.500514 
L 66.781658 -164.935167 
L 70.767853 -161.863679 
L 74.754049 -163.966921 
L 78.740245 -177.564825 
L 82.72644 -187.256188 
L 86.712636 -185.30174 
L 90.698832 -176.704856 
L 94.685027 -170.101251 
L 98.671223 -167.001798 
L 102.657418 -170.752804 
L 106.643614 -179.963046 
L 110.62981 -180.062975 
L 114.616005 -175.412709 
L 118.602201 -175.571043 
L 122.588397 -176.622062 
L 126.574592 -177.378848 
L 130.560788 -178.826516 
L 134.546984 -177.539253 
L 138.533179 -175.192077 
L 142.519375 -176.975331 
L 146.505571 -177.82466 
L 150.491766 -173.609941 
L 154.477962 -173.24926 
L 158.464158 -176.731908 
L 162.450353 -173.827788 
L 166.436549 -168.592398 
L 170.422745 -169.461755 
L 174.40894 -172.476498 
L 178.395136 -174.238079 
L 182.381332 -172.991137 
L 186.367527 -170.065001 
L 190.353723 -168.782096 
L 194.339918 -168.325597 
L 198.326114 -169.347833 
L 202.31231 -170.422303 
L 206.298505 -169.744812 
L 210.284701 -167.716881 
L 214.270897 -165.773332 
L 218.257092 -165.132214 
L 222.243288 -164.03744 
L 226.229484 -163.151074 
L 230.215679 -163.057561 
L 234.201875 -162.934429 
L 238.188071 -164.065626 
L 242.174266 -166.850286 
L 246.160462 -167.760799 
L 250.146658 -166.561718 
L 254.132853 -166.264283 
L 258.119049 -167.185674 
L 262.105245 -168.08346 
L 266.09144 -167.606717 
L 270.077636 -166.727508 
L 274.063832 -166.955923 
L 278.050027 -167.460381 
L 282.036223 -166.43583 
L 286.022418 -164.96946 
L 290.008614 -164.003971 
L 293.99481 -164.078919 
L 297.981005 -164.673676 
L 301.967201 -164.299077 
L 305.953397 -162.619614 
L 309.939592 -161.872331 
L 313.925788 -162.853069 
L 317.911984 -164.087256 
L 321.898179 -164.797825 
L 325.884375 -164.813572 
L 329.870571 -162.771381 
L 333.856766 -160.848323 
L 337.842962 -161.856728 
L 341.829158 -163.514837 
L 345.815353 -163.412067 
L 349.801549 -161.616686 
L 353.787745 -160.56088 
L 357.77394 -162.111433 
L 361.760136 -162.578813 
L 365.746332 -159.937404 
L 369.732527 -157.371733 
L 373.718723 -156.254603 
L 377.704918 -156.509009 
L 381.691114 -156.634344 
L 385.67731 -155.655117 
L 389.663505 -154.06274 
L 393.649701 -152.300896 
L 397.635897 -151.310034 
L 401.622092 -151.091497 
L 405.608288 -151.073596 
L 409.594484 -151.073056 
L 413.580679 -151.073056 
L 417.566875 -151.073056 
L 417.566875 -151.073056 
L 417.566875 -151.073056 
L 413.580679 -151.073056 
L 409.594484 -151.073056 
L 405.608288 -151.072673 
L 401.622092 -151.059994 
L 397.635897 -150.905517 
L 393.649701 -150.212875 
L 389.663505 -149.068371 
L 385.67731 -148.364372 
L 381.691114 -148.19627 
L 377.704918 -148.212768 
L 373.718723 -148.275065 
L 369.732527 -148.412161 
L 365.746332 -149.054844 
L 361.760136 -149.84982 
L 357.77394 -149.572405 
L 353.787745 -148.820798 
L 349.801549 -148.880526 
L 345.815353 -149.521583 
L 341.829158 -149.550693 
L 337.842962 -148.934941 
L 333.856766 -148.878158 
L 329.870571 -149.722131 
L 325.884375 -150.251351 
L 321.898179 -149.891221 
L 317.911984 -149.309443 
L 313.925788 -148.062675 
L 309.939592 -147.044843 
L 305.953397 -147.635564 
L 301.967201 -148.46476 
L 297.981005 -148.04524 
L 293.99481 -147.383608 
L 290.008614 -147.288208 
L 286.022418 -147.726616 
L 282.036223 -149.176429 
L 278.050027 -150.403047 
L 274.063832 -150.276675 
L 270.077636 -150.273384 
L 266.09144 -150.609637 
L 262.105245 -149.909863 
L 258.119049 -148.493715 
L 254.132853 -147.761051 
L 250.146658 -148.049469 
L 246.160462 -148.541473 
L 242.174266 -146.762592 
L 238.188071 -144.093858 
L 234.201875 -143.445288 
L 230.215679 -143.481013 
L 226.229484 -142.857319 
L 222.243288 -143.01414 
L 218.257092 -143.184013 
L 214.270897 -142.830244 
L 210.284701 -144.930192 
L 206.298505 -147.828393 
L 202.31231 -148.99244 
L 198.326114 -148.031436 
L 194.339918 -146.821522 
L 190.353723 -146.208171 
L 186.367527 -145.999779 
L 182.381332 -148.099176 
L 178.395136 -149.251248 
L 174.40894 -146.715347 
L 170.422745 -143.593947 
L 166.436549 -142.725017 
L 162.450353 -145.409411 
L 158.464158 -146.595176 
L 154.477962 -143.908557 
L 150.491766 -144.728688 
L 146.505571 -147.622382 
L 142.519375 -146.657375 
L 138.533179 -146.143524 
L 134.546984 -147.957705 
L 130.560788 -148.359184 
L 126.574592 -148.172649 
L 122.588397 -147.821134 
L 118.602201 -144.976767 
L 114.616005 -141.630623 
L 110.62981 -144.541103 
L 106.643614 -145.513807 
L 102.657418 -138.846745 
L 98.671223 -134.021256 
L 94.685027 -134.050779 
L 90.698832 -137.463787 
L 86.712636 -142.829279 
L 82.72644 -141.353352 
L 78.740245 -129.449761 
L 74.754049 -118.010207 
L 70.767853 -119.440642 
L 66.781658 -125.18074 
L 62.795462 -118.653737 
L 58.809266 -97.618875 
L 54.823071 -90.220484 
L 50.836875 -99.739 
z
" style="stroke: #d95f02; stroke-opacity: 0.1"/>
    </defs>
    <g clip-path="url(#pf0fb8ab710)">
     <use xlink:href="#mbbb123bc14" x="0" y="424.105312" style="fill: #d95f02; fill-opacity: 0.1; stroke: #d95f02; stroke-opacity: 0.1"/>
    </g>
   </g>
   <g id="PolyCollection_5">
    <defs>
     <path id="m33e0438bd4" d="M 50.836875 -99.739 
L 50.836875 -99.739 
L 54.823071 -111.70392 
L 58.809266 -127.494054 
L 62.795462 -147.183598 
L 66.781658 -157.73672 
L 70.767853 -149.464496 
L 74.754049 -133.394256 
L 78.740245 -129.422907 
L 82.72644 -140.876981 
L 86.712636 -149.082715 
L 90.698832 -139.907081 
L 94.685027 -126.449683 
L 98.671223 -126.277599 
L 102.657418 -135.156728 
L 106.643614 -136.099563 
L 110.62981 -128.043277 
L 114.616005 -120.574891 
L 118.602201 -119.137856 
L 122.588397 -123.218631 
L 126.574592 -126.969925 
L 130.560788 -127.256449 
L 134.546984 -125.358108 
L 138.533179 -125.596043 
L 142.519375 -129.364387 
L 146.505571 -130.647156 
L 150.491766 -128.924741 
L 154.477962 -125.226815 
L 158.464158 -122.210649 
L 162.450353 -121.652336 
L 166.436549 -119.900712 
L 170.422745 -119.749727 
L 174.40894 -120.600323 
L 178.395136 -120.936381 
L 182.381332 -120.855473 
L 186.367527 -118.304166 
L 190.353723 -115.464897 
L 194.339918 -116.601806 
L 198.326114 -121.470555 
L 202.31231 -122.733225 
L 206.298505 -120.312069 
L 210.284701 -118.82939 
L 214.270897 -120.612707 
L 218.257092 -120.875927 
L 222.243288 -118.602177 
L 226.229484 -119.271386 
L 230.215679 -122.297749 
L 234.201875 -123.705524 
L 238.188071 -123.956202 
L 242.174266 -122.856604 
L 246.160462 -120.646355 
L 250.146658 -118.990452 
L 254.132853 -117.287783 
L 258.119049 -115.738874 
L 262.105245 -116.19783 
L 266.09144 -117.585099 
L 270.077636 -118.502142 
L 274.063832 -118.585753 
L 278.050027 -118.126611 
L 282.036223 -116.558453 
L 286.022418 -114.710477 
L 290.008614 -114.016088 
L 293.99481 -112.99374 
L 297.981005 -112.183163 
L 301.967201 -112.551111 
L 305.953397 -113.123734 
L 309.939592 -113.745666 
L 313.925788 -113.825039 
L 317.911984 -113.033667 
L 321.898179 -112.539369 
L 325.884375 -112.494694 
L 329.870571 -112.344394 
L 333.856766 -112.133332 
L 337.842962 -111.725979 
L 341.829158 -110.962892 
L 345.815353 -110.162963 
L 349.801549 -109.792387 
L 353.787745 -110.087846 
L 357.77394 -111.262791 
L 361.760136 -111.938067 
L 365.746332 -111.943272 
L 369.732527 -111.284264 
L 373.718723 -109.007851 
L 377.704918 -107.025456 
L 381.691114 -106.833165 
L 385.67731 -106.346796 
L 389.663505 -105.183562 
L 393.649701 -103.785839 
L 397.635897 -102.267236 
L 401.622092 -101.431031 
L 405.608288 -101.24939 
L 409.594484 -101.234611 
L 413.580679 -101.234167 
L 417.566875 -101.234167 
L 417.566875 -101.234167 
L 417.566875 -101.234167 
L 413.580679 -101.234167 
L 409.594484 -101.23383 
L 405.608288 -101.222698 
L 401.622092 -101.086952 
L 397.635897 -100.472766 
L 393.649701 -99.379631 
L 389.663505 -98.370399 
L 385.67731 -97.586163 
L 381.691114 -96.755084 
L 377.704918 -96.272186 
L 373.718723 -97.419419 
L 369.732527 -98.405504 
L 365.746332 -98.224833 
L 361.760136 -98.091099 
L 357.77394 -97.565669 
L 353.787745 -96.520752 
L 349.801549 -96.200041 
L 345.815353 -96.397858 
L 341.829158 -96.714881 
L 337.842962 -97.069251 
L 333.856766 -97.044953 
L 329.870571 -96.726691 
L 325.884375 -96.498286 
L 321.898179 -96.21471 
L 317.911984 -96.162704 
L 313.925788 -96.420252 
L 309.939592 -96.298303 
L 305.953397 -96.075718 
L 301.967201 -95.674305 
L 297.981005 -95.089355 
L 293.99481 -95.624168 
L 290.008614 -96.569567 
L 286.022418 -97.420344 
L 282.036223 -98.824684 
L 278.050027 -99.466067 
L 274.063832 -98.531432 
L 270.077636 -97.233516 
L 266.09144 -96.173244 
L 262.105245 -95.386069 
L 258.119049 -95.601722 
L 254.132853 -97.525888 
L 250.146658 -99.352089 
L 246.160462 -100.961154 
L 242.174266 -102.998735 
L 238.188071 -103.14901 
L 234.201875 -101.561532 
L 230.215679 -99.628025 
L 226.229484 -97.707734 
L 222.243288 -96.978353 
L 218.257092 -98.038372 
L 214.270897 -97.354962 
L 210.284701 -94.776882 
L 206.298505 -94.997436 
L 202.31231 -97.661224 
L 198.326114 -97.222773 
L 194.339918 -92.88354 
L 190.353723 -91.806893 
L 186.367527 -93.840539 
L 182.381332 -95.647762 
L 178.395136 -95.436057 
L 174.40894 -94.320663 
L 170.422745 -93.410543 
L 166.436549 -93.212933 
L 162.450353 -93.191095 
L 158.464158 -92.452219 
L 154.477962 -96.066641 
L 150.491766 -99.903204 
L 146.505571 -101.009513 
L 142.519375 -99.148555 
L 138.533179 -94.786528 
L 134.546984 -94.860423 
L 130.560788 -97.84288 
L 126.574592 -97.146524 
L 122.588397 -90.45341 
L 118.602201 -84.309229 
L 114.616005 -85.969835 
L 110.62981 -94.585533 
L 106.643614 -103.27995 
L 102.657418 -102.717363 
L 98.671223 -95.228655 
L 94.685027 -94.851553 
L 90.698832 -104.636996 
L 86.712636 -110.05142 
L 82.72644 -99.802973 
L 78.740245 -88.187671 
L 74.754049 -89.084092 
L 70.767853 -98.763371 
L 66.781658 -108.517041 
L 62.795462 -107.770429 
L 58.809266 -103.320466 
L 54.823071 -101.19268 
L 50.836875 -99.739 
z
" style="stroke: #1b9e77; stroke-opacity: 0.1"/>
    </defs>
    <g clip-path="url(#pf0fb8ab710)">
     <use xlink:href="#m33e0438bd4" x="0" y="424.105312" style="fill: #1b9e77; fill-opacity: 0.1; stroke: #1b9e77; stroke-opacity: 0.1"/>
    </g>
   </g>
   <g id="line2d_24">
    <path d="M 50.836875 248.112812 
L 54.823071 252.068116 
L 58.809266 229.243613 
L 62.795462 179.14769 
L 66.781658 153.214104 
L 70.767853 161.292549 
L 74.754049 162.669605 
L 78.740245 144.298995 
L 82.72644 128.702946 
L 86.712636 125.089537 
L 90.698832 122.978987 
L 94.685027 123.373944 
L 98.671223 124.251429 
L 102.657418 114.176886 
L 106.643614 99.074947 
L 110.62981 87.221005 
L 114.616005 87.191416 
L 118.602201 91.935599 
L 122.588397 88.926657 
L 126.574592 82.206447 
L 130.560788 81.720405 
L 134.546984 86.158077 
L 138.533179 88.667696 
L 142.519375 87.346436 
L 146.505571 83.622113 
L 150.491766 80.151803 
L 154.477962 79.971055 
L 158.464158 80.007393 
L 162.450353 79.573257 
L 166.436549 77.514608 
L 170.422745 73.89946 
L 174.40894 70.838419 
L 178.395136 69.621484 
L 182.381332 69.18353 
L 186.367527 68.731201 
L 190.353723 68.058725 
L 194.339918 68.707032 
L 198.326114 70.010949 
L 202.31231 67.212775 
L 206.298505 63.417739 
L 210.284701 60.677291 
L 214.270897 58.16646 
L 218.257092 56.54203 
L 222.243288 56.754083 
L 226.229484 57.812039 
L 230.215679 58.235269 
L 234.201875 55.698457 
L 238.188071 50.816131 
L 242.174266 49.566413 
L 246.160462 51.238928 
L 250.146658 51.0886 
L 254.132853 50.036834 
L 258.119049 50.269216 
L 262.105245 50.518495 
L 266.09144 49.822842 
L 270.077636 48.70564 
L 274.063832 48.919805 
L 278.050027 50.107101 
L 282.036223 48.78531 
L 286.022418 45.715508 
L 290.008614 43.488171 
L 293.99481 42.963338 
L 297.981005 43.058273 
L 301.967201 42.96262 
L 305.953397 42.410939 
L 309.939592 41.41277 
L 313.925788 40.863323 
L 317.911984 40.428704 
L 321.898179 40.270215 
L 325.884375 40.199644 
L 329.870571 39.176403 
L 333.856766 38.275721 
L 337.842962 37.751495 
L 341.829158 36.959125 
L 345.815353 36.71712 
L 349.801549 36.658003 
L 353.787745 35.603456 
L 357.77394 35.000895 
L 361.760136 35.563398 
L 365.746332 36.894681 
L 369.732527 37.023373 
L 373.718723 35.112159 
L 377.704918 33.612695 
L 381.691114 32.965788 
L 385.67731 31.874875 
L 389.663505 30.781901 
L 393.649701 30.068318 
L 397.635897 28.408037 
L 401.622092 25.778701 
L 405.608288 24.213095 
L 409.594484 23.86697 
L 413.580679 23.838665 
L 417.566875 23.837812 
" clip-path="url(#pf0fb8ab710)" style="fill: none; stroke: #66a61e; stroke-width: 2; stroke-linecap: square"/>
   </g>
   <g id="line2d_25">
    <path d="M 50.836875 248.112812 
L 54.823071 245.278487 
L 58.809266 215.830206 
L 62.795462 161.456715 
L 66.781658 135.380581 
L 70.767853 144.805113 
L 74.754049 148.169554 
L 78.740245 130.03306 
L 82.72644 113.233711 
L 86.712636 110.297321 
L 90.698832 109.76167 
L 94.685027 111.151107 
L 98.671223 112.176139 
L 102.657418 101.760508 
L 106.643614 87.163448 
L 110.62981 76.822107 
L 114.616005 77.174761 
L 118.602201 81.313638 
L 122.588397 78.634345 
L 126.574592 72.685129 
L 130.560788 72.403179 
L 134.546984 76.747145 
L 138.533179 79.246651 
L 142.519375 77.37708 
L 146.505571 73.291121 
L 150.491766 70.347622 
L 154.477962 70.757673 
L 158.464158 71.348513 
L 162.450353 70.529933 
L 166.436549 67.687775 
L 170.422745 64.630334 
L 174.40894 62.612341 
L 178.395136 61.728534 
L 182.381332 61.071167 
L 186.367527 59.976306 
L 190.353723 58.851678 
L 194.339918 59.708384 
L 198.326114 61.435614 
L 202.31231 59.198442 
L 206.298505 55.850944 
L 210.284701 53.171977 
L 214.270897 50.66316 
L 218.257092 49.476958 
L 222.243288 50.041474 
L 226.229484 50.990947 
L 230.215679 51.304725 
L 234.201875 48.865618 
L 238.188071 44.130245 
L 242.174266 42.874131 
L 246.160462 44.508718 
L 250.146658 44.515679 
L 254.132853 43.793648 
L 258.119049 44.184359 
L 262.105245 44.306811 
L 266.09144 43.369017 
L 270.077636 42.247181 
L 274.063832 42.606459 
L 278.050027 43.996236 
L 282.036223 43.011609 
L 286.022418 40.086244 
L 290.008614 37.816586 
L 293.99481 37.403041 
L 297.981005 37.728947 
L 301.967201 37.678908 
L 305.953397 37.081832 
L 309.939592 36.11775 
L 313.925788 35.590916 
L 317.911984 35.208937 
L 321.898179 35.208893 
L 325.884375 35.262854 
L 329.870571 34.292792 
L 333.856766 33.36942 
L 337.842962 32.796297 
L 341.829158 32.080502 
L 345.815353 32.017468 
L 349.801549 32.148933 
L 353.787745 31.264436 
L 357.77394 30.713982 
L 361.760136 31.223293 
L 365.746332 32.450855 
L 369.732527 32.594665 
L 373.718723 30.867789 
L 377.704918 29.505964 
L 381.691114 28.94442 
L 385.67731 28.040551 
L 389.663505 27.15164 
L 393.649701 26.694385 
L 397.635897 25.912128 
L 401.622092 24.711068 
L 405.608288 24.005684 
L 409.594484 23.85082 
L 413.580679 23.838192 
L 417.566875 23.837812 
" clip-path="url(#pf0fb8ab710)" style="fill: none; stroke-dasharray: 3.7,1.6; stroke-dashoffset: 0; stroke: #66a61e"/>
   </g>
   <g id="line2d_26">
    <path d="M 50.836875 248.112812 
L 54.823071 265.647374 
L 58.809266 256.070426 
L 62.795462 214.529639 
L 66.781658 188.881149 
L 70.767853 194.267419 
L 74.754049 191.669705 
L 78.740245 172.830865 
L 82.72644 159.641416 
L 86.712636 154.673968 
L 90.698832 149.41362 
L 94.685027 147.819617 
L 98.671223 148.402008 
L 102.657418 139.00964 
L 106.643614 122.897947 
L 110.62981 108.018799 
L 114.616005 107.224726 
L 118.602201 113.17952 
L 122.588397 109.51128 
L 126.574592 101.249081 
L 130.560788 100.354857 
L 134.546984 104.979942 
L 138.533179 107.509785 
L 142.519375 107.285146 
L 146.505571 104.284097 
L 150.491766 99.760166 
L 154.477962 98.397819 
L 158.464158 97.325152 
L 162.450353 97.659903 
L 166.436549 97.168275 
L 170.422745 92.437713 
L 174.40894 87.290575 
L 178.395136 85.407384 
L 182.381332 85.408257 
L 186.367527 86.240991 
L 190.353723 86.472819 
L 194.339918 86.704329 
L 198.326114 87.161618 
L 202.31231 83.24144 
L 206.298505 78.551329 
L 210.284701 75.68792 
L 214.270897 73.173059 
L 218.257092 70.672172 
L 222.243288 70.179302 
L 226.229484 71.454222 
L 230.215679 72.096357 
L 234.201875 69.364136 
L 238.188071 64.187904 
L 242.174266 62.950977 
L 246.160462 64.699347 
L 250.146658 64.234442 
L 254.132853 62.523205 
L 258.119049 62.438929 
L 262.105245 62.941863 
L 266.09144 62.730492 
L 270.077636 61.622557 
L 274.063832 61.546498 
L 278.050027 62.328832 
L 282.036223 60.332714 
L 286.022418 56.974037 
L 290.008614 54.83134 
L 293.99481 54.083932 
L 297.981005 53.716925 
L 301.967201 53.530043 
L 305.953397 53.069153 
L 309.939592 52.002811 
L 313.925788 51.408136 
L 317.911984 50.868238 
L 321.898179 50.39286 
L 325.884375 50.073222 
L 329.870571 48.943626 
L 333.856766 48.088324 
L 337.842962 47.661893 
L 341.829158 46.716372 
L 345.815353 46.116424 
L 349.801549 45.676143 
L 353.787745 44.281495 
L 357.77394 43.574721 
L 361.760136 44.243608 
L 365.746332 45.782334 
L 369.732527 45.880788 
L 373.718723 43.600898 
L 377.704918 41.826156 
L 381.691114 41.008523 
L 385.67731 39.543523 
L 389.663505 38.042423 
L 393.649701 36.816182 
L 397.635897 33.399856 
L 401.622092 27.913967 
L 405.608288 24.627916 
L 409.594484 23.89927 
L 413.580679 23.839611 
L 417.566875 23.837812 
" clip-path="url(#pf0fb8ab710)" style="fill: none; stroke-dasharray: 3.7,1.6; stroke-dashoffset: 0; stroke: #66a61e"/>
   </g>
   <g id="line2d_27">
    <path d="M 50.836875 288.482312 
L 54.823071 252.473106 
L 58.809266 232.918752 
L 62.795462 239.017095 
L 66.781658 249.041507 
L 70.767853 243.968641 
L 74.754049 236.879012 
L 78.740245 236.512016 
L 82.72644 239.984556 
L 86.712636 233.666285 
L 90.698832 223.119658 
L 94.685027 209.391309 
L 98.671223 198.360701 
L 102.657418 201.645127 
L 106.643614 214.113552 
L 110.62981 218.702375 
L 114.616005 213.953355 
L 118.602201 210.273449 
L 122.588397 206.840012 
L 126.574592 203.47589 
L 130.560788 201.620449 
L 134.546984 198.260117 
L 138.533179 195.654154 
L 142.519375 197.333159 
L 146.505571 198.405487 
L 150.491766 197.058358 
L 154.477962 197.545709 
L 158.464158 197.667284 
L 162.450353 196.177985 
L 166.436549 195.043181 
L 170.422745 196.593177 
L 174.40894 198.287697 
L 178.395136 198.115056 
L 182.381332 197.704736 
L 186.367527 197.85344 
L 190.353723 196.374676 
L 194.339918 192.555017 
L 198.326114 187.969221 
L 202.31231 186.426653 
L 206.298505 186.792994 
L 210.284701 188.797281 
L 214.270897 189.607738 
L 218.257092 187.89942 
L 222.243288 185.602896 
L 226.229484 184.124337 
L 230.215679 182.299591 
L 234.201875 181.118691 
L 238.188071 182.320844 
L 242.174266 182.517626 
L 246.160462 180.79961 
L 250.146658 178.232805 
L 254.132853 176.073746 
L 258.119049 176.923149 
L 262.105245 179.113586 
L 266.09144 180.222438 
L 270.077636 180.088071 
L 274.063832 178.893008 
L 278.050027 176.522692 
L 282.036223 175.112512 
L 286.022418 176.135372 
L 290.008614 177.743641 
L 293.99481 177.637949 
L 297.981005 177.386667 
L 301.967201 177.981033 
L 305.953397 176.991233 
L 309.939592 174.97965 
L 313.925788 173.844481 
L 317.911984 174.637257 
L 321.898179 174.97853 
L 325.884375 174.141925 
L 329.870571 174.297749 
L 333.856766 174.407905 
L 337.842962 173.722051 
L 341.829158 173.495931 
L 345.815353 174.078902 
L 349.801549 173.648967 
L 353.787745 173.203515 
L 357.77394 173.003663 
L 361.760136 170.530851 
L 365.746332 168.101991 
L 369.732527 168.821849 
L 373.718723 170.348585 
L 377.704918 170.721696 
L 381.691114 170.740156 
L 385.67731 171.655162 
L 389.663505 172.660645 
L 393.649701 172.892358 
L 397.635897 172.000903 
L 401.622092 171.499138 
L 405.608288 172.353652 
L 409.594484 173.14304 
L 413.580679 173.3375 
L 417.566875 173.353973 
" clip-path="url(#pf0fb8ab710)" style="fill: none; stroke: #e7298a; stroke-width: 2; stroke-linecap: square"/>
   </g>
   <g id="line2d_28">
    <path d="M 50.836875 288.482312 
L 54.823071 244.566607 
L 58.809266 219.956165 
L 62.795462 225.286636 
L 66.781658 236.083478 
L 70.767853 231.329931 
L 74.754049 225.305031 
L 78.740245 225.666607 
L 82.72644 228.36461 
L 86.712636 221.378441 
L 90.698832 210.758709 
L 94.685027 197.457952 
L 98.671223 187.611758 
L 102.657418 191.623421 
L 106.643614 203.719665 
L 110.62981 207.642286 
L 114.616005 202.786779 
L 118.602201 199.143157 
L 122.588397 195.371869 
L 126.574592 191.385939 
L 130.560788 189.206401 
L 134.546984 185.761051 
L 138.533179 183.938767 
L 142.519375 186.916793 
L 146.505571 188.924261 
L 150.491766 188.085525 
L 154.477962 188.769879 
L 158.464158 189.109364 
L 162.450353 187.696681 
L 166.436549 186.129508 
L 170.422745 187.263625 
L 174.40894 188.95472 
L 178.395136 188.757288 
L 182.381332 188.054132 
L 186.367527 187.430674 
L 190.353723 185.890603 
L 194.339918 183.082869 
L 198.326114 179.264849 
L 202.31231 177.786278 
L 206.298505 178.415508 
L 210.284701 180.694056 
L 214.270897 181.501931 
L 218.257092 179.743445 
L 222.243288 177.391868 
L 226.229484 175.919932 
L 230.215679 174.09311 
L 234.201875 172.949162 
L 238.188071 174.396854 
L 242.174266 174.74625 
L 246.160462 173.145513 
L 250.146658 170.943585 
L 254.132853 168.877699 
L 258.119049 169.617727 
L 262.105245 171.786443 
L 266.09144 172.817188 
L 270.077636 172.494554 
L 274.063832 171.287968 
L 278.050027 169.227299 
L 282.036223 167.950382 
L 286.022418 168.900497 
L 290.008614 170.601066 
L 293.99481 170.562533 
L 297.981005 170.197908 
L 301.967201 170.760792 
L 305.953397 169.81908 
L 309.939592 167.919277 
L 313.925788 166.84007 
L 317.911984 167.638141 
L 321.898179 168.121724 
L 325.884375 167.29969 
L 329.870571 167.353733 
L 333.856766 167.62758 
L 337.842962 167.096156 
L 341.829158 166.774139 
L 345.815353 167.20007 
L 349.801549 166.772207 
L 353.787745 166.357316 
L 357.77394 166.353051 
L 361.760136 164.1321 
L 365.746332 161.609873 
L 369.732527 162.012596 
L 373.718723 163.430936 
L 377.704918 163.982667 
L 381.691114 164.200425 
L 385.67731 165.056664 
L 389.663505 165.914696 
L 393.649701 166.145234 
L 397.635897 165.687746 
L 401.622092 166.852026 
L 405.608288 170.363574 
L 409.594484 172.7556 
L 413.580679 173.307298 
L 417.566875 173.353088 
" clip-path="url(#pf0fb8ab710)" style="fill: none; stroke-dasharray: 3.7,1.6; stroke-dashoffset: 0; stroke: #e7298a"/>
   </g>
   <g id="line2d_29">
    <path d="M 50.836875 288.482312 
L 54.823071 268.286105 
L 58.809266 258.843927 
L 62.795462 266.478014 
L 66.781658 274.957566 
L 70.767853 269.24606 
L 74.754049 260.026973 
L 78.740245 258.202832 
L 82.72644 263.224449 
L 86.712636 258.241974 
L 90.698832 247.841556 
L 94.685027 233.258022 
L 98.671223 219.858588 
L 102.657418 221.688538 
L 106.643614 234.901324 
L 110.62981 240.822552 
L 114.616005 236.286506 
L 118.602201 232.534034 
L 122.588397 229.7763 
L 126.574592 227.655792 
L 130.560788 226.448546 
L 134.546984 223.258249 
L 138.533179 219.084928 
L 142.519375 218.165892 
L 146.505571 217.367938 
L 150.491766 215.004026 
L 154.477962 215.097368 
L 158.464158 214.783125 
L 162.450353 213.140594 
L 166.436549 212.870526 
L 170.422745 215.252279 
L 174.40894 216.95365 
L 178.395136 216.830591 
L 182.381332 217.005945 
L 186.367527 218.69897 
L 190.353723 217.342824 
L 194.339918 211.499311 
L 198.326114 205.377964 
L 202.31231 203.707402 
L 206.298505 203.547966 
L 210.284701 205.003732 
L 214.270897 205.819352 
L 218.257092 204.211368 
L 222.243288 202.024952 
L 226.229484 200.533146 
L 230.215679 198.712553 
L 234.201875 197.457751 
L 238.188071 198.168822 
L 242.174266 198.060377 
L 246.160462 196.107803 
L 250.146658 192.811247 
L 254.132853 190.465842 
L 258.119049 191.533993 
L 262.105245 193.767873 
L 266.09144 195.032937 
L 270.077636 195.275104 
L 274.063832 194.103086 
L 278.050027 191.113478 
L 282.036223 189.436772 
L 286.022418 190.60512 
L 290.008614 192.028791 
L 293.99481 191.78878 
L 297.981005 191.764185 
L 301.967201 192.421515 
L 305.953397 191.335539 
L 309.939592 189.100397 
L 313.925788 187.853304 
L 317.911984 188.63549 
L 321.898179 188.692142 
L 325.884375 187.826393 
L 329.870571 188.18578 
L 333.856766 187.968555 
L 337.842962 186.97384 
L 341.829158 186.939515 
L 345.815353 187.836566 
L 349.801549 187.402487 
L 353.787745 186.895911 
L 357.77394 186.304888 
L 361.760136 183.328354 
L 365.746332 181.086227 
L 369.732527 182.440354 
L 373.718723 184.183885 
L 377.704918 184.199753 
L 381.691114 183.819619 
L 385.67731 184.852159 
L 389.663505 186.152543 
L 393.649701 186.386607 
L 397.635897 184.627217 
L 401.622092 180.793361 
L 405.608288 176.333807 
L 409.594484 173.91792 
L 413.580679 173.397904 
L 417.566875 173.355744 
" clip-path="url(#pf0fb8ab710)" style="fill: none; stroke-dasharray: 3.7,1.6; stroke-dashoffset: 0; stroke: #e7298a"/>
   </g>
   <g id="line2d_30">
    <path d="M 50.836875 301.938812 
L 54.823071 309.813947 
L 58.809266 307.10984 
L 62.795462 292.631906 
L 66.781658 282.056411 
L 70.767853 277.224265 
L 74.754049 269.754562 
L 78.740245 261.874152 
L 82.72644 259.723816 
L 86.712636 259.694278 
L 90.698832 257.680348 
L 94.685027 256.143432 
L 98.671223 254.773833 
L 102.657418 256.720904 
L 106.643614 259.853868 
L 110.62981 259.783724 
L 114.616005 256.532574 
L 118.602201 251.991328 
L 122.588397 247.839122 
L 126.574592 245.693575 
L 130.560788 245.340938 
L 134.546984 245.07708 
L 138.533179 243.504874 
L 142.519375 240.844552 
L 146.505571 237.155058 
L 150.491766 235.38787 
L 154.477962 236.629058 
L 158.464158 237.599489 
L 162.450353 236.565748 
L 166.436549 236.368245 
L 170.422745 237.058108 
L 174.40894 236.89193 
L 178.395136 235.484959 
L 182.381332 233.349011 
L 186.367527 231.504779 
L 190.353723 230.122786 
L 194.339918 228.211511 
L 198.326114 228.076334 
L 202.31231 231.144271 
L 206.298505 233.505242 
L 210.284701 231.354894 
L 214.270897 226.965713 
L 218.257092 224.48078 
L 222.243288 224.280069 
L 226.229484 225.213213 
L 230.215679 225.951795 
L 234.201875 225.465251 
L 238.188071 224.907913 
L 242.174266 224.907866 
L 246.160462 224.339638 
L 250.146658 223.261683 
L 254.132853 222.628647 
L 258.119049 221.916402 
L 262.105245 220.888532 
L 266.09144 219.373697 
L 270.077636 217.715117 
L 274.063832 217.064548 
L 278.050027 216.835233 
L 282.036223 216.457114 
L 286.022418 216.364318 
L 290.008614 216.407004 
L 293.99481 215.975274 
L 297.981005 215.974011 
L 301.967201 216.238162 
L 305.953397 215.212425 
L 309.939592 213.221356 
L 313.925788 212.19867 
L 317.911984 211.827301 
L 321.898179 211.907871 
L 325.884375 212.2989 
L 329.870571 211.90889 
L 333.856766 210.019864 
L 337.842962 208.03608 
L 341.829158 207.30177 
L 345.815353 207.732872 
L 349.801549 207.350373 
L 353.787745 206.347017 
L 357.77394 205.583453 
L 361.760136 204.673524 
L 365.746332 204.046694 
L 369.732527 203.818552 
L 373.718723 203.694572 
L 377.704918 203.422954 
L 381.691114 202.829414 
L 385.67731 202.06591 
L 389.663505 201.635887 
L 393.649701 201.240169 
L 397.635897 200.382758 
L 401.622092 199.051228 
L 405.608288 197.474637 
L 409.594484 196.573143 
L 413.580679 196.373864 
L 417.566875 196.357536 
" clip-path="url(#pf0fb8ab710)" style="fill: none; stroke: #7570b3; stroke-width: 2; stroke-linecap: square"/>
   </g>
   <g id="line2d_31">
    <path d="M 50.836875 301.938812 
L 54.823071 306.079825 
L 58.809266 300.775394 
L 62.795462 285.792577 
L 66.781658 276.200031 
L 70.767853 271.905272 
L 74.754049 263.701932 
L 78.740245 254.827742 
L 82.72644 252.289202 
L 86.712636 252.493716 
L 90.698832 250.992536 
L 94.685027 249.437559 
L 98.671223 248.276393 
L 102.657418 250.525553 
L 106.643614 253.320845 
L 110.62981 253.139893 
L 114.616005 250.24084 
L 118.602201 245.996448 
L 122.588397 241.722864 
L 126.574592 239.164356 
L 130.560788 238.778618 
L 134.546984 239.011812 
L 138.533179 237.860428 
L 142.519375 235.475448 
L 146.505571 231.839957 
L 150.491766 229.928352 
L 154.477962 231.283598 
L 158.464158 232.434388 
L 162.450353 231.40336 
L 166.436549 230.800647 
L 170.422745 230.939779 
L 174.40894 230.867129 
L 178.395136 230.203721 
L 182.381332 228.45871 
L 186.367527 226.462415 
L 190.353723 225.096281 
L 194.339918 223.390121 
L 198.326114 223.139476 
L 202.31231 225.877971 
L 206.298505 228.247179 
L 210.284701 226.463868 
L 214.270897 222.382245 
L 218.257092 219.917369 
L 222.243288 219.719323 
L 226.229484 220.675041 
L 230.215679 221.282337 
L 234.201875 220.77318 
L 238.188071 220.372565 
L 242.174266 220.363895 
L 246.160462 219.77799 
L 250.146658 218.859059 
L 254.132853 218.281564 
L 258.119049 217.413194 
L 262.105245 216.396584 
L 266.09144 215.132188 
L 270.077636 213.79552 
L 274.063832 213.255313 
L 278.050027 212.936848 
L 282.036223 212.48038 
L 286.022418 212.370717 
L 290.008614 212.43385 
L 293.99481 212.162019 
L 297.981005 212.335476 
L 301.967201 212.595157 
L 305.953397 211.534483 
L 309.939592 209.604309 
L 313.925788 208.713624 
L 317.911984 208.380612 
L 321.898179 208.417597 
L 325.884375 208.889269 
L 329.870571 208.625058 
L 333.856766 206.900254 
L 337.842962 205.04594 
L 341.829158 204.42549 
L 345.815353 204.85429 
L 349.801549 204.475497 
L 353.787745 203.508861 
L 357.77394 202.784018 
L 361.760136 202.045205 
L 365.746332 201.562828 
L 369.732527 201.407256 
L 373.718723 201.303442 
L 377.704918 201.018846 
L 381.691114 200.498397 
L 385.67731 199.900908 
L 389.663505 199.578467 
L 393.649701 199.277642 
L 397.635897 198.627849 
L 401.622092 197.791328 
L 405.608288 196.938951 
L 409.594484 196.469003 
L 413.580679 196.365749 
L 417.566875 196.357298 
" clip-path="url(#pf0fb8ab710)" style="fill: none; stroke-dasharray: 3.7,1.6; stroke-dashoffset: 0; stroke: #7570b3"/>
   </g>
   <g id="line2d_32">
    <path d="M 50.836875 301.938812 
L 54.823071 317.282191 
L 58.809266 319.778733 
L 62.795462 306.310564 
L 66.781658 293.769172 
L 70.767853 287.862251 
L 74.754049 281.859823 
L 78.740245 275.966972 
L 82.72644 274.593042 
L 86.712636 274.095403 
L 90.698832 271.055974 
L 94.685027 269.555178 
L 98.671223 267.768713 
L 102.657418 269.111607 
L 106.643614 272.919916 
L 110.62981 273.071387 
L 114.616005 269.116043 
L 118.602201 263.981087 
L 122.588397 260.071636 
L 126.574592 258.752013 
L 130.560788 258.465578 
L 134.546984 257.207616 
L 138.533179 254.793766 
L 142.519375 251.582761 
L 146.505571 247.785261 
L 150.491766 246.306906 
L 154.477962 247.319979 
L 158.464158 247.92969 
L 162.450353 246.890525 
L 166.436549 247.503441 
L 170.422745 249.294767 
L 174.40894 248.941533 
L 178.395136 246.047434 
L 182.381332 243.129614 
L 186.367527 241.589509 
L 190.353723 240.175795 
L 194.339918 237.854289 
L 198.326114 237.950051 
L 202.31231 241.676872 
L 206.298505 244.021367 
L 210.284701 241.136945 
L 214.270897 236.13265 
L 218.257092 233.6076 
L 222.243288 233.401561 
L 226.229484 234.289558 
L 230.215679 235.290709 
L 234.201875 234.849394 
L 238.188071 233.978609 
L 242.174266 233.995808 
L 246.160462 233.462935 
L 250.146658 232.066929 
L 254.132853 231.322813 
L 258.119049 230.922818 
L 262.105245 229.872429 
L 266.09144 227.856716 
L 270.077636 225.55431 
L 274.063832 224.683016 
L 278.050027 224.632004 
L 282.036223 224.410582 
L 286.022418 224.351522 
L 290.008614 224.353313 
L 293.99481 223.601783 
L 297.981005 223.251079 
L 301.967201 223.52417 
L 305.953397 222.56831 
L 309.939592 220.455452 
L 313.925788 219.168761 
L 317.911984 218.720679 
L 321.898179 218.88842 
L 325.884375 219.118161 
L 329.870571 218.476555 
L 333.856766 216.259085 
L 337.842962 214.016361 
L 341.829158 213.054328 
L 345.815353 213.490035 
L 349.801549 213.100125 
L 353.787745 212.023329 
L 357.77394 211.182323 
L 361.760136 209.930164 
L 365.746332 209.014425 
L 369.732527 208.641145 
L 373.718723 208.476831 
L 377.704918 208.231171 
L 381.691114 207.491449 
L 385.67731 206.395914 
L 389.663505 205.750728 
L 393.649701 205.165224 
L 397.635897 203.892577 
L 401.622092 201.571028 
L 405.608288 198.546008 
L 409.594484 196.781425 
L 413.580679 196.390096 
L 417.566875 196.358012 
" clip-path="url(#pf0fb8ab710)" style="fill: none; stroke-dasharray: 3.7,1.6; stroke-dashoffset: 0; stroke: #7570b3"/>
   </g>
   <g id="line2d_33">
    <path d="M 50.836875 324.366312 
L 54.823071 314.355179 
L 58.809266 296.099776 
L 62.795462 276.220391 
L 66.781658 272.421621 
L 70.767853 276.382646 
L 74.754049 275.457296 
L 78.740245 262.578842 
L 82.72644 252.15007 
L 86.712636 252.96106 
L 90.698832 260.480813 
L 94.685027 266.020886 
L 98.671223 268.097028 
L 102.657418 263.987861 
L 106.643614 255.625346 
L 110.62981 255.882962 
L 114.616005 259.953299 
L 118.602201 258.732362 
L 122.588397 257.08356 
L 126.574592 256.461864 
L 130.560788 255.434574 
L 134.546984 256.426576 
L 138.533179 258.596087 
L 142.519375 257.235967 
L 146.505571 256.348079 
L 150.491766 260.122456 
L 154.477962 260.636286 
L 158.464158 257.418982 
L 162.450353 259.750316 
L 166.436549 264.135375 
L 170.422745 263.26616 
L 174.40894 260.215865 
L 178.395136 258.196177 
L 182.381332 259.411496 
L 186.367527 262.062052 
L 190.353723 262.847858 
L 194.339918 262.94774 
L 198.326114 261.862945 
L 202.31231 260.826297 
L 206.298505 261.665973 
L 210.284701 263.983994 
L 214.270897 265.979677 
L 218.257092 266.289165 
L 222.243288 267.075639 
L 226.229484 267.718823 
L 230.215679 267.573268 
L 234.201875 267.667263 
L 238.188071 266.696942 
L 242.174266 263.950924 
L 246.160462 262.750955 
L 250.146658 263.714344 
L 254.132853 264.008774 
L 258.119049 263.150291 
L 262.105245 262.079718 
L 266.09144 262.164289 
L 270.077636 262.862513 
L 274.063832 262.709139 
L 278.050027 262.330709 
L 282.036223 263.422616 
L 286.022418 264.883467 
L 290.008614 265.673262 
L 293.99481 265.591497 
L 297.981005 264.974448 
L 301.967201 265.084341 
L 305.953397 266.480381 
L 309.939592 267.175478 
L 313.925788 266.182375 
L 317.911984 264.943994 
L 321.898179 264.276356 
L 325.884375 264.145814 
L 329.870571 265.683681 
L 333.856766 267.247045 
L 337.842962 266.555847 
L 341.829158 265.24519 
L 345.815353 265.323407 
L 349.801549 266.734013 
L 353.787745 267.457793 
L 357.77394 266.173556 
L 361.760136 265.769497 
L 365.746332 267.795429 
L 369.732527 269.720103 
L 373.718723 270.510556 
L 377.704918 270.361717 
L 381.691114 270.28366 
L 385.67731 270.880444 
L 389.663505 271.707362 
L 393.649701 272.500423 
L 397.635897 272.930118 
L 401.622092 273.024316 
L 405.608288 273.032024 
L 409.594484 273.032257 
L 413.580679 273.032257 
L 417.566875 273.032257 
" clip-path="url(#pf0fb8ab710)" style="fill: none; stroke: #d95f02; stroke-width: 2; stroke-linecap: square"/>
   </g>
   <g id="line2d_34">
    <path d="M 50.836875 324.366312 
L 54.823071 304.590354 
L 58.809266 280.906445 
L 62.795462 261.604799 
L 66.781658 259.170146 
L 70.767853 262.241633 
L 74.754049 260.138392 
L 78.740245 246.540487 
L 82.72644 236.849125 
L 86.712636 238.803573 
L 90.698832 247.400457 
L 94.685027 254.004062 
L 98.671223 257.103515 
L 102.657418 253.352509 
L 106.643614 244.142267 
L 110.62981 244.042338 
L 114.616005 248.692603 
L 118.602201 248.53427 
L 122.588397 247.483251 
L 126.574592 246.726464 
L 130.560788 245.278796 
L 134.546984 246.56606 
L 138.533179 248.913236 
L 142.519375 247.129981 
L 146.505571 246.280653 
L 150.491766 250.495372 
L 154.477962 250.856052 
L 158.464158 247.373404 
L 162.450353 250.277524 
L 166.436549 255.512914 
L 170.422745 254.643557 
L 174.40894 251.628814 
L 178.395136 249.867234 
L 182.381332 251.114176 
L 186.367527 254.040312 
L 190.353723 255.323216 
L 194.339918 255.779715 
L 198.326114 254.757479 
L 202.31231 253.683009 
L 206.298505 254.3605 
L 210.284701 256.388431 
L 214.270897 258.331981 
L 218.257092 258.973098 
L 222.243288 260.067872 
L 226.229484 260.954239 
L 230.215679 261.047752 
L 234.201875 261.170883 
L 238.188071 260.039686 
L 242.174266 257.255026 
L 246.160462 256.344513 
L 250.146658 257.543594 
L 254.132853 257.84103 
L 258.119049 256.919638 
L 262.105245 256.021853 
L 266.09144 256.498596 
L 270.077636 257.377805 
L 274.063832 257.14939 
L 278.050027 256.644931 
L 282.036223 257.669482 
L 286.022418 259.135853 
L 290.008614 260.101341 
L 293.99481 260.026393 
L 297.981005 259.431637 
L 301.967201 259.806235 
L 305.953397 261.485698 
L 309.939592 262.232982 
L 313.925788 261.252244 
L 317.911984 260.018056 
L 321.898179 259.307488 
L 325.884375 259.291741 
L 329.870571 261.333931 
L 333.856766 263.25699 
L 337.842962 262.248585 
L 341.829158 260.590476 
L 345.815353 260.693245 
L 349.801549 262.488626 
L 353.787745 263.544433 
L 357.77394 261.99388 
L 361.760136 261.526499 
L 365.746332 264.167909 
L 369.732527 266.733579 
L 373.718723 267.85071 
L 377.704918 267.596303 
L 381.691114 267.470969 
L 385.67731 268.450196 
L 389.663505 270.042573 
L 393.649701 271.804416 
L 397.635897 272.795279 
L 401.622092 273.013815 
L 405.608288 273.031717 
L 409.594484 273.032257 
L 413.580679 273.032257 
L 417.566875 273.032257 
" clip-path="url(#pf0fb8ab710)" style="fill: none; stroke-dasharray: 3.7,1.6; stroke-dashoffset: 0; stroke: #d95f02"/>
   </g>
   <g id="line2d_35">
    <path d="M 50.836875 324.366312 
L 54.823071 333.884828 
L 58.809266 326.486438 
L 62.795462 305.451576 
L 66.781658 298.924572 
L 70.767853 304.66467 
L 74.754049 306.095106 
L 78.740245 294.655551 
L 82.72644 282.751961 
L 86.712636 281.276033 
L 90.698832 286.641525 
L 94.685027 290.054534 
L 98.671223 290.084056 
L 102.657418 285.258567 
L 106.643614 278.591506 
L 110.62981 279.56421 
L 114.616005 282.47469 
L 118.602201 279.128545 
L 122.588397 276.284179 
L 126.574592 275.932664 
L 130.560788 275.746129 
L 134.546984 276.147608 
L 138.533179 277.961789 
L 142.519375 277.447937 
L 146.505571 276.482931 
L 150.491766 279.376625 
L 154.477962 280.196755 
L 158.464158 277.510136 
L 162.450353 278.695901 
L 166.436549 281.380296 
L 170.422745 280.511366 
L 174.40894 277.389966 
L 178.395136 274.854065 
L 182.381332 276.006137 
L 186.367527 278.105533 
L 190.353723 277.897141 
L 194.339918 277.28379 
L 198.326114 276.073876 
L 202.31231 275.112873 
L 206.298505 276.276919 
L 210.284701 279.17512 
L 214.270897 281.275069 
L 218.257092 280.9213 
L 222.243288 281.091172 
L 226.229484 281.247993 
L 230.215679 280.6243 
L 234.201875 280.660024 
L 238.188071 280.011455 
L 242.174266 277.34272 
L 246.160462 275.563839 
L 250.146658 276.055844 
L 254.132853 276.344262 
L 258.119049 275.611598 
L 262.105245 274.195449 
L 266.09144 273.495675 
L 270.077636 273.831929 
L 274.063832 273.828637 
L 278.050027 273.702266 
L 282.036223 274.928884 
L 286.022418 276.378697 
L 290.008614 276.817105 
L 293.99481 276.721704 
L 297.981005 276.060072 
L 301.967201 275.640553 
L 305.953397 276.469748 
L 309.939592 277.060469 
L 313.925788 276.042638 
L 317.911984 274.795869 
L 321.898179 274.214092 
L 325.884375 273.853962 
L 329.870571 274.383182 
L 333.856766 275.227154 
L 337.842962 275.170371 
L 341.829158 274.55462 
L 345.815353 274.58373 
L 349.801549 275.224787 
L 353.787745 275.284514 
L 357.77394 274.532908 
L 361.760136 274.255493 
L 365.746332 275.050469 
L 369.732527 275.693152 
L 373.718723 275.830248 
L 377.704918 275.892544 
L 381.691114 275.909043 
L 385.67731 275.74094 
L 389.663505 275.036941 
L 393.649701 273.892437 
L 397.635897 273.199795 
L 401.622092 273.045318 
L 405.608288 273.03264 
L 409.594484 273.032257 
L 413.580679 273.032257 
L 417.566875 273.032257 
" clip-path="url(#pf0fb8ab710)" style="fill: none; stroke-dasharray: 3.7,1.6; stroke-dashoffset: 0; stroke: #d95f02"/>
   </g>
   <g id="line2d_36">
    <path d="M 50.836875 324.366312 
L 54.823071 315.905139 
L 58.809266 304.669121 
L 62.795462 290.059437 
L 66.781658 282.775152 
L 70.767853 291.541192 
L 74.754049 305.481111 
L 78.740245 308.427484 
L 82.72644 296.919667 
L 86.712636 288.03303 
L 90.698832 295.954926 
L 94.685027 308.18834 
L 98.671223 308.177362 
L 102.657418 299.761706 
L 106.643614 298.94562 
L 110.62981 307.214617 
L 114.616005 315.06544 
L 118.602201 316.576999 
L 122.588397 311.808422 
L 126.574592 307.076521 
L 130.560788 306.653386 
L 134.546984 308.913099 
L 138.533179 308.779108 
L 142.519375 304.81287 
L 146.505571 303.337371 
L 150.491766 304.854417 
L 154.477962 308.598555 
L 158.464158 311.81414 
L 162.450353 311.940057 
L 166.436549 313.100527 
L 170.422745 313.135313 
L 174.40894 312.264876 
L 178.395136 311.66904 
L 182.381332 311.65241 
L 186.367527 313.955689 
L 190.353723 316.526417 
L 194.339918 315.409595 
L 198.326114 310.717352 
L 202.31231 309.729421 
L 206.298505 312.231454 
L 210.284701 313.293425 
L 214.270897 311.245187 
L 218.257092 310.841904 
L 222.243288 312.711077 
L 226.229484 312.02181 
L 230.215679 309.364138 
L 234.201875 307.781119 
L 238.188071 307.084841 
L 242.174266 307.867998 
L 246.160462 310.020691 
L 250.146658 311.660981 
L 254.132853 313.404828 
L 258.119049 315.078822 
L 262.105245 314.844736 
L 266.09144 313.657499 
L 270.077636 312.692712 
L 274.063832 312.204333 
L 278.050027 312.198883 
L 282.036223 313.458115 
L 286.022418 315.158213 
L 290.008614 315.904732 
L 293.99481 316.90143 
L 297.981005 317.620086 
L 301.967201 317.179803 
L 305.953397 316.66425 
L 309.939592 316.175434 
L 313.925788 316.081869 
L 317.911984 316.6953 
L 321.898179 317.007496 
L 325.884375 316.942754 
L 329.870571 316.966819 
L 333.856766 317.00144 
L 337.842962 317.264909 
L 341.829158 317.891758 
L 345.815353 318.530718 
L 349.801549 318.843707 
L 353.787745 318.539831 
L 357.77394 317.408229 
L 361.760136 316.782901 
L 365.746332 316.734854 
L 369.732527 317.113969 
L 373.718723 318.960272 
L 377.704918 320.66428 
L 381.691114 320.631508 
L 385.67731 320.678728 
L 389.663505 321.192805 
L 393.649701 321.788209 
L 397.635897 322.436233 
L 401.622092 322.788975 
L 405.608288 322.86482 
L 409.594484 322.870962 
L 413.580679 322.871146 
L 417.566875 322.871146 
" clip-path="url(#pf0fb8ab710)" style="fill: none; stroke: #1b9e77; stroke-width: 2; stroke-linecap: square"/>
   </g>
   <g id="line2d_37">
    <path d="M 50.836875 324.366312 
L 54.823071 312.401392 
L 58.809266 296.611259 
L 62.795462 276.921714 
L 66.781658 266.368593 
L 70.767853 274.640817 
L 74.754049 290.711056 
L 78.740245 294.682406 
L 82.72644 283.228332 
L 86.712636 275.022598 
L 90.698832 284.198231 
L 94.685027 297.65563 
L 98.671223 297.827714 
L 102.657418 288.948584 
L 106.643614 288.005749 
L 110.62981 296.062035 
L 114.616005 303.530421 
L 118.602201 304.967456 
L 122.588397 300.886681 
L 126.574592 297.135388 
L 130.560788 296.848863 
L 134.546984 298.747204 
L 138.533179 298.50927 
L 142.519375 294.740926 
L 146.505571 293.458157 
L 150.491766 295.180572 
L 154.477962 298.878497 
L 158.464158 301.894664 
L 162.450353 302.452977 
L 166.436549 304.2046 
L 170.422745 304.355585 
L 174.40894 303.50499 
L 178.395136 303.168932 
L 182.381332 303.24984 
L 186.367527 305.801146 
L 190.353723 308.640415 
L 194.339918 307.503507 
L 198.326114 302.634758 
L 202.31231 301.372087 
L 206.298505 303.793243 
L 210.284701 305.275923 
L 214.270897 303.492605 
L 218.257092 303.229386 
L 222.243288 305.503136 
L 226.229484 304.833926 
L 230.215679 301.807563 
L 234.201875 300.399788 
L 238.188071 300.149111 
L 242.174266 301.248709 
L 246.160462 303.458957 
L 250.146658 305.11486 
L 254.132853 306.81753 
L 258.119049 308.366438 
L 262.105245 307.907482 
L 266.09144 306.520214 
L 270.077636 305.60317 
L 274.063832 305.51956 
L 278.050027 305.978702 
L 282.036223 307.546859 
L 286.022418 309.394836 
L 290.008614 310.089224 
L 293.99481 311.111572 
L 297.981005 311.92215 
L 301.967201 311.554201 
L 305.953397 310.981578 
L 309.939592 310.359646 
L 313.925788 310.280273 
L 317.911984 311.071646 
L 321.898179 311.565943 
L 325.884375 311.610619 
L 329.870571 311.760918 
L 333.856766 311.97198 
L 337.842962 312.379333 
L 341.829158 313.142421 
L 345.815353 313.942349 
L 349.801549 314.312925 
L 353.787745 314.017467 
L 357.77394 312.842522 
L 361.760136 312.167245 
L 365.746332 312.162041 
L 369.732527 312.821049 
L 373.718723 315.097461 
L 377.704918 317.079857 
L 381.691114 317.272148 
L 385.67731 317.758517 
L 389.663505 318.921751 
L 393.649701 320.319474 
L 397.635897 321.838076 
L 401.622092 322.674282 
L 405.608288 322.855923 
L 409.594484 322.870702 
L 413.580679 322.871146 
L 417.566875 322.871146 
" clip-path="url(#pf0fb8ab710)" style="fill: none; stroke-dasharray: 3.7,1.6; stroke-dashoffset: 0; stroke: #1b9e77"/>
   </g>
   <g id="line2d_38">
    <path d="M 50.836875 324.366312 
L 54.823071 322.912633 
L 58.809266 320.784846 
L 62.795462 316.334884 
L 66.781658 315.588272 
L 70.767853 325.341942 
L 74.754049 335.021221 
L 78.740245 335.917641 
L 82.72644 324.302339 
L 86.712636 314.053893 
L 90.698832 319.468316 
L 94.685027 329.253759 
L 98.671223 328.876658 
L 102.657418 321.387949 
L 106.643614 320.825363 
L 110.62981 329.519779 
L 114.616005 338.135478 
L 118.602201 339.796084 
L 122.588397 333.651902 
L 126.574592 326.958788 
L 130.560788 326.262433 
L 134.546984 329.24489 
L 138.533179 329.318784 
L 142.519375 324.956758 
L 146.505571 323.095799 
L 150.491766 324.202108 
L 154.477962 328.038671 
L 158.464158 331.653093 
L 162.450353 330.914218 
L 166.436549 330.892379 
L 170.422745 330.694769 
L 174.40894 329.784649 
L 178.395136 328.669256 
L 182.381332 328.45755 
L 186.367527 330.264773 
L 190.353723 332.298419 
L 194.339918 331.221773 
L 198.326114 326.88254 
L 202.31231 326.444088 
L 206.298505 329.107877 
L 210.284701 329.32843 
L 214.270897 326.750351 
L 218.257092 326.066941 
L 222.243288 327.126959 
L 226.229484 326.397578 
L 230.215679 324.477287 
L 234.201875 322.543781 
L 238.188071 320.956302 
L 242.174266 321.106577 
L 246.160462 323.144159 
L 250.146658 324.753223 
L 254.132853 326.579424 
L 258.119049 328.503591 
L 262.105245 328.719243 
L 266.09144 327.932069 
L 270.077636 326.871796 
L 274.063832 325.573881 
L 278.050027 324.639245 
L 282.036223 325.280628 
L 286.022418 326.684969 
L 290.008614 327.535746 
L 293.99481 328.481145 
L 297.981005 329.015958 
L 301.967201 328.431007 
L 305.953397 328.029595 
L 309.939592 327.80701 
L 313.925788 327.685061 
L 317.911984 327.942608 
L 321.898179 327.890602 
L 325.884375 327.607026 
L 329.870571 327.378621 
L 333.856766 327.060359 
L 337.842962 327.036061 
L 341.829158 327.390432 
L 345.815353 327.707455 
L 349.801549 327.905272 
L 353.787745 327.58456 
L 357.77394 326.539644 
L 361.760136 326.014214 
L 365.746332 325.88048 
L 369.732527 325.699809 
L 373.718723 326.685894 
L 377.704918 327.833126 
L 381.691114 327.350229 
L 385.67731 326.51915 
L 389.663505 325.734913 
L 393.649701 324.725681 
L 397.635897 323.632546 
L 401.622092 323.018361 
L 405.608288 322.882614 
L 409.594484 322.871482 
L 413.580679 322.871146 
L 417.566875 322.871146 
" clip-path="url(#pf0fb8ab710)" style="fill: none; stroke-dasharray: 3.7,1.6; stroke-dashoffset: 0; stroke: #1b9e77"/>
   </g>
   <g id="patch_3">
    <path d="M 50.836875 382.677812 
L 50.836875 23.837812 
" style="fill: none; stroke: #000000; stroke-width: 0.8; stroke-linejoin: miter; stroke-linecap: square"/>
   </g>
   <g id="patch_4">
    <path d="M 417.566875 382.677812 
L 417.566875 23.837812 
" style="fill: none; stroke: #000000; stroke-width: 0.8; stroke-linejoin: miter; stroke-linecap: square"/>
   </g>
   <g id="patch_5">
    <path d="M 50.836875 382.677812 
L 417.566875 382.677812 
" style="fill: none; stroke: #000000; stroke-width: 0.8; stroke-linejoin: miter; stroke-linecap: square"/>
   </g>
   <g id="patch_6">
    <path d="M 50.836875 23.837812 
L 417.566875 23.837812 
" style="fill: none; stroke: #000000; stroke-width: 0.8; stroke-linejoin: miter; stroke-linecap: square"/>
   </g>
   <g id="text_17">
    <!-- Weighted By Certitude And Expertise -->
    <g transform="translate(104.020469 17.837812) scale(0.14 -0.14)">
     <defs>
      <path id="DejaVuSans-57" d="M 213 4666 
L 850 4666 
L 1831 722 
L 2809 4666 
L 3519 4666 
L 4500 722 
L 5478 4666 
L 6119 4666 
L 4947 0 
L 4153 0 
L 3169 4050 
L 2175 0 
L 1381 0 
L 213 4666 
z
" transform="scale(0.015625)"/>
      <path id="DejaVuSans-67" d="M 2906 1791 
Q 2906 2416 2648 2759 
Q 2391 3103 1925 3103 
Q 1463 3103 1205 2759 
Q 947 2416 947 1791 
Q 947 1169 1205 825 
Q 1463 481 1925 481 
Q 2391 481 2648 825 
Q 2906 1169 2906 1791 
z
M 3481 434 
Q 3481 -459 3084 -895 
Q 2688 -1331 1869 -1331 
Q 1566 -1331 1297 -1286 
Q 1028 -1241 775 -1147 
L 775 -588 
Q 1028 -725 1275 -790 
Q 1522 -856 1778 -856 
Q 2344 -856 2625 -561 
Q 2906 -266 2906 331 
L 2906 616 
Q 2728 306 2450 153 
Q 2172 0 1784 0 
Q 1141 0 747 490 
Q 353 981 353 1791 
Q 353 2603 747 3093 
Q 1141 3584 1784 3584 
Q 2172 3584 2450 3431 
Q 2728 3278 2906 2969 
L 2906 3500 
L 3481 3500 
L 3481 434 
z
" transform="scale(0.015625)"/>
      <path id="DejaVuSans-68" d="M 3513 2113 
L 3513 0 
L 2938 0 
L 2938 2094 
Q 2938 2591 2744 2837 
Q 2550 3084 2163 3084 
Q 1697 3084 1428 2787 
Q 1159 2491 1159 1978 
L 1159 0 
L 581 0 
L 581 4863 
L 1159 4863 
L 1159 2956 
Q 1366 3272 1645 3428 
Q 1925 3584 2291 3584 
Q 2894 3584 3203 3211 
Q 3513 2838 3513 2113 
z
" transform="scale(0.015625)"/>
      <path id="DejaVuSans-64" d="M 2906 2969 
L 2906 4863 
L 3481 4863 
L 3481 0 
L 2906 0 
L 2906 525 
Q 2725 213 2448 61 
Q 2172 -91 1784 -91 
Q 1150 -91 751 415 
Q 353 922 353 1747 
Q 353 2572 751 3078 
Q 1150 3584 1784 3584 
Q 2172 3584 2448 3432 
Q 2725 3281 2906 2969 
z
M 947 1747 
Q 947 1113 1208 752 
Q 1469 391 1925 391 
Q 2381 391 2643 752 
Q 2906 1113 2906 1747 
Q 2906 2381 2643 2742 
Q 2381 3103 1925 3103 
Q 1469 3103 1208 2742 
Q 947 2381 947 1747 
z
" transform="scale(0.015625)"/>
      <path id="DejaVuSans-42" d="M 1259 2228 
L 1259 519 
L 2272 519 
Q 2781 519 3026 730 
Q 3272 941 3272 1375 
Q 3272 1813 3026 2020 
Q 2781 2228 2272 2228 
L 1259 2228 
z
M 1259 4147 
L 1259 2741 
L 2194 2741 
Q 2656 2741 2882 2914 
Q 3109 3088 3109 3444 
Q 3109 3797 2882 3972 
Q 2656 4147 2194 4147 
L 1259 4147 
z
M 628 4666 
L 2241 4666 
Q 2963 4666 3353 4366 
Q 3744 4066 3744 3513 
Q 3744 3084 3544 2831 
Q 3344 2578 2956 2516 
Q 3422 2416 3680 2098 
Q 3938 1781 3938 1306 
Q 3938 681 3513 340 
Q 3088 0 2303 0 
L 628 0 
L 628 4666 
z
" transform="scale(0.015625)"/>
      <path id="DejaVuSans-79" d="M 2059 -325 
Q 1816 -950 1584 -1140 
Q 1353 -1331 966 -1331 
L 506 -1331 
L 506 -850 
L 844 -850 
Q 1081 -850 1212 -737 
Q 1344 -625 1503 -206 
L 1606 56 
L 191 3500 
L 800 3500 
L 1894 763 
L 2988 3500 
L 3597 3500 
L 2059 -325 
z
" transform="scale(0.015625)"/>
      <path id="DejaVuSans-43" d="M 4122 4306 
L 4122 3641 
Q 3803 3938 3442 4084 
Q 3081 4231 2675 4231 
Q 1875 4231 1450 3742 
Q 1025 3253 1025 2328 
Q 1025 1406 1450 917 
Q 1875 428 2675 428 
Q 3081 428 3442 575 
Q 3803 722 4122 1019 
L 4122 359 
Q 3791 134 3420 21 
Q 3050 -91 2638 -91 
Q 1578 -91 968 557 
Q 359 1206 359 2328 
Q 359 3453 968 4101 
Q 1578 4750 2638 4750 
Q 3056 4750 3426 4639 
Q 3797 4528 4122 4306 
z
" transform="scale(0.015625)"/>
      <path id="DejaVuSans-41" d="M 2188 4044 
L 1331 1722 
L 3047 1722 
L 2188 4044 
z
M 1831 4666 
L 2547 4666 
L 4325 0 
L 3669 0 
L 3244 1197 
L 1141 1197 
L 716 0 
L 50 0 
L 1831 4666 
z
" transform="scale(0.015625)"/>
      <path id="DejaVuSans-45" d="M 628 4666 
L 3578 4666 
L 3578 4134 
L 1259 4134 
L 1259 2753 
L 3481 2753 
L 3481 2222 
L 1259 2222 
L 1259 531 
L 3634 531 
L 3634 0 
L 628 0 
L 628 4666 
z
" transform="scale(0.015625)"/>
      <path id="DejaVuSans-78" d="M 3513 3500 
L 2247 1797 
L 3578 0 
L 2900 0 
L 1881 1375 
L 863 0 
L 184 0 
L 1544 1831 
L 300 3500 
L 978 3500 
L 1906 2253 
L 2834 3500 
L 3513 3500 
z
" transform="scale(0.015625)"/>
     </defs>
     <use xlink:href="#DejaVuSans-57"/>
     <use xlink:href="#DejaVuSans-65" x="93.001953"/>
     <use xlink:href="#DejaVuSans-69" x="154.525391"/>
     <use xlink:href="#DejaVuSans-67" x="182.308594"/>
     <use xlink:href="#DejaVuSans-68" x="245.785156"/>
     <use xlink:href="#DejaVuSans-74" x="309.164062"/>
     <use xlink:href="#DejaVuSans-65" x="348.373047"/>
     <use xlink:href="#DejaVuSans-64" x="409.896484"/>
     <use xlink:href="#DejaVuSans-20" x="473.373047"/>
     <use xlink:href="#DejaVuSans-42" x="505.160156"/>
     <use xlink:href="#DejaVuSans-79" x="573.763672"/>
     <use xlink:href="#DejaVuSans-20" x="632.943359"/>
     <use xlink:href="#DejaVuSans-43" x="664.730469"/>
     <use xlink:href="#DejaVuSans-65" x="734.554688"/>
     <use xlink:href="#DejaVuSans-72" x="796.078125"/>
     <use xlink:href="#DejaVuSans-74" x="837.191406"/>
     <use xlink:href="#DejaVuSans-69" x="876.400391"/>
     <use xlink:href="#DejaVuSans-74" x="904.183594"/>
     <use xlink:href="#DejaVuSans-75" x="943.392578"/>
     <use xlink:href="#DejaVuSans-64" x="1006.771484"/>
     <use xlink:href="#DejaVuSans-65" x="1070.248047"/>
     <use xlink:href="#DejaVuSans-20" x="1131.771484"/>
     <use xlink:href="#DejaVuSans-41" x="1163.558594"/>
     <use xlink:href="#DejaVuSans-6e" x="1231.966797"/>
     <use xlink:href="#DejaVuSans-64" x="1295.345703"/>
     <use xlink:href="#DejaVuSans-20" x="1358.822266"/>
     <use xlink:href="#DejaVuSans-45" x="1390.609375"/>
     <use xlink:href="#DejaVuSans-78" x="1453.792969"/>
     <use xlink:href="#DejaVuSans-70" x="1512.972656"/>
     <use xlink:href="#DejaVuSans-65" x="1576.449219"/>
     <use xlink:href="#DejaVuSans-72" x="1637.972656"/>
     <use xlink:href="#DejaVuSans-74" x="1679.085938"/>
     <use xlink:href="#DejaVuSans-69" x="1718.294922"/>
     <use xlink:href="#DejaVuSans-73" x="1746.078125"/>
     <use xlink:href="#DejaVuSans-65" x="1798.177734"/>
    </g>
   </g>
  </g>
 </g>
 <defs>
  <clipPath id="pf0fb8ab710">
   <rect x="50.836875" y="23.837812" width="366.73" height="358.84"/>
  </clipPath>
 </defs>
</svg>
