<?xml version="1.0" encoding="utf-8" standalone="no"?>
<!DOCTYPE svg PUBLIC "-//W3C//DTD SVG 1.1//EN"
  "http://www.w3.org/Graphics/SVG/1.1/DTD/svg11.dtd">
<svg xmlns:xlink="http://www.w3.org/1999/xlink" width="424.766875pt" height="424.105312pt" viewBox="0 0 424.766875 424.105312" xmlns="http://www.w3.org/2000/svg" version="1.1">
 <metadata>
  <rdf:RDF xmlns:dc="http://purl.org/dc/elements/1.1/" xmlns:cc="http://creativecommons.org/ns#" xmlns:rdf="http://www.w3.org/1999/02/22-rdf-syntax-ns#">
   <cc:Work>
    <dc:type rdf:resource="http://purl.org/dc/dcmitype/StillImage"/>
    <dc:date>2024-04-17T11:51:38.339602</dc:date>
    <dc:format>image/svg+xml</dc:format>
    <dc:creator>
     <cc:Agent>
      <dc:title>Matplotlib v3.6.2, https://matplotlib.org/</dc:title>
     </cc:Agent>
    </dc:creator>
   </cc:Work>
  </rdf:RDF>
 </metadata>
 <defs>
  <style type="text/css">*{stroke-linejoin: round; stroke-linecap: butt}</style>
 </defs>
 <g id="figure_1">
  <g id="patch_1">
   <path d="M 0 424.105312 
L 424.766875 424.105312 
L 424.766875 0 
L 0 0 
z
" style="fill: #ffffff"/>
  </g>
  <g id="axes_1">
   <g id="patch_2">
    <path d="M 50.836875 382.677812 
L 417.566875 382.677812 
L 417.566875 23.837812 
L 50.836875 23.837812 
z
" style="fill: #ffffff"/>
   </g>
   <g id="matplotlib.axis_1">
    <g id="xtick_1">
     <g id="line2d_1">
      <defs>
       <path id="m1ad4859f7c" d="M 0 0 
L 0 3.5 
" style="stroke: #000000; stroke-width: 0.8"/>
      </defs>
      <g>
       <use xlink:href="#m1ad4859f7c" x="50.836875" y="382.677812" style="stroke: #000000; stroke-width: 0.8"/>
      </g>
     </g>
     <g id="text_1">
      <!-- 0 -->
      <g transform="translate(47.655625 397.27625) scale(0.1 -0.1)">
       <defs>
        <path id="DejaVuSans-30" d="M 2034 4250 
Q 1547 4250 1301 3770 
Q 1056 3291 1056 2328 
Q 1056 1369 1301 889 
Q 1547 409 2034 409 
Q 2525 409 2770 889 
Q 3016 1369 3016 2328 
Q 3016 3291 2770 3770 
Q 2525 4250 2034 4250 
z
M 2034 4750 
Q 2819 4750 3233 4129 
Q 3647 3509 3647 2328 
Q 3647 1150 3233 529 
Q 2819 -91 2034 -91 
Q 1250 -91 836 529 
Q 422 1150 422 2328 
Q 422 3509 836 4129 
Q 1250 4750 2034 4750 
z
" transform="scale(0.015625)"/>
       </defs>
       <use xlink:href="#DejaVuSans-30"/>
      </g>
     </g>
    </g>
    <g id="xtick_2">
     <g id="line2d_2">
      <g>
       <use xlink:href="#m1ad4859f7c" x="130.560788" y="382.677812" style="stroke: #000000; stroke-width: 0.8"/>
      </g>
     </g>
     <g id="text_2">
      <!-- 20 -->
      <g transform="translate(124.198288 397.27625) scale(0.1 -0.1)">
       <defs>
        <path id="DejaVuSans-32" d="M 1228 531 
L 3431 531 
L 3431 0 
L 469 0 
L 469 531 
Q 828 903 1448 1529 
Q 2069 2156 2228 2338 
Q 2531 2678 2651 2914 
Q 2772 3150 2772 3378 
Q 2772 3750 2511 3984 
Q 2250 4219 1831 4219 
Q 1534 4219 1204 4116 
Q 875 4013 500 3803 
L 500 4441 
Q 881 4594 1212 4672 
Q 1544 4750 1819 4750 
Q 2544 4750 2975 4387 
Q 3406 4025 3406 3419 
Q 3406 3131 3298 2873 
Q 3191 2616 2906 2266 
Q 2828 2175 2409 1742 
Q 1991 1309 1228 531 
z
" transform="scale(0.015625)"/>
       </defs>
       <use xlink:href="#DejaVuSans-32"/>
       <use xlink:href="#DejaVuSans-30" x="63.623047"/>
      </g>
     </g>
    </g>
    <g id="xtick_3">
     <g id="line2d_3">
      <g>
       <use xlink:href="#m1ad4859f7c" x="210.284701" y="382.677812" style="stroke: #000000; stroke-width: 0.8"/>
      </g>
     </g>
     <g id="text_3">
      <!-- 40 -->
      <g transform="translate(203.922201 397.27625) scale(0.1 -0.1)">
       <defs>
        <path id="DejaVuSans-34" d="M 2419 4116 
L 825 1625 
L 2419 1625 
L 2419 4116 
z
M 2253 4666 
L 3047 4666 
L 3047 1625 
L 3713 1625 
L 3713 1100 
L 3047 1100 
L 3047 0 
L 2419 0 
L 2419 1100 
L 313 1100 
L 313 1709 
L 2253 4666 
z
" transform="scale(0.015625)"/>
       </defs>
       <use xlink:href="#DejaVuSans-34"/>
       <use xlink:href="#DejaVuSans-30" x="63.623047"/>
      </g>
     </g>
    </g>
    <g id="xtick_4">
     <g id="line2d_4">
      <g>
       <use xlink:href="#m1ad4859f7c" x="290.008614" y="382.677812" style="stroke: #000000; stroke-width: 0.8"/>
      </g>
     </g>
     <g id="text_4">
      <!-- 60 -->
      <g transform="translate(283.646114 397.27625) scale(0.1 -0.1)">
       <defs>
        <path id="DejaVuSans-36" d="M 2113 2584 
Q 1688 2584 1439 2293 
Q 1191 2003 1191 1497 
Q 1191 994 1439 701 
Q 1688 409 2113 409 
Q 2538 409 2786 701 
Q 3034 994 3034 1497 
Q 3034 2003 2786 2293 
Q 2538 2584 2113 2584 
z
M 3366 4563 
L 3366 3988 
Q 3128 4100 2886 4159 
Q 2644 4219 2406 4219 
Q 1781 4219 1451 3797 
Q 1122 3375 1075 2522 
Q 1259 2794 1537 2939 
Q 1816 3084 2150 3084 
Q 2853 3084 3261 2657 
Q 3669 2231 3669 1497 
Q 3669 778 3244 343 
Q 2819 -91 2113 -91 
Q 1303 -91 875 529 
Q 447 1150 447 2328 
Q 447 3434 972 4092 
Q 1497 4750 2381 4750 
Q 2619 4750 2861 4703 
Q 3103 4656 3366 4563 
z
" transform="scale(0.015625)"/>
       </defs>
       <use xlink:href="#DejaVuSans-36"/>
       <use xlink:href="#DejaVuSans-30" x="63.623047"/>
      </g>
     </g>
    </g>
    <g id="xtick_5">
     <g id="line2d_5">
      <g>
       <use xlink:href="#m1ad4859f7c" x="369.732527" y="382.677812" style="stroke: #000000; stroke-width: 0.8"/>
      </g>
     </g>
     <g id="text_5">
      <!-- 80 -->
      <g transform="translate(363.370027 397.27625) scale(0.1 -0.1)">
       <defs>
        <path id="DejaVuSans-38" d="M 2034 2216 
Q 1584 2216 1326 1975 
Q 1069 1734 1069 1313 
Q 1069 891 1326 650 
Q 1584 409 2034 409 
Q 2484 409 2743 651 
Q 3003 894 3003 1313 
Q 3003 1734 2745 1975 
Q 2488 2216 2034 2216 
z
M 1403 2484 
Q 997 2584 770 2862 
Q 544 3141 544 3541 
Q 544 4100 942 4425 
Q 1341 4750 2034 4750 
Q 2731 4750 3128 4425 
Q 3525 4100 3525 3541 
Q 3525 3141 3298 2862 
Q 3072 2584 2669 2484 
Q 3125 2378 3379 2068 
Q 3634 1759 3634 1313 
Q 3634 634 3220 271 
Q 2806 -91 2034 -91 
Q 1263 -91 848 271 
Q 434 634 434 1313 
Q 434 1759 690 2068 
Q 947 2378 1403 2484 
z
M 1172 3481 
Q 1172 3119 1398 2916 
Q 1625 2713 2034 2713 
Q 2441 2713 2670 2916 
Q 2900 3119 2900 3481 
Q 2900 3844 2670 4047 
Q 2441 4250 2034 4250 
Q 1625 4250 1398 4047 
Q 1172 3844 1172 3481 
z
" transform="scale(0.015625)"/>
       </defs>
       <use xlink:href="#DejaVuSans-38"/>
       <use xlink:href="#DejaVuSans-30" x="63.623047"/>
      </g>
     </g>
    </g>
    <g id="text_6">
     <!-- Number of participants -->
     <g transform="translate(153.230469 413.99375) scale(0.14 -0.14)">
      <defs>
       <path id="DejaVuSans-4e" d="M 628 4666 
L 1478 4666 
L 3547 763 
L 3547 4666 
L 4159 4666 
L 4159 0 
L 3309 0 
L 1241 3903 
L 1241 0 
L 628 0 
L 628 4666 
z
" transform="scale(0.015625)"/>
       <path id="DejaVuSans-75" d="M 544 1381 
L 544 3500 
L 1119 3500 
L 1119 1403 
Q 1119 906 1312 657 
Q 1506 409 1894 409 
Q 2359 409 2629 706 
Q 2900 1003 2900 1516 
L 2900 3500 
L 3475 3500 
L 3475 0 
L 2900 0 
L 2900 538 
Q 2691 219 2414 64 
Q 2138 -91 1772 -91 
Q 1169 -91 856 284 
Q 544 659 544 1381 
z
M 1991 3584 
L 1991 3584 
z
" transform="scale(0.015625)"/>
       <path id="DejaVuSans-6d" d="M 3328 2828 
Q 3544 3216 3844 3400 
Q 4144 3584 4550 3584 
Q 5097 3584 5394 3201 
Q 5691 2819 5691 2113 
L 5691 0 
L 5113 0 
L 5113 2094 
Q 5113 2597 4934 2840 
Q 4756 3084 4391 3084 
Q 3944 3084 3684 2787 
Q 3425 2491 3425 1978 
L 3425 0 
L 2847 0 
L 2847 2094 
Q 2847 2600 2669 2842 
Q 2491 3084 2119 3084 
Q 1678 3084 1418 2786 
Q 1159 2488 1159 1978 
L 1159 0 
L 581 0 
L 581 3500 
L 1159 3500 
L 1159 2956 
Q 1356 3278 1631 3431 
Q 1906 3584 2284 3584 
Q 2666 3584 2933 3390 
Q 3200 3197 3328 2828 
z
" transform="scale(0.015625)"/>
       <path id="DejaVuSans-62" d="M 3116 1747 
Q 3116 2381 2855 2742 
Q 2594 3103 2138 3103 
Q 1681 3103 1420 2742 
Q 1159 2381 1159 1747 
Q 1159 1113 1420 752 
Q 1681 391 2138 391 
Q 2594 391 2855 752 
Q 3116 1113 3116 1747 
z
M 1159 2969 
Q 1341 3281 1617 3432 
Q 1894 3584 2278 3584 
Q 2916 3584 3314 3078 
Q 3713 2572 3713 1747 
Q 3713 922 3314 415 
Q 2916 -91 2278 -91 
Q 1894 -91 1617 61 
Q 1341 213 1159 525 
L 1159 0 
L 581 0 
L 581 4863 
L 1159 4863 
L 1159 2969 
z
" transform="scale(0.015625)"/>
       <path id="DejaVuSans-65" d="M 3597 1894 
L 3597 1613 
L 953 1613 
Q 991 1019 1311 708 
Q 1631 397 2203 397 
Q 2534 397 2845 478 
Q 3156 559 3463 722 
L 3463 178 
Q 3153 47 2828 -22 
Q 2503 -91 2169 -91 
Q 1331 -91 842 396 
Q 353 884 353 1716 
Q 353 2575 817 3079 
Q 1281 3584 2069 3584 
Q 2775 3584 3186 3129 
Q 3597 2675 3597 1894 
z
M 3022 2063 
Q 3016 2534 2758 2815 
Q 2500 3097 2075 3097 
Q 1594 3097 1305 2825 
Q 1016 2553 972 2059 
L 3022 2063 
z
" transform="scale(0.015625)"/>
       <path id="DejaVuSans-72" d="M 2631 2963 
Q 2534 3019 2420 3045 
Q 2306 3072 2169 3072 
Q 1681 3072 1420 2755 
Q 1159 2438 1159 1844 
L 1159 0 
L 581 0 
L 581 3500 
L 1159 3500 
L 1159 2956 
Q 1341 3275 1631 3429 
Q 1922 3584 2338 3584 
Q 2397 3584 2469 3576 
Q 2541 3569 2628 3553 
L 2631 2963 
z
" transform="scale(0.015625)"/>
       <path id="DejaVuSans-20" transform="scale(0.015625)"/>
       <path id="DejaVuSans-6f" d="M 1959 3097 
Q 1497 3097 1228 2736 
Q 959 2375 959 1747 
Q 959 1119 1226 758 
Q 1494 397 1959 397 
Q 2419 397 2687 759 
Q 2956 1122 2956 1747 
Q 2956 2369 2687 2733 
Q 2419 3097 1959 3097 
z
M 1959 3584 
Q 2709 3584 3137 3096 
Q 3566 2609 3566 1747 
Q 3566 888 3137 398 
Q 2709 -91 1959 -91 
Q 1206 -91 779 398 
Q 353 888 353 1747 
Q 353 2609 779 3096 
Q 1206 3584 1959 3584 
z
" transform="scale(0.015625)"/>
       <path id="DejaVuSans-66" d="M 2375 4863 
L 2375 4384 
L 1825 4384 
Q 1516 4384 1395 4259 
Q 1275 4134 1275 3809 
L 1275 3500 
L 2222 3500 
L 2222 3053 
L 1275 3053 
L 1275 0 
L 697 0 
L 697 3053 
L 147 3053 
L 147 3500 
L 697 3500 
L 697 3744 
Q 697 4328 969 4595 
Q 1241 4863 1831 4863 
L 2375 4863 
z
" transform="scale(0.015625)"/>
       <path id="DejaVuSans-70" d="M 1159 525 
L 1159 -1331 
L 581 -1331 
L 581 3500 
L 1159 3500 
L 1159 2969 
Q 1341 3281 1617 3432 
Q 1894 3584 2278 3584 
Q 2916 3584 3314 3078 
Q 3713 2572 3713 1747 
Q 3713 922 3314 415 
Q 2916 -91 2278 -91 
Q 1894 -91 1617 61 
Q 1341 213 1159 525 
z
M 3116 1747 
Q 3116 2381 2855 2742 
Q 2594 3103 2138 3103 
Q 1681 3103 1420 2742 
Q 1159 2381 1159 1747 
Q 1159 1113 1420 752 
Q 1681 391 2138 391 
Q 2594 391 2855 752 
Q 3116 1113 3116 1747 
z
" transform="scale(0.015625)"/>
       <path id="DejaVuSans-61" d="M 2194 1759 
Q 1497 1759 1228 1600 
Q 959 1441 959 1056 
Q 959 750 1161 570 
Q 1363 391 1709 391 
Q 2188 391 2477 730 
Q 2766 1069 2766 1631 
L 2766 1759 
L 2194 1759 
z
M 3341 1997 
L 3341 0 
L 2766 0 
L 2766 531 
Q 2569 213 2275 61 
Q 1981 -91 1556 -91 
Q 1019 -91 701 211 
Q 384 513 384 1019 
Q 384 1609 779 1909 
Q 1175 2209 1959 2209 
L 2766 2209 
L 2766 2266 
Q 2766 2663 2505 2880 
Q 2244 3097 1772 3097 
Q 1472 3097 1187 3025 
Q 903 2953 641 2809 
L 641 3341 
Q 956 3463 1253 3523 
Q 1550 3584 1831 3584 
Q 2591 3584 2966 3190 
Q 3341 2797 3341 1997 
z
" transform="scale(0.015625)"/>
       <path id="DejaVuSans-74" d="M 1172 4494 
L 1172 3500 
L 2356 3500 
L 2356 3053 
L 1172 3053 
L 1172 1153 
Q 1172 725 1289 603 
Q 1406 481 1766 481 
L 2356 481 
L 2356 0 
L 1766 0 
Q 1100 0 847 248 
Q 594 497 594 1153 
L 594 3053 
L 172 3053 
L 172 3500 
L 594 3500 
L 594 4494 
L 1172 4494 
z
" transform="scale(0.015625)"/>
       <path id="DejaVuSans-69" d="M 603 3500 
L 1178 3500 
L 1178 0 
L 603 0 
L 603 3500 
z
M 603 4863 
L 1178 4863 
L 1178 4134 
L 603 4134 
L 603 4863 
z
" transform="scale(0.015625)"/>
       <path id="DejaVuSans-63" d="M 3122 3366 
L 3122 2828 
Q 2878 2963 2633 3030 
Q 2388 3097 2138 3097 
Q 1578 3097 1268 2742 
Q 959 2388 959 1747 
Q 959 1106 1268 751 
Q 1578 397 2138 397 
Q 2388 397 2633 464 
Q 2878 531 3122 666 
L 3122 134 
Q 2881 22 2623 -34 
Q 2366 -91 2075 -91 
Q 1284 -91 818 406 
Q 353 903 353 1747 
Q 353 2603 823 3093 
Q 1294 3584 2113 3584 
Q 2378 3584 2631 3529 
Q 2884 3475 3122 3366 
z
" transform="scale(0.015625)"/>
       <path id="DejaVuSans-6e" d="M 3513 2113 
L 3513 0 
L 2938 0 
L 2938 2094 
Q 2938 2591 2744 2837 
Q 2550 3084 2163 3084 
Q 1697 3084 1428 2787 
Q 1159 2491 1159 1978 
L 1159 0 
L 581 0 
L 581 3500 
L 1159 3500 
L 1159 2956 
Q 1366 3272 1645 3428 
Q 1925 3584 2291 3584 
Q 2894 3584 3203 3211 
Q 3513 2838 3513 2113 
z
" transform="scale(0.015625)"/>
       <path id="DejaVuSans-73" d="M 2834 3397 
L 2834 2853 
Q 2591 2978 2328 3040 
Q 2066 3103 1784 3103 
Q 1356 3103 1142 2972 
Q 928 2841 928 2578 
Q 928 2378 1081 2264 
Q 1234 2150 1697 2047 
L 1894 2003 
Q 2506 1872 2764 1633 
Q 3022 1394 3022 966 
Q 3022 478 2636 193 
Q 2250 -91 1575 -91 
Q 1294 -91 989 -36 
Q 684 19 347 128 
L 347 722 
Q 666 556 975 473 
Q 1284 391 1588 391 
Q 1994 391 2212 530 
Q 2431 669 2431 922 
Q 2431 1156 2273 1281 
Q 2116 1406 1581 1522 
L 1381 1569 
Q 847 1681 609 1914 
Q 372 2147 372 2553 
Q 372 3047 722 3315 
Q 1072 3584 1716 3584 
Q 2034 3584 2315 3537 
Q 2597 3491 2834 3397 
z
" transform="scale(0.015625)"/>
      </defs>
      <use xlink:href="#DejaVuSans-4e"/>
      <use xlink:href="#DejaVuSans-75" x="74.804688"/>
      <use xlink:href="#DejaVuSans-6d" x="138.183594"/>
      <use xlink:href="#DejaVuSans-62" x="235.595703"/>
      <use xlink:href="#DejaVuSans-65" x="299.072266"/>
      <use xlink:href="#DejaVuSans-72" x="360.595703"/>
      <use xlink:href="#DejaVuSans-20" x="401.708984"/>
      <use xlink:href="#DejaVuSans-6f" x="433.496094"/>
      <use xlink:href="#DejaVuSans-66" x="494.677734"/>
      <use xlink:href="#DejaVuSans-20" x="529.882812"/>
      <use xlink:href="#DejaVuSans-70" x="561.669922"/>
      <use xlink:href="#DejaVuSans-61" x="625.146484"/>
      <use xlink:href="#DejaVuSans-72" x="686.425781"/>
      <use xlink:href="#DejaVuSans-74" x="727.539062"/>
      <use xlink:href="#DejaVuSans-69" x="766.748047"/>
      <use xlink:href="#DejaVuSans-63" x="794.53125"/>
      <use xlink:href="#DejaVuSans-69" x="849.511719"/>
      <use xlink:href="#DejaVuSans-70" x="877.294922"/>
      <use xlink:href="#DejaVuSans-61" x="940.771484"/>
      <use xlink:href="#DejaVuSans-6e" x="1002.050781"/>
      <use xlink:href="#DejaVuSans-74" x="1065.429688"/>
      <use xlink:href="#DejaVuSans-73" x="1104.638672"/>
     </g>
    </g>
   </g>
   <g id="matplotlib.axis_2">
    <g id="ytick_1">
     <g id="line2d_6">
      <path d="M 50.836875 382.677812 
L 417.566875 382.677812 
" clip-path="url(#p4b4ba12c0f)" style="fill: none; stroke-dasharray: 2.96,1.28; stroke-dashoffset: 0; stroke: #c0c0c0; stroke-width: 0.8"/>
     </g>
     <g id="line2d_7">
      <defs>
       <path id="m9f1f859317" d="M 0 0 
L -3.5 0 
" style="stroke: #000000; stroke-width: 0.8"/>
      </defs>
      <g>
       <use xlink:href="#m9f1f859317" x="50.836875" y="382.677812" style="stroke: #000000; stroke-width: 0.8"/>
      </g>
     </g>
     <g id="text_7">
      <!-- 20 -->
      <g transform="translate(31.111875 386.477031) scale(0.1 -0.1)">
       <use xlink:href="#DejaVuSans-32"/>
       <use xlink:href="#DejaVuSans-30" x="63.623047"/>
      </g>
     </g>
    </g>
    <g id="ytick_2">
     <g id="line2d_8">
      <path d="M 50.836875 337.822812 
L 417.566875 337.822812 
" clip-path="url(#p4b4ba12c0f)" style="fill: none; stroke-dasharray: 2.96,1.28; stroke-dashoffset: 0; stroke: #c0c0c0; stroke-width: 0.8"/>
     </g>
     <g id="line2d_9">
      <g>
       <use xlink:href="#m9f1f859317" x="50.836875" y="337.822812" style="stroke: #000000; stroke-width: 0.8"/>
      </g>
     </g>
     <g id="text_8">
      <!-- 30 -->
      <g transform="translate(31.111875 341.622031) scale(0.1 -0.1)">
       <defs>
        <path id="DejaVuSans-33" d="M 2597 2516 
Q 3050 2419 3304 2112 
Q 3559 1806 3559 1356 
Q 3559 666 3084 287 
Q 2609 -91 1734 -91 
Q 1441 -91 1130 -33 
Q 819 25 488 141 
L 488 750 
Q 750 597 1062 519 
Q 1375 441 1716 441 
Q 2309 441 2620 675 
Q 2931 909 2931 1356 
Q 2931 1769 2642 2001 
Q 2353 2234 1838 2234 
L 1294 2234 
L 1294 2753 
L 1863 2753 
Q 2328 2753 2575 2939 
Q 2822 3125 2822 3475 
Q 2822 3834 2567 4026 
Q 2313 4219 1838 4219 
Q 1578 4219 1281 4162 
Q 984 4106 628 3988 
L 628 4550 
Q 988 4650 1302 4700 
Q 1616 4750 1894 4750 
Q 2613 4750 3031 4423 
Q 3450 4097 3450 3541 
Q 3450 3153 3228 2886 
Q 3006 2619 2597 2516 
z
" transform="scale(0.015625)"/>
       </defs>
       <use xlink:href="#DejaVuSans-33"/>
       <use xlink:href="#DejaVuSans-30" x="63.623047"/>
      </g>
     </g>
    </g>
    <g id="ytick_3">
     <g id="line2d_10">
      <path d="M 50.836875 292.967812 
L 417.566875 292.967812 
" clip-path="url(#p4b4ba12c0f)" style="fill: none; stroke-dasharray: 2.96,1.28; stroke-dashoffset: 0; stroke: #c0c0c0; stroke-width: 0.8"/>
     </g>
     <g id="line2d_11">
      <g>
       <use xlink:href="#m9f1f859317" x="50.836875" y="292.967812" style="stroke: #000000; stroke-width: 0.8"/>
      </g>
     </g>
     <g id="text_9">
      <!-- 40 -->
      <g transform="translate(31.111875 296.767031) scale(0.1 -0.1)">
       <use xlink:href="#DejaVuSans-34"/>
       <use xlink:href="#DejaVuSans-30" x="63.623047"/>
      </g>
     </g>
    </g>
    <g id="ytick_4">
     <g id="line2d_12">
      <path d="M 50.836875 248.112812 
L 417.566875 248.112812 
" clip-path="url(#p4b4ba12c0f)" style="fill: none; stroke-dasharray: 2.96,1.28; stroke-dashoffset: 0; stroke: #c0c0c0; stroke-width: 0.8"/>
     </g>
     <g id="line2d_13">
      <g>
       <use xlink:href="#m9f1f859317" x="50.836875" y="248.112812" style="stroke: #000000; stroke-width: 0.8"/>
      </g>
     </g>
     <g id="text_10">
      <!-- 50 -->
      <g transform="translate(31.111875 251.912031) scale(0.1 -0.1)">
       <defs>
        <path id="DejaVuSans-35" d="M 691 4666 
L 3169 4666 
L 3169 4134 
L 1269 4134 
L 1269 2991 
Q 1406 3038 1543 3061 
Q 1681 3084 1819 3084 
Q 2600 3084 3056 2656 
Q 3513 2228 3513 1497 
Q 3513 744 3044 326 
Q 2575 -91 1722 -91 
Q 1428 -91 1123 -41 
Q 819 9 494 109 
L 494 744 
Q 775 591 1075 516 
Q 1375 441 1709 441 
Q 2250 441 2565 725 
Q 2881 1009 2881 1497 
Q 2881 1984 2565 2268 
Q 2250 2553 1709 2553 
Q 1456 2553 1204 2497 
Q 953 2441 691 2322 
L 691 4666 
z
" transform="scale(0.015625)"/>
       </defs>
       <use xlink:href="#DejaVuSans-35"/>
       <use xlink:href="#DejaVuSans-30" x="63.623047"/>
      </g>
     </g>
    </g>
    <g id="ytick_5">
     <g id="line2d_14">
      <path d="M 50.836875 203.257812 
L 417.566875 203.257812 
" clip-path="url(#p4b4ba12c0f)" style="fill: none; stroke-dasharray: 2.96,1.28; stroke-dashoffset: 0; stroke: #c0c0c0; stroke-width: 0.8"/>
     </g>
     <g id="line2d_15">
      <g>
       <use xlink:href="#m9f1f859317" x="50.836875" y="203.257812" style="stroke: #000000; stroke-width: 0.8"/>
      </g>
     </g>
     <g id="text_11">
      <!-- 60 -->
      <g transform="translate(31.111875 207.057031) scale(0.1 -0.1)">
       <use xlink:href="#DejaVuSans-36"/>
       <use xlink:href="#DejaVuSans-30" x="63.623047"/>
      </g>
     </g>
    </g>
    <g id="ytick_6">
     <g id="line2d_16">
      <path d="M 50.836875 158.402812 
L 417.566875 158.402812 
" clip-path="url(#p4b4ba12c0f)" style="fill: none; stroke-dasharray: 2.96,1.28; stroke-dashoffset: 0; stroke: #c0c0c0; stroke-width: 0.8"/>
     </g>
     <g id="line2d_17">
      <g>
       <use xlink:href="#m9f1f859317" x="50.836875" y="158.402812" style="stroke: #000000; stroke-width: 0.8"/>
      </g>
     </g>
     <g id="text_12">
      <!-- 70 -->
      <g transform="translate(31.111875 162.202031) scale(0.1 -0.1)">
       <defs>
        <path id="DejaVuSans-37" d="M 525 4666 
L 3525 4666 
L 3525 4397 
L 1831 0 
L 1172 0 
L 2766 4134 
L 525 4134 
L 525 4666 
z
" transform="scale(0.015625)"/>
       </defs>
       <use xlink:href="#DejaVuSans-37"/>
       <use xlink:href="#DejaVuSans-30" x="63.623047"/>
      </g>
     </g>
    </g>
    <g id="ytick_7">
     <g id="line2d_18">
      <path d="M 50.836875 113.547812 
L 417.566875 113.547812 
" clip-path="url(#p4b4ba12c0f)" style="fill: none; stroke-dasharray: 2.96,1.28; stroke-dashoffset: 0; stroke: #c0c0c0; stroke-width: 0.8"/>
     </g>
     <g id="line2d_19">
      <g>
       <use xlink:href="#m9f1f859317" x="50.836875" y="113.547812" style="stroke: #000000; stroke-width: 0.8"/>
      </g>
     </g>
     <g id="text_13">
      <!-- 80 -->
      <g transform="translate(31.111875 117.347031) scale(0.1 -0.1)">
       <use xlink:href="#DejaVuSans-38"/>
       <use xlink:href="#DejaVuSans-30" x="63.623047"/>
      </g>
     </g>
    </g>
    <g id="ytick_8">
     <g id="line2d_20">
      <path d="M 50.836875 68.692812 
L 417.566875 68.692812 
" clip-path="url(#p4b4ba12c0f)" style="fill: none; stroke-dasharray: 2.96,1.28; stroke-dashoffset: 0; stroke: #c0c0c0; stroke-width: 0.8"/>
     </g>
     <g id="line2d_21">
      <g>
       <use xlink:href="#m9f1f859317" x="50.836875" y="68.692812" style="stroke: #000000; stroke-width: 0.8"/>
      </g>
     </g>
     <g id="text_14">
      <!-- 90 -->
      <g transform="translate(31.111875 72.492031) scale(0.1 -0.1)">
       <defs>
        <path id="DejaVuSans-39" d="M 703 97 
L 703 672 
Q 941 559 1184 500 
Q 1428 441 1663 441 
Q 2288 441 2617 861 
Q 2947 1281 2994 2138 
Q 2813 1869 2534 1725 
Q 2256 1581 1919 1581 
Q 1219 1581 811 2004 
Q 403 2428 403 3163 
Q 403 3881 828 4315 
Q 1253 4750 1959 4750 
Q 2769 4750 3195 4129 
Q 3622 3509 3622 2328 
Q 3622 1225 3098 567 
Q 2575 -91 1691 -91 
Q 1453 -91 1209 -44 
Q 966 3 703 97 
z
M 1959 2075 
Q 2384 2075 2632 2365 
Q 2881 2656 2881 3163 
Q 2881 3666 2632 3958 
Q 2384 4250 1959 4250 
Q 1534 4250 1286 3958 
Q 1038 3666 1038 3163 
Q 1038 2656 1286 2365 
Q 1534 2075 1959 2075 
z
" transform="scale(0.015625)"/>
       </defs>
       <use xlink:href="#DejaVuSans-39"/>
       <use xlink:href="#DejaVuSans-30" x="63.623047"/>
      </g>
     </g>
    </g>
    <g id="ytick_9">
     <g id="line2d_22">
      <path d="M 50.836875 23.837812 
L 417.566875 23.837812 
" clip-path="url(#p4b4ba12c0f)" style="fill: none; stroke-dasharray: 2.96,1.28; stroke-dashoffset: 0; stroke: #c0c0c0; stroke-width: 0.8"/>
     </g>
     <g id="line2d_23">
      <g>
       <use xlink:href="#m9f1f859317" x="50.836875" y="23.837812" style="stroke: #000000; stroke-width: 0.8"/>
      </g>
     </g>
     <g id="text_15">
      <!-- 100 -->
      <g transform="translate(24.749375 27.637031) scale(0.1 -0.1)">
       <defs>
        <path id="DejaVuSans-31" d="M 794 531 
L 1825 531 
L 1825 4091 
L 703 3866 
L 703 4441 
L 1819 4666 
L 2450 4666 
L 2450 531 
L 3481 531 
L 3481 0 
L 794 0 
L 794 531 
z
" transform="scale(0.015625)"/>
       </defs>
       <use xlink:href="#DejaVuSans-31"/>
       <use xlink:href="#DejaVuSans-30" x="63.623047"/>
       <use xlink:href="#DejaVuSans-30" x="127.246094"/>
      </g>
     </g>
    </g>
    <g id="text_16">
     <!-- Success Rate (%) -->
     <g transform="translate(17.837812 264.04625) rotate(-90) scale(0.14 -0.14)">
      <defs>
       <path id="DejaVuSans-53" d="M 3425 4513 
L 3425 3897 
Q 3066 4069 2747 4153 
Q 2428 4238 2131 4238 
Q 1616 4238 1336 4038 
Q 1056 3838 1056 3469 
Q 1056 3159 1242 3001 
Q 1428 2844 1947 2747 
L 2328 2669 
Q 3034 2534 3370 2195 
Q 3706 1856 3706 1288 
Q 3706 609 3251 259 
Q 2797 -91 1919 -91 
Q 1588 -91 1214 -16 
Q 841 59 441 206 
L 441 856 
Q 825 641 1194 531 
Q 1563 422 1919 422 
Q 2459 422 2753 634 
Q 3047 847 3047 1241 
Q 3047 1584 2836 1778 
Q 2625 1972 2144 2069 
L 1759 2144 
Q 1053 2284 737 2584 
Q 422 2884 422 3419 
Q 422 4038 858 4394 
Q 1294 4750 2059 4750 
Q 2388 4750 2728 4690 
Q 3069 4631 3425 4513 
z
" transform="scale(0.015625)"/>
       <path id="DejaVuSans-52" d="M 2841 2188 
Q 3044 2119 3236 1894 
Q 3428 1669 3622 1275 
L 4263 0 
L 3584 0 
L 2988 1197 
Q 2756 1666 2539 1819 
Q 2322 1972 1947 1972 
L 1259 1972 
L 1259 0 
L 628 0 
L 628 4666 
L 2053 4666 
Q 2853 4666 3247 4331 
Q 3641 3997 3641 3322 
Q 3641 2881 3436 2590 
Q 3231 2300 2841 2188 
z
M 1259 4147 
L 1259 2491 
L 2053 2491 
Q 2509 2491 2742 2702 
Q 2975 2913 2975 3322 
Q 2975 3731 2742 3939 
Q 2509 4147 2053 4147 
L 1259 4147 
z
" transform="scale(0.015625)"/>
       <path id="DejaVuSans-28" d="M 1984 4856 
Q 1566 4138 1362 3434 
Q 1159 2731 1159 2009 
Q 1159 1288 1364 580 
Q 1569 -128 1984 -844 
L 1484 -844 
Q 1016 -109 783 600 
Q 550 1309 550 2009 
Q 550 2706 781 3412 
Q 1013 4119 1484 4856 
L 1984 4856 
z
" transform="scale(0.015625)"/>
       <path id="DejaVuSans-25" d="M 4653 2053 
Q 4381 2053 4226 1822 
Q 4072 1591 4072 1178 
Q 4072 772 4226 539 
Q 4381 306 4653 306 
Q 4919 306 5073 539 
Q 5228 772 5228 1178 
Q 5228 1588 5073 1820 
Q 4919 2053 4653 2053 
z
M 4653 2450 
Q 5147 2450 5437 2106 
Q 5728 1763 5728 1178 
Q 5728 594 5436 251 
Q 5144 -91 4653 -91 
Q 4153 -91 3862 251 
Q 3572 594 3572 1178 
Q 3572 1766 3864 2108 
Q 4156 2450 4653 2450 
z
M 1428 4353 
Q 1159 4353 1004 4120 
Q 850 3888 850 3481 
Q 850 3069 1003 2837 
Q 1156 2606 1428 2606 
Q 1700 2606 1854 2837 
Q 2009 3069 2009 3481 
Q 2009 3884 1853 4118 
Q 1697 4353 1428 4353 
z
M 4250 4750 
L 4750 4750 
L 1831 -91 
L 1331 -91 
L 4250 4750 
z
M 1428 4750 
Q 1922 4750 2215 4408 
Q 2509 4066 2509 3481 
Q 2509 2891 2217 2550 
Q 1925 2209 1428 2209 
Q 931 2209 642 2551 
Q 353 2894 353 3481 
Q 353 4063 643 4406 
Q 934 4750 1428 4750 
z
" transform="scale(0.015625)"/>
       <path id="DejaVuSans-29" d="M 513 4856 
L 1013 4856 
Q 1481 4119 1714 3412 
Q 1947 2706 1947 2009 
Q 1947 1309 1714 600 
Q 1481 -109 1013 -844 
L 513 -844 
Q 928 -128 1133 580 
Q 1338 1288 1338 2009 
Q 1338 2731 1133 3434 
Q 928 4138 513 4856 
z
" transform="scale(0.015625)"/>
      </defs>
      <use xlink:href="#DejaVuSans-53"/>
      <use xlink:href="#DejaVuSans-75" x="63.476562"/>
      <use xlink:href="#DejaVuSans-63" x="126.855469"/>
      <use xlink:href="#DejaVuSans-63" x="181.835938"/>
      <use xlink:href="#DejaVuSans-65" x="236.816406"/>
      <use xlink:href="#DejaVuSans-73" x="298.339844"/>
      <use xlink:href="#DejaVuSans-73" x="350.439453"/>
      <use xlink:href="#DejaVuSans-20" x="402.539062"/>
      <use xlink:href="#DejaVuSans-52" x="434.326172"/>
      <use xlink:href="#DejaVuSans-61" x="501.558594"/>
      <use xlink:href="#DejaVuSans-74" x="562.837891"/>
      <use xlink:href="#DejaVuSans-65" x="602.046875"/>
      <use xlink:href="#DejaVuSans-20" x="663.570312"/>
      <use xlink:href="#DejaVuSans-28" x="695.357422"/>
      <use xlink:href="#DejaVuSans-25" x="734.371094"/>
      <use xlink:href="#DejaVuSans-29" x="829.390625"/>
     </g>
    </g>
   </g>
   <g id="PolyCollection_1">
    <defs>
     <path id="m30490ff820" d="M 50.836875 -175.9925 
L 50.836875 -175.9925 
L 54.823071 -193.371071 
L 58.809266 -214.059538 
L 62.795462 -242.001552 
L 66.781658 -266.905399 
L 70.767853 -269.942546 
L 74.754049 -253.325529 
L 78.740245 -235.761247 
L 82.72644 -230.362106 
L 86.712636 -234.012655 
L 90.698832 -234.529705 
L 94.685027 -233.490956 
L 98.671223 -233.091352 
L 102.657418 -237.323769 
L 106.643614 -247.447548 
L 110.62981 -259.783931 
L 114.616005 -267.810717 
L 118.602201 -272.130863 
L 122.588397 -274.63814 
L 126.574592 -279.385709 
L 130.560788 -283.571582 
L 134.546984 -284.579073 
L 138.533179 -281.288514 
L 142.519375 -278.885208 
L 146.505571 -278.714472 
L 150.491766 -280.606368 
L 154.477962 -287.808528 
L 158.464158 -293.308064 
L 162.450353 -291.775653 
L 166.436549 -290.730559 
L 170.422745 -293.313306 
L 174.40894 -297.760271 
L 178.395136 -298.238647 
L 182.381332 -295.736366 
L 186.367527 -298.039708 
L 190.353723 -302.662841 
L 194.339918 -301.564539 
L 198.326114 -300.217514 
L 202.31231 -306.523138 
L 206.298505 -313.193008 
L 210.284701 -312.843999 
L 214.270897 -308.736703 
L 218.257092 -307.859627 
L 222.243288 -310.140965 
L 226.229484 -314.592512 
L 230.215679 -318.903201 
L 234.201875 -320.963169 
L 238.188071 -318.172801 
L 242.174266 -314.350751 
L 246.160462 -317.653048 
L 250.146658 -321.335497 
L 254.132853 -322.517841 
L 258.119049 -322.852133 
L 262.105245 -322.344629 
L 266.09144 -321.578792 
L 270.077636 -322.320119 
L 274.063832 -322.454976 
L 278.050027 -322.824235 
L 282.036223 -325.709206 
L 286.022418 -329.113277 
L 290.008614 -331.769718 
L 293.99481 -332.706106 
L 297.981005 -332.661091 
L 301.967201 -333.437104 
L 305.953397 -334.693816 
L 309.939592 -335.076522 
L 313.925788 -334.278288 
L 317.911984 -332.867699 
L 321.898179 -332.977557 
L 325.884375 -334.561404 
L 329.870571 -336.209516 
L 333.856766 -337.769541 
L 337.842962 -337.940825 
L 341.829158 -337.404897 
L 345.815353 -337.618926 
L 349.801549 -339.225757 
L 353.787745 -340.505927 
L 357.77394 -340.05753 
L 361.760136 -339.714806 
L 365.746332 -340.151054 
L 369.732527 -340.62276 
L 373.718723 -340.648156 
L 377.704918 -339.958393 
L 381.691114 -338.770975 
L 385.67731 -337.547046 
L 389.663505 -335.93417 
L 393.649701 -333.528971 
L 397.635897 -330.817757 
L 401.622092 -328.369873 
L 405.608288 -326.527597 
L 409.594484 -325.691652 
L 413.580679 -325.522926 
L 417.566875 -325.509562 
L 417.566875 -325.508881 
L 417.566875 -325.508881 
L 413.580679 -325.499424 
L 409.594484 -325.38406 
L 405.608288 -324.865543 
L 401.622092 -324.012874 
L 397.635897 -323.59869 
L 393.649701 -324.007562 
L 389.663505 -324.861122 
L 385.67731 -325.153772 
L 381.691114 -324.859456 
L 377.704918 -324.869231 
L 373.718723 -325.241123 
L 369.732527 -325.505446 
L 365.746332 -324.600183 
L 361.760136 -322.981066 
L 357.77394 -322.576151 
L 353.787745 -322.503918 
L 349.801549 -320.718205 
L 345.815353 -319.151768 
L 341.829158 -319.063255 
L 337.842962 -319.514064 
L 333.856766 -319.459433 
L 329.870571 -318.523311 
L 325.884375 -317.080885 
L 321.898179 -314.778046 
L 317.911984 -313.32142 
L 313.925788 -313.942554 
L 309.939592 -314.727324 
L 305.953397 -313.421108 
L 301.967201 -310.597137 
L 297.981005 -309.906501 
L 293.99481 -310.921887 
L 290.008614 -309.269528 
L 286.022418 -304.658407 
L 282.036223 -300.16853 
L 278.050027 -297.525323 
L 274.063832 -297.575399 
L 270.077636 -297.665715 
L 266.09144 -297.607735 
L 262.105245 -298.625547 
L 258.119049 -297.93895 
L 254.132853 -296.519505 
L 250.146658 -295.138598 
L 246.160462 -290.695905 
L 242.174266 -286.159435 
L 238.188071 -288.931145 
L 234.201875 -290.742625 
L 230.215679 -288.430114 
L 226.229484 -285.385683 
L 222.243288 -281.803517 
L 218.257092 -278.757561 
L 214.270897 -278.496822 
L 210.284701 -281.989561 
L 206.298505 -279.930142 
L 202.31231 -270.448611 
L 198.326114 -264.417841 
L 194.339918 -266.283225 
L 190.353723 -267.333511 
L 186.367527 -263.180767 
L 182.381332 -260.773663 
L 178.395136 -262.157626 
L 174.40894 -260.5813 
L 170.422745 -255.760018 
L 166.436549 -253.462065 
L 162.450353 -255.24897 
L 158.464158 -256.464619 
L 154.477962 -249.235337 
L 150.491766 -241.582421 
L 146.505571 -238.47908 
L 142.519375 -238.244292 
L 138.533179 -242.709837 
L 134.546984 -245.586415 
L 130.560788 -243.638589 
L 126.574592 -240.230139 
L 122.588397 -233.831774 
L 118.602201 -230.024444 
L 114.616005 -226.33325 
L 110.62981 -216.914257 
L 106.643614 -200.89042 
L 102.657418 -188.280701 
L 98.671223 -186.133311 
L 94.685027 -190.096416 
L 90.698832 -192.228623 
L 86.712636 -190.849604 
L 82.72644 -178.576104 
L 78.740245 -170.989092 
L 74.754049 -193.136181 
L 70.767853 -226.931667 
L 66.781658 -236.20764 
L 62.795462 -218.874958 
L 58.809266 -197.244563 
L 54.823071 -184.084198 
L 50.836875 -175.9925 
z
" style="stroke: #66a61e; stroke-opacity: 0.1"/>
    </defs>
    <g clip-path="url(#p4b4ba12c0f)">
     <use xlink:href="#m30490ff820" x="0" y="424.105312" style="fill: #66a61e; fill-opacity: 0.1; stroke: #66a61e; stroke-opacity: 0.1"/>
    </g>
   </g>
   <g id="PolyCollection_2">
    <defs>
     <path id="ma568274ef7" d="M 50.836875 -135.623 
L 50.836875 -135.623 
L 54.823071 -154.638473 
L 58.809266 -187.768826 
L 62.795462 -223.686502 
L 66.781658 -226.852497 
L 70.767853 -213.240477 
L 74.754049 -205.141088 
L 78.740245 -198.403337 
L 82.72644 -192.913444 
L 86.712636 -187.912613 
L 90.698832 -184.577883 
L 94.685027 -192.154287 
L 98.671223 -201.450005 
L 102.657418 -207.379208 
L 106.643614 -210.981561 
L 110.62981 -208.525008 
L 114.616005 -199.919653 
L 118.602201 -198.376593 
L 122.588397 -205.389375 
L 126.574592 -209.078404 
L 130.560788 -206.555476 
L 134.546984 -204.820305 
L 138.533179 -208.842381 
L 142.519375 -214.722982 
L 146.505571 -212.511782 
L 150.491766 -204.931811 
L 154.477962 -206.663033 
L 158.464158 -216.288638 
L 162.450353 -219.856125 
L 166.436549 -218.83331 
L 170.422745 -217.709882 
L 174.40894 -216.871705 
L 178.395136 -212.681753 
L 182.381332 -210.364982 
L 186.367527 -212.852249 
L 190.353723 -213.815231 
L 194.339918 -213.73277 
L 198.326114 -215.458685 
L 202.31231 -218.090781 
L 206.298505 -218.671846 
L 210.284701 -218.893219 
L 214.270897 -219.358963 
L 218.257092 -216.881812 
L 222.243288 -214.612728 
L 226.229484 -216.032153 
L 230.215679 -216.295489 
L 234.201875 -216.480341 
L 238.188071 -218.729778 
L 242.174266 -218.244185 
L 246.160462 -214.908877 
L 250.146658 -213.207144 
L 254.132853 -212.993156 
L 258.119049 -214.408062 
L 262.105245 -217.716625 
L 266.09144 -218.706816 
L 270.077636 -216.123433 
L 274.063832 -213.305357 
L 278.050027 -211.510964 
L 282.036223 -211.183337 
L 286.022418 -212.036358 
L 290.008614 -211.586836 
L 293.99481 -210.128352 
L 297.981005 -210.268384 
L 301.967201 -210.025285 
L 305.953397 -209.539962 
L 309.939592 -210.48274 
L 313.925788 -211.495047 
L 317.911984 -211.112477 
L 321.898179 -209.560344 
L 325.884375 -208.832673 
L 329.870571 -210.029858 
L 333.856766 -211.833653 
L 337.842962 -214.315981 
L 341.829158 -216.486055 
L 345.815353 -217.639678 
L 349.801549 -215.555024 
L 353.787745 -209.942827 
L 357.77394 -205.922252 
L 361.760136 -205.309541 
L 365.746332 -204.686958 
L 369.732527 -204.111707 
L 373.718723 -205.63761 
L 377.704918 -208.782173 
L 381.691114 -209.237169 
L 385.67731 -206.453462 
L 389.663505 -203.992047 
L 393.649701 -201.78552 
L 397.635897 -199.288606 
L 401.622092 -195.027602 
L 405.608288 -187.517312 
L 409.594484 -180.155447 
L 413.580679 -176.728708 
L 417.566875 -176.049056 
L 417.566875 -175.993882 
L 417.566875 -175.993882 
L 413.580679 -176.017256 
L 409.594484 -176.21292 
L 405.608288 -176.967883 
L 401.622092 -178.246585 
L 397.635897 -179.309907 
L 393.649701 -180.383443 
L 389.663505 -181.642389 
L 385.67731 -183.068333 
L 381.691114 -184.807405 
L 377.704918 -183.780173 
L 373.718723 -181.480992 
L 369.732527 -181.207447 
L 365.746332 -181.418111 
L 361.760136 -181.076305 
L 357.77394 -181.464368 
L 353.787745 -184.947938 
L 349.801549 -189.706914 
L 345.815353 -191.018007 
L 341.829158 -189.446331 
L 337.842962 -188.080767 
L 333.856766 -186.844887 
L 329.870571 -185.202479 
L 325.884375 -183.652877 
L 321.898179 -184.138448 
L 317.911984 -185.362809 
L 313.925788 -185.470917 
L 309.939592 -184.767677 
L 305.953397 -184.194751 
L 301.967201 -184.820475 
L 297.981005 -184.860022 
L 293.99481 -184.588713 
L 290.008614 -186.074122 
L 286.022418 -186.070363 
L 282.036223 -185.215569 
L 278.050027 -184.984193 
L 274.063832 -185.270911 
L 270.077636 -187.644455 
L 266.09144 -191.387508 
L 262.105245 -192.002555 
L 258.119049 -188.82224 
L 254.132853 -186.928672 
L 250.146658 -186.894194 
L 246.160462 -187.273288 
L 242.174266 -187.991156 
L 238.188071 -186.368808 
L 234.201875 -182.841921 
L 230.215679 -183.053758 
L 226.229484 -185.460002 
L 222.243288 -185.832165 
L 218.257092 -187.383657 
L 214.270897 -188.685618 
L 210.284701 -187.356418 
L 206.298505 -185.917706 
L 202.31231 -184.524748 
L 198.326114 -181.447275 
L 194.339918 -180.707111 
L 190.353723 -181.197627 
L 186.367527 -180.058569 
L 182.381332 -179.015843 
L 178.395136 -180.755705 
L 174.40894 -183.245671 
L 170.422745 -183.873306 
L 166.436549 -184.53706 
L 162.450353 -185.53811 
L 158.464158 -182.878533 
L 154.477962 -174.634876 
L 150.491766 -172.941768 
L 146.505571 -177.178918 
L 142.519375 -176.664302 
L 138.533179 -171.545396 
L 134.546984 -168.278227 
L 130.560788 -169.539486 
L 126.574592 -171.562717 
L 122.588397 -168.004367 
L 118.602201 -160.614928 
L 114.616005 -160.124831 
L 110.62981 -164.865601 
L 106.643614 -163.085474 
L 102.657418 -160.802485 
L 98.671223 -154.768552 
L 94.685027 -141.297717 
L 90.698832 -132.057242 
L 86.712636 -138.3581 
L 82.72644 -145.838447 
L 78.740245 -149.884591 
L 74.754049 -158.211988 
L 70.767853 -165.219838 
L 66.781658 -170.226861 
L 62.795462 -159.86233 
L 58.809266 -130.678704 
L 54.823071 -121.409214 
L 50.836875 -135.623 
z
" style="stroke: #e7298a; stroke-opacity: 0.1"/>
    </defs>
    <g clip-path="url(#p4b4ba12c0f)">
     <use xlink:href="#ma568274ef7" x="0" y="424.105312" style="fill: #e7298a; fill-opacity: 0.1; stroke: #e7298a; stroke-opacity: 0.1"/>
    </g>
   </g>
   <g id="PolyCollection_3">
    <defs>
     <path id="m59abc46deb" d="M 50.836875 -122.1665 
L 50.836875 -122.1665 
L 54.823071 -144.962504 
L 58.809266 -167.603392 
L 62.795462 -181.373628 
L 66.781658 -178.797862 
L 70.767853 -175.528849 
L 74.754049 -174.943717 
L 78.740245 -171.50363 
L 82.72644 -168.969129 
L 86.712636 -165.697774 
L 90.698832 -165.384274 
L 94.685027 -169.10239 
L 98.671223 -168.586335 
L 102.657418 -167.619417 
L 106.643614 -169.784605 
L 110.62981 -172.83374 
L 114.616005 -175.18187 
L 118.602201 -175.882042 
L 122.588397 -176.596812 
L 126.574592 -180.066468 
L 130.560788 -182.111002 
L 134.546984 -180.916629 
L 138.533179 -178.899423 
L 142.519375 -178.520788 
L 146.505571 -178.924074 
L 150.491766 -177.973518 
L 154.477962 -178.250673 
L 158.464158 -181.677831 
L 162.450353 -183.712194 
L 166.436549 -182.390826 
L 170.422745 -179.77896 
L 174.40894 -177.604436 
L 178.395136 -174.97737 
L 182.381332 -172.74891 
L 186.367527 -174.442568 
L 190.353723 -177.97808 
L 194.339918 -179.657036 
L 198.326114 -181.109258 
L 202.31231 -181.205917 
L 206.298505 -179.869394 
L 210.284701 -179.096306 
L 214.270897 -178.277068 
L 218.257092 -177.604145 
L 222.243288 -178.15534 
L 226.229484 -178.265878 
L 230.215679 -176.84868 
L 234.201875 -175.723443 
L 238.188071 -176.512202 
L 242.174266 -178.811786 
L 246.160462 -179.081068 
L 250.146658 -176.672209 
L 254.132853 -174.808263 
L 258.119049 -175.022786 
L 262.105245 -175.491139 
L 266.09144 -174.852437 
L 270.077636 -174.883696 
L 274.063832 -175.437362 
L 278.050027 -176.138336 
L 282.036223 -177.485597 
L 286.022418 -177.491845 
L 290.008614 -177.282375 
L 293.99481 -178.078626 
L 297.981005 -178.674101 
L 301.967201 -178.987038 
L 305.953397 -179.357497 
L 309.939592 -179.25879 
L 313.925788 -179.13911 
L 317.911984 -178.725689 
L 321.898179 -178.936235 
L 325.884375 -180.015808 
L 329.870571 -180.382143 
L 333.856766 -180.145642 
L 337.842962 -180.262648 
L 341.829158 -180.602436 
L 345.815353 -180.45866 
L 349.801549 -180.664621 
L 353.787745 -181.987048 
L 357.77394 -183.731492 
L 361.760136 -184.457292 
L 365.746332 -184.067967 
L 369.732527 -183.837834 
L 373.718723 -183.886408 
L 377.704918 -184.258328 
L 381.691114 -184.84399 
L 385.67731 -184.65298 
L 389.663505 -184.339051 
L 393.649701 -183.982957 
L 397.635897 -183.056606 
L 401.622092 -181.38547 
L 405.608288 -179.034104 
L 409.594484 -177.032372 
L 413.580679 -176.170575 
L 417.566875 -176.005973 
L 417.566875 -175.988271 
L 417.566875 -175.988271 
L 413.580679 -175.943482 
L 409.594484 -175.786925 
L 405.608288 -175.750225 
L 401.622092 -176.206836 
L 397.635897 -176.881757 
L 393.649701 -177.375384 
L 389.663505 -177.432173 
L 385.67731 -177.327189 
L 381.691114 -177.107909 
L 377.704918 -176.089796 
L 373.718723 -175.070454 
L 369.732527 -174.456846 
L 365.746332 -174.3375 
L 361.760136 -174.298872 
L 357.77394 -173.299844 
L 353.787745 -171.898622 
L 349.801549 -170.747168 
L 345.815353 -170.120719 
L 341.829158 -169.989998 
L 337.842962 -169.600573 
L 333.856766 -169.01932 
L 329.870571 -168.484064 
L 325.884375 -167.647449 
L 321.898179 -166.456048 
L 317.911984 -165.989351 
L 313.925788 -165.730984 
L 309.939592 -165.30482 
L 305.953397 -165.493357 
L 301.967201 -165.705993 
L 297.981005 -165.651628 
L 293.99481 -164.389218 
L 290.008614 -162.747714 
L 286.022418 -162.549758 
L 282.036223 -162.141627 
L 278.050027 -160.266125 
L 274.063832 -159.677247 
L 270.077636 -159.67776 
L 266.09144 -159.769845 
L 262.105245 -159.580588 
L 258.119049 -157.921342 
L 254.132853 -157.574065 
L 250.146658 -159.804949 
L 246.160462 -162.325855 
L 242.174266 -162.060887 
L 238.188071 -159.882652 
L 234.201875 -158.929429 
L 230.215679 -159.285284 
L 226.229484 -159.924735 
L 222.243288 -160.045246 
L 218.257092 -159.99433 
L 214.270897 -161.03257 
L 210.284701 -161.422129 
L 206.298505 -160.87178 
L 202.31231 -161.229148 
L 198.326114 -160.448175 
L 194.339918 -159.335543 
L 190.353723 -159.025544 
L 186.367527 -156.482299 
L 182.381332 -154.327049 
L 178.395136 -155.1599 
L 174.40894 -156.124904 
L 170.422745 -156.963651 
L 166.436549 -159.181167 
L 162.450353 -160.091556 
L 158.464158 -158.293975 
L 154.477962 -154.437154 
L 150.491766 -153.013235 
L 146.505571 -154.129414 
L 142.519375 -155.172514 
L 138.533179 -155.663827 
L 134.546984 -156.029122 
L 130.560788 -154.322085 
L 126.574592 -152.014174 
L 122.588397 -151.703232 
L 118.602201 -152.392835 
L 114.616005 -149.515419 
L 110.62981 -144.940598 
L 106.643614 -141.253859 
L 102.657418 -140.115648 
L 98.671223 -143.168353 
L 94.685027 -145.09016 
L 90.698832 -140.602086 
L 86.712636 -137.884869 
L 82.72644 -140.782925 
L 78.740245 -145.278702 
L 74.754049 -151.577356 
L 70.767853 -152.22778 
L 66.781658 -151.333312 
L 62.795462 -155.347372 
L 58.809266 -153.205081 
L 54.823071 -140.273136 
L 50.836875 -122.1665 
z
" style="stroke: #7570b3; stroke-opacity: 0.1"/>
    </defs>
    <g clip-path="url(#p4b4ba12c0f)">
     <use xlink:href="#m59abc46deb" x="0" y="424.105312" style="fill: #7570b3; fill-opacity: 0.1; stroke: #7570b3; stroke-opacity: 0.1"/>
    </g>
   </g>
   <g id="PolyCollection_4">
    <defs>
     <path id="m035693ed2a" d="M 50.836875 -99.739 
L 50.836875 -99.739 
L 54.823071 -123.01746 
L 58.809266 -138.519129 
L 62.795462 -144.81927 
L 66.781658 -149.734173 
L 70.767853 -152.863838 
L 74.754049 -153.371202 
L 78.740245 -158.25529 
L 82.72644 -164.556376 
L 86.712636 -166.542032 
L 90.698832 -164.949747 
L 94.685027 -164.711642 
L 98.671223 -167.825155 
L 102.657418 -167.016983 
L 106.643614 -162.183242 
L 110.62981 -160.38088 
L 114.616005 -162.58734 
L 118.602201 -165.036045 
L 122.588397 -165.923365 
L 126.574592 -165.49504 
L 130.560788 -166.500067 
L 134.546984 -165.597805 
L 138.533179 -166.486876 
L 142.519375 -172.955494 
L 146.505571 -174.741851 
L 150.491766 -173.607722 
L 154.477962 -174.428235 
L 158.464158 -172.194103 
L 162.450353 -168.307293 
L 166.436549 -169.791117 
L 170.422745 -175.002486 
L 174.40894 -181.41004 
L 178.395136 -186.79065 
L 182.381332 -189.128099 
L 186.367527 -191.467492 
L 190.353723 -192.418941 
L 194.339918 -188.320344 
L 198.326114 -182.840671 
L 202.31231 -183.171549 
L 206.298505 -188.668524 
L 210.284701 -192.01344 
L 214.270897 -190.717367 
L 218.257092 -188.293211 
L 222.243288 -185.815957 
L 226.229484 -185.415527 
L 230.215679 -187.528246 
L 234.201875 -188.803212 
L 238.188071 -188.282531 
L 242.174266 -190.231904 
L 246.160462 -195.897122 
L 250.146658 -201.843958 
L 254.132853 -202.278236 
L 258.119049 -196.916349 
L 262.105245 -192.930183 
L 266.09144 -192.819799 
L 270.077636 -193.957164 
L 274.063832 -195.483259 
L 278.050027 -197.658319 
L 282.036223 -197.024629 
L 286.022418 -194.53759 
L 290.008614 -194.652312 
L 293.99481 -197.28923 
L 297.981005 -200.547298 
L 301.967201 -202.877632 
L 305.953397 -203.186663 
L 309.939592 -202.693386 
L 313.925788 -202.639119 
L 317.911984 -203.691116 
L 321.898179 -203.448763 
L 325.884375 -201.445705 
L 329.870571 -199.786436 
L 333.856766 -199.506968 
L 337.842962 -199.412984 
L 341.829158 -198.856573 
L 345.815353 -198.796712 
L 349.801549 -199.722849 
L 353.787745 -200.59593 
L 357.77394 -200.423379 
L 361.760136 -200.418114 
L 365.746332 -201.248686 
L 369.732527 -201.855238 
L 373.718723 -201.412565 
L 377.704918 -200.752677 
L 381.691114 -200.957146 
L 385.67731 -201.553707 
L 389.663505 -201.756287 
L 393.649701 -201.368028 
L 397.635897 -201.009285 
L 401.622092 -200.919804 
L 405.608288 -200.91218 
L 409.594484 -200.911944 
L 413.580679 -200.911944 
L 417.566875 -200.911944 
L 417.566875 -200.911944 
L 417.566875 -200.911944 
L 413.580679 -200.911944 
L 409.594484 -200.911944 
L 405.608288 -200.911242 
L 401.622092 -200.887814 
L 397.635897 -200.599056 
L 393.649701 -199.260215 
L 389.663505 -196.787552 
L 385.67731 -194.373779 
L 381.691114 -191.822967 
L 377.704918 -189.796465 
L 373.718723 -189.562433 
L 369.732527 -188.694251 
L 365.746332 -186.895932 
L 361.760136 -186.036489 
L 357.77394 -185.361438 
L 353.787745 -183.710963 
L 349.801549 -181.563496 
L 345.815353 -179.614487 
L 341.829158 -178.412279 
L 337.842962 -178.610547 
L 333.856766 -179.468213 
L 329.870571 -180.680875 
L 325.884375 -180.931215 
L 321.898179 -179.131358 
L 317.911984 -176.67959 
L 313.925788 -176.398737 
L 309.939592 -177.968505 
L 305.953397 -177.687382 
L 301.967201 -176.619629 
L 297.981005 -174.967783 
L 293.99481 -171.947266 
L 290.008614 -168.342523 
L 286.022418 -167.346299 
L 282.036223 -169.182895 
L 278.050027 -168.680654 
L 274.063832 -165.714344 
L 270.077636 -164.119722 
L 266.09144 -161.971419 
L 262.105245 -160.308947 
L 258.119049 -163.516023 
L 254.132853 -168.25461 
L 250.146658 -166.639756 
L 246.160462 -161.776139 
L 242.174266 -158.558825 
L 238.188071 -156.764322 
L 234.201875 -154.942123 
L 230.215679 -151.542385 
L 226.229484 -147.105758 
L 222.243288 -145.198221 
L 218.257092 -147.802134 
L 214.270897 -152.080464 
L 210.284701 -152.248834 
L 206.298505 -146.878258 
L 202.31231 -141.915087 
L 198.326114 -140.60718 
L 194.339918 -143.34305 
L 190.353723 -148.396396 
L 186.367527 -150.943341 
L 182.381332 -149.581915 
L 178.395136 -146.093578 
L 174.40894 -140.450115 
L 170.422745 -133.496041 
L 166.436549 -127.32332 
L 162.450353 -128.123105 
L 158.464158 -136.412436 
L 154.477962 -137.432021 
L 150.491766 -129.972223 
L 146.505571 -125.595996 
L 142.519375 -120.458885 
L 138.533179 -112.142996 
L 134.546984 -113.242625 
L 130.560788 -117.951985 
L 126.574592 -117.889779 
L 122.588397 -117.275727 
L 118.602201 -117.365472 
L 114.616005 -117.304912 
L 110.62981 -118.307941 
L 106.643614 -119.584071 
L 102.657418 -121.8556 
L 98.671223 -122.941991 
L 94.685027 -124.073518 
L 90.698832 -128.422509 
L 86.712636 -130.870364 
L 82.72644 -126.885974 
L 78.740245 -117.265901 
L 74.754049 -110.663294 
L 70.767853 -113.018229 
L 66.781658 -107.298856 
L 62.795462 -93.302745 
L 58.809266 -94.284243 
L 54.823071 -99.743415 
L 50.836875 -99.739 
z
" style="stroke: #d95f02; stroke-opacity: 0.1"/>
    </defs>
    <g clip-path="url(#p4b4ba12c0f)">
     <use xlink:href="#m035693ed2a" x="0" y="424.105312" style="fill: #d95f02; fill-opacity: 0.1; stroke: #d95f02; stroke-opacity: 0.1"/>
    </g>
   </g>
   <g id="PolyCollection_5">
    <defs>
     <path id="mc114c7a26c" d="M 50.836875 -99.739 
L 50.836875 -99.739 
L 54.823071 -112.383899 
L 58.809266 -122.340693 
L 62.795462 -124.672875 
L 66.781658 -121.091229 
L 70.767853 -128.168522 
L 74.754049 -148.166795 
L 78.740245 -159.086664 
L 82.72644 -153.446254 
L 86.712636 -147.234557 
L 90.698832 -146.469561 
L 94.685027 -142.674033 
L 98.671223 -143.689465 
L 102.657418 -153.367254 
L 106.643614 -161.14637 
L 110.62981 -163.404849 
L 114.616005 -165.309183 
L 118.602201 -171.387661 
L 122.588397 -171.979526 
L 126.574592 -168.788224 
L 130.560788 -167.433137 
L 134.546984 -165.303057 
L 138.533179 -164.684787 
L 142.519375 -166.955707 
L 146.505571 -168.073343 
L 150.491766 -169.017834 
L 154.477962 -166.672453 
L 158.464158 -162.143448 
L 162.450353 -161.653469 
L 166.436549 -162.136441 
L 170.422745 -163.684046 
L 174.40894 -168.15104 
L 178.395136 -168.421198 
L 182.381332 -164.788609 
L 186.367527 -161.173228 
L 190.353723 -161.098892 
L 194.339918 -165.813508 
L 198.326114 -169.814933 
L 202.31231 -169.469308 
L 206.298505 -170.395586 
L 210.284701 -174.596957 
L 214.270897 -176.801841 
L 218.257092 -175.271789 
L 222.243288 -173.46526 
L 226.229484 -172.541498 
L 230.215679 -171.519716 
L 234.201875 -171.395263 
L 238.188071 -172.309531 
L 242.174266 -173.1797 
L 246.160462 -174.051793 
L 250.146658 -174.570784 
L 254.132853 -172.650384 
L 258.119049 -170.429016 
L 262.105245 -169.360829 
L 266.09144 -169.491852 
L 270.077636 -172.063125 
L 274.063832 -174.691247 
L 278.050027 -174.447041 
L 282.036223 -172.583669 
L 286.022418 -171.797578 
L 290.008614 -171.611859 
L 293.99481 -171.112378 
L 297.981005 -170.715651 
L 301.967201 -170.946442 
L 305.953397 -171.08204 
L 309.939592 -170.658607 
L 313.925788 -169.636451 
L 317.911984 -169.57071 
L 321.898179 -170.683329 
L 325.884375 -170.81762 
L 329.870571 -168.953649 
L 333.856766 -166.551419 
L 337.842962 -166.150377 
L 341.829158 -166.737675 
L 345.815353 -166.452658 
L 349.801549 -166.467123 
L 353.787745 -166.506934 
L 357.77394 -166.156842 
L 361.760136 -165.341643 
L 365.746332 -164.115673 
L 369.732527 -163.329661 
L 373.718723 -162.754557 
L 377.704918 -162.423917 
L 381.691114 -162.220561 
L 385.67731 -161.722068 
L 389.663505 -161.253052 
L 393.649701 -161.073639 
L 397.635897 -161.043105 
L 401.622092 -161.040895 
L 405.608288 -161.040833 
L 409.594484 -161.040833 
L 413.580679 -161.040833 
L 417.566875 -161.040833 
L 417.566875 -161.040833 
L 417.566875 -161.040833 
L 413.580679 -161.040833 
L 409.594484 -161.040833 
L 405.608288 -161.040833 
L 401.622092 -161.040569 
L 397.635897 -161.031755 
L 393.649701 -160.922972 
L 389.663505 -160.418824 
L 385.67731 -159.521175 
L 381.691114 -158.930612 
L 377.704918 -158.976108 
L 373.718723 -159.150396 
L 369.732527 -158.68937 
L 365.746332 -157.908379 
L 361.760136 -157.735228 
L 357.77394 -157.934816 
L 353.787745 -157.865603 
L 349.801549 -157.351448 
L 345.815353 -156.746282 
L 341.829158 -156.165214 
L 337.842962 -155.490355 
L 333.856766 -155.607194 
L 329.870571 -157.012602 
L 325.884375 -158.614415 
L 321.898179 -158.599657 
L 317.911984 -157.293365 
L 313.925788 -156.712807 
L 309.939592 -156.678758 
L 305.953397 -155.662 
L 301.967201 -154.530881 
L 297.981005 -154.398341 
L 293.99481 -155.131734 
L 290.008614 -155.675779 
L 286.022418 -155.086518 
L 282.036223 -154.087813 
L 278.050027 -154.339627 
L 274.063832 -154.396368 
L 270.077636 -151.694715 
L 266.09144 -148.49091 
L 262.105245 -147.791069 
L 258.119049 -148.587123 
L 254.132853 -149.783441 
L 250.146658 -150.634898 
L 246.160462 -150.709518 
L 242.174266 -151.003931 
L 238.188071 -150.645084 
L 234.201875 -148.726655 
L 230.215679 -148.13136 
L 226.229484 -148.278119 
L 222.243288 -147.427152 
L 218.257092 -149.284848 
L 214.270897 -151.218148 
L 210.284701 -148.438732 
L 206.298505 -143.37601 
L 202.31231 -140.952112 
L 198.326114 -141.0381 
L 194.339918 -137.882365 
L 190.353723 -133.921772 
L 186.367527 -134.843636 
L 182.381332 -138.82563 
L 178.395136 -140.505657 
L 174.40894 -138.512957 
L 170.422745 -136.470657 
L 166.436549 -137.539599 
L 162.450353 -135.528 
L 158.464158 -131.702667 
L 154.477962 -132.51433 
L 150.491766 -133.203319 
L 146.505571 -133.42853 
L 142.519375 -134.70794 
L 138.533179 -131.584985 
L 134.546984 -128.473418 
L 130.560788 -128.622941 
L 126.574592 -132.024401 
L 122.588397 -137.497629 
L 118.602201 -136.648323 
L 114.616005 -129.842974 
L 110.62981 -127.027156 
L 106.643614 -124.112322 
L 102.657418 -115.84549 
L 98.671223 -102.492837 
L 94.685027 -97.889906 
L 90.698832 -101.387518 
L 86.712636 -106.917746 
L 82.72644 -118.476559 
L 78.740245 -126.990541 
L 74.754049 -118.277478 
L 70.767853 -92.852541 
L 66.781658 -76.295491 
L 62.795462 -77.475129 
L 58.809266 -87.203957 
L 54.823071 -95.068694 
L 50.836875 -99.739 
z
" style="stroke: #1b9e77; stroke-opacity: 0.1"/>
    </defs>
    <g clip-path="url(#p4b4ba12c0f)">
     <use xlink:href="#mc114c7a26c" x="0" y="424.105312" style="fill: #1b9e77; fill-opacity: 0.1; stroke: #1b9e77; stroke-opacity: 0.1"/>
    </g>
   </g>
   <g id="line2d_24">
    <path d="M 50.836875 248.112812 
L 54.823071 233.829866 
L 58.809266 215.650766 
L 62.795462 189.812625 
L 66.781658 167.4325 
L 70.767853 168.499726 
L 74.754049 190.842899 
L 78.740245 209.934784 
L 82.72644 211.005207 
L 86.712636 204.480341 
L 90.698832 203.675968 
L 94.685027 205.079203 
L 98.671223 206.666641 
L 102.657418 203.129233 
L 106.643614 192.176807 
L 110.62981 178.611273 
L 114.616005 170.120417 
L 118.602201 166.009922 
L 122.588397 163.069294 
L 126.574592 157.77146 
L 130.560788 153.844728 
L 134.546984 152.523792 
L 138.533179 155.676357 
L 142.519375 158.767076 
L 146.505571 158.802638 
L 150.491766 156.506927 
L 154.477962 149.154515 
L 158.464158 143.078397 
L 162.450353 144.50522 
L 166.436549 145.797585 
L 170.422745 143.309769 
L 174.40894 138.738032 
L 178.395136 137.893673 
L 182.381332 140.023181 
L 186.367527 137.685252 
L 190.353723 133.218915 
L 194.339918 134.301211 
L 198.326114 135.821023 
L 202.31231 129.607017 
L 206.298505 121.999927 
L 210.284701 121.546126 
L 214.270897 125.44857 
L 218.257092 125.946374 
L 222.243288 123.410164 
L 226.229484 119.24841 
L 230.215679 115.359808 
L 234.201875 113.215658 
L 238.188071 115.67973 
L 242.174266 119.151667 
L 246.160462 115.437979 
L 250.146658 111.502115 
L 254.132853 110.253584 
L 258.119049 109.557574 
L 262.105245 109.667044 
L 266.09144 110.516873 
L 270.077636 110.003329 
L 274.063832 109.943529 
L 278.050027 109.714048 
L 282.036223 106.909665 
L 286.022418 103.143659 
L 290.008614 99.835658 
L 293.99481 98.660613 
L 297.981005 99.029084 
L 301.967201 98.28153 
L 305.953397 96.502399 
L 309.939592 95.811856 
L 313.925788 96.605602 
L 317.911984 97.75304 
L 321.898179 97.194259 
L 325.884375 95.370749 
L 329.870571 93.791199 
L 333.856766 92.439141 
L 337.842962 92.306741 
L 341.829158 92.814296 
L 345.815353 92.642105 
L 349.801549 91.04874 
L 353.787745 89.600055 
L 357.77394 89.874909 
L 361.760136 89.96842 
L 365.746332 89.137882 
L 369.732527 88.521657 
L 373.718723 88.592834 
L 377.704918 89.17664 
L 381.691114 89.97151 
L 385.67731 90.689358 
L 389.663505 91.862159 
L 393.649701 93.750145 
L 397.635897 95.693911 
L 401.622092 97.187772 
L 405.608288 98.131734 
L 409.594484 98.516191 
L 413.580679 98.590221 
L 417.566875 98.595977 
" clip-path="url(#p4b4ba12c0f)" style="fill: none; stroke: #66a61e; stroke-width: 2; stroke-linecap: square"/>
   </g>
   <g id="line2d_25">
    <path d="M 50.836875 248.112812 
L 54.823071 230.734241 
L 58.809266 210.045774 
L 62.795462 182.103761 
L 66.781658 157.199913 
L 70.767853 154.162767 
L 74.754049 170.779783 
L 78.740245 188.344065 
L 82.72644 193.743207 
L 86.712636 190.092658 
L 90.698832 189.575607 
L 94.685027 190.614356 
L 98.671223 191.01396 
L 102.657418 186.781544 
L 106.643614 176.657764 
L 110.62981 164.321381 
L 114.616005 156.294595 
L 118.602201 151.974449 
L 122.588397 149.467172 
L 126.574592 144.719603 
L 130.560788 140.533731 
L 134.546984 139.526239 
L 138.533179 142.816798 
L 142.519375 145.220104 
L 146.505571 145.390841 
L 150.491766 143.498944 
L 154.477962 136.296784 
L 158.464158 130.797248 
L 162.450353 132.329659 
L 166.436549 133.374753 
L 170.422745 130.792006 
L 174.40894 126.345042 
L 178.395136 125.866666 
L 182.381332 128.368946 
L 186.367527 126.065605 
L 190.353723 121.442471 
L 194.339918 122.540773 
L 198.326114 123.887798 
L 202.31231 117.582175 
L 206.298505 110.912305 
L 210.284701 111.261313 
L 214.270897 115.36861 
L 218.257092 116.245686 
L 222.243288 113.964348 
L 226.229484 109.5128 
L 230.215679 105.202112 
L 234.201875 103.142143 
L 238.188071 105.932511 
L 242.174266 109.754562 
L 246.160462 106.452265 
L 250.146658 102.769816 
L 254.132853 101.587472 
L 258.119049 101.253179 
L 262.105245 101.760684 
L 266.09144 102.52652 
L 270.077636 101.785194 
L 274.063832 101.650337 
L 278.050027 101.281077 
L 282.036223 98.396106 
L 286.022418 94.992036 
L 290.008614 92.335594 
L 293.99481 91.399207 
L 297.981005 91.444221 
L 301.967201 90.668208 
L 305.953397 89.411497 
L 309.939592 89.02879 
L 313.925788 89.827024 
L 317.911984 91.237614 
L 321.898179 91.127755 
L 325.884375 89.543909 
L 329.870571 87.895797 
L 333.856766 86.335771 
L 337.842962 86.164488 
L 341.829158 86.700416 
L 345.815353 86.486386 
L 349.801549 84.879556 
L 353.787745 83.599385 
L 357.77394 84.047782 
L 361.760136 84.390506 
L 365.746332 83.954259 
L 369.732527 83.482552 
L 373.718723 83.457156 
L 377.704918 84.146919 
L 381.691114 85.334337 
L 385.67731 86.558266 
L 389.663505 88.171142 
L 393.649701 90.576342 
L 397.635897 93.287555 
L 401.622092 95.735439 
L 405.608288 97.577716 
L 409.594484 98.41366 
L 413.580679 98.582387 
L 417.566875 98.59575 
" clip-path="url(#p4b4ba12c0f)" style="fill: none; stroke-dasharray: 3.7,1.6; stroke-dashoffset: 0; stroke: #66a61e"/>
   </g>
   <g id="line2d_26">
    <path d="M 50.836875 248.112812 
L 54.823071 240.021115 
L 58.809266 226.86075 
L 62.795462 205.230354 
L 66.781658 187.897673 
L 70.767853 197.173646 
L 74.754049 230.969131 
L 78.740245 253.11622 
L 82.72644 245.529209 
L 86.712636 233.255709 
L 90.698832 231.87669 
L 94.685027 234.008896 
L 98.671223 237.972001 
L 102.657418 235.824612 
L 106.643614 223.214893 
L 110.62981 207.191056 
L 114.616005 197.772062 
L 118.602201 194.080868 
L 122.588397 190.273538 
L 126.574592 183.875173 
L 130.560788 180.466723 
L 134.546984 178.518898 
L 138.533179 181.395476 
L 142.519375 185.86102 
L 146.505571 185.626233 
L 150.491766 182.522891 
L 154.477962 174.869976 
L 158.464158 167.640694 
L 162.450353 168.856342 
L 166.436549 170.643247 
L 170.422745 168.345295 
L 174.40894 163.524012 
L 178.395136 161.947687 
L 182.381332 163.33165 
L 186.367527 160.924546 
L 190.353723 156.771801 
L 194.339918 157.822088 
L 198.326114 159.687472 
L 202.31231 153.656702 
L 206.298505 144.17517 
L 210.284701 142.115752 
L 214.270897 145.608491 
L 218.257092 145.347751 
L 222.243288 142.301795 
L 226.229484 138.71963 
L 230.215679 135.675199 
L 234.201875 133.362687 
L 238.188071 135.174167 
L 242.174266 137.945878 
L 246.160462 133.409407 
L 250.146658 128.966714 
L 254.132853 127.585808 
L 258.119049 126.166363 
L 262.105245 125.479766 
L 266.09144 126.497577 
L 270.077636 126.439598 
L 274.063832 126.529913 
L 278.050027 126.579989 
L 282.036223 123.936783 
L 286.022418 119.446905 
L 290.008614 114.835784 
L 293.99481 113.183426 
L 297.981005 114.198811 
L 301.967201 113.508175 
L 305.953397 110.684204 
L 309.939592 109.377989 
L 313.925788 110.162758 
L 317.911984 110.783892 
L 321.898179 109.327266 
L 325.884375 107.024428 
L 329.870571 105.582002 
L 333.856766 104.64588 
L 337.842962 104.591248 
L 341.829158 105.042057 
L 345.815353 104.953544 
L 349.801549 103.387107 
L 353.787745 101.601395 
L 357.77394 101.529161 
L 361.760136 101.124247 
L 365.746332 99.505129 
L 369.732527 98.599867 
L 373.718723 98.86419 
L 377.704918 99.236082 
L 381.691114 99.245856 
L 385.67731 98.951541 
L 389.663505 99.244191 
L 393.649701 100.097751 
L 397.635897 100.506622 
L 401.622092 100.092439 
L 405.608288 99.23977 
L 409.594484 98.721253 
L 413.580679 98.605888 
L 417.566875 98.596431 
" clip-path="url(#p4b4ba12c0f)" style="fill: none; stroke-dasharray: 3.7,1.6; stroke-dashoffset: 0; stroke: #66a61e"/>
   </g>
   <g id="line2d_27">
    <path d="M 50.836875 288.482312 
L 54.823071 280.543259 
L 58.809266 255.366527 
L 62.795462 221.693534 
L 66.781658 216.128027 
L 70.767853 226.871715 
L 74.754049 234.607258 
L 78.740245 241.874891 
L 82.72644 246.883534 
L 86.712636 252.710871 
L 90.698832 257.03431 
L 94.685027 248.903216 
L 98.671223 238.215792 
L 102.657418 232.251679 
L 106.643614 229.089114 
L 110.62981 230.13344 
L 114.616005 237.4506 
L 118.602201 238.315941 
L 122.588397 231.177607 
L 126.574592 227.532138 
L 130.560788 229.8885 
L 134.546984 231.4657 
L 138.533179 227.69526 
L 142.519375 222.068557 
L 146.505571 223.371152 
L 150.491766 229.836849 
L 154.477962 228.118332 
L 158.464158 218.953376 
L 162.450353 215.688526 
L 166.436549 216.704086 
L 170.422745 217.674289 
L 174.40894 218.442286 
L 178.395136 222.065575 
L 182.381332 224.190043 
L 186.367527 222.18429 
L 190.353723 221.162616 
L 194.339918 221.381095 
L 198.326114 219.983764 
L 202.31231 217.203209 
L 206.298505 216.351513 
L 210.284701 215.72436 
L 214.270897 214.970798 
L 218.257092 217.056219 
L 222.243288 219.086105 
L 226.229484 218.263877 
L 230.215679 218.8904 
L 234.201875 218.837778 
L 238.188071 216.162524 
L 242.174266 215.945471 
L 246.160462 218.408298 
L 250.146658 219.669152 
L 254.132853 219.800318 
L 258.119049 218.225858 
L 262.105245 214.960044 
L 266.09144 214.504932 
L 270.077636 217.474872 
L 274.063832 220.144771 
L 278.050027 221.436605 
L 282.036223 221.577898 
L 286.022418 220.724286 
L 290.008614 221.022715 
L 293.99481 222.490173 
L 297.981005 222.306382 
L 301.967201 222.481631 
L 305.953397 223.013754 
L 309.939592 222.19426 
L 313.925788 221.284976 
L 317.911984 221.576058 
L 321.898179 223.018934 
L 325.884375 223.665904 
L 329.870571 222.351247 
L 333.856766 220.601248 
L 337.842962 218.534403 
L 341.829158 216.632499 
L 345.815353 215.339525 
L 349.801549 217.166325 
L 353.787745 222.494115 
L 357.77394 226.335689 
L 361.760136 226.873517 
L 365.746332 227.174637 
L 369.732527 227.628359 
L 373.718723 226.519908 
L 377.704918 223.657139 
L 381.691114 223.011398 
L 385.67731 225.446894 
L 389.663505 227.563152 
L 393.649701 229.453818 
L 397.635897 231.476273 
L 401.622092 234.671383 
L 405.608288 240.104477 
L 409.594484 245.264041 
L 413.580679 247.613755 
L 417.566875 248.074648 
" clip-path="url(#p4b4ba12c0f)" style="fill: none; stroke: #e7298a; stroke-width: 2; stroke-linecap: square"/>
   </g>
   <g id="line2d_28">
    <path d="M 50.836875 288.482312 
L 54.823071 269.46684 
L 58.809266 236.336487 
L 62.795462 200.41881 
L 66.781658 197.252815 
L 70.767853 210.864835 
L 74.754049 218.964225 
L 78.740245 225.701976 
L 82.72644 231.191869 
L 86.712636 236.1927 
L 90.698832 239.527429 
L 94.685027 231.951026 
L 98.671223 222.655308 
L 102.657418 216.726105 
L 106.643614 213.123752 
L 110.62981 215.580305 
L 114.616005 224.18566 
L 118.602201 225.728719 
L 122.588397 218.715938 
L 126.574592 215.026909 
L 130.560788 217.549836 
L 134.546984 219.285008 
L 138.533179 215.262932 
L 142.519375 209.38233 
L 146.505571 211.59353 
L 150.491766 219.173501 
L 154.477962 217.442279 
L 158.464158 207.816674 
L 162.450353 204.249187 
L 166.436549 205.272003 
L 170.422745 206.39543 
L 174.40894 207.233607 
L 178.395136 211.423559 
L 182.381332 213.74033 
L 186.367527 211.253063 
L 190.353723 210.290082 
L 194.339918 210.372542 
L 198.326114 208.646628 
L 202.31231 206.014531 
L 206.298505 205.433467 
L 210.284701 205.212093 
L 214.270897 204.74635 
L 218.257092 207.2235 
L 222.243288 209.492584 
L 226.229484 208.07316 
L 230.215679 207.809823 
L 234.201875 207.624971 
L 238.188071 205.375535 
L 242.174266 205.861128 
L 246.160462 209.196435 
L 250.146658 210.898169 
L 254.132853 211.112157 
L 258.119049 209.697251 
L 262.105245 206.388688 
L 266.09144 205.398496 
L 270.077636 207.981879 
L 274.063832 210.799956 
L 278.050027 212.594349 
L 282.036223 212.921975 
L 286.022418 212.068955 
L 290.008614 212.518477 
L 293.99481 213.97696 
L 297.981005 213.836928 
L 301.967201 214.080028 
L 305.953397 214.565351 
L 309.939592 213.622573 
L 313.925788 212.610266 
L 317.911984 212.992836 
L 321.898179 214.544968 
L 325.884375 215.272639 
L 329.870571 214.075454 
L 333.856766 212.271659 
L 337.842962 209.789331 
L 341.829158 207.619257 
L 345.815353 206.465635 
L 349.801549 208.550288 
L 353.787745 214.162486 
L 357.77394 218.183061 
L 361.760136 218.795771 
L 365.746332 219.418354 
L 369.732527 219.993605 
L 373.718723 218.467703 
L 377.704918 215.323139 
L 381.691114 214.868143 
L 385.67731 217.651851 
L 389.663505 220.113266 
L 393.649701 222.319793 
L 397.635897 224.816706 
L 401.622092 229.077711 
L 405.608288 236.588 
L 409.594484 243.949866 
L 413.580679 247.376605 
L 417.566875 248.056257 
" clip-path="url(#p4b4ba12c0f)" style="fill: none; stroke-dasharray: 3.7,1.6; stroke-dashoffset: 0; stroke: #e7298a"/>
   </g>
   <g id="line2d_29">
    <path d="M 50.836875 288.482312 
L 54.823071 302.696099 
L 58.809266 293.426609 
L 62.795462 264.242983 
L 66.781658 253.878451 
L 70.767853 258.885474 
L 74.754049 265.893324 
L 78.740245 274.220722 
L 82.72644 278.266865 
L 86.712636 285.747212 
L 90.698832 292.048071 
L 94.685027 282.807596 
L 98.671223 269.336761 
L 102.657418 263.302828 
L 106.643614 261.019839 
L 110.62981 259.239711 
L 114.616005 263.980481 
L 118.602201 263.490384 
L 122.588397 256.100945 
L 126.574592 252.542596 
L 130.560788 254.565827 
L 134.546984 255.827086 
L 138.533179 252.559917 
L 142.519375 247.441011 
L 146.505571 246.926394 
L 150.491766 251.163544 
L 154.477962 249.470436 
L 158.464158 241.226779 
L 162.450353 238.567203 
L 166.436549 239.568252 
L 170.422745 240.232006 
L 174.40894 240.859642 
L 178.395136 243.349608 
L 182.381332 245.089469 
L 186.367527 244.046744 
L 190.353723 242.907685 
L 194.339918 243.398201 
L 198.326114 242.658037 
L 202.31231 239.580564 
L 206.298505 238.187606 
L 210.284701 236.748894 
L 214.270897 235.419695 
L 218.257092 236.721656 
L 222.243288 238.273147 
L 226.229484 238.645311 
L 230.215679 241.051555 
L 234.201875 241.263392 
L 238.188071 237.736504 
L 242.174266 236.114157 
L 246.160462 236.832024 
L 250.146658 237.211119 
L 254.132853 237.17664 
L 258.119049 235.283072 
L 262.105245 232.102757 
L 266.09144 232.717804 
L 270.077636 236.460857 
L 274.063832 238.834401 
L 278.050027 239.121119 
L 282.036223 238.889743 
L 286.022418 238.034949 
L 290.008614 238.03119 
L 293.99481 239.5166 
L 297.981005 239.24529 
L 301.967201 239.284837 
L 305.953397 239.910561 
L 309.939592 239.337636 
L 313.925788 238.634395 
L 317.911984 238.742503 
L 321.898179 239.966864 
L 325.884375 240.452435 
L 329.870571 238.902833 
L 333.856766 237.260426 
L 337.842962 236.024546 
L 341.829158 234.658981 
L 345.815353 233.087306 
L 349.801549 234.398398 
L 353.787745 239.157375 
L 357.77394 242.640944 
L 361.760136 243.029008 
L 365.746332 242.687201 
L 369.732527 242.897865 
L 373.718723 242.62432 
L 377.704918 240.325139 
L 381.691114 239.297907 
L 385.67731 241.036979 
L 389.663505 242.462924 
L 393.649701 243.721869 
L 397.635897 244.795405 
L 401.622092 245.858727 
L 405.608288 247.137429 
L 409.594484 247.892393 
L 413.580679 248.088056 
L 417.566875 248.111431 
" clip-path="url(#p4b4ba12c0f)" style="fill: none; stroke-dasharray: 3.7,1.6; stroke-dashoffset: 0; stroke: #e7298a"/>
   </g>
   <g id="line2d_30">
    <path d="M 50.836875 301.938812 
L 54.823071 280.705931 
L 58.809266 261.301358 
L 62.795462 251.407103 
L 66.781658 254.462301 
L 70.767853 256.343486 
L 74.754049 256.950382 
L 78.740245 261.343325 
L 82.72644 264.531585 
L 86.712636 267.678507 
L 90.698832 266.981768 
L 94.685027 263.006999 
L 98.671223 263.991638 
L 102.657418 265.653818 
L 106.643614 263.830956 
L 110.62981 260.569286 
L 114.616005 257.478926 
L 118.602201 256.053006 
L 122.588397 255.806361 
L 126.574592 253.389609 
L 130.560788 251.257283 
L 134.546984 251.484519 
L 138.533179 252.951088 
L 142.519375 253.367283 
L 146.505571 253.446125 
L 150.491766 254.451889 
L 154.477962 253.792479 
L 158.464158 250.2221 
L 162.450353 248.266664 
L 166.436549 249.451039 
L 170.422745 251.931456 
L 174.40894 253.66072 
L 178.395136 255.733766 
L 182.381332 257.497023 
L 186.367527 255.649501 
L 190.353723 252.444744 
L 194.339918 251.222108 
L 198.326114 249.883082 
L 202.31231 249.558319 
L 206.298505 250.568456 
L 210.284701 250.900399 
L 214.270897 251.57641 
L 218.257092 252.371106 
L 222.243288 251.986671 
L 226.229484 251.953149 
L 230.215679 253.111098 
L 234.201875 253.979874 
L 238.188071 253.136294 
L 242.174266 250.877159 
L 246.160462 250.609316 
L 250.146658 253.055524 
L 254.132853 255.041782 
L 258.119049 254.783008 
L 262.105245 253.91769 
L 266.09144 254.280406 
L 270.077636 254.290262 
L 274.063832 253.921322 
L 278.050027 253.257713 
L 282.036223 251.734372 
L 286.022418 251.594163 
L 290.008614 251.667824 
L 293.99481 250.589822 
L 297.981005 249.772035 
L 301.967201 249.54529 
L 305.953397 249.369195 
L 309.939592 249.497846 
L 313.925788 249.435578 
L 317.911984 249.625069 
L 321.898179 249.32914 
L 325.884375 248.212291 
L 329.870571 247.689196 
L 333.856766 247.668445 
L 337.842962 247.396689 
L 341.829158 247.040356 
L 345.815353 247.092633 
L 349.801549 246.746509 
L 353.787745 245.481073 
L 357.77394 243.851036 
L 361.760136 243.03416 
L 365.746332 243.280834 
L 369.732527 243.394474 
L 373.718723 243.157556 
L 377.704918 242.569828 
L 381.691114 241.840016 
L 385.67731 241.894263 
L 389.663505 242.068554 
L 393.649701 242.324879 
L 397.635897 243.10699 
L 401.622092 244.446054 
L 405.608288 246.165835 
L 409.594484 247.488089 
L 413.580679 248.010435 
L 417.566875 248.10524 
" clip-path="url(#p4b4ba12c0f)" style="fill: none; stroke: #7570b3; stroke-width: 2; stroke-linecap: square"/>
   </g>
   <g id="line2d_31">
    <path d="M 50.836875 301.938812 
L 54.823071 279.142809 
L 58.809266 256.501921 
L 62.795462 242.731684 
L 66.781658 245.307451 
L 70.767853 248.576463 
L 74.754049 249.161595 
L 78.740245 252.601683 
L 82.72644 255.136183 
L 86.712636 258.407539 
L 90.698832 258.721039 
L 94.685027 255.002922 
L 98.671223 255.518978 
L 102.657418 256.485895 
L 106.643614 254.320707 
L 110.62981 251.271572 
L 114.616005 248.923442 
L 118.602201 248.22327 
L 122.588397 247.508501 
L 126.574592 244.038844 
L 130.560788 241.99431 
L 134.546984 243.188683 
L 138.533179 245.20589 
L 142.519375 245.584525 
L 146.505571 245.181239 
L 150.491766 246.131794 
L 154.477962 245.85464 
L 158.464158 242.427481 
L 162.450353 240.393118 
L 166.436549 241.714486 
L 170.422745 244.326353 
L 174.40894 246.500876 
L 178.395136 249.127943 
L 182.381332 251.356402 
L 186.367527 249.662745 
L 190.353723 246.127232 
L 194.339918 244.448277 
L 198.326114 242.996055 
L 202.31231 242.899396 
L 206.298505 244.235919 
L 210.284701 245.009007 
L 214.270897 245.828244 
L 218.257092 246.501167 
L 222.243288 245.949973 
L 226.229484 245.839435 
L 230.215679 247.256633 
L 234.201875 248.38187 
L 238.188071 247.59311 
L 242.174266 245.293526 
L 246.160462 245.024244 
L 250.146658 247.433104 
L 254.132853 249.29705 
L 258.119049 249.082527 
L 262.105245 248.614173 
L 266.09144 249.252875 
L 270.077636 249.221617 
L 274.063832 248.66795 
L 278.050027 247.966976 
L 282.036223 246.619716 
L 286.022418 246.613467 
L 290.008614 246.822937 
L 293.99481 246.026686 
L 297.981005 245.431211 
L 301.967201 245.118275 
L 305.953397 244.747816 
L 309.939592 244.846522 
L 313.925788 244.966202 
L 317.911984 245.379623 
L 321.898179 245.169078 
L 325.884375 244.089505 
L 329.870571 243.723169 
L 333.856766 243.959671 
L 337.842962 243.842664 
L 341.829158 243.502877 
L 345.815353 243.646652 
L 349.801549 243.440691 
L 353.787745 242.118265 
L 357.77394 240.37382 
L 361.760136 239.64802 
L 365.746332 240.037346 
L 369.732527 240.267478 
L 373.718723 240.218905 
L 377.704918 239.846984 
L 381.691114 239.261323 
L 385.67731 239.452332 
L 389.663505 239.766262 
L 393.649701 240.122355 
L 397.635897 241.048707 
L 401.622092 242.719842 
L 405.608288 245.071208 
L 409.594484 247.07294 
L 413.580679 247.934737 
L 417.566875 248.09934 
" clip-path="url(#p4b4ba12c0f)" style="fill: none; stroke-dasharray: 3.7,1.6; stroke-dashoffset: 0; stroke: #7570b3"/>
   </g>
   <g id="line2d_32">
    <path d="M 50.836875 301.938812 
L 54.823071 283.832176 
L 58.809266 270.900231 
L 62.795462 268.75794 
L 66.781658 272.772001 
L 70.767853 271.877532 
L 74.754049 272.527957 
L 78.740245 278.826611 
L 82.72644 283.322387 
L 86.712636 286.220443 
L 90.698832 283.503227 
L 94.685027 279.015153 
L 98.671223 280.936959 
L 102.657418 283.989664 
L 106.643614 282.851454 
L 110.62981 279.164714 
L 114.616005 274.589894 
L 118.602201 271.712478 
L 122.588397 272.40208 
L 126.574592 272.091139 
L 130.560788 269.783228 
L 134.546984 268.076191 
L 138.533179 268.441485 
L 142.519375 268.932799 
L 146.505571 269.975899 
L 150.491766 271.092078 
L 154.477962 269.668158 
L 158.464158 265.811337 
L 162.450353 264.013757 
L 166.436549 264.924146 
L 170.422745 267.141662 
L 174.40894 267.980409 
L 178.395136 268.945413 
L 182.381332 269.778264 
L 186.367527 267.623013 
L 190.353723 265.079768 
L 194.339918 264.76977 
L 198.326114 263.657137 
L 202.31231 262.876165 
L 206.298505 263.233532 
L 210.284701 262.683184 
L 214.270897 263.072743 
L 218.257092 264.110982 
L 222.243288 264.060067 
L 226.229484 264.180577 
L 230.215679 264.820028 
L 234.201875 265.175883 
L 238.188071 264.222661 
L 242.174266 262.044425 
L 246.160462 261.779458 
L 250.146658 264.300364 
L 254.132853 266.531247 
L 258.119049 266.18397 
L 262.105245 264.524725 
L 266.09144 264.335468 
L 270.077636 264.427552 
L 274.063832 264.428066 
L 278.050027 263.839188 
L 282.036223 261.963685 
L 286.022418 261.555554 
L 290.008614 261.357599 
L 293.99481 259.716095 
L 297.981005 258.453684 
L 301.967201 258.39932 
L 305.953397 258.611955 
L 309.939592 258.800493 
L 313.925788 258.374329 
L 317.911984 258.115962 
L 321.898179 257.649265 
L 325.884375 256.457863 
L 329.870571 255.621248 
L 333.856766 255.085992 
L 337.842962 254.50474 
L 341.829158 254.115315 
L 345.815353 253.984593 
L 349.801549 253.358145 
L 353.787745 252.20669 
L 357.77394 250.805468 
L 361.760136 249.80644 
L 365.746332 249.767812 
L 369.732527 249.648467 
L 373.718723 249.034858 
L 377.704918 248.015517 
L 381.691114 246.997403 
L 385.67731 246.778124 
L 389.663505 246.673139 
L 393.649701 246.729928 
L 397.635897 247.223555 
L 401.622092 247.898477 
L 405.608288 248.355088 
L 409.594484 248.318388 
L 413.580679 248.161831 
L 417.566875 248.117041 
" clip-path="url(#p4b4ba12c0f)" style="fill: none; stroke-dasharray: 3.7,1.6; stroke-dashoffset: 0; stroke: #7570b3"/>
   </g>
   <g id="line2d_33">
    <path d="M 50.836875 324.366312 
L 54.823071 308.845867 
L 58.809266 300.331146 
L 62.795462 296.458218 
L 66.781658 288.516245 
L 70.767853 284.523344 
L 74.754049 284.97008 
L 78.740245 279.513152 
L 82.72644 272.105737 
L 86.712636 269.453836 
L 90.698832 271.331312 
L 94.685027 272.939712 
L 98.671223 271.241212 
L 102.657418 272.142124 
L 106.643614 276.121794 
L 110.62981 277.748745 
L 114.616005 276.612115 
L 118.602201 274.959459 
L 122.588397 274.397827 
L 126.574592 274.478693 
L 130.560788 273.787939 
L 134.546984 275.959234 
L 138.533179 275.733063 
L 142.519375 268.648688 
L 146.505571 265.745413 
L 150.491766 265.042757 
L 154.477962 262.009149 
L 158.464158 263.838432 
L 162.450353 269.192748 
L 166.436549 268.470128 
L 170.422745 262.938308 
L 174.40894 256.348581 
L 178.395136 250.880353 
L 182.381332 248.159275 
L 186.367527 246.145871 
L 190.353723 246.360553 
L 194.339918 250.7774 
L 198.326114 255.342472 
L 202.31231 254.685918 
L 206.298505 249.366877 
L 210.284701 245.346741 
L 214.270897 246.266914 
L 218.257092 249.309127 
L 222.243288 251.828601 
L 226.229484 251.459709 
L 230.215679 248.572353 
L 234.201875 246.589131 
L 238.188071 246.328851 
L 242.174266 244.431102 
L 246.160462 239.581852 
L 250.146658 233.996089 
L 254.132853 233.168285 
L 258.119049 238.322406 
L 262.105245 242.048875 
L 266.09144 241.568307 
L 270.077636 240.093963 
L 274.063832 238.545026 
L 278.050027 236.106215 
L 282.036223 236.361262 
L 286.022418 238.631486 
L 290.008614 238.22293 
L 293.99481 235.263403 
L 297.981005 232.084519 
L 301.967201 229.980348 
L 305.953397 229.41841 
L 309.939592 229.653554 
L 313.925788 230.212988 
L 317.911984 229.418039 
L 321.898179 228.762351 
L 325.884375 229.497771 
L 329.870571 230.687397 
L 333.856766 231.277929 
L 337.842962 231.626474 
L 341.829158 232.063504 
L 345.815353 231.702675 
L 349.801549 230.435581 
L 353.787745 229.137705 
L 357.77394 228.702581 
L 361.760136 228.481073 
L 365.746332 227.640878 
L 369.732527 226.63707 
L 373.718723 226.642791 
L 377.704918 227.004706 
L 381.691114 226.192893 
L 385.67731 224.944915 
L 389.663505 224.00527 
L 393.649701 223.439889 
L 397.635897 223.23277 
L 401.622092 223.196172 
L 405.608288 223.193446 
L 409.594484 223.193368 
L 413.580679 223.193368 
L 417.566875 223.193368 
" clip-path="url(#p4b4ba12c0f)" style="fill: none; stroke: #d95f02; stroke-width: 2; stroke-linecap: square"/>
   </g>
   <g id="line2d_34">
    <path d="M 50.836875 324.366312 
L 54.823071 301.087852 
L 58.809266 285.586184 
L 62.795462 279.286043 
L 66.781658 274.37114 
L 70.767853 271.241475 
L 74.754049 270.734111 
L 78.740245 265.850023 
L 82.72644 259.548937 
L 86.712636 257.563281 
L 90.698832 259.155565 
L 94.685027 259.393671 
L 98.671223 256.280158 
L 102.657418 257.088329 
L 106.643614 261.92207 
L 110.62981 263.724433 
L 114.616005 261.517972 
L 118.602201 259.069268 
L 122.588397 258.181947 
L 126.574592 258.610273 
L 130.560788 257.605245 
L 134.546984 258.507508 
L 138.533179 257.618437 
L 142.519375 251.149818 
L 146.505571 249.363461 
L 150.491766 250.49759 
L 154.477962 249.677077 
L 158.464158 251.911209 
L 162.450353 255.798019 
L 166.436549 254.314196 
L 170.422745 249.102826 
L 174.40894 242.695272 
L 178.395136 237.314662 
L 182.381332 234.977214 
L 186.367527 232.63782 
L 190.353723 231.686371 
L 194.339918 235.784969 
L 198.326114 241.264642 
L 202.31231 240.933763 
L 206.298505 235.436789 
L 210.284701 232.091872 
L 214.270897 233.387946 
L 218.257092 235.812101 
L 222.243288 238.289356 
L 226.229484 238.689786 
L 230.215679 236.577066 
L 234.201875 235.302101 
L 238.188071 235.822781 
L 242.174266 233.873409 
L 246.160462 228.208191 
L 250.146658 222.261355 
L 254.132853 221.827077 
L 258.119049 227.188964 
L 262.105245 231.17513 
L 266.09144 231.285513 
L 270.077636 230.148149 
L 274.063832 228.622054 
L 278.050027 226.446993 
L 282.036223 227.080684 
L 286.022418 229.567723 
L 290.008614 229.453001 
L 293.99481 226.816082 
L 297.981005 223.558014 
L 301.967201 221.22768 
L 305.953397 220.918649 
L 309.939592 221.411927 
L 313.925788 221.466194 
L 317.911984 220.414197 
L 321.898179 220.656549 
L 325.884375 222.659608 
L 329.870571 224.318876 
L 333.856766 224.598344 
L 337.842962 224.692328 
L 341.829158 225.248739 
L 345.815353 225.3086 
L 349.801549 224.382463 
L 353.787745 223.509382 
L 357.77394 223.681934 
L 361.760136 223.687198 
L 365.746332 222.856627 
L 369.732527 222.250074 
L 373.718723 222.692747 
L 377.704918 223.352635 
L 381.691114 223.148166 
L 385.67731 222.551606 
L 389.663505 222.349025 
L 393.649701 222.737285 
L 397.635897 223.096028 
L 401.622092 223.185508 
L 405.608288 223.193133 
L 409.594484 223.193368 
L 413.580679 223.193368 
L 417.566875 223.193368 
" clip-path="url(#p4b4ba12c0f)" style="fill: none; stroke-dasharray: 3.7,1.6; stroke-dashoffset: 0; stroke: #d95f02"/>
   </g>
   <g id="line2d_35">
    <path d="M 50.836875 324.366312 
L 54.823071 324.361898 
L 58.809266 329.82107 
L 62.795462 330.802567 
L 66.781658 316.806456 
L 70.767853 311.087083 
L 74.754049 313.442018 
L 78.740245 306.839411 
L 82.72644 297.219338 
L 86.712636 293.234948 
L 90.698832 295.682804 
L 94.685027 300.031795 
L 98.671223 301.163322 
L 102.657418 302.249713 
L 106.643614 304.521241 
L 110.62981 305.797371 
L 114.616005 306.800401 
L 118.602201 306.739841 
L 122.588397 306.829586 
L 126.574592 306.215533 
L 130.560788 306.153327 
L 134.546984 310.862687 
L 138.533179 311.962317 
L 142.519375 303.646427 
L 146.505571 298.509317 
L 150.491766 294.133089 
L 154.477962 286.673291 
L 158.464158 287.692877 
L 162.450353 295.982207 
L 166.436549 296.781993 
L 170.422745 290.609271 
L 174.40894 283.655198 
L 178.395136 278.011735 
L 182.381332 274.523398 
L 186.367527 273.161972 
L 190.353723 275.708916 
L 194.339918 280.762262 
L 198.326114 283.498132 
L 202.31231 282.190226 
L 206.298505 277.227055 
L 210.284701 271.856478 
L 214.270897 272.024849 
L 218.257092 276.303178 
L 222.243288 278.907091 
L 226.229484 276.999554 
L 230.215679 272.562927 
L 234.201875 269.16319 
L 238.188071 267.340991 
L 242.174266 265.546487 
L 246.160462 262.329174 
L 250.146658 257.465556 
L 254.132853 255.850702 
L 258.119049 260.58929 
L 262.105245 263.796366 
L 266.09144 262.133893 
L 270.077636 259.985591 
L 274.063832 258.390969 
L 278.050027 255.424658 
L 282.036223 254.922418 
L 286.022418 256.759014 
L 290.008614 255.76279 
L 293.99481 252.158046 
L 297.981005 249.137529 
L 301.967201 247.485683 
L 305.953397 246.417931 
L 309.939592 246.136808 
L 313.925788 247.706576 
L 317.911984 247.425722 
L 321.898179 244.973954 
L 325.884375 243.174098 
L 329.870571 243.424438 
L 333.856766 244.637099 
L 337.842962 245.494765 
L 341.829158 245.693034 
L 345.815353 244.490825 
L 349.801549 242.541817 
L 353.787745 240.39435 
L 357.77394 238.743875 
L 361.760136 238.068824 
L 365.746332 237.20938 
L 369.732527 235.411061 
L 373.718723 234.542879 
L 377.704918 234.308848 
L 381.691114 232.282346 
L 385.67731 229.731534 
L 389.663505 227.317761 
L 393.649701 224.845098 
L 397.635897 223.506256 
L 401.622092 223.217499 
L 405.608288 223.194071 
L 409.594484 223.193368 
L 413.580679 223.193368 
L 417.566875 223.193368 
" clip-path="url(#p4b4ba12c0f)" style="fill: none; stroke-dasharray: 3.7,1.6; stroke-dashoffset: 0; stroke: #d95f02"/>
   </g>
   <g id="line2d_36">
    <path d="M 50.836875 324.366312 
L 54.823071 317.493149 
L 58.809266 313.476865 
L 62.795462 315.16502 
L 66.781658 317.945996 
L 70.767853 307.708784 
L 74.754049 285.901623 
L 78.740245 275.717356 
L 82.72644 282.315624 
L 86.712636 290.309693 
L 90.698832 292.663099 
L 94.685027 296.359322 
L 98.671223 294.148057 
L 102.657418 283.245314 
L 106.643614 275.303626 
L 110.62981 272.826361 
L 114.616005 270.618199 
L 118.602201 264.297431 
L 122.588397 263.619752 
L 126.574592 267.571696 
L 130.560788 269.608907 
L 134.546984 271.078802 
L 138.533179 270.453792 
L 142.519375 267.898861 
L 146.505571 267.580241 
L 150.491766 267.02565 
L 154.477962 268.818901 
L 158.464158 272.108791 
L 162.450353 271.160333 
L 166.436549 270.167819 
L 170.422745 269.492396 
L 174.40894 265.833633 
L 178.395136 264.989295 
L 182.381332 267.97103 
L 186.367527 271.708615 
L 190.353723 272.06546 
L 194.339918 267.602185 
L 198.326114 263.882658 
L 202.31231 264.141736 
L 206.298505 262.716252 
L 210.284701 258.227764 
L 214.270897 255.831369 
L 218.257092 257.495837 
L 222.243288 259.319422 
L 226.229484 259.651608 
L 230.215679 260.381715 
L 234.201875 260.266252 
L 238.188071 259.017264 
L 242.174266 258.317535 
L 246.160462 257.834278 
L 250.146658 257.513157 
L 254.132853 259.077243 
L 258.119049 260.956927 
L 262.105245 261.934403 
L 266.09144 261.613774 
L 270.077636 258.831657 
L 274.063832 256.179025 
L 278.050027 256.360743 
L 282.036223 257.686929 
L 286.022418 257.878088 
L 290.008614 257.80548 
L 293.99481 258.319816 
L 297.981005 258.828765 
L 301.967201 258.630724 
L 305.953397 258.163286 
L 309.939592 258.106655 
L 313.925788 258.776743 
L 317.911984 258.627051 
L 321.898179 257.449874 
L 325.884375 257.355428 
L 329.870571 259.132012 
L 333.856766 261.201969 
L 337.842962 261.508276 
L 341.829158 260.891791 
L 345.815353 260.888113 
L 349.801549 260.676747 
L 353.787745 260.478822 
L 357.77394 260.689146 
L 361.760136 261.299141 
L 365.746332 262.058738 
L 369.732527 262.322415 
L 373.718723 262.552143 
L 377.704918 262.830666 
L 381.691114 262.981401 
L 385.67731 263.116875 
L 389.663505 263.130336 
L 393.649701 263.081896 
L 397.635897 263.065991 
L 401.622092 263.064526 
L 405.608288 263.064479 
L 409.594484 263.064479 
L 413.580679 263.064479 
L 417.566875 263.064479 
" clip-path="url(#p4b4ba12c0f)" style="fill: none; stroke: #1b9e77; stroke-width: 2; stroke-linecap: square"/>
   </g>
   <g id="line2d_37">
    <path d="M 50.836875 324.366312 
L 54.823071 311.721414 
L 58.809266 301.764619 
L 62.795462 299.432437 
L 66.781658 303.014083 
L 70.767853 295.93679 
L 74.754049 275.938518 
L 78.740245 265.018648 
L 82.72644 270.659059 
L 86.712636 276.870756 
L 90.698832 277.635752 
L 94.685027 281.43128 
L 98.671223 280.415848 
L 102.657418 270.738059 
L 106.643614 262.958943 
L 110.62981 260.700463 
L 114.616005 258.796129 
L 118.602201 252.717652 
L 122.588397 252.125787 
L 126.574592 255.317088 
L 130.560788 256.672175 
L 134.546984 258.802256 
L 138.533179 259.420525 
L 142.519375 257.149606 
L 146.505571 256.03197 
L 150.491766 255.087479 
L 154.477962 257.43286 
L 158.464158 261.961864 
L 162.450353 262.451844 
L 166.436549 261.968872 
L 170.422745 260.421266 
L 174.40894 255.954272 
L 178.395136 255.684114 
L 182.381332 259.316703 
L 186.367527 262.932084 
L 190.353723 263.00642 
L 194.339918 258.291804 
L 198.326114 254.29038 
L 202.31231 254.636004 
L 206.298505 253.709726 
L 210.284701 249.508356 
L 214.270897 247.303472 
L 218.257092 248.833523 
L 222.243288 250.640052 
L 226.229484 251.563815 
L 230.215679 252.585597 
L 234.201875 252.71005 
L 238.188071 251.795782 
L 242.174266 250.925613 
L 246.160462 250.05352 
L 250.146658 249.534529 
L 254.132853 251.454928 
L 258.119049 253.676296 
L 262.105245 254.744484 
L 266.09144 254.61346 
L 270.077636 252.042187 
L 274.063832 249.414066 
L 278.050027 249.658271 
L 282.036223 251.521643 
L 286.022418 252.307734 
L 290.008614 252.493453 
L 293.99481 252.992934 
L 297.981005 253.389662 
L 301.967201 253.158871 
L 305.953397 253.023273 
L 309.939592 253.446705 
L 313.925788 254.468861 
L 317.911984 254.534602 
L 321.898179 253.421983 
L 325.884375 253.287693 
L 329.870571 255.151663 
L 333.856766 257.553894 
L 337.842962 257.954936 
L 341.829158 257.367637 
L 345.815353 257.652654 
L 349.801549 257.638189 
L 353.787745 257.598378 
L 357.77394 257.948471 
L 361.760136 258.76367 
L 365.746332 259.98964 
L 369.732527 260.775652 
L 373.718723 261.350756 
L 377.704918 261.681396 
L 381.691114 261.884751 
L 385.67731 262.383244 
L 389.663505 262.85226 
L 393.649701 263.031673 
L 397.635897 263.062207 
L 401.622092 263.064418 
L 405.608288 263.064479 
L 409.594484 263.064479 
L 413.580679 263.064479 
L 417.566875 263.064479 
" clip-path="url(#p4b4ba12c0f)" style="fill: none; stroke-dasharray: 3.7,1.6; stroke-dashoffset: 0; stroke: #1b9e77"/>
   </g>
   <g id="line2d_38">
    <path d="M 50.836875 324.366312 
L 54.823071 329.036619 
L 58.809266 336.901356 
L 62.795462 346.630184 
L 66.781658 347.809821 
L 70.767853 331.252772 
L 74.754049 305.827834 
L 78.740245 297.114772 
L 82.72644 305.628753 
L 86.712636 317.187567 
L 90.698832 322.717794 
L 94.685027 326.215407 
L 98.671223 321.612476 
L 102.657418 308.259823 
L 106.643614 299.992991 
L 110.62981 297.078157 
L 114.616005 294.262338 
L 118.602201 287.456989 
L 122.588397 286.607684 
L 126.574592 292.080911 
L 130.560788 295.482372 
L 134.546984 295.631894 
L 138.533179 292.520327 
L 142.519375 289.397372 
L 146.505571 290.676783 
L 150.491766 290.901994 
L 154.477962 291.590983 
L 158.464158 292.402645 
L 162.450353 288.577313 
L 166.436549 286.565714 
L 170.422745 287.634655 
L 174.40894 285.592355 
L 178.395136 283.599656 
L 182.381332 285.279682 
L 186.367527 289.261676 
L 190.353723 290.18354 
L 194.339918 286.222948 
L 198.326114 283.067213 
L 202.31231 283.153201 
L 206.298505 280.729303 
L 210.284701 275.66658 
L 214.270897 272.887164 
L 218.257092 274.820465 
L 222.243288 276.67816 
L 226.229484 275.827194 
L 230.215679 275.973952 
L 234.201875 275.378657 
L 238.188071 273.460228 
L 242.174266 273.101381 
L 246.160462 273.395794 
L 250.146658 273.470414 
L 254.132853 274.321872 
L 258.119049 275.51819 
L 262.105245 276.314243 
L 266.09144 275.614403 
L 270.077636 272.410598 
L 274.063832 269.708944 
L 278.050027 269.765686 
L 282.036223 270.017499 
L 286.022418 269.018795 
L 290.008614 268.429533 
L 293.99481 268.973579 
L 297.981005 269.706972 
L 301.967201 269.574431 
L 305.953397 268.443312 
L 309.939592 267.426555 
L 313.925788 267.392506 
L 317.911984 266.811948 
L 321.898179 265.505655 
L 325.884375 265.490897 
L 329.870571 267.092711 
L 333.856766 268.498118 
L 337.842962 268.614957 
L 341.829158 267.940099 
L 345.815353 267.359031 
L 349.801549 266.753864 
L 353.787745 266.239709 
L 357.77394 266.170496 
L 361.760136 266.370084 
L 365.746332 266.196933 
L 369.732527 265.415942 
L 373.718723 264.954917 
L 377.704918 265.129205 
L 381.691114 265.174701 
L 385.67731 264.584137 
L 389.663505 263.686489 
L 393.649701 263.18234 
L 397.635897 263.073558 
L 401.622092 263.064743 
L 405.608288 263.064479 
L 409.594484 263.064479 
L 413.580679 263.064479 
L 417.566875 263.064479 
" clip-path="url(#p4b4ba12c0f)" style="fill: none; stroke-dasharray: 3.7,1.6; stroke-dashoffset: 0; stroke: #1b9e77"/>
   </g>
   <g id="patch_3">
    <path d="M 50.836875 382.677812 
L 50.836875 23.837812 
" style="fill: none; stroke: #000000; stroke-width: 0.8; stroke-linejoin: miter; stroke-linecap: square"/>
   </g>
   <g id="patch_4">
    <path d="M 417.566875 382.677812 
L 417.566875 23.837812 
" style="fill: none; stroke: #000000; stroke-width: 0.8; stroke-linejoin: miter; stroke-linecap: square"/>
   </g>
   <g id="patch_5">
    <path d="M 50.836875 382.677812 
L 417.566875 382.677812 
" style="fill: none; stroke: #000000; stroke-width: 0.8; stroke-linejoin: miter; stroke-linecap: square"/>
   </g>
   <g id="patch_6">
    <path d="M 50.836875 23.837812 
L 417.566875 23.837812 
" style="fill: none; stroke: #000000; stroke-width: 0.8; stroke-linejoin: miter; stroke-linecap: square"/>
   </g>
   <g id="text_17">
    <!-- Fuzzy Logic Aggregation -->
    <g transform="translate(149.040312 17.837812) scale(0.14 -0.14)">
     <defs>
      <path id="DejaVuSans-46" d="M 628 4666 
L 3309 4666 
L 3309 4134 
L 1259 4134 
L 1259 2759 
L 3109 2759 
L 3109 2228 
L 1259 2228 
L 1259 0 
L 628 0 
L 628 4666 
z
" transform="scale(0.015625)"/>
      <path id="DejaVuSans-7a" d="M 353 3500 
L 3084 3500 
L 3084 2975 
L 922 459 
L 3084 459 
L 3084 0 
L 275 0 
L 275 525 
L 2438 3041 
L 353 3041 
L 353 3500 
z
" transform="scale(0.015625)"/>
      <path id="DejaVuSans-79" d="M 2059 -325 
Q 1816 -950 1584 -1140 
Q 1353 -1331 966 -1331 
L 506 -1331 
L 506 -850 
L 844 -850 
Q 1081 -850 1212 -737 
Q 1344 -625 1503 -206 
L 1606 56 
L 191 3500 
L 800 3500 
L 1894 763 
L 2988 3500 
L 3597 3500 
L 2059 -325 
z
" transform="scale(0.015625)"/>
      <path id="DejaVuSans-4c" d="M 628 4666 
L 1259 4666 
L 1259 531 
L 3531 531 
L 3531 0 
L 628 0 
L 628 4666 
z
" transform="scale(0.015625)"/>
      <path id="DejaVuSans-67" d="M 2906 1791 
Q 2906 2416 2648 2759 
Q 2391 3103 1925 3103 
Q 1463 3103 1205 2759 
Q 947 2416 947 1791 
Q 947 1169 1205 825 
Q 1463 481 1925 481 
Q 2391 481 2648 825 
Q 2906 1169 2906 1791 
z
M 3481 434 
Q 3481 -459 3084 -895 
Q 2688 -1331 1869 -1331 
Q 1566 -1331 1297 -1286 
Q 1028 -1241 775 -1147 
L 775 -588 
Q 1028 -725 1275 -790 
Q 1522 -856 1778 -856 
Q 2344 -856 2625 -561 
Q 2906 -266 2906 331 
L 2906 616 
Q 2728 306 2450 153 
Q 2172 0 1784 0 
Q 1141 0 747 490 
Q 353 981 353 1791 
Q 353 2603 747 3093 
Q 1141 3584 1784 3584 
Q 2172 3584 2450 3431 
Q 2728 3278 2906 2969 
L 2906 3500 
L 3481 3500 
L 3481 434 
z
" transform="scale(0.015625)"/>
      <path id="DejaVuSans-41" d="M 2188 4044 
L 1331 1722 
L 3047 1722 
L 2188 4044 
z
M 1831 4666 
L 2547 4666 
L 4325 0 
L 3669 0 
L 3244 1197 
L 1141 1197 
L 716 0 
L 50 0 
L 1831 4666 
z
" transform="scale(0.015625)"/>
     </defs>
     <use xlink:href="#DejaVuSans-46"/>
     <use xlink:href="#DejaVuSans-75" x="52.019531"/>
     <use xlink:href="#DejaVuSans-7a" x="115.398438"/>
     <use xlink:href="#DejaVuSans-7a" x="167.888672"/>
     <use xlink:href="#DejaVuSans-79" x="220.378906"/>
     <use xlink:href="#DejaVuSans-20" x="279.558594"/>
     <use xlink:href="#DejaVuSans-4c" x="311.345703"/>
     <use xlink:href="#DejaVuSans-6f" x="365.308594"/>
     <use xlink:href="#DejaVuSans-67" x="426.490234"/>
     <use xlink:href="#DejaVuSans-69" x="489.966797"/>
     <use xlink:href="#DejaVuSans-63" x="517.75"/>
     <use xlink:href="#DejaVuSans-20" x="572.730469"/>
     <use xlink:href="#DejaVuSans-41" x="604.517578"/>
     <use xlink:href="#DejaVuSans-67" x="672.925781"/>
     <use xlink:href="#DejaVuSans-67" x="736.402344"/>
     <use xlink:href="#DejaVuSans-72" x="799.878906"/>
     <use xlink:href="#DejaVuSans-65" x="838.742188"/>
     <use xlink:href="#DejaVuSans-67" x="900.265625"/>
     <use xlink:href="#DejaVuSans-61" x="963.742188"/>
     <use xlink:href="#DejaVuSans-74" x="1025.021484"/>
     <use xlink:href="#DejaVuSans-69" x="1064.230469"/>
     <use xlink:href="#DejaVuSans-6f" x="1092.013672"/>
     <use xlink:href="#DejaVuSans-6e" x="1153.195312"/>
    </g>
   </g>
  </g>
 </g>
 <defs>
  <clipPath id="p4b4ba12c0f">
   <rect x="50.836875" y="23.837812" width="366.73" height="358.84"/>
  </clipPath>
 </defs>
</svg>
